<?xml version="1.0" encoding="UTF-8"?><svg xmlns="http://www.w3.org/2000/svg" xmlns:xlink="http://www.w3.org/1999/xlink" viewBox="0 0 5000 3000"><defs><style>.cls-1{fill:url(#radial-gradient-13);}.cls-1,.cls-2,.cls-3,.cls-4,.cls-5,.cls-6,.cls-7,.cls-8,.cls-9,.cls-10,.cls-11,.cls-12,.cls-13,.cls-14,.cls-15,.cls-16,.cls-17,.cls-18,.cls-19,.cls-20,.cls-21,.cls-22,.cls-23,.cls-24,.cls-25,.cls-26{stroke-width:0px;}.cls-1,.cls-3,.cls-4,.cls-5,.cls-6,.cls-9,.cls-11,.cls-12,.cls-13,.cls-14,.cls-15,.cls-16,.cls-17,.cls-18,.cls-19,.cls-20,.cls-21,.cls-22,.cls-23,.cls-24,.cls-25,.cls-26{mix-blend-mode:color-dodge;}.cls-2{fill:url(#linear-gradient);}.cls-3{fill:url(#radial-gradient-7);}.cls-27{isolation:isolate;}.cls-4{fill:url(#radial-gradient-11);}.cls-5{fill:url(#radial-gradient-10);}.cls-6{fill:url(#radial-gradient-16);}.cls-7{mix-blend-mode:overlay;}.cls-7,.cls-10{fill:#fff;}.cls-8{fill:none;}.cls-9{fill:url(#radial-gradient-15);}.cls-28{clip-path:url(#clippath-1);}.cls-11{fill:url(#radial-gradient-21);}.cls-12{fill:url(#radial-gradient);}.cls-13{fill:url(#radial-gradient-19);}.cls-14{fill:url(#radial-gradient-3);}.cls-15{fill:url(#radial-gradient-5);}.cls-16{fill:url(#radial-gradient-17);}.cls-29{clip-path:url(#clippath);}.cls-17{fill:url(#radial-gradient-4);}.cls-18{fill:url(#radial-gradient-2);}.cls-19{fill:url(#radial-gradient-8);}.cls-20{fill:url(#radial-gradient-20);}.cls-21{fill:url(#radial-gradient-6);}.cls-22{fill:url(#radial-gradient-9);}.cls-23{fill:url(#radial-gradient-22);}.cls-24{fill:url(#radial-gradient-18);}.cls-25{fill:url(#radial-gradient-14);}.cls-26{fill:url(#radial-gradient-12);}</style><clipPath id="clippath"><rect class="cls-8" width="5000" height="3000"/></clipPath><clipPath id="clippath-1"><rect class="cls-8" x="-80.14" y="-73.55" width="5139.87" height="3105.59"/></clipPath><linearGradient id="linear-gradient" x1="348.82" y1="106.4" x2="5079.43" y2="3139.78" gradientUnits="userSpaceOnUse"><stop offset=".01" stop-color="#005094"/><stop offset=".45" stop-color="#03275e"/><stop offset=".81" stop-color="#050a38"/><stop offset="1" stop-color="#06002a"/></linearGradient><radialGradient id="radial-gradient" cx="2927.31" cy="1530.47" fx="2927.31" fy="1530.47" r="49.41" gradientUnits="userSpaceOnUse"><stop offset="0" stop-color="#fff"/><stop offset="1" stop-color="#000"/></radialGradient><radialGradient id="radial-gradient-2" cx="3657.69" cy="1554.1" fx="3657.69" fy="1554.1" r="49.41" xlink:href="#radial-gradient"/><radialGradient id="radial-gradient-3" cx="2940.2" cy="2028.13" fx="2940.2" fy="2028.13" r="49.41" xlink:href="#radial-gradient"/><radialGradient id="radial-gradient-4" cx="4216.22" cy="1029.94" fx="4216.22" fy="1029.94" xlink:href="#radial-gradient"/><radialGradient id="radial-gradient-5" cx="4697.41" cy="1055.72" fx="4697.41" fy="1055.72" r="49.41" xlink:href="#radial-gradient"/><radialGradient id="radial-gradient-6" cx="4542.74" cy="1579.87" fx="4542.74" fy="1579.87" xlink:href="#radial-gradient"/><radialGradient id="radial-gradient-7" cx="3803.77" cy="2224.33" fx="3803.77" fy="2224.33" r="49.41" xlink:href="#radial-gradient"/><radialGradient id="radial-gradient-8" cx="3305.39" cy="2138.4" fx="3305.39" fy="2138.4" xlink:href="#radial-gradient"/><radialGradient id="radial-gradient-9" cy="2585.22" fy="2585.22" xlink:href="#radial-gradient"/><radialGradient id="radial-gradient-10" cx="2343.01" cy="2421.96" fx="2343.01" fy="2421.96" xlink:href="#radial-gradient"/><radialGradient id="radial-gradient-11" cx="2660.94" cy="1940.77" fx="2660.94" fy="1940.77" xlink:href="#radial-gradient"/><radialGradient id="radial-gradient-12" cx="1818.85" cy="2782.85" fx="1818.85" fy="2782.85" xlink:href="#radial-gradient"/><radialGradient id="radial-gradient-13" cx="2703.19" cy="2772.59" fx="2703.19" fy="2772.59" r="49.41" xlink:href="#radial-gradient"/><radialGradient id="radial-gradient-14" cx="3640.51" cy="2705.52" fx="3640.51" fy="2705.52" xlink:href="#radial-gradient"/><radialGradient id="radial-gradient-15" cx="4250.59" cy="2488.83" fx="4250.59" fy="2488.83" r="49.41" xlink:href="#radial-gradient"/><radialGradient id="radial-gradient-16" cx="4027.18" cy="2566.16" fx="4027.18" fy="2566.16" xlink:href="#radial-gradient"/><radialGradient id="radial-gradient-17" cx="4336.52" cy="3026.31" fx="4336.52" fy="3026.31" xlink:href="#radial-gradient"/><radialGradient id="radial-gradient-18" cx="4508.37" cy="1906.4" fx="4508.37" fy="1906.4" r="49.41" xlink:href="#radial-gradient"/><radialGradient id="radial-gradient-19" cx="4027.18" cy="1725.95" fx="4027.18" fy="1725.95" xlink:href="#radial-gradient"/><radialGradient id="radial-gradient-20" cx="4917.24" cy="1430.22" fx="4917.24" fy="1430.22" r="49.41" xlink:href="#radial-gradient"/><radialGradient id="radial-gradient-21" cx="3171.85" cy="2737.74" fx="3171.85" fy="2737.74" xlink:href="#radial-gradient"/><radialGradient id="radial-gradient-22" cx="4800.52" cy="2482.11" fx="4800.52" fy="2482.11" xlink:href="#radial-gradient"/></defs><g class="cls-27"><g id="Layer_1"><g class="cls-29"><g class="cls-28"><rect class="cls-2" x="-80.14" y="-73.55" width="5139.87" height="3105.59"/><path class="cls-7" d="m3081.98,3155.4c-1.37,0-2.58-.92-2.95-2.25l-154.21-565.45-582.63-162.79c-1.15-.32-2.01-1.29-2.2-2.47-.18-1.18.34-2.36,1.34-3.02l593.15-391.56-274.44-84.16c-1.36-.42-2.26-1.72-2.15-3.14.1-1.42,1.17-2.58,2.58-2.8l538.85-84.72,72.07-47.58-345.97-274.74c-1.1-.87-1.46-2.37-.89-3.65.58-1.28,1.92-1.98,3.33-1.75l603.6,108.46,124.56-82.22c1.19-.78,2.76-.65,3.8.35,1.03.99,1.24,2.56.5,3.78l-55.08,91.35,421.8,75.79,514.88-145.88c.54-.16,1.16-.15,1.73.02h0s.02,0,.02,0l559.54,178.04-408.43-697.74c-.85-1.46-.36-3.33,1.09-4.18,1.46-.85,3.33-.37,4.18,1.09l412.45,704.6c.64,1.09.54,2.46-.25,3.45-.79.98-2.12,1.37-3.31,1l-563.55-179.31-33.97,322.79c-.03.31-.11.62-.24.91l-254.91,578.73,921.3-333.64c1.57-.58,3.34.24,3.91,1.83.58,1.59-.24,3.34-1.83,3.91l-928.01,336.07c-1.15.42-2.43.11-3.27-.78-.84-.9-1.06-2.2-.57-3.32l257.59-584.82,33.5-318.31-733.11,639.34s-.07.05-.11.09h0c-.36.29-.76.48-1.18.58h0s0,0-.01,0c-.3.07-.64.09-.94.07h-.03c-.1,0-.18-.02-.28-.04l-495.46-85.42-222.79,1011.09c-.3,1.37-1.5,2.36-2.91,2.4h-.08Zm-731.7-734.58l577.85,161.46c1.03.29,1.84,1.1,2.12,2.14l151.4,555.16,220.14-999.08-359.75-110.32-591.77,390.65Zm1085.44-492.66l366.86,291.33,219.5-489.64-515.68,81.08-70.69,117.23Zm-125.41,208l482.19,83.13-359.97-285.86-122.23,202.72Zm719.07-407.65l-217.14,484.38,718.21-626.35-501.08,141.97Zm-1080.72,297.31l355.35,108.97,123.71-205.18-111.74-88.73-114.42,17.99-252.91,166.95Zm-274.17-84.08l266.59,81.75,245.92-162.34-512.52,80.59Zm649.69-102.15l106.72,84.74,67.63-112.16-174.34,27.42Zm-47.76-30.13l-62.55,41.29,95.61-15.04-33.06-26.25Zm5.36-3.54l35.9,28.51,184.97-29.08,92.77-153.86-62.64-11.25-250.99,165.69Zm320.07-153.28l-91.33,151.47,498.27-78.35-406.94-73.12Zm-663.14-119.16l338.03,268.44,247.31-163.26-585.34-105.18Zm601.45,101.87l58.62,10.53,49.31-81.78-107.93,71.25Z"/><path class="cls-7" d="m4817.71,3146.8c-.87,0-1.71-.37-2.3-1.05l-118.12-135.82-360.55,25.16c-1.55.14-2.98-1.01-3.23-2.57l-85.93-540.39c-.21-1.34.49-2.67,1.72-3.25,1.25-.56,2.71-.27,3.6.76l447,513.98,110.91-7.74-13.34-513.7c-.04-1.68,1.29-3.08,2.98-3.13,1.61,0,3.09,1.29,3.13,2.98l13.34,513.43,255.85-17.85,102.81-822.41c.21-1.68,1.75-2.87,3.41-2.65,1.67.21,2.86,1.74,2.65,3.41l-103.12,824.89c-.18,1.45-1.36,2.57-2.82,2.67l-258.64,18.04,3.69,142.1c.03,1.29-.75,2.46-1.95,2.92-.36.14-.74.21-1.11.21Zm-112.79-137.41l109.52,125.93-3.46-133.33-106.06,7.4Zm-449.63-507.69l83.81,527.1,353.16-24.64-436.98-502.46Z"/><path class="cls-7" d="m4336.52,3035.1c-.44,0-.88-.1-1.29-.29l-696.01-326.52c-1.53-.72-2.19-2.54-1.47-4.06.72-1.53,2.55-2.18,4.06-1.47l686.19,321.92-526.78-798.66c-.93-1.41-.54-3.31.87-4.23,1.41-.95,3.3-.55,4.23.87l532.75,807.71c.76,1.15.66,2.65-.24,3.68-.59.69-1.44,1.06-2.31,1.06Z"/><path class="cls-7" d="m3081.98,3155.4c-.29,0-.57-.04-.86-.13l-1263.12-369.49c-1.13-.33-1.97-1.28-2.16-2.45-.19-1.16.31-2.33,1.28-3l524.16-360.89c1.21-.82,2.84-.69,3.88.35l738.97,730.38c1,.98,1.19,2.52.48,3.72-.56.95-1.57,1.5-2.63,1.5Zm-1256.1-373.67l1245.35,364.29-728.57-720.11-516.78,355.81Z"/><path class="cls-7" d="m2660.94,1943.82c-.57,0-1.15-.16-1.66-.49-1.41-.91-1.82-2.8-.91-4.22l266.37-412.45c.35-.54.86-.96,1.46-1.19l1288.9-498.38c1.58-.6,3.34.17,3.96,1.75.61,1.57-.18,3.34-1.75,3.95l-1287.98,498.02-265.84,411.62c-.58.9-1.56,1.4-2.57,1.4Z"/><path class="cls-7" d="m1647,3284.29c-.3,0-.61-.04-.91-.14l-635.86-197.63c-1.25-.39-2.11-1.53-2.15-2.83-.04-1.31.76-2.49,1.99-2.95l807.71-300.75c1.11-.4,2.35-.14,3.2.68.85.82,1.14,2.06.75,3.18l-170.04,493.13,645.43-152.86,42.83-702.34c.03-.54.21-1.05.5-1.5l317.93-481.19c.62-.94,1.74-1.43,2.84-1.36,1.13.11,2.1.83,2.53,1.87l264.46,639.82,373.41-441.3-376.91-608.2c-.6-.96-.61-2.17-.05-3.14.57-.98,1.64-1.68,2.75-1.52l730.38,25.78c.41.01.81.11,1.18.28l366.2,170.33,188.09-692.52c.32-1.18,1.32-2.06,2.54-2.23,1.2-.17,2.41.41,3.04,1.47l322.95,543.91,152.69-517.44c.16-.54.46-1.02.88-1.4l464.01-421.04c.89-.81,2.19-1.02,3.29-.53,1.11.49,1.82,1.58,1.82,2.79v704.6l-51.58,421.41c-.16,1.26-1.07,2.3-2.31,2.6l-591.79,143.72,660.88,245.71c1.01.38,1.75,1.26,1.95,2.32.19,1.06-.19,2.15-1.01,2.85l-376.21,324.91,273.77,496.21c.78,1.41.33,3.19-1.04,4.06l-257.78,163.26c-.7.44-1.55.58-2.33.39l-480.79-111.62-695.6,25.77c-.81-.04-1.64-.28-2.23-.85-.6-.58-.94-1.37-.94-2.2v-345.95l-553.57,442.85c-.57.46-1.31.63-2.01.67l-781.53-25.76-652.59,154.56c-.25.07-.5.1-.76.1Zm-626.41-200.95l624.49,194.1,168.78-489.47-793.26,295.37Zm1282.69,40.28l777.67,25.63,555.58-444.46-331.58-561.13-375.31,443.54c-.69.81-1.77,1.21-2.8,1.04-1.06-.17-1.95-.87-2.35-1.85l-264.18-639.13-314.3,475.71-42.72,700.66Zm2033.23-94.63c.23,0,.47.02.69.08l479.94,111.42,254.27-161.05-272.69-494.25-548.09,9.52c-.57.03-1.13-.14-1.62-.44l-443.58-265.38-161.88,477.13v348.64l692.84-25.67h.11Zm-1026.29-888.41l329.52,557.65,161.12-474.89c.3-.87.97-1.56,1.84-1.89.88-.32,1.83-.23,2.63.25l446.07,266.88,544.19-9.45-288.9-569.31-1196.46,230.75Zm1204.41-228.6l286.85,565.27,371.21-320.6-658.07-244.67Zm-1581.71-380.41l373.96,603.43,1200.85-231.59,599.36-145.56,51.3-418.94-.02-697.34-458.27,415.83-154.43,523.34c-.35,1.16-1.34,2.02-2.55,2.17-1.24.13-2.39-.43-3.01-1.47l-322.84-543.73-187.14,689.05c-.24.87-.84,1.59-1.66,1.97-.82.38-1.75.38-2.58,0l-368.93-171.59-724.04-25.56Z"/><path class="cls-7" d="m3081.97,3155.4c-1.46,0-2.76-1.06-3.01-2.55-.28-1.66.84-3.24,2.51-3.52l557.63-94.36,609.41-565.55c1.23-1.15,3.16-1.08,4.31.16,1.15,1.24,1.08,3.17-.16,4.31l-610.08,566.17c-.44.41-.98.67-1.57.78l-558.53,94.52c-.17.03-.34.04-.51.04Z"/><path class="cls-7" d="m4542.74,1582.93c-1.22,0-2.37-.74-2.85-1.95-.61-1.57.17-3.34,1.74-3.95l612.93-238.36-458.09-279.94-479.12-25.67-557.58,523.26c-1.22,1.15-3.16,1.09-4.31-.14-1.16-1.23-1.1-3.17.14-4.32l558.52-524.16c.6-.57,1.44-.85,2.25-.82l481.2,25.78c.51.03,1,.18,1.43.44l464.01,283.56c.99.61,1.55,1.72,1.45,2.88-.1,1.16-.85,2.15-1.93,2.57l-618.68,240.6c-.36.14-.74.21-1.11.21Z"/><path class="cls-7" d="m2300.04,3129.62c-.86,0-1.71-.36-2.31-1.06-1.1-1.28-.96-3.21.32-4.31l627.27-541.35c1.27-1.09,3.2-.96,4.31.32,1.1,1.28.96,3.21-.32,4.31l-627.27,541.35c-.58.5-1.29.74-2,.74Z"/><path class="cls-7" d="m4216.22,1032.99c-1.19,0-2.33-.7-2.82-1.88-.65-1.56.08-3.35,1.63-4l945.2-395.27c1.57-.64,3.35.08,4,1.64s-.08,3.35-1.63,4l-945.2,395.27c-.39.16-.79.24-1.18.24Z"/><path class="cls-7" d="m3081.98,3155.4c-1.37,0-2.58-.92-2.95-2.25l-154.21-565.45-582.63-162.79c-1.15-.32-2.01-1.29-2.2-2.47-.18-1.18.34-2.36,1.34-3.02l593.15-391.56-274.44-84.16c-1.36-.42-2.26-1.72-2.15-3.14.1-1.42,1.17-2.58,2.58-2.8l538.85-84.72,72.07-47.58-345.97-274.74c-1.1-.87-1.46-2.37-.89-3.65.58-1.28,1.92-1.98,3.33-1.75l603.6,108.46,124.56-82.22c1.19-.78,2.76-.65,3.8.35,1.03.99,1.24,2.56.5,3.78l-55.08,91.35,421.8,75.79,514.88-145.88c.54-.16,1.16-.15,1.73.02h0s.02,0,.02,0l559.54,178.04-408.43-697.74c-.85-1.46-.36-3.33,1.09-4.18,1.46-.85,3.33-.37,4.18,1.09l412.45,704.6c.64,1.09.54,2.46-.25,3.45-.79.98-2.12,1.37-3.31,1l-563.55-179.31-33.97,322.79c-.03.31-.11.62-.24.91l-254.91,578.73,921.3-333.64c1.57-.58,3.34.24,3.91,1.83.58,1.59-.24,3.34-1.83,3.91l-928.01,336.07c-1.15.42-2.43.11-3.27-.78-.84-.9-1.06-2.2-.57-3.32l257.59-584.82,33.5-318.31-733.11,639.34s-.07.05-.11.09h0c-.36.29-.76.48-1.18.58h0s0,0-.01,0c-.3.07-.64.09-.94.07h-.03c-.1,0-.18-.02-.28-.04l-495.46-85.42-222.79,1011.09c-.3,1.37-1.5,2.36-2.91,2.4h-.08Zm-731.7-734.58l577.85,161.46c1.03.29,1.84,1.1,2.12,2.14l151.4,555.16,220.14-999.08-359.75-110.32-591.77,390.65Zm1085.44-492.66l366.86,291.33,219.5-489.64-515.68,81.08-70.69,117.23Zm-125.41,208l482.19,83.13-359.97-285.86-122.23,202.72Zm719.07-407.65l-217.14,484.38,718.21-626.35-501.08,141.97Zm-1080.72,297.31l355.35,108.97,123.71-205.18-111.74-88.73-114.42,17.99-252.91,166.95Zm-274.17-84.08l266.59,81.75,245.92-162.34-512.52,80.59Zm649.69-102.15l106.72,84.74,67.63-112.16-174.34,27.42Zm-47.76-30.13l-62.55,41.29,95.61-15.04-33.06-26.25Zm5.36-3.54l35.9,28.51,184.97-29.08,92.77-153.86-62.64-11.25-250.99,165.69Zm320.07-153.28l-91.33,151.47,498.27-78.35-406.94-73.12Zm-663.14-119.16l338.03,268.44,247.31-163.26-585.34-105.18Zm601.45,101.87l58.62,10.53,49.31-81.78-107.93,71.25Z"/><path class="cls-7" d="m4817.71,3146.8c-.87,0-1.71-.37-2.3-1.05l-118.12-135.82-360.55,25.16c-1.55.14-2.98-1.01-3.23-2.57l-85.93-540.39c-.21-1.34.49-2.67,1.72-3.25,1.25-.56,2.71-.27,3.6.76l447,513.98,110.91-7.74-13.34-513.7c-.04-1.68,1.29-3.08,2.98-3.13,1.61,0,3.09,1.29,3.13,2.98l13.34,513.43,255.85-17.85,102.81-822.41c.21-1.68,1.75-2.87,3.41-2.65,1.67.21,2.86,1.74,2.65,3.41l-103.12,824.89c-.18,1.45-1.36,2.57-2.82,2.67l-258.64,18.04,3.69,142.1c.03,1.29-.75,2.46-1.95,2.92-.36.14-.74.21-1.11.21Zm-112.79-137.41l109.52,125.93-3.46-133.33-106.06,7.4Zm-449.63-507.69l83.81,527.1,353.16-24.64-436.98-502.46Z"/><path class="cls-7" d="m4336.52,3035.1c-.44,0-.88-.1-1.29-.29l-696.01-326.52c-1.53-.72-2.19-2.54-1.47-4.06.72-1.53,2.55-2.18,4.06-1.47l686.19,321.92-526.78-798.66c-.93-1.41-.54-3.31.87-4.23,1.41-.95,3.3-.55,4.23.87l532.75,807.71c.76,1.15.66,2.65-.24,3.68-.59.69-1.44,1.06-2.31,1.06Z"/><path class="cls-7" d="m3081.98,3155.4c-.29,0-.57-.04-.86-.13l-1263.12-369.49c-1.13-.33-1.97-1.28-2.16-2.45-.19-1.16.31-2.33,1.28-3l524.16-360.89c1.21-.82,2.84-.69,3.88.35l738.97,730.38c1,.98,1.19,2.52.48,3.72-.56.95-1.57,1.5-2.63,1.5Zm-1256.1-373.67l1245.35,364.29-728.57-720.11-516.78,355.81Z"/><path class="cls-7" d="m2660.94,1943.82c-.57,0-1.15-.16-1.66-.49-1.41-.91-1.82-2.8-.91-4.22l266.37-412.45c.35-.54.86-.96,1.46-1.19l1288.9-498.38c1.58-.6,3.34.17,3.96,1.75.61,1.57-.18,3.34-1.75,3.95l-1287.98,498.02-265.84,411.62c-.58.9-1.56,1.4-2.57,1.4Z"/><path class="cls-7" d="m1647,3284.29c-.3,0-.61-.04-.91-.14l-635.86-197.63c-1.25-.39-2.11-1.53-2.15-2.83-.04-1.31.76-2.49,1.99-2.95l807.71-300.75c1.11-.4,2.35-.14,3.2.68.85.82,1.14,2.06.75,3.18l-170.04,493.13,645.43-152.86,42.83-702.34c.03-.54.21-1.05.5-1.5l317.93-481.19c.62-.94,1.74-1.43,2.84-1.36,1.13.11,2.1.83,2.53,1.87l264.46,639.82,373.41-441.3-376.91-608.2c-.6-.96-.61-2.17-.05-3.14.57-.98,1.64-1.68,2.75-1.52l730.38,25.78c.41.01.81.11,1.18.28l366.2,170.33,188.09-692.52c.32-1.18,1.32-2.06,2.54-2.23,1.2-.17,2.41.41,3.04,1.47l322.95,543.91,152.69-517.44c.16-.54.46-1.02.88-1.4l464.01-421.04c.89-.81,2.19-1.02,3.29-.53,1.11.49,1.82,1.58,1.82,2.79v704.6l-51.58,421.41c-.16,1.26-1.07,2.3-2.31,2.6l-591.79,143.72,660.88,245.71c1.01.38,1.75,1.26,1.95,2.32.19,1.06-.19,2.15-1.01,2.85l-376.21,324.91,273.77,496.21c.78,1.41.33,3.19-1.04,4.06l-257.78,163.26c-.7.44-1.55.58-2.33.39l-480.79-111.62-695.6,25.77c-.81-.04-1.64-.28-2.23-.85-.6-.58-.94-1.37-.94-2.2v-345.95l-553.57,442.85c-.57.46-1.31.63-2.01.67l-781.53-25.76-652.59,154.56c-.25.07-.5.1-.76.1Zm-626.41-200.95l624.49,194.1,168.78-489.47-793.26,295.37Zm1282.69,40.28l777.67,25.63,555.58-444.46-331.58-561.13-375.31,443.54c-.69.81-1.77,1.21-2.8,1.04-1.06-.17-1.95-.87-2.35-1.85l-264.18-639.13-314.3,475.71-42.72,700.66Zm2033.23-94.63c.23,0,.47.02.69.08l479.94,111.42,254.27-161.05-272.69-494.25-548.09,9.52c-.57.03-1.13-.14-1.62-.44l-443.58-265.38-161.88,477.13v348.64l692.84-25.67h.11Zm-1026.29-888.41l329.52,557.65,161.12-474.89c.3-.87.97-1.56,1.84-1.89.88-.32,1.83-.23,2.63.25l446.07,266.88,544.19-9.45-288.9-569.31-1196.46,230.75Zm1204.41-228.6l286.85,565.27,371.21-320.6-658.07-244.67Zm-1581.71-380.41l373.96,603.43,1200.85-231.59,599.36-145.56,51.3-418.94-.02-697.34-458.27,415.83-154.43,523.34c-.35,1.16-1.34,2.02-2.55,2.17-1.24.13-2.39-.43-3.01-1.47l-322.84-543.73-187.14,689.05c-.24.87-.84,1.59-1.66,1.97-.82.38-1.75.38-2.58,0l-368.93-171.59-724.04-25.56Z"/><path class="cls-7" d="m3081.97,3155.4c-1.46,0-2.76-1.06-3.01-2.55-.28-1.66.84-3.24,2.51-3.52l557.63-94.36,609.41-565.55c1.23-1.15,3.16-1.08,4.31.16,1.15,1.24,1.08,3.17-.16,4.31l-610.08,566.17c-.44.41-.98.67-1.57.78l-558.53,94.52c-.17.03-.34.04-.51.04Z"/><path class="cls-7" d="m4542.74,1582.93c-1.22,0-2.37-.74-2.85-1.95-.61-1.57.17-3.34,1.74-3.95l612.93-238.36-458.09-279.94-479.12-25.67-557.58,523.26c-1.22,1.15-3.16,1.09-4.31-.14-1.16-1.23-1.1-3.17.14-4.32l558.52-524.16c.6-.57,1.44-.85,2.25-.82l481.2,25.78c.51.03,1,.18,1.43.44l464.01,283.56c.99.61,1.55,1.72,1.45,2.88-.1,1.16-.85,2.15-1.93,2.57l-618.68,240.6c-.36.14-.74.21-1.11.21Z"/><path class="cls-7" d="m2300.04,3129.62c-.86,0-1.71-.36-2.31-1.06-1.1-1.28-.96-3.21.32-4.31l627.27-541.35c1.27-1.09,3.2-.96,4.31.32,1.1,1.28.96,3.21-.32,4.31l-627.27,541.35c-.58.5-1.29.74-2,.74Z"/><path class="cls-7" d="m4216.22,1032.99c-1.19,0-2.33-.7-2.82-1.88-.65-1.56.08-3.35,1.63-4l945.2-395.27c1.57-.64,3.35.08,4,1.64s-.08,3.35-1.63,4l-945.2,395.27c-.39.16-.79.24-1.18.24Z"/><path class="cls-7" d="m3081.98,3155.4c-1.37,0-2.58-.92-2.95-2.25l-154.21-565.45-582.63-162.79c-1.15-.32-2.01-1.29-2.2-2.47-.18-1.18.34-2.36,1.34-3.02l593.15-391.56-274.44-84.16c-1.36-.42-2.26-1.72-2.15-3.14.1-1.42,1.17-2.58,2.58-2.8l538.85-84.72,72.07-47.58-345.97-274.74c-1.1-.87-1.46-2.37-.89-3.65.58-1.28,1.92-1.98,3.33-1.75l603.6,108.46,124.56-82.22c1.19-.78,2.76-.65,3.8.35,1.03.99,1.24,2.56.5,3.78l-55.08,91.35,421.8,75.79,514.88-145.88c.54-.16,1.16-.15,1.73.02h0s.02,0,.02,0l559.54,178.04-408.43-697.74c-.85-1.46-.36-3.33,1.09-4.18,1.46-.85,3.33-.37,4.18,1.09l412.45,704.6c.64,1.09.54,2.46-.25,3.45-.79.98-2.12,1.37-3.31,1l-563.55-179.31-33.97,322.79c-.03.31-.11.62-.24.91l-254.91,578.73,921.3-333.64c1.57-.58,3.34.24,3.91,1.83.58,1.59-.24,3.34-1.83,3.91l-928.01,336.07c-1.15.42-2.43.11-3.27-.78-.84-.9-1.06-2.2-.57-3.32l257.59-584.82,33.5-318.31-733.11,639.34s-.07.05-.11.09h0c-.36.29-.76.48-1.18.58h0s0,0-.01,0c-.3.07-.64.09-.94.07h-.03c-.1,0-.18-.02-.28-.04l-495.46-85.42-222.79,1011.09c-.3,1.37-1.5,2.36-2.91,2.4h-.08Zm-731.7-734.58l577.85,161.46c1.03.29,1.84,1.1,2.12,2.14l151.4,555.16,220.14-999.08-359.75-110.32-591.77,390.65Zm1085.44-492.66l366.86,291.33,219.5-489.64-515.68,81.08-70.69,117.23Zm-125.41,208l482.19,83.13-359.97-285.86-122.23,202.72Zm719.07-407.65l-217.14,484.38,718.21-626.35-501.08,141.97Zm-1080.72,297.31l355.35,108.97,123.71-205.18-111.74-88.73-114.42,17.99-252.91,166.95Zm-274.17-84.08l266.59,81.75,245.92-162.34-512.52,80.59Zm649.69-102.15l106.72,84.74,67.63-112.16-174.34,27.42Zm-47.76-30.13l-62.55,41.29,95.61-15.04-33.06-26.25Zm5.36-3.54l35.9,28.51,184.97-29.08,92.77-153.86-62.64-11.25-250.99,165.69Zm320.07-153.28l-91.33,151.47,498.27-78.35-406.94-73.12Zm-663.14-119.16l338.03,268.44,247.31-163.26-585.34-105.18Zm601.45,101.87l58.62,10.53,49.31-81.78-107.93,71.25Z"/><path class="cls-7" d="m4817.71,3146.8c-.87,0-1.71-.37-2.3-1.05l-118.12-135.82-360.55,25.16c-1.55.14-2.98-1.01-3.23-2.57l-85.93-540.39c-.21-1.34.49-2.67,1.72-3.25,1.25-.56,2.71-.27,3.6.76l447,513.98,110.91-7.74-13.34-513.7c-.04-1.68,1.29-3.08,2.98-3.13,1.61,0,3.09,1.29,3.13,2.98l13.34,513.43,255.85-17.85,102.81-822.41c.21-1.68,1.75-2.87,3.41-2.65,1.67.21,2.86,1.74,2.65,3.41l-103.12,824.89c-.18,1.45-1.36,2.57-2.82,2.67l-258.64,18.04,3.69,142.1c.03,1.29-.75,2.46-1.95,2.92-.36.14-.74.21-1.11.21Zm-112.79-137.41l109.52,125.93-3.46-133.33-106.06,7.4Zm-449.63-507.69l83.81,527.1,353.16-24.64-436.98-502.46Z"/><path class="cls-7" d="m4336.52,3035.1c-.44,0-.88-.1-1.29-.29l-696.01-326.52c-1.53-.72-2.19-2.54-1.47-4.06.72-1.53,2.55-2.18,4.06-1.47l686.19,321.92-526.78-798.66c-.93-1.41-.54-3.31.87-4.23,1.41-.95,3.3-.55,4.23.87l532.75,807.71c.76,1.15.66,2.65-.24,3.68-.59.69-1.44,1.06-2.31,1.06Z"/><path class="cls-7" d="m3081.98,3155.4c-.29,0-.57-.04-.86-.13l-1263.12-369.49c-1.13-.33-1.97-1.28-2.16-2.45-.19-1.16.31-2.33,1.28-3l524.16-360.89c1.21-.82,2.84-.69,3.88.35l738.97,730.38c1,.98,1.19,2.52.48,3.72-.56.95-1.57,1.5-2.63,1.5Zm-1256.1-373.67l1245.35,364.29-728.57-720.11-516.78,355.81Z"/><path class="cls-7" d="m2660.94,1943.82c-.57,0-1.15-.16-1.66-.49-1.41-.91-1.82-2.8-.91-4.22l266.37-412.45c.35-.54.86-.96,1.46-1.19l1288.9-498.38c1.58-.6,3.34.17,3.96,1.75.61,1.57-.18,3.34-1.75,3.95l-1287.98,498.02-265.84,411.62c-.58.9-1.56,1.4-2.57,1.4Z"/><path class="cls-7" d="m1647,3284.29c-.3,0-.61-.04-.91-.14l-635.86-197.63c-1.25-.39-2.11-1.53-2.15-2.83-.04-1.31.76-2.49,1.99-2.95l807.71-300.75c1.11-.4,2.35-.14,3.2.68.85.82,1.14,2.06.75,3.18l-170.04,493.13,645.43-152.86,42.83-702.34c.03-.54.21-1.05.5-1.5l317.93-481.19c.62-.94,1.74-1.43,2.84-1.36,1.13.11,2.1.83,2.53,1.87l264.46,639.82,373.41-441.3-376.91-608.2c-.6-.96-.61-2.17-.05-3.14.57-.98,1.64-1.68,2.75-1.52l730.38,25.78c.41.01.81.11,1.18.28l366.2,170.33,188.09-692.52c.32-1.18,1.32-2.06,2.54-2.23,1.2-.17,2.41.41,3.04,1.47l322.95,543.91,152.69-517.44c.16-.54.46-1.02.88-1.4l464.01-421.04c.89-.81,2.19-1.02,3.29-.53,1.11.49,1.82,1.58,1.82,2.79v704.6l-51.58,421.41c-.16,1.26-1.07,2.3-2.31,2.6l-591.79,143.72,660.88,245.71c1.01.38,1.75,1.26,1.95,2.32.19,1.06-.19,2.15-1.01,2.85l-376.21,324.91,273.77,496.21c.78,1.41.33,3.19-1.04,4.06l-257.78,163.26c-.7.44-1.55.58-2.33.39l-480.79-111.62-695.6,25.77c-.81-.04-1.64-.28-2.23-.85-.6-.58-.94-1.37-.94-2.2v-345.95l-553.57,442.85c-.57.46-1.31.63-2.01.67l-781.53-25.76-652.59,154.56c-.25.07-.5.1-.76.1Zm-626.41-200.95l624.49,194.1,168.78-489.47-793.26,295.37Zm1282.69,40.28l777.67,25.63,555.58-444.46-331.58-561.13-375.31,443.54c-.69.81-1.77,1.21-2.8,1.04-1.06-.17-1.95-.87-2.35-1.85l-264.18-639.13-314.3,475.71-42.72,700.66Zm2033.23-94.63c.23,0,.47.02.69.08l479.94,111.42,254.27-161.05-272.69-494.25-548.09,9.52c-.57.03-1.13-.14-1.62-.44l-443.58-265.38-161.88,477.13v348.64l692.84-25.67h.11Zm-1026.29-888.41l329.52,557.65,161.12-474.89c.3-.87.97-1.56,1.84-1.89.88-.32,1.83-.23,2.63.25l446.07,266.88,544.19-9.45-288.9-569.31-1196.46,230.75Zm1204.41-228.6l286.85,565.27,371.21-320.6-658.07-244.67Zm-1581.71-380.41l373.96,603.43,1200.85-231.59,599.36-145.56,51.3-418.94-.02-697.34-458.27,415.83-154.43,523.34c-.35,1.16-1.34,2.02-2.55,2.17-1.24.13-2.39-.43-3.01-1.47l-322.84-543.73-187.14,689.05c-.24.87-.84,1.59-1.66,1.97-.82.38-1.75.38-2.58,0l-368.93-171.59-724.04-25.56Z"/><path class="cls-7" d="m4542.74,1582.93c-1.22,0-2.37-.74-2.85-1.95-.61-1.57.17-3.34,1.74-3.95l612.93-238.36-458.09-279.94-479.12-25.67-557.58,523.26c-1.22,1.15-3.16,1.09-4.31-.14-1.16-1.23-1.1-3.17.14-4.32l558.52-524.16c.6-.57,1.44-.85,2.25-.82l481.2,25.78c.51.03,1,.18,1.43.44l464.01,283.56c.99.61,1.55,1.72,1.45,2.88-.1,1.16-.85,2.15-1.93,2.57l-618.68,240.6c-.36.14-.74.21-1.11.21Z"/><path class="cls-7" d="m2300.04,3129.62c-.86,0-1.71-.36-2.31-1.06-1.1-1.28-.96-3.21.32-4.31l627.27-541.35c1.27-1.09,3.2-.96,4.31.32,1.1,1.28.96,3.21-.32,4.31l-627.27,541.35c-.58.5-1.29.74-2,.74Z"/><path class="cls-7" d="m4216.22,1032.99c-1.19,0-2.33-.7-2.82-1.88-.65-1.56.08-3.35,1.63-4l945.2-395.27c1.57-.64,3.35.08,4,1.64s-.08,3.35-1.63,4l-945.2,395.27c-.39.16-.79.24-1.18.24Z"/><circle class="cls-12" cx="2927.31" cy="1530.47" r="49.41"/><circle class="cls-18" cx="3657.69" cy="1554.1" r="49.41"/><circle class="cls-14" cx="2940.2" cy="2028.13" r="49.41"/><circle class="cls-17" cx="4216.22" cy="1029.94" r="49.41"/><circle class="cls-15" cx="4697.41" cy="1055.72" r="49.41"/><circle class="cls-21" cx="4542.74" cy="1579.87" r="49.41"/><circle class="cls-3" cx="3803.77" cy="2224.33" r="49.41"/><circle class="cls-19" cx="3305.39" cy="2138.4" r="49.41"/><circle class="cls-22" cx="2927.31" cy="2585.22" r="49.41"/><circle class="cls-5" cx="2343.01" cy="2421.96" r="49.41"/><circle class="cls-4" cx="2660.94" cy="1940.77" r="49.41"/><circle class="cls-26" cx="1818.85" cy="2782.85" r="49.41"/><circle class="cls-1" cx="2703.19" cy="2772.59" r="49.41"/><circle class="cls-25" cx="3640.51" cy="2705.52" r="49.41"/><circle class="cls-9" cx="4250.59" cy="2488.83" r="49.41"/><circle class="cls-6" cx="4027.18" cy="2566.16" r="49.41"/><circle class="cls-16" cx="4336.52" cy="3026.31" r="49.41"/><circle class="cls-24" cx="4508.37" cy="1906.4" r="49.41"/><circle class="cls-13" cx="4027.18" cy="1725.95" r="49.41"/><circle class="cls-20" cx="4917.24" cy="1430.22" r="49.41"/><circle class="cls-11" cx="3171.85" cy="2737.74" r="49.41"/><circle class="cls-23" cx="4800.52" cy="2482.11" r="49.41"/><path class="cls-7" d="m3081.98,3155.16c-1.35,0-2.55-.98-2.78-2.36-.26-1.53.78-3,2.32-3.25l557.69-94.38,599.53-556.37-597.3,209.38c-.23.08-.48.13-.73.15l-937.32,67.07c-1.54.13-2.91-1.06-3.02-2.61-.11-1.56,1.06-2.91,2.61-3.02l936.95-67.04,609.73-213.74c1.24-.45,2.66.05,3.35,1.21.7,1.14.49,2.61-.5,3.53l-610.08,566.17c-.4.38-.9.62-1.45.72l-558.53,94.52c-.15.03-.31.04-.47.04Z"/><path class="cls-7" d="m3081.98,3155.16c-1.35,0-2.55-.98-2.78-2.36-.26-1.53.78-3,2.32-3.25l557.69-94.38,599.53-556.37-597.3,209.38c-.23.08-.48.13-.73.15l-937.32,67.07c-1.54.13-2.91-1.06-3.02-2.61-.11-1.56,1.06-2.91,2.61-3.02l936.95-67.04,609.73-213.74c1.24-.45,2.66.05,3.35,1.21.7,1.14.49,2.61-.5,3.53l-610.08,566.17c-.4.38-.9.62-1.45.72l-558.53,94.52c-.15.03-.31.04-.47.04Z"/></g></g><path class="cls-10" d="m303.93,1448v-178.5h37.75v147.25h72.5v31.25h-110.25Z"/><path class="cls-10" d="m498.42,1309c12.66,0,23.54,2.42,32.62,7.25,9.08,4.84,16.12,11.84,21.12,21,5,9.17,7.5,20.42,7.5,33.75v18h-88c.33,10.5,3.46,18.75,9.38,24.75,5.91,6,14.12,9,24.62,9,8.83,0,16.83-.88,24-2.62,7.16-1.75,14.58-4.46,22.25-8.12v28.75c-6.67,3.34-13.71,5.79-21.12,7.38-7.42,1.58-16.38,2.38-26.88,2.38-13.67,0-25.75-2.54-36.25-7.62-10.5-5.08-18.75-12.79-24.75-23.12-6-10.33-9-23.33-9-39s2.71-29.29,8.12-39.88c5.41-10.58,12.96-18.54,22.62-23.88,9.66-5.33,20.91-8,33.75-8Zm.25,26.5c-7.17,0-13.12,2.34-17.88,7-4.75,4.67-7.54,11.92-8.38,21.75h52.25c0-5.5-.96-10.41-2.88-14.75-1.92-4.33-4.79-7.75-8.62-10.25-3.84-2.5-8.67-3.75-14.5-3.75Z"/><path class="cls-10" d="m645.92,1308.75c18.33,0,32.38,3.96,42.12,11.88,9.75,7.92,14.62,20.04,14.62,36.38v91h-26l-7.25-18.5h-1c-3.84,4.84-7.79,8.84-11.88,12-4.09,3.17-8.75,5.46-14,6.88s-11.71,2.12-19.38,2.12-15.21-1.54-21.62-4.62c-6.42-3.08-11.46-7.83-15.12-14.25-3.67-6.41-5.5-14.54-5.5-24.38,0-14.5,5.08-25.21,15.25-32.12,10.16-6.91,25.41-10.71,45.75-11.38l23.75-.75v-6c0-7.16-1.88-12.41-5.62-15.75-3.75-3.33-8.96-5-15.62-5s-13.17.96-19.5,2.88c-6.34,1.92-12.67,4.29-19,7.12l-12.25-25.25c7.33-3.83,15.46-6.83,24.38-9,8.91-2.16,18.21-3.25,27.88-3.25Zm5.25,76.5c-12,.34-20.34,2.5-25,6.5-4.67,4-7,9.25-7,15.75,0,5.67,1.66,9.71,5,12.12,3.33,2.42,7.66,3.62,13,3.62,8,0,14.75-2.38,20.25-7.12s8.25-11.46,8.25-20.12v-11.25l-14.5.5Z"/><path class="cls-10" d="m817.17,1309c1.83,0,4,.09,6.5.25,2.5.17,4.5.42,6,.75l-2.75,35c-1.17-.33-2.88-.62-5.12-.88s-4.21-.38-5.88-.38c-4.84,0-9.5.62-14,1.88s-8.54,3.21-12.12,5.88c-3.59,2.67-6.42,6.21-8.5,10.62-2.09,4.42-3.12,9.88-3.12,16.38v69.5h-37.25v-136.5h28.25l5.5,23h1.75c2.66-4.66,6-8.91,10-12.75,4-3.83,8.62-6.91,13.88-9.25,5.25-2.33,10.88-3.5,16.88-3.5Z"/><path class="cls-10" d="m931.92,1309c14.66,0,26.41,3.96,35.25,11.88,8.83,7.92,13.25,20.62,13.25,38.12v89h-37.25v-79.75c0-9.83-1.75-17.21-5.25-22.12-3.5-4.91-9.09-7.38-16.75-7.38-11.34,0-19.09,3.88-23.25,11.62-4.17,7.75-6.25,18.88-6.25,33.38v64.25h-37.25v-136.5h28.5l5,17.5h2c3-4.66,6.66-8.46,11-11.38,4.33-2.91,9.16-5.08,14.5-6.5,5.33-1.41,10.83-2.12,16.5-2.12Z"/><path class="cls-10" d="m1021.66,1448v-178.5h37.75v147.25h72.5v31.25h-110.25Z"/><path class="cls-10" d="m1215.91,1308.75c18.33,0,32.38,3.96,42.12,11.88,9.75,7.92,14.62,20.04,14.62,36.38v91h-26l-7.25-18.5h-1c-3.84,4.84-7.79,8.84-11.88,12-4.09,3.17-8.75,5.46-14,6.88s-11.71,2.12-19.38,2.12-15.21-1.54-21.62-4.62c-6.42-3.08-11.46-7.83-15.12-14.25-3.67-6.41-5.5-14.54-5.5-24.38,0-14.5,5.08-25.21,15.25-32.12,10.16-6.91,25.41-10.71,45.75-11.38l23.75-.75v-6c0-7.16-1.88-12.41-5.62-15.75-3.75-3.33-8.96-5-15.62-5s-13.17.96-19.5,2.88c-6.34,1.92-12.67,4.29-19,7.12l-12.25-25.25c7.33-3.83,15.46-6.83,24.38-9,8.91-2.16,18.21-3.25,27.88-3.25Zm5.25,76.5c-12,.34-20.34,2.5-25,6.5-4.67,4-7,9.25-7,15.75,0,5.67,1.66,9.71,5,12.12,3.33,2.42,7.66,3.62,13,3.62,8,0,14.75-2.38,20.25-7.12s8.25-11.46,8.25-20.12v-11.25l-14.5.5Z"/><path class="cls-10" d="m1348.16,1302.25c0,5.17-.17,10.25-.5,15.25-.34,5-.67,8.92-1,11.75h1.5c3.66-5.66,8.58-10.46,14.75-14.38,6.16-3.91,14.16-5.88,24-5.88,15.33,0,27.75,5.96,37.25,17.88,9.5,11.92,14.25,29.46,14.25,52.62,0,15.5-2.21,28.54-6.62,39.12-4.42,10.59-10.54,18.54-18.38,23.88-7.84,5.34-17,8-27.5,8s-17.88-1.79-23.62-5.38-10.46-7.62-14.12-12.12h-2.5l-6.25,15h-28.5v-190h37.25v44.25Zm26.75,36.5c-6.5,0-11.67,1.34-15.5,4-3.84,2.67-6.62,6.71-8.38,12.12-1.75,5.42-2.71,12.21-2.88,20.38v4c0,13.17,1.96,23.29,5.88,30.38,3.91,7.09,11.04,10.62,21.38,10.62,7.66,0,13.75-3.54,18.25-10.62,4.5-7.08,6.75-17.29,6.75-30.62s-2.29-23.38-6.88-30.12c-4.59-6.75-10.79-10.12-18.62-10.12Z"/><path class="cls-10" d="m382.68,1486c-12,0-22.67,2.04-32,6.12-9.34,4.09-17.21,9.75-23.62,17-6.42,7.25-11.34,15.92-14.75,26-3.42,10.09-5.12,21.12-5.12,33.12,0,16.67,2.66,31.25,8,43.75,5.33,12.5,13.33,22.21,24,29.12,10.66,6.92,23.83,10.38,39.5,10.38,9.33,0,17.71-.66,25.12-2,7.41-1.33,14.21-3.08,20.38-5.25v8.5c-5.84,2.34-12.5,4.21-20,5.62s-16.17,2.12-26,2.12c-17.84,0-32.75-3.83-44.75-11.5-12-7.66-21.04-18.41-27.12-32.25-6.09-13.83-9.12-30.08-9.12-48.75,0-13,1.88-25.04,5.62-36.12,3.75-11.08,9.33-20.71,16.75-28.88,7.41-8.16,16.41-14.54,27-19.12,10.58-4.58,22.62-6.88,36.12-6.88,8.33,0,16.29.79,23.88,2.38,7.58,1.59,14.79,3.96,21.62,7.12l-4,8.75c-6.84-3.5-13.71-5.91-20.62-7.25-6.92-1.33-13.88-2-20.88-2Z"/><path class="cls-10" d="m566.42,1591.75c0,10-1.17,19.17-3.5,27.5-2.34,8.34-5.96,15.59-10.88,21.75-4.92,6.17-11,10.96-18.25,14.38s-15.79,5.12-25.62,5.12-17.59-1.67-24.75-5c-7.17-3.33-13.21-8.08-18.12-14.25-4.92-6.16-8.62-13.41-11.12-21.75-2.5-8.33-3.75-17.58-3.75-27.75,0-14.16,2.33-26.38,7-36.62,4.66-10.25,11.46-18.16,20.38-23.75,8.91-5.58,19.46-8.38,31.62-8.38,13.16,0,23.96,3,32.38,9,8.41,6,14.62,14.17,18.62,24.5,4,10.34,6,22.09,6,35.25Zm-106,0c0,11.84,1.75,22.29,5.25,31.38,3.5,9.09,8.79,16.12,15.88,21.12,7.08,5,15.96,7.5,26.62,7.5s20.29-2.54,27.38-7.62c7.08-5.08,12.33-12.16,15.75-21.25,3.41-9.08,5.12-19.46,5.12-31.12s-1.59-21.5-4.75-30.5c-3.17-9-8.17-16.16-15-21.5-6.84-5.33-15.92-8-27.25-8-16,0-28.17,5.29-36.5,15.88-8.34,10.59-12.5,25.29-12.5,44.12Z"/><path class="cls-10" d="m704.17,1525.5v132.5h-8l-1.5-25.75h-.5c-2,5-5.04,9.67-9.12,14-4.09,4.34-9.25,7.79-15.5,10.38s-13.71,3.88-22.38,3.88c-10,0-18.38-1.79-25.12-5.38s-11.88-8.96-15.38-16.12c-3.5-7.16-5.25-16.08-5.25-26.75v-86.75h9.75v85.75c0,13.84,3.16,24.04,9.5,30.62,6.33,6.59,15.41,9.88,27.25,9.88,9.66,0,17.96-1.91,24.88-5.75,6.91-3.83,12.25-9.54,16-17.12,3.75-7.58,5.62-17.21,5.62-28.88v-74.5h9.75Z"/><path class="cls-10" d="m799.17,1523.5c3.66,0,7.08.21,10.25.62,3.16.42,6.16,1.04,9,1.88l-1.75,9c-3-.83-5.84-1.46-8.5-1.88-2.67-.41-5.84-.62-9.5-.62-6.5,0-12.25,1.21-17.25,3.62-5,2.42-9.17,5.92-12.5,10.5-3.34,4.59-5.88,10.04-7.62,16.38-1.75,6.34-2.62,13.42-2.62,21.25v73.75h-9.5v-132.5h8.5l.75,25.25h.75c1.83-5.16,4.54-9.79,8.12-13.88,3.58-4.08,8.08-7.33,13.5-9.75,5.41-2.41,11.54-3.62,18.38-3.62Z"/><path class="cls-10" d="m926.42,1623.75c0,7.67-1.92,14.25-5.75,19.75-3.84,5.5-9.5,9.71-17,12.62s-16.75,4.38-27.75,4.38c-9.17,0-17.42-.84-24.75-2.5-7.34-1.66-13.42-3.66-18.25-6v-10c6.33,3,13.21,5.42,20.62,7.25,7.41,1.84,14.96,2.75,22.62,2.75,14.33,0,24.66-2.5,31-7.5,6.33-5,9.5-11.75,9.5-20.25,0-5.83-1.62-10.58-4.88-14.25-3.25-3.66-7.79-6.75-13.62-9.25-5.84-2.5-12.5-4.91-20-7.25-8-2.66-15.17-5.29-21.5-7.88-6.34-2.58-11.34-6.08-15-10.5-3.67-4.41-5.5-10.62-5.5-18.62,0-10.66,4.21-18.91,12.62-24.75,8.41-5.83,19.71-8.75,33.88-8.75,7.83,0,15.21.75,22.12,2.25,6.91,1.5,13.04,3.42,18.38,5.75l-3.75,8.5c-4.84-2.33-10.59-4.21-17.25-5.62-6.67-1.41-13.25-2.12-19.75-2.12-11.5,0-20.46,2.04-26.88,6.12-6.42,4.09-9.62,10.21-9.62,18.38,0,6.17,1.58,10.92,4.75,14.25,3.16,3.34,7.54,6.04,13.12,8.12,5.58,2.09,11.88,4.38,18.88,6.88,7.66,2.5,14.83,5.12,21.5,7.88,6.66,2.75,12.04,6.46,16.12,11.12,4.08,4.67,6.12,11.09,6.12,19.25Z"/><path class="cls-10" d="m1009.92,1523c11.33,0,20.62,2.71,27.88,8.12,7.25,5.42,12.66,12.75,16.25,22,3.58,9.25,5.38,19.71,5.38,31.38v7.75h-97c0,19.17,4.33,33.88,13,44.12,8.66,10.25,21.16,15.38,37.5,15.38,8.16,0,15.21-.62,21.12-1.88,5.91-1.25,12.62-3.62,20.12-7.12v9.5c-6.5,2.84-12.96,4.92-19.38,6.25-6.42,1.33-13.79,2-22.12,2-13.5,0-24.75-2.83-33.75-8.5-9-5.66-15.67-13.62-20-23.88-4.34-10.25-6.5-21.96-6.5-35.12s2.16-24.75,6.5-35.25c4.33-10.5,10.75-18.91,19.25-25.25,8.5-6.33,19.08-9.5,31.75-9.5Zm0,8.75c-13.34,0-24.17,4.42-32.5,13.25-8.34,8.84-13.25,21.75-14.75,38.75h86.75c0-10.33-1.42-19.41-4.25-27.25-2.84-7.83-7.17-13.91-13-18.25-5.84-4.33-13.25-6.5-22.25-6.5Z"/><path class="cls-10" d="m1178.17,1623.75c0,7.67-1.92,14.25-5.75,19.75-3.84,5.5-9.5,9.71-17,12.62s-16.75,4.38-27.75,4.38c-9.17,0-17.42-.84-24.75-2.5-7.34-1.66-13.42-3.66-18.25-6v-10c6.33,3,13.21,5.42,20.62,7.25,7.41,1.84,14.96,2.75,22.62,2.75,14.33,0,24.66-2.5,31-7.5,6.33-5,9.5-11.75,9.5-20.25,0-5.83-1.62-10.58-4.88-14.25-3.25-3.66-7.79-6.75-13.62-9.25-5.84-2.5-12.5-4.91-20-7.25-8-2.66-15.17-5.29-21.5-7.88-6.34-2.58-11.34-6.08-15-10.5-3.67-4.41-5.5-10.62-5.5-18.62,0-10.66,4.21-18.91,12.62-24.75,8.41-5.83,19.71-8.75,33.88-8.75,7.83,0,15.21.75,22.12,2.25,6.91,1.5,13.04,3.42,18.38,5.75l-3.75,8.5c-4.84-2.33-10.59-4.21-17.25-5.62-6.67-1.41-13.25-2.12-19.75-2.12-11.5,0-20.46,2.04-26.88,6.12-6.42,4.09-9.62,10.21-9.62,18.38,0,6.17,1.58,10.92,4.75,14.25,3.16,3.34,7.54,6.04,13.12,8.12,5.58,2.09,11.88,4.38,18.88,6.88,7.66,2.5,14.83,5.12,21.5,7.88,6.66,2.75,12.04,6.46,16.12,11.12,4.08,4.67,6.12,11.09,6.12,19.25Z"/></g></g></svg>