<?xml version="1.0" encoding="UTF-8"?><svg xmlns="http://www.w3.org/2000/svg" xmlns:xlink="http://www.w3.org/1999/xlink" viewBox="0 0 5000 3000"><defs><style>.cls-1{fill:url(#radial-gradient-13);}.cls-1,.cls-2,.cls-3,.cls-4,.cls-5,.cls-6,.cls-7,.cls-8,.cls-9,.cls-10,.cls-11,.cls-12,.cls-13,.cls-14,.cls-15,.cls-16,.cls-17,.cls-18,.cls-19,.cls-20,.cls-21,.cls-22,.cls-23,.cls-24,.cls-25,.cls-26{stroke-width:0px;}.cls-1,.cls-3,.cls-4,.cls-5,.cls-6,.cls-9,.cls-11,.cls-12,.cls-13,.cls-14,.cls-15,.cls-16,.cls-17,.cls-18,.cls-19,.cls-20,.cls-21,.cls-22,.cls-23,.cls-24,.cls-25,.cls-26{mix-blend-mode:color-dodge;}.cls-2{fill:url(#linear-gradient);}.cls-3{fill:url(#radial-gradient-7);}.cls-27{isolation:isolate;}.cls-4{fill:url(#radial-gradient-11);}.cls-5{fill:url(#radial-gradient-10);}.cls-6{fill:url(#radial-gradient-16);}.cls-7{mix-blend-mode:overlay;}.cls-7,.cls-10{fill:#fff;}.cls-8{fill:none;}.cls-9{fill:url(#radial-gradient-15);}.cls-28{clip-path:url(#clippath-1);}.cls-11{fill:url(#radial-gradient-21);}.cls-12{fill:url(#radial-gradient);}.cls-13{fill:url(#radial-gradient-19);}.cls-14{fill:url(#radial-gradient-3);}.cls-15{fill:url(#radial-gradient-5);}.cls-16{fill:url(#radial-gradient-17);}.cls-29{clip-path:url(#clippath);}.cls-17{fill:url(#radial-gradient-4);}.cls-18{fill:url(#radial-gradient-2);}.cls-19{fill:url(#radial-gradient-8);}.cls-20{fill:url(#radial-gradient-20);}.cls-21{fill:url(#radial-gradient-6);}.cls-22{fill:url(#radial-gradient-9);}.cls-23{fill:url(#radial-gradient-22);}.cls-24{fill:url(#radial-gradient-18);}.cls-25{fill:url(#radial-gradient-14);}.cls-26{fill:url(#radial-gradient-12);}</style><clipPath id="clippath"><rect class="cls-8" width="5000" height="3000"/></clipPath><clipPath id="clippath-1"><rect class="cls-8" x="-80.14" y="-73.55" width="5139.87" height="3105.59"/></clipPath><linearGradient id="linear-gradient" x1="348.82" y1="106.4" x2="5079.43" y2="3139.78" gradientUnits="userSpaceOnUse"><stop offset=".01" stop-color="#005094"/><stop offset=".45" stop-color="#03275e"/><stop offset=".81" stop-color="#050a38"/><stop offset="1" stop-color="#06002a"/></linearGradient><radialGradient id="radial-gradient" cx="2927.31" cy="1530.47" fx="2927.31" fy="1530.47" r="49.41" gradientUnits="userSpaceOnUse"><stop offset="0" stop-color="#fff"/><stop offset="1" stop-color="#000"/></radialGradient><radialGradient id="radial-gradient-2" cx="3657.69" cy="1554.1" fx="3657.69" fy="1554.1" r="49.41" xlink:href="#radial-gradient"/><radialGradient id="radial-gradient-3" cx="2940.2" cy="2028.13" fx="2940.2" fy="2028.13" r="49.41" xlink:href="#radial-gradient"/><radialGradient id="radial-gradient-4" cx="4216.22" cy="1029.94" fx="4216.22" fy="1029.94" xlink:href="#radial-gradient"/><radialGradient id="radial-gradient-5" cx="4697.41" cy="1055.72" fx="4697.41" fy="1055.72" r="49.41" xlink:href="#radial-gradient"/><radialGradient id="radial-gradient-6" cx="4542.74" cy="1579.87" fx="4542.74" fy="1579.87" xlink:href="#radial-gradient"/><radialGradient id="radial-gradient-7" cx="3803.77" cy="2224.33" fx="3803.77" fy="2224.33" r="49.41" xlink:href="#radial-gradient"/><radialGradient id="radial-gradient-8" cx="3305.39" cy="2138.4" fx="3305.39" fy="2138.4" xlink:href="#radial-gradient"/><radialGradient id="radial-gradient-9" cy="2585.22" fy="2585.22" xlink:href="#radial-gradient"/><radialGradient id="radial-gradient-10" cx="2343.01" cy="2421.96" fx="2343.01" fy="2421.96" xlink:href="#radial-gradient"/><radialGradient id="radial-gradient-11" cx="2660.94" cy="1940.77" fx="2660.94" fy="1940.77" xlink:href="#radial-gradient"/><radialGradient id="radial-gradient-12" cx="1818.85" cy="2782.85" fx="1818.85" fy="2782.85" xlink:href="#radial-gradient"/><radialGradient id="radial-gradient-13" cx="2703.19" cy="2772.59" fx="2703.19" fy="2772.59" r="49.41" xlink:href="#radial-gradient"/><radialGradient id="radial-gradient-14" cx="3640.51" cy="2705.52" fx="3640.51" fy="2705.52" xlink:href="#radial-gradient"/><radialGradient id="radial-gradient-15" cx="4250.59" cy="2488.83" fx="4250.59" fy="2488.83" r="49.41" xlink:href="#radial-gradient"/><radialGradient id="radial-gradient-16" cx="4027.18" cy="2566.16" fx="4027.18" fy="2566.16" xlink:href="#radial-gradient"/><radialGradient id="radial-gradient-17" cx="4336.52" cy="3026.31" fx="4336.52" fy="3026.31" xlink:href="#radial-gradient"/><radialGradient id="radial-gradient-18" cx="4508.37" cy="1906.4" fx="4508.37" fy="1906.4" r="49.41" xlink:href="#radial-gradient"/><radialGradient id="radial-gradient-19" cx="4027.18" cy="1725.95" fx="4027.18" fy="1725.95" xlink:href="#radial-gradient"/><radialGradient id="radial-gradient-20" cx="4917.24" cy="1430.22" fx="4917.24" fy="1430.22" r="49.41" xlink:href="#radial-gradient"/><radialGradient id="radial-gradient-21" cx="3171.85" cy="2737.74" fx="3171.85" fy="2737.74" xlink:href="#radial-gradient"/><radialGradient id="radial-gradient-22" cx="4800.52" cy="2482.11" fx="4800.52" fy="2482.11" xlink:href="#radial-gradient"/></defs><g class="cls-27"><g id="Layer_1"><g class="cls-29"><g class="cls-28"><rect class="cls-2" x="-80.14" y="-73.55" width="5139.87" height="3105.59"/><path class="cls-7" d="m3081.98,3155.4c-1.37,0-2.58-.92-2.95-2.25l-154.21-565.45-582.63-162.79c-1.15-.32-2.01-1.29-2.2-2.47-.18-1.18.34-2.36,1.34-3.02l593.15-391.56-274.44-84.16c-1.36-.42-2.26-1.72-2.15-3.14.1-1.42,1.17-2.58,2.58-2.8l538.85-84.72,72.07-47.58-345.97-274.74c-1.1-.87-1.46-2.37-.89-3.65.58-1.28,1.92-1.98,3.33-1.75l603.6,108.46,124.56-82.22c1.19-.78,2.76-.65,3.8.35,1.03.99,1.24,2.56.5,3.78l-55.08,91.35,421.8,75.79,514.88-145.88c.54-.16,1.16-.15,1.73.02h0s.02,0,.02,0l559.54,178.04-408.43-697.74c-.85-1.46-.36-3.33,1.09-4.18,1.46-.85,3.33-.37,4.18,1.09l412.45,704.6c.64,1.09.54,2.46-.25,3.45-.79.98-2.12,1.37-3.31,1l-563.55-179.31-33.97,322.79c-.03.31-.11.62-.24.91l-254.91,578.73,921.3-333.64c1.57-.58,3.34.24,3.91,1.83.58,1.59-.24,3.34-1.83,3.91l-928.01,336.07c-1.15.42-2.43.11-3.27-.78-.84-.9-1.06-2.2-.57-3.32l257.59-584.82,33.5-318.31-733.11,639.34s-.07.05-.11.09h0c-.36.29-.76.48-1.18.58h0s0,0-.01,0c-.3.07-.64.09-.94.07h-.03c-.1,0-.18-.02-.28-.04l-495.46-85.42-222.79,1011.09c-.3,1.37-1.5,2.36-2.91,2.4h-.08Zm-731.7-734.58l577.85,161.46c1.03.29,1.84,1.1,2.12,2.14l151.4,555.16,220.14-999.08-359.75-110.32-591.77,390.65Zm1085.44-492.66l366.86,291.33,219.5-489.64-515.68,81.08-70.69,117.23Zm-125.41,208l482.19,83.13-359.97-285.86-122.23,202.72Zm719.07-407.65l-217.14,484.38,718.21-626.35-501.08,141.97Zm-1080.72,297.31l355.35,108.97,123.71-205.18-111.74-88.73-114.42,17.99-252.91,166.95Zm-274.17-84.08l266.59,81.75,245.92-162.34-512.52,80.59Zm649.69-102.15l106.72,84.74,67.63-112.16-174.34,27.42Zm-47.76-30.13l-62.55,41.29,95.61-15.04-33.06-26.25Zm5.36-3.54l35.9,28.51,184.97-29.08,92.77-153.86-62.64-11.25-250.99,165.69Zm320.07-153.28l-91.33,151.47,498.27-78.35-406.94-73.12Zm-663.14-119.16l338.03,268.44,247.31-163.26-585.34-105.18Zm601.45,101.87l58.62,10.53,49.31-81.78-107.93,71.25Z"/><path class="cls-7" d="m4817.71,3146.8c-.87,0-1.71-.37-2.3-1.05l-118.12-135.82-360.55,25.16c-1.55.14-2.98-1.01-3.23-2.57l-85.93-540.39c-.21-1.34.49-2.67,1.72-3.25,1.25-.56,2.71-.27,3.6.76l447,513.98,110.91-7.74-13.34-513.7c-.04-1.68,1.29-3.08,2.98-3.13,1.61,0,3.09,1.29,3.13,2.98l13.34,513.43,255.85-17.85,102.81-822.41c.21-1.68,1.75-2.87,3.41-2.65,1.67.21,2.86,1.74,2.65,3.41l-103.12,824.89c-.18,1.45-1.36,2.57-2.82,2.67l-258.64,18.04,3.69,142.1c.03,1.29-.75,2.46-1.95,2.92-.36.14-.74.21-1.11.21Zm-112.79-137.41l109.52,125.93-3.46-133.33-106.06,7.4Zm-449.63-507.69l83.81,527.1,353.16-24.64-436.98-502.46Z"/><path class="cls-7" d="m4336.52,3035.1c-.44,0-.88-.1-1.29-.29l-696.01-326.52c-1.53-.72-2.19-2.54-1.47-4.06.72-1.53,2.55-2.18,4.06-1.47l686.19,321.92-526.78-798.66c-.93-1.41-.54-3.31.87-4.23,1.41-.95,3.3-.55,4.23.87l532.75,807.71c.76,1.15.66,2.65-.24,3.68-.59.69-1.44,1.06-2.31,1.06Z"/><path class="cls-7" d="m3081.98,3155.4c-.29,0-.57-.04-.86-.13l-1263.12-369.49c-1.13-.33-1.97-1.28-2.16-2.45-.19-1.16.31-2.33,1.28-3l524.16-360.89c1.21-.82,2.84-.69,3.88.35l738.97,730.38c1,.98,1.19,2.52.48,3.72-.56.95-1.57,1.5-2.63,1.5Zm-1256.1-373.67l1245.35,364.29-728.57-720.11-516.78,355.81Z"/><path class="cls-7" d="m2660.94,1943.82c-.57,0-1.15-.16-1.66-.49-1.41-.91-1.82-2.8-.91-4.22l266.37-412.45c.35-.54.86-.96,1.46-1.19l1288.9-498.38c1.58-.6,3.34.17,3.96,1.75.61,1.57-.18,3.34-1.75,3.95l-1287.98,498.02-265.84,411.62c-.58.9-1.56,1.4-2.57,1.4Z"/><path class="cls-7" d="m1647,3284.29c-.3,0-.61-.04-.91-.14l-635.86-197.63c-1.25-.39-2.11-1.53-2.15-2.83-.04-1.31.76-2.49,1.99-2.95l807.71-300.75c1.11-.4,2.35-.14,3.2.68.85.82,1.14,2.06.75,3.18l-170.04,493.13,645.43-152.86,42.83-702.34c.03-.54.21-1.05.5-1.5l317.93-481.19c.62-.94,1.74-1.43,2.84-1.36,1.13.11,2.1.83,2.53,1.87l264.46,639.82,373.41-441.3-376.91-608.2c-.6-.96-.61-2.17-.05-3.14.57-.98,1.64-1.68,2.75-1.52l730.38,25.78c.41.01.81.11,1.18.28l366.2,170.33,188.09-692.52c.32-1.18,1.32-2.06,2.54-2.23,1.2-.17,2.41.41,3.04,1.47l322.95,543.91,152.69-517.44c.16-.54.46-1.02.88-1.4l464.01-421.04c.89-.81,2.19-1.02,3.29-.53,1.11.49,1.82,1.58,1.82,2.79v704.6l-51.58,421.41c-.16,1.26-1.07,2.3-2.31,2.6l-591.79,143.72,660.88,245.71c1.01.38,1.75,1.26,1.95,2.32.19,1.06-.19,2.15-1.01,2.85l-376.21,324.91,273.77,496.21c.78,1.41.33,3.19-1.04,4.06l-257.78,163.26c-.7.44-1.55.58-2.33.39l-480.79-111.62-695.6,25.77c-.81-.04-1.64-.28-2.23-.85-.6-.58-.94-1.37-.94-2.2v-345.95l-553.57,442.85c-.57.46-1.31.63-2.01.67l-781.53-25.76-652.59,154.56c-.25.07-.5.1-.76.1Zm-626.41-200.95l624.49,194.1,168.78-489.47-793.26,295.37Zm1282.69,40.28l777.67,25.63,555.58-444.46-331.58-561.13-375.31,443.54c-.69.81-1.77,1.21-2.8,1.04-1.06-.17-1.95-.87-2.35-1.85l-264.18-639.13-314.3,475.71-42.72,700.66Zm2033.23-94.63c.23,0,.47.02.69.08l479.94,111.42,254.27-161.05-272.69-494.25-548.09,9.52c-.57.03-1.13-.14-1.62-.44l-443.58-265.38-161.88,477.13v348.64l692.84-25.67h.11Zm-1026.29-888.41l329.52,557.65,161.12-474.89c.3-.87.97-1.56,1.84-1.89.88-.32,1.83-.23,2.63.25l446.07,266.88,544.19-9.45-288.9-569.31-1196.46,230.75Zm1204.41-228.6l286.85,565.27,371.21-320.6-658.07-244.67Zm-1581.71-380.41l373.96,603.43,1200.85-231.59,599.36-145.56,51.3-418.94-.02-697.34-458.27,415.83-154.43,523.34c-.35,1.16-1.34,2.02-2.55,2.17-1.24.13-2.39-.43-3.01-1.47l-322.84-543.73-187.14,689.05c-.24.87-.84,1.59-1.66,1.97-.82.38-1.75.38-2.58,0l-368.93-171.59-724.04-25.56Z"/><path class="cls-7" d="m3081.97,3155.4c-1.46,0-2.76-1.06-3.01-2.55-.28-1.66.84-3.24,2.51-3.52l557.63-94.36,609.41-565.55c1.23-1.15,3.16-1.08,4.31.16,1.15,1.24,1.08,3.17-.16,4.31l-610.08,566.17c-.44.41-.98.67-1.57.78l-558.53,94.52c-.17.03-.34.04-.51.04Z"/><path class="cls-7" d="m4542.74,1582.93c-1.22,0-2.37-.74-2.85-1.95-.61-1.57.17-3.34,1.74-3.95l612.93-238.36-458.09-279.94-479.12-25.67-557.58,523.26c-1.22,1.15-3.16,1.09-4.31-.14-1.16-1.23-1.1-3.17.14-4.32l558.52-524.16c.6-.57,1.44-.85,2.25-.82l481.2,25.78c.51.03,1,.18,1.43.44l464.01,283.56c.99.61,1.55,1.72,1.45,2.88-.1,1.16-.85,2.15-1.93,2.57l-618.68,240.6c-.36.14-.74.21-1.11.21Z"/><path class="cls-7" d="m2300.04,3129.62c-.86,0-1.71-.36-2.31-1.06-1.1-1.28-.96-3.21.32-4.31l627.27-541.35c1.27-1.09,3.2-.96,4.31.32,1.1,1.28.96,3.21-.32,4.31l-627.27,541.35c-.58.5-1.29.74-2,.74Z"/><path class="cls-7" d="m4216.22,1032.99c-1.19,0-2.33-.7-2.82-1.88-.65-1.56.08-3.35,1.63-4l945.2-395.27c1.57-.64,3.35.08,4,1.64s-.08,3.35-1.63,4l-945.2,395.27c-.39.16-.79.24-1.18.24Z"/><path class="cls-7" d="m3081.98,3155.4c-1.37,0-2.58-.92-2.95-2.25l-154.21-565.45-582.63-162.79c-1.15-.32-2.01-1.29-2.2-2.47-.18-1.18.34-2.36,1.34-3.02l593.15-391.56-274.44-84.16c-1.36-.42-2.26-1.72-2.15-3.14.1-1.42,1.17-2.58,2.58-2.8l538.85-84.72,72.07-47.58-345.97-274.74c-1.1-.87-1.46-2.37-.89-3.65.58-1.28,1.92-1.98,3.33-1.75l603.6,108.46,124.56-82.22c1.19-.78,2.76-.65,3.8.35,1.03.99,1.24,2.56.5,3.78l-55.08,91.35,421.8,75.79,514.88-145.88c.54-.16,1.16-.15,1.73.02h0s.02,0,.02,0l559.54,178.04-408.43-697.74c-.85-1.46-.36-3.33,1.09-4.18,1.46-.85,3.33-.37,4.18,1.09l412.45,704.6c.64,1.09.54,2.46-.25,3.45-.79.98-2.12,1.37-3.31,1l-563.55-179.31-33.97,322.79c-.03.31-.11.62-.24.91l-254.91,578.73,921.3-333.64c1.57-.58,3.34.24,3.91,1.83.58,1.59-.24,3.34-1.83,3.91l-928.01,336.07c-1.15.42-2.43.11-3.27-.78-.84-.9-1.06-2.2-.57-3.32l257.59-584.82,33.5-318.31-733.11,639.34s-.07.05-.11.09h0c-.36.29-.76.48-1.18.58h0s0,0-.01,0c-.3.07-.64.09-.94.07h-.03c-.1,0-.18-.02-.28-.04l-495.46-85.42-222.79,1011.09c-.3,1.37-1.5,2.36-2.91,2.4h-.08Zm-731.7-734.58l577.85,161.46c1.03.29,1.84,1.1,2.12,2.14l151.4,555.16,220.14-999.08-359.75-110.32-591.77,390.65Zm1085.44-492.66l366.86,291.33,219.5-489.64-515.68,81.08-70.69,117.23Zm-125.41,208l482.19,83.13-359.97-285.86-122.23,202.72Zm719.07-407.65l-217.14,484.38,718.21-626.35-501.08,141.97Zm-1080.72,297.31l355.35,108.97,123.71-205.18-111.74-88.73-114.42,17.99-252.91,166.95Zm-274.17-84.08l266.59,81.75,245.92-162.34-512.52,80.59Zm649.69-102.15l106.72,84.74,67.63-112.16-174.34,27.42Zm-47.76-30.13l-62.55,41.29,95.61-15.04-33.06-26.25Zm5.36-3.54l35.9,28.51,184.97-29.08,92.77-153.86-62.64-11.25-250.99,165.69Zm320.07-153.28l-91.33,151.47,498.27-78.35-406.94-73.12Zm-663.14-119.16l338.03,268.44,247.31-163.26-585.34-105.18Zm601.45,101.87l58.62,10.53,49.31-81.78-107.93,71.25Z"/><path class="cls-7" d="m4817.71,3146.8c-.87,0-1.71-.37-2.3-1.05l-118.12-135.82-360.55,25.16c-1.55.14-2.98-1.01-3.23-2.57l-85.93-540.39c-.21-1.34.49-2.67,1.72-3.25,1.25-.56,2.71-.27,3.6.76l447,513.98,110.91-7.74-13.34-513.7c-.04-1.68,1.29-3.08,2.98-3.13,1.61,0,3.09,1.29,3.13,2.98l13.34,513.43,255.85-17.85,102.81-822.41c.21-1.68,1.75-2.87,3.41-2.65,1.67.21,2.86,1.74,2.65,3.41l-103.12,824.89c-.18,1.45-1.36,2.57-2.82,2.67l-258.64,18.04,3.69,142.1c.03,1.29-.75,2.46-1.95,2.92-.36.14-.74.21-1.11.21Zm-112.79-137.41l109.52,125.93-3.46-133.33-106.06,7.4Zm-449.63-507.69l83.81,527.1,353.16-24.64-436.98-502.46Z"/><path class="cls-7" d="m4336.52,3035.1c-.44,0-.88-.1-1.29-.29l-696.01-326.52c-1.53-.72-2.19-2.54-1.47-4.06.72-1.53,2.55-2.18,4.06-1.47l686.19,321.92-526.78-798.66c-.93-1.41-.54-3.31.87-4.23,1.41-.95,3.3-.55,4.23.87l532.75,807.71c.76,1.15.66,2.65-.24,3.68-.59.69-1.44,1.06-2.31,1.06Z"/><path class="cls-7" d="m3081.98,3155.4c-.29,0-.57-.04-.86-.13l-1263.12-369.49c-1.13-.33-1.97-1.28-2.16-2.45-.19-1.16.31-2.33,1.28-3l524.16-360.89c1.21-.82,2.84-.69,3.88.35l738.97,730.38c1,.98,1.19,2.52.48,3.72-.56.95-1.57,1.5-2.63,1.5Zm-1256.1-373.67l1245.35,364.29-728.57-720.11-516.78,355.81Z"/><path class="cls-7" d="m2660.94,1943.82c-.57,0-1.15-.16-1.66-.49-1.41-.91-1.82-2.8-.91-4.22l266.37-412.45c.35-.54.86-.96,1.46-1.19l1288.9-498.38c1.58-.6,3.34.17,3.96,1.75.61,1.57-.18,3.34-1.75,3.95l-1287.98,498.02-265.84,411.62c-.58.9-1.56,1.4-2.57,1.4Z"/><path class="cls-7" d="m1647,3284.29c-.3,0-.61-.04-.91-.14l-635.86-197.63c-1.25-.39-2.11-1.53-2.15-2.83-.04-1.31.76-2.49,1.99-2.95l807.71-300.75c1.11-.4,2.35-.14,3.2.68.85.82,1.14,2.06.75,3.18l-170.04,493.13,645.43-152.86,42.83-702.34c.03-.54.21-1.05.5-1.5l317.93-481.19c.62-.94,1.74-1.43,2.84-1.36,1.13.11,2.1.83,2.53,1.87l264.46,639.82,373.41-441.3-376.91-608.2c-.6-.96-.61-2.17-.05-3.14.57-.98,1.64-1.68,2.75-1.52l730.38,25.78c.41.01.81.11,1.18.28l366.2,170.33,188.09-692.52c.32-1.18,1.32-2.06,2.54-2.23,1.2-.17,2.41.41,3.04,1.47l322.95,543.91,152.69-517.44c.16-.54.46-1.02.88-1.4l464.01-421.04c.89-.81,2.19-1.02,3.29-.53,1.11.49,1.82,1.58,1.82,2.79v704.6l-51.58,421.41c-.16,1.26-1.07,2.3-2.31,2.6l-591.79,143.72,660.88,245.71c1.01.38,1.75,1.26,1.95,2.32.19,1.06-.19,2.15-1.01,2.85l-376.21,324.91,273.77,496.21c.78,1.41.33,3.19-1.04,4.06l-257.78,163.26c-.7.44-1.55.58-2.33.39l-480.79-111.62-695.6,25.77c-.81-.04-1.64-.28-2.23-.85-.6-.58-.94-1.37-.94-2.2v-345.95l-553.57,442.85c-.57.46-1.31.63-2.01.67l-781.53-25.76-652.59,154.56c-.25.07-.5.1-.76.1Zm-626.41-200.95l624.49,194.1,168.78-489.47-793.26,295.37Zm1282.69,40.28l777.67,25.63,555.58-444.46-331.58-561.13-375.31,443.54c-.69.81-1.77,1.21-2.8,1.04-1.06-.17-1.95-.87-2.35-1.85l-264.18-639.13-314.3,475.71-42.72,700.66Zm2033.23-94.63c.23,0,.47.02.69.08l479.94,111.42,254.27-161.05-272.69-494.25-548.09,9.52c-.57.03-1.13-.14-1.62-.44l-443.58-265.38-161.88,477.13v348.64l692.84-25.67h.11Zm-1026.29-888.41l329.52,557.65,161.12-474.89c.3-.87.97-1.56,1.84-1.89.88-.32,1.83-.23,2.63.25l446.07,266.88,544.19-9.45-288.9-569.31-1196.46,230.75Zm1204.41-228.6l286.85,565.27,371.21-320.6-658.07-244.67Zm-1581.71-380.41l373.96,603.43,1200.85-231.59,599.36-145.56,51.3-418.94-.02-697.34-458.27,415.83-154.43,523.34c-.35,1.16-1.34,2.02-2.55,2.17-1.24.13-2.39-.43-3.01-1.47l-322.84-543.73-187.14,689.05c-.24.87-.84,1.59-1.66,1.97-.82.38-1.75.38-2.58,0l-368.93-171.59-724.04-25.56Z"/><path class="cls-7" d="m3081.97,3155.4c-1.46,0-2.76-1.06-3.01-2.55-.28-1.66.84-3.24,2.51-3.52l557.63-94.36,609.41-565.55c1.23-1.15,3.16-1.08,4.31.16,1.15,1.24,1.08,3.17-.16,4.31l-610.08,566.17c-.44.41-.98.67-1.57.78l-558.53,94.52c-.17.03-.34.04-.51.04Z"/><path class="cls-7" d="m4542.74,1582.93c-1.22,0-2.37-.74-2.85-1.95-.61-1.57.17-3.34,1.74-3.95l612.93-238.36-458.09-279.94-479.12-25.67-557.58,523.26c-1.22,1.15-3.16,1.09-4.31-.14-1.16-1.23-1.1-3.17.14-4.32l558.52-524.16c.6-.57,1.44-.85,2.25-.82l481.2,25.78c.51.03,1,.18,1.43.44l464.01,283.56c.99.61,1.55,1.72,1.45,2.88-.1,1.16-.85,2.15-1.93,2.57l-618.68,240.6c-.36.14-.74.21-1.11.21Z"/><path class="cls-7" d="m2300.04,3129.62c-.86,0-1.71-.36-2.31-1.06-1.1-1.28-.96-3.21.32-4.31l627.27-541.35c1.27-1.09,3.2-.96,4.31.32,1.1,1.28.96,3.21-.32,4.31l-627.27,541.35c-.58.5-1.29.74-2,.74Z"/><path class="cls-7" d="m4216.22,1032.99c-1.19,0-2.33-.7-2.82-1.88-.65-1.56.08-3.35,1.63-4l945.2-395.27c1.57-.64,3.35.08,4,1.64s-.08,3.35-1.63,4l-945.2,395.27c-.39.16-.79.24-1.18.24Z"/><path class="cls-7" d="m3081.98,3155.4c-1.37,0-2.58-.92-2.95-2.25l-154.21-565.45-582.63-162.79c-1.15-.32-2.01-1.29-2.2-2.47-.18-1.18.34-2.36,1.34-3.02l593.15-391.56-274.44-84.16c-1.36-.42-2.26-1.72-2.15-3.14.1-1.42,1.17-2.58,2.58-2.8l538.85-84.72,72.07-47.58-345.97-274.74c-1.1-.87-1.46-2.37-.89-3.65.58-1.28,1.92-1.98,3.33-1.75l603.6,108.46,124.56-82.22c1.19-.78,2.76-.65,3.8.35,1.03.99,1.24,2.56.5,3.78l-55.08,91.35,421.8,75.79,514.88-145.88c.54-.16,1.16-.15,1.73.02h0s.02,0,.02,0l559.54,178.04-408.43-697.74c-.85-1.46-.36-3.33,1.09-4.18,1.46-.85,3.33-.37,4.18,1.09l412.45,704.6c.64,1.09.54,2.46-.25,3.45-.79.98-2.12,1.37-3.31,1l-563.55-179.31-33.97,322.79c-.03.31-.11.62-.24.91l-254.91,578.73,921.3-333.64c1.57-.58,3.34.24,3.91,1.83.58,1.59-.24,3.34-1.83,3.91l-928.01,336.07c-1.15.42-2.43.11-3.27-.78-.84-.9-1.06-2.2-.57-3.32l257.59-584.82,33.5-318.31-733.11,639.34s-.07.05-.11.09h0c-.36.29-.76.48-1.18.58h0s0,0-.01,0c-.3.07-.64.09-.94.07h-.03c-.1,0-.18-.02-.28-.04l-495.46-85.42-222.79,1011.09c-.3,1.37-1.5,2.36-2.91,2.4h-.08Zm-731.7-734.58l577.85,161.46c1.03.29,1.84,1.1,2.12,2.14l151.4,555.16,220.14-999.08-359.75-110.32-591.77,390.65Zm1085.44-492.66l366.86,291.33,219.5-489.64-515.68,81.08-70.69,117.23Zm-125.41,208l482.19,83.13-359.97-285.86-122.23,202.72Zm719.07-407.65l-217.14,484.38,718.21-626.35-501.08,141.97Zm-1080.72,297.31l355.35,108.97,123.71-205.18-111.74-88.73-114.42,17.99-252.91,166.95Zm-274.17-84.08l266.59,81.75,245.92-162.34-512.52,80.59Zm649.69-102.15l106.72,84.74,67.63-112.16-174.34,27.42Zm-47.76-30.13l-62.55,41.29,95.61-15.04-33.06-26.25Zm5.36-3.54l35.9,28.51,184.97-29.08,92.77-153.86-62.64-11.25-250.99,165.69Zm320.07-153.28l-91.33,151.47,498.27-78.35-406.94-73.12Zm-663.14-119.16l338.03,268.44,247.31-163.26-585.34-105.18Zm601.45,101.87l58.62,10.53,49.31-81.78-107.93,71.25Z"/><path class="cls-7" d="m4817.71,3146.8c-.87,0-1.71-.37-2.3-1.05l-118.12-135.82-360.55,25.16c-1.55.14-2.98-1.01-3.23-2.57l-85.93-540.39c-.21-1.34.49-2.67,1.72-3.25,1.25-.56,2.71-.27,3.6.76l447,513.98,110.91-7.74-13.34-513.7c-.04-1.68,1.29-3.08,2.98-3.13,1.61,0,3.09,1.29,3.13,2.98l13.34,513.43,255.85-17.85,102.81-822.41c.21-1.68,1.75-2.87,3.41-2.65,1.67.21,2.86,1.74,2.65,3.41l-103.12,824.89c-.18,1.45-1.36,2.57-2.82,2.67l-258.64,18.04,3.69,142.1c.03,1.29-.75,2.46-1.95,2.92-.36.14-.74.21-1.11.21Zm-112.79-137.41l109.52,125.93-3.46-133.33-106.06,7.4Zm-449.63-507.69l83.81,527.1,353.16-24.64-436.98-502.46Z"/><path class="cls-7" d="m4336.52,3035.1c-.44,0-.88-.1-1.29-.29l-696.01-326.52c-1.53-.72-2.19-2.54-1.47-4.06.72-1.53,2.55-2.18,4.06-1.47l686.19,321.92-526.78-798.66c-.93-1.41-.54-3.31.87-4.23,1.41-.95,3.3-.55,4.23.87l532.75,807.71c.76,1.15.66,2.65-.24,3.68-.59.69-1.44,1.06-2.31,1.06Z"/><path class="cls-7" d="m3081.98,3155.4c-.29,0-.57-.04-.86-.13l-1263.12-369.49c-1.13-.33-1.97-1.28-2.16-2.45-.19-1.16.31-2.33,1.28-3l524.16-360.89c1.21-.82,2.84-.69,3.88.35l738.97,730.38c1,.98,1.19,2.52.48,3.72-.56.95-1.57,1.5-2.63,1.5Zm-1256.1-373.67l1245.35,364.29-728.57-720.11-516.78,355.81Z"/><path class="cls-7" d="m2660.94,1943.82c-.57,0-1.15-.16-1.66-.49-1.41-.91-1.82-2.8-.91-4.22l266.37-412.45c.35-.54.86-.96,1.46-1.19l1288.9-498.38c1.58-.6,3.34.17,3.96,1.75.61,1.57-.18,3.34-1.75,3.95l-1287.98,498.02-265.84,411.62c-.58.9-1.56,1.4-2.57,1.4Z"/><path class="cls-7" d="m1647,3284.29c-.3,0-.61-.04-.91-.14l-635.86-197.63c-1.25-.39-2.11-1.53-2.15-2.83-.04-1.31.76-2.49,1.99-2.95l807.71-300.75c1.11-.4,2.35-.14,3.2.68.85.82,1.14,2.06.75,3.18l-170.04,493.13,645.43-152.86,42.83-702.34c.03-.54.21-1.05.5-1.5l317.93-481.19c.62-.94,1.74-1.43,2.84-1.36,1.13.11,2.1.83,2.53,1.87l264.46,639.82,373.41-441.3-376.91-608.2c-.6-.96-.61-2.17-.05-3.14.57-.98,1.64-1.68,2.75-1.52l730.38,25.78c.41.01.81.11,1.18.28l366.2,170.33,188.09-692.52c.32-1.18,1.32-2.06,2.54-2.23,1.2-.17,2.41.41,3.04,1.47l322.95,543.91,152.69-517.44c.16-.54.46-1.02.88-1.4l464.01-421.04c.89-.81,2.19-1.02,3.29-.53,1.11.49,1.82,1.58,1.82,2.79v704.6l-51.58,421.41c-.16,1.26-1.07,2.3-2.31,2.6l-591.79,143.72,660.88,245.71c1.01.38,1.75,1.26,1.95,2.32.19,1.06-.19,2.15-1.01,2.85l-376.21,324.91,273.77,496.21c.78,1.41.33,3.19-1.04,4.06l-257.78,163.26c-.7.44-1.55.58-2.33.39l-480.79-111.62-695.6,25.77c-.81-.04-1.64-.28-2.23-.85-.6-.58-.94-1.37-.94-2.2v-345.95l-553.57,442.85c-.57.46-1.31.63-2.01.67l-781.53-25.76-652.59,154.56c-.25.07-.5.1-.76.1Zm-626.41-200.95l624.49,194.1,168.78-489.47-793.26,295.37Zm1282.69,40.28l777.67,25.63,555.58-444.46-331.58-561.13-375.31,443.54c-.69.81-1.77,1.21-2.8,1.04-1.06-.17-1.95-.87-2.35-1.85l-264.18-639.13-314.3,475.71-42.72,700.66Zm2033.23-94.63c.23,0,.47.02.69.08l479.94,111.42,254.27-161.05-272.69-494.25-548.09,9.52c-.57.03-1.13-.14-1.62-.44l-443.58-265.38-161.88,477.13v348.64l692.84-25.67h.11Zm-1026.29-888.41l329.52,557.65,161.12-474.89c.3-.87.97-1.56,1.84-1.89.88-.32,1.83-.23,2.63.25l446.07,266.88,544.19-9.45-288.9-569.31-1196.46,230.75Zm1204.41-228.6l286.85,565.27,371.21-320.6-658.07-244.67Zm-1581.71-380.41l373.96,603.43,1200.85-231.59,599.36-145.56,51.3-418.94-.02-697.34-458.27,415.83-154.43,523.34c-.35,1.16-1.34,2.02-2.55,2.17-1.24.13-2.39-.43-3.01-1.47l-322.84-543.73-187.14,689.05c-.24.87-.84,1.59-1.66,1.97-.82.38-1.75.38-2.58,0l-368.93-171.59-724.04-25.56Z"/><path class="cls-7" d="m4542.74,1582.93c-1.22,0-2.37-.74-2.85-1.95-.61-1.57.17-3.34,1.74-3.95l612.93-238.36-458.09-279.94-479.12-25.67-557.58,523.26c-1.22,1.15-3.16,1.09-4.31-.14-1.16-1.23-1.1-3.17.14-4.32l558.52-524.16c.6-.57,1.44-.85,2.25-.82l481.2,25.78c.51.03,1,.18,1.43.44l464.01,283.56c.99.61,1.55,1.72,1.45,2.88-.1,1.16-.85,2.15-1.93,2.57l-618.68,240.6c-.36.14-.74.21-1.11.21Z"/><path class="cls-7" d="m2300.04,3129.62c-.86,0-1.71-.36-2.31-1.06-1.1-1.28-.96-3.21.32-4.31l627.27-541.35c1.27-1.09,3.2-.96,4.31.32,1.1,1.28.96,3.21-.32,4.31l-627.27,541.35c-.58.5-1.29.74-2,.74Z"/><path class="cls-7" d="m4216.22,1032.99c-1.19,0-2.33-.7-2.82-1.88-.65-1.56.08-3.35,1.63-4l945.2-395.27c1.57-.64,3.35.08,4,1.64s-.08,3.35-1.63,4l-945.2,395.27c-.39.16-.79.24-1.18.24Z"/><circle class="cls-12" cx="2927.31" cy="1530.47" r="49.41"/><circle class="cls-18" cx="3657.69" cy="1554.1" r="49.41"/><circle class="cls-14" cx="2940.2" cy="2028.13" r="49.41"/><circle class="cls-17" cx="4216.22" cy="1029.94" r="49.41"/><circle class="cls-15" cx="4697.41" cy="1055.72" r="49.41"/><circle class="cls-21" cx="4542.74" cy="1579.87" r="49.41"/><circle class="cls-3" cx="3803.77" cy="2224.33" r="49.41"/><circle class="cls-19" cx="3305.39" cy="2138.4" r="49.41"/><circle class="cls-22" cx="2927.31" cy="2585.22" r="49.41"/><circle class="cls-5" cx="2343.01" cy="2421.96" r="49.41"/><circle class="cls-4" cx="2660.94" cy="1940.77" r="49.41"/><circle class="cls-26" cx="1818.85" cy="2782.85" r="49.41"/><circle class="cls-1" cx="2703.19" cy="2772.59" r="49.41"/><circle class="cls-25" cx="3640.51" cy="2705.52" r="49.41"/><circle class="cls-9" cx="4250.59" cy="2488.83" r="49.41"/><circle class="cls-6" cx="4027.18" cy="2566.16" r="49.41"/><circle class="cls-16" cx="4336.52" cy="3026.31" r="49.41"/><circle class="cls-24" cx="4508.37" cy="1906.4" r="49.41"/><circle class="cls-13" cx="4027.18" cy="1725.95" r="49.41"/><circle class="cls-20" cx="4917.24" cy="1430.22" r="49.41"/><circle class="cls-11" cx="3171.85" cy="2737.74" r="49.41"/><circle class="cls-23" cx="4800.52" cy="2482.11" r="49.41"/><path class="cls-7" d="m3081.98,3155.16c-1.35,0-2.55-.98-2.78-2.36-.26-1.53.78-3,2.32-3.25l557.69-94.38,599.53-556.37-597.3,209.38c-.23.08-.48.13-.73.15l-937.32,67.07c-1.54.13-2.91-1.06-3.02-2.61-.11-1.56,1.06-2.91,2.61-3.02l936.95-67.04,609.73-213.74c1.24-.45,2.66.05,3.35,1.21.7,1.14.49,2.61-.5,3.53l-610.08,566.17c-.4.38-.9.62-1.45.72l-558.53,94.52c-.15.03-.31.04-.47.04Z"/><path class="cls-7" d="m3081.98,3155.16c-1.35,0-2.55-.98-2.78-2.36-.26-1.53.78-3,2.32-3.25l557.69-94.38,599.53-556.37-597.3,209.38c-.23.08-.48.13-.73.15l-937.32,67.07c-1.54.13-2.91-1.06-3.02-2.61-.11-1.56,1.06-2.91,2.61-3.02l936.95-67.04,609.73-213.74c1.24-.45,2.66.05,3.35,1.21.7,1.14.49,2.61-.5,3.53l-610.08,566.17c-.4.38-.9.62-1.45.72l-558.53,94.52c-.15.03-.31.04-.47.04Z"/></g></g><path class="cls-10" d="m310.25,1418.3v-321.3h67.95v265.05h130.5v56.25h-198.45Z"/><path class="cls-10" d="m660.34,1168.1c22.8,0,42.37,4.35,58.73,13.05,16.35,8.7,29.02,21.3,38.02,37.8,9,16.5,13.5,36.75,13.5,60.75v32.4h-158.4c.6,18.9,6.22,33.75,16.88,44.55,10.65,10.8,25.42,16.2,44.32,16.2,15.9,0,30.3-1.57,43.2-4.72,12.9-3.15,26.25-8.02,40.05-14.62v51.75c-12,6-24.68,10.43-38.02,13.27-13.35,2.85-29.48,4.27-48.38,4.27-24.6,0-46.35-4.57-65.25-13.73-18.9-9.15-33.75-23.02-44.55-41.62-10.8-18.6-16.2-42-16.2-70.2s4.87-52.72,14.62-71.78c9.75-19.05,23.32-33.37,40.73-42.97,17.4-9.6,37.65-14.4,60.75-14.4Zm.45,47.7c-12.9,0-23.62,4.2-32.17,12.6-8.55,8.4-13.58,21.45-15.08,39.15h94.05c0-9.9-1.73-18.75-5.18-26.55-3.45-7.8-8.63-13.95-15.52-18.45-6.9-4.5-15.6-6.75-26.1-6.75Z"/><path class="cls-10" d="m925.83,1167.65c33,0,58.27,7.13,75.83,21.38,17.55,14.25,26.32,36.08,26.32,65.48v163.8h-46.8l-13.05-33.3h-1.8c-6.9,8.7-14.03,15.9-21.38,21.6-7.35,5.7-15.75,9.83-25.2,12.38-9.45,2.55-21.08,3.83-34.88,3.83s-27.38-2.78-38.93-8.33c-11.55-5.55-20.63-14.1-27.23-25.65-6.6-11.55-9.9-26.17-9.9-43.88,0-26.1,9.15-45.37,27.45-57.82,18.3-12.45,45.75-19.27,82.35-20.48l42.75-1.35v-10.8c0-12.9-3.38-22.35-10.12-28.35-6.75-6-16.13-9-28.12-9s-23.7,1.73-35.1,5.17c-11.4,3.45-22.8,7.73-34.2,12.83l-22.05-45.45c13.2-6.9,27.82-12.3,43.88-16.2,16.05-3.9,32.77-5.85,50.17-5.85Zm9.45,137.7c-21.6.6-36.6,4.5-45,11.7-8.4,7.2-12.6,16.65-12.6,28.35,0,10.2,3,17.48,9,21.82,6,4.35,13.8,6.53,23.4,6.53,14.4,0,26.55-4.28,36.45-12.83s14.85-20.62,14.85-36.23v-20.25l-26.1.9Z"/><path class="cls-10" d="m1234.08,1168.1c3.3,0,7.2.15,11.7.45,4.5.3,8.1.75,10.8,1.35l-4.95,63c-2.1-.6-5.17-1.12-9.23-1.58-4.05-.45-7.58-.67-10.57-.67-8.7,0-17.1,1.12-25.2,3.38s-15.38,5.78-21.82,10.57c-6.46,4.8-11.55,11.18-15.3,19.12-3.75,7.95-5.62,17.78-5.62,29.48v125.1h-67.05v-245.7h50.85l9.9,41.4h3.15c4.8-8.4,10.8-16.05,18-22.95,7.2-6.9,15.52-12.45,24.98-16.65,9.45-4.2,19.57-6.3,30.38-6.3Z"/><path class="cls-10" d="m1440.63,1168.1c26.4,0,47.55,7.13,63.45,21.38,15.9,14.25,23.85,37.12,23.85,68.62v160.2h-67.05v-143.55c0-17.7-3.15-30.97-9.45-39.83-6.3-8.85-16.36-13.27-30.15-13.27-20.4,0-34.35,6.98-41.85,20.92-7.5,13.95-11.25,33.98-11.25,60.08v115.65h-67.05v-245.7h51.3l9,31.5h3.6c5.4-8.4,12-15.22,19.8-20.47,7.8-5.25,16.49-9.15,26.1-11.7,9.6-2.55,19.5-3.83,29.7-3.83Z"/><path class="cls-10" d="m1602.18,1418.3v-321.3h67.95v265.05h130.5v56.25h-198.45Z"/><path class="cls-10" d="m1951.82,1167.65c33,0,58.27,7.13,75.82,21.38,17.55,14.25,26.33,36.08,26.33,65.48v163.8h-46.8l-13.05-33.3h-1.8c-6.91,8.7-14.03,15.9-21.38,21.6-7.36,5.7-15.75,9.83-25.2,12.38-9.45,2.55-21.08,3.83-34.88,3.83s-27.38-2.78-38.92-8.33c-11.55-5.55-20.63-14.1-27.23-25.65-6.6-11.55-9.9-26.17-9.9-43.88,0-26.1,9.15-45.37,27.45-57.82,18.3-12.45,45.75-19.27,82.35-20.48l42.75-1.35v-10.8c0-12.9-3.38-22.35-10.12-28.35-6.75-6-16.13-9-28.12-9s-23.7,1.73-35.1,5.17c-11.4,3.45-22.8,7.73-34.2,12.83l-22.05-45.45c13.2-6.9,27.82-12.3,43.88-16.2,16.05-3.9,32.77-5.85,50.18-5.85Zm9.45,137.7c-21.6.6-36.6,4.5-45,11.7-8.4,7.2-12.6,16.65-12.6,28.35,0,10.2,3,17.48,9,21.82,6,4.35,13.79,6.53,23.4,6.53,14.4,0,26.55-4.28,36.45-12.83,9.9-8.55,14.85-20.62,14.85-36.23v-20.25l-26.1.9Z"/><path class="cls-10" d="m2189.87,1155.95c0,9.3-.3,18.45-.9,27.45-.6,9-1.2,16.05-1.8,21.15h2.7c6.59-10.2,15.45-18.82,26.55-25.88,11.09-7.05,25.5-10.58,43.2-10.58,27.6,0,49.95,10.73,67.05,32.18,17.1,21.45,25.65,53.03,25.65,94.73,0,27.9-3.98,51.38-11.92,70.42-7.95,19.05-18.98,33.38-33.08,42.98-14.1,9.6-30.6,14.4-49.5,14.4s-32.17-3.23-42.52-9.67c-10.35-6.45-18.83-13.73-25.42-21.83h-4.5l-11.25,27h-51.3v-342h67.05v79.65Zm48.15,65.7c-11.7,0-21,2.4-27.9,7.2-6.91,4.8-11.93,12.08-15.08,21.83-3.15,9.75-4.88,21.98-5.17,36.67v7.2c0,23.7,3.52,41.93,10.57,54.67,7.05,12.75,19.87,19.12,38.48,19.12,13.79,0,24.75-6.37,32.85-19.12,8.1-12.75,12.15-31.12,12.15-55.12s-4.13-42.07-12.38-54.22c-8.25-12.15-19.43-18.23-33.53-18.23Z"/><path class="cls-10" d="m431.35,1549.5c-17.6,0-33.4,3-47.4,9s-25.8,14.54-35.4,25.6c-9.6,11.07-16.94,24.27-22,39.6-5.07,15.34-7.6,32.34-7.6,51,0,25.6,4,47.94,12,67,8,19.07,20.06,33.8,36.2,44.2,16.13,10.4,36.2,15.6,60.2,15.6,13.86,0,26.66-1.06,38.4-3.2,11.73-2.13,22.53-4.8,32.4-8v20c-9.6,3.74-20.34,6.67-32.2,8.8-11.87,2.13-25.67,3.2-41.4,3.2-28.54,0-52.47-6.13-71.8-18.4-19.34-12.26-33.87-29.46-43.6-51.6-9.74-22.13-14.6-48-14.6-77.6,0-21.06,3.06-40.53,9.2-58.4,6.13-17.86,15.06-33.33,26.8-46.4,11.73-13.06,26.06-23.2,43-30.4,16.93-7.2,36.33-10.8,58.2-10.8,13.6,0,26.73,1.34,39.4,4,12.66,2.67,24.46,6.54,35.4,11.6l-9.2,20.4c-10.14-5.06-20.74-8.86-31.8-11.4-11.07-2.53-22.47-3.8-34.2-3.8Z"/><path class="cls-10" d="m732.14,1711.9c0,16.54-2.07,31.54-6.2,45-4.14,13.47-10.27,25.07-18.4,34.8-8.14,9.74-18.2,17.27-30.2,22.6s-25.74,8-41.2,8-27.8-2.6-39.4-7.8c-11.6-5.2-21.54-12.66-29.8-22.4-8.27-9.73-14.54-21.4-18.8-35-4.27-13.6-6.4-28.66-6.4-45.2,0-23.2,3.8-43,11.4-59.4,7.6-16.4,18.66-29,33.2-37.8,14.53-8.8,31.8-13.2,51.8-13.2s37.4,4.6,51.4,13.8,24.6,22.07,31.8,38.6c7.2,16.54,10.8,35.87,10.8,58Zm-166.8,0c0,18.14,2.53,34.07,7.6,47.8,5.06,13.74,12.93,24.34,23.6,31.8,10.66,7.47,24,11.2,40,11.2s30.13-3.8,40.8-11.4c10.66-7.6,18.53-18.26,23.6-32,5.06-13.73,7.6-29.53,7.6-47.4s-2.4-33.6-7.2-47.2c-4.8-13.6-12.4-24.26-22.8-32-10.4-7.73-24-11.6-40.8-11.6-24.27,0-42.4,8-54.4,24s-18,38.27-18,66.8Z"/><path class="cls-10" d="m957.74,1605.5v212.8h-18.8l-3.2-36.4h-1.2c-3.74,7.74-9,14.67-15.8,20.8-6.8,6.14-14.87,10.94-24.2,14.4-9.34,3.46-20.14,5.2-32.4,5.2-16.54,0-30.34-2.87-41.4-8.6-11.07-5.73-19.4-14.33-25-25.8-5.6-11.46-8.4-25.73-8.4-42.8v-139.6h22.8v137.6c0,20.27,4.6,35.27,13.8,45,9.2,9.74,22.73,14.6,40.6,14.6,15.73,0,28.8-3,39.2-9,10.4-6,18.2-15,23.4-27,5.2-12,7.8-26.93,7.8-44.8v-116.4h22.8Z"/><path class="cls-10" d="m1115.33,1601.9c5.33,0,10.46.34,15.4,1,4.93.67,9.4,1.54,13.4,2.6l-3.2,20.8c-4.27-1.06-8.54-1.93-12.8-2.6-4.27-.66-8.94-1-14-1-9.6,0-18.27,1.87-26,5.6-7.74,3.74-14.4,9.07-20,16-5.6,6.94-9.87,15.2-12.8,24.8-2.94,9.6-4.4,20.4-4.4,32.4v116.8h-22.8v-212.8h19.2l2.4,40h1.2c3.46-8.26,8.2-15.66,14.2-22.2,6-6.53,13.26-11.73,21.8-15.6,8.53-3.86,18-5.8,28.4-5.8Z"/><path class="cls-10" d="m1319.33,1761.9c0,12.8-3.2,23.74-9.6,32.8-6.4,9.07-15.74,15.94-28,20.6-12.27,4.66-27.2,7-44.8,7-14.67,0-27.74-1.34-39.2-4-11.47-2.66-21.2-5.86-29.2-9.6v-22c9.6,4.8,20.4,8.74,32.4,11.8,12,3.07,24.13,4.6,36.4,4.6,21.33,0,36.66-3.53,46-10.6,9.33-7.06,14-16.73,14-29,0-8-2.2-14.6-6.6-19.8-4.4-5.2-10.94-9.86-19.6-14-8.67-4.13-19.4-8.33-32.2-12.6-13.07-4.53-24.67-9.13-34.8-13.8-10.14-4.66-18-10.6-23.6-17.8s-8.4-17.06-8.4-29.6c0-17.06,6.93-30.4,20.8-40,13.86-9.6,32.4-14.4,55.6-14.4,12.8,0,24.73,1.2,35.8,3.6,11.06,2.4,21.13,5.6,30.2,9.6l-8,18.8c-8.27-3.73-17.6-6.8-28-9.2s-20.8-3.6-31.2-3.6c-16.8,0-29.87,2.94-39.2,8.8-9.34,5.87-14,14.4-14,25.6,0,8.54,2.2,15.27,6.6,20.2,4.4,4.94,10.93,9.14,19.6,12.6,8.66,3.47,19.13,7.47,31.4,12,12.53,4.27,23.93,8.8,34.2,13.6,10.26,4.8,18.4,10.94,24.4,18.4,6,7.47,9,17.47,9,30Z"/><path class="cls-10" d="m1453.33,1601.5c18.4,0,33.66,4.2,45.8,12.6,12.13,8.4,21.33,19.94,27.6,34.6,6.26,14.67,9.4,31.6,9.4,50.8v15.2h-152c0,28.54,6.6,50.27,19.8,65.2,13.2,14.94,31.93,22.4,56.2,22.4,13.33,0,24.93-1.06,34.8-3.2,9.86-2.13,20.66-5.86,32.4-11.2v20.8c-10.67,4.8-21.2,8.27-31.6,10.4-10.4,2.13-22.54,3.2-36.4,3.2-21.07,0-39-4.4-53.8-13.2s-26-21.4-33.6-37.8c-7.6-16.4-11.4-35.53-11.4-57.4s3.6-41.2,10.8-58c7.2-16.8,17.73-30.06,31.6-39.8,13.86-9.73,30.66-14.6,50.4-14.6Zm0,19.2c-19.74,0-35.6,6.47-47.6,19.4-12,12.94-19.07,31.54-21.2,55.8h128c0-14.93-2.14-28-6.4-39.2-4.27-11.2-10.74-20-19.4-26.4-8.67-6.4-19.8-9.6-33.4-9.6Z"/><path class="cls-10" d="m1727.32,1761.9c0,12.8-3.2,23.74-9.6,32.8-6.4,9.07-15.74,15.94-28,20.6-12.27,4.66-27.2,7-44.8,7-14.67,0-27.74-1.34-39.2-4-11.47-2.66-21.2-5.86-29.2-9.6v-22c9.6,4.8,20.4,8.74,32.4,11.8,12,3.07,24.13,4.6,36.4,4.6,21.33,0,36.66-3.53,46-10.6,9.33-7.06,14-16.73,14-29,0-8-2.2-14.6-6.6-19.8-4.4-5.2-10.94-9.86-19.6-14-8.67-4.13-19.4-8.33-32.2-12.6-13.07-4.53-24.67-9.13-34.8-13.8-10.14-4.66-18-10.6-23.6-17.8s-8.4-17.06-8.4-29.6c0-17.06,6.93-30.4,20.8-40,13.86-9.6,32.4-14.4,55.6-14.4,12.8,0,24.73,1.2,35.8,3.6,11.06,2.4,21.13,5.6,30.2,9.6l-8,18.8c-8.27-3.73-17.6-6.8-28-9.2s-20.8-3.6-31.2-3.6c-16.8,0-29.87,2.94-39.2,8.8-9.34,5.87-14,14.4-14,25.6,0,8.54,2.2,15.27,6.6,20.2,4.4,4.94,10.93,9.14,19.6,12.6,8.66,3.47,19.13,7.47,31.4,12,12.53,4.27,23.93,8.8,34.2,13.6,10.26,4.8,18.4,10.94,24.4,18.4,6,7.47,9,17.47,9,30Z"/></g></g></svg>