<?xml version="1.0" encoding="UTF-8"?><svg id="Layer_1" xmlns="http://www.w3.org/2000/svg" xmlns:xlink="http://www.w3.org/1999/xlink" viewBox="0 0 2707.12 2053.06"><defs><style>.cls-1{fill:url(#linear-gradient-38);}.cls-1,.cls-2,.cls-3,.cls-4,.cls-5,.cls-6,.cls-7,.cls-8,.cls-9,.cls-10,.cls-11,.cls-12,.cls-13,.cls-14,.cls-15,.cls-16,.cls-17,.cls-18,.cls-19,.cls-20,.cls-21,.cls-22,.cls-23,.cls-24,.cls-25,.cls-26,.cls-27,.cls-28,.cls-29,.cls-30,.cls-31,.cls-32,.cls-33,.cls-34,.cls-35,.cls-36,.cls-37,.cls-38,.cls-39,.cls-40,.cls-41,.cls-42,.cls-43,.cls-44,.cls-45,.cls-46,.cls-47,.cls-48,.cls-49,.cls-50,.cls-51,.cls-52,.cls-53,.cls-54,.cls-55,.cls-56,.cls-57,.cls-58,.cls-59,.cls-60,.cls-61,.cls-62,.cls-63,.cls-64,.cls-65,.cls-66,.cls-67,.cls-68,.cls-69,.cls-70,.cls-71,.cls-72,.cls-73,.cls-74,.cls-75,.cls-76,.cls-77,.cls-78,.cls-79,.cls-80,.cls-81,.cls-82,.cls-83,.cls-84,.cls-85,.cls-86,.cls-87,.cls-88,.cls-89,.cls-90,.cls-91,.cls-92,.cls-93,.cls-94,.cls-95,.cls-96,.cls-97,.cls-98,.cls-99,.cls-100,.cls-101,.cls-102,.cls-103,.cls-104,.cls-105,.cls-106,.cls-107,.cls-108,.cls-109,.cls-110,.cls-111,.cls-112,.cls-113{stroke-width:0px;}.cls-2{opacity:0;}.cls-2,.cls-4,.cls-6,.cls-8,.cls-9,.cls-13,.cls-14,.cls-20,.cls-23,.cls-30,.cls-31,.cls-32,.cls-34,.cls-39,.cls-41,.cls-43,.cls-44,.cls-47,.cls-53,.cls-68,.cls-73,.cls-78,.cls-86,.cls-89,.cls-93,.cls-96,.cls-98,.cls-109,.cls-110,.cls-113{fill:#262a35;}.cls-3,.cls-114{fill:#fefefe;}.cls-4{opacity:.66;}.cls-5{fill:url(#linear-gradient-12);}.cls-6{opacity:.69;}.cls-7{fill:url(#linear-gradient-17);}.cls-8{opacity:.9;}.cls-9{opacity:.31;}.cls-10{fill:url(#linear-gradient-19);}.cls-11{fill:url(#linear-gradient-33);}.cls-12{fill:url(#linear-gradient);}.cls-13{opacity:.1;}.cls-14{opacity:.14;}.cls-15{fill:url(#linear-gradient-67);}.cls-16{fill:#f9f7f8;}.cls-17{fill:url(#linear-gradient-57);}.cls-18{fill:url(#linear-gradient-21);}.cls-19{fill:url(#linear-gradient-6);}.cls-20{opacity:.07;}.cls-21{fill:#fefeff;}.cls-22{fill:url(#linear-gradient-42);}.cls-23{opacity:.93;}.cls-24{fill:#efece7;}.cls-25{fill:#e2e0dc;}.cls-26{fill:#ff3790;}.cls-27{fill:url(#linear-gradient-15);}.cls-28{fill:url(#linear-gradient-11);}.cls-29{fill:url(#linear-gradient-62);}.cls-29,.cls-46{opacity:.2;}.cls-30{opacity:.97;}.cls-31{opacity:.28;}.cls-32{opacity:.17;}.cls-33{fill:#f3f7f6;}.cls-34{opacity:.59;}.cls-35{fill:url(#linear-gradient-5);}.cls-36{fill:url(#linear-gradient-31);}.cls-37{fill:url(#linear-gradient-71);}.cls-38{fill:url(#linear-gradient-58);}.cls-39{opacity:.76;}.cls-40{fill:url(#linear-gradient-34);}.cls-41{opacity:.38;}.cls-115{opacity:.8;}.cls-42{fill:url(#linear-gradient-41);}.cls-43{opacity:.48;}.cls-45{fill:url(#linear-gradient-40);}.cls-46{fill:url(#linear-gradient-63);}.cls-47{opacity:.52;}.cls-48{fill:url(#linear-gradient-66);}.cls-49{fill:url(#linear-gradient-13);}.cls-50{fill:url(#linear-gradient-23);}.cls-51{fill:url(#linear-gradient-25);}.cls-52{fill:url(#linear-gradient-43);}.cls-53{opacity:.55;}.cls-54{fill:url(#linear-gradient-16);}.cls-55{fill:url(#linear-gradient-22);}.cls-56{fill:url(#linear-gradient-54);}.cls-57{fill:#2cd2b8;}.cls-58{fill:url(#linear-gradient-55);}.cls-59,.cls-71{fill:#fff;}.cls-60{fill:url(#linear-gradient-35);}.cls-116{opacity:.3;}.cls-61{fill:url(#linear-gradient-50);}.cls-62{fill:url(#linear-gradient-32);}.cls-63{fill:url(#linear-gradient-60);}.cls-64{fill:url(#linear-gradient-59);}.cls-65{fill:url(#linear-gradient-20);}.cls-66{fill:url(#linear-gradient-14);}.cls-67{fill:url(#linear-gradient-2);}.cls-68{opacity:.83;}.cls-69{fill:url(#linear-gradient-52);}.cls-70{fill:url(#linear-gradient-45);}.cls-71{opacity:.61;}.cls-72{fill:#00c7ff;}.cls-73{opacity:.86;}.cls-74{fill:url(#linear-gradient-7);}.cls-75{fill:url(#linear-gradient-39);}.cls-76{fill:url(#linear-gradient-3);}.cls-77{fill:url(#linear-gradient-69);}.cls-78{opacity:.79;}.cls-117{clip-path:url(#clippath);}.cls-79{fill:url(#linear-gradient-9);}.cls-80{fill:url(#linear-gradient-27);}.cls-81{fill:url(#linear-gradient-53);}.cls-82{fill:url(#linear-gradient-65);}.cls-83{fill:url(#linear-gradient-36);}.cls-84{fill:url(#linear-gradient-48);}.cls-85{fill:url(#linear-gradient-49);}.cls-86{opacity:.21;}.cls-87{fill:url(#linear-gradient-8);}.cls-88{fill:url(#linear-gradient-47);}.cls-89{opacity:.03;}.cls-90{fill:url(#linear-gradient-24);}.cls-91{fill:url(#linear-gradient-26);}.cls-92{fill:url(#linear-gradient-61);}.cls-93{opacity:.45;}.cls-94{fill:url(#linear-gradient-18);}.cls-95{fill:url(#linear-gradient-51);}.cls-96{opacity:.72;}.cls-118{opacity:.67;}.cls-97{fill:url(#linear-gradient-30);}.cls-98{opacity:.34;}.cls-99{fill:url(#linear-gradient-44);}.cls-100{fill:url(#linear-gradient-68);}.cls-101{fill:url(#linear-gradient-29);}.cls-102{fill:url(#linear-gradient-46);}.cls-103{fill:url(#linear-gradient-64);}.cls-104{fill:url(#linear-gradient-28);}.cls-105{fill:url(#linear-gradient-56);}.cls-106{fill:url(#linear-gradient-10);}.cls-107{fill:url(#linear-gradient-70);}.cls-108{fill:url(#linear-gradient-4);}.cls-109{opacity:.24;}.cls-110{opacity:.62;}.cls-111{fill:url(#linear-gradient-37);}.cls-112{fill:#d8d8d8;}.cls-119{fill:none;stroke:#fff;stroke-miterlimit:10;stroke-width:.4px;}.cls-113{opacity:.41;}</style><linearGradient id="linear-gradient" x1="2713.23" y1="725.89" x2="629.36" y2="1140.95" gradientUnits="userSpaceOnUse"><stop offset="0" stop-color="#fff"/><stop offset="1" stop-color="#cecece"/></linearGradient><linearGradient id="linear-gradient-2" x1="886.65" y1="965.57" x2="1784.96" y2="965.57" gradientUnits="userSpaceOnUse"><stop offset="0" stop-color="#38aca8"/><stop offset="1" stop-color="#5f637a"/></linearGradient><linearGradient id="linear-gradient-3" x1="886.65" y1="1023.67" x2="1664.88" y2="1023.67" gradientUnits="userSpaceOnUse"><stop offset="0" stop-color="#66d5ea"/><stop offset="1" stop-color="#11aa8d"/></linearGradient><linearGradient id="linear-gradient-4" x1="1664.88" y1="986.2" x2="1784.96" y2="986.2" xlink:href="#linear-gradient-3"/><linearGradient id="linear-gradient-5" x1="2180.43" y1="1101.28" x2="-79.95" y2="1109.63" gradientUnits="userSpaceOnUse"><stop offset="0" stop-color="#dfeeef"/><stop offset="1" stop-color="#7d878d"/></linearGradient><linearGradient id="linear-gradient-6" x1="2681.22" y1="1002.01" x2="2320.85" y2="1003.34" xlink:href="#linear-gradient-5"/><linearGradient id="linear-gradient-7" x1="1869.47" y1="965.75" x2="2107.56" y2="965.75" xlink:href="#linear-gradient-5"/><linearGradient id="linear-gradient-8" x1="1958.54" y1="895.33" x2="2019.37" y2="972.42" xlink:href="#linear-gradient-5"/><linearGradient id="linear-gradient-9" x1="1958.71" y1="913.89" x2="2073.01" y2="913.89" xlink:href="#linear-gradient-2"/><linearGradient id="linear-gradient-10" x1="2069.8" y1="681.37" x2="2417.33" y2="681.37" xlink:href="#linear-gradient-2"/><linearGradient id="linear-gradient-11" x1="2205.34" y1="271.85" x2="2458.69" y2="271.85" xlink:href="#linear-gradient-2"/><linearGradient id="linear-gradient-12" x1="2093.59" y1="273.35" x2="2346.93" y2="273.35" xlink:href="#linear-gradient-2"/><linearGradient id="linear-gradient-13" x1="2206.51" y1="337.25" x2="2291.6" y2="337.25" xlink:href="#linear-gradient-2"/><linearGradient id="linear-gradient-14" x1="1680.39" y1="332.26" x2="1720.86" y2="332.26" gradientTransform="translate(673.22 14.78) skewX(-17.84)" gradientUnits="userSpaceOnUse"><stop offset="0" stop-color="#ffc931"/><stop offset="1" stop-color="#fff200"/></linearGradient><linearGradient id="linear-gradient-15" x1="1680.39" y1="304.94" x2="1715.03" y2="304.94" gradientTransform="translate(673.22 14.78) skewX(-17.84)" gradientUnits="userSpaceOnUse"><stop offset="0" stop-color="#ffac06"/><stop offset="1" stop-color="#f87c18"/></linearGradient><linearGradient id="linear-gradient-16" x1="1670.73" y1="403.69" x2="1490.71" y2="718.72" xlink:href="#linear-gradient-5"/><linearGradient id="linear-gradient-17" x1="1550.28" y1="363.44" x2="1550.28" y2="822.4" gradientUnits="userSpaceOnUse"><stop offset="0" stop-color="#00a9e4"/><stop offset="1" stop-color="#eef0ee"/></linearGradient><linearGradient id="linear-gradient-18" x1="1560.12" y1="352.1" x2="1560.12" y2="739.73" gradientUnits="userSpaceOnUse"><stop offset="0" stop-color="#3f4451"/><stop offset="1" stop-color="#1a1e28"/></linearGradient><linearGradient id="linear-gradient-19" x1="1578.01" y1="691.33" x2="1547.87" y2="310.5" xlink:href="#linear-gradient-2"/><linearGradient id="linear-gradient-20" x1="1156.96" y1="731.84" x2="1153.47" y2="687.64" gradientTransform="translate(1078.3 -380.55) rotate(36.83) scale(1 .96) skewX(-12.29)" xlink:href="#linear-gradient-5"/><linearGradient id="linear-gradient-21" x1="1159.04" y1="525.66" x2="1401.95" y2="525.66" xlink:href="#linear-gradient-2"/><linearGradient id="linear-gradient-22" x1="1676.43" y1="372.38" x2="1994.61" y2="372.38" xlink:href="#linear-gradient-3"/><linearGradient id="linear-gradient-23" x1="1673.87" y1="361.54" x2="1981.59" y2="361.54" xlink:href="#linear-gradient-2"/><linearGradient id="linear-gradient-24" x1="1676.41" y1="398.32" x2="1929.42" y2="398.32" xlink:href="#linear-gradient-2"/><linearGradient id="linear-gradient-25" x1="976.22" y1="477.8" x2="1319.41" y2="477.8" xlink:href="#linear-gradient-18"/><linearGradient id="linear-gradient-26" x1="973.66" y1="466.95" x2="1306.39" y2="466.95" gradientTransform="matrix(1,0,0,1,0,0)" xlink:href="#linear-gradient-15"/><linearGradient id="linear-gradient-27" x1="873.64" y1="752.64" x2="1216.83" y2="752.64" xlink:href="#linear-gradient-3"/><linearGradient id="linear-gradient-28" x1="871.08" y1="741.8" x2="1203.81" y2="741.8" xlink:href="#linear-gradient-2"/><linearGradient id="linear-gradient-29" x1="1876.86" y1="769.67" x2="2220.06" y2="769.67" xlink:href="#linear-gradient-18"/><linearGradient id="linear-gradient-30" x1="1874.3" y1="758.83" x2="2207.03" y2="758.83" xlink:href="#linear-gradient-2"/><linearGradient id="linear-gradient-31" x1="1430.59" y1="592.15" x2="2032.74" y2="592.15" xlink:href="#linear-gradient-18"/><linearGradient id="linear-gradient-32" x1="1431.14" y1="583.79" x2="2020.61" y2="583.79" xlink:href="#linear-gradient-2"/><clipPath id="clippath"><ellipse class="cls-3" cx="1549.5" cy="584.29" rx="62.63" ry="44.77" transform="translate(-36.57 1060.46) rotate(-37.37)"/></clipPath><linearGradient id="linear-gradient-33" x1="1012.04" y1="544.39" x2="1033.7" y2="544.39" gradientTransform="translate(703.1 70.9) scale(1 .97) skewX(-18.26)" gradientUnits="userSpaceOnUse"><stop offset="0" stop-color="#ffd9d9"/><stop offset="1" stop-color="#efb4b4"/></linearGradient><linearGradient id="linear-gradient-34" x1="1002.45" y1="524.77" x2="1043.29" y2="524.77" xlink:href="#linear-gradient-33"/><linearGradient id="linear-gradient-35" x1="1482.9" y1="620.39" x2="1581.6" y2="620.39" xlink:href="#linear-gradient-2"/><linearGradient id="linear-gradient-36" x1="998.12" y1="506.56" x2="1046.56" y2="506.56" gradientTransform="translate(703.1 70.9) scale(1 .97) skewX(-18.26)" xlink:href="#linear-gradient-18"/><linearGradient id="linear-gradient-37" x1="581.11" y1="123.38" x2="581.11" y2="294.46" gradientTransform="translate(727.18 18.68) skewX(-19.18)" xlink:href="#linear-gradient-14"/><linearGradient id="linear-gradient-38" x1="582.02" y1="181.33" x2="582.02" y2="305.99" gradientTransform="translate(727.18 18.68) skewX(-19.18)" xlink:href="#linear-gradient-14"/><linearGradient id="linear-gradient-39" x1="582.02" y1="-20.96" x2="582.02" y2="224.1" gradientTransform="translate(727.18 18.68) skewX(-19.18)" xlink:href="#linear-gradient-14"/><linearGradient id="linear-gradient-40" x1="1472.42" y1="183.46" x2="1721.21" y2="183.46" gradientTransform="translate(304.09 -771.7) rotate(29.91)" xlink:href="#linear-gradient-3"/><linearGradient id="linear-gradient-41" x1="1461.6" y1="170.71" x2="1710.38" y2="170.71" gradientTransform="translate(296.29 -768) rotate(29.91)" xlink:href="#linear-gradient-2"/><linearGradient id="linear-gradient-42" x1="1997.51" y1="112.76" x2="1747.04" y2="223.26" gradientTransform="translate(137.09 -1.93) rotate(-1.41) scale(1.01) skewX(-5.38)" xlink:href="#linear-gradient-15"/><linearGradient id="linear-gradient-43" x1="1317.49" y1="856.64" x2="1639.86" y2="856.64" xlink:href="#linear-gradient-5"/><linearGradient id="linear-gradient-44" x1="1249.04" y1="890.64" x2="1742.09" y2="890.64" xlink:href="#linear-gradient-5"/><linearGradient id="linear-gradient-45" x1="1753.17" y1="1699.37" x2="2026.33" y2="1699.37" xlink:href="#linear-gradient"/><linearGradient id="linear-gradient-46" x1="1721.01" y1="1493.02" x2="2074.54" y2="1493.02" xlink:href="#linear-gradient-18"/><linearGradient id="linear-gradient-47" x1="2217.31" y1="1144.97" x2="2024.89" y2="1440.84" xlink:href="#linear-gradient-2"/><linearGradient id="linear-gradient-48" x1="1936.19" y1="1332.66" x2="2262.42" y2="1332.66" gradientUnits="userSpaceOnUse"><stop offset="0" stop-color="#82d7db"/><stop offset="1" stop-color="#5dc9a5"/></linearGradient><linearGradient id="linear-gradient-49" x1="1811.33" y1="1280.03" x2="1732.07" y2="1401.89" xlink:href="#linear-gradient-2"/><linearGradient id="linear-gradient-50" x1="1902.41" y1="1470.32" x2="1707.74" y2="1236.52" xlink:href="#linear-gradient-48"/><linearGradient id="linear-gradient-51" x1="1980.76" y1="1431.93" x2="1727.77" y2="1128.08" xlink:href="#linear-gradient-2"/><linearGradient id="linear-gradient-52" x1="1807.38" y1="1066.47" x2="1955.77" y2="1514.85" xlink:href="#linear-gradient-48"/><linearGradient id="linear-gradient-53" x1="2080.98" y1="1362.43" x2="2119.49" y2="1478.8" xlink:href="#linear-gradient-48"/><linearGradient id="linear-gradient-54" x1="1739.31" y1="1398.41" x2="1786.62" y2="1541.36" xlink:href="#linear-gradient-48"/><linearGradient id="linear-gradient-55" x1="717.42" y1="1803.43" x2="877.07" y2="1803.43" gradientTransform="translate(-89.98)" xlink:href="#linear-gradient-18"/><linearGradient id="linear-gradient-56" x1="672.12" y1="1549.11" x2="775.1" y2="1549.11" gradientTransform="translate(-89.98)" xlink:href="#linear-gradient-18"/><linearGradient id="linear-gradient-57" x1="438.21" y1="1423.19" x2="1160.09" y2="1423.19" gradientTransform="translate(-89.98)" xlink:href="#linear-gradient-18"/><linearGradient id="linear-gradient-58" x1="529.99" y1="373.57" x2="738.4" y2="373.57" gradientTransform="translate(-89.98)" xlink:href="#linear-gradient-33"/><linearGradient id="linear-gradient-59" x1="445.12" y1="311.81" x2="745.61" y2="311.81" gradientTransform="translate(-89.98)" xlink:href="#linear-gradient-18"/><linearGradient id="linear-gradient-60" x1="319.86" y1="878.51" x2="1146.12" y2="878.51" gradientTransform="translate(-89.98)" xlink:href="#linear-gradient-15"/><linearGradient id="linear-gradient-61" x1="1041.59" y1="1813.48" x2="1243.24" y2="1813.48" gradientTransform="translate(-89.98)" xlink:href="#linear-gradient-18"/><linearGradient id="linear-gradient-62" x1="784.56" y1="1000.25" x2="850.59" y2="1000.25" gradientTransform="translate(-89.98)" xlink:href="#linear-gradient-18"/><linearGradient id="linear-gradient-63" x1="387.82" y1="762.79" x2="438.21" y2="762.79" gradientTransform="translate(-89.98)" xlink:href="#linear-gradient-18"/><linearGradient id="linear-gradient-64" x1="2500.43" y1="2019.8" x2="2500.43" y2="1797.76" gradientTransform="translate(2946.74) rotate(-180) scale(1 -1)" gradientUnits="userSpaceOnUse"><stop offset="0" stop-color="#343945"/><stop offset="1" stop-color="#7d878d"/></linearGradient><linearGradient id="linear-gradient-65" x1="2484.47" y1="2023.99" x2="2484.47" y2="1786.46" gradientTransform="translate(2946.74) rotate(-180) scale(1 -1)" xlink:href="#linear-gradient-5"/><linearGradient id="linear-gradient-66" x1="137.15" y1="792.95" x2="472.66" y2="1370.77" xlink:href="#linear-gradient-5"/><linearGradient id="linear-gradient-67" x1="2481.71" y1="1439.1" x2="2663.42" y2="501.24" xlink:href="#linear-gradient-64"/><linearGradient id="linear-gradient-68" x1="2384.44" y1="1481.66" x2="2553.8" y2="1481.66" gradientTransform="translate(-2005.08 2963.32) scale(1 -1)" xlink:href="#linear-gradient-5"/><linearGradient id="linear-gradient-69" x1="2439.86" y1="1650.57" x2="2512.08" y2="1650.57" gradientTransform="translate(-2008.19 3301.14) scale(1 -1)" xlink:href="#linear-gradient-5"/><linearGradient id="linear-gradient-70" x1="2412.99" y1="1773.79" x2="2552.42" y2="1773.79" gradientTransform="translate(-2022.19 3547.59) scale(1 -1)" xlink:href="#linear-gradient-5"/><linearGradient id="linear-gradient-71" x1="1132.51" y1="963.61" x2="1296.64" y2="963.61" gradientTransform="translate(-89.98)" xlink:href="#linear-gradient-33"/></defs><g class="cls-116"><ellipse class="cls-2" cx="1933.16" cy="1940.1" rx="326.76" ry="112.96"/><ellipse class="cls-89" cx="1933.16" cy="1940.1" rx="321.08" ry="111"/><ellipse class="cls-20" cx="1933.16" cy="1940.1" rx="315.4" ry="109.03"/><ellipse class="cls-13" cx="1933.16" cy="1940.1" rx="309.72" ry="107.07"/><ellipse class="cls-14" cx="1933.16" cy="1940.1" rx="304.04" ry="105.11"/><ellipse class="cls-32" cx="1933.16" cy="1940.1" rx="298.36" ry="103.14"/><ellipse class="cls-86" cx="1933.16" cy="1940.1" rx="292.68" ry="101.18"/><ellipse class="cls-109" cx="1933.16" cy="1940.1" rx="287" ry="99.21"/><ellipse class="cls-31" cx="1933.16" cy="1940.1" rx="281.32" ry="97.25"/><ellipse class="cls-9" cx="1933.16" cy="1940.1" rx="275.63" ry="95.29"/><ellipse class="cls-98" cx="1933.16" cy="1940.1" rx="269.95" ry="93.32"/><ellipse class="cls-41" cx="1933.16" cy="1940.1" rx="264.27" ry="91.36"/><ellipse class="cls-113" cx="1933.16" cy="1940.1" rx="258.59" ry="89.4"/><ellipse class="cls-93" cx="1933.16" cy="1940.1" rx="252.91" ry="87.43"/><ellipse class="cls-43" cx="1933.16" cy="1940.1" rx="247.23" ry="85.47"/><ellipse class="cls-47" cx="1933.16" cy="1940.1" rx="241.55" ry="83.5"/><ellipse class="cls-53" cx="1933.16" cy="1940.1" rx="235.87" ry="81.54"/><ellipse class="cls-34" cx="1933.16" cy="1940.1" rx="230.19" ry="79.58"/><ellipse class="cls-110" cx="1933.16" cy="1940.1" rx="224.51" ry="77.61"/><ellipse class="cls-4" cx="1933.16" cy="1940.1" rx="218.83" ry="75.65"/><ellipse class="cls-6" cx="1933.16" cy="1940.1" rx="213.15" ry="73.69"/><ellipse class="cls-96" cx="1933.16" cy="1940.1" rx="207.47" ry="71.72"/><ellipse class="cls-39" cx="1933.16" cy="1940.1" rx="201.79" ry="69.76"/><ellipse class="cls-78" cx="1933.16" cy="1940.1" rx="196.1" ry="67.79"/><ellipse class="cls-68" cx="1933.16" cy="1940.1" rx="190.42" ry="65.83"/><ellipse class="cls-73" cx="1933.16" cy="1940.1" rx="184.74" ry="63.87"/><ellipse class="cls-8" cx="1933.16" cy="1940.1" rx="179.06" ry="61.9"/><ellipse class="cls-23" cx="1933.16" cy="1940.1" rx="173.38" ry="59.94"/><ellipse class="cls-30" cx="1933.16" cy="1940.1" rx="167.7" ry="57.97"/><ellipse class="cls-44" cx="1933.16" cy="1940.1" rx="162.02" ry="56.01"/></g><g class="cls-116"><ellipse class="cls-2" cx="713.64" cy="1894.16" rx="691.26" ry="112.96"/><ellipse class="cls-89" cx="713.64" cy="1894.16" rx="679.24" ry="111"/><ellipse class="cls-20" cx="713.64" cy="1894.16" rx="667.23" ry="109.03"/><ellipse class="cls-13" cx="713.64" cy="1894.16" rx="655.21" ry="107.07"/><ellipse class="cls-14" cx="713.64" cy="1894.16" rx="643.19" ry="105.11"/><ellipse class="cls-32" cx="713.64" cy="1894.16" rx="631.17" ry="103.14"/><ellipse class="cls-86" cx="713.64" cy="1894.16" rx="619.16" ry="101.18"/><ellipse class="cls-109" cx="713.64" cy="1894.16" rx="607.14" ry="99.21"/><ellipse class="cls-31" cx="713.64" cy="1894.16" rx="595.12" ry="97.25"/><ellipse class="cls-9" cx="713.64" cy="1894.16" rx="583.1" ry="95.29"/><ellipse class="cls-98" cx="713.64" cy="1894.16" rx="571.09" ry="93.32"/><ellipse class="cls-41" cx="713.64" cy="1894.16" rx="559.07" ry="91.36"/><ellipse class="cls-113" cx="713.64" cy="1894.16" rx="547.05" ry="89.4"/><ellipse class="cls-93" cx="713.64" cy="1894.16" rx="535.03" ry="87.43"/><ellipse class="cls-43" cx="713.64" cy="1894.16" rx="523.02" ry="85.47"/><ellipse class="cls-47" cx="713.64" cy="1894.16" rx="511" ry="83.5"/><ellipse class="cls-53" cx="713.64" cy="1894.16" rx="498.98" ry="81.54"/><ellipse class="cls-34" cx="713.64" cy="1894.16" rx="486.96" ry="79.58"/><ellipse class="cls-110" cx="713.64" cy="1894.16" rx="474.95" ry="77.61"/><ellipse class="cls-4" cx="713.64" cy="1894.16" rx="462.93" ry="75.65"/><ellipse class="cls-6" cx="713.64" cy="1894.16" rx="450.91" ry="73.69"/><ellipse class="cls-96" cx="713.64" cy="1894.16" rx="438.89" ry="71.72"/><ellipse class="cls-39" cx="713.64" cy="1894.16" rx="426.88" ry="69.76"/><ellipse class="cls-78" cx="713.64" cy="1894.16" rx="414.86" ry="67.79"/><ellipse class="cls-68" cx="713.64" cy="1894.16" rx="402.84" ry="65.83"/><ellipse class="cls-73" cx="713.64" cy="1894.16" rx="390.82" ry="63.87"/><ellipse class="cls-8" cx="713.64" cy="1894.16" rx="378.81" ry="61.9"/><ellipse class="cls-23" cx="713.64" cy="1894.16" rx="366.79" ry="59.94"/><ellipse class="cls-30" cx="713.64" cy="1894.16" rx="354.77" ry="57.97"/><ellipse class="cls-44" cx="713.64" cy="1894.16" rx="342.75" ry="56.01"/></g><g class="cls-116"><ellipse class="cls-2" cx="1656.99" cy="1561.69" rx="691.26" ry="112.96"/><ellipse class="cls-89" cx="1656.99" cy="1561.69" rx="679.24" ry="111"/><ellipse class="cls-20" cx="1656.99" cy="1561.69" rx="667.23" ry="109.03"/><ellipse class="cls-13" cx="1656.99" cy="1561.69" rx="655.21" ry="107.07"/><ellipse class="cls-14" cx="1656.99" cy="1561.69" rx="643.19" ry="105.11"/><ellipse class="cls-32" cx="1656.99" cy="1561.69" rx="631.17" ry="103.14"/><ellipse class="cls-86" cx="1656.99" cy="1561.69" rx="619.16" ry="101.18"/><ellipse class="cls-109" cx="1656.99" cy="1561.69" rx="607.14" ry="99.21"/><ellipse class="cls-31" cx="1656.99" cy="1561.69" rx="595.12" ry="97.25"/><ellipse class="cls-9" cx="1656.99" cy="1561.69" rx="583.1" ry="95.29"/><ellipse class="cls-98" cx="1656.99" cy="1561.69" rx="571.09" ry="93.32"/><ellipse class="cls-41" cx="1656.99" cy="1561.69" rx="559.07" ry="91.36"/><ellipse class="cls-113" cx="1656.99" cy="1561.69" rx="547.05" ry="89.4"/><ellipse class="cls-93" cx="1656.99" cy="1561.69" rx="535.03" ry="87.43"/><ellipse class="cls-43" cx="1656.99" cy="1561.69" rx="523.02" ry="85.47"/><ellipse class="cls-47" cx="1656.99" cy="1561.69" rx="511" ry="83.5"/><ellipse class="cls-53" cx="1656.99" cy="1561.69" rx="498.98" ry="81.54"/><ellipse class="cls-34" cx="1656.99" cy="1561.69" rx="486.96" ry="79.58"/><ellipse class="cls-110" cx="1656.99" cy="1561.69" rx="474.95" ry="77.61"/><ellipse class="cls-4" cx="1656.99" cy="1561.69" rx="462.93" ry="75.65"/><ellipse class="cls-6" cx="1656.99" cy="1561.69" rx="450.91" ry="73.69"/><ellipse class="cls-96" cx="1656.99" cy="1561.69" rx="438.89" ry="71.72"/><ellipse class="cls-39" cx="1656.99" cy="1561.69" rx="426.88" ry="69.76"/><ellipse class="cls-78" cx="1656.99" cy="1561.69" rx="414.86" ry="67.79"/><ellipse class="cls-68" cx="1656.99" cy="1561.69" rx="402.84" ry="65.83"/><ellipse class="cls-73" cx="1656.99" cy="1561.69" rx="390.82" ry="63.87"/><ellipse class="cls-8" cx="1656.99" cy="1561.69" rx="378.81" ry="61.9"/><ellipse class="cls-23" cx="1656.99" cy="1561.69" rx="366.79" ry="59.94"/><ellipse class="cls-30" cx="1656.99" cy="1561.69" rx="354.77" ry="57.97"/><ellipse class="cls-44" cx="1656.99" cy="1561.69" rx="342.75" ry="56.01"/></g><polygon class="cls-12" points="2707.12 875.88 547.63 875.88 73.2 1080.45 2345.72 1080.45 2707.12 875.88"/><polygon class="cls-67" points="1052.76 928.1 1784.96 928.1 1664.88 1003.04 886.65 1003.04 1052.76 928.1"/><rect class="cls-76" x="886.65" y="1003.04" width="778.23" height="41.26"/><polygon class="cls-108" points="1664.88 1044.3 1784.96 969.36 1784.96 928.1 1664.88 1003.04 1664.88 1044.3"/><g class="cls-115"><polygon class="cls-119" points="933.23 993.02 1054.92 938.12 1749.97 938.12 1662.01 993.02 933.23 993.02"/><line class="cls-119" x1="1005.76" y1="993.02" x2="1127.45" y2="938.12"/><line class="cls-119" x1="1070.26" y1="993.02" x2="1191.95" y2="938.12"/><line class="cls-119" x1="1134.76" y1="993.02" x2="1256.45" y2="938.12"/><line class="cls-119" x1="1199.26" y1="993.02" x2="1320.95" y2="938.12"/><line class="cls-119" x1="1263.76" y1="993.02" x2="1385.45" y2="938.12"/><line class="cls-119" x1="1328.26" y1="993.02" x2="1449.95" y2="938.12"/><line class="cls-119" x1="1392.76" y1="993.02" x2="1514.45" y2="938.12"/><line class="cls-119" x1="1474.39" y1="993.02" x2="1578.95" y2="938.12"/><line class="cls-119" x1="1549.95" y1="993.02" x2="1643.45" y2="938.12"/><line class="cls-119" x1="1614.85" y1="993.02" x2="1707.95" y2="938.12"/><line class="cls-119" x1="1011.8" y1="958.14" x2="1713.71" y2="958.14"/><line class="cls-119" x1="975.14" y1="974.49" x2="1677.05" y2="974.49"/></g><rect class="cls-35" x="73.2" y="1080.45" width="2272.52" height="48.84"/><polygon class="cls-19" points="2707.12 875.88 2345.72 1080.45 2345.72 1129.29 2707.12 924.72 2707.12 875.88"/><path class="cls-74" d="m2017.44,1022.46c-71.24,37.4-136.68,13.6-144.53-10.02-9.86-29.65,4.58-64.02,4.58-64.02,0,0,116.34-63.77,164.3-58.58,21.65,2.33,36.35,5.37,46.27,9.74,12.14,5.31,17.21,12.72,19.14,23.46,3.56,19.49-18.51,61.96-89.75,99.42Z"/><path class="cls-87" d="m2093.31,913.18c-6.3,13.3-71.94,63.6-121.53,63.6s-94.29-8.4-94.29-28.36c0,0,24.12-54.21,164.3-58.58,21.76-.68,36.35,5.37,46.27,9.74,4.61,4.43,7.35,9.22,5.25,13.59Z"/><path class="cls-79" d="m2072.53,893.73l-60.95,14.9,61.42,24.66-3.11,2.38s-48.49-20.02-72.31-27.27c-23.82-7.25-38.87-8.24-38.87-8.24l9.92-2.07,35.25,8.21,62.47-14.18,6.18,1.61Z"/><path class="cls-106" d="m2240.6,899.36c-12.53,0-25.53-1.31-38.73-4.44-112.33-26.65-126.46-1.9-126.59-1.65l.04-.09-5.52-2.36c.37-.87,4.17-8.56,22.93-12.26,23.98-4.73,61.16-1.19,110.52,10.52,55.32,13.13,107.38-6.9,133.49-20,36.21-18.17,66.32-44.83,73.22-64.82,3.03-8.78,1.06-14.63-6.01-17.89-11.22-5.17-25.06-8.52-38.44-11.76-23.94-5.8-44.62-10.81-48.21-25.01-2.86-11.3,6.27-25.99,28.72-46.21,23.5-21.16,33.5-36.92,30.59-48.18-4.55-17.6-41.82-26.21-84.98-36.18-24.03-5.55-51.26-11.84-77.62-20.65-47.52-15.87-79.06-51.24-97.14-78.11-19.55-29.04-27.79-53.98-28.13-55.03l5.71-1.86c.08.25,8.38,25.32,27.5,53.69,17.55,26.04,48.11,60.31,93.97,75.63,26.09,8.72,53.17,14.97,77.07,20.49,46.92,10.84,83.98,19.4,89.44,40.52,3.57,13.81-6.72,31.02-32.39,54.14-20.05,18.06-29.11,31.62-26.92,40.29,2.7,10.69,22.67,15.53,43.8,20.65,13.66,3.31,27.79,6.73,39.53,12.14,9.96,4.59,13.22,13.57,9.18,25.3-7.48,21.69-38.11,49.1-76.2,68.22-20.64,10.36-57.1,24.92-98.84,24.92Z"/><path class="cls-24" d="m2454.87,274.32l-87.26,269.27c-2.59,7.98-12.72,14.44-22.66,14.44h-210.5c-9.93,0-15.88-6.46-13.3-14.44l87.26-269.27c2.59-7.98,12.72-14.44,22.66-14.44h210.5c9.93,0,15.88,6.46,13.3,14.44Z"/><polygon class="cls-59" points="2375.73 481.63 2150.9 481.63 2180.43 390.51 2405.26 390.51 2375.73 481.63"/><polygon class="cls-59" points="2408.07 381.84 2183.24 381.84 2213.11 289.64 2437.95 289.64 2408.07 381.84"/><path class="cls-25" d="m2418.25,304.47h-55.84c-1.28,0-1.99-1.04-1.58-2.31h0c.41-1.27,1.79-2.31,3.07-2.31h55.84c1.28,0,1.99,1.04,1.58,2.31h0c-.41,1.27-1.79,2.31-3.07,2.31Z"/><path class="cls-25" d="m2414.1,317.26h-71.13c-1.28,0-1.99-1.04-1.58-2.31h0c.41-1.27,1.79-2.31,3.07-2.31h71.13c1.28,0,1.99,1.04,1.58,2.31h0c-.41,1.27-1.79,2.31-3.07,2.31Z"/><path class="cls-25" d="m2409.95,330.05h-71.13c-1.28,0-1.99-1.04-1.58-2.31h0c.41-1.27,1.79-2.31,3.07-2.31h71.13c1.28,0,1.99,1.04,1.58,2.31h0c-.41,1.27-1.79,2.31-3.07,2.31Z"/><path class="cls-25" d="m2405.81,342.85h-71.13c-1.28,0-1.99-1.04-1.58-2.31h0c.41-1.27,1.79-2.31,3.07-2.31h71.13c1.28,0,1.99,1.04,1.58,2.31h0c-.41,1.27-1.79,2.31-3.07,2.31Z"/><path class="cls-25" d="m2401.66,355.64h-71.13c-1.28,0-1.99-1.04-1.58-2.31h0c.41-1.27,1.79-2.31,3.07-2.31h71.13c1.28,0,1.99,1.04,1.58,2.31h0c-.41,1.27-1.79,2.31-3.07,2.31Z"/><path class="cls-25" d="m2397.52,368.43h-71.13c-1.28,0-1.99-1.04-1.58-2.31h0c.41-1.27,1.79-2.31,3.07-2.31h71.13c1.28,0,1.99,1.04,1.58,2.31h0c-.41,1.27-1.79,2.31-3.07,2.31Z"/><path class="cls-25" d="m2378.59,407.46h-170.52c-1.19,0-1.85-.97-1.47-2.15h0c.38-1.18,1.67-2.15,2.86-2.15h170.52c1.19,0,1.85.97,1.47,2.15h0c-.38,1.18-1.67,2.15-2.86,2.15Z"/><path class="cls-25" d="m2374.72,419.39h-187c-1.19,0-1.85-.97-1.47-2.15h0c.38-1.18,1.67-2.15,2.86-2.15h187c1.19,0,1.85.97,1.47,2.15h0c-.38,1.18-1.67,2.15-2.86,2.15Z"/><path class="cls-25" d="m2370.86,431.32h-187c-1.19,0-1.85-.97-1.47-2.15h0c.38-1.18,1.67-2.15,2.86-2.15h187c1.19,0,1.85.97,1.47,2.15h0c-.38,1.18-1.67,2.15-2.86,2.15Z"/><path class="cls-25" d="m2366.99,443.25h-187c-1.19,0-1.85-.97-1.47-2.15h0c.38-1.18,1.67-2.15,2.86-2.15h187c1.19,0,1.85.97,1.47,2.15h0c-.38,1.18-1.67,2.15-2.86,2.15Z"/><path class="cls-25" d="m2363.12,455.19h-187c-1.19,0-1.85-.97-1.47-2.15h0c.38-1.18,1.67-2.15,2.86-2.15h187c1.19,0,1.85.97,1.47,2.15h0c-.38,1.18-1.67,2.15-2.86,2.15Z"/><path class="cls-25" d="m2359.26,467.12h-187c-1.19,0-1.85-.97-1.47-2.15h0c.38-1.18,1.67-2.15,2.86-2.15h187c1.19,0,1.85.97,1.47,2.15h0c-.38,1.18-1.67,2.15-2.86,2.15Z"/><path class="cls-28" d="m2458.56,262.93l-6.77,20.89h-246.45l6.77-20.89c.55-1.69,2.69-3.05,4.79-3.05h238.85c2.1,0,3.36,1.37,2.81,3.05Z"/><polygon class="cls-72" points="2215.92 359.63 2235.88 298.03 2234.22 298.03 2232.96 301.9 2229.1 301.9 2228.94 302.41 2232.8 302.41 2230.61 309.15 2226.75 309.15 2226.59 309.66 2230.45 309.66 2228.26 316.41 2224.4 316.41 2224.24 316.92 2228.1 316.92 2225.91 323.66 2222.05 323.66 2221.89 324.17 2225.75 324.17 2223.56 330.91 2219.7 330.91 2219.54 331.42 2223.4 331.42 2221.21 338.16 2217.35 338.16 2217.19 338.67 2221.05 338.67 2218.86 345.41 2215 345.41 2214.84 345.92 2218.7 345.92 2216.51 352.66 2212.65 352.66 2212.49 353.18 2216.35 353.18 2214.16 359.92 2210.3 359.92 2210.14 360.43 2214 360.43 2213.97 360.51 2213.97 360.51 2213.69 361.39 2312.65 361.39 2313.22 359.63 2215.92 359.63"/><polygon class="cls-72" points="2240.25 357.58 2222.64 357.58 2225.73 348.08 2243.33 348.08 2240.25 357.58"/><polygon class="cls-72" points="2262.47 357.58 2244.86 357.58 2251.51 337.08 2269.11 337.08 2262.47 357.58"/><polygon class="cls-72" points="2284.63 357.77 2267.03 357.77 2276.04 329.95 2293.65 329.95 2284.63 357.77"/><polygon class="cls-72" points="2306.85 357.77 2289.25 357.77 2302.4 317.19 2320 317.19 2306.85 357.77"/><path class="cls-24" d="m2343.12,275.82l-87.26,269.27c-2.59,7.98-12.72,14.44-22.66,14.44h-210.5c-9.93,0-15.88-6.46-13.3-14.44l87.26-269.27c2.59-7.98,12.72-14.44,22.65-14.44h210.5c9.93,0,15.88,6.46,13.3,14.44Z"/><polygon class="cls-59" points="2263.98 483.14 2039.14 483.14 2068.67 392.01 2293.51 392.01 2263.98 483.14"/><polygon class="cls-59" points="2296.32 383.34 2071.48 383.34 2101.36 291.15 2326.19 291.15 2296.32 383.34"/><path class="cls-25" d="m2179.1,305.97h-55.84c-1.28,0-1.99-1.04-1.58-2.31h0c.41-1.27,1.79-2.31,3.07-2.31h55.84c1.28,0,1.99,1.04,1.58,2.31h0c-.41,1.27-1.79,2.31-3.07,2.31Z"/><path class="cls-25" d="m2174.96,318.76h-71.13c-1.28,0-1.99-1.04-1.58-2.31h0c.41-1.27,1.79-2.31,3.07-2.31h71.13c1.28,0,1.99,1.04,1.58,2.31h0c-.41,1.27-1.79,2.31-3.07,2.31Z"/><path class="cls-25" d="m2170.81,331.56h-71.13c-1.28,0-1.99-1.04-1.58-2.31h0c.41-1.27,1.79-2.31,3.07-2.31h71.13c1.28,0,1.99,1.04,1.58,2.31h0c-.41,1.27-1.79,2.31-3.07,2.31Z"/><path class="cls-25" d="m2166.66,344.35h-71.13c-1.28,0-1.99-1.04-1.58-2.31h0c.41-1.27,1.79-2.31,3.07-2.31h71.13c1.28,0,1.99,1.04,1.58,2.31h0c-.41,1.27-1.79,2.31-3.07,2.31Z"/><path class="cls-25" d="m2162.52,357.14h-71.13c-1.28,0-1.99-1.04-1.58-2.31h0c.41-1.27,1.79-2.31,3.07-2.31h71.13c1.28,0,1.99,1.04,1.58,2.31h0c-.41,1.27-1.79,2.31-3.07,2.31Z"/><path class="cls-25" d="m2158.37,369.93h-71.13c-1.28,0-1.99-1.04-1.58-2.31h0c.41-1.27,1.79-2.31,3.07-2.31h71.13c1.28,0,1.99,1.04,1.58,2.31h0c-.41,1.27-1.79,2.31-3.07,2.31Z"/><path class="cls-25" d="m2266.84,408.96h-170.52c-1.19,0-1.85-.97-1.47-2.15h0c.38-1.18,1.67-2.15,2.86-2.15h170.52c1.19,0,1.85.97,1.47,2.15h0c-.38,1.18-1.67,2.15-2.86,2.15Z"/><path class="cls-25" d="m2262.97,420.89h-187c-1.19,0-1.85-.97-1.47-2.15h0c.38-1.18,1.67-2.15,2.86-2.15h187c1.19,0,1.85.97,1.47,2.15h0c-.38,1.18-1.67,2.15-2.86,2.15Z"/><path class="cls-25" d="m2259.1,432.82h-187c-1.19,0-1.85-.97-1.47-2.15h0c.38-1.18,1.67-2.15,2.86-2.15h187c1.19,0,1.85.97,1.47,2.15h0c-.38,1.18-1.67,2.15-2.86,2.15Z"/><path class="cls-25" d="m2255.24,444.76h-187c-1.19,0-1.85-.97-1.47-2.15h0c.38-1.18,1.67-2.15,2.86-2.15h187c1.19,0,1.85.97,1.47,2.15h0c-.38,1.18-1.67,2.15-2.86,2.15Z"/><path class="cls-25" d="m2251.37,456.69h-187c-1.19,0-1.85-.97-1.47-2.15h0c.38-1.18,1.67-2.15,2.86-2.15h187c1.19,0,1.85.97,1.47,2.15h0c-.38,1.18-1.67,2.15-2.86,2.15Z"/><path class="cls-25" d="m2247.5,468.62h-187c-1.19,0-1.85-.97-1.47-2.15h0c.38-1.18,1.67-2.15,2.86-2.15h187c1.19,0,1.85.97,1.47,2.15h0c-.38,1.18-1.67,2.15-2.86,2.15Z"/><path class="cls-5" d="m2346.81,264.44l-6.77,20.89h-246.45l6.77-20.89c.55-1.69,2.69-3.05,4.79-3.05h238.85c2.1,0,3.36,1.37,2.81,3.05Z"/><path class="cls-49" d="m2289.57,337.25c-4.99,15.4-18.09,28.85-33.1,35.57-6.63,2.97-13.57,4.69-20.41,4.69-22.44,0-34.69-18.06-27.5-40.26,7.19-22.2,31.15-40.26,53.59-40.26,2.99,0,5.8.31,8.43.94,10.24,2.42,17.3,9.3,19.85,18.68,1.75,6.02,1.59,13.05-.86,20.64Z"/><path class="cls-66" d="m2289.57,337.25c-4.99,15.4-18.09,28.85-33.1,35.57l-7.37-35.57,41.33-20.64c1.75,6.02,1.59,13.05-.86,20.64Z"/><path class="cls-27" d="m2290.43,316.61l-41.33,20.64,21.48-39.32c10.24,2.42,17.3,9.3,19.85,18.68Z"/><path class="cls-54" d="m2014.37,323.31l.04-.04-.24-.31c-.46-.71-.98-1.36-1.54-1.99l-18.04-23.39-9.45,17.92-677.71,27.01c-12.8.51-23.99,8.8-28.21,20.9l-151.14,433.36-21.92,10.45,18.6,23.61c.9,1.47,1.96,2.81,3.17,4.03l.44.56h.06c3.88,3.62,9.06,5.92,14.98,5.87l680.07-5.89c11.57-.1,21.83-7.45,25.64-18.38l166.98-478.77c1.86-5.32.91-10.68-1.74-14.95Z"/><path class="cls-7" d="m1997.13,313.83l-144.53,414.21-22.5,64.56c-3.78,10.88-14.02,18.26-25.64,18.35l-680.02,5.9c-15.13.09-25.73-14.76-20.75-28.96l18.45-52.85,138.07-396.04c4.24-12.17,15.4-20.38,28.22-20.94l691.46-27.58c12.36-.46,21.31,11.62,17.25,23.33Z"/><path class="cls-94" d="m1997.13,313.83l-144.53,414.21-730.47,7.01,138.07-396.04c4.24-12.17,15.4-20.38,28.22-20.94l691.46-27.58c12.36-.46,21.31,11.62,17.25,23.33Z"/><path class="cls-10" d="m1165.51,720.34l658.07-8.05c7.47-.09,14.08-4.86,16.52-11.93l136.88-379.81c2.69-7.79-3.31-15.85-11.55-15.49l-674.48,31.02c-8.81.38-16.51,6.05-19.48,14.34l-120.73,349.2c-3.65,10.17,3.97,20.85,14.77,20.72Z"/><ellipse class="cls-65" cx="1468.37" cy="767.23" rx="26.57" ry="21.21" transform="translate(-166.87 1033.21) rotate(-36.83)"/><path class="cls-18" d="m1401.95,340.21l-110.61,5.09c-5.08.22-9.48,3.46-11.16,8.15l-120.76,349.3c-.99,2.76.21,4.92.77,5.72.56.8,2.19,2.66,5.11,2.66l108.88-1.33,127.77-369.58Z"/><path class="cls-21" d="m1351.05,533.89l545.55-17.52-65.21,180.86c-1.2,3.51-4.34,5.81-7.93,5.81l-533.1,6.55,60.69-175.7Z"/><path class="cls-21" d="m1968.26,317.52l-66.04,183.26-545.73,17.52,61.79-178.84,547.58-25.18c1.2,0,1.84.65,2.12,1.02.28.46.65,1.29.28,2.21Z"/><path class="cls-55" d="m1992.75,277.76l.03-.03-.16-.21c-.32-.49-.67-.93-1.06-1.37l-12.39-16.07-6.49,12.32-204.94,11.42c-8.8.35-16.49,6.05-19.39,14.36l-56.86,155.88-15.06,7.18,12.78,16.22c.62,1.01,1.34,1.93,2.18,2.77l.3.39h.04c2.67,2.49,6.23,4.07,10.29,4.03l210.13-1.79c7.95-.07,15-5.12,17.62-12.63l64.16-182.21c1.28-3.66.63-7.34-1.2-10.27Z"/><path class="cls-50" d="m1980.91,271.25l-48.73,137.85-15.47,44.37c-2.6,7.48-9.63,12.55-17.62,12.61l-210.1,1.8c-10.39.06-17.68-10.14-14.26-19.9l12.68-36.32,47.87-130.24c2.92-8.37,10.58-14.01,19.39-14.39l214.38-11.81c8.49-.32,14.64,7.99,11.85,16.04Z"/><path class="cls-21" d="m1684.15,456.51c-.14,0-.28,0-.43-.21l13.06-37.99,49.43-134.47c1.06-3.04,3.63-4.93,6.62-5.06l217.92-12.01-49.12,138.94-16.02,45.96c-.62,1.77-2.3,2.97-4.19,2.98l-217.27,1.86Z"/><path class="cls-90" d="m1691.7,409.29l86.82-76.15,43.64,55.72,64.54-44.57,42.72,50.14-24.14,65.93s-231.12,6.41-228.85.88c2.27-5.53,15.27-51.96,15.27-51.96Z"/><ellipse class="cls-57" cx="1888.38" cy="306.09" rx="18.48" ry="13.54" transform="translate(189.03 1184.66) rotate(-36.55)"/><path class="cls-51" d="m1317.55,384.08l.03-.03-.16-.21c-.32-.49-.67-.93-1.05-1.37l-12.39-16.07-6.49,12.32-227.61,2.9c-8.8.35-16.49,6.05-19.39,14.36l-59.2,160.97-15.06,7.18,12.78,16.22c.62,1.01,1.34,1.93,2.18,2.77l.3.39h.04c2.66,2.49,6.23,4.07,10.29,4.03l235.15,1.64c7.95-.07,15-5.12,17.62-12.63l64.16-182.21c1.28-3.66.63-7.34-1.2-10.27Z"/><path class="cls-91" d="m1305.71,377.56l-48.73,137.85-15.47,44.37c-2.6,7.48-9.63,12.55-17.62,12.61l-235.12-1.63c-10.39.06-17.68-10.14-14.26-19.9l12.68-36.32,50.21-135.33c2.92-8.37,10.58-14.01,19.39-14.39l237.06-3.3c8.49-.32,14.64,7.99,11.85,16.04Z"/><path class="cls-80" d="m1214.97,658.92l.03-.03-.16-.21c-.32-.49-.67-.93-1.05-1.37l-12.39-16.07-6.49,12.32-227.61,2.9c-8.8.35-16.49,6.05-19.39,14.36l-59.2,160.97-15.06,7.18,12.78,16.22c.62,1.01,1.34,1.93,2.18,2.77l.3.39h.04c2.66,2.49,6.23,4.07,10.29,4.03l235.15,1.64c7.95-.07,15-5.12,17.62-12.63l64.16-182.21c1.28-3.66.63-7.34-1.2-10.27Z"/><path class="cls-104" d="m1203.13,652.4l-48.73,137.85-15.47,44.37c-2.6,7.48-9.63,12.55-17.62,12.61l-235.12-1.63c-10.39.06-17.68-10.14-14.26-19.9l12.68-36.32,50.21-135.33c2.92-8.37,10.58-14.01,19.39-14.39l237.06-3.3c8.49-.32,14.64,7.99,11.85,16.04Z"/><path class="cls-101" d="m2218.2,675.95l.03-.03-.16-.21c-.32-.49-.67-.93-1.06-1.37l-12.39-16.07-6.49,12.32-229.95,7.99c-8.8.35-16.49,6.05-19.39,14.36l-56.86,155.88-15.06,7.18,12.78,16.22c.62,1.01,1.34,1.93,2.18,2.77l.3.39h.04c2.67,2.49,6.23,4.07,10.29,4.03l235.15,1.64c7.95-.07,15-5.12,17.62-12.63l64.16-182.21c1.28-3.66.63-7.34-1.2-10.27Z"/><path class="cls-97" d="m2206.35,669.43l-48.73,137.85-15.47,44.37c-2.6,7.48-9.63,12.55-17.62,12.61l-235.12-1.63c-10.39.06-17.68-10.14-14.26-19.9l12.68-36.32,47.87-130.24c2.92-8.37,10.58-14.01,19.39-14.39l239.4-8.38c8.49-.32,14.64,7.99,11.85,16.04Z"/><path class="cls-112" d="m1671.59,359.63l-235.86,12.3c-2.34.12-4.13-1.7-3.98-4.04h0c.15-2.34,2.19-4.36,4.53-4.48l235.86-12.3c2.34-.12,4.13,1.7,3.98,4.04h0c-.15,2.34-2.19,4.36-4.53,4.48Z"/><path class="cls-112" d="m1662.02,388.93l-235.86,12.3c-2.34.12-4.13-1.7-3.98-4.04h0c.15-2.34,2.19-4.36,4.53-4.48l235.86-12.3c2.34-.12,4.13,1.7,3.98,4.04h0c-.15,2.34-2.19,4.36-4.53,4.48Z"/><path class="cls-112" d="m1652.45,418.24l-235.86,12.3c-2.34.12-4.13-1.7-3.98-4.04h0c.15-2.34,2.19-4.36,4.53-4.48l235.86-12.3c2.34-.12,4.13,1.7,3.98,4.04h0c-.15,2.34-2.19,4.36-4.53,4.48Z"/><path class="cls-112" d="m1642.88,447.54l-235.86,12.3c-2.34.12-4.13-1.7-3.98-4.04h0c.15-2.34,2.19-4.36,4.53-4.48l235.86-12.3c2.34-.12,4.13,1.7,3.98,4.04h0c-.15,2.34-2.19,4.36-4.53,4.48Z"/><path class="cls-112" d="m1633.32,476.84l-235.86,12.3c-2.34.12-4.13-1.7-3.98-4.04h0c.15-2.34,2.19-4.36,4.53-4.48l235.86-12.3c2.34-.12,4.13,1.7,3.98,4.04h0c-.15,2.34-2.19,4.36-4.53,4.48Z"/><path class="cls-112" d="m1829.7,561l-236.33,5.46c-2.34.05-4.14-1.82-3.98-4.16h0c.15-2.34,2.19-4.3,4.54-4.36l236.33-5.46c2.34-.05,4.14,1.82,3.98,4.16h0c-.15,2.34-2.19,4.3-4.54,4.36Z"/><path class="cls-112" d="m1820.11,590.08l-236.33,5.46c-2.34.05-4.14-1.82-3.98-4.16h0c.15-2.34,2.19-4.3,4.54-4.36l236.33-5.46c2.34-.05,4.14,1.82,3.98,4.16h0c-.15,2.34-2.19,4.3-4.54,4.36Z"/><path class="cls-112" d="m1810.53,619.16l-236.33,5.46c-2.34.05-4.14-1.82-3.98-4.16h0c.15-2.34,2.19-4.3,4.54-4.36l236.33-5.46c2.34-.05,4.14,1.82,3.98,4.16h0c-.15,2.34-2.19,4.3-4.54,4.36Z"/><path class="cls-112" d="m1800.94,648.24l-236.33,5.46c-2.34.05-4.14-1.82-3.98-4.16h0c.15-2.34,2.19-4.3,4.54-4.36l236.33-5.46c2.34-.05,4.14,1.82,3.98,4.16h0c-.15,2.34-2.19,4.3-4.54,4.36Z"/><path class="cls-112" d="m1791.36,677.32l-236.33,5.46c-2.34.05-4.14-1.82-3.98-4.16h0c.15-2.34,2.19-4.3,4.54-4.36l236.33-5.46c2.34-.05,4.14,1.82,3.98,4.16h0c-.15,2.34-2.19,4.3-4.54,4.36Z"/><path class="cls-112" d="m1523.43,563.73l-162.76,4.27c-2.34.05-4.14-1.82-3.98-4.16h0c.15-2.34,2.19-4.3,4.54-4.36l162.76-4.27c2.34-.05,4.14,1.82,3.98,4.16h0c-.15,2.34-2.19,4.3-4.54,4.36Z"/><path class="cls-112" d="m1513.85,592.81l-162.76,4.27c-2.34.05-4.14-1.82-3.98-4.16h0c.15-2.34,2.19-4.3,4.54-4.36l162.76-4.27c2.34-.05,4.14,1.82,3.98,4.16h0c-.15,2.34-2.19,4.3-4.54,4.36Z"/><path class="cls-112" d="m1504.26,621.89l-162.76,4.27c-2.34.05-4.14-1.82-3.98-4.16h0c.15-2.34,2.19-4.3,4.54-4.36l162.76-4.27c2.34-.05,4.14,1.82,3.98,4.16h0c-.15,2.34-2.19,4.3-4.54,4.36Z"/><path class="cls-112" d="m1494.68,650.97l-162.76,4.27c-2.34.05-4.14-1.82-3.98-4.16h0c.15-2.34,2.19-4.3,4.54-4.36l162.76-4.27c2.34-.05,4.14,1.82,3.98,4.16h0c-.15,2.34-2.19,4.3-4.54,4.36Z"/><path class="cls-112" d="m1485.09,680.05l-162.76,4.27c-2.34.05-4.14-1.82-3.98-4.16h0c.15-2.34,2.19-4.3,4.54-4.36l162.76-4.27c2.34-.05,4.14,1.82,3.98,4.16h0c-.15,2.34-2.19,4.3-4.54,4.36Z"/><path class="cls-36" d="m1518.56,517.38l491.61-26.36c11.75-.29,25.86,25.5,21.88,36.55l-51.13,141c-3.79,10.44-13.63,17.45-24.74,17.61l-492.82,7.1c-13.51.17-36.64-22.29-32.23-35.06l57.89-119.25c4.37-12.66,16.14-21.26,29.53-21.59Z"/><path class="cls-62" d="m1506.11,501.92l497.37-12.18c11.75-.29,20.11,11.32,16.13,22.37l-52.34,144.39c-3.34,9.2-12.03,15.38-21.82,15.49l-494.53,5.84c-13.51.17-23.1-13.12-18.69-25.89l44.36-128.42c4.37-12.66,16.14-21.26,29.53-21.59Z"/><g class="cls-118"><path class="cls-59" d="m1953.68,525.52l-278.07,8.53c-2.34.05-4.14-1.82-3.98-4.16h0c.15-2.34,2.19-4.3,4.54-4.36l278.07-8.53c2.34-.05,4.14,1.82,3.98,4.16h0c-.15,2.34-2.19,4.3-4.54,4.36Z"/><path class="cls-59" d="m1944.1,554.6l-278.08,8.53c-2.34.05-4.14-1.82-3.98-4.16h0c.15-2.34,2.19-4.3,4.54-4.36l278.08-8.53c2.34-.05,4.14,1.82,3.98,4.16h0c-.15,2.34-2.19,4.3-4.54,4.36Z"/><path class="cls-59" d="m1934.51,583.68l-278.07,8.53c-2.34.05-4.14-1.82-3.98-4.16h0c.15-2.34,2.19-4.3,4.54-4.36l278.08-8.53c2.34-.05,4.14,1.82,3.98,4.16h0c-.15,2.34-2.19,4.3-4.54,4.36Z"/><path class="cls-59" d="m1924.93,612.76l-278.08,8.53c-2.34.05-4.14-1.82-3.98-4.16h0c.15-2.34,2.19-4.3,4.54-4.36l278.08-8.53c2.34-.05,4.14,1.82,3.98,4.16h0c-.15,2.34-2.19,4.3-4.54,4.36Z"/><path class="cls-59" d="m1915.34,641.84l-278.08,8.53c-2.34.05-4.14-1.82-3.98-4.16h0c.15-2.34,2.19-4.3,4.54-4.36l278.08-8.53c2.34-.05,4.14,1.82,3.98,4.16h0c-.15,2.34-2.19,4.3-4.54,4.36Z"/></g><ellipse class="cls-114" cx="1549.5" cy="584.29" rx="62.63" ry="44.77" transform="translate(-36.57 1060.46) rotate(-37.37)"/><g class="cls-117"><path class="cls-11" d="m1537.01,592.97l-2.71,7.94s1.08,2.59,10.32,2.5c9.24-.09,11.2-2.11,11.2-2.11l3.47-10.18-22.29,1.85Z"/><path class="cls-40" d="m1579.39,558.97s-6.98,35.97-32.6,38.67h-1.07c-23.78-2.7-6.22-38.67-6.22-38.67h39.89Z"/><path class="cls-60" d="m1576.93,641.69h-94.03c4.37-5.16,12.45-27.33,21.34-34.16,2.23-1.71,3.73-3.44,5.13-4.14,5.5-2.89,15.57-3.84,21.3-4.16,2.26-.12,3.84-.15,4.25-.15h.08s-1.17,1.55,2.79,3.09c.79.32,2.98.5,5.42.52h.05c3.33.07,7.1-.1,8.4-.52,3.51-1.07,4.5-2.17,4.8-2.74.05-.07.08-.15.09-.2.03-.1.05-.15.05-.15,0,0,.62,0,1.69.02,4.51.15,16.82.87,21.02,4.29.9.7,1.6,2.19,2.22,4.14.49,1.42-2.31,24.02-4.62,34.16Z"/><path class="cls-83" d="m1583.42,555.34s.05-.01.05-.02c.01-.41,2.71-12.57-14.53-13.31-17.23-.73-23.5,8.17-23.5,8.17,0,0-7.77-.41-12.03,12.51-4.26,12.93-.2,16.35-.2,16.35,0,0,1.07-7.35,3-7.41,1.93-.06-1.89,7.22-.52,6.67,1.37-.55,6.04-7.4,7.06-14.03,0,0,10.75,2.61,19.58,1.22,8.82-1.39,7.92,3.17,7.19,7.15-.73,3.98-2.29,8.97.01,5.65,2.3-3.31,3.14-6.92,4.99-6.47,1.86.45-5.29,8.03-3.12,7.55,1.54-.34,11.88-14.48,12.01-24.05Z"/><path class="cls-33" d="m1535,599.08l8.23,3.62-9.03,4.52-3.61-8.13s2.45-2.19,4.42,0Z"/><path class="cls-33" d="m1553.93,599.08l-10.7,3.62,5.95,4.52,9.16-8.13s-.96-2.19-4.42,0Z"/><polygon class="cls-59" points="1523.81 641.69 1538.78 606.14 1537.76 605.42 1541.9 603.35 1541.92 603.35 1543.2 602.7 1543.25 602.7 1544.17 603.42 1544.19 603.42 1546.81 605.42 1545.33 606.14 1536.03 641.69 1523.81 641.69"/><polygon class="cls-26" points="1492.38 641.69 1501.93 622.19 1496.17 641.69 1492.38 641.69"/><polygon class="cls-26" points="1564.7 641.69 1570.3 623.82 1568.96 641.69 1564.7 641.69"/></g><polygon class="cls-3" points="1607.45 518.33 1606.5 521.1 1632.89 521.1 1624.02 547.09 1627.38 547.09 1637.19 518.33 1607.45 518.33"/><polygon class="cls-3" points="1539.63 518.33 1538.69 521.1 1512.3 521.1 1503.43 547.09 1500.07 547.09 1509.88 518.33 1539.63 518.33"/><polygon class="cls-3" points="1562.44 650.25 1563.38 647.48 1589.77 647.48 1598.64 621.49 1602 621.49 1592.18 650.25 1562.44 650.25"/><polygon class="cls-3" points="1494.62 650.25 1495.57 647.48 1469.18 647.48 1478.05 621.49 1474.69 621.49 1464.88 650.25 1494.62 650.25"/><polygon class="cls-3" points="1119.19 412.64 1084.48 507.05 1168.92 460.83 1119.19 412.64"/><path class="cls-111" d="m1420.64,119.69l-60.06,171.08c-1.89,5.38-5.32,10.32-9.62,14.39-5.77,5.67-13.23,9.45-20.14,9.45h-252.86c-5.87,0-10.17-2.62-12.55-6.98-2.43-4.22-2.77-10.32-.47-16.86l60.06-171.08c2.6-7.41,8.08-14.1,14.44-18.46,4.82-3.34,10.23-5.38,15.32-5.38h252.86c6,0,10.51,2.76,12.71,7.27,2.25,4.36,2.56,10.17.31,16.57Z"/><path class="cls-1" d="m1350.96,305.16c-5.77,5.67-13.23,9.45-20.14,9.45h-252.86c-5.87,0-10.17-2.62-12.55-6.98l134.99-101.46,47.14-35.47,24.79,32.27,78.62,102.18Z"/><path class="cls-75" d="m1420.33,103.12l-147.99,99.86-53.11,35.76-18.82-32.56-60.96-104.95c4.82-3.34,10.23-5.38,15.32-5.38h252.86c6,0,10.51,2.76,12.71,7.27Z"/><path class="cls-3" d="m2093.6,754.38c3.9-11.28-1.76-20.42-12.61-21.14l13.4-38.81c2.1-6.07-4.07-9.21-9.93-5.06l-57.7,40.89h-36.03c-5.59,0-11.7,4.54-13.63,10.13h0c-.74-.1-1.45-.24-2.25-.24-10.31,0-21.56,8.36-25.12,18.67-3.56,10.31,1.91,18.67,12.22,18.67.8,0,1.61-.14,2.42-.24h0c-1.93,5.6,1.04,10.13,6.63,10.13h36.03l29.46,40.89c2.99,4.16,11.33,1.01,13.43-5.06l16.47-47.7c11.35-.72,23.31-9.86,27.2-21.14Z"/><path class="cls-3" d="m2096.01,777.85l-4.41-4.37c6.03-5.57,10.49-12.17,12.88-19.1,2.97-8.59,2.41-16.66-1.57-22.74l7-5.2c4.89,7.46,5.57,17.39,1.93,27.94-2.94,8.52-8.42,16.63-15.83,23.47Z"/><path class="cls-3" d="m2105.11,786.71l-4.42-4.37c8.81-8.14,15.32-17.81,18.82-27.96,3.97-11.51,3.61-22.59-1.01-31.2l7.2-4.87c5.35,9.96,5.76,22.77,1.17,36.07-4.05,11.73-11.58,22.9-21.76,32.33Z"/><path class="cls-3" d="m2113.06,794.78l-4.4-4.38c11.37-10.48,19.77-22.93,24.29-36.02,4.79-13.88,4.74-26.93-.15-37.75l7.34-4.58c5.48,12.14,5.54,26.77.17,42.33-5.07,14.67-14.49,28.64-27.25,40.4Z"/><path class="cls-59" d="m969.56,688.34c-18.34,16.45-19.88,44.65-3.44,62.99,16.44,18.34,44.65,19.86,62.99,3.41,18.34-16.45,19.88-44.65,3.44-62.99-16.44-18.34-44.65-19.86-62.99-3.41Zm55.85,62.27c-16.06,14.4-40.75,13.07-55.15-2.99-14.4-16.05-13.05-40.74,3.01-55.15,16.06-14.4,40.75-13.07,55.15,2.99,14.4,16.05,13.05,40.74-3.01,55.15Z"/><path class="cls-59" d="m1018.92,752.61h22.55v6.09c0,.33-.27.6-.6.6h-21.36c-.33,0-.6-.27-.6-.6v-6.09h0Z" transform="translate(-241.46 881.04) rotate(-41.89)"/><rect class="cls-59" x="1039.83" y="753.59" width="10.53" height="37.92" transform="translate(-248.74 895.22) rotate(-41.89)"/><rect class="cls-59" x="1069.61" y="775.77" width="18.31" height="68.67" rx=".82" ry=".82" transform="translate(-265.21 927.3) rotate(-41.89)"/><ellipse class="cls-71" cx="999.34" cy="721.54" rx="39.06" ry="39.04" transform="translate(-226.49 850.59) rotate(-41.84)"/><ellipse class="cls-45" cx="1596.81" cy="183.46" rx="132.82" ry="94.27" transform="translate(121.15 820.55) rotate(-29.91)"/><ellipse class="cls-42" cx="1585.99" cy="170.71" rx="132.82" ry="94.27" transform="translate(126.07 813.46) rotate(-29.91)"/><polygon class="cls-3" points="1535.19 144.65 1538.46 211.05 1674.43 156.44 1668.22 139.68 1567.52 175.36 1568.37 129.75 1535.19 144.65"/><polygon class="cls-16" points="2132 121.88 1834.52 129.2 1881.96 7.32 2179.43 0 2132 121.88"/><path class="cls-25" d="m2142.59,23.36l-225.6,5.55c-1.58.04-2.36-1.22-1.75-2.81h0c.62-1.58,2.41-2.91,3.99-2.95l225.6-5.55c1.58-.04,2.36,1.22,1.75,2.81h0c-.62,1.58-2.41,2.91-3.99,2.95Z"/><path class="cls-25" d="m2136.38,39.32l-247.41,6.09c-1.58.04-2.36-1.22-1.75-2.81h0c.62-1.58,2.41-2.91,3.99-2.95l247.41-6.09c1.58-.04,2.36,1.22,1.75,2.81h0c-.62,1.58-2.41,2.91-3.99,2.95Z"/><path class="cls-25" d="m2130.17,55.28l-247.41,6.09c-1.58.04-2.36-1.22-1.75-2.81h0c.62-1.58,2.41-2.91,3.99-2.95l247.41-6.09c1.58-.04,2.36,1.22,1.75,2.81h0c-.62,1.58-2.41,2.91-3.99,2.95Z"/><path class="cls-25" d="m2123.95,71.24l-247.41,6.09c-1.58.04-2.36-1.22-1.75-2.81h0c.62-1.58,2.41-2.91,3.99-2.95l247.41-6.09c1.58-.04,2.36,1.22,1.75,2.81h0c-.62,1.58-2.41,2.91-3.99,2.95Z"/><path class="cls-25" d="m2117.74,87.19l-247.41,6.09c-1.58.04-2.36-1.22-1.75-2.81h0c.62-1.58,2.41-2.91,3.99-2.95l247.41-6.09c1.58-.04,2.36,1.22,1.75,2.81h0c-.62,1.58-2.41,2.91-3.99,2.95Z"/><path class="cls-25" d="m2111.53,103.15l-247.41,6.09c-1.58.04-2.36-1.22-1.75-2.81h0c.62-1.58,2.41-2.91,3.99-2.95l247.41-6.09c1.58-.04,2.36,1.22,1.75,2.81h0c-.62,1.58-2.41,2.91-3.99,2.95Z"/><path class="cls-22" d="m1836.93,54.46l82.58-2.03c7.06-.17,11.81,6.32,9.68,13.25l-10.28,33.49c-2.13,6.93,2.62,13.42,9.68,13.25l223.93-5.51c7.23-.18,11.98,6.62,9.55,13.65l-33.74,97.37c-1.65,4.76-6.17,8.13-11.06,8.25l-335.63,8.26c-7.2.18-11.96-6.57-9.57-13.58l53.78-158.06c1.63-4.79,6.17-8.19,11.08-8.31Z"/><polygon class="cls-52" points="1317.49 839.3 1373.34 875.88 1639.86 875.88 1593.48 837.4 1317.49 839.3"/><rect class="cls-99" x="1249.04" y="875.88" width="493.04" height="29.52"/><path class="cls-70" d="m1721.01,1493.02l62.83,396.74c0,8.81,51.01,15.96,113.94,15.96s113.94-7.14,113.94-15.96l62.83-396.74h-353.53Z"/><ellipse class="cls-102" cx="1897.77" cy="1493.02" rx="176.76" ry="24.75"/><path class="cls-88" d="m2320,1173.73s-154.05-.16-236.98,128.56c-86.07,133.61-84.54,211.35-84.54,211.35l-59.03,4.13s-42.39-39.8,0-128.16c42.39-88.36,209.99-275.6,380.55-215.88Z"/><path class="cls-84" d="m1897.77,1517.77s2.19-206.84,136.3-313.36c134.11-106.52,285.93-30.68,285.93-30.68,0,0-146.9-20.16-250.41,66.99-103.52,87.15-130.14,277.05-130.14,277.05h-41.68Z"/><path class="cls-85" d="m1910.81,1517.72l-45.46-1.14-42.57-1.14s-6.48-82.38-56.91-167.17c-50.55-84.79-145.29-165.61-145.29-165.61,0,0,90.11-8.95,194.92,94.74,104.69,103.68,95.32,240.32,95.32,240.32Z"/><path class="cls-61" d="m1910.81,1517.72l-45.46-1.14c-7.17-41.9-24.29-105.1-64.66-176.55-72.53-128.54-180.11-157.37-180.11-157.37,0,0,90.11-8.95,194.92,94.74,104.69,103.68,95.32,240.32,95.32,240.32Z"/><path class="cls-95" d="m1964.84,1515.88l-28.69.43-60.96.99s-8.91-200.12-61.77-355.22c-52.87-155.24-109.9-178.11-109.9-178.11h1.5c14.34,0,130.02,5.4,206.03,178.25,80.98,184.5,53.79,353.66,53.79,353.66Z"/><path class="cls-69" d="m1964.84,1515.88l-28.69.43c-1.04-76.56-12.49-204.53-67.33-333.78-79.7-187.91-152.47-198.14-163.8-198.56,14.34,0,130.02,5.4,206.03,178.25,80.98,184.5,53.79,353.66,53.79,353.66Z"/><path class="cls-81" d="m1946.25,1517.3s19.56-155.61,149.41-189.53c129.85-33.92,186.02,79.15,186.02,79.15,0,0-82.88-33.92-157.47-10.18-74.59,23.74-93.98,112.65-93.98,112.65l-83.98,7.9Z"/><path class="cls-56" d="m1865.35,1516.59s-21.45-88.53-90.61-123.56c-69.17-35.03-124.5,0-124.5,0,0,0,57.06,1.06,102.02,38.22,44.96,37.15,56.2,85.06,56.2,85.06l56.89.28Z"/><path class="cls-58" d="m702.1,1759s110.55,5.64,121.74,25.21-159.35,95.32-197.55,64.95c-38.2-30.37-17.95-98.55-17.95-98.55l93.75,8.4Z"/><path class="cls-105" d="m566.36,1378.73l18.95,346.81s-9.48,58.58,45.48,58.66,71.3-25.21,71.3-25.21l7.07-444.99-142.81,64.72Z"/><path class="cls-17" d="m363.9,1203.91s-52.94,160.64,35.76,189.56c88.7,28.92,241.03,15.43,345.15,0,104.12-15.43,163.9-50.13,163.9-50.13l15.43,411.93s27,27,59.77,23.14,59.77-19.28,59.77-19.28c0,0,49.98-637.53,12.46-651.03-37.52-13.5-346.98-40.49-346.98-40.49l-345.27,136.31Z"/><path class="cls-38" d="m629.92,269.12s17.03,47.15,13.1,55.66c-3.93,8.51-9.82,12.44-9.82,12.44,0,0,17.03,19.65,15.06,38.64-1.96,18.99-1.96,92.99-18.34,99.54-16.37,6.55-48.46-5.89-49.77,0-1.31,5.89,0,37.98,0,37.98h-131.63l-8.51-117.22s64.18-162.4,72.69-162.4,117.22,35.36,117.22,35.36Z"/><path class="cls-64" d="m655.46,207.56c2.62,61.56-26.85,81.2-51.08,85.79-24.23,4.58-28.81-3.93-28.81-3.93,0,0,16.37,34.05,9.82,56.97-6.55,22.92-1.96,30.78-6.55,32.09s-4.58-39.29-21.61-43.88c-17.03-4.58-20.3,15.72-9.82,36.02,10.48,20.3.65,41.26-59.59,56.97-60.25,15.72-62.87,13.1-111.98-40.6-49.11-53.7,4.58-134.25,4.58-134.25,0,0-17.68-70.07,93.64-64.83,111.33,5.24,181.4,19.65,181.4,19.65Z"/><path class="cls-63" d="m401.6,501.29l210.68,6.66,40.22,33.81s100.81,4.31,117.26,22.59c16.45,18.28,104.19,385.7,104.19,385.7l149.89-14.62s25.59,7.31,31.08,32.9c5.48,25.59-9.14,53.01-9.14,53.01,0,0-192.27,41.48-225.17,30.51-32.9-10.97-59.99-99.98-59.99-99.98v249.6s-79.17,69.46-241.58,51.18c-162.4-18.28-178.86-76.77-178.86-76.77v-309.75s5.48,136.93-16.45,131.45c-21.94-5.48-89.57,31.08-93.23-74.95-3.66-106.02,9.14-325.01,27.42-338.9,18.28-13.89,127.96-41.31,127.96-41.31l15.72-41.12Z"/><path class="cls-92" d="m931.04,1761.13s-17.77,79.52-6.69,88.39c11.08,8.86,47.64,25.86,98.6,14.59,50.96-11.27,172.83-25.93,177.26-49.62,4.43-23.69-105.25-28.88-121.86-35.7-16.62-6.82-34.65-19.66-34.65-19.66,0,0-87.12,21.08-112.65,2.01Z"/><path class="cls-29" d="m760.61,951.88l-60.04-187.52s13.43,345.65,16.12,386.74c2.69,41.09-22.12,85.04-22.12,85.04l66.04-34.66v-249.6Z"/><polygon class="cls-46" points="297.84 856.1 309.65 669.47 348.23 854.58 297.84 856.1"/><path class="cls-103" d="m738.26,1917.49h-30.91l-18.67-40.55-199.69-15.42-19.71,48.71v60.07s-11.78,22.61-19.26,25.16c-7.48,2.55-21.91-85.23-21.1-89.29.81-4.06,10.03-44.65,10.03-44.65l-214.6,22.73s-17.86,32.11-27.6,36.75c-9.74,4.65-42.38-.89-42.38-.89l44.82-69.95,239.76-40.59,293.57,42.21,5.75,65.71Z"/><path class="cls-82" d="m162.66,1851.98c1.57-4.84,5.71-8.4,10.73-9.21l222-36,65.31-7.59c1.04-.12,2.09-.12,3.13,0l65.31,7.59,222,36c5.02.81,9.17,4.37,10.73,9.21l16.59,51.28c2.83,8.76-3.7,17.74-12.9,17.74h-18.43c-5.75,0-10.87-3.62-12.79-9.04l-14.21-40.14c-1.72-4.86-6.05-8.32-11.17-8.94l-222.49-26.76c-6.5-.78-12.63,3.19-14.57,9.44l-15.21,48.96c-.4,1.3-.61,2.66-.61,4.02v85.89c0,7.49-6.07,13.56-13.56,13.56h-11.83c-7.49,0-13.56-6.07-13.56-13.56v-88.03c0-1.4.22-2.79.64-4.12l11.4-35.76c3-9.41-4.74-18.77-14.54-17.59l-199.08,23.94c-5.12.62-9.45,4.08-11.17,8.94l-14.21,40.14c-1.92,5.42-7.04,9.04-12.79,9.04h-18.43c-9.21,0-15.74-8.98-12.9-17.74l16.59-51.28Z"/><path class="cls-48" d="m.43,784.76l70.78,597.38c4.44,37.98,36.75,66.6,74.98,66.6h711.77c20.74,0,37.55-16.81,37.55-37.55v-18.36c0-18.3-14.83-33.13-33.13-33.13h-229.8c-24.17,0-44.39-17.76-47.6-41.44l-69.56-514.51c-6.9-51.3-50.81-89.78-102.6-89.78H63.32c-31.82,0-57.47,23.18-62.4,52.54-.99,5.92-1.23,12.09-.49,18.25Z"/><path class="cls-15" d="m.43,784.76l70.78,597.38c4.44,37.98,36.75,66.6,74.98,66.6h696.53s0-37,0-37h-262.92c-24.17,0-44.4-17.76-47.6-41.68l-69.55-514.26c-6.91-51.55-50.81-90.03-102.61-90.03H10.54c-3.2,0-6.41.24-9.62.74-.99,5.92-1.23,12.09-.49,18.25Z"/><path class="cls-100" d="m354.31,1448.73h233.03c.5,0,.91.41.91.91v64.94h-234.85v-64.94c0-.5.41-.91.91-.91Z" transform="translate(941.65 2963.32) rotate(-180)"/><rect class="cls-77" x="438.94" y="1514.58" width="60.66" height="271.97" transform="translate(938.54 3301.14) rotate(-180)"/><path class="cls-107" d="m395.4,1738.02h133.76v70.39c0,.64-.52,1.16-1.16,1.16h-131.44c-.64,0-1.16-.52-1.16-1.16v-70.39h0Z" transform="translate(924.54 3547.58) rotate(-180)"/><path class="cls-37" d="m1042.52,950.22s66.84-38.35,90.41-33.83c23.57,4.51,73.72,39.12,73.72,46.14s-56.7-2.94-72.48.03c-15.79,2.98-12.78,16.28-22.81,27.59-10.03,11.31-59.6,21.05-59.6,21.05,0,0,10.81-35.96-9.25-60.98Z"/></svg>