<?xml version="1.0" encoding="UTF-8"?><svg id="Layer_4" xmlns="http://www.w3.org/2000/svg" xmlns:xlink="http://www.w3.org/1999/xlink" viewBox="0 0 1873.99 2038.81"><defs><style>.cls-1{fill:url(#linear-gradient-38);}.cls-1,.cls-2,.cls-3,.cls-4,.cls-5,.cls-6,.cls-7,.cls-8,.cls-9,.cls-10,.cls-11,.cls-12,.cls-13,.cls-14,.cls-15,.cls-16,.cls-17,.cls-18,.cls-19,.cls-20,.cls-21,.cls-22,.cls-23,.cls-24,.cls-25,.cls-26,.cls-27,.cls-28,.cls-29,.cls-30,.cls-31,.cls-32,.cls-33,.cls-34,.cls-35,.cls-36,.cls-37,.cls-38,.cls-39,.cls-40,.cls-41,.cls-42,.cls-43,.cls-44,.cls-45,.cls-46,.cls-47,.cls-48,.cls-49,.cls-50,.cls-51,.cls-52,.cls-53,.cls-54,.cls-55,.cls-56,.cls-57,.cls-58,.cls-59,.cls-60,.cls-61,.cls-62,.cls-63,.cls-64,.cls-65,.cls-66,.cls-67,.cls-68,.cls-69,.cls-70,.cls-71,.cls-72,.cls-73,.cls-74,.cls-75,.cls-76,.cls-77,.cls-78,.cls-79,.cls-80,.cls-81,.cls-82,.cls-83,.cls-84,.cls-85,.cls-86,.cls-87,.cls-88,.cls-89,.cls-90,.cls-91,.cls-92,.cls-93,.cls-94,.cls-95,.cls-96,.cls-97,.cls-98,.cls-99,.cls-100,.cls-101,.cls-102,.cls-103,.cls-104,.cls-105,.cls-106,.cls-107,.cls-108,.cls-109,.cls-110,.cls-111,.cls-112,.cls-113,.cls-114,.cls-115,.cls-116,.cls-117,.cls-118,.cls-119,.cls-120,.cls-121,.cls-122,.cls-123,.cls-124,.cls-125,.cls-126,.cls-127,.cls-128,.cls-129,.cls-130,.cls-131,.cls-132,.cls-133,.cls-134,.cls-135,.cls-136,.cls-137,.cls-138,.cls-139,.cls-140,.cls-141,.cls-142,.cls-143,.cls-144,.cls-145,.cls-146,.cls-147,.cls-148,.cls-149,.cls-150,.cls-151,.cls-152,.cls-153,.cls-154,.cls-155,.cls-156,.cls-157,.cls-158,.cls-159,.cls-160,.cls-161,.cls-162,.cls-163,.cls-164,.cls-165,.cls-166,.cls-167,.cls-168{stroke-width:0px;}.cls-2{opacity:.21;}.cls-2,.cls-4,.cls-11,.cls-15,.cls-20,.cls-22,.cls-23,.cls-27,.cls-29,.cls-42,.cls-43,.cls-47,.cls-53,.cls-66,.cls-67,.cls-69,.cls-87,.cls-90,.cls-92,.cls-99,.cls-108,.cls-116,.cls-119,.cls-128,.cls-131,.cls-152,.cls-157,.cls-163{fill:#02040f;}.cls-3{fill:url(#linear-gradient-12);}.cls-4{opacity:.02;}.cls-5{fill:url(#linear-gradient-127);}.cls-6{fill:url(#linear-gradient-17);}.cls-7{fill:url(#linear-gradient-132);}.cls-8{fill:url(#linear-gradient-88);}.cls-9{fill:url(#linear-gradient-19);}.cls-10{fill:url(#linear-gradient-33);}.cls-11{opacity:.45;}.cls-12{fill:url(#linear-gradient);}.cls-13{fill:url(#linear-gradient-62);}.cls-14{fill:url(#linear-gradient-92);}.cls-15{opacity:.17;}.cls-16{opacity:.27;}.cls-16,.cls-156{fill:#525575;}.cls-17{fill:url(#linear-gradient-98);}.cls-18{fill:url(#linear-gradient-67);}.cls-19{fill:url(#linear-gradient-57);}.cls-20{opacity:.39;}.cls-169{stroke:#898989;}.cls-169,.cls-170,.cls-171,.cls-172{fill:none;stroke-miterlimit:10;}.cls-169,.cls-171{stroke-width:4px;}.cls-21{fill:url(#linear-gradient-21);}.cls-22{opacity:.52;}.cls-23{opacity:.24;}.cls-24{fill:url(#linear-gradient-6);}.cls-25{fill:#f35825;}.cls-26{fill:url(#linear-gradient-76);}.cls-27{opacity:.19;}.cls-28{fill:url(#linear-gradient-124);}.cls-29{opacity:.47;}.cls-30{fill:url(#linear-gradient-42);}.cls-170{stroke:#fff;stroke-linecap:round;stroke-width:6px;}.cls-173{opacity:.2;}.cls-31{fill:url(#linear-gradient-104);}.cls-171{stroke:#b7b7b7;}.cls-32{fill:url(#linear-gradient-95);}.cls-33{fill:#2f655f;}.cls-34{fill:url(#linear-gradient-15);}.cls-35{fill:url(#linear-gradient-11);}.cls-36{fill:url(#linear-gradient-106);}.cls-37{fill:url(#linear-gradient-101);}.cls-38{fill:url(#linear-gradient-81);}.cls-39{fill:url(#linear-gradient-56);opacity:.5;}.cls-40{fill:url(#linear-gradient-73);}.cls-41{fill:url(#linear-gradient-91);}.cls-42{opacity:.3;}.cls-43{opacity:.13;}.cls-44{fill:url(#linear-gradient-5);}.cls-45{fill:url(#linear-gradient-133);}.cls-46{fill:url(#linear-gradient-31);}.cls-47{opacity:.11;}.cls-48{fill:url(#linear-gradient-103);}.cls-49{fill:url(#linear-gradient-71);}.cls-50{fill:url(#linear-gradient-58);}.cls-51{fill:#686868;}.cls-52{fill:url(#linear-gradient-63);}.cls-53{opacity:.28;}.cls-54{fill:url(#linear-gradient-34);}.cls-55{fill:url(#linear-gradient-122);}.cls-56{fill:url(#linear-gradient-96);}.cls-57{fill:url(#linear-gradient-130);}.cls-58{fill:url(#linear-gradient-120);}.cls-59{fill:url(#linear-gradient-41);}.cls-60{fill:url(#linear-gradient-89);}.cls-61{fill:url(#linear-gradient-40);}.cls-62{fill:url(#linear-gradient-66);}.cls-63{fill:url(#linear-gradient-126);}.cls-64{fill:url(#linear-gradient-13);}.cls-65{fill:url(#linear-gradient-23);}.cls-66{opacity:.26;}.cls-67{opacity:.37;}.cls-68{fill:url(#linear-gradient-25);}.cls-69{opacity:.15;}.cls-174{opacity:.4;}.cls-70{fill:url(#linear-gradient-43);}.cls-71{fill:url(#linear-gradient-16);}.cls-72{fill:url(#linear-gradient-22);}.cls-73{fill:url(#linear-gradient-54);}.cls-74{fill:url(#linear-gradient-55);}.cls-75{fill:#fff;}.cls-76{fill:url(#linear-gradient-110);}.cls-77{fill:url(#linear-gradient-35);}.cls-175{opacity:.3;}.cls-78{fill:url(#linear-gradient-50);}.cls-79{fill:url(#linear-gradient-32);}.cls-80{fill:url(#linear-gradient-60);}.cls-81{fill:url(#linear-gradient-59);}.cls-82{fill:url(#linear-gradient-20);}.cls-83{fill:url(#linear-gradient-14);}.cls-84{fill:url(#linear-gradient-2);}.cls-85{fill:url(#linear-gradient-52);}.cls-86{fill:url(#linear-gradient-45);}.cls-87{opacity:.34;}.cls-88{fill:url(#linear-gradient-93);}.cls-89{fill:url(#linear-gradient-7);}.cls-90{opacity:.56;}.cls-176{opacity:.26;}.cls-91{fill:url(#linear-gradient-39);}.cls-92{opacity:.32;}.cls-93{fill:url(#linear-gradient-3);}.cls-94{fill:url(#linear-gradient-77);}.cls-95{fill:url(#linear-gradient-119);}.cls-96{fill:url(#linear-gradient-69);}.cls-97{fill:url(#linear-gradient-125);}.cls-98{fill:url(#linear-gradient-94);}.cls-99{opacity:.49;}.cls-100{fill:url(#linear-gradient-9);}.cls-101{fill:url(#linear-gradient-27);}.cls-102{fill:url(#linear-gradient-134);}.cls-103{fill:url(#linear-gradient-100);}.cls-104{fill:url(#linear-gradient-131);}.cls-105{fill:url(#linear-gradient-82);}.cls-106{fill:url(#linear-gradient-105);}.cls-107{fill:url(#linear-gradient-83);}.cls-108{opacity:.58;}.cls-109{fill:url(#linear-gradient-53);}.cls-110{fill:url(#linear-gradient-90);}.cls-111{fill:url(#linear-gradient-117);}.cls-112{fill:url(#linear-gradient-85);}.cls-113{fill:url(#linear-gradient-65);}.cls-114{fill:url(#linear-gradient-36);}.cls-115{fill:url(#linear-gradient-48);}.cls-116{opacity:.41;}.cls-117{fill:url(#linear-gradient-49);}.cls-118{fill:url(#linear-gradient-8);}.cls-119{opacity:.54;}.cls-120{fill:url(#linear-gradient-47);}.cls-121{fill:url(#linear-gradient-24);}.cls-122{fill:url(#linear-gradient-26);}.cls-123{fill:url(#linear-gradient-61);}.cls-124{fill:url(#linear-gradient-114);}.cls-125{fill:url(#linear-gradient-18);}.cls-126{fill:url(#linear-gradient-51);}.cls-127{fill:url(#linear-gradient-30);}.cls-128{opacity:0;}.cls-129{fill:url(#linear-gradient-121);}.cls-172{stroke:#6986ca;stroke-width:7px;}.cls-130{fill:url(#linear-gradient-44);}.cls-131{opacity:.09;}.cls-132{fill:url(#linear-gradient-84);}.cls-133{fill:url(#linear-gradient-97);}.cls-134{fill:url(#linear-gradient-68);}.cls-135{fill:url(#linear-gradient-129);}.cls-136{fill:url(#linear-gradient-72);}.cls-137{fill:url(#linear-gradient-29);}.cls-138{fill:url(#linear-gradient-46);}.cls-139{fill:url(#linear-gradient-64);}.cls-140{fill:url(#linear-gradient-107);}.cls-141{fill:url(#linear-gradient-109);}.cls-142{fill:url(#linear-gradient-113);}.cls-143{fill:url(#linear-gradient-28);}.cls-144{fill:url(#linear-gradient-99);}.cls-145{fill:url(#linear-gradient-10);}.cls-146{fill:url(#linear-gradient-87);}.cls-147{fill:url(#linear-gradient-70);}.cls-148{fill:url(#linear-gradient-78);}.cls-149{fill:url(#linear-gradient-86);}.cls-177{opacity:.17;}.cls-150{fill:url(#linear-gradient-74);}.cls-151{fill:url(#linear-gradient-102);}.cls-152{opacity:.43;}.cls-153{fill:url(#linear-gradient-4);}.cls-154{fill:url(#linear-gradient-118);}.cls-155{fill:url(#linear-gradient-112);}.cls-157{opacity:.06;}.cls-158{fill:url(#linear-gradient-123);}.cls-159{fill:url(#linear-gradient-128);}.cls-160{fill:url(#linear-gradient-37);}.cls-161{fill:url(#linear-gradient-80);}.cls-162{fill:url(#linear-gradient-115);}.cls-163{opacity:.04;}.cls-164{fill:url(#linear-gradient-116);}.cls-165{fill:url(#linear-gradient-79);}.cls-166{fill:url(#linear-gradient-111);}.cls-167{fill:url(#linear-gradient-108);}.cls-168{fill:url(#linear-gradient-75);}</style><linearGradient id="linear-gradient" x1="9970.2" y1="1628.96" x2="9805.87" y2="1292.18" gradientTransform="translate(11342.44) rotate(-180) scale(1 -1)" gradientUnits="userSpaceOnUse"><stop offset="0" stop-color="#ffac06"/><stop offset="1" stop-color="#f66c1e"/></linearGradient><linearGradient id="linear-gradient-2" x1="9799.28" y1="1724.94" x2="9691.64" y2="1504.35" gradientTransform="translate(11342.44) rotate(-180) scale(1 -1)" gradientUnits="userSpaceOnUse"><stop offset="0" stop-color="#cfd0d1"/><stop offset="1" stop-color="#eaebec"/></linearGradient><linearGradient id="linear-gradient-3" x1="9579.03" y1="1548.09" x2="9584.67" y2="1548.09" xlink:href="#linear-gradient"/><linearGradient id="linear-gradient-4" x1="10091.82" y1="1612.76" x2="10045.18" y2="1517.17" xlink:href="#linear-gradient-2"/><linearGradient id="linear-gradient-5" x1="9970.2" y1="1628.96" x2="9805.87" y2="1292.18" gradientTransform="translate(11342.44) rotate(-180) scale(1 -1)" gradientUnits="userSpaceOnUse"><stop offset="0" stop-color="#fff"/><stop offset="1" stop-color="#fa8714"/></linearGradient><linearGradient id="linear-gradient-6" x1="422.88" y1="910.11" x2="1185.12" y2="910.11" gradientUnits="userSpaceOnUse"><stop offset="0" stop-color="#4c6fbf"/><stop offset="1" stop-color="#3b4382"/></linearGradient><linearGradient id="linear-gradient-7" x1="1086.33" y1="1225.95" x2="580.7" y2="565.94" gradientUnits="userSpaceOnUse"><stop offset="0" stop-color="#4c6fbf"/><stop offset="1" stop-color="#8ca3d8"/></linearGradient><linearGradient id="linear-gradient-8" x1="634.31" y1="1319.89" x2="1215.04" y2="1319.89" xlink:href="#linear-gradient-6"/><linearGradient id="linear-gradient-9" x1="538.72" y1="920.19" x2="1276.9" y2="920.19" xlink:href="#linear-gradient-6"/><linearGradient id="linear-gradient-10" x1="950.62" y1="1189.34" x2="904.75" y2="634.56" gradientUnits="userSpaceOnUse"><stop offset="0" stop-color="#fff"/><stop offset="1" stop-color="#eaebec"/></linearGradient><linearGradient id="linear-gradient-11" x1="726.09" y1="1284.14" x2="1296.69" y2="1284.14" xlink:href="#linear-gradient-6"/><linearGradient id="linear-gradient-12" x1="903.38" y1="424.14" x2="903.38" y2="549.44" gradientUnits="userSpaceOnUse"><stop offset="0" stop-color="#d2d0d1"/><stop offset=".98" stop-color="#f6f7f7"/></linearGradient><linearGradient id="linear-gradient-13" x1="526.71" y1="416.4" x2="490.41" y2="1535.06" gradientUnits="userSpaceOnUse"><stop offset="0" stop-color="#cac7c8"/><stop offset=".98" stop-color="#f6f7f7"/></linearGradient><linearGradient id="linear-gradient-14" x1="1181.19" y1="737.27" x2="1181.19" y2="723.13" gradientTransform="translate(-475.75) skewX(13.24)" xlink:href="#linear-gradient-13"/><linearGradient id="linear-gradient-15" x1="1130.21" y1="772.76" x2="1130.21" y2="758.62" gradientTransform="translate(-475.75) skewX(13.24)" xlink:href="#linear-gradient-13"/><linearGradient id="linear-gradient-16" x1="1096.91" y1="808.25" x2="1096.91" y2="794.11" gradientTransform="translate(-475.75) skewX(13.24)" xlink:href="#linear-gradient-13"/><linearGradient id="linear-gradient-17" x1="1212.06" y1="824.75" x2="1212.06" y2="785.63" gradientTransform="translate(-475.75) skewX(13.24)" xlink:href="#linear-gradient-7"/><linearGradient id="linear-gradient-18" x1="1276.24" y1="824.75" x2="1276.24" y2="785.63" gradientTransform="translate(-475.75) skewX(13.24)" xlink:href="#linear-gradient-7"/><linearGradient id="linear-gradient-19" x1="1340.42" y1="824.75" x2="1340.42" y2="785.63" gradientTransform="translate(-475.75) skewX(13.24)" xlink:href="#linear-gradient-7"/><linearGradient id="linear-gradient-20" x1="1181.19" y1="871" x2="1181.19" y2="856.85" gradientTransform="translate(-475.75) skewX(13.24)" xlink:href="#linear-gradient-13"/><linearGradient id="linear-gradient-21" x1="1130.21" y1="906.49" x2="1130.21" y2="892.34" gradientTransform="translate(-475.75) skewX(13.24)" xlink:href="#linear-gradient-13"/><linearGradient id="linear-gradient-22" x1="1096.91" y1="941.98" x2="1096.91" y2="927.84" gradientTransform="translate(-475.75) skewX(13.24)" xlink:href="#linear-gradient-13"/><linearGradient id="linear-gradient-23" x1="1212.07" y1="958.47" x2="1212.07" y2="919.36" gradientTransform="translate(-475.75) skewX(13.24)" xlink:href="#linear-gradient-7"/><linearGradient id="linear-gradient-24" x1="1276.25" y1="958.47" x2="1276.25" y2="919.36" gradientTransform="translate(-475.75) skewX(13.24)" xlink:href="#linear-gradient-7"/><linearGradient id="linear-gradient-25" x1="1340.42" y1="958.47" x2="1340.42" y2="919.36" gradientTransform="translate(-475.75) skewX(13.24)" xlink:href="#linear-gradient-7"/><linearGradient id="linear-gradient-26" x1="1227.86" y1="1230.76" x2="1807.58" y2="1230.76" xlink:href="#linear-gradient-10"/><linearGradient id="linear-gradient-27" x1="1478.81" y1="1441.78" x2="1509.1" y2="1311.53" xlink:href="#linear-gradient-10"/><linearGradient id="linear-gradient-28" x1="1227.86" y1="1067.82" x2="1271.15" y2="1067.82" gradientUnits="userSpaceOnUse"><stop offset="0" stop-color="#ffac06"/><stop offset="1" stop-color="#ffd38d"/></linearGradient><linearGradient id="linear-gradient-29" x1="1253.93" y1="1049.23" x2="1741.22" y2="1049.23" xlink:href="#linear-gradient-28"/><linearGradient id="linear-gradient-30" x1="1577.15" y1="1417.38" x2="1567.96" y2="1029.29" xlink:href="#linear-gradient-10"/><linearGradient id="linear-gradient-31" x1="1377.57" y1="1160.97" x2="1440.36" y2="1160.97" xlink:href="#linear-gradient-28"/><linearGradient id="linear-gradient-32" x1="1398.25" y1="1198.29" x2="1461.03" y2="1198.29" xlink:href="#linear-gradient-28"/><linearGradient id="linear-gradient-33" x1="1418.92" y1="1235.61" x2="1481.71" y2="1235.61" xlink:href="#linear-gradient-28"/><linearGradient id="linear-gradient-34" x1="1439.6" y1="1272.92" x2="1502.38" y2="1272.92" xlink:href="#linear-gradient-28"/><linearGradient id="linear-gradient-35" x1="1460.28" y1="1310.24" x2="1523.06" y2="1310.24" xlink:href="#linear-gradient-28"/><linearGradient id="linear-gradient-36" x1="1647.82" y1="1357.3" x2="1527.59" y2="1148.62" xlink:href="#linear-gradient-7"/><linearGradient id="linear-gradient-37" x1="1600.68" y1="1384.46" x2="1480.46" y2="1175.78" xlink:href="#linear-gradient-7"/><linearGradient id="linear-gradient-38" x1="1694.95" y1="1330.14" x2="1574.73" y2="1121.47" xlink:href="#linear-gradient-7"/><linearGradient id="linear-gradient-39" x1="1742.09" y1="1302.99" x2="1621.87" y2="1094.31" xlink:href="#linear-gradient-7"/><linearGradient id="linear-gradient-40" x1="1600.06" y1="1384.81" x2="1479.84" y2="1176.14" xlink:href="#linear-gradient-7"/><linearGradient id="linear-gradient-41" x1="1647.2" y1="1357.66" x2="1526.97" y2="1148.98" xlink:href="#linear-gradient-7"/><linearGradient id="linear-gradient-42" x1="1694.34" y1="1330.5" x2="1574.11" y2="1121.82" xlink:href="#linear-gradient-7"/><linearGradient id="linear-gradient-43" x1="1741.47" y1="1303.34" x2="1621.25" y2="1094.67" xlink:href="#linear-gradient-7"/><linearGradient id="linear-gradient-44" x1="1599.44" y1="1385.17" x2="1479.22" y2="1176.49" xlink:href="#linear-gradient-7"/><linearGradient id="linear-gradient-45" x1="1646.58" y1="1358.01" x2="1526.35" y2="1149.34" xlink:href="#linear-gradient-7"/><linearGradient id="linear-gradient-46" x1="1693.72" y1="1330.86" x2="1573.49" y2="1122.18" xlink:href="#linear-gradient-7"/><linearGradient id="linear-gradient-47" x1="1740.85" y1="1303.7" x2="1620.63" y2="1095.02" xlink:href="#linear-gradient-7"/><linearGradient id="linear-gradient-48" x1="1598.82" y1="1385.53" x2="1478.6" y2="1176.85" xlink:href="#linear-gradient-7"/><linearGradient id="linear-gradient-49" x1="1645.96" y1="1358.37" x2="1525.73" y2="1149.7" xlink:href="#linear-gradient-7"/><linearGradient id="linear-gradient-50" x1="1693.1" y1="1331.21" x2="1572.87" y2="1122.54" xlink:href="#linear-gradient-7"/><linearGradient id="linear-gradient-51" x1="1740.23" y1="1304.06" x2="1620.01" y2="1095.38" xlink:href="#linear-gradient-7"/><linearGradient id="linear-gradient-52" x1="1598.2" y1="1385.88" x2="1477.98" y2="1177.21" xlink:href="#linear-gradient-7"/><linearGradient id="linear-gradient-53" x1="1645.34" y1="1358.73" x2="1525.12" y2="1150.05" xlink:href="#linear-gradient-7"/><linearGradient id="linear-gradient-54" x1="1692.48" y1="1331.57" x2="1572.25" y2="1122.9" xlink:href="#linear-gradient-7"/><linearGradient id="linear-gradient-55" x1="1739.61" y1="1304.41" x2="1619.39" y2="1095.74" xlink:href="#linear-gradient-7"/><linearGradient id="linear-gradient-56" x1="1253.93" y1="1049.23" x2="1713.03" y2="1049.23" gradientUnits="userSpaceOnUse"><stop offset="0" stop-color="#fff"/><stop offset="1" stop-color="#fa8a13"/></linearGradient><linearGradient id="linear-gradient-57" x1="1295.69" y1="1015.55" x2="1371.35" y2="1015.55" xlink:href="#linear-gradient-10"/><linearGradient id="linear-gradient-58" x1="1288.16" y1="1015.55" x2="1363.81" y2="1015.55" gradientUnits="userSpaceOnUse"><stop offset="0" stop-color="#f0f0f1"/><stop offset="1" stop-color="#d1d2d3"/></linearGradient><linearGradient id="linear-gradient-59" x1="1377.1" y1="1015.55" x2="1452.76" y2="1015.55" xlink:href="#linear-gradient-10"/><linearGradient id="linear-gradient-60" x1="1369.57" x2="1445.22" xlink:href="#linear-gradient-58"/><linearGradient id="linear-gradient-61" x1="1536.48" y1="1015.55" x2="1612.13" y2="1015.55" xlink:href="#linear-gradient-10"/><linearGradient id="linear-gradient-62" x1="1528.94" x2="1604.59" xlink:href="#linear-gradient-58"/><linearGradient id="linear-gradient-63" x1="1617.89" y1="1015.55" x2="1693.54" y2="1015.55" xlink:href="#linear-gradient-10"/><linearGradient id="linear-gradient-64" x1="1610.35" x2="1686" xlink:href="#linear-gradient-58"/><linearGradient id="linear-gradient-65" x1="811.51" y1="259.89" x2="830.2" y2="89.49" gradientTransform="translate(12.72 -16.62) scale(1 1.01) skewX(-.64)" xlink:href="#linear-gradient-7"/><linearGradient id="linear-gradient-66" x1="980.26" y1="85.61" x2="737.33" y2="203.23" xlink:href="#linear-gradient-7"/><linearGradient id="linear-gradient-67" x1="883.47" y1="114.7" x2="740.84" y2="258.17" gradientUnits="userSpaceOnUse"><stop offset="0" stop-color="#fff"/><stop offset="1" stop-color="#8ca3d8"/></linearGradient><linearGradient id="linear-gradient-68" x1="992.27" y1="318.78" x2="1003.95" y2="212.28" gradientTransform="translate(12.72 -16.62) scale(1 1.01) skewX(-.64)" gradientUnits="userSpaceOnUse"><stop offset="0" stop-color="#8e4d21"/><stop offset="1" stop-color="#fa8a13"/></linearGradient><linearGradient id="linear-gradient-69" x1="1100.77" y1="205.81" x2="948.94" y2="279.32" xlink:href="#linear-gradient-28"/><linearGradient id="linear-gradient-70" x1="1052.83" y1="231.86" x2="947.19" y2="283.01" gradientUnits="userSpaceOnUse"><stop offset="0" stop-color="#ffac06"/><stop offset="1" stop-color="#ffeac0"/></linearGradient><linearGradient id="linear-gradient-71" x1="173.67" y1="863.66" x2="155.2" y2="629.44" xlink:href="#linear-gradient-7"/><linearGradient id="linear-gradient-72" x1="91.11" y1="651.93" x2="164.63" y2="872.58" xlink:href="#linear-gradient-7"/><linearGradient id="linear-gradient-73" x1="233.34" y1="846.43" x2="218" y2="652.01" gradientUnits="userSpaceOnUse"><stop offset="0" stop-color="#9c9e9f"/><stop offset="1" stop-color="#d1d2d3"/></linearGradient><linearGradient id="linear-gradient-74" x1="164.81" y1="670.68" x2="225.83" y2="853.83" gradientUnits="userSpaceOnUse"><stop offset="0" stop-color="#fbfbfb"/><stop offset="1" stop-color="#eaebec"/></linearGradient><linearGradient id="linear-gradient-75" x1="413.32" y1="836" x2="413.49" y2="836.67" gradientUnits="userSpaceOnUse"><stop offset="0" stop-color="#edaeae"/><stop offset="1" stop-color="#ffe9e9"/></linearGradient><linearGradient id="linear-gradient-76" x1="401.66" y1="765.91" x2="412.53" y2="808.02" xlink:href="#linear-gradient-75"/><linearGradient id="linear-gradient-77" x1="317.94" y1="728.54" x2="370.36" y2="783.46" xlink:href="#linear-gradient-75"/><linearGradient id="linear-gradient-78" x1="240.51" y1="580.52" x2="340.83" y2="881.65" xlink:href="#linear-gradient-75"/><linearGradient id="linear-gradient-79" x1="324.25" y1="557.07" x2="358.19" y2="688.59" xlink:href="#linear-gradient-75"/><linearGradient id="linear-gradient-80" x1="399.91" y1="802.95" x2="409.82" y2="841.35" xlink:href="#linear-gradient-75"/><linearGradient id="linear-gradient-81" x1="407.24" y1="719.4" x2="420.17" y2="769.51" xlink:href="#linear-gradient-75"/><linearGradient id="linear-gradient-82" x1="1553.22" y1="673.81" x2="1558.06" y2="467.28" gradientTransform="translate(-215.39 -48.97) rotate(-2.38) scale(.99 1.09) skewX(4.47)" xlink:href="#linear-gradient-68"/><linearGradient id="linear-gradient-83" x1="1531.43" y1="440.41" x2="1573.41" y2="596.41" gradientTransform="translate(-215.39 -48.97) rotate(-2.38) scale(.99 1.09) skewX(4.47)" xlink:href="#linear-gradient-28"/><linearGradient id="linear-gradient-84" x1="1495.17" y1="517.71" x2="1732.34" y2="517.71" gradientTransform="translate(-215.39 -48.97) rotate(-2.38) scale(.99 1.09) skewX(4.47)" xlink:href="#linear-gradient-6"/><linearGradient id="linear-gradient-85" x1="1685.19" y1="567.31" x2="1600.66" y2="456.86" gradientTransform="translate(-215.39 -48.97) rotate(-2.38) scale(.99 1.09) skewX(4.47)" xlink:href="#linear-gradient-7"/><linearGradient id="linear-gradient-86" x1="10246.71" y1="794.25" x2="10296.17" y2="877.08" gradientTransform="translate(10685.11 5243.11) rotate(-158.92)" xlink:href="#linear-gradient-7"/><linearGradient id="linear-gradient-87" x1="893.12" y1="1349.43" x2="919.69" y2="1408.35" gradientTransform="translate(649.41 -755.32) rotate(15.41)" gradientUnits="userSpaceOnUse"><stop offset="0" stop-color="#e8bd6d"/><stop offset=".31" stop-color="#fff39f"/><stop offset="1" stop-color="#ddac6c"/></linearGradient><linearGradient id="linear-gradient-88" x1="10122.48" y1="868.69" x2="10172.11" y2="951.82" gradientTransform="translate(10685.11 5243.11) rotate(-158.92)" xlink:href="#linear-gradient"/><linearGradient id="linear-gradient-89" x1="1364.72" y1="1121.64" x2="1229.41" y2="1274.6" gradientTransform="translate(-740.86 27.43) rotate(-.77) scale(.99 1.01) skewX(19.14)" xlink:href="#linear-gradient-28"/><linearGradient id="linear-gradient-90" x1="5502.64" y1="1122.02" x2="5367.33" y2="1274.98" gradientTransform="translate(6497.2 -69.68) rotate(179.23) scale(.99 -1.01) skewX(3.16)" xlink:href="#linear-gradient-28"/><linearGradient id="linear-gradient-91" x1="1102.84" y1="978.39" x2="1198.55" y2="1183.85" gradientTransform="translate(-308.34 21.24) rotate(-.77) scale(.99 1.01) skewX(8.3)" gradientUnits="userSpaceOnUse"><stop offset="0" stop-color="#ce8236"/><stop offset="1" stop-color="#cc8952"/></linearGradient><linearGradient id="linear-gradient-92" x1="960.18" y1="1459.02" x2="1047.08" y2="1260.6" gradientTransform="translate(-.74 -411.57) rotate(8.32) scale(1.01 .99) skewX(8.14)" xlink:href="#linear-gradient-87"/><linearGradient id="linear-gradient-93" x1="1193.05" y1="985.82" x2="1178.25" y2="1098.82" xlink:href="#linear-gradient-91"/><linearGradient id="linear-gradient-94" x1="1083.89" y1="1342.51" x2="884.85" y2="1404.62" gradientTransform="translate(-.74 -411.57) rotate(8.32) scale(1.01 .99) skewX(8.14)" xlink:href="#linear-gradient-87"/><linearGradient id="linear-gradient-95" x1="1216.65" y1="1110.12" x2="1210.97" y2="1153.53" xlink:href="#linear-gradient-91"/><linearGradient id="linear-gradient-96" x1="10862.58" y1="1556.72" x2="10666.43" y2="1154.72" gradientTransform="translate(11342.44) rotate(-180) scale(1 -1)" xlink:href="#linear-gradient-7"/><linearGradient id="linear-gradient-97" x1="10660.27" y1="1682.1" x2="10522.45" y2="1399.64" gradientTransform="translate(11342.44) rotate(-180) scale(1 -1)" gradientUnits="userSpaceOnUse"><stop offset="0" stop-color="#4c6fbf"/><stop offset="1" stop-color="#3863a0"/></linearGradient><linearGradient id="linear-gradient-98" x1="10658.56" y1="1671.29" x2="10530.08" y2="1407.98" xlink:href="#linear-gradient-2"/><linearGradient id="linear-gradient-99" x1="10395.66" y1="1460.2" x2="10402.4" y2="1460.2" xlink:href="#linear-gradient"/><linearGradient id="linear-gradient-100" x1="10789.6" y1="1479.56" x2="11170.05" y2="1479.56" gradientTransform="translate(11342.44) rotate(-180) scale(1 -1)" xlink:href="#linear-gradient-7"/><linearGradient id="linear-gradient-101" x1="11007.76" y1="1537.39" x2="10952.08" y2="1423.29" xlink:href="#linear-gradient-2"/><linearGradient id="linear-gradient-102" x1="10862.58" y1="1556.72" x2="10666.43" y2="1154.72" gradientTransform="translate(11342.44) rotate(-180) scale(1 -1)" gradientUnits="userSpaceOnUse"><stop offset="0" stop-color="#fff"/><stop offset="1" stop-color="#5072c0"/></linearGradient><linearGradient id="linear-gradient-103" x1="10845.21" y1="1428.15" x2="10688.39" y2="1106.78" xlink:href="#linear-gradient"/><linearGradient id="linear-gradient-104" x1="10682.1" y1="1519.75" x2="10579.39" y2="1309.24" xlink:href="#linear-gradient-2"/><linearGradient id="linear-gradient-105" x1="10471.92" y1="1350.99" x2="10477.31" y2="1350.99" xlink:href="#linear-gradient"/><linearGradient id="linear-gradient-106" x1="10961.27" y1="1412.7" x2="10916.76" y2="1321.48" xlink:href="#linear-gradient-2"/><linearGradient id="linear-gradient-107" x1="10845.21" y1="1428.15" x2="10688.39" y2="1106.78" xlink:href="#linear-gradient-5"/><linearGradient id="linear-gradient-108" x1="3406.15" y1="835.75" x2="3287.02" y2="889.27" gradientTransform="translate(-1573.42)" xlink:href="#linear-gradient-74"/><linearGradient id="linear-gradient-109" x1="3408.54" y1="840.92" x2="3274.91" y2="900.95" gradientTransform="translate(-1573.42)" xlink:href="#linear-gradient-2"/><linearGradient id="linear-gradient-110" x1="3424.89" y1="876.85" x2="3251.14" y2="954.91" gradientTransform="translate(-1573.42)" xlink:href="#linear-gradient-2"/><linearGradient id="linear-gradient-111" x1="3409.64" y1="841.76" x2="3133.52" y2="965.81" gradientTransform="translate(-1573.42)" xlink:href="#linear-gradient-74"/><linearGradient id="linear-gradient-112" x1="76.87" y1="1328.6" x2="611.71" y2="1328.6" xlink:href="#linear-gradient-7"/><linearGradient id="linear-gradient-113" x1="363.91" y1="1634.59" x2="97.96" y2="1454.41" xlink:href="#linear-gradient-7"/><linearGradient id="linear-gradient-114" x1="359.38" y1="1630.89" x2="102.61" y2="1456.93" gradientTransform="matrix(1,0,0,1,0,0)" xlink:href="#linear-gradient-2"/><linearGradient id="linear-gradient-115" x1="351.74" y1="1407.44" x2="646" y2="1407.44" xlink:href="#linear-gradient-7"/><linearGradient id="linear-gradient-116" x1="517.07" y1="1421.27" x2="478.96" y2="1395.45" gradientTransform="matrix(1,0,0,1,0,0)" xlink:href="#linear-gradient-2"/><linearGradient id="linear-gradient-117" x1="1883.79" y1="1126.2" x2="1764.67" y2="1179.72" gradientTransform="translate(-1573.42)" xlink:href="#linear-gradient-74"/><linearGradient id="linear-gradient-118" x1="1886.19" y1="1131.37" x2="1752.56" y2="1191.41" gradientTransform="translate(-1573.42)" xlink:href="#linear-gradient-2"/><linearGradient id="linear-gradient-119" x1="1902.54" y1="1167.31" x2="1728.79" y2="1245.37" gradientTransform="translate(-1573.42)" xlink:href="#linear-gradient-2"/><linearGradient id="linear-gradient-120" x1="1887.29" y1="1132.22" x2="1611.17" y2="1256.27" gradientTransform="translate(-1573.42)" xlink:href="#linear-gradient-74"/><linearGradient id="linear-gradient-121" x1="5295.07" y1="348.33" x2="5402.2" y2="348.33" gradientTransform="translate(5599.91) rotate(-180) scale(1 -1)" xlink:href="#linear-gradient-68"/><linearGradient id="linear-gradient-122" x1="5252.03" y1="177.16" x2="5316.09" y2="177.16" gradientTransform="translate(5599.91) rotate(-180) scale(1 -1)" xlink:href="#linear-gradient-68"/><linearGradient id="linear-gradient-123" x1="5224.57" y1="332.09" x2="5265.73" y2="332.09" gradientTransform="translate(5599.91) rotate(-180) scale(1 -1)" xlink:href="#linear-gradient-68"/><linearGradient id="linear-gradient-124" x1="5171.35" y1="225" x2="5284.1" y2="225" gradientTransform="translate(5599.91) rotate(-180) scale(1 -1)" xlink:href="#linear-gradient-68"/><linearGradient id="linear-gradient-125" x1="5171.35" y1="261.57" x2="5265.73" y2="261.57" gradientTransform="translate(5599.91) rotate(-180) scale(1 -1)" xlink:href="#linear-gradient-68"/><linearGradient id="linear-gradient-126" x1="5203.42" y1="255.46" x2="5438.94" y2="255.46" gradientTransform="translate(5599.91) rotate(-180) scale(1 -1)" xlink:href="#linear-gradient-28"/><linearGradient id="linear-gradient-127" x1="160.97" y1="248.76" x2="213.7" y2="248.76" gradientUnits="userSpaceOnUse"><stop offset="0" stop-color="#ffac06"/><stop offset="1" stop-color="#ffd176"/></linearGradient><linearGradient id="linear-gradient-128" x1="283.35" y1="174.17" x2="313.98" y2="174.17" xlink:href="#linear-gradient-127"/><linearGradient id="linear-gradient-129" x1="197.71" y1="302.61" x2="396.49" y2="302.61" xlink:href="#linear-gradient-127"/><linearGradient id="linear-gradient-130" x1="1445.32" y1="2099.49" x2="1453.8" y2="1737.36" gradientTransform="translate(-1004.5 474.85) rotate(-27.61) scale(.99 1.05) skewX(-1.4)" xlink:href="#linear-gradient-73"/><linearGradient id="linear-gradient-131" x1="1387.18" y1="1705.78" x2="1434.48" y2="1937.39" gradientTransform="translate(-1041.03 501.64) rotate(-27.61) scale(.99 1.05) skewX(1.49)" xlink:href="#linear-gradient-74"/><linearGradient id="linear-gradient-132" x1="1063.83" y1="1950.09" x2="905.23" y2="1711.26" xlink:href="#linear-gradient-73"/><linearGradient id="linear-gradient-133" x1="3684.17" y1="-4718.35" x2="3772.78" y2="-4718.35" gradientTransform="translate(1558.09 -4083.41) rotate(45.28) scale(1 -1)" xlink:href="#linear-gradient-73"/><linearGradient id="linear-gradient-134" x1="3808.97" y1="-4704.58" x2="3699.03" y2="-4870.13" gradientTransform="translate(5578.67 -1767.2) rotate(90) scale(1 -1)" xlink:href="#linear-gradient-73"/></defs><g class="cls-176"><ellipse class="cls-128" cx="471.7" cy="1681.78" rx="471.7" ry="86.64"/><ellipse class="cls-4" cx="471.7" cy="1681.78" rx="461.3" ry="84.73"/><ellipse class="cls-163" cx="471.7" cy="1681.78" rx="450.9" ry="82.82"/><ellipse class="cls-157" cx="471.7" cy="1681.78" rx="440.5" ry="80.91"/><ellipse class="cls-131" cx="471.7" cy="1681.78" rx="430.1" ry="79"/><ellipse class="cls-47" cx="471.7" cy="1681.78" rx="419.69" ry="77.09"/><ellipse class="cls-43" cx="471.7" cy="1681.78" rx="409.29" ry="75.18"/><ellipse class="cls-69" cx="471.7" cy="1681.78" rx="398.89" ry="73.26"/><ellipse class="cls-15" cx="471.7" cy="1681.78" rx="388.49" ry="71.35"/><ellipse class="cls-27" cx="471.7" cy="1681.78" rx="378.09" ry="69.44"/><ellipse class="cls-2" cx="471.7" cy="1681.78" rx="367.68" ry="67.53"/><ellipse class="cls-23" cx="471.7" cy="1681.78" rx="357.28" ry="65.62"/><ellipse class="cls-66" cx="471.7" cy="1681.78" rx="346.88" ry="63.71"/><ellipse class="cls-53" cx="471.7" cy="1681.78" rx="336.48" ry="61.8"/><ellipse class="cls-42" cx="471.7" cy="1681.78" rx="326.08" ry="59.89"/><ellipse class="cls-92" cx="471.7" cy="1681.78" rx="315.67" ry="57.98"/><ellipse class="cls-87" cx="471.7" cy="1681.78" rx="305.27" ry="56.07"/><ellipse class="cls-67" cx="471.7" cy="1681.78" rx="294.87" ry="54.16"/><ellipse class="cls-20" cx="471.7" cy="1681.78" rx="284.47" ry="52.25"/><ellipse class="cls-116" cx="471.7" cy="1681.78" rx="274.07" ry="50.34"/><ellipse class="cls-152" cx="471.7" cy="1681.78" rx="263.66" ry="48.43"/><ellipse class="cls-11" cx="471.7" cy="1681.78" rx="253.26" ry="46.52"/><ellipse class="cls-29" cx="471.7" cy="1681.78" rx="242.86" ry="44.61"/><ellipse class="cls-99" cx="471.7" cy="1681.78" rx="232.46" ry="42.7"/><ellipse class="cls-22" cx="471.7" cy="1681.78" rx="222.06" ry="40.79"/><ellipse class="cls-119" cx="471.7" cy="1681.78" rx="211.65" ry="38.87"/><ellipse class="cls-90" cx="471.7" cy="1681.78" rx="201.25" ry="36.96"/><ellipse class="cls-108" cx="471.7" cy="1681.78" rx="190.85" ry="35.05"/></g><g class="cls-176"><ellipse class="cls-128" cx="1404.1" cy="1735.25" rx="344.02" ry="86.64"/><ellipse class="cls-4" cx="1404.1" cy="1735.25" rx="336.44" ry="84.73"/><ellipse class="cls-163" cx="1404.1" cy="1735.25" rx="328.85" ry="82.82"/><ellipse class="cls-157" cx="1404.1" cy="1735.25" rx="321.26" ry="80.91"/><ellipse class="cls-131" cx="1404.1" cy="1735.25" rx="313.68" ry="79"/><ellipse class="cls-47" cx="1404.1" cy="1735.25" rx="306.09" ry="77.09"/><ellipse class="cls-43" cx="1404.1" cy="1735.25" rx="298.5" ry="75.18"/><ellipse class="cls-69" cx="1404.1" cy="1735.25" rx="290.92" ry="73.26"/><ellipse class="cls-15" cx="1404.1" cy="1735.25" rx="283.33" ry="71.35"/><ellipse class="cls-27" cx="1404.1" cy="1735.25" rx="275.75" ry="69.44"/><ellipse class="cls-2" cx="1404.1" cy="1735.25" rx="268.16" ry="67.53"/><ellipse class="cls-23" cx="1404.1" cy="1735.25" rx="260.57" ry="65.62"/><ellipse class="cls-66" cx="1404.1" cy="1735.25" rx="252.99" ry="63.71"/><ellipse class="cls-53" cx="1404.1" cy="1735.25" rx="245.4" ry="61.8"/><ellipse class="cls-42" cx="1404.1" cy="1735.25" rx="237.81" ry="59.89"/><ellipse class="cls-92" cx="1404.1" cy="1735.25" rx="230.23" ry="57.98"/><ellipse class="cls-87" cx="1404.1" cy="1735.25" rx="222.64" ry="56.07"/><ellipse class="cls-67" cx="1404.1" cy="1735.25" rx="215.05" ry="54.16"/><ellipse class="cls-20" cx="1404.1" cy="1735.25" rx="207.47" ry="52.25"/><ellipse class="cls-116" cx="1404.1" cy="1735.25" rx="199.88" ry="50.34"/><ellipse class="cls-152" cx="1404.1" cy="1735.25" rx="192.3" ry="48.43"/><ellipse class="cls-11" cx="1404.1" cy="1735.25" rx="184.71" ry="46.52"/><ellipse class="cls-29" cx="1404.1" cy="1735.25" rx="177.12" ry="44.61"/><ellipse class="cls-99" cx="1404.1" cy="1735.25" rx="169.54" ry="42.7"/><ellipse class="cls-22" cx="1404.1" cy="1735.25" rx="161.95" ry="40.79"/><ellipse class="cls-119" cx="1404.1" cy="1735.25" rx="154.36" ry="38.87"/><ellipse class="cls-90" cx="1404.1" cy="1735.25" rx="146.78" ry="36.96"/><ellipse class="cls-108" cx="1404.1" cy="1735.25" rx="139.19" ry="35.05"/></g><g class="cls-176"><ellipse class="cls-128" cx="982.51" cy="1952.17" rx="344.02" ry="86.64"/><ellipse class="cls-4" cx="982.51" cy="1952.17" rx="336.44" ry="84.73"/><ellipse class="cls-163" cx="982.51" cy="1952.17" rx="328.85" ry="82.82"/><ellipse class="cls-157" cx="982.51" cy="1952.17" rx="321.26" ry="80.91"/><ellipse class="cls-131" cx="982.51" cy="1952.17" rx="313.68" ry="79"/><ellipse class="cls-47" cx="982.51" cy="1952.17" rx="306.09" ry="77.09"/><ellipse class="cls-43" cx="982.51" cy="1952.17" rx="298.5" ry="75.18"/><ellipse class="cls-69" cx="982.51" cy="1952.17" rx="290.92" ry="73.26"/><ellipse class="cls-15" cx="982.51" cy="1952.17" rx="283.33" ry="71.35"/><ellipse class="cls-27" cx="982.51" cy="1952.17" rx="275.75" ry="69.44"/><ellipse class="cls-2" cx="982.51" cy="1952.17" rx="268.16" ry="67.53"/><ellipse class="cls-23" cx="982.51" cy="1952.17" rx="260.57" ry="65.62"/><ellipse class="cls-66" cx="982.51" cy="1952.17" rx="252.99" ry="63.71"/><ellipse class="cls-53" cx="982.51" cy="1952.17" rx="245.4" ry="61.8"/><ellipse class="cls-42" cx="982.51" cy="1952.17" rx="237.81" ry="59.89"/><ellipse class="cls-92" cx="982.51" cy="1952.17" rx="230.23" ry="57.98"/><ellipse class="cls-87" cx="982.51" cy="1952.17" rx="222.64" ry="56.07"/><ellipse class="cls-67" cx="982.51" cy="1952.17" rx="215.05" ry="54.16"/><ellipse class="cls-20" cx="982.51" cy="1952.17" rx="207.47" ry="52.25"/><ellipse class="cls-116" cx="982.51" cy="1952.17" rx="199.88" ry="50.34"/><ellipse class="cls-152" cx="982.51" cy="1952.17" rx="192.3" ry="48.43"/><ellipse class="cls-11" cx="982.51" cy="1952.17" rx="184.71" ry="46.52"/><ellipse class="cls-29" cx="982.51" cy="1952.17" rx="177.12" ry="44.61"/><ellipse class="cls-99" cx="982.51" cy="1952.17" rx="169.54" ry="42.7"/><ellipse class="cls-22" cx="982.51" cy="1952.17" rx="161.95" ry="40.79"/><ellipse class="cls-119" cx="982.51" cy="1952.17" rx="154.36" ry="38.87"/><ellipse class="cls-90" cx="982.51" cy="1952.17" rx="146.78" ry="36.96"/><ellipse class="cls-108" cx="982.51" cy="1952.17" rx="139.19" ry="35.05"/></g><g class="cls-174"><ellipse class="cls-128" cx="992.22" cy="1362.55" rx="425.92" ry="86.64"/><ellipse class="cls-4" cx="992.22" cy="1362.55" rx="416.52" ry="84.73"/><ellipse class="cls-163" cx="992.22" cy="1362.55" rx="407.13" ry="82.82"/><ellipse class="cls-157" cx="992.22" cy="1362.55" rx="397.74" ry="80.91"/><ellipse class="cls-131" cx="992.22" cy="1362.55" rx="388.35" ry="79"/><ellipse class="cls-47" cx="992.22" cy="1362.55" rx="378.96" ry="77.09"/><ellipse class="cls-43" cx="992.22" cy="1362.55" rx="369.56" ry="75.18"/><ellipse class="cls-69" cx="992.22" cy="1362.55" rx="360.17" ry="73.26"/><ellipse class="cls-15" cx="992.22" cy="1362.55" rx="350.78" ry="71.35"/><ellipse class="cls-27" cx="992.22" cy="1362.55" rx="341.39" ry="69.44"/><ellipse class="cls-2" cx="992.22" cy="1362.55" rx="331.99" ry="67.53"/><ellipse class="cls-23" cx="992.22" cy="1362.55" rx="322.6" ry="65.62"/><ellipse class="cls-66" cx="992.22" cy="1362.55" rx="313.21" ry="63.71"/><ellipse class="cls-53" cx="992.22" cy="1362.55" rx="303.82" ry="61.8"/><ellipse class="cls-42" cx="992.22" cy="1362.55" rx="294.43" ry="59.89"/><ellipse class="cls-92" cx="992.22" cy="1362.55" rx="285.03" ry="57.98"/><ellipse class="cls-87" cx="992.22" cy="1362.55" rx="275.64" ry="56.07"/><ellipse class="cls-67" cx="992.22" cy="1362.55" rx="266.25" ry="54.16"/><ellipse class="cls-20" cx="992.22" cy="1362.55" rx="256.86" ry="52.25"/><ellipse class="cls-116" cx="992.22" cy="1362.55" rx="247.46" ry="50.34"/><ellipse class="cls-152" cx="992.22" cy="1362.55" rx="238.07" ry="48.43"/><ellipse class="cls-11" cx="992.22" cy="1362.55" rx="228.68" ry="46.52"/><ellipse class="cls-29" cx="992.22" cy="1362.55" rx="219.29" ry="44.61"/><ellipse class="cls-99" cx="992.22" cy="1362.55" rx="209.89" ry="42.7"/><ellipse class="cls-22" cx="992.22" cy="1362.55" rx="200.5" ry="40.79"/><ellipse class="cls-119" cx="992.22" cy="1362.55" rx="191.11" ry="38.87"/><ellipse class="cls-90" cx="992.22" cy="1362.55" rx="181.72" ry="36.96"/><ellipse class="cls-108" cx="992.22" cy="1362.55" rx="172.33" ry="35.05"/></g><path class="cls-12" d="m1114.65,1448.72l318.73,126.43,317.27-28.65c2.44-.21,4.84-.03,7.11.49l-316.29-122.04-326.82,23.77Z"/><path class="cls-25" d="m1433.38,1575.15v105.98l323.61-29.2c10.18-.91,18.02-9.48,18.02-19.72v-63.43c0-8.5-4.74-15.82-11.61-19.59l-5.65-2.2c-2.26-.52-4.67-.7-7.11-.49l-317.27,28.65Z"/><path class="cls-84" d="m1756.18,1642.9c5.49-.49,9.77-5.19,9.77-10.7v-63.43c0-4.67-2.46-8.99-6.45-11.38l-4.33-1.68c-.82-.15-1.66-.23-2.5-.23-.41,0-.82.02-1.23.05l-318.05,28.06v87.78l322.8-28.47Z"/><path class="cls-93" d="m1757.76,1546.99l5.65,2.2c-1.74-1.01-3.66-1.74-5.65-2.2Z"/><polygon class="cls-25" points="1114.65 1448.72 1114.65 1553.48 1433.38 1679.91 1433.38 1575.15 1114.65 1448.72"/><polygon class="cls-153" points="1114.65 1458.23 1433.38 1583.59 1433.38 1671.37 1114.65 1546.42 1114.65 1458.23"/><path class="cls-44" d="m1433.48,1573.67l317.18-28.16c1.07-.09,2.14-.08,3.19-.03l3.92,1.51c-2.26-.52-4.67-.7-7.11-.49l-317.27,28.65-318.73-126.43,2.13-.15,316.7,125.11Z"/><polygon class="cls-24" points="983.81 505.17 1185.12 1333.52 634.31 1333.52 422.88 513.96 452.8 486.69 983.81 505.17"/><polygon class="cls-89" points="1003.6 486.69 1215.04 1306.25 664.23 1306.25 452.8 486.69 1003.6 486.69"/><polygon class="cls-118" points="1215.04 1306.25 1185.12 1333.52 634.31 1333.52 664.23 1306.25 1215.04 1306.25"/><polygon class="cls-100" points="1089.53 565.49 1276.9 1293.38 726.09 1293.38 538.72 565.49 558.51 547.01 1089.53 565.49"/><polygon class="cls-145" points="1109.32 547.01 1296.69 1274.9 745.89 1274.9 558.51 547.01 1109.32 547.01"/><path class="cls-171" d="m777.67,1196.42l-143.14-556.05c-5.61-21.79,10.85-43.02,33.35-43.02h373.5c17.03,0,31.89,11.52,36.14,28.01l144.93,563.02c4.72,18.33-9.12,36.18-28.04,36.18h-380.43c-17.1,0-32.03-11.58-36.3-28.14Z"/><polygon class="cls-35" points="1296.69 1274.9 1276.9 1293.38 726.09 1293.38 745.89 1274.9 1296.69 1274.9"/><path class="cls-3" d="m628.06,580.01c5.4-4.02,16.48-8.54,22.66-13.63,47.64-39.2,17.5-96.37,0-121.2-17.5-24.83-63.23-46.3-70.91-45.65h537.94s64.68,1.37,98.16,70.37c33.48,69-17.41,109.42-44.21,110.53h-525.87l-17.78-.41Z"/><path class="cls-64" d="m598.71,1194.45h-145.92s-88.94-464.02-80.52-554.04c13.6-145.35,65.24-217.12,166.44-238.56l41.09-2.33s72.27,9.69,91.99,87.18h-219.01l-29.91,27.27,175.83,680.49Z"/><path class="cls-172" d="m558.51,547.01s43.06,63.41,95.84,16.3c57.11-50.97-14.44-182.9-115.63-161.46-101.2,21.43-152.84,93.21-161.52,264.9-4.57,90.3,75.6,527.7,75.6,527.7"/><path class="cls-83" d="m1025.81,738.02h-293.59c-2.85,0-5.72-2.33-6.39-5.18l-1.31-5.57c-.67-2.85,1.11-5.18,3.96-5.18h293.59c2.85,0,5.72,2.33,6.39,5.18l1.31,5.57c.67,2.85-1.11,5.18-3.96,5.18Z"/><path class="cls-34" d="m932.21,773.51h-191.63c-2.85,0-5.72-2.33-6.39-5.18l-1.31-5.57c-.67-2.85,1.11-5.18,3.96-5.18h191.63c2.85,0,5.72,2.33,6.39,5.18l1.31,5.57c.67,2.85-1.11,5.18-3.96,5.18Z"/><path class="cls-71" d="m873.95,809h-125.03c-2.85,0-5.72-2.33-6.39-5.18l-1.31-5.57c-.67-2.85,1.11-5.18,3.96-5.18h125.03c2.85,0,5.72,2.33,6.39,5.18l1.31,5.57c.67,2.85-1.11,5.18-3.96,5.18Z"/><path class="cls-6" d="m945.65,826.83h-29.73c-3.76,0-7.53-3.05-8.41-6.81l-7.16-30.42c-.88-3.76,1.45-6.81,5.21-6.81h29.73c3.76,0,7.53,3.05,8.41,6.81l7.16,30.42c.88,3.76-1.45,6.81-5.21,6.81Z"/><path class="cls-125" d="m1009.83,826.83h-29.73c-3.76,0-7.53-3.05-8.41-6.81l-7.16-30.42c-.88-3.76,1.45-6.81,5.21-6.81h29.73c3.76,0,7.53,3.05,8.41,6.81l7.16,30.42c.88,3.76-1.45,6.81-5.21,6.81Z"/><path class="cls-9" d="m1074.01,826.83h-29.73c-3.76,0-7.53-3.05-8.41-6.81l-7.16-30.42c-.88-3.76,1.45-6.81,5.21-6.81h29.73c3.76,0,7.53,3.05,8.41,6.81l7.16,30.42c.88,3.76-1.45,6.81-5.21,6.81Z"/><path class="cls-82" d="m1057.27,871.75h-293.59c-2.85,0-5.72-2.33-6.39-5.18l-1.31-5.57c-.67-2.85,1.11-5.18,3.96-5.18h293.59c2.85,0,5.72,2.33,6.39,5.18l1.31,5.57c.67,2.85-1.11,5.18-3.96,5.18Z"/><path class="cls-21" d="m963.66,907.24h-191.63c-2.85,0-5.72-2.33-6.39-5.18l-1.31-5.57c-.67-2.85,1.11-5.18,3.96-5.18h191.63c2.85,0,5.72,2.33,6.39,5.18l1.31,5.57c.67,2.85-1.11,5.18-3.96,5.18Z"/><path class="cls-72" d="m905.41,942.73h-125.03c-2.85,0-5.72-2.33-6.39-5.18l-1.31-5.57c-.67-2.85,1.11-5.18,3.96-5.18h125.03c2.85,0,5.72,2.33,6.39,5.18l1.31,5.57c.67,2.85-1.11,5.18-3.96,5.18Z"/><path class="cls-65" d="m977.11,960.56h-29.73c-3.76,0-7.53-3.05-8.41-6.81l-7.16-30.42c-.88-3.76,1.45-6.81,5.21-6.81h29.73c3.76,0,7.53,3.05,8.41,6.81l7.16,30.42c.88,3.76-1.45,6.81-5.21,6.81Z"/><path class="cls-121" d="m1041.29,960.56h-29.73c-3.76,0-7.53-3.05-8.41-6.81l-7.16-30.42c-.88-3.76,1.45-6.81,5.21-6.81h29.73c3.76,0,7.53,3.05,8.41,6.81l7.16,30.42c.88,3.76-1.45,6.81-5.21,6.81Z"/><path class="cls-68" d="m1105.47,960.56h-29.73c-3.76,0-7.53-3.05-8.41-6.81l-7.16-30.42c-.88-3.76,1.45-6.81,5.21-6.81h29.73c3.76,0,7.53,3.05,8.41,6.81l7.16,30.42c.88,3.76-1.45,6.81-5.21,6.81Z"/><path class="cls-51" d="m806.4,659.32h-18.97l5,17.59h21.14l1.5,5.28h-27.43l-13.88-48.77h26.35l1.5,5.28h-20.05l4.39,15.41h18.96l1.48,5.21Z"/><path class="cls-51" d="m851.77,682.19l-9.29-10.78c-3.71-4.13-6.06-6.8-8.38-9.63h-.14c-.58,2.82-1.21,5.43-2.53,9.7l-2.81,10.71h-7.24l7.89-24.68-21.19-24.1h7.31l9.69,11.43c2.72,3.18,4.79,5.64,6.84,8.25h.22c.55-2.89,1.15-5.14,2.07-8.25l3.41-11.43h7.24l-8.08,23.74,22.32,25.04h-7.31Z"/><path class="cls-51" d="m871.07,666.84l-.7,15.34h-6.51l2.7-48.77h7.6l30.52,48.77h-6.73l-9.58-15.34h-17.3Zm14.6-4.92l-8.77-14.04c-1.99-3.19-3.54-6.08-5.06-8.9h-.15c.1,2.89.15,5.86.05,8.83l-.76,14.11h14.69Z"/><path class="cls-51" d="m948.37,660.77c-2.3-6.8-5.06-14.98-6.72-21.06h-.22c-.04,5.72-.34,11.8-.88,18.52l-1.88,23.67h-4.78l-14.5-23.23c-4.27-6.87-8.02-13.17-11.04-18.96h-.14c1.58,6.08,3.55,14.26,5.19,21.57l4.65,20.92h-6.01l-10.47-48.77h8.03l15.04,23.59c3.74,6.01,6.92,11.36,9.6,16.43h.22c-.17-4.92.04-10.27.46-16.43l1.98-23.59h8.03l16.92,48.77h-6.15l-7.33-21.42Z"/><polyline class="cls-170" points="1041.67 799.02 1052.92 812.36 1067.54 798.73"/><polyline class="cls-170" points="912.67 799.02 923.93 812.36 938.54 798.73"/><polyline class="cls-170" points="975.1 799.02 986.36 812.36 1000.97 798.73"/><g class="cls-176"><ellipse class="cls-128" cx="1346.48" cy="1285.61" rx="199.29" ry="228.49" transform="translate(-347.77 514.04) rotate(-19.19)"/><ellipse class="cls-4" cx="1346.48" cy="1285.61" rx="194.9" ry="223.45" transform="translate(-347.77 514.04) rotate(-19.19)"/><ellipse class="cls-163" cx="1346.48" cy="1285.61" rx="190.5" ry="218.41" transform="translate(-347.77 514.04) rotate(-19.19)"/><ellipse class="cls-157" cx="1346.48" cy="1285.61" rx="186.11" ry="213.37" transform="translate(-347.77 514.04) rotate(-19.19)"/><ellipse class="cls-131" cx="1346.48" cy="1285.61" rx="181.71" ry="208.33" transform="translate(-347.77 514.04) rotate(-19.19)"/><ellipse class="cls-47" cx="1346.48" cy="1285.61" rx="177.32" ry="203.29" transform="translate(-347.77 514.04) rotate(-19.19)"/><ellipse class="cls-43" cx="1346.48" cy="1285.61" rx="172.92" ry="198.25" transform="translate(-347.77 514.04) rotate(-19.19)"/><ellipse class="cls-69" cx="1346.48" cy="1285.61" rx="168.53" ry="193.22" transform="translate(-347.77 514.04) rotate(-19.19)"/><ellipse class="cls-15" cx="1346.48" cy="1285.61" rx="164.13" ry="188.18" transform="translate(-347.77 514.04) rotate(-19.19)"/><ellipse class="cls-27" cx="1346.48" cy="1285.61" rx="159.74" ry="183.14" transform="translate(-347.77 514.04) rotate(-19.19)"/><ellipse class="cls-2" cx="1346.48" cy="1285.61" rx="155.34" ry="178.1" transform="translate(-347.77 514.04) rotate(-19.19)"/><ellipse class="cls-23" cx="1346.48" cy="1285.61" rx="150.95" ry="173.06" transform="translate(-347.77 514.04) rotate(-19.19)"/><ellipse class="cls-66" cx="1346.48" cy="1285.61" rx="146.55" ry="168.02" transform="translate(-347.77 514.04) rotate(-19.19)"/><ellipse class="cls-53" cx="1346.48" cy="1285.61" rx="142.16" ry="162.98" transform="translate(-347.77 514.04) rotate(-19.19)"/><ellipse class="cls-42" cx="1346.48" cy="1285.61" rx="137.76" ry="157.95" transform="translate(-347.77 514.04) rotate(-19.19)"/><ellipse class="cls-92" cx="1346.48" cy="1285.61" rx="133.37" ry="152.91" transform="translate(-347.77 514.04) rotate(-19.19)"/><ellipse class="cls-87" cx="1346.48" cy="1285.61" rx="128.98" ry="147.87" transform="translate(-347.77 514.04) rotate(-19.19)"/><ellipse class="cls-67" cx="1346.48" cy="1285.61" rx="124.58" ry="142.83" transform="translate(-347.77 514.04) rotate(-19.19)"/><ellipse class="cls-20" cx="1346.48" cy="1285.61" rx="120.19" ry="137.79" transform="translate(-347.77 514.04) rotate(-19.19)"/><ellipse class="cls-116" cx="1346.48" cy="1285.61" rx="115.79" ry="132.75" transform="translate(-347.77 514.04) rotate(-19.19)"/><ellipse class="cls-152" cx="1346.48" cy="1285.61" rx="111.4" ry="127.71" transform="translate(-347.77 514.04) rotate(-19.19)"/><ellipse class="cls-11" cx="1346.48" cy="1285.61" rx="107" ry="122.68" transform="translate(-347.76 514.03) rotate(-19.19)"/><ellipse class="cls-29" cx="1346.48" cy="1285.61" rx="102.61" ry="117.64" transform="translate(-347.77 514.04) rotate(-19.19)"/><ellipse class="cls-99" cx="1346.48" cy="1285.61" rx="98.21" ry="112.6" transform="translate(-347.77 514.04) rotate(-19.19)"/><ellipse class="cls-22" cx="1346.48" cy="1285.61" rx="93.82" ry="107.56" transform="translate(-347.77 514.04) rotate(-19.19)"/><ellipse class="cls-119" cx="1346.48" cy="1285.61" rx="89.42" ry="102.52" transform="translate(-347.77 514.04) rotate(-19.19)"/><ellipse class="cls-90" cx="1346.48" cy="1285.61" rx="85.03" ry="97.48" transform="translate(-347.77 514.04) rotate(-19.19)"/><ellipse class="cls-108" cx="1346.48" cy="1285.61" rx="80.63" ry="92.45" transform="translate(-347.77 514.04) rotate(-19.19)"/></g><g class="cls-176"><ellipse class="cls-128" cx="1561.08" cy="1390.91" rx="199.29" ry="228.48" transform="translate(-195.46 2525) rotate(-74.55)"/><ellipse class="cls-4" cx="1561.08" cy="1390.91" rx="194.9" ry="223.45" transform="translate(-195.46 2524.99) rotate(-74.55)"/><ellipse class="cls-163" cx="1561.08" cy="1390.91" rx="190.5" ry="218.41" transform="translate(-195.46 2525) rotate(-74.55)"/><ellipse class="cls-157" cx="1561.08" cy="1390.91" rx="186.11" ry="213.37" transform="translate(-195.46 2525) rotate(-74.55)"/><ellipse class="cls-131" cx="1561.08" cy="1390.91" rx="181.71" ry="208.33" transform="translate(-195.46 2524.99) rotate(-74.55)"/><ellipse class="cls-47" cx="1561.08" cy="1390.91" rx="177.32" ry="203.29" transform="translate(-195.46 2525) rotate(-74.55)"/><ellipse class="cls-43" cx="1561.08" cy="1390.91" rx="172.92" ry="198.25" transform="translate(-195.46 2525) rotate(-74.55)"/><ellipse class="cls-69" cx="1561.08" cy="1390.91" rx="168.53" ry="193.21" transform="translate(-195.46 2525) rotate(-74.55)"/><ellipse class="cls-15" cx="1561.08" cy="1390.91" rx="164.13" ry="188.18" transform="translate(-195.46 2525) rotate(-74.55)"/><ellipse class="cls-27" cx="1561.08" cy="1390.91" rx="159.74" ry="183.14" transform="translate(-195.46 2525) rotate(-74.55)"/><ellipse class="cls-2" cx="1561.08" cy="1390.91" rx="155.34" ry="178.1" transform="translate(-195.46 2525) rotate(-74.55)"/><ellipse class="cls-23" cx="1561.08" cy="1390.91" rx="150.95" ry="173.06" transform="translate(-195.46 2525) rotate(-74.55)"/><ellipse class="cls-66" cx="1561.08" cy="1390.91" rx="146.55" ry="168.02" transform="translate(-195.46 2525) rotate(-74.55)"/><ellipse class="cls-53" cx="1561.08" cy="1390.91" rx="142.16" ry="162.98" transform="translate(-195.46 2525) rotate(-74.55)"/><ellipse class="cls-42" cx="1561.08" cy="1390.91" rx="137.76" ry="157.95" transform="translate(-195.46 2525) rotate(-74.55)"/><ellipse class="cls-92" cx="1561.08" cy="1390.91" rx="133.37" ry="152.91" transform="translate(-195.46 2525) rotate(-74.55)"/><ellipse class="cls-87" cx="1561.08" cy="1390.91" rx="128.98" ry="147.87" transform="translate(-195.46 2525) rotate(-74.55)"/><ellipse class="cls-67" cx="1561.08" cy="1390.91" rx="124.58" ry="142.83" transform="translate(-195.46 2524.99) rotate(-74.55)"/><ellipse class="cls-20" cx="1561.08" cy="1390.91" rx="120.19" ry="137.79" transform="translate(-195.46 2525) rotate(-74.55)"/><ellipse class="cls-116" cx="1561.08" cy="1390.91" rx="115.79" ry="132.75" transform="translate(-195.46 2525) rotate(-74.55)"/><ellipse class="cls-152" cx="1561.08" cy="1390.91" rx="111.4" ry="127.71" transform="translate(-195.46 2525) rotate(-74.55)"/><ellipse class="cls-11" cx="1561.08" cy="1390.91" rx="107" ry="122.68" transform="translate(-195.46 2525) rotate(-74.55)"/><ellipse class="cls-29" cx="1561.08" cy="1390.91" rx="102.61" ry="117.64" transform="translate(-195.46 2524.99) rotate(-74.55)"/><ellipse class="cls-99" cx="1561.08" cy="1390.91" rx="98.21" ry="112.6" transform="translate(-195.46 2525) rotate(-74.55)"/><ellipse class="cls-22" cx="1561.08" cy="1390.91" rx="93.82" ry="107.56" transform="translate(-195.46 2524.99) rotate(-74.55)"/><ellipse class="cls-119" cx="1561.08" cy="1390.91" rx="89.42" ry="102.52" transform="translate(-195.46 2525) rotate(-74.55)"/><ellipse class="cls-90" cx="1561.08" cy="1390.91" rx="85.03" ry="97.48" transform="translate(-195.46 2525) rotate(-74.55)"/><ellipse class="cls-108" cx="1561.08" cy="1390.91" rx="80.63" ry="92.44" transform="translate(-195.46 2524.99) rotate(-74.55)"/></g><path class="cls-122" d="m1807.58,1411.25l-24.98,29.72c-1.97,4.04-4.95,7.53-8.57,10.23l-.13.13-.05-.03c-4.58,3.34-10.2,5.36-16.42,5.36h-407.98c-15.58,0-29.15-10.72-32.75-25.92l-71.07-299.97-17.22-72.6c-.36-1.55-.54-3.11-.54-4.63,0-4.48,1.53-8.73,4.12-12.12.52-.7,1.09-1.37,1.68-1.99l29.59-34.56,3.42,2.51,35.37,26.07h364.15c15.51,0,28.95,10.64,32.52,25.71l77.96,328.96,30.91,23.12Z"/><path class="cls-101" d="m1783.5,1424.92h-407.96c-15.61,0-29.18-10.72-32.78-25.92l-71.61-302.24-16.67-70.32c-2.98-12.61,6.6-24.73,19.55-24.73h418.26c15.48,0,28.94,10.64,32.49,25.71l16.44,69.33,69.59,293.65c4.17,17.61-9.19,34.51-27.31,34.51Z"/><path class="cls-143" d="m1271.15,1096.75l-25.53,34.02-17.22-72.6c-.36-1.55-.54-3.11-.54-4.63,0-4.48,1.53-8.73,4.12-12.12.52-.7,1.09-1.37,1.68-1.99l29.59-34.56,3.42,2.51,4.48,89.37Z"/><path class="cls-137" d="m1741.22,1096.75h-470.07l-16.67-70.32c-2.98-12.61,6.6-24.73,19.55-24.73h418.26c15.48,0,28.94,10.64,32.49,25.71l16.44,69.33Z"/><path class="cls-127" d="m1741.22,1096.75h-470.07l133.87,251.76c6.73,12.66,22.5,21.59,38.11,21.59h407.96c18.12,0,28-14.08,20.21-28.75l-130.08-244.6Z"/><path class="cls-46" d="m1424.1,1146.51h-45.02c-1.13,0-1.86,1.21-1.33,2.21l12.99,24.43c.71,1.34,2.38,2.28,4.03,2.28h43.16c1.92,0,2.96-1.49,2.14-3.04l-12.73-23.93c-.64-1.2-1.89-1.95-3.24-1.95Z"/><path class="cls-79" d="m1444.78,1183.83h-45.02c-1.13,0-1.86,1.21-1.33,2.21l12.99,24.43c.71,1.34,2.38,2.28,4.03,2.28h43.16c1.92,0,2.96-1.49,2.14-3.04l-12.73-23.93c-.64-1.2-1.89-1.95-3.24-1.95Z"/><path class="cls-10" d="m1465.45,1221.15h-45.02c-1.13,0-1.86,1.21-1.33,2.21l12.99,24.43c.71,1.34,2.38,2.28,4.03,2.28h43.16c1.92,0,2.96-1.49,2.14-3.04l-12.73-23.93c-.64-1.2-1.89-1.95-3.24-1.95Z"/><path class="cls-54" d="m1486.13,1258.46h-45.02c-1.13,0-1.86,1.21-1.33,2.21l12.99,24.43c.71,1.34,2.38,2.28,4.03,2.28h43.16c1.92,0,2.96-1.49,2.14-3.04l-12.73-23.93c-.64-1.2-1.89-1.95-3.24-1.95Z"/><path class="cls-77" d="m1506.8,1295.78h-45.02c-1.13,0-1.86,1.21-1.33,2.21l12.99,24.43c.71,1.34,2.38,2.28,4.03,2.28h43.16c1.92,0,2.96-1.49,2.14-3.04l-12.73-23.93c-.64-1.2-1.89-1.95-3.24-1.95Z"/><g class="cls-175"><path class="cls-114" d="m1549.67,1146.51h-45.02c-1.13,0-1.86,1.21-1.33,2.21l12.99,24.43c.71,1.34,2.38,2.28,4.03,2.28h43.16c1.92,0,2.96-1.49,2.14-3.04l-12.73-23.93c-.64-1.2-1.89-1.95-3.24-1.95Z"/><path class="cls-160" d="m1486.88,1146.51h-45.02c-1.13,0-1.86,1.21-1.33,2.21l12.99,24.43c.71,1.34,2.38,2.28,4.03,2.28h43.16c1.92,0,2.96-1.49,2.14-3.04l-12.73-23.93c-.64-1.2-1.89-1.95-3.24-1.95Z"/><path class="cls-1" d="m1612.45,1146.51h-45.02c-1.13,0-1.86,1.21-1.33,2.21l12.99,24.43c.71,1.34,2.38,2.28,4.03,2.28h43.16c1.92,0,2.96-1.49,2.14-3.04l-12.73-23.93c-.64-1.2-1.89-1.95-3.24-1.95Z"/><path class="cls-91" d="m1675.23,1146.51h-45.02c-1.13,0-1.86,1.21-1.33,2.21l12.99,24.43c.71,1.34,2.38,2.28,4.03,2.28h43.16c1.92,0,2.96-1.49,2.14-3.04l-12.73-23.93c-.64-1.2-1.89-1.95-3.24-1.95Z"/><path class="cls-61" d="m1507.56,1183.83h-45.02c-1.13,0-1.86,1.21-1.33,2.21l12.99,24.43c.71,1.34,2.38,2.28,4.03,2.28h43.16c1.92,0,2.96-1.49,2.14-3.04l-12.73-23.93c-.64-1.2-1.89-1.95-3.24-1.95Z"/><path class="cls-59" d="m1570.34,1183.83h-45.02c-1.13,0-1.86,1.21-1.33,2.21l12.99,24.43c.71,1.34,2.38,2.28,4.03,2.28h43.16c1.92,0,2.96-1.49,2.14-3.04l-12.73-23.93c-.64-1.2-1.89-1.95-3.24-1.95Z"/><path class="cls-30" d="m1633.12,1183.83h-45.02c-1.13,0-1.86,1.21-1.33,2.21l12.99,24.43c.71,1.34,2.38,2.28,4.03,2.28h43.16c1.92,0,2.96-1.49,2.14-3.04l-12.73-23.93c-.64-1.2-1.89-1.95-3.24-1.95Z"/><path class="cls-70" d="m1695.91,1183.83h-45.02c-1.13,0-1.86,1.21-1.33,2.21l12.99,24.43c.71,1.34,2.38,2.28,4.03,2.28h43.16c1.92,0,2.96-1.49,2.14-3.04l-12.73-23.93c-.64-1.2-1.89-1.95-3.24-1.95Z"/><path class="cls-130" d="m1528.24,1221.15h-45.02c-1.13,0-1.86,1.21-1.33,2.21l12.99,24.43c.71,1.34,2.38,2.28,4.03,2.28h43.16c1.92,0,2.96-1.49,2.14-3.04l-12.73-23.93c-.64-1.2-1.89-1.95-3.24-1.95Z"/><path class="cls-86" d="m1591.02,1221.15h-45.02c-1.13,0-1.86,1.21-1.33,2.21l12.99,24.43c.71,1.34,2.38,2.28,4.03,2.28h43.16c1.92,0,2.96-1.49,2.14-3.04l-12.73-23.93c-.64-1.2-1.89-1.95-3.24-1.95Z"/><path class="cls-138" d="m1653.8,1221.15h-45.02c-1.13,0-1.86,1.21-1.33,2.21l12.99,24.43c.71,1.34,2.38,2.28,4.03,2.28h43.16c1.92,0,2.96-1.49,2.14-3.04l-12.73-23.93c-.64-1.2-1.89-1.95-3.24-1.95Z"/><path class="cls-120" d="m1716.58,1221.15h-45.02c-1.13,0-1.86,1.21-1.33,2.21l12.99,24.43c.71,1.34,2.38,2.28,4.03,2.28h43.16c1.92,0,2.96-1.49,2.14-3.04l-12.73-23.93c-.64-1.2-1.89-1.95-3.24-1.95Z"/><path class="cls-115" d="m1548.91,1258.46h-45.02c-1.13,0-1.86,1.21-1.33,2.21l12.99,24.43c.71,1.34,2.38,2.28,4.03,2.28h43.16c1.92,0,2.96-1.49,2.14-3.04l-12.73-23.93c-.64-1.2-1.89-1.95-3.24-1.95Z"/><path class="cls-117" d="m1611.69,1258.46h-45.02c-1.13,0-1.86,1.21-1.33,2.21l12.99,24.43c.71,1.34,2.38,2.28,4.03,2.28h43.16c1.92,0,2.96-1.49,2.14-3.04l-12.73-23.93c-.64-1.2-1.89-1.95-3.24-1.95Z"/><path class="cls-78" d="m1674.48,1258.46h-45.02c-1.13,0-1.86,1.21-1.33,2.21l12.99,24.43c.71,1.34,2.38,2.28,4.03,2.28h43.16c1.92,0,2.96-1.49,2.14-3.04l-12.73-23.93c-.64-1.2-1.89-1.95-3.24-1.95Z"/><path class="cls-126" d="m1737.26,1258.46h-45.02c-1.13,0-1.86,1.21-1.33,2.21l12.99,24.43c.71,1.34,2.38,2.28,4.03,2.28h43.16c1.92,0,2.96-1.49,2.14-3.04l-12.73-23.93c-.64-1.2-1.89-1.95-3.24-1.95Z"/><path class="cls-85" d="m1569.59,1295.78h-45.02c-1.13,0-1.86,1.21-1.33,2.21l12.99,24.43c.71,1.34,2.38,2.28,4.03,2.28h43.16c1.92,0,2.96-1.49,2.14-3.04l-12.73-23.93c-.64-1.2-1.89-1.95-3.24-1.95Z"/><path class="cls-109" d="m1632.37,1295.78h-45.02c-1.13,0-1.86,1.21-1.33,2.21l12.99,24.43c.71,1.34,2.38,2.28,4.03,2.28h43.16c1.92,0,2.96-1.49,2.14-3.04l-12.73-23.93c-.64-1.2-1.89-1.95-3.24-1.95Z"/><path class="cls-73" d="m1695.15,1295.78h-45.02c-1.13,0-1.86,1.21-1.33,2.21l12.99,24.43c.71,1.34,2.38,2.28,4.03,2.28h43.16c1.92,0,2.96-1.49,2.14-3.04l-12.73-23.93c-.64-1.2-1.89-1.95-3.24-1.95Z"/><path class="cls-74" d="m1757.93,1295.78h-45.02c-1.13,0-1.86,1.21-1.33,2.21l12.99,24.43c.71,1.34,2.38,2.28,4.03,2.28h43.16c1.92,0,2.96-1.49,2.14-3.04l-12.73-23.93c-.64-1.2-1.89-1.95-3.24-1.95Z"/></g><line class="cls-169" x1="1447.31" y1="1150.21" x2="1495.58" y2="1170.25"/><line class="cls-169" x1="1484.5" y1="1150.21" x2="1456.28" y2="1171.57"/><line class="cls-169" x1="1572.42" y1="1149.55" x2="1620.69" y2="1169.59"/><line class="cls-169" x1="1609.61" y1="1149.55" x2="1581.39" y2="1170.91"/><line class="cls-169" x1="1552.11" y1="1224.92" x2="1600.37" y2="1244.97"/><line class="cls-169" x1="1589.3" y1="1224.92" x2="1561.08" y2="1246.29"/><line class="cls-169" x1="1531.07" y1="1299.56" x2="1579.34" y2="1319.61"/><line class="cls-169" x1="1568.26" y1="1299.56" x2="1540.04" y2="1320.93"/><polyline class="cls-169" points="1517.72 1269.15 1533.77 1281.42 1548.76 1265.62"/><polyline class="cls-169" points="1639.86 1156.6 1655.92 1168.87 1670.9 1153.07"/><path class="cls-39" d="m1258.04,1028.87c-2.98-12.61,6.6-24.73,19.55-24.73h418.26c6.23,0,12.12,1.75,17.18,4.79-5.75-4.56-12.99-7.22-20.75-7.22h-418.26c-12.95,0-22.52,12.12-19.55,24.73l16.67,70.32h2.99l-16.1-67.88Z"/><ellipse class="cls-75" cx="1346.48" cy="1052.87" rx="13.68" ry="16.34" transform="translate(-339.21 1335.73) rotate(-47.55)"/><path class="cls-19" d="m1370.02,1010.92l-4.1-15.59c-2.55-9.68-9.78-17.21-19.36-20.14-2.79-.85-5.64-1.27-8.46-1.27-6.84,0-13.52,2.47-18.85,7.14l-23.55,20.66h11.78l16.89-14.82c3.89-3.41,8.76-5.21,13.75-5.21,2.06,0,4.13.31,6.17.93,6.98,2.13,12.26,7.63,14.12,14.69l4.1,15.59c3.66,13.92-8.36,36.76-20.5,44.3h7.54l1.35-.77c15.93-9.07,23.79-27.78,19.13-45.51Z"/><path class="cls-50" d="m1362.48,1010.92l-4.1-15.59c-2.55-9.68-9.78-17.21-19.36-20.14-2.79-.85-5.64-1.27-8.46-1.27-6.84,0-13.52,2.47-18.85,7.14l-23.55,20.66h11.78l16.89-14.82c3.89-3.41,8.76-5.21,13.75-5.21,2.06,0,4.13.31,6.17.93,6.98,2.13,12.26,7.63,14.12,14.69l4.1,15.59c3.66,13.92-2.26,28.58-14.41,36.12l1.44,8.18,1.35-.77c15.93-9.07,23.79-27.78,19.13-45.51Z"/><ellipse class="cls-75" cx="1427.89" cy="1052.87" rx="13.68" ry="16.34" transform="translate(-312.75 1395.79) rotate(-47.55)"/><path class="cls-81" d="m1451.43,1010.92l-4.1-15.59c-2.55-9.68-9.78-17.21-19.36-20.14-2.79-.85-5.64-1.27-8.46-1.27-6.84,0-13.52,2.47-18.85,7.14l-23.55,20.66h11.78l16.89-14.82c3.89-3.41,8.76-5.21,13.75-5.21,2.06,0,4.13.31,6.17.93,6.98,2.13,12.26,7.63,14.12,14.69l4.1,15.59c3.66,13.92-8.36,36.76-20.5,44.3h7.54l1.35-.77c15.93-9.07,23.79-27.78,19.13-45.51Z"/><path class="cls-80" d="m1443.89,1010.92l-4.1-15.59c-2.55-9.68-9.78-17.21-19.36-20.14-2.79-.85-5.64-1.27-8.46-1.27-6.84,0-13.52,2.47-18.85,7.14l-23.55,20.66h11.78l16.89-14.82c3.89-3.41,8.76-5.21,13.75-5.21,2.06,0,4.13.31,6.17.93,6.98,2.13,12.26,7.63,14.12,14.69l4.1,15.59c3.66,13.92-2.26,28.58-14.41,36.12l1.44,8.18,1.35-.77c15.93-9.07,23.79-27.78,19.13-45.51Z"/><ellipse class="cls-75" cx="1587.26" cy="1052.87" rx="13.68" ry="16.34" transform="translate(-260.94 1513.4) rotate(-47.55)"/><path class="cls-123" d="m1610.8,1010.92l-4.1-15.59c-2.55-9.68-9.78-17.21-19.36-20.14-2.79-.85-5.64-1.27-8.46-1.27-6.84,0-13.52,2.47-18.85,7.14l-23.55,20.66h11.78l16.89-14.82c3.89-3.41,8.76-5.21,13.75-5.21,2.06,0,4.13.31,6.17.93,6.98,2.13,12.26,7.63,14.12,14.69l4.1,15.59c3.66,13.92-8.36,36.76-20.5,44.3h7.54l1.35-.77c15.93-9.07,23.79-27.78,19.13-45.51Z"/><path class="cls-13" d="m1603.26,1010.92l-4.1-15.59c-2.55-9.68-9.78-17.21-19.36-20.14-2.79-.85-5.64-1.27-8.46-1.27-6.84,0-13.52,2.47-18.85,7.14l-23.55,20.66h11.78l16.89-14.82c3.89-3.41,8.76-5.21,13.75-5.21,2.06,0,4.13.31,6.17.93,6.98,2.13,12.26,7.63,14.12,14.69l4.1,15.59c3.66,13.92-2.26,28.58-14.41,36.12l1.44,8.18,1.35-.77c15.93-9.07,23.79-27.78,19.13-45.51Z"/><ellipse class="cls-75" cx="1668.67" cy="1052.87" rx="13.68" ry="16.34" transform="translate(-234.48 1573.46) rotate(-47.55)"/><path class="cls-52" d="m1692.21,1010.92l-4.1-15.59c-2.55-9.68-9.78-17.21-19.36-20.14-2.79-.85-5.64-1.27-8.46-1.27-6.84,0-13.52,2.47-18.85,7.14l-23.55,20.66h11.78l16.89-14.82c3.89-3.41,8.76-5.21,13.75-5.21,2.06,0,4.13.31,6.17.93,6.98,2.13,12.26,7.63,14.12,14.69l4.1,15.59c3.66,13.92-8.36,36.76-20.5,44.3h7.54l1.35-.77c15.93-9.07,23.79-27.78,19.13-45.51Z"/><path class="cls-139" d="m1684.67,1010.92l-4.1-15.59c-2.55-9.68-9.78-17.21-19.36-20.14-2.79-.85-5.64-1.27-8.46-1.27-6.84,0-13.52,2.47-18.85,7.14l-23.55,20.66h11.78l16.89-14.82c3.89-3.41,8.76-5.21,13.75-5.21,2.06,0,4.13.31,6.17.93,6.98,2.13,12.26,7.63,14.12,14.69l4.1,15.59c3.66,13.92-2.26,28.58-14.41,36.12l1.44,8.18,1.35-.77c15.93-9.07,23.79-27.78,19.13-45.51Z"/><path class="cls-113" d="m823.98,304.65c82.11,10.25,152.43-48.55,157.02-131.32,4.59-82.77-58.28-158.17-140.39-168.42-82.11-10.25-152.39,48.52-156.98,131.29s58.23,158.21,140.35,168.46"/><path class="cls-62" d="m994.5,167.24c-1.3,29.59-11.06,56.08-26.78,77.34-27.64,37.4-73.74,58.61-124.79,52.17-25.66-3.23-49.44-13.06-69.82-27.61-43.27-30.89-71.14-83.04-68.7-138.53,3.61-81.61,71.43-139.58,151.54-129.47,80.09,10.11,142.16,84.47,138.55,166.1Z"/><path class="cls-75" d="m865.37,113.9c9.76-6.96,16.28-18.33,16.88-31.89,1.08-24.53-17.57-46.88-41.64-49.92-24.08-3.04-44.46,14.38-45.54,38.91-.85,19.33,10.56,37.27,27.21,45.51-29.33,10.23-50.51,37.51-52.03,72.03-.88,19.9,4.91,39.08,15.35,55.08,15.97,11.41,34.62,19.11,54.72,21.64,40.01,5.05,76.14-11.58,97.8-40.89,1-4.63,1.62-9.44,1.84-14.4,2-45.53-30.91-87.16-74.59-96.08Z"/><path class="cls-18" d="m846.59,292.76c-25.66-3.23-49.44-13.06-69.83-27.61-43.27-30.89-71.14-83.04-68.7-138.53,1.5-33.89,14.1-63.69,34.03-86.24-22.05,22.97-36.09,54.31-37.68,90.24-2.44,55.49,25.44,107.64,68.7,138.53,20.38,14.55,44.17,24.38,69.83,27.61,46.51,5.87,88.86-11.27,116.93-42.63-28.03,28.83-68.77,44.25-113.29,38.64Z"/><path class="cls-134" d="m1003.09,342.71c51.32,6.41,95.27-30.35,98.14-82.08s-36.42-98.86-87.74-105.27c-51.32-6.41-95.24,30.32-98.11,82.05-2.87,51.73,36.4,98.88,87.72,105.29"/><path class="cls-96" d="m1109.67,256.83c-.81,18.49-6.91,35.05-16.74,48.34-17.27,23.37-46.09,36.63-77.99,32.61-16.04-2.02-30.9-8.16-43.64-17.26-27.04-19.31-44.46-51.9-42.94-86.58,2.25-51.01,44.64-87.24,94.71-80.92,50.06,6.32,88.85,52.79,86.59,103.81Z"/><path class="cls-75" d="m1065.71,227.72h-29.01v-29.01c0-7.51-6.09-13.6-13.6-13.6h-8.16c-7.51,0-13.6,6.09-13.6,13.6v29.01h-29.01c-7.51,0-13.6,6.09-13.6,13.6v8.16c0,7.51,6.09,13.6,13.6,13.6h29.01v29.01c0,7.51,6.09,13.6,13.6,13.6h8.16c7.51,0,13.6-6.09,13.6-13.6v-29.01h29.01c7.51,0,13.6-6.09,13.6-13.6v-8.16c0-7.51-6.09-13.6-13.6-13.6Z"/><path class="cls-147" d="m1017.98,334.44c-16.04-2.02-30.9-8.16-43.64-17.26-27.04-19.31-44.46-51.9-42.94-86.58.92-20.73,8.46-39.02,20.46-53-13.75,14.35-22.5,33.92-23.49,56.34-1.53,34.68,15.9,67.27,42.94,86.58,12.74,9.1,27.61,15.24,43.64,17.26,29.51,3.72,56.36-7.36,73.89-27.54-17.52,18.06-43.01,27.72-70.86,24.2Z"/><g class="cls-173"><ellipse class="cls-128" cx="207.19" cy="957.56" rx="194.76" ry="41.44"/><ellipse class="cls-4" cx="207.19" cy="957.56" rx="190.46" ry="40.53"/><ellipse class="cls-163" cx="207.19" cy="957.56" rx="186.17" ry="39.62"/><ellipse class="cls-157" cx="207.19" cy="957.56" rx="181.87" ry="38.7"/><ellipse class="cls-131" cx="207.19" cy="957.56" rx="177.58" ry="37.79"/><ellipse class="cls-47" cx="207.19" cy="957.56" rx="173.29" ry="36.88"/><ellipse class="cls-43" cx="207.19" cy="957.56" rx="168.99" ry="35.96"/><ellipse class="cls-69" cx="207.19" cy="957.56" rx="164.7" ry="35.05"/><ellipse class="cls-15" cx="207.19" cy="957.56" rx="160.4" ry="34.13"/><ellipse class="cls-27" cx="207.19" cy="957.56" rx="156.11" ry="33.22"/><ellipse class="cls-2" cx="207.19" cy="957.56" rx="151.81" ry="32.31"/><ellipse class="cls-23" cx="207.19" cy="957.56" rx="147.52" ry="31.39"/><ellipse class="cls-66" cx="207.19" cy="957.56" rx="143.22" ry="30.48"/><ellipse class="cls-53" cx="207.19" cy="957.56" rx="138.93" ry="29.56"/><ellipse class="cls-42" cx="207.19" cy="957.56" rx="134.63" ry="28.65"/><ellipse class="cls-92" cx="207.19" cy="957.56" rx="130.34" ry="27.74"/><ellipse class="cls-87" cx="207.19" cy="957.56" rx="126.04" ry="26.82"/><ellipse class="cls-67" cx="207.19" cy="957.56" rx="121.75" ry="25.91"/><ellipse class="cls-20" cx="207.19" cy="957.56" rx="117.45" ry="24.99"/><ellipse class="cls-116" cx="207.19" cy="957.56" rx="113.16" ry="24.08"/><ellipse class="cls-152" cx="207.19" cy="957.56" rx="108.86" ry="23.17"/><ellipse class="cls-11" cx="207.19" cy="957.56" rx="104.57" ry="22.25"/><ellipse class="cls-29" cx="207.19" cy="957.56" rx="100.27" ry="21.34"/><ellipse class="cls-99" cx="207.19" cy="957.56" rx="95.98" ry="20.42"/><ellipse class="cls-22" cx="207.19" cy="957.56" rx="91.68" ry="19.51"/><ellipse class="cls-119" cx="207.19" cy="957.56" rx="87.39" ry="18.6"/><ellipse class="cls-90" cx="207.19" cy="957.56" rx="83.09" ry="17.68"/><ellipse class="cls-108" cx="207.19" cy="957.56" rx="78.8" ry="16.77"/></g><path class="cls-49" d="m207.22,648.95v186.33c0,4.95-2.64,9.52-6.91,11.98l-63.01,36.32c-2.44,1.41-5.15,1.48-7.46.6-3.21-1.23-5.68-4.29-5.68-8.19v-179.95c0-9.34,5-17.98,13.11-22.65l56.18-32.4c1.48-.85,3.04-1.23,4.57-1.23.93,0,1.81.15,2.69.43,3.64,1.11,6.5,4.45,6.5,8.77Z"/><path class="cls-136" d="m198.03,639.76c-1.53,0-3.09.38-4.57,1.23l-56.18,32.4c-8.11,4.67-13.11,13.31-13.11,22.65v179.95c0,3.89,2.46,6.96,5.68,8.19H60.95c-3.22-1.21-5.68-4.27-5.68-8.19v-179.95c0-9.34,5-17.98,13.08-22.65l56.21-32.4c2.36-1.36,4.95-1.53,7.26-.8l.38-.43h65.83Z"/><path class="cls-40" d="m261.18,668.2v154.66c0,4.11-2.19,7.9-5.73,9.94l-52.3,30.14c-2.02,1.17-4.27,1.23-6.19.5-2.67-1.02-4.71-3.56-4.71-6.8v-149.37c0-7.76,4.15-14.93,10.88-18.8l46.63-26.89c1.23-.71,2.52-1.02,3.79-1.02.77,0,1.5.13,2.23.35,3.02.92,5.4,3.69,5.4,7.28Z"/><path class="cls-150" d="m253.55,660.57c-1.27,0-2.57.31-3.79,1.02l-46.63,26.89c-6.73,3.88-10.88,11.05-10.88,18.8v149.37c0,3.23,2.04,5.77,4.71,6.8h-57.18c-2.67-1-4.71-3.54-4.71-6.8v-149.37c0-7.76,4.15-14.93,10.86-18.8l46.66-26.89c1.96-1.13,4.11-1.27,6.03-.67l.31-.35h54.64Z"/><path class="cls-168" d="m416.73,834.97c-1.99,1.37-4.28,2.27-6.67,2.65l6.67-2.65Z"/><path class="cls-26" d="m433.82,778.31c-2.13,4.83-8.54,17.84-10.67,18.64l-39.15,18.43c2.29-1.47,8.38-13.86,10.43-18.52,2.32-5.28-5.56-19.26-5.56-19.26l.05-.02,39.32-18.53s7.88,14.01,5.58,19.26Z"/><path class="cls-94" d="m433.34,712.66l-39.37,18.55s11.57,10.67,10.2,23.64c-1.35,12.59-14.46,22.14-15.26,22.74l-.05.02s7.88,13.98,5.56,19.26c-2.06,4.66-8.14,17.06-10.43,18.52l-.24.12c1.77,1.47,6.86,7.52,6.51,18.36-.07,1.85-.4,3.6-.95,5.23-1.77.12-3.64.24-5.56.35-30.9,1.92-77.25,4.35-89,2.53-18.07-2.77-48.19-17.6-48.19-17.6l-39.37-125.6,39.37-18.55s8.8,1.32,19.45,1.16c11.19-.14,24.42-1.92,31.54-8.56,5.39-5.04,11.12-14.57,16.23-25.86,6.93-15.26,12.73-33.69,15.07-48.29,2.1,5.25,3.26,11.59,3.03,19.33-1.4,43.22-2.32,77.98-2.32,77.98l39.37-18.52s57.47-6.51,64.42,1.37c6.96,7.88,0,33.83,0,33.83Z"/><path class="cls-148" d="m388.91,777.58l-.05.02s7.88,13.98,5.56,19.26c-2.06,4.66-8.14,17.06-10.43,18.52l-.24.12c1.77,1.47,6.86,7.52,6.51,18.36-.07,1.85-.4,3.6-.95,5.23-1.16,3.5-3.24,6.51-5.56,8.99-2.46,2.63-5.18,4.66-7.24,6.01-1.99,1.3-4.28,2.06-6.65,2.22-17.32,1.21-98.35-3.88-114.48-6.34-18.08-2.79-48.19-23.41-48.19-23.41v-127.8s22.83,3.43,39.37-1.4c4.54-1.3,8.61-3.24,11.62-6.03,2.58-2.39,5.21-5.82,7.83-9.96,11.55-18.31,22.59-50.72,24.32-71.14,2.01-23.73.21-34.87.02-35.96l-.02-.09s28.94.4,38.52,24.49c2.1,5.25,3.26,11.59,3.03,19.33-1.4,43.22-2.32,77.98-2.32,77.98,0,0,57.47-6.48,64.42,1.4,6.96,7.88,0,33.83,0,33.83,0,0,11.57,10.67,10.2,23.64-1.35,12.59-14.46,22.14-15.26,22.74Z"/><path class="cls-165" d="m371.24,599.47c-1.4,43.2-2.32,77.98-2.32,77.98l-39.37,18.52s.92-34.75,2.32-77.98c.24-7.74-.92-14.08-3.03-19.33-9.58-24.08-38.52-24.49-38.52-24.49l39.39-18.52s42.92.61,41.52,43.82Z"/><path class="cls-161" d="m429.63,815.31c-.31,9.49-7.9,16.23-12.89,19.66l-6.67,2.65-26.31,10.46c2.32-2.48,4.4-5.49,5.56-8.99.54-1.63.87-3.38.95-5.23.35-10.84-4.73-16.89-6.51-18.36l.24-.12,39.15-18.43c1.8,1.51,6.84,7.55,6.48,18.36Z"/><path class="cls-38" d="m443.54,736.32c-1.4,12.96-15.31,22.74-15.31,22.74l-39.32,18.53c.81-.59,13.91-10.15,15.26-22.74,1.37-12.96-10.2-23.64-10.2-23.64l39.37-18.55s11.59,10.67,10.2,23.66Z"/><path class="cls-105" d="m1501.29,484.05c-7.92,9.61-16.96,20.57-21.91,26.53-2.29,2.76-4.02,5.89-5.15,9.25-9.75,29.23-35.22,49.88-68.46,51.26-48.27,2.01-94.62-37.37-103.51-87.95-8.89-50.58,23.03-93.21,71.31-95.22,24.82-1.03,49.11,8.88,68.07,25.62,9.42,8.32,28.53,12.62,35.96,3.58l-4.54-4.81c6.17-7.52,5.26-18.49-2.28-25.67-28.53-27.18-66.25-43.52-104.81-41.92-71.04,2.95-118.03,65.69-104.94,140.13,13.09,74.44,81.28,132.38,152.33,129.43,65.83-2.74,111.01-56.81,106.86-123.96,0-.05,8.46-1.34,8.45-1.4-.61-9.07-21.63-11.87-27.4-4.88Z"/><path class="cls-107" d="m1512.56,485.92c-7.92,9.61-16.96,20.57-21.91,26.53-2.29,2.76-4.02,5.89-5.15,9.25-9.75,29.23-35.22,49.88-68.46,51.26-48.27,2.01-94.62-37.37-103.51-87.95-8.89-50.58,23.03-93.21,71.31-95.22,24.82-1.03,49.11,8.88,68.07,25.62,9.42,8.32,24,7.82,31.42-1.23h0c6.17-7.52,5.26-18.49-2.28-25.67-28.53-27.18-66.25-43.52-104.81-41.92-71.04,2.95-118.03,65.69-104.94,140.13,13.09,74.44,81.28,132.38,152.33,129.43,65.83-2.74,111.01-56.81,106.86-123.96,0-.05,0-.11-.01-.16-.61-9.07-13.17-13.1-18.93-6.11Z"/><path class="cls-132" d="m1435.92,522.43c-.97.04-1.95.05-2.94.04-14.42-.2-28.16-6.24-37.87-16.6l-60.04-57.16c-9.26-8.81-9.5-22.5-.53-30.57,8.97-8.07,31.82-10.49,41.08-1.68l52.55,60.75c.46.44.91.9,1.33,1.37.15.17.54.61,1.37.62.82.02,1.18-.42,1.31-.58l81.61-99.41c7.58-9.23,27.92-14.06,38.35-6.47,10.43,7.59,6.99,24.73-.59,33.96l-81.61,99.42c-8.12,9.9-20.41,15.75-34.04,16.32Z"/><path class="cls-112" d="m1447.19,521.96c-.97.04-1.95.05-2.94.04-14.42-.2-28.16-6.24-37.87-16.6l-60.04-57.16c-9.26-8.81-9.5-22.5-.53-30.57,8.97-8.07,23.75-7.46,33,1.35l60.62,57.72c.46.44.91.9,1.33,1.37.15.17.54.61,1.37.62.82.02,1.18-.42,1.31-.58l81.61-99.41c7.58-9.23,22.17-10.56,32.6-2.96,10.43,7.59,12.74,21.23,5.17,30.46l-81.6,99.42c-8.12,9.9-20.41,15.75-34.04,16.32Z"/><path class="cls-149" d="m1200.87,765.84l.04-.11c.24-.55.46-1.12.69-1.65.23-.53.49-1.08.73-1.58.05-.13.12-.25.19-.37.04-.11.11-.21.15-.32.17-.31.32-.62.48-.91.28-.54.58-1.05.87-1.55.13-.2.25-.38.37-.58.07-.12.17-.26.25-.38.13-.2.25-.4.38-.6.36-.56.74-1.08,1.13-1.58.11-.16.22-.26.33-.4.13-.15.24-.3.37-.45.2-.25.4-.52.61-.74.43-.48.85-.92,1.29-1.34.08-.09.16-.16.22-.24.03-.01.07-.05.08-.07.35-.34.73-.66,1.09-.97,0-.02.04-.03.07-.05.34-.29.69-.58,1.04-.84.03-.01.06-.03.07-.05.13-.07.23-.14.33-.22.67-.46,1.33-.88,2.02-1.24.26-.15.5-.26.77-.38.59-.3,1.18-.54,1.76-.76.26-.1.49-.18.75-.26.85-.27,1.68-.49,2.53-.64l376.93-63.64c-.05,0-.11.03-.17.06-.34.04-.67.12-1,.21-.06.03-.13.02-.19.05-.27.07-.59.17-.87.26-.25.08-.51.17-.75.26-.31.1-.6.21-.9.35-.3.13-.6.27-.88.41-.3.13-.6.27-.89.45-.29.16-.58.35-.88.53-.29.16-.58.35-.85.54-.17.11-.3.21-.47.32-.61.43-1.19.91-1.74,1.42-.67.59-1.33,1.25-1.95,1.96-.28.29-.53.61-.81.93-.04.03-.08.07-.09.11-.09.09-.18.2-.27.32-.05.08-.11.16-.16.23-.72.89-1.39,1.87-2.04,2.92-.26.42-.5.85-.74,1.28-.26.49-.54,1.01-.8,1.5-.02.04-.06.1-.09.16-.05.06-.08.14-.11.21-.15.32-.29.61-.43.93-.42.91-.83,1.82-1.2,2.79-1.05,2.73-1.92,5.62-2.56,8.63l-.02.06s-.02.04,0,.07c-.61,2.95-1.03,5.97-1.29,9.07-.01.09-.02.17-.03.26-.04.43-.05.85-.07,1.27-.03.34-.05.7-.06,1.05-.03.78-.08,1.56-.08,2.33-.05,3.49.12,7.03.48,10.55.15,1.23.31,2.41.49,3.62.03.36.07.72.16,1.08.27,1.69.59,3.38.96,5.07,1.07,4.91,2.53,9.68,4.41,14.15.24.61.48,1.2.75,1.78.34.8.73,1.6,1.1,2.36.63,1.26,1.27,2.5,1.96,3.69,1.56,2.79,3.3,5.37,5.2,7.72.4.5.8.95,1.2,1.41.58.69,1.19,1.35,1.8,1.96.22.21.41.41.63.62.21.23.43.44.65.63v.02c.22.19.4.36.61.53.06.05.1.11.17.14.18.17.39.35.57.52.16.11.28.23.44.34.34.28.68.56,1.04.8.15.13.3.24.44.34.29.21.56.41.86.6h.02c.18.13.36.25.53.36.28.18.54.33.82.52.12.07.24.14.36.22.08.05.18.12.29.16.26.15.52.27.78.43.21.11.39.2.59.28.06.05.14.08.21.1.21.11.42.19.61.29.29.14.6.26.88.36.77.32,1.55.57,2.31.77.56.17,1.13.29,1.71.39.04.02.11.04.16.04.07,0,.12.02.19.02.66.1,1.31.16,1.97.19.09.03.18.05.26.03.12,0,.26.03.39.03.15,0,.29.01.45,0,.37,0,.75,0,1.11-.04.33-.02.66-.04,1.01-.11.18,0,.36-.03.55-.06l-377.2,63.71c-.5.08-1.02.13-1.56.17-.15.01-.33.02-.5,0l-1.06.04c-.07-.03-.12,0-.17-.02-.07,0-.15,0-.22-.01-.81-.04-1.6-.1-2.42-.24h-.02s-.12-.03-.16-.05c-.56-.09-1.13-.24-1.69-.38-.09-.03-.16-.04-.25-.07-.12-.02-.22-.06-.33-.1-.38-.12-.75-.24-1.1-.37-.14-.03-.27-.08-.4-.13l-.24-.09c-.3-.12-.58-.25-.88-.36-.14-.08-.32-.15-.49-.21-.06-.03-.12-.07-.21-.11-.23-.11-.48-.24-.7-.37-.19-.1-.38-.17-.55-.26-.08-.06-.16-.11-.24-.14-.22-.13-.42-.26-.64-.4-.19-.1-.35-.19-.53-.3-.1-.06-.2-.13-.3-.19-.18-.12-.38-.24-.56-.36-.16-.11-.29-.21-.46-.3-.14-.1-.27-.2-.4-.3-.19-.15-.37-.27-.56-.42-.09-.09-.19-.15-.28-.23-.21-.16-.42-.34-.63-.49-.15-.13-.28-.23-.43-.36-.06-.05-.1-.06-.16-.11-.41-.36-.8-.7-1.2-1.08-.39-.35-.77-.72-1.14-1.11-.06-.05-.13-.12-.18-.17-.14-.15-.27-.28-.41-.43-.2-.2-.37-.39-.57-.59-.13-.12-.22-.26-.34-.41-.16-.16-.3-.31-.45-.5-.13-.12-.22-.26-.33-.37-.29-.34-.58-.69-.87-1.03-.08-.11-.17-.21-.27-.33-.36-.49-.74-.98-1.1-1.47-.38-.49-.73-1-1.1-1.54-.05-.07-.1-.14-.14-.21-.05-.07-.1-.14-.14-.2-.27-.4-.54-.8-.79-1.23-.38-.57-.73-1.15-1.07-1.73-.12-.2-.24-.41-.36-.61-.07-.15-.14-.28-.22-.41-.16-.29-.33-.55-.48-.83-.35-.63-.7-1.29-1.02-1.93-.16-.31-.31-.62-.46-.95-.07-.15-.16-.29-.23-.44-.09-.21-.19-.4-.29-.61-.31-.67-.61-1.33-.89-2.01-.2-.45-.38-.89-.58-1.34-.05-.12-.08-.23-.14-.35-.03-.11-.09-.21-.12-.32-.27-.65-.53-1.32-.77-2.01-.26-.67-.52-1.37-.74-2.08v-.03s-.01,0-.03-.03c-.23-.69-.46-1.39-.67-2.07-.26-.87-.52-1.74-.76-2.61-.37-1.31-.68-2.62-.98-3.96-.04-.14-.06-.3-.08-.43-.21-.93-.36-1.85-.55-2.77-.1-.64-.27-1.25-.35-1.87-.05-.14-.04-.29-.08-.43-.06-.37-.09-.73-.16-1.08-.09-.73-.21-1.45-.3-2.18-.08-.58-.13-1.14-.19-1.71-.02-.13-.04-.29-.06-.42,0-.12-.01-.23-.02-.33-.07-.72-.14-1.45-.19-2.16-.04-.66-.09-1.3-.12-1.96,0-.1,0-.18-.02-.28,0-.07,0-.15-.01-.23-.01-.48-.03-.96-.05-1.41,0-.65-.02-1.3-.02-1.95,0-.4.02-.81,0-1.24.01-.09,0-.2.01-.29,0-.12,0-.27,0-.4,0-.67.04-1.33.07-1.99.03-.66.07-1.34.1-2,.01-.09.02-.17.03-.26.01-.09.02-.19.03-.26.05-.5.07-1.02.13-1.49.06-.67.13-1.37.21-2.03.03-.28.09-.56.13-.85.03-.14.03-.28.06-.42.04-.23.05-.45.09-.69.1-.66.21-1.31.32-1.94.1-.58.23-1.18.35-1.75,0-.02.02-.04.02-.04,0-.02,0-.05,0-.07.14-.62.27-1.21.43-1.82.15-.59.3-1.18.46-1.76.05-.2.13-.4.18-.6.04-.11.06-.22.1-.33.08-.27.16-.54.23-.78.17-.58.37-1.15.56-1.7.21-.54.39-1.07.58-1.57Z"/><path class="cls-33" d="m1589.52,774.93c-14.81-18.34-19.93-50.93-11.43-72.79,8.5-21.86,27.4-24.72,42.21-6.38,14.81,18.34,19.92,50.93,11.42,72.79-8.5,21.86-27.38,24.72-42.19,6.38Z"/><path class="cls-16" d="m1203.74,824.16l282.98-45.42-7.72-48.23-281.51,48.71s-7.69,39.8,6.25,44.94Z"/><path class="cls-146" d="m1200.92,765.73l-.04.11c-.19.5-.37,1.03-.58,1.57-.19.55-.38,1.12-.56,1.7-.07.25-.15.51-.23.78-.04.11-.06.22-.1.33-.05.2-.13.4-.18.6-.15.59-.3,1.18-.46,1.76-.16.61-.29,1.21-.43,1.82,0,.02,0,.05,0,.07,0,0,0,.02-.02.04-.12.57-.25,1.17-.35,1.75-.12.63-.22,1.28-.32,1.94-.04.23-.05.45-.09.69-.03.14-.04.28-.06.42-.04.28-.09.56-.13.85-.08.66-.15,1.36-.21,2.03-.06.47-.08.99-.13,1.49,0,.07-.02.17-.03.26-.01.1-.02.17-.03.26-.03.66-.07,1.34-.1,2-.03.66-.06,1.32-.07,1.99,0,.12,0,.27,0,.4-.01.09,0,.2-.01.29,0,.43,0,.84,0,1.24,0,.65.02,1.3.02,1.95.02.46.04.93.05,1.41.02.08.01.15.01.23,0,.1,0,.18.02.28.02.65.07,1.3.12,1.96.05.71.12,1.44.19,2.16,0,.1.02.21.02.33.02.13.04.29.06.42.05.57.11,1.14.19,1.71.09.73.21,1.45.3,2.18.06.35.1.71.16,1.08.04.14.04.29.08.43.08.63.24,1.24.35,1.87.19.92.33,1.84.55,2.77.02.13.04.29.08.43.31,1.34.62,2.65.98,3.96.24.86.5,1.73.76,2.61.21.68.44,1.39.67,2.07v.03l.03.03c.22.71.48,1.4.74,2.08.23.69.5,1.36.77,2.01.03.11.09.21.12.32.05.12.08.23.14.35.2.45.38.89.58,1.34.28.68.58,1.34.89,2.01.09.21.19.4.29.61.07.15.16.29.23.44.15.33.3.64.46.95.32.65.67,1.3,1.02,1.93.14.28.31.54.48.83.07.13.15.26.22.41.12.2.24.41.36.61.35.58.7,1.16,1.07,1.73.26.42.53.82.79,1.23.05.07.1.14.14.2.05.07.1.14.14.21.36.54.72,1.05,1.1,1.54.36.49.74.98,1.1,1.47.1.11.19.22.27.33.29.34.58.69.87,1.03.1.11.2.25.33.37.15.18.29.34.45.5.12.15.21.28.34.41.2.2.37.39.57.59.14.15.27.28.41.43.06.05.13.12.18.17.37.39.75.76,1.14,1.11.4.38.79.73,1.2,1.08.06.05.1.06.16.11.15.13.28.23.43.36.21.16.42.34.63.49.09.08.19.15.28.23.19.15.37.27.56.42.13.1.27.2.4.3.16.09.3.19.46.3.18.12.38.25.56.36.1.06.2.13.3.19.18.12.34.21.53.3.22.14.42.26.64.4.09.03.16.09.24.14.16.09.36.16.55.26.22.14.47.26.7.37.09.03.14.08.21.11.17.07.35.13.49.21.3.12.58.25.88.36l.24.09c.13.05.26.1.4.13.35.13.72.25,1.1.37.11.04.22.08.33.1.09.03.16.04.25.07l-136.09-29.49,118.09-68.53c-.37.31-.74.63-1.09.97,0,.02-.05.06-.08.07-.05.08-.13.15-.22.24-.44.43-.85.86-1.29,1.34-.21.22-.41.49-.61.74-.13.15-.24.3-.37.45-.1.13-.22.24-.33.4-.39.5-.77,1.02-1.13,1.58-.13.2-.25.4-.38.6-.07.12-.17.26-.25.38-.13.2-.25.38-.37.58-.3.51-.59,1.02-.87,1.55-.16.29-.31.6-.48.91-.04.11-.11.21-.15.32-.07.12-.14.24-.19.37-.24.5-.5,1.05-.73,1.58-.23.53-.45,1.1-.69,1.65Z"/><path class="cls-156" d="m1135.27,829.9s-7.46-3.74-9.47-11.52c-2.01-7.79,3.32-19.37,3.32-19.37l-37.09,21.52,43.23,9.37Z"/><path class="cls-8" d="m1481.84,718.5c-.2.56-.39,1.13-.57,1.71-.08.26-.16.53-.23.79-.03.11-.07.23-.1.34-.06.2-.12.4-.18.61-.16.59-.32,1.18-.47,1.77-.15.61-.29,1.22-.42,1.84,0,.02,0,.04-.01.06,0,.02,0,.05-.01.07-.12.58-.24,1.16-.35,1.75-.12.65-.23,1.3-.33,1.95-.04.23-.06.47-.1.7-.02.14-.04.28-.06.41-.04.29-.08.58-.12.87-.08.67-.16,1.35-.23,2.03-.05.5-.09,1-.13,1.5,0,.09-.02.18-.02.27,0,.09-.02.18-.02.27-.05.67-.09,1.34-.12,2.02-.03.67-.05,1.34-.07,2.01,0,.13,0,.25,0,.38,0,.1,0,.2,0,.3,0,.42-.01.84-.01,1.26,0,.65.01,1.3.03,1.95.01.47.03.94.05,1.41,0,.08,0,.16,0,.25,0,.09,0,.18,0,.27.03.66.07,1.31.12,1.97.05.73.11,1.45.18,2.18.01.11.03.22.04.34.01.14.03.29.05.43.06.58.12,1.16.19,1.73.09.73.21,1.45.31,2.18.05.36.1.73.16,1.09.02.14.04.29.06.43.1.63.25,1.25.37,1.88.17.93.34,1.86.54,2.78.03.15.05.29.09.44.3,1.34.63,2.66.99,3.98.24.88.5,1.75.76,2.62.22.71.45,1.41.68,2.11,0,.01,0,.02.01.03,0,0,0,.02,0,.03.24.7.48,1.4.74,2.09.25.68.51,1.35.77,2.02.04.11.09.22.14.33.05.11.09.23.14.34.19.46.37.92.57,1.37.29.68.6,1.35.91,2.01.1.21.2.41.3.61.07.15.15.3.22.46.15.31.3.63.46.94.33.66.68,1.3,1.03,1.94.15.28.32.55.47.83.08.14.16.28.24.42.12.2.23.41.35.61.35.59.71,1.18,1.08,1.75.27.42.54.82.81,1.23.05.07.1.15.15.22.05.07.09.14.14.21.36.52.73,1.04,1.1,1.54.37.5.74.99,1.12,1.47.09.11.18.22.26.33.29.36.58.7.87,1.04.11.13.22.25.33.38.15.17.3.35.46.51.12.13.23.27.35.4.19.21.38.4.57.6.14.14.27.29.41.43.06.06.11.12.17.18.38.39.77.76,1.15,1.12,0,0,0,0,0,0h0c.4.37.8.73,1.2,1.07.05.04.1.08.16.13.15.12.29.24.44.36.21.17.41.34.62.51.1.08.21.15.31.23.18.14.37.27.55.41.14.1.28.21.42.31.15.1.3.19.44.29.19.13.37.25.56.37.1.06.2.14.3.2.18.11.35.21.53.31.22.13.44.26.66.39.08.04.16.09.23.14.18.1.37.18.55.28.24.12.48.25.72.36.07.03.14.08.21.11.17.08.33.14.5.21.29.13.58.25.87.37.08.03.17.07.25.1.13.05.26.08.38.13.37.13.74.26,1.11.37.11.03.22.08.34.11.08.02.17.03.25.06.57.16,1.15.29,1.72.39.05,0,.1.02.14.03,0,0,.02,0,.02,0,.83.14,1.64.21,2.45.24.07,0,.15.02.22.02.06,0,.12,0,.17,0,.36,0,.71,0,1.06-.02.17,0,.35,0,.52-.02.52-.04,1.04-.09,1.56-.17l99.01-16.23c-.52.08-1.04.14-1.56.18-.17.01-.34.01-.51.02-.36.01-.71.03-1.07.02-.13,0-.26-.01-.39-.02-.81-.03-1.62-.1-2.44-.24-.05,0-.11-.02-.16-.03-.57-.1-1.15-.24-1.73-.39-.19-.05-.39-.11-.58-.17-.37-.11-.74-.24-1.12-.37-.21-.08-.42-.15-.63-.23-.29-.11-.58-.24-.87-.37-.23-.1-.47-.2-.7-.32-.24-.12-.48-.24-.72-.37-.26-.14-.52-.27-.78-.42-.22-.12-.44-.26-.66-.39-.28-.17-.55-.33-.83-.51-.18-.12-.37-.24-.55-.37-.29-.2-.58-.4-.87-.61-.18-.13-.36-.27-.54-.4-.31-.24-.62-.49-.94-.74-.15-.12-.29-.23-.44-.36-.45-.38-.91-.78-1.36-1.2h0c-.44-.42-.88-.85-1.32-1.3-.14-.14-.28-.29-.41-.43-.31-.32-.61-.65-.92-.99-.15-.17-.31-.34-.46-.52-.4-.46-.8-.93-1.2-1.42-.91-1.13-1.79-2.32-2.63-3.55-.05-.07-.1-.15-.15-.22-.78-1.16-1.52-2.35-2.24-3.59-.08-.14-.16-.28-.24-.42-.68-1.21-1.34-2.45-1.96-3.72-.07-.15-.15-.3-.22-.46-.62-1.3-1.22-2.63-1.77-3.99-.05-.11-.1-.23-.14-.34-.59-1.46-1.14-2.95-1.66-4.46,0-.01,0-.03-.01-.04-1-2.97-1.84-6.03-2.52-9.15-.2-.92-.37-1.85-.54-2.78-.14-.77-.31-1.54-.43-2.32-.06-.36-.1-.73-.16-1.09-.19-1.3-.37-2.61-.5-3.91-.02-.14-.03-.29-.05-.43-.16-1.59-.27-3.17-.34-4.75,0-.08,0-.16,0-.24-.07-1.55-.09-3.1-.07-4.63,0-.1,0-.2,0-.3.02-1.57.09-3.13.21-4.67,0-.09.02-.18.02-.28.11-1.48.27-2.95.47-4.39.02-.14.04-.28.06-.41.21-1.49.47-2.96.78-4.4,0-.02,0-.05.01-.07.31-1.46.67-2.88,1.08-4.27.03-.11.07-.23.1-.34.42-1.39.87-2.76,1.39-4.08.51-1.32,1.07-2.56,1.65-3.74.05-.11.11-.21.16-.32.55-1.08,1.12-2.1,1.72-3.06.08-.13.16-.26.24-.38.6-.92,1.22-1.79,1.86-2.6.12-.15.24-.3.37-.44.62-.75,1.26-1.46,1.92-2.11.07-.07.14-.15.22-.23.77-.73,1.56-1.4,2.37-1.99.11-.08.22-.14.33-.21.67-.47,1.34-.89,2.04-1.26.25-.14.51-.26.76-.38.59-.29,1.18-.54,1.79-.76.25-.09.5-.19.75-.27.84-.26,1.68-.48,2.54-.62h0s0,0,0,0h0s-99.01,16.23-99.01,16.23c-.86.14-1.71.36-2.55.62-.25.08-.5.18-.75.27-.6.22-1.2.47-1.79.76-.25.12-.51.24-.76.38-.69.37-1.37.79-2.03,1.26-.11.08-.22.14-.33.22-.02.02-.05.03-.07.05-.76.56-1.5,1.19-2.23,1.87-.02.02-.05.05-.07.07-.07.07-.14.15-.22.23-.44.43-.88.87-1.31,1.35-.21.24-.41.5-.62.75-.12.15-.25.29-.37.45-.11.14-.22.26-.33.4-.39.51-.77,1.04-1.15,1.6-.13.19-.26.4-.38.61-.08.13-.16.25-.24.38-.12.2-.25.38-.37.58-.3.51-.6,1.03-.89,1.56-.16.3-.31.61-.46.91-.05.11-.11.21-.16.32-.06.13-.13.25-.19.38-.25.52-.5,1.05-.73,1.6-.24.54-.46,1.1-.69,1.66-.01.03-.03.07-.04.1-.2.52-.4,1.04-.58,1.57Z"/><path class="cls-25" d="m1592.95,774c-14.91-18.47-20.07-51.29-11.51-73.31,8.56-22.02,27.59-24.9,42.51-6.43,14.91,18.47,20.06,51.29,11.5,73.31-8.56,22.02-27.58,24.9-42.49,6.42Z"/><polygon class="cls-60" points="950.77 1132.22 904.24 1269.84 952.41 1263.38 981.19 1308.15 1025.78 1171.08 950.77 1132.22"/><polygon class="cls-75" points="977.67 1282.81 956.38 1253.49 916.65 1257.34 961.14 1133.96 965.22 1135.96 923.29 1252.25 958.01 1248.89 976.07 1273.76 1015.52 1162.14 1019.62 1164.12 977.67 1282.81"/><polygon class="cls-110" points="1069.55 1130.63 1158.74 1266.43 1108.75 1261.29 1094.04 1306.64 1006.95 1171.33 1069.55 1130.63"/><polygon class="cls-75" points="1089.65 1281.31 1101.73 1251.55 1142.48 1254.32 1059.77 1132.64 1056.32 1134.74 1134.29 1249.43 1098.67 1247.01 1088.43 1272.26 1014.39 1162.16 1010.92 1164.23 1089.65 1281.31"/><polygon class="cls-41" points="986.29 1014.61 1022.93 990.41 1044.82 1034.47 1093 1042.63 1082.39 1086.23 1123.77 1118.17 1119.68 1123.72 1081.42 1145.67 1094.59 1190.18 1090.5 1195.73 1042.37 1184.99 1019.11 1224.97 983.5 1185.78 938.91 1197.75 932.37 1147.67 887.43 1126.82 912.9 1088.5 888.76 1045.37 892.85 1039.82 934.19 1035.95 942.27 991.49 946.36 985.95 986.29 1014.61"/><polygon class="cls-14" points="990.38 1009.06 1027.02 984.87 1048.91 1028.92 1097.09 1037.09 1086.48 1080.68 1123.77 1118.17 1085.51 1140.13 1094.59 1190.18 1046.46 1179.44 1023.2 1219.42 987.59 1180.23 943 1192.21 936.46 1142.12 891.52 1121.28 916.99 1082.95 892.85 1039.82 938.28 1030.4 946.36 985.95 990.38 1009.06"/><polygon class="cls-88" points="1096.78 1113.05 1090.49 1116.67 1065.83 1091.9 1074.03 1058.13 1036.72 1051.79 1019.74 1017.66 991.35 1036.39 957.82 1018.8 959.3 1010.61 993.41 1028.53 1021.82 1009.77 1038.78 1043.93 1076.11 1050.25 1067.88 1084.01 1096.78 1113.05"/><polygon class="cls-98" points="1067.13 1130.09 1090.49 1116.67 1065.83 1091.9 1074.03 1058.13 1036.72 1051.79 1019.74 1017.66 991.35 1036.39 957.82 1018.8 953.05 1045.07 952.39 1045.2 950.99 1052.94 921.58 1059.04 936.55 1085.77 933.05 1091.07 916.82 1115.46 919.26 1116.59 951.64 1131.63 956.71 1170.44 991.25 1161.16 1018.84 1191.52 1036.86 1160.55 1070.55 1168.05 1065.07 1137.95 1068.24 1136.14 1067.13 1130.09"/><polygon class="cls-32" points="1067.13 1130.09 1074.18 1168.87 1070.55 1168.05 1063.96 1131.89 1067.13 1130.09"/><path class="cls-56" d="m172.38,1341.58l380.46,150.92,378.71-34.19c2.91-.25,5.78-.04,8.49.58l-377.55-145.68-390.11,28.37Z"/><path class="cls-133" d="m552.84,1492.5v126.5l386.28-34.86c12.15-1.08,21.51-11.31,21.51-23.54v-75.71c0-10.15-5.66-18.89-13.85-23.38l-6.74-2.62c-2.7-.62-5.57-.83-8.49-.58l-378.71,34.19Z"/><path class="cls-17" d="m938.15,1573.37c6.55-.58,11.67-6.19,11.67-12.77v-75.71c0-5.58-2.94-10.73-7.7-13.59l-5.17-2.01c-.97-.18-1.98-.27-2.99-.27-.49,0-.97.02-1.47.06l-379.65,33.49v104.78l385.31-33.99Z"/><path class="cls-144" d="m940.04,1458.89l6.74,2.62c-2.08-1.21-4.37-2.08-6.74-2.62Z"/><polygon class="cls-103" points="172.38 1341.58 172.38 1466.63 552.84 1617.54 552.84 1492.5 172.38 1341.58"/><polygon class="cls-37" points="172.38 1352.93 552.84 1502.57 552.84 1607.35 172.38 1458.2 172.38 1352.93"/><path class="cls-151" d="m552.95,1490.73l378.6-33.62c1.28-.11,2.55-.1,3.81-.03l4.68,1.81c-2.7-.62-5.57-.83-8.49-.58l-378.71,34.19-380.46-150.92,2.54-.18,378.03,149.33Z"/><path class="cls-48" d="m251.42,1256.16l304.16,120.65,302.76-27.34c2.33-.2,4.62-.03,6.78.47l-301.83-116.46-311.87,22.68Z"/><path class="cls-25" d="m555.58,1376.81v101.13l308.81-27.87c9.71-.86,17.19-9.05,17.19-18.82v-60.53c0-8.11-4.52-15.1-11.07-18.69l-5.39-2.1c-2.16-.5-4.46-.67-6.78-.47l-302.76,27.34Z"/><path class="cls-31" d="m863.62,1441.46c5.24-.46,9.33-4.95,9.33-10.21v-60.53c0-4.46-2.35-8.58-6.16-10.86l-4.13-1.6c-.78-.15-1.58-.22-2.39-.22-.39,0-.78.02-1.17.05l-303.51,26.78v83.77l308.04-27.17Z"/><path class="cls-106" d="m865.13,1349.94l5.39,2.1c-1.66-.96-3.49-1.66-5.39-2.1Z"/><polygon class="cls-25" points="251.42 1256.16 251.42 1356.13 555.58 1476.78 555.58 1376.81 251.42 1256.16"/><polygon class="cls-36" points="251.42 1265.23 555.58 1384.86 555.58 1468.63 251.42 1349.39 251.42 1265.23"/><path class="cls-140" d="m555.67,1375.4l302.67-26.87c1.03-.09,2.04-.08,3.04-.03l3.74,1.44c-2.16-.5-4.46-.67-6.78-.47l-302.76,27.34-304.16-120.65,2.03-.15,302.22,119.38Z"/><polygon class="cls-167" points="1755.57 771.09 1869.36 918.61 1685.15 815.22 1755.57 771.09"/><polygon class="cls-141" points="1685.15 815.22 1685.15 852.56 1869.36 918.61 1685.15 815.22"/><polygon class="cls-76" points="1685.15 901.78 1685.15 955.82 1869.36 918.61 1685.15 901.78"/><polygon class="cls-166" points="1869.36 918.61 1536.37 888.18 1644.29 836.25 1869.36 918.61"/><polygon class="cls-155" points="351.74 1564.54 611.71 1191.47 341.26 1092.66 76.87 1472.08 351.74 1564.54"/><path class="cls-142" d="m351.74,1564.54l-263.45-96.25c-8.77-3.21-16.75,6.32-12.05,14.39l14.22,24.42c3.99,6.85,10.24,12.08,17.68,14.8l277.89,101.52-34.29-58.88Z"/><path class="cls-124" d="m110.05,1516.7c-6.21-2.27-11.47-6.67-14.8-12.39l-14.22-24.41c-1.13-1.94-.52-3.59-.05-4.4.64-1.12,1.98-2.31,3.8-2.31.52,0,1.06.1,1.61.3l270.58,100.03,25.57,43.91-272.5-100.73Z"/><polygon class="cls-162" points="611.71 1191.47 646 1250.35 386.04 1623.42 351.74 1564.54 611.71 1191.47"/><polygon class="cls-164" points="356.98 1573.52 618.09 1202.42 640.9 1241.58 382.55 1617.43 356.98 1573.52"/><polygon class="cls-111" points="233.22 1061.55 347 1209.07 162.79 1105.67 233.22 1061.55"/><polygon class="cls-154" points="162.79 1105.67 162.79 1143.02 347 1209.07 162.79 1105.67"/><polygon class="cls-95" points="162.79 1192.23 162.79 1246.28 347 1209.07 162.79 1192.23"/><polygon class="cls-58" points="347 1209.07 14.02 1178.63 121.94 1126.71 347 1209.07"/><g class="cls-173"><ellipse class="cls-128" cx="329.82" cy="1266.32" rx="194.76" ry="41.44"/><ellipse class="cls-4" cx="329.82" cy="1266.32" rx="190.46" ry="40.53"/><ellipse class="cls-163" cx="329.82" cy="1266.32" rx="186.17" ry="39.62"/><ellipse class="cls-157" cx="329.82" cy="1266.32" rx="181.87" ry="38.7"/><ellipse class="cls-131" cx="329.82" cy="1266.32" rx="177.58" ry="37.79"/><ellipse class="cls-47" cx="329.82" cy="1266.32" rx="173.29" ry="36.88"/><ellipse class="cls-43" cx="329.82" cy="1266.32" rx="168.99" ry="35.96"/><ellipse class="cls-69" cx="329.82" cy="1266.32" rx="164.7" ry="35.05"/><ellipse class="cls-15" cx="329.82" cy="1266.32" rx="160.4" ry="34.13"/><ellipse class="cls-27" cx="329.82" cy="1266.32" rx="156.11" ry="33.22"/><ellipse class="cls-2" cx="329.82" cy="1266.32" rx="151.81" ry="32.31"/><ellipse class="cls-23" cx="329.82" cy="1266.32" rx="147.52" ry="31.39"/><ellipse class="cls-66" cx="329.82" cy="1266.32" rx="143.22" ry="30.48"/><ellipse class="cls-53" cx="329.82" cy="1266.32" rx="138.93" ry="29.56"/><ellipse class="cls-42" cx="329.82" cy="1266.32" rx="134.63" ry="28.65"/><ellipse class="cls-92" cx="329.82" cy="1266.32" rx="130.34" ry="27.74"/><ellipse class="cls-87" cx="329.82" cy="1266.32" rx="126.04" ry="26.82"/><ellipse class="cls-67" cx="329.82" cy="1266.32" rx="121.75" ry="25.91"/><ellipse class="cls-20" cx="329.82" cy="1266.32" rx="117.45" ry="24.99"/><ellipse class="cls-116" cx="329.82" cy="1266.32" rx="113.16" ry="24.08"/><ellipse class="cls-152" cx="329.82" cy="1266.32" rx="108.86" ry="23.17"/><ellipse class="cls-11" cx="329.82" cy="1266.32" rx="104.57" ry="22.25"/><ellipse class="cls-29" cx="329.82" cy="1266.32" rx="100.27" ry="21.34"/><ellipse class="cls-99" cx="329.82" cy="1266.32" rx="95.98" ry="20.42"/><ellipse class="cls-22" cx="329.82" cy="1266.32" rx="91.68" ry="19.51"/><ellipse class="cls-119" cx="329.82" cy="1266.32" rx="87.39" ry="18.6"/><ellipse class="cls-90" cx="329.82" cy="1266.32" rx="83.09" ry="17.68"/><ellipse class="cls-108" cx="329.82" cy="1266.32" rx="78.8" ry="16.77"/></g><g class="cls-177"><ellipse class="cls-128" cx="285.54" cy="435.94" rx="167.26" ry="76.05"/><ellipse class="cls-4" cx="285.54" cy="435.94" rx="163.57" ry="74.37"/><ellipse class="cls-163" cx="285.54" cy="435.94" rx="159.88" ry="72.69"/><ellipse class="cls-157" cx="285.54" cy="435.94" rx="156.19" ry="71.02"/><ellipse class="cls-131" cx="285.54" cy="435.94" rx="152.51" ry="69.34"/><ellipse class="cls-47" cx="285.54" cy="435.94" rx="148.82" ry="67.66"/><ellipse class="cls-43" cx="285.54" cy="435.94" rx="145.13" ry="65.99"/><ellipse class="cls-69" cx="285.54" cy="435.94" rx="141.44" ry="64.31"/><ellipse class="cls-15" cx="285.54" cy="435.94" rx="137.75" ry="62.63"/><ellipse class="cls-27" cx="285.54" cy="435.94" rx="134.06" ry="60.95"/><ellipse class="cls-2" cx="285.54" cy="435.94" rx="130.37" ry="59.28"/><ellipse class="cls-23" cx="285.54" cy="435.94" rx="126.69" ry="57.6"/><ellipse class="cls-66" cx="285.54" cy="435.94" rx="123" ry="55.92"/><ellipse class="cls-53" cx="285.54" cy="435.94" rx="119.31" ry="54.25"/><ellipse class="cls-42" cx="285.54" cy="435.94" rx="115.62" ry="52.57"/><ellipse class="cls-92" cx="285.54" cy="435.94" rx="111.93" ry="50.89"/><ellipse class="cls-87" cx="285.54" cy="435.94" rx="108.24" ry="49.22"/><ellipse class="cls-67" cx="285.54" cy="435.94" rx="104.56" ry="47.54"/><ellipse class="cls-20" cx="285.54" cy="435.94" rx="100.87" ry="45.86"/><ellipse class="cls-116" cx="285.54" cy="435.94" rx="97.18" ry="44.18"/><ellipse class="cls-152" cx="285.54" cy="435.94" rx="93.49" ry="42.51"/><ellipse class="cls-11" cx="285.54" cy="435.94" rx="89.8" ry="40.83"/><ellipse class="cls-29" cx="285.54" cy="435.94" rx="86.11" ry="39.15"/><ellipse class="cls-99" cx="285.54" cy="435.94" rx="82.43" ry="37.48"/><ellipse class="cls-22" cx="285.54" cy="435.94" rx="78.74" ry="35.8"/><ellipse class="cls-119" cx="285.54" cy="435.94" rx="75.05" ry="34.12"/><ellipse class="cls-90" cx="285.54" cy="435.94" rx="71.36" ry="32.45"/><ellipse class="cls-108" cx="285.54" cy="435.94" rx="67.67" ry="30.77"/></g><polygon class="cls-129" points="272.77 329.88 304.84 331.34 229.79 366.79 197.71 365.33 272.77 329.88"/><polygon class="cls-55" points="315.9 138.57 347.89 217.22 315.81 215.75 283.83 137.11 315.9 138.57"/><polygon class="cls-158" points="343.26 373.81 375.34 375.28 366.26 290.37 334.18 288.91 343.26 373.81"/><polygon class="cls-28" points="347.89 217.22 428.57 234.24 396.49 232.77 315.81 215.75 347.89 217.22"/><polygon class="cls-97" points="396.49 232.77 428.57 234.24 366.26 290.37 334.18 288.91 396.49 232.77"/><polygon class="cls-63" points="283.83 137.11 243.06 211.51 160.97 219.04 216.44 282.04 197.71 365.33 272.77 329.88 343.26 373.81 334.18 288.91 396.49 232.77 315.81 215.75 283.83 137.11"/><polygon class="cls-5" points="213.7 277.34 162.26 218.93 160.97 219.05 213.41 278.6 213.7 277.34"/><polygon class="cls-159" points="313.07 211.05 313.98 211.24 283.83 137.11 283.35 137.98 313.07 211.05"/><polygon class="cls-135" points="396.49 232.77 390.03 231.41 331.44 284.2 340.52 369.11 270.02 325.17 199.22 358.61 197.71 365.33 272.77 329.87 343.26 373.81 334.18 288.91 396.49 232.77"/><path class="cls-57" d="m1333.32,1473.32c-63.42-109.85-197.9-152.01-300.36-94.15-102.46,57.86-134.11,193.81-70.69,303.66,63.42,109.85,197.9,152.01,300.36,94.15,102.46-57.85,134.11-193.81,70.69-303.66Zm-86.86,275.66c-88.04,49.71-203.58,13.49-258.07-80.9-54.49-94.39-27.3-211.2,60.74-260.91,88.04-49.71,203.58-13.49,258.07,80.9,54.49,94.39,27.3,211.2-60.74,260.91Z"/><path class="cls-104" d="m1355.73,1467.43c-63.42-109.85-197.9-152.01-300.36-94.15-102.46,57.86-134.11,193.81-70.69,303.66,63.42,109.85,197.9,152.01,300.36,94.15,102.46-57.85,134.11-193.81,70.69-303.66Zm-86.86,275.66c-88.04,49.71-203.58,13.49-258.07-80.9-54.49-94.39-27.3-211.2,60.74-260.91,88.04-49.71,203.58-13.49,258.07,80.9,54.49,94.39,27.3,211.2-60.74,260.91Z"/><path class="cls-7" d="m1005.6,1720.85c-11.45-12.19-24.65-18.39-29.48-13.85h0s-98.27,92.32-98.27,92.32c-4.83,4.54.53,18.1,11.98,30.29,11.45,12.19,24.65,18.39,29.48,13.85l98.27-92.32h0c4.83-4.54-.53-18.1-11.98-30.29Z"/><path class="cls-45" d="m721.92,1930.1l140.2-138.86c6.89-6.83,26.44,1.73,43.66,19.12,17.22,17.39,25.59,37.02,18.69,43.85l-140.2,138.86-62.36-62.97Z"/><ellipse class="cls-102" cx="753.1" cy="1961.58" rx="17.57" ry="44.31" transform="translate(-1162.29 1097.72) rotate(-44.72)"/></svg>