<?xml version="1.0" encoding="UTF-8"?><svg id="Layer_4" xmlns="http://www.w3.org/2000/svg" xmlns:xlink="http://www.w3.org/1999/xlink" viewBox="0 0 1639.15 1530.34"><defs><style>.cls-1{fill:url(#linear-gradient-84);}.cls-1,.cls-2,.cls-3,.cls-4,.cls-5,.cls-6,.cls-7,.cls-8,.cls-9,.cls-10,.cls-11,.cls-12,.cls-13,.cls-14,.cls-15,.cls-16,.cls-17,.cls-18,.cls-19,.cls-20,.cls-21,.cls-22,.cls-23,.cls-24,.cls-25,.cls-26,.cls-27,.cls-28,.cls-29,.cls-30,.cls-31,.cls-32,.cls-33,.cls-34,.cls-35,.cls-36,.cls-37,.cls-38,.cls-39,.cls-40,.cls-41,.cls-42,.cls-43,.cls-44,.cls-45,.cls-46,.cls-47,.cls-48,.cls-49,.cls-50,.cls-51,.cls-52,.cls-53,.cls-54,.cls-55,.cls-56,.cls-57,.cls-58,.cls-59,.cls-60,.cls-61,.cls-62,.cls-63,.cls-64,.cls-65,.cls-66,.cls-67,.cls-68,.cls-69,.cls-70,.cls-71,.cls-72,.cls-73,.cls-74,.cls-75,.cls-76,.cls-77,.cls-78,.cls-79,.cls-80,.cls-81,.cls-82,.cls-83,.cls-84,.cls-85,.cls-86,.cls-87,.cls-88,.cls-89,.cls-90,.cls-91,.cls-92,.cls-93,.cls-94,.cls-95,.cls-96,.cls-97,.cls-98,.cls-99,.cls-100,.cls-101,.cls-102,.cls-103,.cls-104,.cls-105,.cls-106,.cls-107,.cls-108,.cls-109,.cls-110,.cls-111,.cls-112,.cls-113,.cls-114,.cls-115,.cls-116,.cls-117,.cls-118,.cls-119,.cls-120,.cls-121,.cls-122{stroke-width:0px;}.cls-1,.cls-90,.cls-116{opacity:.18;}.cls-2{fill:url(#linear-gradient-8);}.cls-2,.cls-51,.cls-122{opacity:.25;}.cls-3{fill:url(#linear-gradient-96);}.cls-3,.cls-26,.cls-75{opacity:.61;}.cls-123{stroke:#2f96dc;}.cls-123,.cls-124{stroke-width:10.53px;}.cls-123,.cls-124,.cls-125,.cls-126,.cls-127{fill:none;stroke-linecap:round;stroke-linejoin:round;}.cls-4{fill:url(#linear-gradient-46);}.cls-4,.cls-12,.cls-25{opacity:.57;}.cls-5{fill:url(#linear-gradient-38);}.cls-5,.cls-62,.cls-112{opacity:.29;}.cls-6{fill:url(#linear-gradient-36);}.cls-6,.cls-44,.cls-79{opacity:.21;}.cls-7{fill:url(#linear-gradient-62);}.cls-8{fill:url(#linear-gradient-52);}.cls-8,.cls-47,.cls-72{opacity:.79;}.cls-9{fill:url(#linear-gradient-26);}.cls-9,.cls-42,.cls-63{opacity:.89;}.cls-10{fill:url(#linear-gradient-56);}.cls-10,.cls-60,.cls-78{opacity:.93;}.cls-11{fill:url(#linear-gradient-67);}.cls-12{fill:url(#linear-gradient-17);}.cls-13{fill:url(#linear-gradient-93);}.cls-13,.cls-50,.cls-86{opacity:.5;}.cls-14{fill:url(#linear-gradient-48);}.cls-14,.cls-48,.cls-65{opacity:.64;}.cls-15{fill:url(#linear-gradient-76);}.cls-16{fill:url(#linear-gradient-12);}.cls-16,.cls-24,.cls-29{opacity:.39;}.cls-17{fill:url(#linear-gradient-32);}.cls-17,.cls-102,.cls-110{opacity:.07;}.cls-18{fill:url(#linear-gradient-99);}.cls-18,.cls-37,.cls-56{opacity:.71;}.cls-19{fill:url(#linear-gradient-40);}.cls-19,.cls-21,.cls-119{opacity:.36;}.cls-20{fill:url(#linear-gradient-51);}.cls-20,.cls-30,.cls-53{opacity:.75;}.cls-21{fill:url(#linear-gradient-11);}.cls-22{fill:url(#linear-gradient-106);}.cls-22,.cls-35,.cls-84{opacity:.96;}.cls-23{fill:url(#linear-gradient-79);}.cls-23,.cls-88,.cls-93{opacity:0;}.cls-24{fill:url(#linear-gradient-90);}.cls-25{fill:url(#linear-gradient-95);}.cls-26{fill:url(#linear-gradient-47);}.cls-27{fill:url(#linear-gradient-73);}.cls-28{fill:url(#linear-gradient-20);}.cls-28,.cls-36,.cls-43{opacity:.68;}.cls-29{fill:url(#linear-gradient-41);}.cls-30{fill:url(#linear-gradient-22);}.cls-31{fill:url(#linear-gradient-71);}.cls-32{fill:url(#linear-gradient-58);}.cls-33{fill:url(#linear-gradient-63);}.cls-34{fill:url(#linear-gradient-16);}.cls-34,.cls-54,.cls-73{opacity:.54;}.cls-35{fill:url(#linear-gradient-57);}.cls-36{fill:url(#linear-gradient-98);}.cls-37{fill:url(#linear-gradient-50);}.cls-124,.cls-125{stroke:#b5b5b5;}.cls-38{fill:url(#linear-gradient-39);}.cls-38,.cls-91,.cls-101{opacity:.32;}.cls-39{fill:url(#linear-gradient-43);}.cls-39,.cls-81,.cls-87{opacity:.46;}.cls-40{fill:url(#linear-gradient-66);}.cls-41{fill:url(#linear-gradient-102);}.cls-41,.cls-80,.cls-107{opacity:.82;}.cls-42{fill:url(#linear-gradient-104);}.cls-43{fill:url(#linear-gradient-49);}.cls-44{fill:url(#linear-gradient-85);}.cls-45{fill:url(#linear-gradient-5);}.cls-45,.cls-69,.cls-121{opacity:.14;}.cls-46{fill:#b7b2b2;}.cls-47{fill:url(#linear-gradient-23);}.cls-48{fill:url(#linear-gradient-19);}.cls-49{fill:#fff;}.cls-50{fill:url(#linear-gradient-44);}.cls-51{fill:url(#linear-gradient-37);}.cls-52{fill:url(#linear-gradient-110);}.cls-53{fill:url(#linear-gradient-100);}.cls-54{fill:url(#linear-gradient-45);}.cls-55{fill:url(#linear-gradient-60);}.cls-56{fill:url(#linear-gradient-21);}.cls-57{fill:url(#linear-gradient-59);}.cls-58{fill:url(#linear-gradient-91);}.cls-58,.cls-59,.cls-61{opacity:.43;}.cls-59{fill:url(#linear-gradient-42);}.cls-60{fill:url(#linear-gradient-105);}.cls-61{fill:url(#linear-gradient-13);}.cls-62{fill:url(#linear-gradient-87);}.cls-63{fill:url(#linear-gradient-55);}.cls-64{fill:#d6d2d2;}.cls-65{fill:url(#linear-gradient-97);}.cls-66{fill:url(#linear-gradient-77);}.cls-67{fill:url(#linear-gradient-119);}.cls-68{fill:url(#linear-gradient-69);}.cls-69{fill:url(#linear-gradient-83);}.cls-70{fill:url(#linear-gradient-25);}.cls-70,.cls-71,.cls-89{opacity:.86;}.cls-71{fill:url(#linear-gradient-103);}.cls-125,.cls-126{stroke-width:12.84px;}.cls-72{fill:url(#linear-gradient-101);}.cls-73{fill:url(#linear-gradient-94);}.cls-74{fill:url(#linear-gradient-2);}.cls-74,.cls-99,.cls-115{opacity:.04;}.cls-75{fill:url(#linear-gradient-18);}.cls-76{fill:url(#linear-gradient-117);}.cls-77{fill:url(#linear-gradient-65);}.cls-78{fill:url(#linear-gradient-27);}.cls-79{fill:url(#linear-gradient-7);}.cls-80{fill:url(#linear-gradient-53);}.cls-81{fill:url(#linear-gradient-14);}.cls-82{fill:url(#linear-gradient-61);}.cls-83{fill:url(#linear-gradient-114);}.cls-84{fill:url(#linear-gradient-28);}.cls-126,.cls-127{stroke:#ccc;}.cls-85{fill:url(#linear-gradient-4);}.cls-85,.cls-108,.cls-111{opacity:.11;}.cls-86{fill:url(#linear-gradient-15);}.cls-87{fill:url(#linear-gradient-92);}.cls-88{fill:url(#linear-gradient);}.cls-89{fill:url(#linear-gradient-54);}.cls-90{fill:url(#linear-gradient-6);}.cls-91{fill:url(#linear-gradient-10);}.cls-92{fill:url(#linear-gradient-68);}.cls-93{fill:url(#linear-gradient-30);}.cls-94{fill:url(#linear-gradient-72);}.cls-95{fill:url(#linear-gradient-29);}.cls-96{fill:url(#linear-gradient-64);}.cls-97{fill:url(#linear-gradient-107);}.cls-98{fill:url(#linear-gradient-109);}.cls-99{fill:url(#linear-gradient-31);}.cls-100{fill:url(#linear-gradient-113);}.cls-101{fill:url(#linear-gradient-88);}.cls-102{fill:url(#linear-gradient-81);}.cls-103{fill:url(#linear-gradient-70);}.cls-104{fill:url(#linear-gradient-78);}.cls-128{opacity:.17;}.cls-105{fill:url(#linear-gradient-74);}.cls-106{fill:url(#linear-gradient-118);}.cls-107{fill:url(#linear-gradient-24);}.cls-127{stroke-width:13.48px;}.cls-108{fill:url(#linear-gradient-82);}.cls-109{fill:url(#linear-gradient-112);}.cls-110{fill:url(#linear-gradient-3);}.cls-111{fill:url(#linear-gradient-33);}.cls-112{fill:url(#linear-gradient-9);}.cls-113{fill:url(#linear-gradient-115);}.cls-114{fill:url(#linear-gradient-116);}.cls-129{opacity:.27;}.cls-115{fill:url(#linear-gradient-80);}.cls-116{fill:url(#linear-gradient-35);}.cls-117{fill:url(#linear-gradient-111);}.cls-118{fill:url(#linear-gradient-108);}.cls-119{fill:url(#linear-gradient-89);}.cls-120{fill:url(#linear-gradient-75);}.cls-121{fill:url(#linear-gradient-34);}.cls-122{fill:url(#linear-gradient-86);}</style><linearGradient id="linear-gradient" x1="574.1" y1="1447.09" x2="1353.25" y2="1447.09" gradientUnits="userSpaceOnUse"><stop offset="0" stop-color="#161616"/><stop offset="1" stop-color="#313031"/></linearGradient><linearGradient id="linear-gradient-2" x1="588.5" y1="1447.09" x2="1351.64" y2="1447.09" xlink:href="#linear-gradient"/><linearGradient id="linear-gradient-3" x1="602.9" x2="1350.03" xlink:href="#linear-gradient"/><linearGradient id="linear-gradient-4" x1="617.3" x2="1348.42" xlink:href="#linear-gradient"/><linearGradient id="linear-gradient-5" x1="631.7" y1="1447.09" x2="1346.81" y2="1447.09" xlink:href="#linear-gradient"/><linearGradient id="linear-gradient-6" x1="646.1" x2="1345.2" xlink:href="#linear-gradient"/><linearGradient id="linear-gradient-7" x1="660.5" y1="1447.09" x2="1343.59" y2="1447.09" xlink:href="#linear-gradient"/><linearGradient id="linear-gradient-8" x1="674.9" x2="1341.98" xlink:href="#linear-gradient"/><linearGradient id="linear-gradient-9" x1="689.3" x2="1340.37" xlink:href="#linear-gradient"/><linearGradient id="linear-gradient-10" x1="703.7" y1="1447.09" x2="1338.76" y2="1447.09" xlink:href="#linear-gradient"/><linearGradient id="linear-gradient-11" x1="718.1" x2="1337.15" xlink:href="#linear-gradient"/><linearGradient id="linear-gradient-12" x1="732.5" y1="1447.09" x2="1335.54" y2="1447.09" xlink:href="#linear-gradient"/><linearGradient id="linear-gradient-13" x1="746.9" x2="1333.93" xlink:href="#linear-gradient"/><linearGradient id="linear-gradient-14" x1="761.3" x2="1332.32" xlink:href="#linear-gradient"/><linearGradient id="linear-gradient-15" x1="775.7" y1="1447.09" x2="1330.71" y2="1447.09" xlink:href="#linear-gradient"/><linearGradient id="linear-gradient-16" x1="790.1" x2="1329.1" xlink:href="#linear-gradient"/><linearGradient id="linear-gradient-17" x1="804.5" x2="1327.49" xlink:href="#linear-gradient"/><linearGradient id="linear-gradient-18" x1="818.9" x2="1325.88" xlink:href="#linear-gradient"/><linearGradient id="linear-gradient-19" x1="833.3" x2="1324.27" xlink:href="#linear-gradient"/><linearGradient id="linear-gradient-20" x1="847.7" y1="1447.09" x2="1322.66" y2="1447.09" xlink:href="#linear-gradient"/><linearGradient id="linear-gradient-21" x1="862.1" x2="1321.05" xlink:href="#linear-gradient"/><linearGradient id="linear-gradient-22" x1="876.5" x2="1319.44" xlink:href="#linear-gradient"/><linearGradient id="linear-gradient-23" x1="890.9" y1="1447.09" x2="1317.83" y2="1447.09" xlink:href="#linear-gradient"/><linearGradient id="linear-gradient-24" x1="905.31" x2="1316.22" xlink:href="#linear-gradient"/><linearGradient id="linear-gradient-25" x1="919.71" y1="1447.09" x2="1314.61" y2="1447.09" xlink:href="#linear-gradient"/><linearGradient id="linear-gradient-26" x1="934.11" x2="1313" xlink:href="#linear-gradient"/><linearGradient id="linear-gradient-27" x1="948.51" x2="1311.39" xlink:href="#linear-gradient"/><linearGradient id="linear-gradient-28" x1="962.91" y1="1447.09" x2="1309.78" y2="1447.09" xlink:href="#linear-gradient"/><linearGradient id="linear-gradient-29" x1="977.31" x2="1308.17" xlink:href="#linear-gradient"/><linearGradient id="linear-gradient-30" x1="0" x2="779.16" xlink:href="#linear-gradient"/><linearGradient id="linear-gradient-31" x1="14.4" y1="1447.09" x2="777.55" y2="1447.09" xlink:href="#linear-gradient"/><linearGradient id="linear-gradient-32" x1="28.8" x2="775.94" xlink:href="#linear-gradient"/><linearGradient id="linear-gradient-33" x1="43.2" x2="774.33" xlink:href="#linear-gradient"/><linearGradient id="linear-gradient-34" x1="57.6" y1="1447.09" x2="772.72" y2="1447.09" xlink:href="#linear-gradient"/><linearGradient id="linear-gradient-35" x1="72" x2="771.11" xlink:href="#linear-gradient"/><linearGradient id="linear-gradient-36" x1="86.4" y1="1447.09" x2="769.5" y2="1447.09" xlink:href="#linear-gradient"/><linearGradient id="linear-gradient-37" x1="100.8" x2="767.89" xlink:href="#linear-gradient"/><linearGradient id="linear-gradient-38" x1="115.2" x2="766.28" xlink:href="#linear-gradient"/><linearGradient id="linear-gradient-39" x1="129.6" y1="1447.09" x2="764.67" y2="1447.09" xlink:href="#linear-gradient"/><linearGradient id="linear-gradient-40" x1="144" x2="763.06" xlink:href="#linear-gradient"/><linearGradient id="linear-gradient-41" x1="158.4" y1="1447.09" x2="761.45" y2="1447.09" xlink:href="#linear-gradient"/><linearGradient id="linear-gradient-42" x1="172.8" x2="759.84" xlink:href="#linear-gradient"/><linearGradient id="linear-gradient-43" x1="187.2" x2="758.23" xlink:href="#linear-gradient"/><linearGradient id="linear-gradient-44" x1="201.6" y1="1447.09" x2="756.62" y2="1447.09" xlink:href="#linear-gradient"/><linearGradient id="linear-gradient-45" x1="216.01" x2="755.01" xlink:href="#linear-gradient"/><linearGradient id="linear-gradient-46" x1="230.41" x2="753.4" xlink:href="#linear-gradient"/><linearGradient id="linear-gradient-47" x1="244.81" x2="751.79" xlink:href="#linear-gradient"/><linearGradient id="linear-gradient-48" x1="259.21" x2="750.18" xlink:href="#linear-gradient"/><linearGradient id="linear-gradient-49" x1="273.61" y1="1447.09" x2="748.57" y2="1447.09" xlink:href="#linear-gradient"/><linearGradient id="linear-gradient-50" x1="288.01" x2="746.96" xlink:href="#linear-gradient"/><linearGradient id="linear-gradient-51" x1="302.41" x2="745.35" xlink:href="#linear-gradient"/><linearGradient id="linear-gradient-52" x1="316.81" y1="1447.09" x2="743.74" y2="1447.09" xlink:href="#linear-gradient"/><linearGradient id="linear-gradient-53" x1="331.21" x2="742.12" xlink:href="#linear-gradient"/><linearGradient id="linear-gradient-54" x1="345.61" y1="1447.09" x2="740.51" y2="1447.09" xlink:href="#linear-gradient"/><linearGradient id="linear-gradient-55" x1="360.01" x2="738.9" xlink:href="#linear-gradient"/><linearGradient id="linear-gradient-56" x1="374.41" x2="737.29" xlink:href="#linear-gradient"/><linearGradient id="linear-gradient-57" x1="388.81" y1="1447.09" x2="735.68" y2="1447.09" xlink:href="#linear-gradient"/><linearGradient id="linear-gradient-58" x1="403.21" x2="734.07" xlink:href="#linear-gradient"/><linearGradient id="linear-gradient-59" x1="980.93" y1="74.36" x2="870.77" y2="929.74" gradientUnits="userSpaceOnUse"><stop offset="0" stop-color="#cbcbcb"/><stop offset=".99" stop-color="#a0a0a0"/></linearGradient><linearGradient id="linear-gradient-60" x1="850.96" y1="1511.99" x2="899.69" y2="406.37" gradientUnits="userSpaceOnUse"><stop offset="0" stop-color="#cbcbcb"/><stop offset="1" stop-color="#f9f9f9"/></linearGradient><linearGradient id="linear-gradient-61" x1="883.53" y1="336.12" x2="686.31" y2="228.88" gradientTransform="translate(-103.38 193.58) rotate(-8.27) scale(1.05 1) skewX(-3.16)" gradientUnits="userSpaceOnUse"><stop offset="0" stop-color="#094eb2"/><stop offset="1" stop-color="#40b7f0"/></linearGradient><linearGradient id="linear-gradient-62" x1="845.19" y1="410" x2="689.87" y2="325.54" gradientTransform="translate(-103.38 193.58) rotate(-8.27) scale(1.05 1) skewX(-3.16)" gradientUnits="userSpaceOnUse"><stop offset="0" stop-color="#ff8500"/><stop offset="1" stop-color="#fff200"/></linearGradient><linearGradient id="linear-gradient-63" x1="828.38" y1="262.82" x2="734.86" y2="211.97" gradientTransform="translate(-103.38 193.58) rotate(-8.27) scale(1.05 1) skewX(-3.16)" gradientUnits="userSpaceOnUse"><stop offset="0" stop-color="#ffd18d"/><stop offset="1" stop-color="#e29f3d"/></linearGradient><linearGradient id="linear-gradient-64" x1="855.91" y1="210.83" x2="752.96" y2="154.86" gradientTransform="translate(-103.38 193.58) rotate(-8.27) scale(1.05 1) skewX(-3.16)" gradientUnits="userSpaceOnUse"><stop offset="0" stop-color="#5e5e5e"/><stop offset="1" stop-color="#313031"/></linearGradient><linearGradient id="linear-gradient-65" x1="822.36" y1="326.45" x2="781.62" y2="304.29" gradientTransform="translate(-103.38 193.58) rotate(-8.27) scale(1.05 1) skewX(-3.16)" xlink:href="#linear-gradient-60"/><linearGradient id="linear-gradient-66" x1="737.02" y1="310.07" x2="709.08" y2="294.88" gradientTransform="translate(-103.38 193.58) rotate(-8.27) scale(1.05 1) skewX(-3.16)" xlink:href="#linear-gradient-60"/><linearGradient id="linear-gradient-67" x1="1304.25" y1="216.56" x2="1438.75" y2="131.55" gradientTransform="matrix(1,0,0,1,0,0)" xlink:href="#linear-gradient-61"/><linearGradient id="linear-gradient-68" x1="496.08" y1="444.47" x2="1452.99" y2="-160.35" gradientTransform="matrix(1,0,0,1,0,0)" xlink:href="#linear-gradient-61"/><linearGradient id="linear-gradient-69" x1="1112.43" y1="1518.57" x2="978.47" y2="1459.23" gradientTransform="translate(142.63 -241.65) rotate(11.27)" gradientUnits="userSpaceOnUse"><stop offset="0" stop-color="#7f5a1f"/><stop offset="1" stop-color="#e2af47"/></linearGradient><linearGradient id="linear-gradient-70" x1="1330.5" y1="1133.97" x2="1098.66" y2="1031.2" gradientTransform="translate(142.63 -241.65) rotate(11.27)" xlink:href="#linear-gradient-61"/><linearGradient id="linear-gradient-71" x1="1553.78" y1="979.41" x2="1421.58" y2="823.94" gradientTransform="translate(2226.28 -721.59) rotate(90)" xlink:href="#linear-gradient-60"/><linearGradient id="linear-gradient-72" x1="1439.29" y1="791.9" x2="1276.77" y2="677.17" gradientTransform="translate(142.63 -241.65) rotate(11.27)" xlink:href="#linear-gradient-60"/><linearGradient id="linear-gradient-73" x1="1372.26" y1="806.59" x2="1637.66" y2="806.59" gradientTransform="translate(2186.89 -798.66) rotate(90)" xlink:href="#linear-gradient-60"/><linearGradient id="linear-gradient-74" x1="1605.69" y1="721.02" x2="1380.38" y2="721.02" gradientTransform="translate(646.84 -836.01) rotate(35.85)" xlink:href="#linear-gradient-62"/><linearGradient id="linear-gradient-75" x1="1372.25" y1="560" x2="1637.65" y2="560" gradientTransform="translate(2084.72 -998.53) rotate(90)" xlink:href="#linear-gradient-62"/><linearGradient id="linear-gradient-76" x1="1389.85" y1="472.82" x2="1639.44" y2="472.82" gradientTransform="translate(142.63 -241.65) rotate(11.27)" gradientUnits="userSpaceOnUse"><stop offset="0" stop-color="#fff"/><stop offset="1" stop-color="#fff200"/></linearGradient><linearGradient id="linear-gradient-77" x1="1446.34" y1="1797.89" x2="1528.17" y2="1797.89" gradientTransform="translate(646.84 -836.01) rotate(35.85)" xlink:href="#linear-gradient-64"/><linearGradient id="linear-gradient-78" x1="1446.7" y1="1292.92" x2="1528.57" y2="1292.92" gradientTransform="translate(646.84 -836.01) rotate(35.85)" xlink:href="#linear-gradient-64"/><linearGradient id="linear-gradient-79" x1="1816.37" y1="553.31" x2="2595.5" y2="553.31" gradientTransform="translate(2249.47 2992.91) rotate(179.99) scale(.73 3.49) skewX(.02)" xlink:href="#linear-gradient"/><linearGradient id="linear-gradient-80" x1="1830.77" y1="553.31" x2="2593.89" y2="553.31" gradientTransform="translate(2249.67 2994.26) rotate(179.99) scale(.73 3.49) skewX(.02)" xlink:href="#linear-gradient"/><linearGradient id="linear-gradient-81" x1="1845.17" y1="553.31" x2="2592.28" y2="553.31" gradientTransform="translate(2249.87 2995.61) rotate(179.99) scale(.73 3.49) skewX(.02)" xlink:href="#linear-gradient"/><linearGradient id="linear-gradient-82" x1="1859.57" y1="553.31" x2="2590.67" y2="553.31" gradientTransform="translate(2250.07 2996.96) rotate(179.99) scale(.73 3.49) skewX(.02)" xlink:href="#linear-gradient"/><linearGradient id="linear-gradient-83" x1="1873.97" y1="553.31" x2="2589.06" y2="553.31" gradientTransform="translate(2250.27 2998.3) rotate(179.99) scale(.73 3.49) skewX(.02)" xlink:href="#linear-gradient"/><linearGradient id="linear-gradient-84" x1="1888.37" y1="553.31" x2="2587.45" y2="553.31" gradientTransform="translate(2250.47 2999.65) rotate(179.99) scale(.73 3.49) skewX(.02)" xlink:href="#linear-gradient"/><linearGradient id="linear-gradient-85" x1="1902.77" y1="553.31" x2="2585.84" y2="553.31" gradientTransform="translate(2250.67 3001) rotate(179.99) scale(.73 3.49) skewX(.02)" xlink:href="#linear-gradient"/><linearGradient id="linear-gradient-86" x1="1917.17" y1="553.31" x2="2584.23" y2="553.31" gradientTransform="translate(2250.87 3002.35) rotate(179.99) scale(.73 3.49) skewX(.02)" xlink:href="#linear-gradient"/><linearGradient id="linear-gradient-87" x1="1931.57" y1="553.31" x2="2582.62" y2="553.31" gradientTransform="translate(2251.07 3003.7) rotate(179.99) scale(.73 3.49) skewX(.02)" xlink:href="#linear-gradient"/><linearGradient id="linear-gradient-88" x1="1945.97" y1="553.31" x2="2581.01" y2="553.31" gradientTransform="translate(2251.27 3005.04) rotate(179.99) scale(.73 3.49) skewX(.02)" xlink:href="#linear-gradient"/><linearGradient id="linear-gradient-89" x1="1960.37" y1="553.31" x2="2579.4" y2="553.31" gradientTransform="translate(2251.47 3006.39) rotate(179.99) scale(.73 3.49) skewX(.02)" xlink:href="#linear-gradient"/><linearGradient id="linear-gradient-90" x1="1974.77" y1="553.31" x2="2577.79" y2="553.31" gradientTransform="translate(2251.68 3007.74) rotate(179.99) scale(.73 3.49) skewX(.02)" xlink:href="#linear-gradient"/><linearGradient id="linear-gradient-91" x1="1989.17" y1="553.31" x2="2576.18" y2="553.31" gradientTransform="translate(2251.87 3009.08) rotate(179.99) scale(.73 3.49) skewX(.02)" xlink:href="#linear-gradient"/><linearGradient id="linear-gradient-92" x1="2003.57" y1="553.31" x2="2574.57" y2="553.31" gradientTransform="translate(2252.08 3010.43) rotate(179.99) scale(.73 3.49) skewX(.02)" xlink:href="#linear-gradient"/><linearGradient id="linear-gradient-93" x1="2017.97" y1="553.31" x2="2572.96" y2="553.31" gradientTransform="translate(2252.27 3011.78) rotate(179.99) scale(.73 3.49) skewX(.02)" xlink:href="#linear-gradient"/><linearGradient id="linear-gradient-94" x1="2032.37" y1="553.31" x2="2571.35" y2="553.31" gradientTransform="translate(2252.48 3013.13) rotate(179.99) scale(.73 3.49) skewX(.02)" xlink:href="#linear-gradient"/><linearGradient id="linear-gradient-95" x1="2046.77" y1="553.31" x2="2569.74" y2="553.31" gradientTransform="translate(2252.68 3014.48) rotate(179.99) scale(.73 3.49) skewX(.02)" xlink:href="#linear-gradient"/><linearGradient id="linear-gradient-96" x1="2061.17" y1="553.31" x2="2568.13" y2="553.31" gradientTransform="translate(2252.87 3015.83) rotate(179.99) scale(.73 3.49) skewX(.02)" xlink:href="#linear-gradient"/><linearGradient id="linear-gradient-97" x1="2075.57" y1="553.31" x2="2566.52" y2="553.31" gradientTransform="translate(2253.08 3017.17) rotate(179.99) scale(.73 3.49) skewX(.02)" xlink:href="#linear-gradient"/><linearGradient id="linear-gradient-98" x1="2089.97" y1="553.31" x2="2564.91" y2="553.31" gradientTransform="translate(2253.28 3018.52) rotate(179.99) scale(.73 3.49) skewX(.02)" xlink:href="#linear-gradient"/><linearGradient id="linear-gradient-99" x1="2104.37" y1="553.31" x2="2563.3" y2="553.31" gradientTransform="translate(2253.48 3019.87) rotate(179.99) scale(.73 3.49) skewX(.02)" xlink:href="#linear-gradient"/><linearGradient id="linear-gradient-100" x1="2118.77" y1="553.31" x2="2561.69" y2="553.31" gradientTransform="translate(2253.68 3021.21) rotate(179.99) scale(.73 3.49) skewX(.02)" xlink:href="#linear-gradient"/><linearGradient id="linear-gradient-101" x1="2133.16" y1="553.31" x2="2560.08" y2="553.31" gradientTransform="translate(2253.88 3022.56) rotate(179.99) scale(.73 3.49) skewX(.02)" xlink:href="#linear-gradient"/><linearGradient id="linear-gradient-102" x1="2147.56" y1="553.31" x2="2558.47" y2="553.31" gradientTransform="translate(2254.08 3023.91) rotate(179.99) scale(.73 3.49) skewX(.02)" xlink:href="#linear-gradient"/><linearGradient id="linear-gradient-103" x1="2161.96" y1="553.31" x2="2556.86" y2="553.31" gradientTransform="translate(2254.28 3025.26) rotate(179.99) scale(.73 3.49) skewX(.02)" xlink:href="#linear-gradient"/><linearGradient id="linear-gradient-104" x1="2176.36" y1="553.31" x2="2555.25" y2="553.31" gradientTransform="translate(2254.48 3026.6) rotate(179.99) scale(.73 3.49) skewX(.02)" xlink:href="#linear-gradient"/><linearGradient id="linear-gradient-105" x1="2190.76" y1="553.31" x2="2553.64" y2="553.31" gradientTransform="translate(2254.68 3027.95) rotate(179.99) scale(.73 3.49) skewX(.02)" xlink:href="#linear-gradient"/><linearGradient id="linear-gradient-106" x1="2205.16" y1="553.31" x2="2552.03" y2="553.31" gradientTransform="translate(2254.88 3029.3) rotate(179.99) scale(.73 3.49) skewX(.02)" xlink:href="#linear-gradient"/><linearGradient id="linear-gradient-107" x1="2219.56" y1="553.31" x2="2550.42" y2="553.31" gradientTransform="translate(2255.08 3030.65) rotate(179.99) scale(.73 3.49) skewX(.02)" xlink:href="#linear-gradient"/><linearGradient id="linear-gradient-108" x1="-146.56" y1="1465.17" x2="930.1" y2="784.67" gradientTransform="translate(6.42 -11.6) rotate(.56) skewX(.56)" xlink:href="#linear-gradient-61"/><linearGradient id="linear-gradient-109" x1="320.9" y1="1561.63" x2="428.91" y2="939.53" xlink:href="#linear-gradient-60"/><linearGradient id="linear-gradient-110" x1="601.5" y1="1276.12" x2="766.51" y2="1171.82" gradientTransform="translate(192.77 -290.58) rotate(14.58) skewX(.63)" xlink:href="#linear-gradient-61"/><linearGradient id="linear-gradient-111" x1="561.62" y1="1289.92" x2="817.62" y2="1128.12" gradientTransform="translate(192.77 -290.58) rotate(14.58) skewX(.63)" xlink:href="#linear-gradient-61"/><linearGradient id="linear-gradient-112" x1="432.66" y1="1128.11" x2="493.29" y2="1108.05" gradientTransform="translate(-30.97 62.38) rotate(-2.78) scale(1.03 1) skewX(-2.7)" gradientUnits="userSpaceOnUse"><stop offset="0" stop-color="#f49e06"/><stop offset="1" stop-color="#ffd16c"/></linearGradient><linearGradient id="linear-gradient-113" x1="475.61" y1="1140.92" x2="536.23" y2="1120.86" xlink:href="#linear-gradient-112"/><linearGradient id="linear-gradient-114" x1="518.55" y1="1152.98" x2="579.18" y2="1132.92" xlink:href="#linear-gradient-112"/><linearGradient id="linear-gradient-115" x1="561.49" y1="1165.79" x2="622.12" y2="1145.73" xlink:href="#linear-gradient-112"/><linearGradient id="linear-gradient-116" x1="604.44" y1="1178.6" x2="665.07" y2="1158.54" xlink:href="#linear-gradient-112"/><linearGradient id="linear-gradient-117" x1="627.29" y1="69.17" x2="657.88" y2="69.17" gradientTransform="translate(256.12 -448.85) rotate(47.13)" xlink:href="#linear-gradient-62"/><linearGradient id="linear-gradient-118" x1="673.46" y1="75.43" x2="704.05" y2="75.43" gradientTransform="translate(255.07 -464.93) rotate(45)" xlink:href="#linear-gradient-62"/><linearGradient id="linear-gradient-119" x1="719.63" y1="81.7" x2="750.22" y2="81.7" gradientTransform="translate(273.02 -495.74) rotate(45)" xlink:href="#linear-gradient-62"/></defs><g class="cls-128"><ellipse class="cls-88" cx="963.68" cy="1447.09" rx="389.58" ry="69.6"/><ellipse class="cls-74" cx="970.07" cy="1447.09" rx="381.57" ry="68.17"/><ellipse class="cls-110" cx="976.47" cy="1447.09" rx="373.57" ry="66.74"/><ellipse class="cls-85" cx="982.86" cy="1447.09" rx="365.56" ry="65.31"/><ellipse class="cls-45" cx="989.26" cy="1447.09" rx="357.56" ry="63.88"/><ellipse class="cls-90" cx="995.65" cy="1447.09" rx="349.55" ry="62.45"/><ellipse class="cls-79" cx="1002.05" cy="1447.09" rx="341.55" ry="61.02"/><ellipse class="cls-2" cx="1008.44" cy="1447.09" rx="333.54" ry="59.59"/><ellipse class="cls-112" cx="1014.84" cy="1447.09" rx="325.54" ry="58.16"/><ellipse class="cls-91" cx="1021.23" cy="1447.09" rx="317.53" ry="56.73"/><ellipse class="cls-21" cx="1027.63" cy="1447.09" rx="309.53" ry="55.3"/><ellipse class="cls-16" cx="1034.02" cy="1447.09" rx="301.52" ry="53.87"/><ellipse class="cls-61" cx="1040.42" cy="1447.09" rx="293.52" ry="52.44"/><ellipse class="cls-81" cx="1046.81" cy="1447.09" rx="285.51" ry="51.01"/><ellipse class="cls-86" cx="1053.21" cy="1447.09" rx="277.51" ry="49.58"/><ellipse class="cls-34" cx="1059.6" cy="1447.09" rx="269.5" ry="48.15"/><ellipse class="cls-12" cx="1066" cy="1447.09" rx="261.5" ry="46.72"/><ellipse class="cls-75" cx="1072.39" cy="1447.09" rx="253.49" ry="45.29"/><ellipse class="cls-48" cx="1078.79" cy="1447.09" rx="245.48" ry="43.86"/><ellipse class="cls-28" cx="1085.18" cy="1447.09" rx="237.48" ry="42.43"/><ellipse class="cls-56" cx="1091.58" cy="1447.09" rx="229.47" ry="41"/><ellipse class="cls-30" cx="1097.97" cy="1447.09" rx="221.47" ry="39.57"/><ellipse class="cls-47" cx="1104.37" cy="1447.09" rx="213.46" ry="38.14"/><ellipse class="cls-107" cx="1110.76" cy="1447.09" rx="205.46" ry="36.71"/><ellipse class="cls-70" cx="1117.16" cy="1447.09" rx="197.45" ry="35.28"/><ellipse class="cls-9" cx="1123.55" cy="1447.09" rx="189.45" ry="33.85"/><ellipse class="cls-78" cx="1129.95" cy="1447.09" rx="181.44" ry="32.42"/><ellipse class="cls-84" cx="1136.34" cy="1447.09" rx="173.44" ry="30.99"/><ellipse class="cls-95" cx="1142.74" cy="1447.09" rx="165.43" ry="29.56"/></g><g class="cls-128"><ellipse class="cls-93" cx="389.58" cy="1447.09" rx="389.58" ry="69.6"/><ellipse class="cls-99" cx="395.97" cy="1447.09" rx="381.57" ry="68.17"/><ellipse class="cls-17" cx="402.37" cy="1447.09" rx="373.57" ry="66.74"/><ellipse class="cls-111" cx="408.76" cy="1447.09" rx="365.56" ry="65.31"/><ellipse class="cls-121" cx="415.16" cy="1447.09" rx="357.56" ry="63.88"/><ellipse class="cls-116" cx="421.55" cy="1447.09" rx="349.55" ry="62.45"/><ellipse class="cls-6" cx="427.95" cy="1447.09" rx="341.55" ry="61.02"/><ellipse class="cls-51" cx="434.34" cy="1447.09" rx="333.54" ry="59.59"/><ellipse class="cls-5" cx="440.74" cy="1447.09" rx="325.54" ry="58.16"/><ellipse class="cls-38" cx="447.13" cy="1447.09" rx="317.53" ry="56.73"/><ellipse class="cls-19" cx="453.53" cy="1447.09" rx="309.53" ry="55.3"/><ellipse class="cls-29" cx="459.92" cy="1447.09" rx="301.52" ry="53.87"/><ellipse class="cls-59" cx="466.32" cy="1447.09" rx="293.52" ry="52.44"/><ellipse class="cls-39" cx="472.72" cy="1447.09" rx="285.51" ry="51.01"/><ellipse class="cls-50" cx="479.11" cy="1447.09" rx="277.51" ry="49.58"/><ellipse class="cls-54" cx="485.51" cy="1447.09" rx="269.5" ry="48.15"/><ellipse class="cls-4" cx="491.9" cy="1447.09" rx="261.5" ry="46.72"/><ellipse class="cls-26" cx="498.3" cy="1447.09" rx="253.49" ry="45.29"/><ellipse class="cls-14" cx="504.69" cy="1447.09" rx="245.48" ry="43.86"/><ellipse class="cls-43" cx="511.09" cy="1447.09" rx="237.48" ry="42.43"/><ellipse class="cls-37" cx="517.48" cy="1447.09" rx="229.47" ry="41"/><ellipse class="cls-20" cx="523.88" cy="1447.09" rx="221.47" ry="39.57"/><ellipse class="cls-8" cx="530.27" cy="1447.09" rx="213.46" ry="38.14"/><ellipse class="cls-80" cx="536.67" cy="1447.09" rx="205.46" ry="36.71"/><ellipse class="cls-89" cx="543.06" cy="1447.09" rx="197.45" ry="35.28"/><ellipse class="cls-63" cx="549.46" cy="1447.09" rx="189.45" ry="33.85"/><ellipse class="cls-10" cx="555.85" cy="1447.09" rx="181.44" ry="32.42"/><ellipse class="cls-35" cx="562.25" cy="1447.09" rx="173.44" ry="30.99"/><ellipse class="cls-32" cx="568.64" cy="1447.09" rx="165.43" ry="29.56"/></g><path class="cls-57" d="m1405.17,157.62l-19.38,110.25-.32,1.47-200.71,1144.33c-5.48,31.17-37.8,49.91-67.5,39.07l-677.1-246.72c-23.17-8.42-36.96-32.33-32.64-56.65l180.07-1019.02,14.11-79.5c4.74-26.75,29.59-45.07,56.55-41.7l674.15,85.51,29.06,3.69c28.85,3.69,48.76,30.75,43.7,59.29Z"/><path class="cls-55" d="m1388.01,148.88l-19.38,110.25-201.02,1145.8c-5.48,31.17-37.8,49.91-67.5,39.07l-677.1-246.72c-23.17-8.42-36.96-32.33-32.64-56.65L570.43,121.6l14.11-79.5c4.74-26.75,29.59-45.07,56.55-41.7l703.21,89.19c28.85,3.69,48.76,30.75,43.7,59.29Z"/><path class="cls-82" d="m871.19,326.93c3.28,37.95-6.37,74.53-25.22,104.86-24.67,39.55-64.82,68.34-111.92,75.19-62.19,9.04-118.91-22.53-146.9-75.32-9.51-18.13-15.72-38.61-17.65-60.89-7.54-87.29,53.85-167.95,137.25-180.06,83.3-12.1,156.91,48.93,164.45,136.23Z"/><path class="cls-7" d="m845.97,431.79c-24.67,39.55-64.82,68.34-111.92,75.19-62.19,9.04-118.91-22.53-146.9-75.32,12.5-15.51,35.53-39.26,70.5-49.17,53.22-14.93,115.21-10.83,149.96,12.7,13.37,8.99,26.86,22.9,38.36,36.6Z"/><path class="cls-33" d="m667.77,258.39s-11.08,85.82-3.33,96.01c7.75,10.19,21.41,9.11,21.41,9.11l1.27,14.76s.81,14.82,34.07,9.99c33.26-4.83,54.9-23.37,54.9-23.37,0,0-5.08-31.41,13.72-55.42,18.8-24.01-10.82-70.41-10.82-70.41,0,0-83.54,10.33-85.26,12.39-1.72,2.06-25.96,6.94-25.96,6.94Z"/><path class="cls-96" d="m655.5,250.83s18.69,26.56,58.26,21.64l39.57-4.91s-5.78,14.22,1.85,21.48-7.45,25.34,2.35,27.26c9.8,1.92,7.53-34.55,19.93-33,12.4,1.54,1.84,31.51,10.06,35.34,8.22,3.82,36.31-46.26,27.47-67.55-8.85-21.3-18.9-26.06-18.9-26.06,0,0,1.07-28.22-47.89-26.96-48.96,1.26-92.71,52.78-92.71,52.78Z"/><polygon class="cls-77" points="781.06 356.47 721.19 388.26 746.03 417.7 796.19 372.38 781.06 356.47"/><polygon class="cls-40" points="685.85 363.51 655.51 374.71 663.84 405.19 696.41 387.42 685.85 363.51"/><line class="cls-127" x1="1112.12" y1="306.04" x2="1290.86" y2="337.9"/><line class="cls-127" x1="951.76" y1="277.45" x2="1042.74" y2="293.67"/><line class="cls-127" x1="1102.07" y1="371.53" x2="1278.3" y2="406.83"/><line class="cls-127" x1="940.4" y1="339.14" x2="1062.06" y2="363.51"/><line class="cls-127" x1="1082.8" y1="435.05" x2="1265.75" y2="475.75"/><line class="cls-127" x1="929.05" y1="400.83" x2="1017.14" y2="420.44"/><line class="cls-127" x1="1071.17" y1="500.11" x2="1253.19" y2="544.68"/><line class="cls-127" x1="917.7" y1="462.53" x2="1037.75" y2="491.92"/><line class="cls-127" x1="906.35" y1="524.22" x2="1240.63" y2="613.6"/><line class="cls-126" x1="586.07" y1="558.63" x2="1226.62" y2="723.31"/><line class="cls-126" x1="573.47" y1="625.53" x2="1213.62" y2="792.35"/><line class="cls-126" x1="560.87" y1="692.43" x2="1200.62" y2="861.39"/><line class="cls-126" x1="548.27" y1="759.33" x2="1067.51" y2="895.59"/><line class="cls-126" x1="525.88" y1="846.34" x2="1164.51" y2="1020.24"/><line class="cls-126" x1="513.28" y1="913.24" x2="1151.51" y2="1089.28"/><line class="cls-126" x1="500.69" y1="980.13" x2="1138.51" y2="1158.32"/><line class="cls-126" x1="488.09" y1="1047.03" x2="1005.4" y2="1192.52"/><path class="cls-11" d="m1405.17,157.62l-19.38,110.25-.32,1.47-16.85-10.21-36.22-164.48,29.06,3.69c28.85,3.69,48.76,30.75,43.7,59.29Z"/><path class="cls-92" d="m1388.01,148.88l-19.38,110.25-800.78-122.92,16.69-94.11c4.74-26.75,29.59-45.07,56.55-41.7l703.21,89.19c28.85,3.69,48.76,30.75,43.7,59.29Z"/><polygon class="cls-68" points="1051.4 1364.47 859.87 1478.43 772.45 1530.34 793.54 1430.49 838.58 1216.6 1051.4 1364.47"/><path class="cls-103" d="m1430.14,842.35l-372.16,515.05c-19.56,27.07-66.47,28.15-114.31,5.73-11.84-5.43-23.83-12.46-35.38-20.8-11.65-8.42-21.98-17.52-30.88-27.24-36.19-38.3-49.98-83.07-30.42-110.14l372.16-515.05c-19.56,27.07-5.77,71.84,30.34,110.25,8.98,9.61,19.31,18.72,30.96,27.13,11.54,8.34,23.54,15.37,35.3,20.91,47.91,22.31,94.82,21.23,114.39-5.84Z"/><ellipse class="cls-31" cx="1324.64" cy="766.13" rx="75.45" ry="130.15" transform="translate(-72.15 1391.11) rotate(-54.15)"/><path class="cls-94" d="m1485.82,765.29l-55.68,77.07c-24.39,33.76-91.44,27.02-149.68-15.07-58.25-42.09-85.7-103.62-61.3-137.38l55.68-77.07c-24.39,33.76,3.06,95.3,61.3,137.39,58.25,42.09,125.29,48.83,149.68,15.07Z"/><ellipse class="cls-27" cx="1380.33" cy="689.06" rx="75.45" ry="130.15" transform="translate(13.39 1404.32) rotate(-54.15)"/><path class="cls-105" d="m1630.24,565.42l-144.42,199.87c-24.39,33.76-91.44,27.02-149.68-15.07-58.25-42.09-85.7-103.62-61.3-137.38l144.42-199.87c-24.39,33.76,3.05,95.3,61.3,137.39,58.25,42.09,125.29,48.83,149.68,15.07Z"/><ellipse class="cls-120" cx="1524.75" cy="489.19" rx="75.45" ry="130.15" transform="translate(235.23 1438.56) rotate(-54.15)"/><path class="cls-15" d="m1631.06,561.32c-24.4,33.76-91.44,27.02-149.68-15.07-47.18-34.09-74.13-80.93-69.72-115.45-7.27,34.83,19.8,84.07,68.9,119.54,58.25,42.09,125.29,48.83,149.68,15.07,4.63-6.41,7.38-13.84,8.41-21.94-1.36,6.49-3.77,12.54-7.6,17.84Z"/><polygon class="cls-66" points="859.87 1478.43 772.45 1530.34 793.54 1430.49 859.87 1478.43"/><path class="cls-104" d="m1315.75,848.2l-372.08,514.94c-11.84-5.43-23.83-12.46-35.38-20.8-11.65-8.42-21.98-17.52-30.88-27.24l372.08-514.94c8.98,9.61,19.31,18.72,30.96,27.13,11.54,8.34,23.54,15.37,35.3,20.91Z"/><g class="cls-129"><ellipse class="cls-23" cx="649.5" cy="1062.77" rx="282.46" ry="242.86" transform="translate(-280.87 234.67) rotate(-16.9)"/><ellipse class="cls-115" cx="645.06" cy="1064.11" rx="276.65" ry="237.87" transform="translate(-281.45 233.44) rotate(-16.9)"/><ellipse class="cls-102" cx="640.63" cy="1065.46" rx="270.85" ry="232.88" transform="translate(-282.03 232.21) rotate(-16.9)"/><ellipse class="cls-108" cx="636.19" cy="1066.81" rx="265.04" ry="227.88" transform="translate(-282.62 230.98) rotate(-16.9)"/><ellipse class="cls-69" cx="631.76" cy="1068.16" rx="259.24" ry="222.89" transform="translate(-283.2 229.75) rotate(-16.9)"/><ellipse class="cls-1" cx="627.32" cy="1069.51" rx="253.44" ry="217.9" transform="translate(-283.78 228.52) rotate(-16.9)"/><ellipse class="cls-44" cx="622.88" cy="1070.86" rx="247.63" ry="212.91" transform="translate(-284.37 227.29) rotate(-16.9)"/><ellipse class="cls-122" cx="618.45" cy="1072.21" rx="241.83" ry="207.92" transform="translate(-284.95 226.05) rotate(-16.9)"/><ellipse class="cls-62" cx="614.01" cy="1073.55" rx="236.02" ry="202.93" transform="translate(-285.54 224.82) rotate(-16.9)"/><ellipse class="cls-101" cx="609.57" cy="1074.9" rx="230.22" ry="197.94" transform="translate(-286.12 223.59) rotate(-16.9)"/><ellipse class="cls-119" cx="605.14" cy="1076.25" rx="224.42" ry="192.95" transform="translate(-286.7 222.36) rotate(-16.9)"/><ellipse class="cls-24" cx="600.7" cy="1077.6" rx="218.61" ry="187.96" transform="translate(-287.29 221.13) rotate(-16.9)"/><ellipse class="cls-58" cx="596.27" cy="1078.95" rx="212.81" ry="182.97" transform="translate(-287.87 219.9) rotate(-16.9)"/><ellipse class="cls-87" cx="591.83" cy="1080.3" rx="207" ry="177.98" transform="translate(-288.45 218.67) rotate(-16.9)"/><ellipse class="cls-13" cx="587.39" cy="1081.65" rx="201.2" ry="172.99" transform="translate(-289.04 217.44) rotate(-16.9)"/><ellipse class="cls-73" cx="582.96" cy="1083" rx="195.4" ry="168" transform="translate(-289.62 216.2) rotate(-16.9)"/><ellipse class="cls-25" cx="578.52" cy="1084.34" rx="189.59" ry="163.01" transform="translate(-290.2 214.97) rotate(-16.9)"/><ellipse class="cls-3" cx="574.09" cy="1085.69" rx="183.79" ry="158.02" transform="translate(-290.79 213.74) rotate(-16.9)"/><ellipse class="cls-65" cx="569.65" cy="1087.04" rx="177.98" ry="153.03" transform="translate(-291.37 212.51) rotate(-16.9)"/><ellipse class="cls-36" cx="565.21" cy="1088.39" rx="172.18" ry="148.04" transform="translate(-291.96 211.28) rotate(-16.9)"/><ellipse class="cls-18" cx="560.78" cy="1089.74" rx="166.38" ry="143.05" transform="translate(-292.54 210.05) rotate(-16.9)"/><ellipse class="cls-53" cx="556.34" cy="1091.09" rx="160.57" ry="138.06" transform="translate(-293.12 208.82) rotate(-16.9)"/><ellipse class="cls-72" cx="551.9" cy="1092.44" rx="154.77" ry="133.07" transform="translate(-293.7 207.59) rotate(-16.9)"/><ellipse class="cls-41" cx="547.47" cy="1093.79" rx="148.96" ry="128.08" transform="translate(-294.29 206.35) rotate(-16.9)"/><ellipse class="cls-71" cx="543.03" cy="1095.13" rx="143.16" ry="123.09" transform="translate(-294.87 205.12) rotate(-16.9)"/><ellipse class="cls-42" cx="538.6" cy="1096.48" rx="137.36" ry="118.1" transform="translate(-295.45 203.89) rotate(-16.9)"/><ellipse class="cls-60" cx="534.16" cy="1097.83" rx="131.55" ry="113.11" transform="translate(-296.04 202.66) rotate(-16.9)"/><ellipse class="cls-22" cx="529.72" cy="1099.18" rx="125.75" ry="108.12" transform="translate(-296.62 201.43) rotate(-16.9)"/><ellipse class="cls-97" cx="525.29" cy="1100.53" rx="119.94" ry="103.13" transform="translate(-297.21 200.2) rotate(-16.9)"/></g><path class="cls-118" d="m66.99,1294.61l537.32,151.95c18.07,6.8,37.8-3.92,41.9-22.77l109.48-472.9c3.16-14.53-5.82-29.06-20.24-32.72l-540.01-136.87c-19.38-4.91-38.86,7.03-43.28,26.54l-106.38,447.41c-3.74,16.52,5.35,33.38,21.21,39.36Z"/><path class="cls-98" d="m623.21,1430.43c-.22,0-.47-.05-.73-.16l-557.8-158.68c-1.69-.81-2.63-2.7-2.22-4.55l110.07-463.88c.7-3.13,3.59-4.79,6.07-4.77.5,0,1.01.07,1.52.2l558.29,141.5-113.02,488.25c-.39,1.79-1.69,2.09-2.17,2.08Z"/><path class="cls-52" d="m589.2,1044.12c9.28-3.81,16.38-12.51,17.12-23.95.72-11.08-5.48-21.96-15.44-26.88-16.55-8.17-35.2,1.1-39.39,17.96-2.21,8.9.18,17.86,5.57,24.52-23.08,1.26-43.55,17.29-49.44,40.99-1.13,4.55-1.64,9.11-1.59,13.6.06,5.97,4.23,11.16,10,12.66l77.86,20.25c5.76,1.5,11.85-1.02,14.69-6.24,2.13-3.92,3.82-8.18,4.95-12.73,5.89-23.7-4.62-47.79-24.31-60.18Z"/><path class="cls-117" d="m592.59,961.56c-49.9-12.98-100.43,17.06-112.85,67.09-12.43,50.04,17.95,101.12,67.84,114.1,49.9,12.98,100.43-17.06,112.85-67.09,12.43-50.04-17.95-101.12-67.84-114.1Zm-42.18,169.78c-43.61-11.35-70.16-55.99-59.3-99.73,10.86-43.73,55.02-69.99,98.64-58.64,43.61,11.35,70.16,55.99,59.3,99.73-10.86,43.73-55.03,69.99-98.64,58.64Z"/><line class="cls-125" x1="421.18" y1="1232.51" x2="597.45" y2="1285.04"/><line class="cls-123" x1="203.4" y1="877.64" x2="371.47" y2="918.26"/><line class="cls-124" x1="174.27" y1="969.35" x2="342.34" y2="1009.97"/><line class="cls-124" x1="162.8" y1="1008.22" x2="371.47" y2="1058.43"/><line class="cls-124" x1="153.88" y1="1047.52" x2="369.53" y2="1102.41"/><line class="cls-124" x1="144.96" y1="1086.82" x2="360.61" y2="1141.71"/><line class="cls-124" x1="136.03" y1="1126.12" x2="351.69" y2="1181.01"/><line class="cls-124" x1="127.11" y1="1165.42" x2="273.65" y2="1202.72"/><line class="cls-125" x1="410.62" y1="1278.39" x2="586.88" y2="1330.93"/><polygon class="cls-109" points="442.09 1135.08 448.56 1148.43 463.01 1149.86 452.55 1161.07 455.02 1175.98 442.09 1169.56 429.17 1177.34 431.64 1162.17 421.18 1152.06 435.63 1149.11 442.09 1135.08"/><polygon class="cls-100" points="486.1 1145.76 492.56 1159.1 507.01 1160.54 496.55 1171.74 499.02 1186.66 486.1 1180.24 473.17 1188.02 475.64 1172.85 465.18 1162.74 479.63 1159.78 486.1 1145.76"/><polygon class="cls-83" points="530.1 1155.68 536.56 1169.03 551.01 1170.46 540.55 1181.67 543.02 1196.59 530.1 1190.16 517.17 1197.95 519.64 1182.77 509.18 1172.67 523.63 1169.71 530.1 1155.68"/><polygon class="cls-113" points="574.1 1166.36 580.56 1179.71 595.01 1181.14 584.55 1192.35 587.02 1207.26 574.1 1200.84 561.17 1208.62 563.64 1193.45 553.18 1183.34 567.63 1180.39 574.1 1166.36"/><polygon class="cls-114" points="618.1 1177.04 624.56 1190.39 639.01 1191.82 628.56 1203.03 631.02 1217.94 618.1 1211.52 605.17 1219.3 607.64 1204.13 597.18 1194.02 611.64 1191.07 618.1 1177.04"/><circle class="cls-76" cx="642.58" cy="69.17" r="15.29" transform="translate(154.73 493.07) rotate(-47.13)"/><circle class="cls-106" cx="688.75" cy="75.43" r="15.29" transform="translate(148.39 509.12) rotate(-45)"/><circle class="cls-67" cx="734.92" cy="81.7" r="15.29" transform="translate(157.48 543.6) rotate(-45)"/><path class="cls-46" d="m133.24,237.18l328.45,48.35c19.11,2.74,31.22,19.3,28.04,38.34l-70.62,343.42c-3.94,23.58-33.13,49.35-56,43.56l-328.44-70.56c-17.28-4.38-27.4-20.41-24.12-38.21l61.62-325.85c4.01-21.75,39.23-42.18,61.08-39.04Z"/><path class="cls-64" d="m122.82,235.66l328.45,48.34c19.11,2.74,31.22,19.3,28.04,38.34l-70.62,343.42c-3.94,23.58-29.13,40.28-52,34.49L29.92,627.89c-17.28-4.38-27.41-20.41-24.12-38.21l68.94-319.41c4.01-21.75,26.23-37.75,48.08-34.61Z"/><path class="cls-49" d="m459.43,320.41l-49.41,240.16-21.09,102.53c-1.63,9.66-10.25,17.39-19.71,18.3-2.14.21-4.28.11-6.34-.39l-326.77-72.41c-7.61-1.87-11.91-8.75-10.53-16.59l13.2-71.77,55.75-247.7c1.65-8.96,10.08-16.37,19.54-17.28,1.52-.15,3.06-.09,4.49.07l328.39,48.39c8.71,1.16,13.83,8.27,12.47,16.7Z"/><path class="cls-64" d="m410.02,560.57l-21.09,102.53c-1.63,9.66-10.25,17.39-19.71,18.3-2.14.21-4.28.11-6.34-.39l-326.77-72.41c-7.61-1.87-11.91-8.75-10.53-16.59l13.2-71.77,122.58-97.14,53.79,106.52,136.71-141.36,58.14,172.3Z"/><ellipse class="cls-64" cx="164.58" cy="353.14" rx="40.36" ry="37.69" transform="translate(-184.11 179.33) rotate(-38.52)"/></svg>