<?xml version="1.0" encoding="UTF-8"?><svg id="Layer_1" xmlns="http://www.w3.org/2000/svg" xmlns:xlink="http://www.w3.org/1999/xlink" viewBox="0 0 2664.81 1988.67"><defs><style>.cls-1{opacity:.12;}.cls-1,.cls-2,.cls-3,.cls-4,.cls-5,.cls-6,.cls-7,.cls-8,.cls-9,.cls-10,.cls-11,.cls-12,.cls-13,.cls-14,.cls-15,.cls-16,.cls-17,.cls-18,.cls-19,.cls-20,.cls-21,.cls-22,.cls-23,.cls-24,.cls-25,.cls-26,.cls-27,.cls-28,.cls-29,.cls-30,.cls-31,.cls-32,.cls-33,.cls-34,.cls-35,.cls-36,.cls-37,.cls-38,.cls-39,.cls-40,.cls-41,.cls-42,.cls-43,.cls-44,.cls-45,.cls-46,.cls-47,.cls-48,.cls-49,.cls-50,.cls-51,.cls-52,.cls-53,.cls-54,.cls-55,.cls-56,.cls-57,.cls-58,.cls-59,.cls-60,.cls-61,.cls-62,.cls-63,.cls-64,.cls-65,.cls-66,.cls-67,.cls-68,.cls-69,.cls-70,.cls-71,.cls-72,.cls-73,.cls-74,.cls-75,.cls-76,.cls-77,.cls-78,.cls-79,.cls-80,.cls-81,.cls-82,.cls-83,.cls-84,.cls-85,.cls-86,.cls-87,.cls-88,.cls-89,.cls-90,.cls-91,.cls-92,.cls-93,.cls-94,.cls-95,.cls-96,.cls-97,.cls-98,.cls-99,.cls-100,.cls-101,.cls-102,.cls-103,.cls-104,.cls-105,.cls-106,.cls-107,.cls-108,.cls-109,.cls-110,.cls-111,.cls-112,.cls-113,.cls-114,.cls-115,.cls-116,.cls-117,.cls-118,.cls-119,.cls-120,.cls-121,.cls-122,.cls-123,.cls-124,.cls-125,.cls-126,.cls-127,.cls-128,.cls-129,.cls-130,.cls-131,.cls-132,.cls-133,.cls-134,.cls-135,.cls-136,.cls-137,.cls-138,.cls-139,.cls-140,.cls-141,.cls-142,.cls-143{stroke-width:0px;}.cls-1,.cls-5,.cls-6,.cls-14,.cls-16,.cls-20,.cls-23,.cls-28,.cls-36,.cls-37,.cls-44,.cls-45,.cls-74,.cls-75,.cls-77,.cls-79,.cls-83,.cls-91,.cls-103,.cls-108,.cls-115,.cls-119,.cls-120,.cls-126,.cls-127,.cls-134,.cls-136,.cls-139,.cls-142{fill:#010a0f;}.cls-2{fill:url(#linear-gradient-38);}.cls-3{fill:#fefefe;}.cls-4{fill:url(#linear-gradient-12);}.cls-5{opacity:.32;}.cls-6{opacity:.46;}.cls-7{fill:url(#linear-gradient-17);}.cls-8{fill:url(#linear-gradient-88);}.cls-9{fill:url(#linear-gradient-19);}.cls-10{fill:url(#linear-gradient-33);}.cls-11{fill:url(#linear-gradient);}.cls-12{fill:url(#linear-gradient-62);}.cls-13{fill:url(#linear-gradient-92);}.cls-14{opacity:.14;}.cls-15{fill:url(#linear-gradient-98);}.cls-16,.cls-144{opacity:.5;}.cls-17{fill:url(#linear-gradient-67);}.cls-18{fill:url(#linear-gradient-57);}.cls-19{fill:url(#linear-gradient-21);}.cls-20{opacity:.09;}.cls-21{fill:url(#linear-gradient-6);}.cls-22{fill:url(#linear-gradient-76);}.cls-23{opacity:.21;}.cls-24{fill:url(#linear-gradient-42);}.cls-145{stroke:#f6ae5c;}.cls-145,.cls-146{fill:none;stroke-miterlimit:10;stroke-width:3px;}.cls-25{fill:url(#linear-gradient-104);}.cls-26{fill:url(#linear-gradient-95);}.cls-27{fill:url(#linear-gradient-15);}.cls-28{opacity:.23;}.cls-29{fill:url(#linear-gradient-11);}.cls-30{fill:url(#linear-gradient-106);}.cls-31{fill:url(#linear-gradient-101);}.cls-32{fill:url(#linear-gradient-81);}.cls-147{opacity:.63;}.cls-33{fill:url(#linear-gradient-73);}.cls-34{fill:url(#linear-gradient-91);}.cls-35{fill:url(#linear-gradient-5);}.cls-36{opacity:.3;}.cls-37{opacity:.02;}.cls-38{fill:url(#linear-gradient-31);}.cls-39{fill:url(#linear-gradient-103);}.cls-40{fill:url(#linear-gradient-71);}.cls-41{fill:url(#linear-gradient-58);}.cls-42{fill:url(#linear-gradient-63);}.cls-43{fill:url(#linear-gradient-34);}.cls-44{opacity:.11;}.cls-45{opacity:.27;}.cls-46{fill:url(#linear-gradient-96);}.cls-146{stroke:#fff;}.cls-47{fill:url(#linear-gradient-41);}.cls-48{fill:url(#linear-gradient-89);}.cls-49{fill:url(#linear-gradient-40);}.cls-50{fill:url(#linear-gradient-66);}.cls-51{fill:url(#linear-gradient-13);}.cls-52{fill:url(#linear-gradient-23);}.cls-53{fill:url(#linear-gradient-25);}.cls-148{opacity:.4;}.cls-54{fill:url(#linear-gradient-43);}.cls-55{fill:url(#linear-gradient-16);}.cls-56{fill:url(#linear-gradient-22);}.cls-57{fill:url(#linear-gradient-54);}.cls-58{fill:url(#linear-gradient-55);}.cls-59{fill:#fff;}.cls-60{fill:url(#linear-gradient-35);}.cls-61{fill:url(#linear-gradient-50);}.cls-62{fill:url(#linear-gradient-32);}.cls-63{fill:url(#linear-gradient-60);}.cls-64{fill:#c8c8cc;}.cls-65{fill:url(#linear-gradient-59);}.cls-66{fill:url(#linear-gradient-20);}.cls-67{fill:url(#linear-gradient-14);}.cls-68{fill:#feffff;}.cls-69{fill:url(#linear-gradient-2);}.cls-70{fill:url(#linear-gradient-52);}.cls-71{fill:url(#linear-gradient-45);}.cls-72{fill:url(#linear-gradient-93);}.cls-73{fill:url(#linear-gradient-7);}.cls-74{opacity:0;}.cls-75{opacity:.43;}.cls-76{fill:url(#linear-gradient-39);}.cls-77{opacity:.04;}.cls-78{fill:url(#linear-gradient-3);}.cls-79{opacity:.45;}.cls-80{fill:url(#linear-gradient-77);}.cls-81{fill:url(#linear-gradient-69);}.cls-82{fill:url(#linear-gradient-94);}.cls-83{opacity:.07;}.cls-84{fill:url(#linear-gradient-9);}.cls-85{fill:url(#linear-gradient-27);}.cls-86{fill:url(#linear-gradient-100);}.cls-87{fill:url(#linear-gradient-82);}.cls-88{fill:url(#linear-gradient-105);}.cls-89{fill:url(#linear-gradient-83);}.cls-90{fill:url(#linear-gradient-53);}.cls-91{opacity:.41;}.cls-92{fill:url(#linear-gradient-90);}.cls-93{fill:url(#linear-gradient-85);}.cls-94{fill:url(#linear-gradient-65);}.cls-95{fill:url(#linear-gradient-36);}.cls-96{fill:url(#linear-gradient-48);}.cls-97{fill:url(#linear-gradient-49);}.cls-98{fill:url(#linear-gradient-8);}.cls-99{fill:url(#linear-gradient-47);}.cls-100{fill:url(#linear-gradient-24);}.cls-101{fill:url(#linear-gradient-26);}.cls-102{fill:url(#linear-gradient-61);}.cls-103{opacity:.34;}.cls-104{fill:url(#linear-gradient-18);}.cls-105{fill:url(#linear-gradient-51);}.cls-106{fill:url(#linear-gradient-30);}.cls-107{fill:url(#linear-gradient-44);}.cls-108{opacity:.29;}.cls-109{fill:url(#linear-gradient-84);}.cls-110{fill:url(#linear-gradient-97);}.cls-111{fill:url(#linear-gradient-68);}.cls-112{fill:url(#linear-gradient-72);}.cls-113{fill:url(#linear-gradient-29);}.cls-114{fill:url(#linear-gradient-46);}.cls-115{opacity:.25;}.cls-116{fill:url(#linear-gradient-64);}.cls-117{fill:url(#linear-gradient-107);}.cls-118{fill:#ceccc4;}.cls-119{opacity:.48;}.cls-120{opacity:.16;}.cls-121{fill:#cecdcc;}.cls-122{fill:url(#linear-gradient-28);}.cls-123{fill:url(#linear-gradient-56);}.cls-124{fill:url(#linear-gradient-99);}.cls-125{fill:url(#linear-gradient-10);}.cls-126{opacity:.18;}.cls-127{opacity:.2;}.cls-128{fill:url(#linear-gradient-87);}.cls-129{fill:url(#linear-gradient-70);}.cls-130{fill:url(#linear-gradient-78);}.cls-131{fill:url(#linear-gradient-86);}.cls-132{fill:url(#linear-gradient-74);}.cls-133{fill:url(#linear-gradient-102);}.cls-134{opacity:.38;}.cls-135{fill:url(#linear-gradient-4);}.cls-136{opacity:.05;}.cls-137{fill:url(#linear-gradient-37);}.cls-138{fill:url(#linear-gradient-80);}.cls-139{opacity:.36;}.cls-140{fill:url(#linear-gradient-79);}.cls-141{fill:url(#linear-gradient-108);}.cls-142{opacity:.39;}.cls-143{fill:url(#linear-gradient-75);}</style><linearGradient id="linear-gradient" x1="2285.11" y1="476.98" x2="2002.34" y2="962.98" gradientTransform="translate(1151.94 -1285.34) rotate(45)" gradientUnits="userSpaceOnUse"><stop offset="0" stop-color="#38aca8"/><stop offset="1" stop-color="#5f637a"/></linearGradient><linearGradient id="linear-gradient-2" x1="1934.01" y1="610.55" x2="1943.04" y2="610.55" gradientTransform="translate(188.99 1221.1) scale(1 -1)" xlink:href="#linear-gradient"/><linearGradient id="linear-gradient-3" x1="1934.01" y1="884.66" x2="1943.04" y2="884.66" gradientTransform="translate(188.99 1769.31) scale(1 -1)" xlink:href="#linear-gradient"/><linearGradient id="linear-gradient-4" x1="10657.7" y1="-4019.51" x2="10666.72" y2="-4019.51" gradientTransform="translate(-8397.26 -3271.86) scale(1 -1)" xlink:href="#linear-gradient"/><linearGradient id="linear-gradient-5" x1="10657.7" y1="-3745.4" x2="10666.72" y2="-3745.4" gradientTransform="translate(-8671.39 -2997.76) scale(1 -1)" xlink:href="#linear-gradient"/><linearGradient id="linear-gradient-6" x1="14779.68" y1="-617.66" x2="14788.71" y2="-617.66" gradientTransform="translate(-12559.59 227.69) scale(1 -1)" xlink:href="#linear-gradient"/><linearGradient id="linear-gradient-7" x1="14779.68" y1="-343.55" x2="14788.71" y2="-343.55" gradientTransform="translate(-12753.42 307.6) scale(1 -1)" xlink:href="#linear-gradient"/><linearGradient id="linear-gradient-8" x1="5336.88" y1="8826.48" x2="5345.91" y2="8826.48" gradientTransform="translate(-3311.57 -7982.15)" xlink:href="#linear-gradient"/><linearGradient id="linear-gradient-9" x1="5336.88" y1="9100.59" x2="5345.91" y2="9100.59" gradientTransform="translate(-3117.93 -8449.99)" xlink:href="#linear-gradient"/><linearGradient id="linear-gradient-10" x1="1929.33" y1="757.04" x2="1947.72" y2="738.65" gradientTransform="translate(4066.04) rotate(-180) scale(1 -1)" xlink:href="#linear-gradient"/><linearGradient id="linear-gradient-11" x1="1905.35" y1="720.19" x2="1966.52" y2="659.01" gradientTransform="translate(194.17 1379.2) scale(1 -1)" xlink:href="#linear-gradient"/><linearGradient id="linear-gradient-12" x1="1956.27" y1="776.93" x2="2016.23" y2="716.96" gradientTransform="translate(4066.04) rotate(-180) scale(1 -1)" xlink:href="#linear-gradient"/><linearGradient id="linear-gradient-13" x1="175.81" y1="670.42" x2="237.86" y2="670.42" gradientTransform="matrix(1,0,0,1,0,0)" xlink:href="#linear-gradient"/><linearGradient id="linear-gradient-14" x1="167.54" y1="650.34" x2="246.1" y2="650.34" gradientUnits="userSpaceOnUse"><stop offset="0" stop-color="#676872"/><stop offset="1" stop-color="#111623"/></linearGradient><linearGradient id="linear-gradient-15" x1="206.82" y1="446.58" x2="206.82" y2="721.14" gradientUnits="userSpaceOnUse"><stop offset="0" stop-color="#ffac06"/><stop offset="1" stop-color="#f25227"/></linearGradient><linearGradient id="linear-gradient-16" x1="166.11" y1="652.24" x2="247.6" y2="652.24" gradientTransform="matrix(1,0,0,1,0,0)" xlink:href="#linear-gradient"/><linearGradient id="linear-gradient-17" x1="163.98" y1="621.58" x2="249.66" y2="621.58" xlink:href="#linear-gradient-15"/><linearGradient id="linear-gradient-18" x1="557.91" y1="1637.69" x2="907.11" y2="1637.69" xlink:href="#linear-gradient-15"/><linearGradient id="linear-gradient-19" x1="16406.96" y1="1689.61" x2="16756.15" y2="1689.61" gradientTransform="translate(17314.06) rotate(-180) scale(1 -1)" xlink:href="#linear-gradient-15"/><linearGradient id="linear-gradient-20" x1="557.91" y1="1627.39" x2="888.7" y2="1627.39" gradientUnits="userSpaceOnUse"><stop offset="0" stop-color="#e2e2e2"/><stop offset="1" stop-color="#fdfdfd"/></linearGradient><linearGradient id="linear-gradient-21" x1="208.72" y1="1637.69" x2="557.91" y2="1637.69" xlink:href="#linear-gradient-15"/><linearGradient id="linear-gradient-22" x1="402.9" y1="1592.69" x2="390.48" y2="1692.07" xlink:href="#linear-gradient-20"/><linearGradient id="linear-gradient-23" x1="301.47" y1="1743.82" x2="448.3" y2="1518.93" xlink:href="#linear-gradient-20"/><linearGradient id="linear-gradient-24" x1="665.28" y1="1660.33" x2="793.13" y2="1443.59" xlink:href="#linear-gradient-20"/><linearGradient id="linear-gradient-25" x1="208.72" y1="1689.61" x2="557.91" y2="1689.61" xlink:href="#linear-gradient-15"/><linearGradient id="linear-gradient-26" x1="712.82" y1="756.66" x2="1863.56" y2="756.66" xlink:href="#linear-gradient-14"/><linearGradient id="linear-gradient-27" x1="750.53" y1="756.66" x2="1825.91" y2="756.66" gradientTransform="matrix(1,0,0,1,0,0)" xlink:href="#linear-gradient"/><linearGradient id="linear-gradient-28" x1="575.57" y1="250.15" x2="755.05" y2="804.19" xlink:href="#linear-gradient-15"/><linearGradient id="linear-gradient-29" x1="712.82" y1="1231.63" x2="1863.56" y2="1231.63" gradientUnits="userSpaceOnUse"><stop offset="0" stop-color="#f9f9f8"/><stop offset="1" stop-color="#cecece"/></linearGradient><linearGradient id="linear-gradient-30" x1="1595.64" y1="1412.5" x2="910.23" y2="1412.5" gradientUnits="userSpaceOnUse"><stop offset="0" stop-color="#676872"/><stop offset="1" stop-color="#b8b8bb"/></linearGradient><linearGradient id="linear-gradient-31" x1="1288.19" y1="1376.4" x2="1288.19" y2="1331.05" gradientUnits="userSpaceOnUse"><stop offset="0" stop-color="#e5e5e5"/><stop offset="1" stop-color="#a4a4a9"/></linearGradient><linearGradient id="linear-gradient-32" x1="750.53" y1="1067.35" x2="1825.91" y2="1067.35" xlink:href="#linear-gradient-14"/><linearGradient id="linear-gradient-33" x1="1143.67" y1="966.7" x2="1431.29" y2="966.7" xlink:href="#linear-gradient-14"/><linearGradient id="linear-gradient-34" x1="797.88" y1="983.9" x2="1457.99" y2="983.9" xlink:href="#linear-gradient-15"/><linearGradient id="linear-gradient-35" x1="816.25" y1="1065.46" x2="855.91" y2="1065.46" xlink:href="#linear-gradient-29"/><linearGradient id="linear-gradient-36" x1="928.84" y1="1064.09" x2="940.69" y2="1064.09" xlink:href="#linear-gradient-29"/><linearGradient id="linear-gradient-37" x1="954.36" y1="1064.09" x2="966.22" y2="1064.09" xlink:href="#linear-gradient-29"/><linearGradient id="linear-gradient-38" x1="1072.79" y1="1061.84" x2="1186.97" y2="1061.84" xlink:href="#linear-gradient-29"/><linearGradient id="linear-gradient-39" x1="1111.51" y1="1069.43" x2="1127.94" y2="1069.43" xlink:href="#linear-gradient-29"/><linearGradient id="linear-gradient-40" x1="918.18" y1="722.42" x2="1558.2" y2="722.42" xlink:href="#linear-gradient-14"/><linearGradient id="linear-gradient-41" x1="851.42" y1="640.56" x2="953.04" y2="640.56" gradientUnits="userSpaceOnUse"><stop offset="0" stop-color="#ffd9d9"/><stop offset="1" stop-color="#efb4b4"/></linearGradient><linearGradient id="linear-gradient-42" x1="1216.39" y1="722.42" x2="1365.04" y2="722.42" xlink:href="#linear-gradient-29"/><linearGradient id="linear-gradient-43" x1="1238.18" y1="477.11" x2="1331.13" y2="477.11" xlink:href="#linear-gradient-41"/><linearGradient id="linear-gradient-44" x1="1192.7" y1="399.28" x2="1368.77" y2="399.28" xlink:href="#linear-gradient-41"/><linearGradient id="linear-gradient-45" x1="1188.56" y1="322.21" x2="1372.75" y2="322.21" xlink:href="#linear-gradient-14"/><linearGradient id="linear-gradient-46" x1="1284.11" y1="940.08" x2="1284.11" y2="432.01" xlink:href="#linear-gradient-15"/><linearGradient id="linear-gradient-47" x1="1288.79" y1="639.82" x2="1411.91" y2="744.97" xlink:href="#linear-gradient-29"/><linearGradient id="linear-gradient-48" x1="-3334.52" y1="-698.15" x2="-3015.38" y2="-698.15" gradientTransform="translate(3461.37 1105.89) scale(.61)" xlink:href="#linear-gradient-29"/><linearGradient id="linear-gradient-49" x1="-3567.7" y1="-772.09" x2="-3441.9" y2="-772.09" gradientTransform="translate(3461.37 1105.89) scale(.61)" xlink:href="#linear-gradient-29"/><linearGradient id="linear-gradient-50" x1="1399.15" y1="779.13" x2="1513.03" y2="779.13" xlink:href="#linear-gradient-41"/><linearGradient id="linear-gradient-51" x1="1743.61" y1=".4" x2="1652.36" y2="260.89" gradientUnits="userSpaceOnUse"><stop offset="0" stop-color="#f9f9f8"/><stop offset="1" stop-color="#e8e7e4"/></linearGradient><linearGradient id="linear-gradient-52" x1="197.56" y1="1896.72" x2="252.65" y2="1896.72" xlink:href="#linear-gradient-41"/><linearGradient id="linear-gradient-53" x1="362.14" y1="1053.51" x2="388.42" y2="1326.96" gradientTransform="matrix(1,0,0,1,0,0)" xlink:href="#linear-gradient"/><linearGradient id="linear-gradient-54" x1="153.76" y1="1613.59" x2="374.83" y2="1613.59" xlink:href="#linear-gradient-14"/><linearGradient id="linear-gradient-55" x1="233.41" y1="981.59" x2="317.86" y2="981.59" xlink:href="#linear-gradient-14"/><linearGradient id="linear-gradient-56" x1="165.87" y1="976.18" x2="278.69" y2="976.18" xlink:href="#linear-gradient-41"/><linearGradient id="linear-gradient-57" x1="75.86" y1="968.15" x2="286.59" y2="968.15" xlink:href="#linear-gradient-14"/><linearGradient id="linear-gradient-58" x1="191.72" y1="1069.89" x2="218" y2="1343.34" gradientTransform="matrix(1,0,0,1,0,0)" xlink:href="#linear-gradient"/><linearGradient id="linear-gradient-59" x1="104.55" y1="1170.26" x2="233.41" y2="1170.26" xlink:href="#linear-gradient-14"/><linearGradient id="linear-gradient-60" x1="226.87" y1="1248.1" x2="342.34" y2="1248.1" xlink:href="#linear-gradient-41"/><linearGradient id="linear-gradient-61" x1="613.41" y1="1090.01" x2="433.06" y2="1260.28" gradientUnits="userSpaceOnUse"><stop offset="0" stop-color="#fff"/><stop offset="1" stop-color="#cecece"/></linearGradient><linearGradient id="linear-gradient-62" x1="191.07" y1="1921.96" x2="318.18" y2="1921.96" xlink:href="#linear-gradient-14"/><linearGradient id="linear-gradient-63" x1="15869.6" y1="1438.9" x2="16200.32" y2="1438.9" gradientTransform="translate(-13931.98 2877.8) scale(1 -1)" xlink:href="#linear-gradient"/><linearGradient id="linear-gradient-64" x1="1873.83" y1="1425.98" x2="1937.63" y2="1425.98" xlink:href="#linear-gradient-14"/><linearGradient id="linear-gradient-65" x1="15869.6" y1="1228.71" x2="16264.12" y2="1228.71" gradientTransform="translate(18137.95) rotate(-180) scale(1 -1)" xlink:href="#linear-gradient"/><linearGradient id="linear-gradient-66" x1="15796.75" y1="1433.8" x2="16127.46" y2="1433.8" gradientTransform="translate(-13786.27 2867.59) scale(1 -1)" xlink:href="#linear-gradient"/><linearGradient id="linear-gradient-67" x1="1946.68" y1="1420.88" x2="2010.48" y2="1420.88" xlink:href="#linear-gradient-14"/><linearGradient id="linear-gradient-68" x1="15796.75" y1="1188.38" x2="16191.26" y2="1188.38" gradientTransform="translate(18137.95) rotate(-180) scale(1 -1)" xlink:href="#linear-gradient"/><linearGradient id="linear-gradient-69" x1="15478.19" y1="1618.89" x2="15742.37" y2="1618.89" gradientTransform="translate(18137.95) rotate(-180) scale(1 -1)" xlink:href="#linear-gradient-15"/><linearGradient id="linear-gradient-70" x1="2197.25" y1="1591.12" x2="2565.82" y2="1591.12" xlink:href="#linear-gradient-15"/><linearGradient id="linear-gradient-71" x1="15649.74" y1="1391.21" x2="15940.69" y2="1391.21" gradientTransform="translate(18137.95) rotate(-180) scale(1 -1)" xlink:href="#linear-gradient-15"/><linearGradient id="linear-gradient-72" x1="2395.58" y1="1454.11" x2="2497.63" y2="1454.11" xlink:href="#linear-gradient-15"/><linearGradient id="linear-gradient-73" x1="2521.36" y1="1710.69" x2="2623.41" y2="1710.69" xlink:href="#linear-gradient-15"/><linearGradient id="linear-gradient-74" x1="15693.54" y1="1573.86" x2="15838.64" y2="1573.86" gradientTransform="translate(18137.95) rotate(-180) scale(1 -1)" xlink:href="#linear-gradient-15"/><linearGradient id="linear-gradient-75" x1="15652.65" y1="1753.93" x2="15971.58" y2="1753.93" gradientTransform="translate(18137.95) rotate(-180) scale(1 -1)" xlink:href="#linear-gradient"/><linearGradient id="linear-gradient-76" x1="15948.04" y1="1694.1" x2="16134.8" y2="1694.1" gradientTransform="translate(18137.95) rotate(-180) scale(1 -1)" xlink:href="#linear-gradient"/><linearGradient id="linear-gradient-77" x1="15652.65" y1="1634.15" x2="16123.53" y2="1634.15" gradientTransform="translate(18137.95) rotate(-180) scale(1 -1)" xlink:href="#linear-gradient"/><linearGradient id="linear-gradient-78" x1="15652.65" y1="1756.2" x2="15950.33" y2="1756.2" gradientTransform="translate(18137.95) rotate(-180) scale(1 -1)" xlink:href="#linear-gradient-29"/><linearGradient id="linear-gradient-79" x1="15652.65" y1="1619.49" x2="15971.58" y2="1619.49" gradientTransform="translate(18137.95) rotate(-180) scale(1 -1)" xlink:href="#linear-gradient-15"/><linearGradient id="linear-gradient-80" x1="15948.04" y1="1570.7" x2="16134.8" y2="1570.7" gradientTransform="translate(18137.95) rotate(-180) scale(1 -1)" xlink:href="#linear-gradient-15"/><linearGradient id="linear-gradient-81" x1="15652.65" y1="1510.75" x2="16123.53" y2="1510.75" gradientTransform="translate(18137.95) rotate(-180) scale(1 -1)" xlink:href="#linear-gradient-15"/><linearGradient id="linear-gradient-82" x1="15652.65" y1="1621.75" x2="15950.33" y2="1621.75" gradientTransform="translate(18137.95) rotate(-180) scale(1 -1)" xlink:href="#linear-gradient-29"/><linearGradient id="linear-gradient-83" x1="1440.74" y1="1847.62" x2="1508.12" y2="1847.62" xlink:href="#linear-gradient-41"/><linearGradient id="linear-gradient-84" x1="1677.95" y1="1881.89" x2="1727.46" y2="1881.89" xlink:href="#linear-gradient-41"/><linearGradient id="linear-gradient-85" x1="1469.68" y1="1736.35" x2="2058.04" y2="1736.35" xlink:href="#linear-gradient-14"/><linearGradient id="linear-gradient-86" x1="2026.3" y1="1311.28" x2="2130.72" y2="1311.28" xlink:href="#linear-gradient-41"/><linearGradient id="linear-gradient-87" x1="2007.35" y1="1258.96" x2="2150.84" y2="1258.96" xlink:href="#linear-gradient-14"/><linearGradient id="linear-gradient-88" x1="1856.42" y1="1538" x2="2168.13" y2="1538" xlink:href="#linear-gradient-29"/><linearGradient id="linear-gradient-89" x1="1856.42" y1="1482.49" x2="2018.66" y2="1482.49" xlink:href="#linear-gradient-15"/><linearGradient id="linear-gradient-90" x1="1677.95" y1="1707.26" x2="2112.57" y2="1707.26" xlink:href="#linear-gradient-14"/><linearGradient id="linear-gradient-91" x1="1587.03" y1="1915.13" x2="1744.77" y2="1915.13" xlink:href="#linear-gradient-14"/><linearGradient id="linear-gradient-92" x1="1322.76" y1="1872.55" x2="1508.12" y2="1872.55" xlink:href="#linear-gradient-14"/><linearGradient id="linear-gradient-93" x1="1739.95" y1="1469.33" x2="1843.44" y2="1469.33" xlink:href="#linear-gradient-29"/><linearGradient id="linear-gradient-94" x1="1829.32" y1="1491.41" x2="1979.07" y2="1491.41" xlink:href="#linear-gradient-29"/><linearGradient id="linear-gradient-95" x1="1739.95" y1="1359.39" x2="1843.44" y2="1359.39" xlink:href="#linear-gradient-29"/><linearGradient id="linear-gradient-96" x1="1849.72" y1="1530.12" x2="1979.07" y2="1530.12" xlink:href="#linear-gradient-29"/><linearGradient id="linear-gradient-97" x1="1952.46" y1="1525.72" x2="2163.61" y2="1525.72" xlink:href="#linear-gradient-15"/><linearGradient id="linear-gradient-98" x1="1873.75" y1="1553.77" x2="1972.18" y2="1553.77" xlink:href="#linear-gradient-41"/><linearGradient id="linear-gradient-99" x1="1014.87" y1="1789.14" x2="1175.22" y2="1789.14" gradientTransform="matrix(1,0,0,1,0,0)" xlink:href="#linear-gradient"/><linearGradient id="linear-gradient-100" x1="1014.87" y1="1687.3" x2="1175.22" y2="1687.3" gradientUnits="userSpaceOnUse"><stop offset="0" stop-color="#3c3b63"/><stop offset="1" stop-color="#111623"/></linearGradient><linearGradient id="linear-gradient-101" x1="1239.98" y1="1529.6" x2="1152.7" y2="1663.8" gradientTransform="matrix(1,0,0,1,0,0)" xlink:href="#linear-gradient"/><linearGradient id="linear-gradient-102" x1="1112.47" y1="1614.74" x2="1260.44" y2="1614.74" gradientUnits="userSpaceOnUse"><stop offset="0" stop-color="#82d7db"/><stop offset="1" stop-color="#5dc9a5"/></linearGradient><linearGradient id="linear-gradient-103" x1="1055.84" y1="1590.86" x2="1019.89" y2="1646.14" gradientTransform="matrix(1,0,0,1,0,0)" xlink:href="#linear-gradient"/><linearGradient id="linear-gradient-104" x1="1097.15" y1="1677.18" x2="1008.85" y2="1571.13" xlink:href="#linear-gradient-102"/><linearGradient id="linear-gradient-105" x1="1134.15" y1="1673.07" x2="1013.99" y2="1528.74" gradientTransform="matrix(1,0,0,1,0,0)" xlink:href="#linear-gradient"/><linearGradient id="linear-gradient-106" x1="1055.06" y1="1497.07" x2="1126.72" y2="1713.6" xlink:href="#linear-gradient-102"/><linearGradient id="linear-gradient-107" x1="1174.79" y1="1632.18" x2="1195.83" y2="1695.74" xlink:href="#linear-gradient-102"/><linearGradient id="linear-gradient-108" x1="1023.76" y1="1648.91" x2="1051.01" y2="1731.28" xlink:href="#linear-gradient-102"/></defs><g class="cls-144"><ellipse class="cls-74" cx="1652.58" cy="1921.96" rx="318.18" ry="43.01"/><ellipse class="cls-37" cx="1652.58" cy="1921.96" rx="311.93" ry="42.17"/><ellipse class="cls-77" cx="1652.58" cy="1921.96" rx="305.69" ry="41.32"/><ellipse class="cls-136" cx="1652.58" cy="1921.96" rx="299.45" ry="40.48"/><ellipse class="cls-83" cx="1652.58" cy="1921.96" rx="293.2" ry="39.63"/><ellipse class="cls-20" cx="1652.58" cy="1921.96" rx="286.96" ry="38.79"/><ellipse class="cls-44" cx="1652.58" cy="1921.96" rx="280.72" ry="37.95"/><ellipse class="cls-1" cx="1652.58" cy="1921.96" rx="274.47" ry="37.1"/><ellipse class="cls-14" cx="1652.58" cy="1921.96" rx="268.23" ry="36.26"/><ellipse class="cls-120" cx="1652.58" cy="1921.96" rx="261.99" ry="35.41"/><ellipse class="cls-126" cx="1652.58" cy="1921.96" rx="255.74" ry="34.57"/><ellipse class="cls-127" cx="1652.58" cy="1921.96" rx="249.5" ry="33.73"/><ellipse class="cls-23" cx="1652.58" cy="1921.96" rx="243.25" ry="32.88"/><ellipse class="cls-28" cx="1652.58" cy="1921.96" rx="237.01" ry="32.04"/><ellipse class="cls-115" cx="1652.58" cy="1921.96" rx="230.77" ry="31.19"/><ellipse class="cls-45" cx="1652.58" cy="1921.96" rx="224.52" ry="30.35"/><ellipse class="cls-108" cx="1652.58" cy="1921.96" rx="218.28" ry="29.51"/><ellipse class="cls-36" cx="1652.58" cy="1921.96" rx="212.04" ry="28.66"/><ellipse class="cls-5" cx="1652.58" cy="1921.96" rx="205.79" ry="27.82"/><ellipse class="cls-103" cx="1652.58" cy="1921.96" rx="199.55" ry="26.97"/><ellipse class="cls-139" cx="1652.58" cy="1921.96" rx="193.31" ry="26.13"/><ellipse class="cls-134" cx="1652.58" cy="1921.96" rx="187.06" ry="25.29"/><ellipse class="cls-142" cx="1652.58" cy="1921.96" rx="180.82" ry="24.44"/><ellipse class="cls-91" cx="1652.58" cy="1921.96" rx="174.58" ry="23.6"/><ellipse class="cls-75" cx="1652.58" cy="1921.96" rx="168.33" ry="22.76"/><ellipse class="cls-79" cx="1652.58" cy="1921.96" rx="162.09" ry="21.91"/><ellipse class="cls-6" cx="1652.58" cy="1921.96" rx="155.85" ry="21.07"/><ellipse class="cls-119" cx="1652.58" cy="1921.96" rx="149.6" ry="20.22"/><ellipse class="cls-16" cx="1652.58" cy="1921.96" rx="143.36" ry="19.38"/></g><g class="cls-144"><ellipse class="cls-74" cx="2250.49" cy="1822.04" rx="414.32" ry="103.22"/><ellipse class="cls-37" cx="2250.49" cy="1822.04" rx="406.19" ry="101.19"/><ellipse class="cls-77" cx="2250.49" cy="1822.04" rx="398.06" ry="99.17"/><ellipse class="cls-136" cx="2250.49" cy="1822.04" rx="389.93" ry="97.14"/><ellipse class="cls-83" cx="2250.49" cy="1822.04" rx="381.8" ry="95.12"/><ellipse class="cls-20" cx="2250.49" cy="1822.04" rx="373.67" ry="93.09"/><ellipse class="cls-44" cx="2250.49" cy="1822.04" rx="365.54" ry="91.07"/><ellipse class="cls-1" cx="2250.49" cy="1822.04" rx="357.41" ry="89.04"/><ellipse class="cls-14" cx="2250.49" cy="1822.04" rx="349.28" ry="87.02"/><ellipse class="cls-120" cx="2250.49" cy="1822.04" rx="341.15" ry="84.99"/><ellipse class="cls-126" cx="2250.49" cy="1822.04" rx="333.02" ry="82.96"/><ellipse class="cls-127" cx="2250.49" cy="1822.04" rx="324.89" ry="80.94"/><ellipse class="cls-23" cx="2250.49" cy="1822.04" rx="316.76" ry="78.91"/><ellipse class="cls-28" cx="2250.49" cy="1822.04" rx="308.63" ry="76.89"/><ellipse class="cls-115" cx="2250.49" cy="1822.04" rx="300.5" ry="74.86"/><ellipse class="cls-45" cx="2250.49" cy="1822.04" rx="292.37" ry="72.84"/><ellipse class="cls-108" cx="2250.49" cy="1822.04" rx="284.24" ry="70.81"/><ellipse class="cls-36" cx="2250.49" cy="1822.04" rx="276.11" ry="68.79"/><ellipse class="cls-5" cx="2250.49" cy="1822.04" rx="267.98" ry="66.76"/><ellipse class="cls-103" cx="2250.49" cy="1822.04" rx="259.85" ry="64.74"/><ellipse class="cls-139" cx="2250.49" cy="1822.04" rx="251.72" ry="62.71"/><ellipse class="cls-134" cx="2250.49" cy="1822.04" rx="243.59" ry="60.68"/><ellipse class="cls-142" cx="2250.49" cy="1822.04" rx="235.46" ry="58.66"/><ellipse class="cls-91" cx="2250.49" cy="1822.04" rx="227.33" ry="56.63"/><ellipse class="cls-75" cx="2250.49" cy="1822.04" rx="219.2" ry="54.61"/><ellipse class="cls-79" cx="2250.49" cy="1822.04" rx="211.07" ry="52.58"/><ellipse class="cls-6" cx="2250.49" cy="1822.04" rx="202.94" ry="50.56"/><ellipse class="cls-119" cx="2250.49" cy="1822.04" rx="194.81" ry="48.53"/><ellipse class="cls-16" cx="2250.49" cy="1822.04" rx="186.68" ry="46.51"/></g><g class="cls-144"><ellipse class="cls-74" cx="554.8" cy="1770.48" rx="261.97" ry="65.26"/><ellipse class="cls-37" cx="554.8" cy="1770.48" rx="256.83" ry="63.98"/><ellipse class="cls-77" cx="554.8" cy="1770.48" rx="251.69" ry="62.7"/><ellipse class="cls-136" cx="554.8" cy="1770.48" rx="246.55" ry="61.42"/><ellipse class="cls-83" cx="554.8" cy="1770.48" rx="241.41" ry="60.14"/><ellipse class="cls-20" cx="554.8" cy="1770.48" rx="236.26" ry="58.86"/><ellipse class="cls-44" cx="554.8" cy="1770.48" rx="231.12" ry="57.58"/><ellipse class="cls-1" cx="554.8" cy="1770.48" rx="225.98" ry="56.3"/><ellipse class="cls-14" cx="554.8" cy="1770.48" rx="220.84" ry="55.02"/><ellipse class="cls-120" cx="554.8" cy="1770.48" rx="215.7" ry="53.74"/><ellipse class="cls-126" cx="554.8" cy="1770.48" rx="210.56" ry="52.46"/><ellipse class="cls-127" cx="554.8" cy="1770.48" rx="205.42" ry="51.18"/><ellipse class="cls-23" cx="554.8" cy="1770.48" rx="200.28" ry="49.9"/><ellipse class="cls-28" cx="554.8" cy="1770.48" rx="195.14" ry="48.62"/><ellipse class="cls-115" cx="554.8" cy="1770.48" rx="190" ry="47.33"/><ellipse class="cls-45" cx="554.8" cy="1770.48" rx="184.86" ry="46.05"/><ellipse class="cls-108" cx="554.8" cy="1770.48" rx="179.72" ry="44.77"/><ellipse class="cls-36" cx="554.8" cy="1770.48" rx="174.58" ry="43.49"/><ellipse class="cls-5" cx="554.8" cy="1770.48" rx="169.44" ry="42.21"/><ellipse class="cls-103" cx="554.8" cy="1770.48" rx="164.3" ry="40.93"/><ellipse class="cls-139" cx="554.8" cy="1770.48" rx="159.16" ry="39.65"/><ellipse class="cls-134" cx="554.8" cy="1770.48" rx="154.02" ry="38.37"/><ellipse class="cls-142" cx="554.8" cy="1770.48" rx="148.88" ry="37.09"/><ellipse class="cls-91" cx="554.8" cy="1770.48" rx="143.74" ry="35.81"/><ellipse class="cls-75" cx="554.8" cy="1770.48" rx="138.6" ry="34.53"/><ellipse class="cls-79" cx="554.8" cy="1770.48" rx="133.45" ry="33.25"/><ellipse class="cls-6" cx="554.8" cy="1770.48" rx="128.31" ry="31.97"/><ellipse class="cls-119" cx="554.8" cy="1770.48" rx="123.17" ry="30.69"/><ellipse class="cls-16" cx="554.8" cy="1770.48" rx="118.03" ry="29.41"/></g><g class="cls-144"><ellipse class="cls-74" cx="1290.71" cy="1432.52" rx="414.32" ry="103.22"/><ellipse class="cls-37" cx="1290.71" cy="1432.52" rx="406.19" ry="101.19"/><ellipse class="cls-77" cx="1290.71" cy="1432.52" rx="398.06" ry="99.17"/><ellipse class="cls-136" cx="1290.71" cy="1432.52" rx="389.93" ry="97.14"/><ellipse class="cls-83" cx="1290.71" cy="1432.52" rx="381.8" ry="95.12"/><ellipse class="cls-20" cx="1290.71" cy="1432.52" rx="373.67" ry="93.09"/><ellipse class="cls-44" cx="1290.71" cy="1432.52" rx="365.54" ry="91.07"/><ellipse class="cls-1" cx="1290.71" cy="1432.52" rx="357.41" ry="89.04"/><ellipse class="cls-14" cx="1290.71" cy="1432.52" rx="349.28" ry="87.02"/><ellipse class="cls-120" cx="1290.71" cy="1432.52" rx="341.15" ry="84.99"/><ellipse class="cls-126" cx="1290.71" cy="1432.52" rx="333.02" ry="82.96"/><ellipse class="cls-127" cx="1290.71" cy="1432.52" rx="324.89" ry="80.94"/><ellipse class="cls-23" cx="1290.71" cy="1432.52" rx="316.76" ry="78.91"/><ellipse class="cls-28" cx="1290.71" cy="1432.52" rx="308.63" ry="76.89"/><ellipse class="cls-115" cx="1290.71" cy="1432.52" rx="300.5" ry="74.86"/><ellipse class="cls-45" cx="1290.71" cy="1432.52" rx="292.37" ry="72.84"/><ellipse class="cls-108" cx="1290.71" cy="1432.52" rx="284.24" ry="70.81"/><ellipse class="cls-36" cx="1290.71" cy="1432.52" rx="276.11" ry="68.79"/><ellipse class="cls-5" cx="1290.71" cy="1432.52" rx="267.98" ry="66.76"/><ellipse class="cls-103" cx="1290.71" cy="1432.52" rx="259.85" ry="64.74"/><ellipse class="cls-139" cx="1290.71" cy="1432.52" rx="251.72" ry="62.71"/><ellipse class="cls-134" cx="1290.71" cy="1432.52" rx="243.59" ry="60.68"/><ellipse class="cls-142" cx="1290.71" cy="1432.52" rx="235.46" ry="58.66"/><ellipse class="cls-91" cx="1290.71" cy="1432.52" rx="227.33" ry="56.63"/><ellipse class="cls-75" cx="1290.71" cy="1432.52" rx="219.2" ry="54.61"/><ellipse class="cls-79" cx="1290.71" cy="1432.52" rx="211.07" ry="52.58"/><ellipse class="cls-6" cx="1290.71" cy="1432.52" rx="202.94" ry="50.56"/><ellipse class="cls-119" cx="1290.71" cy="1432.52" rx="194.81" ry="48.53"/><ellipse class="cls-16" cx="1290.71" cy="1432.52" rx="186.68" ry="46.51"/></g><circle class="cls-11" cx="2127.51" cy="747.84" r="190.77" transform="translate(94.33 1723.42) rotate(-45)"/><circle class="cls-3" cx="2127.51" cy="747.84" r="166.59" transform="translate(94.33 1723.42) rotate(-45)"/><rect class="cls-69" x="2123" y="591.52" width="9.03" height="38.07" rx=".34" ry=".34" transform="translate(4255.03 1221.1) rotate(180)"/><rect class="cls-78" x="2123" y="865.62" width="9.03" height="38.07" rx=".34" ry=".34" transform="translate(4255.03 1769.31) rotate(180)"/><rect class="cls-135" x="2260.05" y="728.57" width="9.03" height="38.07" rx=".34" ry=".34" transform="translate(1517.18 3012.24) rotate(-90.01)"/><rect class="cls-35" x="1985.94" y="728.57" width="9.03" height="38.07" rx=".34" ry=".34" transform="translate(1243.04 2738.13) rotate(-90.01)"/><rect class="cls-21" x="2219.9" y="825.47" width="9.03" height="38.07" rx=".34" ry=".34" transform="translate(54.45 1820.43) rotate(-45)"/><rect class="cls-73" x="2026.08" y="631.65" width="9.03" height="38.06" rx=".34" ry=".34" transform="translate(134.75 1626.63) rotate(-45.01)"/><rect class="cls-98" x="2026.08" y="825.47" width="9.03" height="38.06" rx=".34" ry=".34" transform="translate(2869.1 2877.57) rotate(-134.99)"/><rect class="cls-84" x="2219.9" y="631.65" width="9.03" height="38.06" rx=".34" ry=".34" transform="translate(3336.99 2683.8) rotate(-134.99)"/><path class="cls-125" d="m2114.51,747.84c0,7.18,5.82,13,13,13s13-5.82,13-13-5.82-13-13-13-13,5.82-13,13Z"/><rect class="cls-29" x="2123" y="631.35" width="14.2" height="116.49" rx="7.1" ry="7.1" transform="translate(4260.21 1379.2) rotate(180)"/><path class="cls-4" d="m2028.59,753.14h102.42c3.41,0,6.2-2.79,6.2-6.2h0c0-3.41-2.79-6.2-6.2-6.2h-102.42c-3.41,0-6.2,2.79-6.2,6.2h0c0,3.41,2.79,6.2,6.2,6.2Z"/><ellipse class="cls-51" cx="206.83" cy="670.42" rx="31.03" ry="15.19"/><path class="cls-67" d="m246.1,628.78l-2.33,31.05c-.28,3.87-2.57,7.41-6.11,9.05-5.08,2.38-13.8,5.08-27.18,5.08-15.81,0-27.65-4.29-33.76-7.18-2.94-1.35-4.9-4.2-5.27-7.37l-3.92-32.68h.05l.51,1.07s13.61,10.21,41.64,9.33c26.25-.84,35.34-7.51,36.37-8.35Z"/><path class="cls-27" d="m289.28,534.59h.09l-.37.84c-1.77,4.94-3.92,9.65-6.48,14.13l-36.32,79.13s-.05.05-.09.09c-1.03.84-10.12,7.51-36.37,8.35-28.02.89-41.64-9.33-41.64-9.33l-.51-1.07-39.21-84.3h.09c-5.69-11.8-9-24.95-9-38.89,0-48.72,39.12-87.75,87.38-87.15,48.21.61,87.33,40.61,87.33,89.38,0,10.12-1.77,19.82-4.89,28.81Z"/><path class="cls-55" d="m209.88,663.54c18.28-.56,28.61-3.68,33.8-5.96,1.97-.87,3.25-2.73,3.41-4.79l.49-6.28c.17-2.22-2.17-3.79-4.29-2.89-5.33,2.27-15.61,5.25-33.42,5.79-21.22.64-34.87-5.07-40.82-8.29-1.41-.76-3.12.36-2.93,1.89l1.08,8.62c.28,2.26,1.72,4.24,3.87,5.23,6.42,2.96,19.27,7.26,38.8,6.67Z"/><ellipse class="cls-7" cx="206.82" cy="621.58" rx="42.84" ry="15.54"/><path class="cls-146" d="m194.32,621.58s-4.11-127.64-18.1-134.22c-13.99-6.58-32.5,22.21,6.17,30.85,38.67,8.64,83.09-10.69,69.52-28.79-13.57-18.1-23.45-3.29-26.74,34.14-3.29,37.43-5.35,98.02-5.35,98.02"/><line class="cls-145" x1="322.36" y1="551.65" x2="367.44" y2="551.65"/><line class="cls-145" x1="330.65" y1="481.72" x2="373.49" y2="474.71"/><path class="cls-145" d="m313.41,429.38c1.33,0,35.8-34.92,35.8-34.92"/><path class="cls-145" d="m277.17,390.04c2.65-.44,17.01-42.87,17.01-42.87"/><line class="cls-145" x1="206.85" y1="380.76" x2="206.85" y2="334.35"/><line class="cls-145" x1="91.32" y1="551.65" x2="46.24" y2="551.65"/><line class="cls-145" x1="83.03" y1="481.72" x2="40.18" y2="474.71"/><path class="cls-145" d="m100.26,429.38c-1.33,0-35.8-34.92-35.8-34.92"/><path class="cls-145" d="m136.51,390.04c-2.65-.44-17.01-42.87-17.01-42.87"/><line class="cls-145" x1="206.82" y1="380.76" x2="206.82" y2="334.35"/><polygon class="cls-104" points="907.11 1679.85 882.45 1595.54 570.79 1627.4 557.91 1679.24 907.11 1679.85"/><polygon class="cls-9" points="557.91 1679.24 907.11 1679.85 907.11 1699.98 557.91 1699.98 557.91 1679.24"/><path class="cls-66" d="m557.91,1679.24s93.56-38.75,190.19-31.6c96.63,7.16,140.6,24.54,140.6,24.54l-23.52-96.63-307.27,22.5v81.19Z"/><polygon class="cls-19" points="208.72 1679.85 233.37 1595.54 545.04 1627.4 557.91 1679.24 208.72 1679.85"/><path class="cls-56" d="m557.91,1679.24s-93.56-38.75-190.19-31.6c-96.63,7.16-140.6,24.54-140.6,24.54l23.52-96.63,307.27,22.5v81.19Z"/><path class="cls-52" d="m557.91,1449.74s-62.97-35.51-134.91-35.51c-50.55,0-94.8,12.14-116.65,19.36-9.12,3.01-16.77,9.3-21.48,17.67l-89.38,158.82c-4.72,8.38,3.16,18.21,12.36,15.41,38.09-11.62,112.68-28.34,189.59-11.82,110.25,23.68,160.47,55.55,160.47,55.55v-219.46Z"/><path class="cls-100" d="m557.91,1449.74s62.97-35.51,134.91-35.51c50.55,0,94.8,12.14,116.65,19.36,9.12,3.01,16.77,9.3,21.48,17.67l89.38,158.82c4.72,8.38-3.16,18.21-12.36,15.41-38.09-11.62-112.68-28.34-189.59-11.82-110.25,23.68-160.47,55.55-160.47,55.55v-219.46Z"/><polygon class="cls-53" points="557.91 1679.24 208.72 1679.85 208.72 1699.98 557.91 1699.98 557.91 1679.24"/><path class="cls-121" d="m849.99,1572.31c-7.96-2.25-51.36-13.83-98.26-12.62-46.12,1.19-115.5,25.21-130.41,30.55l.15,8.63s81.43-30.28,133.35-31.62c51.91-1.34,99.57,13,99.57,13l-4.39-7.94Z"/><path class="cls-121" d="m841.03,1555.24c-7.72-2.19-49.81-13.47-95.25-12.37-44.68,1.08-111.81,24.25-126.24,29.41l.17,8.36s78.79-29.22,129.08-30.43c50.29-1.22,96.51,12.74,96.51,12.74l-4.28-7.7Z"/><path class="cls-121" d="m832.07,1538.18c-7.48-2.13-48.26-13.11-92.23-12.12-43.24.98-108.13,23.29-122.07,28.26l.2,8.09s76.15-28.15,124.82-29.25c48.67-1.1,93.46,12.48,93.46,12.48l-4.17-7.46Z"/><path class="cls-121" d="m823.11,1521.12c-7.24-2.07-46.72-12.76-89.22-11.87-41.8.87-104.44,22.33-117.91,27.11l.22,7.82s73.51-27.08,120.56-28.07c47.05-.98,90.41,12.22,90.41,12.22l-4.06-7.22Z"/><path class="cls-121" d="m814.15,1504.06c-7-2.02-45.17-12.4-86.21-11.62-40.36.77-100.76,21.38-113.74,25.97l.25,7.55s70.86-26.02,116.3-26.88c45.43-.86,87.36,11.96,87.36,11.96l-3.96-6.98Z"/><path class="cls-121" d="m805.19,1486.99c-6.76-1.96-43.62-12.04-83.2-11.37-38.93.66-97.08,20.42-109.57,24.82l.28,7.28s68.22-24.95,112.03-25.7c43.81-.74,84.31,11.7,84.31,11.7l-3.85-6.73Z"/><path class="cls-121" d="m796.23,1469.93c-6.52-1.9-42.07-11.69-80.18-11.12-37.49.56-93.39,19.46-105.4,23.67l.3,7.01s65.58-23.89,107.77-24.51c42.19-.63,81.25,11.44,81.25,11.44l-3.74-6.49Z"/><path class="cls-121" d="m784.86,1444.41c-6.09-1.77-39.31-10.92-74.93-10.39-35.03.52-87.27,18.18-98.49,22.12l.28,6.55s61.28-22.32,100.7-22.9c39.43-.58,75.93,10.69,75.93,10.69l-3.5-6.07Z"/><path class="cls-121" d="m265.84,1572.31c7.95-2.25,51.36-13.83,98.26-12.62,46.12,1.19,115.5,25.21,130.41,30.55l-.15,8.63s-81.43-30.28-133.35-31.62c-51.91-1.34-99.57,13-99.57,13l4.39-7.94Z"/><path class="cls-121" d="m274.8,1555.24c7.72-2.19,49.81-13.47,95.25-12.37,44.68,1.08,111.81,24.25,126.24,29.41l-.17,8.36s-78.79-29.22-129.08-30.43-96.51,12.74-96.51,12.74l4.28-7.7Z"/><path class="cls-121" d="m283.76,1538.18c7.48-2.13,48.26-13.11,92.23-12.12,43.24.98,108.13,23.29,122.07,28.26l-.2,8.09s-76.15-28.15-124.82-29.25c-48.67-1.1-93.46,12.48-93.46,12.48l4.17-7.46Z"/><path class="cls-121" d="m292.72,1521.12c7.24-2.07,46.72-12.76,89.22-11.87,41.8.87,104.44,22.33,117.91,27.11l-.22,7.82s-73.51-27.08-120.56-28.07c-47.05-.98-90.41,12.22-90.41,12.22l4.06-7.22Z"/><path class="cls-121" d="m301.68,1504.06c7-2.02,45.17-12.4,86.21-11.62,40.36.77,100.76,21.38,113.74,25.97l-.25,7.55s-70.86-26.02-116.3-26.88c-45.43-.86-87.36,11.96-87.36,11.96l3.96-6.98Z"/><path class="cls-121" d="m310.64,1486.99c6.76-1.96,43.62-12.04,83.2-11.37,38.93.66,97.08,20.42,109.57,24.82l-.28,7.28s-68.22-24.95-112.03-25.7c-43.81-.74-84.31,11.7-84.31,11.7l3.85-6.73Z"/><path class="cls-121" d="m319.6,1469.93c6.52-1.9,42.07-11.69,80.18-11.12,37.49.56,93.39,19.46,105.4,23.67l-.3,7.01s-65.58-23.89-107.77-24.51c-42.19-.63-81.25,11.44-81.25,11.44l3.74-6.49Z"/><path class="cls-121" d="m330.97,1444.41c6.09-1.77,39.31-10.92,74.93-10.39,35.03.52,87.27,18.18,98.49,22.12l-.28,6.55s-61.28-22.32-100.7-22.9c-39.43-.58-75.93,10.69-75.93,10.69l3.5-6.07Z"/><path class="cls-101" d="m752.41,357.61h1071.55c21.85,0,39.59,17.74,39.59,39.59v758.5H712.82V397.2c0-21.85,17.74-39.59,39.59-39.59Z"/><path class="cls-85" d="m1825.91,412.92v687.48c0,14.37-11.75,26.11-26.11,26.11h-1023.28c-14.37,0-25.99-11.74-25.99-26.11V412.92c0-14.37,11.61-26.11,25.99-26.11h1023.28c14.36,0,26.11,11.74,26.11,26.11Z"/><path class="cls-122" d="m966.15,438.28v445.99c0,16.74-13.62,30.36-30.35,30.36h-454.12c-16.74,0-30.35-13.62-30.35-30.36v-445.99c0-16.86,13.61-30.48,30.35-30.48h454.12c16.74,0,30.35,13.62,30.35,30.48Z"/><path class="cls-113" d="m712.82,1155.7h1150.74v148.52c0,1.84-1.49,3.33-3.33,3.33H716.15c-1.84,0-3.33-1.49-3.33-3.33v-148.52h0Z"/><rect class="cls-106" x="1040.65" y="1386.28" width="495.06" height="52.44" rx="26.22" ry="26.22"/><polygon class="cls-38" points="1408.77 1307.56 1293.11 1307.56 1283.26 1307.56 1167.61 1307.56 1118.39 1386.28 1283.26 1386.28 1293.11 1386.28 1457.98 1386.28 1408.77 1307.56"/><path class="cls-62" d="m1825.91,1008.2v92.19c0,14.37-11.75,26.11-26.11,26.11h-1023.28c-14.37,0-25.99-11.74-25.99-26.11v-92.19h1075.38Z"/><path class="cls-68" d="m1569.1,1031.02v53.67h83.48v-53.67h-83.48Zm78.95,49.28h-74.39v-44.88h74.39v44.88Z"/><polygon class="cls-68" points="1693.09 1044.85 1693.09 1035.41 1704.81 1035.41 1704.81 1031.02 1688.54 1031.02 1688.54 1044.85 1693.09 1044.85"/><polygon class="cls-68" points="1755.75 1035.41 1767.48 1035.41 1767.48 1044.85 1772.02 1044.85 1772.02 1031.02 1755.75 1031.02 1755.75 1035.41"/><polygon class="cls-68" points="1704.81 1080.29 1693.09 1080.29 1693.09 1070.86 1688.54 1070.86 1688.54 1084.69 1704.81 1084.69 1704.81 1080.29"/><polygon class="cls-68" points="1767.48 1070.86 1767.48 1080.29 1755.75 1080.29 1755.75 1084.69 1772.02 1084.69 1772.02 1070.86 1767.48 1070.86"/><polygon class="cls-10" points="1156.13 929.43 1143.67 1008.2 1431.29 1008.2 1413.64 925.19 1156.13 929.43"/><path class="cls-68" d="m1778.56,983.84c0,7.24-5.87,13.12-13.11,13.12h-954.45c-7.25,0-13.11-5.87-13.11-13.12s5.87-12.99,13.11-12.99h954.45c7.25,0,13.11,5.87,13.11,12.99Z"/><path class="cls-43" d="m1457.99,970.85v26.11h-647c-7.25,0-13.11-5.87-13.11-13.12s5.87-12.99,13.11-12.99h647Z"/><polygon class="cls-60" points="816.25 1040.16 816.25 1090.76 855.91 1065.46 816.25 1040.16"/><rect class="cls-95" x="928.84" y="1042.44" width="11.85" height="43.3"/><rect class="cls-137" x="954.36" y="1042.44" width="11.85" height="43.3"/><polygon class="cls-2" points="1072.79 1085.74 1186.97 1085.74 1186.97 1037.93 1072.79 1085.74"/><rect class="cls-76" x="1111.51" y="1044.85" width="16.43" height="49.17"/><path class="cls-49" d="m1510.09,798.2c.38-1,5.62-13.49-.12-30.73-6-17.99-33.35-30.73-33.35-30.73l8.61-26.61-50.59-86.32-12.24,303.82s-36.86,15.87-100.94,23.49c-7.63.88-15.75,1.75-24.12,2.37-18.1,1.38-35.72.75-51.96-1.12-54.59-6.12-95.07-25.49-95.07-25.49v-233.86s-52.35,98.44-62.59,101.06c-10.25,2.63-169.53-89.95-169.53-89.95,0,0,8.49-.87,22.48-20.61,13.49-18.99,13.75-33.23,13.75-34.23l108.43,45.47s58.34-167.9,65.09-186.77c5-13.62,59.08-16.49,88.45-16.99,11.11-.25,18.62-.12,18.62-.12,0,0,68.58-.88,130.04.62,43.72,1,83.96,3.25,92.95,7.87,21.62,11.12,95.7,188.51,99.94,221,4.25,31.48-44.85,75.21-47.85,77.83Z"/><path class="cls-47" d="m953.04,657.97s-5.12-31.81-23.19-48.91c-18.08-17.1-28.34-24.43-28.34-24.43,0,0-15.63-1.26,2.93,21.85,18.57,23.1,16.12,25.27,16.12,25.27,0,0-26.38-5.59-45.44-30.99-19.05-25.41-29.8-26.87-20.03,14.66,9.77,41.53,72.68,82.98,72.68,82.98,0,0,19.14-8.61,25.26-40.42Z"/><path class="cls-24" d="m1365.04,491.5l-43.59,459.61c-7.63.88-15.75,1.75-24.12,2.37-18.1,1.38-35.72.75-51.96-1.12l-28.99-461.36c11.11-.25,18.62-.12,18.62-.12,0,0,68.58-.88,130.04.62Z"/><path class="cls-54" d="m1238.18,455.02v39.05s8.45,21.72,45.56,22.51c37.11.79,47.39-25.72,47.39-25.72v-53.24l-92.95,17.41Z"/><path class="cls-107" d="m1362.87,356c-6.9-.63-16.3,15.67-16.3,15.67l-3.14-60.19-62.7,13.79-62.7-13.79-3.13,60.19s-9.41-16.3-16.3-15.67c-6.9.63-8.78,42.01,0,48.28,8.78,6.27,16.3,6.27,16.3,6.27,0,0,0,32.6,14.42,48.28,7.37,8.01,30.6,28.41,53.17,28.24,21.62-.16,42.6-20.57,49.66-28.24,14.42-15.67,14.42-48.28,14.42-48.28,0,0,7.52,0,16.3-6.27,8.78-6.27,6.9-47.65,0-48.28Z"/><path class="cls-71" d="m1223.26,325.7s10.03,30.93,52.25,33.02c42.22,2.09,62.7-18.81,64.79-12.12,2.09,6.69-2.93,39.71,0,41.8,2.93,2.09,5.66-10.3,8.06-19.57,2.39-9.27,16.61-13.4,17.85-8.62,1.24,4.78,2.02,9.8,2.02,9.8,0,0,15.12-53.09-9.96-86.53-25.08-33.44-96.98-32.6-125.82-18.39-28.84,14.21-28.42,32.6-28.42,32.6,0,0-15.88,12.12-15.47,33.02.42,20.9,4.13,35.53,4.13,35.53,0,0,6.89-13.46,12.5-7.08,5.61,6.38,5.94,29.47,5.94,29.47,0,0,10.78.22,7.52-13.19-3.26-13.41,4.6-49.74,4.6-49.74Z"/><path class="cls-3" d="m1238.18,490.62l42.55,24.05-27.32,20.55-30.63-44.33s10.23-6.59,15.39-.27Z"/><path class="cls-3" d="m1331.13,490.86l-32.68,24.46,22.66,19.91,26.6-42.3s-9.68-7.22-16.58-2.06Z"/><polygon class="cls-114" points="1280.73 514.68 1262.76 907.05 1286.13 932.07 1305.45 906.2 1298.44 515.31 1280.73 514.68"/><polygon class="cls-3" points="1329.39 642.09 1468.18 783.74 1627.76 649.18 1609.63 628.5 1466.46 747.84 1347.7 621.41 1329.39 642.09"/><polygon class="cls-99" points="1329.39 642.09 1270.45 642.08 1400.22 767.38 1468.18 783.74 1329.39 642.09"/><polygon class="cls-96" points="1609.63 628.5 1500.93 606.48 1413.64 691.61 1466.46 747.84 1609.63 628.5"/><polygon class="cls-97" points="1347.7 621.41 1288.19 625.39 1270.45 642.08 1329.39 642.09 1347.7 621.41"/><path class="cls-61" d="m1505.76,759.47s-7.43-17.72-14.99-21.5-.95,16.07-2.36,25.05c-1.42,8.98-15.6,17.49-32.61,12.29-17.02-5.2-34.03-21.27-42.54-21.27s25.52,28.83,25.52,28.83c0,0-29.3-24.55-36.39-26.22-7.09-1.67,3.78,13.93,24.11,29.05,20.32,15.12-19.94-16.07-26.27-17.02-6.34-.95,16.82,29.78,46.13,45.85,29.3,16.07,56.94-2.6,63.68-16.19,6.74-13.59.79-32.96-4.26-38.88Z"/><path class="cls-105" d="m1913.62,0h-450.18c-17.18,0-31.1,13.93-31.1,31.1v253.03c0,17.18,13.92,31.1,31.1,31.1h22.67v142.33l93.45-142.33h334.06c17.18,0,31.11-13.92,31.11-31.1V31.1c0-17.18-13.93-31.1-31.11-31.1Z"/><rect class="cls-64" x="1515.54" y="61" width="261.98" height="20.16" rx="10.08" ry="10.08"/><rect class="cls-64" x="1515.54" y="107.38" width="346" height="20.16" rx="10.08" ry="10.08"/><rect class="cls-64" x="1515.54" y="153.75" width="346" height="20.16" rx="10.08" ry="10.08"/><path class="cls-64" d="m1712.32,220.29h-186.7c-5.54,0-10.08-4.54-10.08-10.08h0c0-5.54,4.54-10.08,10.08-10.08h186.7c5.55,0,10.08,4.54,10.08,10.08h0c0,5.54-4.54,10.08-10.08,10.08Z"/><g class="cls-147"><rect class="cls-3" x="514.41" y="482.79" width="243.88" height="18.77" rx=".64" ry=".64"/><rect class="cls-3" x="514.41" y="525.97" width="322.09" height="18.77" rx=".64" ry=".64"/><rect class="cls-3" x="514.41" y="569.14" width="322.09" height="18.77" rx=".64" ry=".64"/><rect class="cls-3" x="514.41" y="612.31" width="192.58" height="18.77" rx=".64" ry=".64"/></g><g class="cls-147"><rect class="cls-3" x="514.41" y="689.68" width="243.88" height="18.77" rx=".64" ry=".64"/><rect class="cls-3" x="514.41" y="732.85" width="322.09" height="18.77" rx=".64" ry=".64"/><rect class="cls-3" x="514.41" y="776.03" width="322.09" height="18.77" rx=".64" ry=".64"/><rect class="cls-3" x="514.41" y="819.2" width="192.58" height="18.77" rx=".64" ry=".64"/></g><path class="cls-68" d="m1288.19,1191.16c-22.34,0-40.47,18.12-40.47,40.47s18.13,40.47,40.47,40.47,40.47-18.12,40.47-40.47-18.12-40.47-40.47-40.47Zm-.02,73.94c-18.5,0-33.48-14.99-33.48-33.48.01-18.49,15.02-33.48,33.51-33.48s33.48,14.99,33.46,33.48c0,18.5-15.01,33.48-33.5,33.48Z"/><path class="cls-70" d="m247.32,1882.95l5.33,23.61s-7.62,13.46-29.7,11.93c-22.09-1.52-25.39-12.44-25.39-12.44l3.81-31.23,45.95,8.12Z"/><path class="cls-90" d="m339.52,1188.32l82.82,21.47s-11.52-3.63-15.91,10.52c-4.39,14.16-3.29,21.32-3.29,21.32l-69.11-10.45,5.48-42.86Z"/><path class="cls-57" d="m156.04,1362.15s-7.65,37.49,5.07,70.19c12.72,32.7,10.25,40.27,10.25,40.27l23.59,403.06s4.79,13.63,31.92,14.54c27.13.91,29.86-14.54,29.86-14.54l21.23-401.59s26.01,86.35,19.65,95.44c-6.36,9.08-70.74,232.57-70.74,232.57,0,0,.79,42.7,18.95,45.42,18.17,2.73,22.71-3.63,22.71-3.63l106.29-277.99-18.17-228.93-200.61,25.2Z"/><path class="cls-58" d="m283.04,908.98s18.67.29,14.57,28.06c-4.1,27.77-3.64,41.43,10.02,47.81,13.66,6.37,17.3,38.7-12.29,62.37-29.59,23.68-61.92-20.49-61.92-20.49l10.02-85.57,39.61-32.18Z"/><path class="cls-123" d="m276.22,915.97s3.82,27.46,1.91,33.77c-1.91,6.31-3.71,7.42-3.71,7.42,0,0,4.57,8.69,4.25,13.89-.32,5.2-1.2,24.55-6.85,34.26-4.3,7.39-11.51,4.56-11.51,4.56v34.15s-4.45,8.91-29.32,5.94c-24.87-2.97-38.23-19.67-38.23-19.67,0,0-33.78-63.18-25.61-89.13,8.17-25.94,13.73-41.28,20.04-39.18,6.31,2.1,89.03,13.99,89.03,13.99Z"/><path class="cls-18" d="m283.7,900c8.67,17.34-2.23,44.91-32.29,54.19-30.07,9.28-40.83,2.97-40.83,2.97,0,0-2.23-23.01-14.85-20.04-12.62,2.97-14.85,17.82-2.97,32.29,11.88,14.48,31.18,53.08-17.45,67.19-48.63,14.11-73.47,33.08-73.47,33.08,0,0-39.37-50.89-21.18-86.53,18.19-35.63,55.31-24.21,60.88-41.99,5.57-17.78,8.54-59.25,56.42-71.37,47.88-12.11,77.21,13.13,85.75,30.2Z"/><path class="cls-41" d="m266.45,1034.83s-10.88,15.89-35.45,15.14c-24.58-.75-40.3-23.69-40.3-23.69,0,0-81,22.94-89.67,34.94-8.67,12.01-43.36,182.1-36.69,190.11,6.67,8,107.39,30.02,107.39,30.02l-20.65,75.58s8.65,16.48,102.7,14.47c94.05-2,109.4-29.35,109.4-29.35,0,0-31.35-193.62-32.02-222.88-.67-29.26,4-51.26-18.01-71.94-22.01-20.69-46.69-12.39-46.69-12.39Z"/><path class="cls-65" d="m140.64,1098.89s4.67,6.27,0,33.86c-4.67,27.59-14.86,73.01-22.92,82.78-8.07,9.76-13.16,16.98-13.16,16.98,0,0,19.95-17.4,26.74-15.71,6.79,1.7,98.48,24.83,98.48,24.83l3.63-4.03s-98.72-25.47-100.41-29.72c-1.7-4.24,14.86-62.83,13.58-84.05-1.27-21.23-5.94-24.94-5.94-24.94Z"/><path class="cls-63" d="m232.37,1238.76s-5.5,4.77-5.5,13.57,2.75,18.19,2.75,18.19c0,0,23.66,7.63,28.36,4.7s22.6-18.49,30.52-13.2c7.92,5.28,11.74,9.68,20.25,7.92,8.51-1.76,35.8-2.93,33.45-8.51-2.35-5.58-36.68-40.2-46.95-41.08-10.27-.88-39.32,17.31-47.83,18.19-8.51.88-15.04.22-15.04.22Z"/><path class="cls-59" d="m361.56,1270.89l87.36-136.84c2.46-3.85,6.7-6.17,11.26-6.17h135.26c5.49,0,8.82,6.07,5.86,10.7l-84.48,132.31h-155.28Z"/><path class="cls-102" d="m366.59,1277.19l87.36-136.84c2.46-3.85,6.7-6.17,11.26-6.17h135.26c5.49,0,8.82,6.07,5.86,10.7l-84.48,132.31h-155.28Z"/><polygon class="cls-59" points="370.61 1270.89 222.22 1270.89 222.22 1277.26 366.59 1277.26 370.61 1270.89"/><path class="cls-12" d="m200.86,1899.96s9.65,12.44,27.42,9.14c17.77-3.3,25.64-15.23,33.51-9.14,7.87,6.09,13.96,13.96,29.96,16.25,15.99,2.28,23.86,7.11,25.64,17.26,1.78,10.15,0,12.19,0,12.19h-123.89s-8.89-43.92,7.36-45.7Z"/><path class="cls-59" d="m196.28,1023.84s14.11,16.74,26,22.03c11.89,5.29,14.53,4.7,14.53,4.7l-20.26,14.86s-27.66-31.89-28.9-36.3c-1.23-4.41,8.63-5.29,8.63-5.29Z"/><path class="cls-59" d="m245.82,1048.23l12.31,12.79s16.39-19.91,15.68-24.49c-.7-4.58-13.99-3.17-13.99-3.17,0,0-.12,8.96-14.01,14.88Z"/><rect class="cls-42" x="1937.63" y="1241.63" width="330.71" height="394.54" transform="translate(4205.97 2877.8) rotate(180)"/><g class="cls-148"><path class="cls-59" d="m1962.21,1565.23v-265.43c0-13.27,10.79-24.06,24.06-24.06h233.43c13.27,0,24.06,10.79,24.06,24.06v265.43c0,13.27-10.79,24.06-24.06,24.06h-233.43c-13.27,0-24.06-10.79-24.06-24.06Zm24.06-279.26c-7.62,0-13.83,6.21-13.83,13.83v265.43c0,7.62,6.21,13.83,13.83,13.83h233.43c7.62,0,13.83-6.21,13.83-13.83v-265.43c0-7.62-6.21-13.83-13.83-13.83h-233.43Z"/></g><polygon class="cls-116" points="1937.63 1241.63 1873.83 1215.8 1873.83 1596.85 1937.63 1636.17 1937.63 1241.63"/><polygon class="cls-94" points="2268.34 1241.63 2204.54 1215.8 1873.83 1215.8 1937.63 1241.63 2268.34 1241.63"/><polygon class="cls-118" points="1926.43 1237.09 1926.43 1631.78 1882.67 1600.91 1882.67 1219.38 1926.43 1237.09"/><polygon class="cls-59" points="2197.52 1219.38 1882.67 1219.38 1926.43 1237.09 2239.92 1237.09 2197.52 1219.38"/><rect class="cls-50" x="2010.48" y="1201.3" width="330.71" height="465" transform="translate(4351.68 2867.59) rotate(180)"/><g class="cls-148"><path class="cls-59" d="m2035.07,1595.36v-335.89c0-13.27,10.79-24.06,24.06-24.06h233.43c13.27,0,24.06,10.79,24.06,24.06v335.89c0,13.27-10.79,24.06-24.06,24.06h-233.43c-13.27,0-24.06-10.79-24.06-24.06Zm24.06-349.72c-7.62,0-13.83,6.21-13.83,13.83v335.89c0,7.62,6.21,13.83,13.83,13.83h233.43c7.62,0,13.83-6.21,13.83-13.83v-335.89c0-7.62-6.21-13.83-13.83-13.83h-233.43Z"/></g><polygon class="cls-17" points="2010.48 1201.3 1946.68 1175.46 1946.68 1637.04 2010.48 1666.29 2010.48 1201.3"/><polygon class="cls-111" points="2341.2 1201.3 2277.4 1175.46 1946.68 1175.46 2010.48 1201.3 2341.2 1201.3"/><polygon class="cls-118" points="1999.28 1196.76 1999.28 1661.9 1955.52 1641.1 1955.52 1179.04 1999.28 1196.76"/><polygon class="cls-59" points="2270.37 1179.04 1955.52 1179.04 1999.28 1196.76 2312.77 1196.76 2270.37 1179.04"/><path class="cls-81" d="m2395.58,1474.05l164.84,334.19c1.41,2.83,3.22,5.28,5.41,7.21,3.09,2.96,6.83,4.89,10.95,5.92.38.13.77.26,1.16.26,5.02,1.03,10.31.52,15.2-1.68l54.47-24.98c10.56-4.76,15.2-17.39,10.04-27.95l-169.43-351.39-92.63,58.41Z"/><path class="cls-129" d="m2197.25,1366.78l169.09,340.11,13.91,7.6,185.57,100.96c-2.19-1.93-3.99-4.38-5.41-7.21l-164.84-334.19-35.03-18.93-163.3-88.34Z"/><polygon class="cls-40" points="2290.02 1308.36 2488.21 1415.64 2395.58 1474.05 2197.25 1366.78 2290.02 1308.36"/><path class="cls-59" d="m2277.21,1316.43l169.5,91.05c5.06,2.72,5.31,9.88.45,12.95l-47.2,29.77c-7.56,4.77-17.1,5.08-24.95.81l-167.22-90.85,69.42-43.72Z"/><polygon class="cls-112" points="2488.21 1415.64 2395.58 1474.05 2404.72 1492.57 2497.63 1435.17 2488.21 1415.64"/><polygon class="cls-33" points="2613.99 1672.22 2521.36 1730.63 2530.5 1749.16 2623.41 1691.75 2613.99 1672.22"/><path class="cls-132" d="m2299.31,1427.94l141.56,286.77c.88,1.88,2.1,3.65,3.53,5.08l-145.1-291.85Z"/><path class="cls-143" d="m2166.37,1723.55v60.78c0,8.4,3.21,16.02,8.73,21.66l7.29,5.64c4.53,2.54,9.73,3.98,15.25,3.98h287.65v-123.33h-287.65c-2.65,0-5.3.33-7.74,1-13.59,3.43-23.54,15.58-23.54,30.28Z"/><path class="cls-22" d="m2003.15,1606.3v50.5c0,.89,0,1.77.11,2.65.78,9.72,6.08,18.23,13.81,23.32l.22.11,157.81,123.11c-5.53-5.64-8.73-13.26-8.73-21.66v-60.78c0-14.7,9.94-26.85,23.54-30.28l-8.17-5.19-167.31-105.87c-6.85,5.64-11.27,14.37-11.27,24.09Z"/><path class="cls-80" d="m2014.42,1582.21l167.31,105.87,8.17,5.19c2.43-.66,5.08-1,7.74-1h287.65l-189.85-117.25h-261.14c-7.51,0-14.36,2.65-19.89,7.18Z"/><path class="cls-130" d="m2485.29,1706.68h-276.9c-11.47,0-20.78,9.3-20.78,20.78v57.48c0,11.58,9.46,20.92,21.04,20.77l276.63-3.53v-95.5Z"/><path class="cls-140" d="m2166.37,1589.1v60.78c0,8.4,3.21,16.02,8.73,21.66l7.29,5.64c4.53,2.54,9.73,3.98,15.25,3.98h287.65v-123.33h-287.65c-2.65,0-5.3.33-7.74,1-13.59,3.43-23.54,15.58-23.54,30.28Z"/><path class="cls-138" d="m2003.15,1493.95v50.5c0,.88,0,1.77.11,2.65.78,9.72,6.08,18.23,13.81,23.32l.22.11,157.81,101c-5.53-5.64-8.73-13.26-8.73-21.66v-60.78c0-14.7,9.94-26.85,23.54-30.28l-8.17-5.19-167.31-83.77c-6.85,5.64-11.27,14.37-11.27,24.09Z"/><path class="cls-32" d="m2014.42,1469.86l167.31,83.77,8.17,5.19c2.43-.66,5.08-1,7.74-1h287.65l-189.85-95.15h-261.14c-7.51,0-14.36,2.65-19.89,7.18Z"/><path class="cls-87" d="m2485.29,1572.24h-276.9c-11.47,0-20.78,9.3-20.78,20.78v57.48c0,11.58,9.46,20.92,21.04,20.77l276.63-3.53v-95.5Z"/><path class="cls-89" d="m1477.03,1819.8l-36.28,26.68s11.99,27.75,28.94,28.81c16.95,1.07,30.89-3.93,30.89-3.93l7.55-13.68-31.09-37.89Z"/><path class="cls-109" d="m1684.6,1866.35l-6.65,29.22s47.21,5.59,48.81-2.67c1.59-8.25,0-20.36,0-20.36l-42.15-6.19Z"/><path class="cls-93" d="m2058.04,1820.59s-3.43,31.59-85.86,0c-82.43-31.59-227.2-83.77-227.2-83.77l-225.58,127.1s-21.04,9.41-36.19-8.76c-15.15-18.17-13.47-44.27-13.47-44.27l317.32-204.53,139.72,79.12,131.26,135.12Z"/><path class="cls-131" d="m2028.57,1257.19s-5.11,28.28,0,31.34c5.11,3.06-1.76,10.72-1.13,17.36.62,6.64,1.65,30.63,11.35,41.36,9.7,10.72,26.04,0,26.04,0v38.8h60.25s-11.23-65.14,0-92.31c11.23-27.17,6.01-52.69-18.25-56.78-24.27-4.08-78.24,20.23-78.24,20.23Z"/><path class="cls-128" d="m2129.15,1239.8s.51-40.58-26.55-37.02c-27.06,3.56-51.57,16.38-66.37,8.69-14.81-7.69-14.81-13.81-14.81-13.81,0,0-27.06,37.39-6.13,59.54,20.93,22.15,73.01,2.71,73.01,2.71,0,0-5.62,26.01.51,32.43,6.13,6.42,10.72,10.59,10.72,10.59,0,0,2.55-22.56,11.23-20.51,8.68,2.04-2.04,35.74,6.13,37.78,8.17,2.04,30.74-34.83,33.7-54.94,2.95-20.11-21.44-25.45-21.44-25.45Z"/><path class="cls-8" d="m2167.78,1450.43c-3.48,48.38-49.54,255.73-49.54,255.73,0,0-13.03,13.14-65.96,5.8-52.93-7.34-74.85-48.19-74.85-48.19l16.71-127.96-63.93,21.63h-67.03l-6.76-37.18s90.11-18.83,97.93-28.2c5.79-7.05,40.75-56.21,64.31-84.5,8.12-9.75,14.78-17.09,18.45-19.22,14.1-8.4,17.77-7.92,17.77-7.92l1.55-14.58s70.21-10.52,79.1,2.51c8.88,13.14,12.46,25.21,12.46,25.21,0,0,23.28,8.5,19.8,56.88Z"/><path class="cls-48" d="m2018.66,1407.55l-24.52,128.25-63.93,21.63h-67.03l-6.76-37.18s90.11-18.83,97.93-28.2c5.79-7.05,40.75-56.21,64.31-84.5Z"/><path class="cls-92" d="m2112.57,1709.42s-17.16,122.08-81.31,117.3c-64.15-4.79-216.44-163.67-230.8-163.39-14.36.28-66.11,212.95-66.11,212.95,0,0-14.55,11.38-36.34,7.55-21.79-3.83-20.03-12.11-20.03-12.11,0,0,61.46-338.96,81.88-341.59,49.66-6.4,217.57,133.64,217.57,133.64,0,0,63.26,67.18,135.14,45.65Z"/><path class="cls-34" d="m1677.5,1885.52s-83.06,28.45-86.43,39.24c-3.37,10.79-4.04,20.9-4.04,20.9l157.75-15.51s-1.93-41.52-13.1-45.03c-11.17-3.51-25.05,12.39-54.18.39Z"/><path class="cls-13" d="m1450.15,1834.34s-3.37,23.59,22.92,32.02c26.29,8.43,35.06,3.71,35.06,3.71l-4.72,28.99s-124.04,16.85-150.33,10.11c-26.29-6.74-42.47-16.85-18.88-29.66,23.59-12.81,109.88-37.08,115.95-45.17Z"/><polygon class="cls-72" points="1754.06 1552.61 1843.44 1601.56 1829.32 1386.05 1739.95 1337.1 1754.06 1552.61"/><polygon class="cls-82" points="1829.32 1386.05 1843.44 1381.25 1856.41 1584.85 1979.07 1558.81 1979.07 1571.83 1843.44 1601.56 1829.32 1386.05"/><polygon class="cls-26" points="1739.95 1337.1 1757.12 1332.72 1843.44 1381.25 1829.32 1386.05 1739.95 1337.1"/><polygon class="cls-46" points="1979.07 1558.81 1861.63 1475.38 1849.72 1479.9 1856.41 1584.85 1979.07 1558.81"/><path class="cls-110" d="m2147.95,1393.55c-30.44-5.84-62.68,22.57-63.42,75.78-.74,53.21-13.28,111.29-13.28,111.29l-98.13-28.32s-2.95,24.77-11.81,32.55l-8.85,7.78s166.89,83.37,178.26,62.71c11.36-20.66,56.3-254.31,17.23-261.8Z"/><path class="cls-15" d="m1972.12,1558.53s-17.24-11.1-20.81-19.44c-3.57-8.34-9.88-20.47-21.52-19.01-11.64,1.46-52.63,17.71-55.54,21.34s7.52,25.71,22.8,22.31c15.28-3.4,33.47-10.69,35.65.35,2.18,11.05,25.53,23.48,25.53,23.48,0,0,15-9.27,13.9-29.04Z"/><g class="cls-144"><ellipse class="cls-74" cx="1127.45" cy="1900.38" rx="147.83" ry="43.01"/><ellipse class="cls-37" cx="1127.45" cy="1900.38" rx="144.93" ry="42.17"/><ellipse class="cls-77" cx="1127.45" cy="1900.38" rx="142.03" ry="41.32"/><ellipse class="cls-136" cx="1127.45" cy="1900.38" rx="139.13" ry="40.48"/><ellipse class="cls-83" cx="1127.45" cy="1900.38" rx="136.23" ry="39.63"/><ellipse class="cls-20" cx="1127.45" cy="1900.38" rx="133.33" ry="38.79"/><ellipse class="cls-44" cx="1127.45" cy="1900.38" rx="130.43" ry="37.95"/><ellipse class="cls-1" cx="1127.45" cy="1900.38" rx="127.53" ry="37.1"/><ellipse class="cls-14" cx="1127.45" cy="1900.38" rx="124.62" ry="36.26"/><ellipse class="cls-120" cx="1127.45" cy="1900.38" rx="121.72" ry="35.41"/><ellipse class="cls-126" cx="1127.45" cy="1900.38" rx="118.82" ry="34.57"/><ellipse class="cls-127" cx="1127.45" cy="1900.38" rx="115.92" ry="33.73"/><ellipse class="cls-23" cx="1127.45" cy="1900.38" rx="113.02" ry="32.88"/><ellipse class="cls-28" cx="1127.45" cy="1900.38" rx="110.12" ry="32.04"/><ellipse class="cls-115" cx="1127.45" cy="1900.38" rx="107.22" ry="31.19"/><ellipse class="cls-45" cx="1127.45" cy="1900.38" rx="104.32" ry="30.35"/><ellipse class="cls-108" cx="1127.45" cy="1900.38" rx="101.42" ry="29.51"/><ellipse class="cls-36" cx="1127.45" cy="1900.38" rx="98.52" ry="28.66"/><ellipse class="cls-5" cx="1127.45" cy="1900.38" rx="95.62" ry="27.82"/><ellipse class="cls-103" cx="1127.45" cy="1900.38" rx="92.72" ry="26.97"/><ellipse class="cls-139" cx="1127.45" cy="1900.38" rx="89.81" ry="26.13"/><ellipse class="cls-134" cx="1127.45" cy="1900.38" rx="86.91" ry="25.29"/><ellipse class="cls-142" cx="1127.45" cy="1900.38" rx="84.01" ry="24.44"/><ellipse class="cls-91" cx="1127.45" cy="1900.38" rx="81.11" ry="23.6"/><ellipse class="cls-75" cx="1127.45" cy="1900.38" rx="78.21" ry="22.76"/><ellipse class="cls-79" cx="1127.45" cy="1900.38" rx="75.31" ry="21.91"/><ellipse class="cls-6" cx="1127.45" cy="1900.38" rx="72.41" ry="21.07"/><ellipse class="cls-119" cx="1127.45" cy="1900.38" rx="69.51" ry="20.22"/><ellipse class="cls-16" cx="1127.45" cy="1900.38" rx="66.61" ry="19.38"/></g><path class="cls-124" d="m1014.87,1687.47l28.5,179.95c0,4,18.39,23.39,51.68,23.39,39.29,0,51.68-19.39,51.68-23.39l28.5-179.95h-160.35Z"/><ellipse class="cls-86" cx="1095.04" cy="1687.3" rx="80.18" ry="33.24"/><path class="cls-31" d="m1286.56,1542.65s-69.88-.07-107.49,58.31c-39.04,60.6-38.35,95.86-38.35,95.86l-26.77,1.87s-19.23-18.05,0-58.13c19.23-40.08,95.25-125.01,172.61-97.92Z"/><path class="cls-133" d="m1095.04,1698.7s.99-93.82,61.82-142.13c60.83-48.32,129.69-13.91,129.69-13.91,0,0-66.63-9.15-113.58,30.39-46.95,39.53-59.03,125.66-59.03,125.66h-18.91Z"/><path class="cls-39" d="m1100.96,1698.67l-20.62-.52-19.31-.52s-2.94-37.37-25.81-75.83c-22.93-38.46-65.9-75.12-65.9-75.12,0,0,40.87-4.06,88.41,42.97,47.48,47.03,43.23,109,43.23,109Z"/><path class="cls-25" d="m1100.96,1698.67l-20.62-.52c-3.25-19.01-11.02-47.67-29.33-80.08-32.9-58.3-81.7-71.38-81.7-71.38,0,0,40.87-4.06,88.41,42.97,47.48,47.03,43.23,109,43.23,109Z"/><path class="cls-88" d="m1125.46,1697.84l-8,22.7-33.8-.34s-2.9-112.49-26.87-182.84c-23.98-70.41-49.85-80.79-49.85-80.79h.68c6.51,0,58.98,2.45,93.45,80.85,36.73,83.69,24.4,160.41,24.4,160.41Z"/><path class="cls-30" d="m1125.46,1697.84l-10.78,21.69c-.47-34.72-7.9-114.27-32.77-172.89-36.15-85.23-69.15-89.87-74.3-90.06,6.51,0,58.98,2.45,93.45,80.85,36.73,83.69,24.4,160.41,24.4,160.41Z"/><path class="cls-117" d="m1114.69,1719.53s11.22-91.63,70.11-107.01c58.9-15.39,84.38,35.9,84.38,35.9,0,0-37.59-15.39-71.43-4.62-33.83,10.77-47.59,67.63-47.59,67.63l-35.47,8.1Z"/><path class="cls-141" d="m1085.69,1720.54s-15.08-62.54-46.45-78.43c-31.37-15.89-56.47,0-56.47,0,0,0,25.88.48,46.27,17.33,20.39,16.85,30.1,60.08,30.1,60.08l26.54,1.01Z"/><g class="cls-144"><ellipse class="cls-74" cx="318.18" cy="1945.66" rx="318.18" ry="43.01"/><ellipse class="cls-37" cx="318.18" cy="1945.66" rx="311.93" ry="42.17"/><ellipse class="cls-77" cx="318.18" cy="1945.66" rx="305.69" ry="41.32"/><ellipse class="cls-136" cx="318.18" cy="1945.66" rx="299.45" ry="40.48"/><ellipse class="cls-83" cx="318.18" cy="1945.66" rx="293.2" ry="39.63"/><ellipse class="cls-20" cx="318.18" cy="1945.66" rx="286.96" ry="38.79"/><ellipse class="cls-44" cx="318.18" cy="1945.66" rx="280.72" ry="37.95"/><ellipse class="cls-1" cx="318.18" cy="1945.66" rx="274.47" ry="37.1"/><ellipse class="cls-14" cx="318.18" cy="1945.66" rx="268.23" ry="36.26"/><ellipse class="cls-120" cx="318.18" cy="1945.66" rx="261.99" ry="35.41"/><ellipse class="cls-126" cx="318.18" cy="1945.66" rx="255.74" ry="34.57"/><ellipse class="cls-127" cx="318.18" cy="1945.66" rx="249.5" ry="33.73"/><ellipse class="cls-23" cx="318.18" cy="1945.66" rx="243.25" ry="32.88"/><ellipse class="cls-28" cx="318.18" cy="1945.66" rx="237.01" ry="32.04"/><ellipse class="cls-115" cx="318.18" cy="1945.66" rx="230.77" ry="31.19"/><ellipse class="cls-45" cx="318.18" cy="1945.66" rx="224.52" ry="30.35"/><ellipse class="cls-108" cx="318.18" cy="1945.66" rx="218.28" ry="29.51"/><ellipse class="cls-36" cx="318.18" cy="1945.66" rx="212.04" ry="28.66"/><ellipse class="cls-5" cx="318.18" cy="1945.66" rx="205.79" ry="27.82"/><ellipse class="cls-103" cx="318.18" cy="1945.66" rx="199.55" ry="26.98"/><ellipse class="cls-139" cx="318.18" cy="1945.66" rx="193.31" ry="26.13"/><ellipse class="cls-134" cx="318.18" cy="1945.66" rx="187.06" ry="25.29"/><ellipse class="cls-142" cx="318.18" cy="1945.66" rx="180.82" ry="24.44"/><ellipse class="cls-91" cx="318.18" cy="1945.66" rx="174.58" ry="23.6"/><ellipse class="cls-75" cx="318.18" cy="1945.66" rx="168.33" ry="22.76"/><ellipse class="cls-79" cx="318.18" cy="1945.66" rx="162.09" ry="21.91"/><ellipse class="cls-6" cx="318.18" cy="1945.66" rx="155.85" ry="21.07"/><ellipse class="cls-119" cx="318.18" cy="1945.66" rx="149.6" ry="20.22"/><ellipse class="cls-16" cx="318.18" cy="1945.66" rx="143.36" ry="19.38"/></g></svg>