<?xml version="1.0" encoding="UTF-8"?><svg id="Layer_1" xmlns="http://www.w3.org/2000/svg" xmlns:xlink="http://www.w3.org/1999/xlink" viewBox="0 0 2198.48 2028.26"><defs><style>.cls-1{fill:url(#linear-gradient-38);}.cls-1,.cls-2,.cls-3,.cls-4,.cls-5,.cls-6,.cls-7,.cls-8,.cls-9,.cls-10,.cls-11,.cls-12,.cls-13,.cls-14,.cls-15,.cls-16,.cls-17,.cls-18,.cls-19,.cls-20,.cls-21,.cls-22,.cls-23,.cls-24,.cls-25,.cls-26,.cls-27,.cls-28,.cls-29,.cls-30,.cls-31,.cls-32,.cls-33,.cls-34,.cls-35,.cls-36,.cls-37,.cls-38,.cls-39,.cls-40,.cls-41,.cls-42,.cls-43,.cls-44,.cls-45,.cls-46,.cls-47,.cls-48,.cls-49,.cls-50,.cls-51,.cls-52,.cls-53,.cls-54,.cls-55,.cls-56,.cls-57,.cls-58,.cls-59,.cls-60,.cls-61,.cls-62,.cls-63,.cls-64,.cls-65,.cls-66,.cls-67,.cls-68,.cls-69,.cls-70,.cls-71,.cls-72,.cls-73,.cls-74,.cls-75,.cls-76,.cls-77,.cls-78,.cls-79,.cls-80,.cls-81,.cls-82,.cls-83,.cls-84,.cls-85,.cls-86,.cls-87,.cls-88,.cls-89,.cls-90,.cls-91,.cls-92,.cls-93,.cls-94,.cls-95,.cls-96,.cls-97,.cls-98,.cls-99,.cls-100,.cls-101,.cls-102,.cls-103,.cls-104,.cls-105,.cls-106,.cls-107,.cls-108,.cls-109,.cls-110,.cls-111,.cls-112,.cls-113,.cls-114,.cls-115,.cls-116,.cls-117,.cls-118,.cls-119,.cls-120,.cls-121,.cls-122,.cls-123,.cls-124,.cls-125,.cls-126,.cls-127,.cls-128,.cls-129,.cls-130,.cls-131,.cls-132,.cls-133,.cls-134,.cls-135,.cls-136,.cls-137,.cls-138,.cls-139,.cls-140,.cls-141,.cls-142,.cls-143,.cls-144,.cls-145,.cls-146,.cls-147,.cls-148,.cls-149,.cls-150,.cls-151,.cls-152,.cls-153,.cls-154,.cls-155,.cls-156,.cls-157,.cls-158,.cls-159,.cls-160,.cls-161{stroke-width:0px;}.cls-2{opacity:0;}.cls-2,.cls-4,.cls-6,.cls-8,.cls-9,.cls-17,.cls-20,.cls-28,.cls-31,.cls-41,.cls-44,.cls-46,.cls-47,.cls-55,.cls-57,.cls-60,.cls-61,.cls-63,.cls-70,.cls-86,.cls-93,.cls-98,.cls-113,.cls-116,.cls-120,.cls-125,.cls-128,.cls-151,.cls-152,.cls-158{fill:#262a35;}.cls-3{fill:#fefefe;}.cls-4{opacity:.66;}.cls-5{fill:url(#linear-gradient-12);}.cls-6{opacity:.69;}.cls-7{fill:url(#linear-gradient-17);}.cls-8{opacity:.9;}.cls-9{opacity:.31;}.cls-10,.cls-23{opacity:.4;}.cls-10,.cls-76,.cls-155{fill:#fff;}.cls-11{fill:url(#linear-gradient-28);}.cls-11,.cls-40,.cls-74,.cls-77{opacity:.26;}.cls-12{fill:url(#linear-gradient-88);}.cls-13{fill:url(#linear-gradient-19);}.cls-14{fill:url(#linear-gradient-33);}.cls-15{fill:url(#linear-gradient);}.cls-16{fill:url(#linear-gradient-62);}.cls-17{opacity:.1;}.cls-18{fill:url(#linear-gradient-92);}.cls-19{fill:url(#linear-gradient-98);}.cls-20{opacity:.14;}.cls-21{fill:url(#linear-gradient-67);}.cls-22{fill:url(#linear-gradient-57);}.cls-162{filter:url(#luminosity-noclip-7);}.cls-23,.cls-30,.cls-91,.cls-146{fill:#1c202a;}.cls-24{fill:url(#linear-gradient-21);}.cls-25{fill:url(#linear-gradient-6);}.cls-163{filter:url(#luminosity-noclip-5);}.cls-26{fill:url(#linear-gradient-76);}.cls-27{fill:#3c495e;}.cls-28{opacity:.07;}.cls-164{mask:url(#mask-2);}.cls-29{fill:url(#linear-gradient-42);}.cls-31{opacity:.93;}.cls-32{fill:url(#linear-gradient-104);}.cls-33{fill:url(#linear-gradient-95);}.cls-34{fill:url(#linear-gradient-89);}.cls-34,.cls-126,.cls-137,.cls-138{mix-blend-mode:multiply;}.cls-35{fill:url(#linear-gradient-15);}.cls-36{fill:url(#linear-gradient-11);}.cls-37{fill:url(#linear-gradient-106);}.cls-165{mask:url(#mask-3);}.cls-38{fill:url(#linear-gradient-101);}.cls-39{fill:url(#linear-gradient-81);}.cls-40{fill:url(#linear-gradient-110);}.cls-41{opacity:.97;}.cls-42{fill:url(#linear-gradient-73);}.cls-43{fill:#cc9758;}.cls-44{opacity:.28;}.cls-45{fill:url(#linear-gradient-91);}.cls-46{opacity:.17;}.cls-47{opacity:.59;}.cls-48{fill:url(#linear-gradient-5);}.cls-49{fill:url(#linear-gradient-31);}.cls-50{fill:#ceccc8;}.cls-51{fill:url(#linear-gradient-103);}.cls-52{fill:url(#linear-gradient-71);}.cls-53{fill:url(#linear-gradient-58);}.cls-54{fill:url(#linear-gradient-63);}.cls-55{opacity:.76;}.cls-56{fill:url(#linear-gradient-34);}.cls-57{opacity:.38;}.cls-58{fill:url(#linear-gradient-96);}.cls-59{fill:url(#linear-gradient-41);}.cls-60{opacity:.48;}.cls-62{fill:url(#linear-gradient-40);}.cls-63{opacity:.52;}.cls-64{fill:url(#linear-gradient-66);}.cls-166{mask:url(#mask-5);}.cls-65{fill:url(#linear-gradient-13);}.cls-66{fill:#d8d2d2;}.cls-67{fill:url(#linear-gradient-23);}.cls-68{fill:url(#linear-gradient-25);}.cls-69{fill:url(#linear-gradient-43);}.cls-70{opacity:.55;}.cls-71{fill:url(#linear-gradient-16);}.cls-72{fill:url(#linear-gradient-22);}.cls-73{fill:url(#linear-gradient-54);}.cls-74{fill:url(#linear-gradient-69);}.cls-75{fill:url(#linear-gradient-55);}.cls-77{fill:url(#linear-gradient-90);}.cls-78{fill:url(#linear-gradient-35);}.cls-167{opacity:.3;}.cls-79{fill:url(#linear-gradient-50);}.cls-80{fill:url(#linear-gradient-32);}.cls-81{fill:url(#linear-gradient-60);}.cls-82{fill:url(#linear-gradient-59);}.cls-83{fill:url(#linear-gradient-20);}.cls-84{fill:url(#linear-gradient-14);}.cls-85{fill:url(#linear-gradient-2);}.cls-86{opacity:.83;}.cls-87{fill:url(#linear-gradient-52);}.cls-88{fill:#f4f2f2;}.cls-89{fill:url(#linear-gradient-45);}.cls-90{fill:#fafafa;}.cls-91{opacity:.33;}.cls-92{fill:url(#linear-gradient-93);}.cls-93{opacity:.86;}.cls-94{fill:url(#linear-gradient-7);}.cls-95{fill:url(#linear-gradient-39);}.cls-168{mask:url(#mask-4);}.cls-96{fill:url(#linear-gradient-3);}.cls-97{fill:url(#linear-gradient-77);}.cls-98{opacity:.79;}.cls-99{fill:url(#linear-gradient-94);}.cls-100{fill:url(#linear-gradient-9);}.cls-101{fill:url(#linear-gradient-100);}.cls-102{fill:url(#linear-gradient-82);}.cls-103{fill:url(#linear-gradient-105);}.cls-104{fill:url(#linear-gradient-83);}.cls-105{fill:#8e8686;}.cls-169{mask:url(#mask-6);}.cls-106{fill:url(#linear-gradient-53);}.cls-107{fill:#0f2649;}.cls-108{fill:url(#linear-gradient-85);}.cls-109{fill:url(#linear-gradient-65);}.cls-110{fill:url(#linear-gradient-36);}.cls-111{fill:url(#linear-gradient-48);}.cls-112{fill:url(#linear-gradient-49);}.cls-113{opacity:.21;}.cls-114{fill:url(#linear-gradient-8);}.cls-115{fill:url(#linear-gradient-47);}.cls-116{opacity:.03;}.cls-117{fill:url(#linear-gradient-24);}.cls-118{fill:url(#linear-gradient-26);}.cls-119{fill:url(#linear-gradient-61);}.cls-120{opacity:.45;}.cls-121{fill:url(#linear-gradient-18);}.cls-122{fill:#e5dfdf;}.cls-123{fill:#dfeeef;}.cls-124{fill:url(#linear-gradient-51);}.cls-125{opacity:.72;}.cls-126{fill:url(#linear-gradient-109);}.cls-127{fill:url(#linear-gradient-30);}.cls-170{filter:url(#luminosity-noclip);}.cls-128{opacity:.34;}.cls-171{mask:url(#mask-1);}.cls-172{mask:url(#mask);}.cls-129{fill:url(#linear-gradient-44);}.cls-130{fill:url(#linear-gradient-84);}.cls-131{fill:url(#linear-gradient-97);}.cls-132{fill:url(#linear-gradient-72);}.cls-133{fill:url(#linear-gradient-29);}.cls-134{fill:url(#linear-gradient-46);}.cls-135{fill:url(#linear-gradient-64);}.cls-136{fill:url(#linear-gradient-107);}.cls-137{fill:url(#linear-gradient-68);}.cls-138{fill:url(#linear-gradient-27);}.cls-173{mask:url(#mask-7);}.cls-139{fill:url(#linear-gradient-56);}.cls-140{fill:url(#linear-gradient-99);}.cls-141{fill:url(#linear-gradient-10);}.cls-142{fill:url(#linear-gradient-87);}.cls-143{fill:url(#linear-gradient-70);}.cls-144{fill:url(#linear-gradient-78);}.cls-145{fill:url(#linear-gradient-86);}.cls-146{opacity:.2;}.cls-147{fill:url(#linear-gradient-74);}.cls-148{fill:url(#linear-gradient-102);}.cls-149{fill:url(#linear-gradient-4);}.cls-150{fill:#eaeaea;}.cls-151{opacity:.24;}.cls-152{opacity:.62;}.cls-153{fill:url(#linear-gradient-37);}.cls-154{fill:url(#linear-gradient-80);}.cls-155{opacity:.57;}.cls-174{filter:url(#luminosity-noclip-3);}.cls-156{fill:url(#linear-gradient-79);}.cls-157{fill:url(#linear-gradient-108);}.cls-158{opacity:.41;}.cls-159{fill:#b2b1af;}.cls-160{fill:url(#linear-gradient-75);}.cls-161{fill:#bcb8b3;}</style><linearGradient id="linear-gradient" x1="260.67" y1="711.35" x2="260.67" y2="1216.01" gradientUnits="userSpaceOnUse"><stop offset="0" stop-color="#dfeeef"/><stop offset="1" stop-color="#7d878d"/></linearGradient><linearGradient id="linear-gradient-2" x1="-45.19" y1="111.42" x2="-40.4" y2="219.33" gradientTransform="translate(391.18 133.22) scale(1 .96) skewX(-5.95)" gradientUnits="userSpaceOnUse"><stop offset="0" stop-color="#fff"/><stop offset="1" stop-color="#cecece"/></linearGradient><linearGradient id="linear-gradient-3" x1="-62.95" y1="177.15" x2="19.52" y2="177.15" xlink:href="#linear-gradient-2"/><linearGradient id="linear-gradient-4" x1="345.72" y1="218.95" x2="389.58" y2="218.95" gradientUnits="userSpaceOnUse"><stop offset="0" stop-color="#18187f"/><stop offset="1" stop-color="#6884fc"/></linearGradient><linearGradient id="linear-gradient-5" x1="469.65" y1="1721.2" x2="262.14" y2="2130.12" xlink:href="#linear-gradient"/><linearGradient id="linear-gradient-6" x1="533.41" y1="1890.95" x2="504.96" y2="1947.03" gradientUnits="userSpaceOnUse"><stop offset="0" stop-color="#f3f2ef"/><stop offset="1" stop-color="#cecece"/></linearGradient><linearGradient id="linear-gradient-7" x1="570.23" y1="1733.09" x2="508.77" y2="1854.21" xlink:href="#linear-gradient-6"/><linearGradient id="linear-gradient-8" x1="252.14" y1="1824.63" x2="145.4" y2="2034.97" xlink:href="#linear-gradient-6"/><linearGradient id="linear-gradient-9" x1="244.49" y1="1741.04" x2="186.86" y2="1854.6" xlink:href="#linear-gradient-6"/><linearGradient id="linear-gradient-10" x1="426.81" y1="1804.15" x2="335.32" y2="1814.43" xlink:href="#linear-gradient-6"/><linearGradient id="linear-gradient-11" x1="287.24" y1="1787.23" x2="446.58" y2="1787.23" xlink:href="#linear-gradient-6"/><linearGradient id="linear-gradient-12" x1="410.87" y1="1602.05" x2="343.34" y2="1609.64" xlink:href="#linear-gradient-6"/><linearGradient id="linear-gradient-13" x1="326.59" y1="1426.54" x2="407.23" y2="1426.54" gradientTransform="matrix(1,0,0,1,0,0)" xlink:href="#linear-gradient-2"/><linearGradient id="linear-gradient-14" x1="428.68" y1="1551.15" x2="334.28" y2="1561.76" gradientTransform="matrix(1,0,0,1,0,0)" xlink:href="#linear-gradient-2"/><linearGradient id="linear-gradient-15" x1="287.24" y1="1511.28" x2="446.58" y2="1511.28" gradientTransform="matrix(1,0,0,1,0,0)" xlink:href="#linear-gradient-2"/><linearGradient id="linear-gradient-16" x1="659.47" y1="1512.87" x2="799.33" y2="1512.87" gradientUnits="userSpaceOnUse"><stop offset="0" stop-color="#ffd9d9"/><stop offset="1" stop-color="#efb4b4"/></linearGradient><linearGradient id="linear-gradient-17" x1="775.12" y1="1275.19" x2="670.67" y2="1405.33" gradientUnits="userSpaceOnUse"><stop offset="0" stop-color="#3f4451"/><stop offset="1" stop-color="#1a1e28"/></linearGradient><linearGradient id="linear-gradient-18" x1="536.11" y1="1559.21" x2="399.84" y2="1310.81" gradientUnits="userSpaceOnUse"><stop offset="0" stop-color="#38aca8"/><stop offset="1" stop-color="#5f637a"/></linearGradient><linearGradient id="linear-gradient-19" x1="528.75" y1="1500.32" x2="402.91" y2="1270.93" xlink:href="#linear-gradient"/><linearGradient id="linear-gradient-20" x1="923.11" y1="1646.5" x2="1074.15" y2="1646.5" xlink:href="#linear-gradient-16"/><linearGradient id="linear-gradient-21" x1="239.11" y1="1285.65" x2="1053.46" y2="1285.65" xlink:href="#linear-gradient-17"/><linearGradient id="linear-gradient-22" x1="2034.64" y1="885.13" x2="-9.96" y2="684.09" gradientTransform="matrix(1,0,0,1,0,0)" xlink:href="#linear-gradient-2"/><linearGradient id="linear-gradient-23" x1="1928.83" y1="836.41" x2="1524.39" y2="1649.88" xlink:href="#linear-gradient"/><linearGradient id="linear-gradient-24" x1="246.77" y1="987.9" x2="1433.49" y2="987.9" xlink:href="#linear-gradient"/><linearGradient id="linear-gradient-25" x1="1811.33" y1="777.99" x2="1406.89" y2="1591.46" xlink:href="#linear-gradient"/><linearGradient id="linear-gradient-26" x1="2263.61" y1="1002.85" x2="1859.17" y2="1816.32" xlink:href="#linear-gradient"/><filter id="luminosity-noclip" x="846.58" y="534.18" width="1061.53" height="368.19" color-interpolation-filters="sRGB" filterUnits="userSpaceOnUse"><feFlood flood-color="#fff" result="bg"/><feBlend in="SourceGraphic" in2="bg"/></filter><filter id="luminosity-noclip-2" x="846.58" y="-9206.3" width="1061.53" height="32766" color-interpolation-filters="sRGB" filterUnits="userSpaceOnUse"><feFlood flood-color="#fff" result="bg"/><feBlend in="SourceGraphic" in2="bg"/></filter><mask id="mask-1" x="846.58" y="-9206.3" width="1061.53" height="32766" maskUnits="userSpaceOnUse"/><linearGradient id="linear-gradient-27" x1="846.58" y1="718.27" x2="1908.11" y2="718.27" gradientUnits="userSpaceOnUse"><stop offset="0" stop-color="#fff"/><stop offset="1" stop-color="#000"/></linearGradient><mask id="mask" x="846.58" y="534.18" width="1061.53" height="368.19" maskUnits="userSpaceOnUse"><g class="cls-170"><g class="cls-171"><polygon class="cls-138" points="865.82 592.07 846.58 600.17 1359.17 852.56 1680.37 902.37 1908.11 834.99 1390.95 534.18 865.82 592.07"/></g></g></mask><linearGradient id="linear-gradient-28" x1="846.58" y1="718.27" x2="1908.11" y2="718.27" gradientUnits="userSpaceOnUse"><stop offset="0" stop-color="#0c5c93"/><stop offset="1" stop-color="#0c5c93"/></linearGradient><linearGradient id="linear-gradient-29" x1="1603.15" y1="697.82" x2="982.61" y2="597.89" gradientTransform="matrix(1,0,0,1,0,0)" xlink:href="#linear-gradient-2"/><linearGradient id="linear-gradient-30" x1="1561.39" y1="383.21" x2="1022.74" y2="296.47" gradientTransform="matrix(1,0,0,1,0,0)" xlink:href="#linear-gradient-2"/><linearGradient id="linear-gradient-31" x1="862.29" y1="622.36" x2="1666.75" y2="622.36" gradientTransform="matrix(1,0,0,1,0,0)" xlink:href="#linear-gradient-2"/><linearGradient id="linear-gradient-32" x1="1131.42" y1="343.96" x2="1717.08" y2="343.96" xlink:href="#linear-gradient-17"/><linearGradient id="linear-gradient-33" x1="817.67" y1="-17.42" x2="1136.38" y2="-17.42" gradientTransform="translate(455.72 -122.09) rotate(24.65) scale(1 .91) skewX(16.87)" xlink:href="#linear-gradient-18"/><linearGradient id="linear-gradient-34" x1="802.22" y1="-161.9" x2="1310.14" y2="-161.9" gradientTransform="translate(455.72 -122.09) rotate(24.65) scale(1 .91) skewX(16.87)" xlink:href="#linear-gradient-18"/><linearGradient id="linear-gradient-35" x1="1150.78" y1="-58.44" x2="1297.19" y2="-58.44" gradientTransform="translate(455.72 -122.09) rotate(24.65) scale(1 .91) skewX(16.87)" gradientUnits="userSpaceOnUse"><stop offset="0" stop-color="#ffac06"/><stop offset="1" stop-color="#f87c18"/></linearGradient><linearGradient id="linear-gradient-36" x1="939.21" y1="-34.9" x2="967" y2="-34.9" gradientTransform="translate(455.72 -122.09) rotate(24.65) scale(1 .91) skewX(16.87)" xlink:href="#linear-gradient-16"/><linearGradient id="linear-gradient-37" x1="1052.94" y1="-44.78" x2="1089.91" y2="-44.78" gradientTransform="translate(455.72 -122.09) rotate(24.65) scale(1 .91) skewX(16.87)" xlink:href="#linear-gradient-16"/><linearGradient id="linear-gradient-38" x1="955.8" y1="18.05" x2="985.01" y2="18.05" gradientTransform="translate(455.72 -122.09) rotate(24.65) scale(1 .91) skewX(16.87)" xlink:href="#linear-gradient-16"/><linearGradient id="linear-gradient-39" x1="925.39" y1="-56.76" x2="980.88" y2="-56.76" gradientTransform="translate(455.72 -122.09) rotate(24.65) scale(1 .91) skewX(16.87)" xlink:href="#linear-gradient-16"/><linearGradient id="linear-gradient-40" x1="864.68" y1="97.58" x2="1182.12" y2="97.58" gradientTransform="translate(410.27 -160.92) rotate(24.65) scale(1 .91) skewX(16.87)" xlink:href="#linear-gradient-17"/><linearGradient id="linear-gradient-41" x1="884.08" y1="97.03" x2="895.79" y2="97.03" gradientTransform="translate(410.27 -160.92) rotate(24.65) scale(1 .91) skewX(16.87)" gradientUnits="userSpaceOnUse"><stop offset="0" stop-color="#f9f9f8"/><stop offset="1" stop-color="#cecece"/></linearGradient><linearGradient id="linear-gradient-42" x1="917.32" y1="96.62" x2="920.81" y2="96.62" xlink:href="#linear-gradient-41"/><linearGradient id="linear-gradient-43" x1="924.85" y1="96.62" x2="928.35" y2="96.62" xlink:href="#linear-gradient-41"/><linearGradient id="linear-gradient-44" x1="650.46" y1="246.25" x2="901.26" y2="246.25" gradientUnits="userSpaceOnUse"><stop offset="0" stop-color="#8e8e8e"/><stop offset="1" stop-color="#cecece"/></linearGradient><linearGradient id="linear-gradient-45" x1="815.9" y1="560.72" x2="699.4" y2="573.81" gradientTransform="matrix(1,0,0,1,0,0)" xlink:href="#linear-gradient-2"/><linearGradient id="linear-gradient-46" x1="637.25" y1="547.16" x2="841.98" y2="547.16" gradientTransform="matrix(1,0,0,1,0,0)" xlink:href="#linear-gradient-2"/><linearGradient id="linear-gradient-47" x1="764.55" y1="545.4" x2="732.15" y2="404.03" xlink:href="#linear-gradient-44"/><linearGradient id="linear-gradient-48" x1="730.43" y1="432.6" x2="730.43" y2="508.97" gradientTransform="matrix(1,0,0,1,0,0)" xlink:href="#linear-gradient-2"/><linearGradient id="linear-gradient-49" x1="729.09" y1="425.91" x2="759.49" y2="425.91" gradientUnits="userSpaceOnUse"><stop offset="0" stop-color="#8e8b86"/><stop offset="1" stop-color="#5b5a5a"/></linearGradient><linearGradient id="linear-gradient-50" x1="722.42" y1="421.9" x2="683.48" y2="251.98" xlink:href="#linear-gradient-44"/><linearGradient id="linear-gradient-51" x1="718.04" y1="424.48" x2="679.1" y2="254.56" gradientTransform="matrix(1,0,0,1,0,0)" xlink:href="#linear-gradient-2"/><linearGradient id="linear-gradient-52" x1="636.57" y1="252.5" x2="887.38" y2="252.5" gradientUnits="userSpaceOnUse"><stop offset="0" stop-color="#f7f7f6"/><stop offset="1" stop-color="#cecece"/></linearGradient><linearGradient id="linear-gradient-53" x1="888.24" y1="214.97" x2="910.69" y2="206.29" xlink:href="#linear-gradient-44"/><linearGradient id="linear-gradient-54" x1="901.26" y1="232.76" x2="1027.56" y2="232.76" gradientTransform="matrix(1,0,0,1,0,0)" xlink:href="#linear-gradient-35"/><linearGradient id="linear-gradient-55" x1="896.57" y1="299.96" x2="1098.31" y2="299.96" gradientTransform="matrix(1,0,0,1,0,0)" xlink:href="#linear-gradient-35"/><linearGradient id="linear-gradient-56" x1="915.91" y1="362.04" x2="1049.54" y2="310.33" gradientTransform="matrix(1,0,0,1,0,0)" xlink:href="#linear-gradient-35"/><linearGradient id="linear-gradient-57" x1="356.05" y1="431.43" x2="591.73" y2="431.43" xlink:href="#linear-gradient-16"/><linearGradient id="linear-gradient-58" x1="221.35" y1="858.86" x2="965.88" y2="858.86" gradientTransform="matrix(1,0,0,1,0,0)" xlink:href="#linear-gradient-35"/><linearGradient id="linear-gradient-59" x1="782.91" y1="688.05" x2="928.18" y2="688.05" xlink:href="#linear-gradient-16"/><linearGradient id="linear-gradient-60" x1="9630.96" y1="1632.64" x2="9642.49" y2="1632.64" gradientTransform="translate(-10600.05 28622.43) rotate(-76.98) scale(3.09)" xlink:href="#linear-gradient-18"/><linearGradient id="linear-gradient-61" x1="9619.97" y1="1622.92" x2="9638.55" y2="1611.01" gradientTransform="translate(-10600.05 28622.43) rotate(-76.98) scale(3.09)" xlink:href="#linear-gradient-35"/><linearGradient id="linear-gradient-62" x1="9630.95" y1="1606.41" x2="9642.5" y2="1606.41" gradientTransform="translate(-10600.05 28622.43) rotate(-76.98) scale(3.09)" xlink:href="#linear-gradient-35"/><linearGradient id="linear-gradient-63" x1="926.33" y1="810.32" x2="1092.92" y2="810.32" xlink:href="#linear-gradient-16"/><linearGradient id="linear-gradient-64" x1="406.62" y1="1168.02" x2="262.14" y2="904.64" xlink:href="#linear-gradient-18"/><linearGradient id="linear-gradient-65" x1="285.22" y1="906.8" x2="182.88" y2="1108.47" xlink:href="#linear-gradient"/><linearGradient id="linear-gradient-66" x1="192.67" y1="1019.76" x2="210.42" y2="1481.28" xlink:href="#linear-gradient"/><linearGradient id="linear-gradient-67" x1="341.58" y1="1427.06" x2="219.45" y2="1204.43" xlink:href="#linear-gradient-18"/><filter id="luminosity-noclip-3" x="1635.54" y="823.02" width="562.94" height="169.66" color-interpolation-filters="sRGB" filterUnits="userSpaceOnUse"><feFlood flood-color="#fff" result="bg"/><feBlend in="SourceGraphic" in2="bg"/></filter><filter id="luminosity-noclip-4" x="1635.54" y="-9206.3" width="562.94" height="32766" color-interpolation-filters="sRGB" filterUnits="userSpaceOnUse"><feFlood flood-color="#fff" result="bg"/><feBlend in="SourceGraphic" in2="bg"/></filter><mask id="mask-3" x="1635.54" y="-9206.3" width="562.94" height="32766" maskUnits="userSpaceOnUse"/><linearGradient id="linear-gradient-68" x1="1635.54" y1="907.85" x2="2198.48" y2="907.85" xlink:href="#linear-gradient-27"/><mask id="mask-2" x="1635.54" y="823.02" width="562.94" height="169.66" maskUnits="userSpaceOnUse"><g class="cls-174"><g class="cls-165"><polygon class="cls-137" points="1644.91 904.42 1635.54 910.56 1794.96 992.68 2198.48 936.98 1893.06 823.02 1644.91 904.42"/></g></g></mask><linearGradient id="linear-gradient-69" x1="1635.54" y1="907.85" x2="2198.48" y2="907.85" xlink:href="#linear-gradient-28"/><linearGradient id="linear-gradient-70" x1="1678.62" y1="865.44" x2="1794" y2="1008.11" gradientTransform="matrix(1,0,0,1,0,0)" xlink:href="#linear-gradient-35"/><linearGradient id="linear-gradient-71" x1="1877.25" y1="762.06" x2="1875.95" y2="761.57" gradientUnits="userSpaceOnUse"><stop offset="0" stop-color="#e2e2e2"/><stop offset="1" stop-color="#f5f4f3"/></linearGradient><linearGradient id="linear-gradient-72" x1="2005.69" y1="912.21" x2="1678.84" y2="787.69" gradientTransform="matrix(1,0,0,1,0,0)" xlink:href="#linear-gradient-35"/><linearGradient id="linear-gradient-73" x1="2011.43" y1="943.32" x2="1831.69" y2="874.85" gradientTransform="matrix(1,0,0,1,0,0)" xlink:href="#linear-gradient-35"/><linearGradient id="linear-gradient-74" x1="1714.48" y1="805.61" x2="1818.38" y2="934.09" xlink:href="#linear-gradient-18"/><linearGradient id="linear-gradient-75" x1="1880.78" y1="715.93" x2="1879.73" y2="715.52" xlink:href="#linear-gradient-71"/><linearGradient id="linear-gradient-76" x1="1985.7" y1="838.56" x2="1718.73" y2="736.86" xlink:href="#linear-gradient-18"/><linearGradient id="linear-gradient-77" x1="1993.81" y1="875.56" x2="1840.16" y2="817.03" xlink:href="#linear-gradient-18"/><linearGradient id="linear-gradient-78" x1="1714.48" y1="742.92" x2="1818.38" y2="871.4" gradientTransform="matrix(1,0,0,1,0,0)" xlink:href="#linear-gradient-35"/><linearGradient id="linear-gradient-79" x1="1880.78" y1="653.24" x2="1879.73" y2="652.83" xlink:href="#linear-gradient-71"/><linearGradient id="linear-gradient-80" x1="1985.7" y1="775.87" x2="1718.73" y2="674.17" gradientTransform="matrix(1,0,0,1,0,0)" xlink:href="#linear-gradient-35"/><linearGradient id="linear-gradient-81" x1="1993.81" y1="812.87" x2="1840.16" y2="754.34" gradientTransform="matrix(1,0,0,1,0,0)" xlink:href="#linear-gradient-35"/><linearGradient id="linear-gradient-82" x1="361.71" y1="275.87" x2="522.58" y2="275.87" gradientTransform="matrix(1,0,0,1,0,0)" xlink:href="#linear-gradient-2"/><linearGradient id="linear-gradient-83" x1="137.29" y1="188.68" x2="142.09" y2="296.59" xlink:href="#linear-gradient-2"/><linearGradient id="linear-gradient-84" x1="119.53" y1="254.41" x2="202.01" y2="254.41" gradientTransform="translate(740.03 199.23) rotate(78.79) scale(1 .96) skewX(-5.95)" xlink:href="#linear-gradient-2"/><linearGradient id="linear-gradient-85" x1="510.02" y1="363.65" x2="539.83" y2="363.65" gradientTransform="matrix(1,0,0,1,0,0)" xlink:href="#linear-gradient-2"/><linearGradient id="linear-gradient-86" x1="510.02" y1="373.08" x2="539.83" y2="373.08" gradientTransform="matrix(1,0,0,1,0,0)" xlink:href="#linear-gradient-2"/><linearGradient id="linear-gradient-87" x1="510.02" y1="382.51" x2="539.83" y2="382.51" gradientTransform="matrix(1,0,0,1,0,0)" xlink:href="#linear-gradient-2"/><linearGradient id="linear-gradient-88" x1="510.02" y1="391.93" x2="539.83" y2="391.93" gradientTransform="matrix(1,0,0,1,0,0)" xlink:href="#linear-gradient-2"/><filter id="luminosity-noclip-5" x="1323.19" y="948.3" width="602.82" height="193.52" color-interpolation-filters="sRGB" filterUnits="userSpaceOnUse"><feFlood flood-color="#fff" result="bg"/><feBlend in="SourceGraphic" in2="bg"/></filter><filter id="luminosity-noclip-6" x="1323.19" y="-9206.3" width="602.82" height="32766" color-interpolation-filters="sRGB" filterUnits="userSpaceOnUse"><feFlood flood-color="#fff" result="bg"/><feBlend in="SourceGraphic" in2="bg"/></filter><mask id="mask-5" x="1323.19" y="-9206.3" width="602.82" height="32766" maskUnits="userSpaceOnUse"/><linearGradient id="linear-gradient-89" x1="1323.19" y1="1045.06" x2="1926.01" y2="1045.06" xlink:href="#linear-gradient-27"/><mask id="mask-4" x="1323.19" y="948.3" width="602.82" height="193.52" maskUnits="userSpaceOnUse"><g class="cls-163"><g class="cls-166"><polygon class="cls-34" points="1341.29 973.05 1323.19 981.09 1587.41 1141.82 1793.09 1102.52 1926.01 1041.65 1697.87 948.3 1341.29 973.05"/></g></g></mask><linearGradient id="linear-gradient-90" x1="1323.19" y1="1045.06" x2="1926.01" y2="1045.06" xlink:href="#linear-gradient-28"/><linearGradient id="linear-gradient-91" x1="1341.98" y1="973.05" x2="1471.63" y2="973.05" gradientUnits="userSpaceOnUse"><stop offset="0" stop-color="#ea3f85"/><stop offset="1" stop-color="#af2f2f"/></linearGradient><linearGradient id="linear-gradient-92" x1="1445.66" y1="1041.65" x2="1844.75" y2="1041.65" xlink:href="#linear-gradient-91"/><linearGradient id="linear-gradient-93" x1="1455.39" y1="964.62" x2="1382.41" y2="942.35" gradientTransform="matrix(1,0,0,1,0,0)" xlink:href="#linear-gradient-35"/><linearGradient id="linear-gradient-94" x1="1608.93" y1="989.79" x2="1697.58" y2="1073.9" gradientTransform="matrix(1,0,0,1,0,0)" xlink:href="#linear-gradient-35"/><linearGradient id="linear-gradient-95" x1="1645.8" y1="1014.97" x2="1503.55" y2="1162.48" gradientUnits="userSpaceOnUse"><stop offset="0" stop-color="#e2e2e2"/><stop offset="1" stop-color="#fdfdfd"/></linearGradient><linearGradient id="linear-gradient-96" x1="1428.88" y1="966.93" x2="1389.08" y2="1008.2" xlink:href="#linear-gradient-95"/><linearGradient id="linear-gradient-97" x1="1359.89" y1="925.79" x2="1661.26" y2="925.79" xlink:href="#linear-gradient-95"/><linearGradient id="linear-gradient-98" x1="1445.66" y1="1002.75" x2="1851.97" y2="1002.75" xlink:href="#linear-gradient-95"/><linearGradient id="linear-gradient-99" x1="1435.81" y1="1007.09" x2="1673.44" y2="1007.09" xlink:href="#linear-gradient-18"/><linearGradient id="linear-gradient-100" x1="1435.81" y1="1059.38" x2="1458.97" y2="1059.38" xlink:href="#linear-gradient-18"/><linearGradient id="linear-gradient-101" x1="848.81" y1="160.55" x2="828.55" y2="188.92" gradientTransform="translate(1864.43 134.09) rotate(92.58)" xlink:href="#linear-gradient-35"/><linearGradient id="linear-gradient-102" x1="903.65" y1="198.62" x2="867.36" y2="249.43" gradientTransform="translate(1864.43 134.09) rotate(92.58)" xlink:href="#linear-gradient-18"/><linearGradient id="linear-gradient-103" x1="1076.74" y1="1403.18" x2="1211.77" y2="1401.52" gradientTransform="translate(-110.33 -588.42) scale(1.15)" xlink:href="#linear-gradient-2"/><linearGradient id="linear-gradient-104" x1="1198.67" y1="1370.33" x2="1107.02" y2="1425.61" gradientTransform="translate(-110.33 -588.42) scale(1.15)" xlink:href="#linear-gradient-2"/><linearGradient id="linear-gradient-105" x1="1090.86" y1="1362" x2="1211.62" y2="1362" gradientTransform="translate(-110.33 -588.42) scale(1.15)" xlink:href="#linear-gradient-2"/><linearGradient id="linear-gradient-106" x1="1183.25" y1="1293.72" x2="1121.39" y2="1331.03" gradientTransform="translate(-110.33 -588.42) scale(1.15)" xlink:href="#linear-gradient-2"/><linearGradient id="linear-gradient-107" x1="1094.42" y1="1321.87" x2="1186.07" y2="1307.62" gradientTransform="translate(-110.33 -588.42) scale(1.15)" xlink:href="#linear-gradient-2"/><linearGradient id="linear-gradient-108" x1="1103.97" y1="1329.07" x2="1180.21" y2="1317.21" gradientTransform="translate(-110.33 -588.42) scale(1.15)" xlink:href="#linear-gradient-35"/><filter id="luminosity-noclip-7" x="744.91" y="545.11" width="480.82" height="198.29" color-interpolation-filters="sRGB" filterUnits="userSpaceOnUse"><feFlood flood-color="#fff" result="bg"/><feBlend in="SourceGraphic" in2="bg"/></filter><filter id="luminosity-noclip-8" x="744.91" y="-9206.3" width="480.82" height="32766" color-interpolation-filters="sRGB" filterUnits="userSpaceOnUse"><feFlood flood-color="#fff" result="bg"/><feBlend in="SourceGraphic" in2="bg"/></filter><mask id="mask-7" x="744.91" y="-9206.3" width="480.82" height="32766" maskUnits="userSpaceOnUse"/><linearGradient id="linear-gradient-109" x1="786.03" y1="645.85" x2="1147.71" y2="641.39" xlink:href="#linear-gradient-27"/><mask id="mask-6" x="744.91" y="545.11" width="480.82" height="198.29" maskUnits="userSpaceOnUse"><g class="cls-162"><g class="cls-173"><polygon class="cls-126" points="762.71 545.11 1008.47 576.34 1069.46 629.11 1198.76 659.47 1225.73 684.16 1068.44 743.4 1034.17 712.24 1051.45 646.92 994.22 597.33 744.91 560.23 762.71 545.11"/></g></g></mask><linearGradient id="linear-gradient-110" x1="786.03" y1="645.85" x2="1147.71" y2="641.39" xlink:href="#linear-gradient-28"/></defs><g class="cls-167"><ellipse class="cls-2" cx="1419.97" cy="1292.81" rx="563.01" ry="248.84"/><ellipse class="cls-116" cx="1419.97" cy="1292.81" rx="553.22" ry="244.51"/><ellipse class="cls-28" cx="1419.97" cy="1292.81" rx="543.43" ry="240.18"/><ellipse class="cls-17" cx="1419.97" cy="1292.81" rx="533.65" ry="235.86"/><ellipse class="cls-20" cx="1419.97" cy="1292.81" rx="523.86" ry="231.53"/><ellipse class="cls-46" cx="1419.97" cy="1292.81" rx="514.07" ry="227.21"/><ellipse class="cls-113" cx="1419.97" cy="1292.81" rx="504.28" ry="222.88"/><ellipse class="cls-151" cx="1419.97" cy="1292.81" rx="494.49" ry="218.55"/><ellipse class="cls-44" cx="1419.97" cy="1292.81" rx="484.71" ry="214.23"/><ellipse class="cls-9" cx="1419.97" cy="1292.81" rx="474.92" ry="209.9"/><ellipse class="cls-128" cx="1419.97" cy="1292.81" rx="465.13" ry="205.58"/><ellipse class="cls-57" cx="1419.97" cy="1292.81" rx="455.34" ry="201.25"/><ellipse class="cls-158" cx="1419.97" cy="1292.81" rx="445.55" ry="196.92"/><ellipse class="cls-120" cx="1419.97" cy="1292.81" rx="435.77" ry="192.6"/><ellipse class="cls-60" cx="1419.97" cy="1292.81" rx="425.98" ry="188.27"/><ellipse class="cls-63" cx="1419.97" cy="1292.81" rx="416.19" ry="183.95"/><ellipse class="cls-70" cx="1419.97" cy="1292.81" rx="406.4" ry="179.62"/><ellipse class="cls-47" cx="1419.97" cy="1292.81" rx="396.62" ry="175.29"/><ellipse class="cls-152" cx="1419.97" cy="1292.81" rx="386.83" ry="170.97"/><ellipse class="cls-4" cx="1419.97" cy="1292.81" rx="377.04" ry="166.64"/><ellipse class="cls-6" cx="1419.97" cy="1292.81" rx="367.25" ry="162.32"/><ellipse class="cls-125" cx="1419.97" cy="1292.81" rx="357.46" ry="157.99"/><ellipse class="cls-55" cx="1419.97" cy="1292.81" rx="347.68" ry="153.66"/><ellipse class="cls-98" cx="1419.97" cy="1292.81" rx="337.89" ry="149.34"/><ellipse class="cls-86" cx="1419.97" cy="1292.81" rx="328.1" ry="145.01"/><ellipse class="cls-93" cx="1419.97" cy="1292.81" rx="318.31" ry="140.69"/><ellipse class="cls-8" cx="1419.97" cy="1292.81" rx="308.52" ry="136.36"/><ellipse class="cls-31" cx="1419.97" cy="1292.81" rx="298.74" ry="132.03"/><ellipse class="cls-41" cx="1419.97" cy="1292.81" rx="288.95" ry="127.71"/><ellipse class="cls-61" cx="1419.97" cy="1292.81" rx="279.16" ry="123.38"/></g><g class="cls-167"><ellipse class="cls-2" cx="345.72" cy="1817.3" rx="345.72" ry="152.8"/><ellipse class="cls-116" cx="345.72" cy="1817.3" rx="339.71" ry="150.14"/><ellipse class="cls-28" cx="345.72" cy="1817.3" rx="333.7" ry="147.49"/><ellipse class="cls-17" cx="345.72" cy="1817.3" rx="327.69" ry="144.83"/><ellipse class="cls-20" cx="345.72" cy="1817.3" rx="321.68" ry="142.18"/><ellipse class="cls-46" cx="345.72" cy="1817.3" rx="315.67" ry="139.52"/><ellipse class="cls-113" cx="345.72" cy="1817.3" rx="309.66" ry="136.86"/><ellipse class="cls-151" cx="345.72" cy="1817.3" rx="303.65" ry="134.21"/><ellipse class="cls-44" cx="345.72" cy="1817.3" rx="297.64" ry="131.55"/><ellipse class="cls-9" cx="345.72" cy="1817.3" rx="291.63" ry="128.89"/><ellipse class="cls-128" cx="345.72" cy="1817.3" rx="285.62" ry="126.24"/><ellipse class="cls-57" cx="345.72" cy="1817.3" rx="279.61" ry="123.58"/><ellipse class="cls-158" cx="345.72" cy="1817.3" rx="273.6" ry="120.92"/><ellipse class="cls-120" cx="345.72" cy="1817.3" rx="267.59" ry="118.27"/><ellipse class="cls-60" cx="345.72" cy="1817.3" rx="261.58" ry="115.61"/><ellipse class="cls-63" cx="345.72" cy="1817.3" rx="255.57" ry="112.95"/><ellipse class="cls-70" cx="345.72" cy="1817.3" rx="249.56" ry="110.3"/><ellipse class="cls-47" cx="345.72" cy="1817.3" rx="243.55" ry="107.64"/><ellipse class="cls-152" cx="345.72" cy="1817.3" rx="237.54" ry="104.99"/><ellipse class="cls-4" cx="345.72" cy="1817.3" rx="231.53" ry="102.33"/><ellipse class="cls-6" cx="345.72" cy="1817.3" rx="225.51" ry="99.67"/><ellipse class="cls-125" cx="345.72" cy="1817.3" rx="219.5" ry="97.02"/><ellipse class="cls-55" cx="345.72" cy="1817.3" rx="213.49" ry="94.36"/><ellipse class="cls-98" cx="345.72" cy="1817.3" rx="207.48" ry="91.7"/><ellipse class="cls-86" cx="345.72" cy="1817.3" rx="201.47" ry="89.05"/><ellipse class="cls-93" cx="345.72" cy="1817.3" rx="195.46" ry="86.39"/><ellipse class="cls-8" cx="345.72" cy="1817.3" rx="189.45" ry="83.73"/><ellipse class="cls-31" cx="345.72" cy="1817.3" rx="183.44" ry="81.08"/><ellipse class="cls-41" cx="345.72" cy="1817.3" rx="177.43" ry="78.42"/><ellipse class="cls-61" cx="345.72" cy="1817.3" rx="171.42" ry="75.76"/></g><g class="cls-167"><ellipse class="cls-2" cx="949.48" cy="1640.76" rx="471.32" ry="208.31"/><ellipse class="cls-116" cx="949.48" cy="1640.76" rx="463.13" ry="204.69"/><ellipse class="cls-28" cx="949.48" cy="1640.76" rx="454.93" ry="201.07"/><ellipse class="cls-17" cx="949.48" cy="1640.76" rx="446.74" ry="197.45"/><ellipse class="cls-20" cx="949.48" cy="1640.76" rx="438.54" ry="193.83"/><ellipse class="cls-46" cx="949.48" cy="1640.76" rx="430.35" ry="190.2"/><ellipse class="cls-113" cx="949.48" cy="1640.76" rx="422.16" ry="186.58"/><ellipse class="cls-151" cx="949.48" cy="1640.76" rx="413.96" ry="182.96"/><ellipse class="cls-44" cx="949.48" cy="1640.76" rx="405.77" ry="179.34"/><ellipse class="cls-9" cx="949.48" cy="1640.76" rx="397.58" ry="175.72"/><ellipse class="cls-128" cx="949.48" cy="1640.76" rx="389.38" ry="172.1"/><ellipse class="cls-57" cx="949.48" cy="1640.76" rx="381.19" ry="168.48"/><ellipse class="cls-158" cx="949.48" cy="1640.76" rx="372.99" ry="164.85"/><ellipse class="cls-120" cx="949.48" cy="1640.76" rx="364.8" ry="161.23"/><ellipse class="cls-60" cx="949.48" cy="1640.76" rx="356.61" ry="157.61"/><ellipse class="cls-63" cx="949.48" cy="1640.76" rx="348.41" ry="153.99"/><ellipse class="cls-70" cx="949.48" cy="1640.76" rx="340.22" ry="150.37"/><ellipse class="cls-47" cx="949.48" cy="1640.76" rx="332.02" ry="146.75"/><ellipse class="cls-152" cx="949.48" cy="1640.76" rx="323.83" ry="143.13"/><ellipse class="cls-4" cx="949.48" cy="1640.76" rx="315.64" ry="139.5"/><ellipse class="cls-6" cx="949.48" cy="1640.76" rx="307.44" ry="135.88"/><ellipse class="cls-125" cx="949.48" cy="1640.76" rx="299.25" ry="132.26"/><ellipse class="cls-55" cx="949.48" cy="1640.76" rx="291.06" ry="128.64"/><ellipse class="cls-98" cx="949.48" cy="1640.76" rx="282.86" ry="125.02"/><ellipse class="cls-86" cx="949.48" cy="1640.76" rx="274.67" ry="121.4"/><ellipse class="cls-93" cx="949.48" cy="1640.76" rx="266.47" ry="117.77"/><ellipse class="cls-8" cx="949.48" cy="1640.76" rx="258.28" ry="114.15"/><ellipse class="cls-31" cx="949.48" cy="1640.76" rx="250.09" ry="110.53"/><ellipse class="cls-41" cx="949.48" cy="1640.76" rx="241.89" ry="106.91"/><ellipse class="cls-61" cx="949.48" cy="1640.76" rx="233.7" ry="103.29"/></g><polygon class="cls-15" points="274.58 728.02 274.58 1297.08 259.38 1297.08 246.77 714.89 274.58 728.02"/><path class="cls-85" d="m369.89,301.79c-3.39,31.35-7.34,59.55-28.49,62.62-1.39.2-17.88-2.11-19.28-2.11-22.78,0-38.31-27.09-34.7-60.5,3.61-33.42,25-60.5,47.78-60.5,9.86,0,31.52-.13,37.7,8.34,8.09,11.09-.95,33.22-3,52.16Z"/><path class="cls-96" d="m392.23,304.1c-3.61,33.42-25,60.5-47.78,60.5s-38.31-27.09-34.7-60.5c3.61-33.42,25-60.5,47.78-60.5s38.31,27.09,34.7,60.5Z"/><ellipse class="cls-161" cx="350.99" cy="304.1" rx="34.51" ry="23.03" transform="translate(-15.57 589.24) rotate(-78.79)"/><path class="cls-149" d="m389.58,202.56s-8.71-11.83-27.86-4.31c-19.15,7.51-15.76,43.91-15.76,43.91l43.62-39.6Z"/><path class="cls-48" d="m95.38,1797.24v24.83s8.85,31.02,39.7,25.29c30.85-5.73,36.12-20.02,36.12-20.02l135.45,4.46,5.27,16.27-237.15,127.47v28.63s23.44,18.06,36.99,10.53c13.54-7.52,11.29,6.07,32.36-5.99,21.07-12.07,25.58-25.61,25.58-25.61l191.14-112.12,201.67,118.14s7.52,29.35,30.1,36.12,36.12,0,36.12,0c0,0,38.36-15.05,33.82-27.09-4.53-12.04-224.56-160.28-224.56-160.28l2.61-15.8,179.09-24.83s10.53,18.63,28.6,10.07c18.06-8.56,16.98-31.7,16.98-31.7l-247.25,11.62-322.64,10.01Z"/><path class="cls-25" d="m428.97,1831.8l229.04,154.31c6.79,4.57,5.76,14.86-1.79,18.01l-6.55,2.73c-7.47,3.11-16,2.3-22.74-2.16l-250.26-165.48,52.31-7.41Z"/><path class="cls-94" d="m430.95,1778.32l205.25-19.8c7.73-.75,15.45,1.54,21.54,6.37l5.34,4.24c4.01,3.18,2.21,9.62-2.87,10.26l-225.7,28.39-3.56-29.46Z"/><path class="cls-114" d="m287.24,1827.34l-207.41,139.57c-7.61,5.12-6.68,16.59,1.65,20.42l9.43,4.33c8.31,3.82,17.98,3.17,25.71-1.71l225.78-142.59-55.16-20.02Z"/><path class="cls-100" d="m291.76,1807.31l-189.06-4.47c-7.16-.17-10.02-9.34-4.22-13.55l12.04-8.73c4.6-3.33,10.16-5.07,15.84-4.94l220.55,4.94-55.16,26.75Z"/><path class="cls-141" d="m424.99,1783.91c-14.54-5.85-35.15-9.53-58.08-9.53s-43.54,3.68-58.08,9.53h-21.59v33.38c0,16.61,35.67,30.07,79.67,30.07s79.67-13.46,79.67-30.07v-33.38h-21.59Z"/><ellipse class="cls-36" cx="366.91" cy="1787.23" rx="79.67" ry="30.07"/><path class="cls-5" d="m396.31,1424.86c-7.36-2.96-17.79-4.82-29.39-4.82s-22.04,1.86-29.39,4.82h-10.93v353.86c0,8.4,18.05,15.22,40.32,15.22s40.32-6.81,40.32-15.22v-353.86s-10.93,0-10.93,0Z"/><ellipse class="cls-65" cx="366.91" cy="1426.54" rx="40.32" ry="15.22"/><path class="cls-84" d="m424.99,1507.96c-14.54-5.85-35.15-9.53-58.08-9.53s-43.54,3.68-58.08,9.53h-21.59v79.72c0,16.61,35.67,30.07,79.67,30.07s79.67-13.46,79.67-30.07v-79.72h-21.59Z"/><ellipse class="cls-35" cx="366.91" cy="1511.28" rx="79.67" ry="30.07"/><path class="cls-71" d="m755.75,1477.53s4.18,15.17,23.54,19.35c19.35,4.18,34.52,18.83-3.14,32.43-37.66,13.6-71.13,26.15-84.21,25.11-13.08-1.05-31.38-9.41-32.43-23.01-1.05-13.6,15.69-60.15,15.69-60.15l80.55,6.28Z"/><path class="cls-7" d="m808.64,1167.81l-38.39,303.2s-7.87,21.36-40.47,30.36c-32.6,8.99-58.46-22.49-58.46-22.49l-7.87-256.34,145.2-54.73Z"/><path class="cls-30" d="m657.42,1526.7c-7.32,0-7.85,58.06-6.8,61.2,1.05,3.14,47.07,31.98,61.72,26.45,14.64-5.53,186.2-96.9,178.88-111.36-7.32-14.46-42.37-39.57-58.58-36.43-16.21,3.14-68.1,24.84-68.1,24.84,0,0,20.85,13.86,6.29,22.23-14.55,8.37-55.87,32.95-66.86,31.91-10.98-1.05-46.55-18.83-46.55-18.83Z"/><path class="cls-121" d="m823.97,1411.07v-52.64l-87.93-58.84h-106.59l-169.27-81.35c-48.87-23.49-105.77-23.53-154.67-.1l-170.05,81.45H49.35v97.83s12.45,13.66,12.45,13.66c5.07,6.19,11.66,11.47,19.82,15.24l338.9,156.75c32.3,14.94,69.53,14.9,101.8-.11l279.95-130.25c17.22-8.01,24.43-25.56,21.71-41.63Z"/><path class="cls-13" d="m305.5,1152.18l-224.57,107.56c-42.43,20.32-42.02,80.87.68,100.62l338.9,156.75c32.3,14.94,69.53,14.9,101.8-.11l279.95-130.25c29.58-13.76,29.84-55.73.44-69.86l-342.52-164.6c-48.87-23.49-105.77-23.52-154.67-.1Z"/><path class="cls-83" d="m1013.44,1591.12s4.58,16.66,19.29,21.78c12.35,4.3,23.63-5.92,23.63-5.92,0,0,22.8,39.71,16.77,59.38-6.04,19.67-139.55,50.07-146.8,27.58-7.25-22.49,0-87,0-87l87.11-15.82Z"/><path class="cls-24" d="m1036.58,1594.1s-7.95,15.98-51.92,39.91c-15.08,8.22-27.72,8.67-37.93,5.69-19.59-5.51-29.89-23.66-29.89-23.66,0,0-37.65-374.74-52.64-393.8-15.08-18.96-285.44,103.84-372.49,143.76-87.05,39.91-206.34-39.91-236.31-61.85-9.93-7.31-14.36-29.89-15.71-56.89-2.89-54.27,6.14-126.15,6.14-126.15l268.46-94.45s233.88-111.52,268.64-95.09c34.68,16.52,23.3,79.19,31.88,73.14,8.58-5.96,190.26-31.87,224.21,10.02,33.86,41.9-2.44,579.36-2.44,579.36Z"/><path class="cls-30" d="m919.08,1671.45s38.69,30.28,60.56,19.62c21.87-10.65,81.3-40.93,76.82-51.58-4.49-10.65-20.75-22.08-10.09-27.86,10.65-5.78,74.04-16.97,83.56-18.05,21.48-2.45,62.47,23.4,57.99,41.34-4.49,17.94-12.59,23.07-26.04,31.48-13.46,8.41-170.45,80.74-186.71,82.42-16.26,1.68-58.31-5.61-62.24-25.79-3.92-20.19,6.17-51.58,6.17-51.58Z"/><polygon class="cls-72" points="2159.37 918.88 972.65 355.49 246.77 687.85 1433.49 1251.24 2159.37 918.88"/><path class="cls-91" d="m306.53,1189.19s139.43,89.36,234.94,26.03c372.22-246.8,508.66-64.18,508.66-64.18l-1.55-44.77-340.74-160.83-115.28,49.42-286.03,194.31Z"/><polygon class="cls-67" points="2159.37 918.88 1433.49 1251.24 1433.49 1287.95 2159.37 954.19 2159.37 918.88"/><polygon class="cls-117" points="246.77 687.85 1433.49 1251.24 1433.49 1287.95 246.77 727.83 246.77 687.85"/><polygon class="cls-68" points="1433.49 1287.95 1433.49 1857.01 1418.29 1857.01 1405.68 1274.83 1433.49 1287.95"/><polygon class="cls-118" points="2159.37 954.19 2159.37 1520.62 2146.48 1520.62 2134.61 954.19 2159.37 954.19"/><g class="cls-172"><polygon class="cls-11" points="865.82 592.07 846.58 600.17 1359.17 852.56 1680.37 902.37 1908.11 834.99 1390.95 534.18 865.82 592.07"/></g><path class="cls-133" d="m1666.75,706.42l-535.33-263.34-257.17,118.77c-15.73,7.26-16,29.53-.46,37.17l478.12,235.2c11.67,5.74,25.31,5.91,37.12.46l277.72-128.25Z"/><path class="cls-127" d="m1131.42,443.08l535.33,263.34,47.84-423.23c5.97-12.03.85-26.62-11.34-32.27L1207.24,20.95c-12.9-5.98-28.23-.6-34.55,12.14l-41.26,409.99Z"/><path class="cls-49" d="m1666.75,687.91l-535.33-263.34-257.17,118.77c-15.73,7.26-16,29.53-.46,37.17l478.12,235.2c11.67,5.74,25.31,5.91,37.12.46l277.72-128.25Z"/><polygon class="cls-159" points="1188.37 474.16 1169.45 465.36 1152.18 473.16 1171.11 481.96 1188.37 474.16"/><polygon class="cls-159" points="1198.46 495.72 1215.72 487.92 1196.79 479.13 1179.53 486.93 1198.46 495.72"/><polygon class="cls-159" points="1225.81 509.49 1243.07 501.69 1224.14 492.89 1206.88 500.69 1225.81 509.49"/><polygon class="cls-159" points="1253.15 523.25 1270.42 515.45 1251.49 506.65 1234.22 514.46 1253.15 523.25"/><polygon class="cls-159" points="1280.5 537.01 1297.76 529.21 1278.83 520.42 1261.57 528.22 1280.5 537.01"/><polygon class="cls-159" points="1307.85 550.78 1325.11 542.97 1306.18 534.18 1288.92 541.98 1307.85 550.78"/><polygon class="cls-159" points="1335.19 564.54 1352.46 556.74 1333.53 547.95 1316.27 555.75 1335.19 564.54"/><polygon class="cls-159" points="1362.54 578.3 1379.8 570.5 1360.88 561.71 1343.61 569.51 1362.54 578.3"/><polygon class="cls-159" points="1389.89 592.07 1407.15 584.27 1388.22 575.47 1370.96 583.28 1389.89 592.07"/><polygon class="cls-159" points="1417.24 605.83 1434.5 598.03 1415.57 589.23 1398.31 597.04 1417.24 605.83"/><polygon class="cls-159" points="1444.58 619.6 1461.85 611.79 1442.92 603 1425.66 610.8 1444.58 619.6"/><polygon class="cls-159" points="1471.93 633.36 1489.19 625.56 1470.27 616.76 1453 624.56 1471.93 633.36"/><polygon class="cls-159" points="1499.28 647.12 1516.54 639.32 1497.61 630.53 1480.35 638.33 1499.28 647.12"/><polygon class="cls-159" points="1524.96 644.29 1507.7 652.09 1526.62 660.89 1543.89 653.08 1524.96 644.29"/><polygon class="cls-159" points="1161.4 486.51 1142.47 477.71 1125.21 485.51 1144.14 494.3 1161.4 486.51"/><polygon class="cls-159" points="1152.56 499.28 1171.49 508.07 1188.75 500.27 1169.82 491.47 1152.56 499.28"/><polygon class="cls-159" points="1179.9 513.04 1198.83 521.83 1216.1 514.03 1197.17 505.24 1179.9 513.04"/><polygon class="cls-159" points="1207.25 526.8 1226.19 535.6 1243.45 527.79 1224.51 519 1207.25 526.8"/><polygon class="cls-159" points="1234.6 540.57 1253.53 549.36 1270.8 541.56 1251.87 532.77 1234.6 540.57"/><polygon class="cls-159" points="1261.95 554.33 1280.88 563.12 1298.14 555.32 1279.22 546.53 1261.95 554.33"/><polygon class="cls-159" points="1289.3 568.09 1308.23 576.89 1325.49 569.09 1306.56 560.29 1289.3 568.09"/><polygon class="cls-159" points="1316.64 581.86 1335.57 590.65 1352.84 582.85 1333.91 574.05 1316.64 581.86"/><polygon class="cls-159" points="1343.99 595.62 1362.92 604.42 1380.18 596.62 1361.26 587.82 1343.99 595.62"/><polygon class="cls-159" points="1371.34 609.38 1390.27 618.18 1407.53 610.38 1388.6 601.58 1371.34 609.38"/><polygon class="cls-159" points="1398.69 623.15 1417.62 631.94 1434.88 624.14 1415.95 615.35 1398.69 623.15"/><polygon class="cls-159" points="1462.23 637.9 1443.3 629.11 1426.04 636.91 1444.96 645.71 1462.23 637.9"/><polygon class="cls-159" points="1489.57 651.67 1470.65 642.87 1453.38 650.67 1472.31 659.47 1489.57 651.67"/><polygon class="cls-159" points="1480.73 664.44 1499.66 673.23 1516.92 665.43 1497.99 656.64 1480.73 664.44"/><polygon class="cls-159" points="1125.59 511.62 1144.52 520.42 1161.78 512.62 1152.88 508.48 1153.46 508.22 1115.51 490.06 1098.24 497.86 1126.31 511.3 1125.59 511.62"/><polygon class="cls-159" points="1171.87 534.18 1189.13 526.38 1170.2 517.59 1152.94 525.39 1171.87 534.18"/><polygon class="cls-159" points="1180.29 539.15 1199.21 547.95 1216.48 540.14 1197.55 531.35 1180.29 539.15"/><polygon class="cls-159" points="1207.63 552.91 1226.56 561.71 1243.82 553.91 1224.9 545.11 1207.63 552.91"/><polygon class="cls-159" points="1234.98 566.68 1253.91 575.47 1271.17 567.67 1252.24 558.87 1234.98 566.68"/><polygon class="cls-159" points="1262.33 580.44 1281.25 589.23 1298.52 581.44 1279.59 572.64 1262.33 580.44"/><polygon class="cls-159" points="1289.67 594.2 1308.6 603 1325.86 595.2 1306.94 586.4 1289.67 594.2"/><polygon class="cls-159" points="1317.02 607.97 1335.95 616.76 1353.21 608.96 1334.28 600.17 1317.02 607.97"/><polygon class="cls-159" points="1380.57 622.72 1361.63 613.93 1344.37 621.73 1363.3 630.53 1380.57 622.72"/><polygon class="cls-159" points="1388.98 627.69 1371.72 635.49 1399.8 648.92 1399.06 649.26 1417.99 658.05 1435.26 650.25 1434.96 650.11 1435.42 649.9 1388.98 627.69"/><polygon class="cls-159" points="1462.61 664.01 1443.68 655.22 1426.41 663.02 1445.34 671.82 1462.61 664.01"/><polygon class="cls-159" points="1453.76 676.79 1472.69 685.58 1489.95 677.78 1471.03 668.98 1453.76 676.79"/><polygon class="cls-159" points="1107.47 511.2 1088.54 502.41 1071.27 510.2 1090.2 519 1107.47 511.2"/><polygon class="cls-159" points="1098.62 523.97 1117.55 532.77 1134.81 524.96 1115.89 516.17 1098.62 523.97"/><polygon class="cls-159" points="1125.97 537.73 1144.9 546.53 1162.16 538.73 1143.23 529.93 1125.97 537.73"/><polygon class="cls-159" points="1153.32 551.5 1172.25 560.29 1189.51 552.49 1170.58 543.7 1153.32 551.5"/><polygon class="cls-159" points="1216.86 566.25 1197.93 557.46 1180.67 565.26 1199.59 574.05 1216.86 566.25"/><polygon class="cls-159" points="1244.2 580.02 1225.28 571.22 1208.01 579.02 1226.94 587.82 1244.2 580.02"/><polygon class="cls-159" points="1271.55 593.78 1252.62 584.98 1235.36 592.79 1254.29 601.58 1271.55 593.78"/><polygon class="cls-159" points="1298.9 607.54 1279.97 598.75 1262.71 606.55 1281.64 615.35 1298.9 607.54"/><polygon class="cls-159" points="1326.25 621.31 1307.32 612.51 1290.05 620.31 1308.98 629.11 1326.25 621.31"/><polygon class="cls-159" points="1353.59 635.07 1334.66 626.28 1317.4 634.08 1336.33 642.87 1353.59 635.07"/><polygon class="cls-159" points="1380.94 648.83 1362.01 640.04 1344.75 647.84 1363.68 656.64 1380.94 648.83"/><polygon class="cls-159" points="1408.29 662.6 1389.36 653.8 1372.1 661.61 1391.02 670.4 1408.29 662.6"/><polygon class="cls-159" points="1435.63 676.36 1416.71 667.57 1399.44 675.37 1418.37 684.16 1435.63 676.36"/><polygon class="cls-159" points="1426.79 689.13 1445.72 697.93 1462.98 690.13 1444.05 681.33 1426.79 689.13"/><polygon class="cls-159" points="1080.49 523.55 1061.57 514.75 1044.3 522.55 1063.23 531.35 1080.49 523.55"/><polygon class="cls-159" points="1071.65 536.32 1090.58 545.11 1107.84 537.31 1088.91 528.52 1071.65 536.32"/><polygon class="cls-159" points="1135.19 551.07 1116.26 542.28 1099 550.08 1117.93 558.87 1135.19 551.07"/><polygon class="cls-159" points="1162.54 564.84 1143.61 556.04 1126.35 563.84 1145.27 572.64 1162.54 564.84"/><polygon class="cls-159" points="1189.89 578.6 1170.96 569.8 1153.69 577.61 1172.62 586.4 1189.89 578.6"/><polygon class="cls-159" points="1217.24 592.36 1198.31 583.57 1181.04 591.37 1199.97 600.17 1217.24 592.36"/><polygon class="cls-159" points="1244.58 606.13 1225.66 597.33 1208.39 605.13 1227.32 613.93 1244.58 606.13"/><polygon class="cls-159" points="1271.93 619.89 1253 611.1 1235.74 618.9 1254.66 627.69 1271.93 619.89"/><polygon class="cls-159" points="1299.28 633.65 1280.35 624.86 1263.08 632.66 1282.02 641.46 1299.28 633.65"/><polygon class="cls-159" points="1326.63 647.42 1307.7 638.62 1290.43 646.43 1309.36 655.22 1326.63 647.42"/><polygon class="cls-159" points="1353.97 661.18 1335.04 652.39 1317.78 660.19 1336.71 668.98 1353.97 661.18"/><polygon class="cls-159" points="1381.32 674.95 1362.39 666.15 1345.13 673.95 1364.06 682.75 1381.32 674.95"/><polygon class="cls-159" points="1408.67 688.71 1389.74 679.91 1372.48 687.72 1391.4 696.51 1408.67 688.71"/><polygon class="cls-159" points="1399.82 701.48 1418.75 710.28 1436.01 702.47 1417.09 693.68 1399.82 701.48"/><polygon class="cls-159" points="1034.6 527.1 1017.34 534.9 1036.26 543.7 1053.53 535.89 1034.6 527.1"/><polygon class="cls-159" points="1061.95 540.86 1044.68 548.66 1063.61 557.46 1080.87 549.66 1061.95 540.86"/><polygon class="cls-159" points="1215.02 617.27 1190.03 604.82 1190.26 604.71 1183.59 601.61 1162.54 591.12 1162.92 590.95 1152.16 585.95 1135.05 577.42 1135.57 577.19 1120.73 570.29 1089.29 554.62 1072.03 562.43 1099.52 576.13 1099.38 576.19 1103.44 578.08 1127.01 589.82 1126.73 589.95 1134.89 593.75 1154.5 603.52 1154.07 603.72 1166.32 609.41 1182 617.22 1181.42 617.48 1197.74 625.07 1200.14 626.26 1200.22 626.22 1200.35 626.28 1217.61 618.47 1215.02 617.27"/><polygon class="cls-159" points="1226.03 623.44 1208.77 631.25 1227.7 640.04 1244.96 632.24 1226.03 623.44"/><polygon class="cls-159" points="1253.38 637.21 1236.11 645.01 1255.04 653.8 1272.31 646 1253.38 637.21"/><polygon class="cls-159" points="1280.72 650.97 1263.46 658.77 1282.39 667.57 1299.65 659.77 1280.72 650.97"/><polygon class="cls-159" points="1308.07 664.73 1290.81 672.54 1309.74 681.33 1327 673.53 1308.07 664.73"/><polygon class="cls-159" points="1335.42 678.5 1318.16 686.3 1337.08 695.09 1354.35 687.29 1335.42 678.5"/><polygon class="cls-159" points="1362.77 692.26 1345.5 700.06 1364.43 708.86 1381.7 701.06 1362.77 692.26"/><polygon class="cls-159" points="1372.85 713.83 1391.78 722.62 1409.04 714.82 1390.12 706.03 1372.85 713.83"/><path class="cls-80" d="m1131.42,424.57l535.33,263.34,47.84-423.23c5.97-12.03.85-26.62-11.34-32.27L1207.24,2.44c-12.9-5.98-28.23-.6-34.55,12.14l-41.26,409.99Z"/><polygon class="cls-90" points="1691 254.84 1644.07 648.34 1157.52 409 1195.56 25.96 1691 254.84"/><path class="cls-14" d="m1450.85,429.59l-237.72-109.06c-14.17-6.5-24.36-23.8-22.75-38.63l18.91-174.91c.75-6.92,6.71-10.07,13.32-7.04l265.11,121.62c6.61,3.03,11.36,11.1,10.61,18.01l-18.91,174.91c-1.6,14.84-14.39,21.59-28.56,15.09Z"/><path class="cls-56" d="m1660.99,264.93l-2.22,20.5-460.63-211.33,2.22-20.5c.7-6.44,6.26-9.43,12.42-6.6l438.29,201.08c6.16,2.82,10.62,10.41,9.92,16.85Z"/><path class="cls-3" d="m1484.56,197.03l-214.94-98.61c-4.72-2.17-8.15-7.99-7.62-12.93h0c.53-4.95,4.84-7.22,9.56-5.05l214.94,98.61c4.72,2.17,8.15,7.99,7.62,12.93h0c-.53,4.95-4.84,7.22-9.56,5.05Z"/><path class="cls-3" d="m1517.2,202.56c-.52,4.81-4.67,7.01-9.27,4.9-4.6-2.11-7.9-7.72-7.38-12.54.52-4.81,4.67-7.01,9.27-4.9,4.6,2.11,7.9,7.72,7.38,12.54Z"/><path class="cls-161" d="m1211,369.13c-.69,6.35-5.98,9.32-11.82,6.64-5.84-2.68-10.02-10-9.34-16.35.69-6.35,5.98-9.32,11.82-6.64,5.84,2.68,10.02,10,9.34,16.35Z"/><path class="cls-50" d="m1373.73,437.28l-141.62-64.97c-1.39-.64-2.4-2.35-2.24-3.81h0c.16-1.46,1.43-2.13,2.82-1.49l141.62,64.97c1.39.64,2.4,2.35,2.24,3.81h0c-.16,1.46-1.43,2.13-2.82,1.49Z"/><path class="cls-50" d="m1458.27,491.43l-227.74-104.48c-1.39-.64-2.4-2.35-2.24-3.81h0c.16-1.46,1.43-2.13,2.82-1.49l227.74,104.48c1.39.64,2.4,2.35,2.24,3.81h0c-.16,1.46-1.43,2.13-2.82,1.49Z"/><path class="cls-50" d="m1456.68,506.08l-227.74-104.48c-1.39-.64-2.4-2.35-2.24-3.81h0c.16-1.46,1.43-2.13,2.82-1.49l227.74,104.48c1.39.64,2.4,2.35,2.24,3.81h0c-.16,1.46-1.43,2.13-2.82,1.49Z"/><path class="cls-50" d="m1403.6,497.1l-176.25-80.86c-1.39-.64-2.4-2.35-2.24-3.81h0c.16-1.46,1.43-2.13,2.82-1.49l176.25,80.86c1.39.64,2.4,2.35,2.24,3.81h0c-.16,1.46-1.43,2.13-2.82,1.49Z"/><path class="cls-78" d="m1626.58,402.6l-119.06-54.62c-3.79-1.74-6.51-6.36-6.08-10.32l7.87-72.76c.43-3.96,3.85-5.77,7.63-4.03l119.06,54.62c3.79,1.74,6.51,6.36,6.08,10.32l-7.87,72.76c-.43,3.96-3.84,5.77-7.63,4.03Z"/><path class="cls-150" d="m1616.9,499.69l-120.61-55.33c-3.36-1.54-5.77-5.64-5.39-9.15l8.04-74.39c.38-3.51,3.41-5.12,6.77-3.58l120.61,55.33c3.36,1.54,5.77,5.64,5.39,9.15l-8.04,74.39c-.38,3.52-3.41,5.12-6.77,3.58Z"/><path class="cls-150" d="m1607.79,597.04l-123.33-56.58c-2.61-1.2-4.48-4.38-4.19-7.11l8.35-77.22c.3-2.73,2.65-3.98,5.26-2.78l123.33,56.58c2.61,1.2,4.48,4.38,4.19,7.11l-8.35,77.22c-.3,2.73-2.65,3.98-5.26,2.78Z"/><path class="cls-76" d="m1424.75,294.74s-21.14,21.22-31.37,29.02c-1.97,1.52-3.53,2.53-4.43,2.82-5.67,1.55-26.65-32.41-26.65-32.41,0,0,.02.21-.02.57-.14,1.66-12.25,55.18-12.25,55.18l-66.21-30.38.72-6.66s-18.21-1.9-22.29-5.58c-4.11-3.74,6.55-67.42,9.51-74.15,2.96-6.7,34.5,3.33,34.5,3.33,0,0,58.34,27.3,61.27,29.92,2.93,2.66,18.22,29.74,19.56,31.13,1.34,1.4,24.91-20.88,24.91-20.88,0,0,3.64,2.99,7.67,7.43,4,4.43,5.05,10.66,5.05,10.66Z"/><path class="cls-110" d="m1311.86,228.47l-1.17,10.81s-1.39,6.1,9.39,11.51c10.77,5.41,15.81-.03,15.81-.03l1.53-14.19-25.56-8.11Z"/><path class="cls-153" d="m1414.64,278.96s2.71-3.48,2.92-6.36c.22-2.89,3.77-4.14,6.46-6.09,2.68-1.95,4.06-2.51,4.06-2.51,0,0,2.93,2.04.63,3.97-2.3,1.93-3.76,4.64-1.55,4.56,2.21-.08,17.04-2.83,19.5-.01,2.45,2.82,6.09,9.56-1.23,11.38-7.32,1.81-10.56,5.4-12.07,6.2-1.51.8-8.9,3.3-8.9,3.3,0,0-5.21-10.78-9.81-14.43Z"/><path class="cls-1" d="m1320.58,294.8s-1.38,4.67,1.17,9c2.55,4.33,5.16,5.43,5.16,5.43,0,0,12.15-5.09,17.01-8.62,4.85-3.53,5.62-6.91,2.5-9.57-3.12-2.66-12.19,4.61-14.67,3.26-2.48-1.34.18-2.57,1.06-4.41.88-1.84-.23-3.27-.23-3.27,0,0-1.33.61-4.32,3.02-2.99,2.4-7.67,5.15-7.67,5.15Z"/><path class="cls-146" d="m1317.78,295.93s-30.47-7.24-34.53-6.74c-4.06.5-11.02,7.95-11.02,7.95,0,0,7.98-12.01,8.18-13.88.2-1.87,4.99-33.81,4.99-33.81,0,0-2.75,32.88.05,34.16,2.8,1.28,33.79,11.3,33.79,11.3"/><path class="cls-146" d="m1393.38,323.76c-1.97,1.52-3.53,2.53-4.43,2.82-5.67,1.55-26.65-32.41-26.65-32.41,0,0,.02.21-.02.57-.41-1.3-.59-2.16-.41-2.45l1.05-9.71s17.5,33.89,26.2,39.11c1.33.81,2.75,1.47,4.25,2.08Z"/><path class="cls-146" d="m1284.54,312.88l42.37-3.65s-31.09,5.47-35.14,5.6c-4.05.13-4.44,6.32-4.44,6.32l-3.51-1.61.72-6.66Z"/><path class="cls-95" d="m1350.82,218.44c-1.95-1.09-5.17,2.55-5.17,2.55l1.05-18.42-18.37-4.09-17.47-12.35-2.84,17.6s-2.16-6.11-4.15-6.83c-1.99-.72-3.87,11.42-1.56,14.45,2.31,3.03,4.46,4.01,4.46,4.01,0,0-1.05,9.76,2.56,16.34,1.85,3.36,7.83,12.51,14.28,15.42,6.18,2.79,12.84-.57,15.11-1.94,4.63-2.8,5.68-12.56,5.68-12.56,0,0,2.15.99,4.86.26,2.71-.73,3.51-13.35,1.56-14.45Z"/><path class="cls-30" d="m1311.9,191.07s1.87,10.57,13.86,16.73c12,6.16,18.53,2.59,18.91,4.87.38,2.28-2.12,11.5-1.35,12.51.77,1.01,1.95-2.34,2.94-4.8.98-2.46,5.18-1.83,5.38-.24.2,1.59.26,3.2.26,3.2,0,0,6.04-13.9-.05-27.2-6.09-13.29-26.66-22.47-35.36-22-8.7.47-9.18,6.03-9.18,6.03,0,0-4.93,1.54-5.49,7.85-.56,6.31.03,11.17.03,11.17,0,0,2.41-3.12,3.8-.48,1.4,2.64.74,9.6.74,9.6,0,0,3.07,1.48,2.58-2.96-.5-4.44,2.92-14.28,2.92-14.28Z"/><polygon class="cls-3" points="1563.96 313.26 1560.92 341.43 1584.13 334.98 1563.96 313.26"/><path class="cls-62" d="m1480.44,410.43l-2.81,25.99c-.44,4.05-3.96,5.91-7.83,4.14l-275.57-126.43c-3.87-1.78-6.64-6.52-6.2-10.57l2.81-25.99,289.6,132.86Z"/><polygon class="cls-59" points="1207.57 294.7 1206.02 308.97 1217.47 306.74 1207.57 294.7"/><polygon class="cls-29" points="1239.69 322.93 1236.5 321.47 1237.82 309.26 1241.01 310.72 1239.69 322.93"/><polygon class="cls-69" points="1246.56 326.08 1243.37 324.62 1244.69 312.41 1247.88 313.87 1246.56 326.08"/><path class="cls-129" d="m664.18,254.77l221.61-53.08c6.44-1.54,12.98,2.19,14.92,8.53h0c2.04,6.66-1.74,13.71-8.42,15.7l-216.38,64.42c-9.1,2.71-18.84-1.35-23.33-9.72h0c-5.54-10.33.2-23.11,11.59-25.84Z"/><path class="cls-89" d="m814.24,542.9c-18.68-7.52-45.16-12.25-74.62-12.25s-55.94,4.73-74.62,12.25h-27.75v26.39c0,21.34,45.83,38.63,102.37,38.63s102.37-17.3,102.37-38.63v-26.39h-27.74Z"/><ellipse class="cls-134" cx="739.62" cy="547.16" rx="102.37" ry="38.63"/><path class="cls-115" d="m763.89,423.08v128.97l-19.01,8.17-2.75-18.93-7.23-3.54v-46.1l-11.7-80.66,5.89-2.51,8.72-3.69,1.57-.71c.94-.55,1.88-.94,2.91-1.26h.08c2.12-.55,4.4-.47,6.6.55l3.3,1.49c7.07,3.3,11.62,10.37,11.62,18.22Z"/><path class="cls-111" d="m715.95,549.48v-129c0-7.2,7.46-11.98,14-8.97l3.31,1.52c7.1,3.27,11.65,10.37,11.65,18.19v129.01l-28.96-10.75Z"/><path class="cls-112" d="m751,447.04s.47-9.58-2.75-23.88c-3.22-14.37-19.16-14.69-19.16-14.69l8.72-3.69c8.48.31,16.81,5.82,19.19,13.16,2.65,8.19,2.49,25.33,2.49,25.33l-8.48,3.77Z"/><path class="cls-79" d="m748.39,412.48c4.04,4.54,4.9,9.69,5.6,14.58l5.5-2.71s2.33-1.11,3-3.4c.93-3.2-1.43-6.95-1.43-6.95l-88.95-148.2c-3.46-5.97-10.83-8.43-17.18-5.73h0c-7.04,2.99-9.81,11.51-5.9,18.08l77.74,130.31c3.13-1.81,14.02-4.52,21.61,4.01Z"/><path class="cls-124" d="m744.01,415.06c4.04,4.54,4.9,9.69,5.6,14.58l5.5-2.71s2.33-1.11,3-3.4c.93-3.2-1.43-6.95-1.43-6.95l-88.95-148.2c-3.46-5.97-10.82-8.43-17.18-5.73h0c-7.04,2.99-9.81,11.51-5.9,18.08l77.74,130.31c3.13-1.81,14.02-4.52,21.61,4.01Z"/><path class="cls-161" d="m737.84,433.06c-.48,4.47-4.21,6.56-8.33,4.67-4.11-1.89-7.06-7.04-6.58-11.51.48-4.47,4.21-6.56,8.33-4.67,4.11,1.89,7.06,7.04,6.58,11.51Z"/><path class="cls-87" d="m650.3,261.03l221.61-53.08c6.44-1.54,12.98,2.19,14.92,8.53h0c2.04,6.66-1.74,13.71-8.42,15.7l-216.38,64.42c-9.1,2.71-18.84-1.35-23.33-9.72h0c-5.54-10.33.2-23.11,11.59-25.84Z"/><path class="cls-161" d="m662.21,282.71c-.48,4.47-4.21,6.56-8.33,4.67-4.11-1.89-7.06-7.04-6.58-11.51.48-4.47,4.21-6.56,8.33-4.67,4.11,1.89,7.06,7.04,6.58,11.51Z"/><path class="cls-106" d="m887.38,207.59s-1.44,5.32,1.69,9.49c3.13,4.17,4.38,3.96,4.38,3.96l27.95-9.18-8.76-16.06-25.26,11.78Z"/><path class="cls-73" d="m966.3,179.63l-.15.03c-5.78-10.25-17.15-17.31-30.38-17.31-19.05,0-34.5,14.47-34.5,32.32l38.17,108.5,88.13-41.61-61.26-81.93Z"/><path class="cls-75" d="m1098.31,277.41l-37.89-36.39-.04.02c-21.52-19.93-62.33-23.18-101.12-5.68-37.8,17.05-62.1,48.59-62.66,77.33l-.04.02v.43c0,.68.04,1.36.06,2.04l8.87,57.25,16.96-7.28c20.9,21.69,50.34,7.02,90.39-11.04,46.3-20.89,81.38-33.44,68.32-66.01l17.15-10.67Z"/><ellipse class="cls-76" cx="1003.91" cy="328.01" rx="107.97" ry="51.32" transform="translate(-46.07 441.87) rotate(-24.28)"/><path class="cls-139" d="m1022.77,369.83c-48.62,21.91-96.45,20.97-106.82-2.12-8.48-18.69,10.21-46.11,43.28-67.55,7.85-5.1,16.57-9.82,25.84-13.98,9.27-4.24,18.61-7.62,27.57-10.05,37.94-10.68,70.85-6.52,79.25,12.17,10.45,23.09-20.5,59.62-69.12,81.53Z"/><path class="cls-76" d="m999.99,319.33c-12.88,5.73-29.61-2.59-40.76-19.16,7.85-5.1,16.57-9.82,25.84-13.98,9.27-4.24,18.61-7.62,27.57-10.05,4.95,19.32.16,37.39-12.65,43.2Z"/><path class="cls-3" d="m1293.63,855.93l-198.58,93.76c-8.63,4.08-18.64,4.08-27.27,0l-428.37-202.37c-10.52-4.97-10.51-19.93,0-24.89l193.86-91.54c8.86-4.19,19.14-4.18,28,0l384.38,181.58,30.08,14.22,17.9,8.46c8.78,4.15,8.78,16.64,0,20.78Z"/><polygon class="cls-122" points="1245.65 812.47 1144.18 861.62 775.42 682.93 744.23 696.7 1005.95 823.49 924.77 862.72 954.46 877.17 1035.68 837.89 1114.42 876.03 1029.81 917.01 1059.5 931.47 1275.73 826.69 1245.65 812.47"/><polygon class="cls-122" points="976.39 826.53 932.84 846.68 683.81 728.86 727.36 708.71 976.39 826.53"/><polygon class="cls-122" points="1169.91 841.5 1144.06 853.46 1051.45 809.45 1077.3 797.48 1169.91 841.5"/><polygon class="cls-122" points="1202.77 823.22 1176.91 835.19 1084.3 791.17 1110.15 779.21 1202.77 823.22"/><path class="cls-88" d="m1137.46,793.7l-207.38-97.96c-1.77-.83-3.81-.86-5.59-.08l-33.98,14.93c-3.03,1.33-3.09,5.6-.1,7.02l205.31,96.98c2.68,1.27,5.79,1.31,8.51.12l33.14-14.56c2.78-1.22,2.84-5.15.09-6.45Z"/><polygon class="cls-105" points="906.89 724.06 904.84 723.32 926.32 713.88 927.97 714.81 906.89 724.06"/><polygon class="cls-105" points="915.51 728.36 913.69 727.5 921.95 723.99 923.59 724.91 915.51 728.36"/><polygon class="cls-105" points="924.38 732.55 922.57 731.68 930.09 728.49 931.72 729.41 924.38 732.55"/><polygon class="cls-105" points="933.26 736.74 931.21 735.98 938.23 732.99 939.86 733.91 933.26 736.74"/><polygon class="cls-105" points="943.36 741.29 941.31 740.54 962.79 731.11 964.44 732.03 943.36 741.29"/><polygon class="cls-105" points="951.98 745.58 950.16 744.72 958.42 741.21 960.06 742.14 951.98 745.58"/><polygon class="cls-105" points="960.85 749.77 959.04 748.91 966.55 745.72 968.19 746.64 960.85 749.77"/><polygon class="cls-105" points="969.73 753.97 967.68 753.21 974.69 750.22 976.33 751.14 969.73 753.97"/><polygon class="cls-105" points="979.82 758.51 977.77 757.77 999.25 748.33 1000.91 749.26 979.82 758.51"/><polygon class="cls-105" points="988.45 762.81 986.63 761.95 994.89 758.44 996.52 759.36 988.45 762.81"/><polygon class="cls-105" points="997.32 767 995.5 766.13 1003.02 762.94 1004.66 763.86 997.32 767"/><polygon class="cls-105" points="1006.2 771.19 1004.15 770.43 1011.16 767.44 1012.8 768.36 1006.2 771.19"/><polygon class="cls-105" points="1016.29 775.74 1014.24 774.99 1035.72 765.56 1037.37 766.48 1016.29 775.74"/><polygon class="cls-105" points="1024.91 780.03 1023.09 779.17 1031.35 775.66 1032.99 776.59 1024.91 780.03"/><polygon class="cls-105" points="1033.78 784.22 1031.97 783.36 1039.49 780.17 1041.12 781.09 1033.78 784.22"/><polygon class="cls-105" points="1042.66 788.42 1040.61 787.66 1047.63 784.67 1049.27 785.59 1042.66 788.42"/><polygon class="cls-105" points="1052.76 792.96 1050.71 792.22 1072.19 782.78 1073.84 783.71 1052.76 792.96"/><polygon class="cls-105" points="1061.38 797.26 1059.56 796.4 1067.82 792.89 1069.46 793.81 1061.38 797.26"/><polygon class="cls-105" points="1070.25 801.45 1068.44 800.58 1075.95 797.39 1077.59 798.31 1070.25 801.45"/><polygon class="cls-105" points="1079.13 805.64 1077.08 804.88 1084.1 801.89 1085.73 802.81 1079.13 805.64"/><path class="cls-22" d="m582.16,312.97s14.26,31.51,7.97,44.21c-6.29,12.71-10.52,17.11-7.97,23.74,2.55,6.63,8.33,26.99,1.58,59.33-6.33,30.29-12.59,59.3-32.01,62.98-19.42,3.68-37.38,1.12-48.54,8.94-11.17,7.82-12.28,42.4-12.28,42.4l-134.85-42.4s16.13-48.67,15.01-75.86c-1.12-27.19,38.85-127.98,38.85-127.98l172.26,4.65Z"/><path class="cls-30" d="m615.45,233.06c0,43.12-10.37,73.83-38.56,94.1-28.19,20.27-46.4,17.93-46.2,36.02.2,18.08,0,51.82-10.18,54.84-10.18,3.02-11.47-50.68-28.83-49.67-17.36,1.01-28.33,33.01-18.15,55.38,10.18,22.37-36.83,53.05-69.74,46.49-36.75-7.33-33.06-2.32-75.35-84.66-42.28-82.34,18.24-129.75,18.24-129.75,0,0-16.44-52.84,79.09-58.92,95.53-6.07,189.69-19.49,189.69,36.16Z"/><path class="cls-53" d="m965.87,863.49v.31c.16,7.93-1.18,13.82-1.18,13.82,0,0-263.59,186.86-289.51,186.86-17.75,0-44.61-42.1-59.77-68.65-6.91-12.17-11.47-21.05-11.47-21.05v163.2s-12.65,29.14-49.48,54.27c-30.32,20.82-77.21,38.8-147.11,35.42-51.21-2.59-86.79-15.63-111.38-32.05-49.56-32.99-54.82-79.25-54.82-79.25,0,0-11.78-250.62-17.2-396.09-2.83-76.5-3.85-140.28-.47-157.09,9.66-48.7,65.19-53.8,78.07-53.09,13.04.71,54.51-20.5,54.51-20.5,0,0,.63.16,1.81.55,14.14,4.32,107.76,33.3,133.05,47.91,6.2,3.61,10.84,8.8,14.22,14.69.08.08.16.16.16.31,11.31,19.87,9.03,47.36,9.03,47.36,0,0,71.32,53.64,90.72,64.95,19.4,11.39,35.66,57.18,35.66,57.18l128.81-32.44s2.04.39,13.43,8.56c2.36,1.65,5.18,3.69,8.4,6.13,10.92,8.09,9.19,23.41,5.81,34.88-2.43,8.32-5.81,14.61-5.81,14.61l-.24.08-127.71,49.33s38.8,124.65,44.14,124.65,204.53-111.69,204.53-111.69c0,0,6.05.16,14.29,2.2,8.33,2.12,18.85,6.28,27.49,14.45.86.79,1.65,1.57,2.36,2.44.08.08.16.16.16.23,7.23,8.33,9.27,19.01,9.5,27.49Z"/><path class="cls-82" d="m797.07,739.73s30.95.76,59.6-12.27c28.65-13.03,48.36-30.4,48.36-30.4,0,0-14.5-11.29-30.13,0-15.63,11.29-12.16-3.48-.87-17.81,11.29-14.33,64.66-32.91,52.31-40.99-12.35-8.08-60.72,11.17-87.78,27.17-27.06,16-55.64,33.27-55.64,33.27,0,0,18.84,15.08,14.16,41.03Z"/><polygon class="cls-43" points="1083.07 803.09 1126.5 793.5 1091.09 768.41 1083.07 803.09"/><path class="cls-81" d="m940.05,733.49l151.04,34.92c3.66.85,4.87,9.34,2.65,18.93-2.22,9.59-7.01,16.6-10.67,15.75l-151.04-34.93,8.02-34.68Z"/><polygon class="cls-27" points="1116.34 795.74 1118.22 787.63 1126.5 793.5 1116.34 795.74"/><path class="cls-155" d="m1094.77,780.5l-117.54-26.53-3.79,14.37,117.86,26.41s4.34-9.12,3.46-14.25Z"/><path class="cls-119" d="m940.05,733.49l34.3,7.93s4.81,7.45,2,20.46c-2.79,12.92-11.05,13.98-11.05,13.98l-33.27-7.69,8.02-34.68Z"/><path class="cls-16" d="m940.01,733.45c3.7.86,4.91,9.33,2.69,18.92-2.22,9.59-7.02,16.68-10.72,15.82-3.7-.86-4.91-9.33-2.69-18.92,2.22-9.59,7.02-16.68,10.72-15.82Z"/><path class="cls-54" d="m965.84,863.77s51.63-17.04,63.65-46.85c12.02-29.81,64.8-39.77,63.4-46.9-1.4-7.13-32.13-19.98-72.09-8.68-39.95,11.29-43.57,17.28-43.57,17.28,0,0-4.88-3.5-15.23-4.25-10.35-.75-35.67,44.53-35.67,44.53,0,0,34.91.53,39.5,44.87Z"/><path class="cls-146" d="m541.47,829.05l62.49,145.74v163.19s-12.64,29.17-49.48,54.27c8.31-83.71-13-363.2-13-363.2Z"/><path class="cls-146" d="m640.71,722.59l22.67,81.09,127.96-49.39s-106.6,28.05-116.02,21.57c-9.42-6.47-34.6-53.27-34.6-53.27Z"/><path class="cls-146" d="m490.9,538.11s-12.56,8.58-10.75,23.14c1.81,14.56-15.11,13.96-39.9,7.91-24.78-6.04-98.53-38.69-98.53-38.69,0,0,62.87,32.89,94.3,50.6,31.43,17.71,78.26,19.33,78.26,19.33,0,0,1.41-51.1-23.39-62.31Z"/><path class="cls-91" d="m500.5,931.44c4.16,20.42,4.32,226.21-5.26,251.74-9.5,25.53-48.93,39.66-146.17,17.43-18.77-4.32-36.6-10.52-53.1-17.83-49.56-32.99-54.82-79.25-54.82-79.25,0,0-11.78-191.1-17.2-336.56,0,0,220.55,126.77,249.93,121.82,29.38-4.95,46.11,7.38,46.11,7.38,0,0-23.64,14.84-19.48,35.26Z"/><path class="cls-135" d="m458.62,922.89l-308.02-147.93c-4.69-2.26-9.56-2.8-14.19-2.21l-.08-.07-.79.25c-2.39.39-4.66,1.12-6.83,2.16l-55.83,17.62,41.21,49.21v142.92c0,15.26,8.75,29.18,22.51,35.78l212.67,102.14,59.72,71.31,61.35-19.77c.78-.22,1.53-.45,2.28-.74l.94-.3-.05-.12c8.37-3.62,14.69-11.73,14.69-22.04v-181.17c0-20.07-11.51-38.36-29.59-47.04Z"/><path class="cls-109" d="m76.58,1039.95l317.01,152.25c16.02,7.7,34.59-3.98,34.59-21.76v-181.18c0-20.07-11.51-38.36-29.59-47.04l-308.02-147.93c-16.91-8.12-36.5,4.2-36.5,22.96v186.91c0,15.27,8.75,29.18,22.51,35.79Z"/><path class="cls-64" d="m276.68,990.64l-79.44-34.9-30.4,19.59c-26.62,17.15-42.7,46.65-42.7,78.31v397.03c0,16.2,12.02,28.37,26.31,30.58h0s73.46,33.34,73.46,33.34l-3.41-71.04,4.52-391.68,51.67-61.25Z"/><path class="cls-21" d="m276.68,990.65l-30.4,19.59c-26.62,17.15-42.7,46.65-42.7,78.31v397.03c0,23,24.21,37.97,44.79,27.68l8.82-4.41v-22.74s-1.91.91-1.91.91c-10.17,4.85-21.91-2.56-21.91-13.82v-382.62c0-22.26,11.43-42.95,30.27-54.8l13.05-8.21v-36.92Z"/><path class="cls-23" d="m946.73,1639.7c-19.59-5.51-29.89-23.66-29.89-23.66,0,0-37.65-374.74-52.64-393.8-15.08-18.96-285.44,103.84-372.49,143.76-87.05,39.91-206.34-39.91-236.31-61.85-9.93-7.31-14.36-29.89-15.71-56.89l1.44-12.1s147.91,111.25,240.65,77.39c92.83-33.86,359.84-125.24,394.88-144.75,32.96-18.33,44.88-24.92,46.32-25.64-1.35,3.25-31.6,72.96-11.02,176.81,17.25,86.78,30.43,260.06,34.77,320.74Z"/><g class="cls-164"><polygon class="cls-74" points="1644.91 904.42 1635.54 910.56 1794.96 992.68 2198.48 936.98 1893.06 823.02 1644.91 904.42"/></g><path class="cls-143" d="m1808.76,945.21v35.2c0,1.37-.62,2.54-1.58,3.26-.58.55-1.34.86-2.12.96l-.03.03c-.75.1-1.58.03-2.36-.34l-151.52-70.12c-3.8-1.75-6.24-5.55-6.24-9.77v-32.59c0-1.95.99-3.56,2.47-4.52.41-.27.89-.51,1.37-.62,1.23-.41,2.57-.38,3.87.24l150.69,69.71c1.51.69,2.78,1.78,3.67,3.08,1.17,1.58,1.78,3.5,1.78,5.48Z"/><path class="cls-52" d="m1874.94,762.54c.86-.82,1.99-1.37,3.22-1.47l-3.22,1.47Z"/><path class="cls-132" d="m2035.37,834.3l-50.41,23.27-177.97,82.15c-.89-1.3-2.16-2.4-3.67-3.08l-150.69-69.71c-1.3-.62-2.64-.65-3.87-.24l226.19-104.15,3.22-1.47c.93-.14,1.89,0,2.84.45l150.69,69.74c1.51.69,2.74,1.75,3.67,3.05Z"/><path class="cls-42" d="m2037.15,839.82v35.2c0,1.44-.69,2.64-1.68,3.39v.89l-228.28,104.36c.96-.72,1.58-1.88,1.58-3.26v-35.2c0-1.99-.62-3.91-1.78-5.48l177.97-82.15,50.41-23.27c1.13,1.58,1.78,3.5,1.78,5.52Z"/><path class="cls-3" d="m1651.17,880.22v22.33c0,2.51,1.47,4.79,3.75,5.82l153.84,70.42v-32.53l-151.72-69.79c-2.74-1.27-5.87.73-5.87,3.75Z"/><polygon class="cls-123" points="1808.76 945.21 2037.15 839.82 2037.15 875.02 1808.76 978.79 1808.76 945.21"/><path class="cls-147" d="m1824.85,865.51v49.31c0,1.12-.5,2.07-1.29,2.66-.48.45-1.09.7-1.74.78l-.03.03c-.62.08-1.29.03-1.93-.28l-123.76-57.27c-3.11-1.43-5.09-4.53-5.09-7.98v-47.18c0-1.6.81-2.91,2.02-3.7.34-.22.73-.42,1.12-.5,1.01-.34,2.1-.31,3.16.2l123.08,56.94c1.23.56,2.27,1.46,3,2.52.95,1.29,1.46,2.86,1.46,4.48Z"/><path class="cls-160" d="m1878.9,716.31c.7-.67,1.62-1.12,2.63-1.2l-2.63,1.2Z"/><path class="cls-26" d="m2009.94,774.93l-41.18,19.01-145.37,67.1c-.73-1.06-1.76-1.96-3-2.52l-123.08-56.94c-1.06-.5-2.16-.53-3.16-.2l184.75-85.07,2.63-1.2c.76-.11,1.54,0,2.32.36l123.08,56.97c1.23.56,2.24,1.43,3,2.49Z"/><path class="cls-97" d="m2011.39,779.44v49.31c0,1.18-.56,2.16-1.37,2.77v.73l-186.46,85.24c.78-.59,1.29-1.54,1.29-2.66v-49.31c0-1.62-.5-3.19-1.46-4.48l145.37-67.1,41.18-19.01c.92,1.29,1.46,2.86,1.46,4.51Z"/><path class="cls-3" d="m1696.13,812.43v38.8c0,2.05,1.2,3.91,3.07,4.76l125.65,57.52v-47.13l-123.92-57.01c-2.24-1.04-4.8.6-4.8,3.06Z"/><polygon class="cls-123" points="1824.85 865.51 2011.39 779.44 2011.39 828.75 1824.85 913.51 1824.85 865.51"/><path class="cls-144" d="m1824.85,802.82v49.31c0,1.12-.5,2.07-1.29,2.66-.48.45-1.09.7-1.74.78l-.03.03c-.62.08-1.29.03-1.93-.28l-123.76-57.27c-3.11-1.43-5.09-4.53-5.09-7.98v-47.18c0-1.6.81-2.91,2.02-3.7.34-.22.73-.42,1.12-.5,1.01-.34,2.1-.31,3.16.2l123.08,56.94c1.23.56,2.27,1.46,3,2.52.95,1.29,1.46,2.86,1.46,4.48Z"/><path class="cls-156" d="m1878.9,653.62c.7-.67,1.62-1.12,2.63-1.2l-2.63,1.2Z"/><path class="cls-154" d="m2009.94,712.24l-41.18,19.01-145.37,67.1c-.73-1.06-1.76-1.96-3-2.52l-123.08-56.94c-1.06-.5-2.16-.53-3.16-.2l184.75-85.07,2.63-1.2c.76-.11,1.54,0,2.32.36l123.08,56.97c1.23.56,2.24,1.43,3,2.49Z"/><path class="cls-39" d="m2011.39,716.75v49.31c0,1.18-.56,2.16-1.37,2.77v.73l-186.46,85.24c.78-.59,1.29-1.54,1.29-2.66v-49.31c0-1.62-.5-3.19-1.46-4.48l145.37-67.1,41.18-19.01c.92,1.29,1.46,2.86,1.46,4.51Z"/><path class="cls-3" d="m1696.13,749.74v38.8c0,2.05,1.2,3.91,3.07,4.76l125.65,57.52v-47.13l-123.92-57.01c-2.24-1.04-4.8.6-4.8,3.06Z"/><polygon class="cls-123" points="1824.85 802.82 2011.39 716.75 2011.39 766.06 1824.85 850.82 1824.85 802.82"/><path class="cls-102" d="m467.23,368.8s3.39-60.02-20.44-116.13c-23.83-56.1-85.07-54.43-85.07-54.43l55.19-20.74s61.24-1.67,85.07,54.43c23.83,56.1,20.44,116.13,20.44,116.13l-55.87,26.2"/><path class="cls-104" d="m544.32,376.31c-3.39,31.35-7.34,59.55-28.49,62.62-1.39.2-17.88-2.11-19.28-2.11-22.78,0-38.31-27.09-34.7-60.5,3.61-33.42,25-60.5,47.78-60.5,9.86,0,31.52-.13,37.7,8.34,8.09,11.09-.95,33.22-3,52.16Z"/><ellipse class="cls-130" cx="525.41" cy="378.63" rx="61.15" ry="40.8" transform="translate(51.83 820.37) rotate(-78.79)"/><path class="cls-161" d="m548.68,378.63c-2.04,18.86-14.11,34.15-26.96,34.15s-21.62-15.29-19.58-34.15c2.04-18.86,14.11-34.15,26.96-34.15s21.62,15.29,19.58,34.15Z"/><path class="cls-108" d="m537.33,360.91l-24.8,10.5c-1.38.58-2.5-.07-2.5-1.44h0c0-1.38,1.13-2.98,2.5-3.56l24.8-10.5c1.38-.58,2.5.07,2.5,1.44h0c0,1.38-1.13,2.98-2.5,3.56Z"/><path class="cls-145" d="m537.33,370.33l-24.8,10.5c-1.38.58-2.5-.07-2.5-1.44h0c0-1.38,1.13-2.98,2.5-3.56l24.8-10.5c1.38-.58,2.5.07,2.5,1.44h0c0,1.38-1.13,2.98-2.5,3.56Z"/><path class="cls-142" d="m537.33,379.76l-24.8,10.5c-1.38.58-2.5-.07-2.5-1.44h0c0-1.38,1.13-2.98,2.5-3.56l24.8-10.5c1.38-.58,2.5.07,2.5,1.44h0c0,1.38-1.13,2.98-2.5,3.56Z"/><path class="cls-12" d="m537.33,389.19l-24.8,10.5c-1.38.58-2.5-.07-2.5-1.44h0c0-1.38,1.13-2.98,2.5-3.56l24.8-10.5c1.38-.58,2.5.07,2.5,1.44h0c0,1.38-1.13,2.98-2.5,3.56Z"/><g class="cls-168"><polygon class="cls-77" points="1341.29 973.05 1323.19 981.09 1587.41 1141.82 1793.09 1102.52 1926.01 1041.65 1697.87 948.3 1341.29 973.05"/></g><path class="cls-45" d="m1445.66,1052.88l-97.88-71.07c-8.42-6.11-7.52-18.94,1.68-23.81l122.18-64.78-25.97,159.67Z"/><path class="cls-18" d="m1445.66,1052.88l143.54,72.78c10.68,5.41,23.27,5.52,34.03.28l217.43-105.83c6.01-2.92,5.23-11.72-1.2-13.54l-187.72-53.06-205.12,92.54-.95,6.84Z"/><path class="cls-92" d="m1445.66,1045.45l-97.88-71.07c-8.42-6.11-7.52-18.94,1.68-23.81l122.18-64.78-25.97,159.67Z"/><path class="cls-99" d="m1445.66,1045.45l143.54,72.78c10.68,5.41,23.27,5.52,34.03.28l217.43-105.83c6.01-2.92,5.23-11.72-1.2-13.54l-187.72-53.06-206.08,99.38Z"/><path class="cls-33" d="m1445.66,1045.45l146.45,55.41c6.6,2.5,13.93,2.17,20.28-.9l227.78-110.24c7.05-3.41,5.65-13.84-2.05-15.28l-176.87-32.95-215.6,103.97Z"/><path class="cls-58" d="m1445.66,1045.45l-100.47-96.69c-6.49-6.24-4.6-17.07,3.62-20.75l72.26-32.37,73.93,126.02-49.34,23.79Z"/><path class="cls-131" d="m1661.26,941.48l-215.6,103.97-83.58-125.2c-4.43-6.63-1.91-15.65,5.31-19.04l200.11-93.85c6.06-2.84,13.28-.63,16.71,5.11l77.04,129.01Z"/><path class="cls-19" d="m1661.26,941.48l184.24,5.01c6.95.19,8.99,9.57,2.74,12.62l-205.41,100.46c-7.37,3.6-15.61,5.06-23.76,4.2l-173.41-18.32,215.6-103.97Z"/><path class="cls-66" d="m1584.56,888.83l-29.68-49.06c-.9-1.49-.35-3.31,1.22-4.06h0c1.57-.75,3.6-.14,4.49,1.34l29.68,49.06c.9,1.49.35,3.31-1.22,4.06h0c-1.57.75-3.6.14-4.49-1.34Z"/><path class="cls-66" d="m1600.6,948.35l-61.22-101.21c-.9-1.49-.35-3.31,1.22-4.06h0c1.57-.75,3.59-.14,4.49,1.34l61.22,101.21c.9,1.49.35,3.31-1.22,4.06h0c-1.57.75-3.59.14-4.49-1.34Z"/><path class="cls-66" d="m1587.54,954.56l-61.22-101.21c-.9-1.49-.35-3.31,1.22-4.06h0c1.57-.75,3.6-.14,4.49,1.34l61.22,101.21c.9,1.49.35,3.31-1.22,4.06h0c-1.57.75-3.6.14-4.49-1.34Z"/><path class="cls-66" d="m1574.47,960.78l-61.22-101.21c-.9-1.49-.35-3.31,1.22-4.06h0c1.57-.75,3.59-.14,4.49,1.34l61.22,101.21c.9,1.49.35,3.31-1.22,4.06h0c-1.57.75-3.6.14-4.49-1.34Z"/><path class="cls-66" d="m1561.41,966.99l-61.22-101.21c-.9-1.49-.35-3.31,1.22-4.06h0c1.57-.75,3.59-.14,4.49,1.34l61.22,101.21c.9,1.49.35,3.31-1.22,4.06h0c-1.57.75-3.59.14-4.49-1.34Z"/><path class="cls-66" d="m1548.35,973.21l-61.22-101.21c-.9-1.49-.35-3.31,1.22-4.06h0c1.57-.75,3.6-.14,4.49,1.34l61.22,101.21c.9,1.49.35,3.31-1.22,4.06h0c-1.57.75-3.6.14-4.49-1.34Z"/><path class="cls-66" d="m1535.28,979.42l-61.22-101.21c-.9-1.49-.35-3.31,1.22-4.06h0c1.57-.75,3.59-.14,4.49,1.34l61.22,101.21c.9,1.49.35,3.31-1.22,4.06h0c-1.57.75-3.6.14-4.49-1.34Z"/><path class="cls-66" d="m1522.22,985.64l-61.22-101.21c-.9-1.49-.35-3.31,1.22-4.06h0c1.57-.75,3.59-.14,4.49,1.34l61.22,101.21c.9,1.49.35,3.31-1.22,4.06h0c-1.57.75-3.59.14-4.49-1.34Z"/><path class="cls-66" d="m1729.01,963.75l-73.26-.54c-2.22-.02-2.75-.64-1.18-1.39h0c1.57-.75,4.68-1.35,6.9-1.33l73.26.54c2.22.02,2.75.64,1.18,1.39h0c-1.57.75-4.68,1.35-6.9,1.33Z"/><path class="cls-66" d="m1791.38,971.7l-151.13-1.12c-2.22-.02-2.75-.64-1.18-1.39h0c1.57-.75,4.68-1.35,6.9-1.33l151.13,1.12c2.22.02,2.75.64,1.18,1.39h0c-1.57.75-4.68,1.35-6.9,1.33Z"/><path class="cls-66" d="m1778.32,977.91l-151.13-1.12c-2.22-.02-2.75-.64-1.18-1.39h0c1.57-.75,4.68-1.35,6.9-1.33l151.13,1.12c2.22.02,2.75.64,1.18,1.39h0c-1.57.75-4.68,1.35-6.9,1.33Z"/><path class="cls-66" d="m1765.26,984.13l-151.13-1.12c-2.22-.02-2.75-.64-1.18-1.39h0c1.57-.75,4.68-1.35,6.9-1.33l151.13,1.12c2.22.02,2.75.64,1.18,1.39h0c-1.57.75-4.68,1.35-6.89,1.33Z"/><path class="cls-66" d="m1752.19,990.34l-151.13-1.12c-2.22-.02-2.75-.64-1.18-1.39h0c1.57-.75,4.68-1.35,6.9-1.33l151.13,1.12c2.22.02,2.75.64,1.18,1.39h0c-1.57.75-4.68,1.35-6.9,1.33Z"/><path class="cls-66" d="m1739.13,996.56l-151.13-1.12c-2.22-.02-2.75-.64-1.18-1.39h0c1.57-.75,4.68-1.35,6.89-1.33l151.13,1.12c2.22.02,2.75.64,1.18,1.39h0c-1.57.75-4.68,1.35-6.9,1.33Z"/><path class="cls-66" d="m1726.07,1002.77l-151.13-1.12c-2.22-.02-2.75-.64-1.18-1.39h0c1.57-.75,4.68-1.35,6.9-1.33l151.13,1.12c2.22.02,2.75.64,1.18,1.39h0c-1.57.75-4.68,1.35-6.9,1.33Z"/><path class="cls-66" d="m1713,1008.99l-151.13-1.12c-2.22-.02-2.75-.64-1.18-1.39h0c1.57-.75,4.68-1.35,6.9-1.33l151.13,1.12c2.22.02,2.75.64,1.18,1.39h0c-1.57.75-4.68,1.35-6.9,1.33Z"/><polygon class="cls-140" points="1661.26 941.48 1446.61 1046.05 1435.81 1067.66 1446.89 1061.35 1449.79 1072.71 1458.97 1050.73 1673.44 941.81 1661.26 941.48"/><polygon class="cls-101" points="1446.61 1046.05 1458.97 1050.73 1449.79 1072.71 1446.89 1061.35 1435.81 1067.66 1446.61 1046.05"/><path class="cls-38" d="m1647.73,983.82c2.32-1.63,8.66-7.31,4.07-18.36-2.4-5.81-9.34-9.99-16.55-8.25l16.97-8.91c7.33-1.98,14.46,2.25,16.88,8.16,5.55,13.37-4.89,18.85-4.89,18.85l-16.48,8.51Z"/><path class="cls-148" d="m1543.39,1040.02l1.44-8.88-11.78-2.58,4.64-11.74-10.39-3.02,100.94-53.06c7.21-1.74,14.14,2.44,16.55,8.25,5.55,13.35-4.87,18.85-4.87,18.85l-96.52,52.17Z"/><polygon class="cls-10" points="1648.59 974.61 1544.83 1031.13 1533.05 1028.56 1537.69 1016.82 1643.68 960.88 1648.59 974.61"/><path class="cls-76" d="m1640.18,987.7c1.58-.99,9.6-6.65,4.6-18.71-2.4-5.81-9.34-9.99-16.55-8.25l23.34-12.27c.22-.06.43-.14.65-.17l-16.97,8.91c7.21-1.74,14.14,2.44,16.55,8.25,4.59,11.04-1.76,16.73-4.07,18.36l-7.55,3.88Z"/><polygon class="cls-43" points="1527.3 1013.8 1537.69 1016.82 1533.05 1028.56 1544.83 1031.13 1543.39 1040.02 1506.21 1046.34 1527.3 1013.8"/><path class="cls-107" d="m1519.4,1044.1s-2.38-1.23-3.53-3.2c-1.15-1.96-1.84-6.63-1.84-6.63l-7.82,12.07,13.19-2.24Z"/><ellipse class="cls-51" cx="1218.09" cy="1029.66" rx="103.24" ry="29.69"/><ellipse class="cls-32" cx="1218.09" cy="1025.82" rx="103.24" ry="29.69"/><path class="cls-103" d="m1148.42,926.69l4.5,94.28c0,10.35,29.18,18.74,65.17,18.74,35.99,0,65.17-8.39,65.17-18.74l4.5-94.28h-139.34Z"/><path class="cls-37" d="m1287.76,926.69c0,11.06-31.19,20.03-69.67,20.03-38.48,0-69.67-8.97-69.67-20.04s31.19-20.03,69.67-20.03c38.48,0,69.67,8.97,69.67,20.04Z"/><path class="cls-136" d="m1280.9,926.69c0,3.72-3.9,7.16-10.51,10.06-11.24,4.8-30.45,7.98-52.3,7.98-21.84,0-41.06-3.17-52.3-7.98-6.62-2.9-10.51-6.34-10.51-10.06,0-9.97,28.1-18.04,62.81-18.04,34.71,0,62.81,8.07,62.81,18.04Z"/><path class="cls-157" d="m1270.39,936.75c-11.24,4.8-30.45,7.98-52.3,7.98-21.84,0-41.06-3.17-52.3-7.98,11.24-4.89,30.45-8.06,52.3-8.06,21.84,0,41.06,3.17,52.3,8.07Z"/><g class="cls-169"><polygon class="cls-40" points="762.71 545.11 1008.47 576.34 1069.46 629.11 1198.76 659.47 1225.73 684.16 1068.44 743.4 1034.17 712.24 1051.45 646.92 994.22 597.33 744.91 560.23 762.71 545.11"/></g></svg>