<?xml version="1.0" encoding="UTF-8"?><svg id="Layer_1" xmlns="http://www.w3.org/2000/svg" xmlns:xlink="http://www.w3.org/1999/xlink" viewBox="0 0 2822 1888.99"><defs><style>.cls-1{fill:url(#linear-gradient-24);}.cls-1,.cls-2,.cls-3,.cls-4,.cls-5,.cls-6,.cls-7,.cls-8,.cls-9,.cls-10,.cls-11,.cls-12,.cls-13,.cls-14,.cls-15,.cls-16,.cls-17,.cls-18,.cls-19,.cls-20,.cls-21,.cls-22,.cls-23,.cls-24,.cls-25,.cls-26,.cls-27,.cls-28,.cls-29,.cls-30,.cls-31,.cls-32,.cls-33,.cls-34,.cls-35,.cls-36,.cls-37,.cls-38,.cls-39,.cls-40,.cls-41,.cls-42,.cls-43,.cls-44,.cls-45,.cls-46,.cls-47,.cls-48,.cls-49,.cls-50,.cls-51,.cls-52,.cls-53,.cls-54,.cls-55,.cls-56,.cls-57,.cls-58,.cls-59,.cls-60,.cls-61,.cls-62,.cls-63,.cls-64,.cls-65,.cls-66,.cls-67,.cls-68,.cls-69,.cls-70,.cls-71,.cls-72,.cls-73,.cls-74,.cls-75,.cls-76,.cls-77,.cls-78,.cls-79,.cls-80,.cls-81,.cls-82,.cls-83,.cls-84,.cls-85,.cls-86,.cls-87,.cls-88,.cls-89,.cls-90,.cls-91,.cls-92,.cls-93,.cls-94,.cls-95,.cls-96,.cls-97{stroke-width:0px;}.cls-1,.cls-20,.cls-32,.cls-55,.cls-64,.cls-87{mix-blend-mode:multiply;}.cls-98{filter:url(#luminosity-noclip-11);}.cls-2{fill:url(#linear-gradient-38);}.cls-3{fill:#fefefe;}.cls-4{fill:url(#linear-gradient-12);}.cls-5{fill:url(#linear-gradient-17);}.cls-6{fill:url(#linear-gradient-19);}.cls-7{fill:url(#linear-gradient-33);}.cls-8{fill:url(#linear-gradient-62);}.cls-99{mask:url(#mask-10);}.cls-9{fill:url(#linear-gradient-67);}.cls-100{filter:url(#luminosity-noclip-7);}.cls-10{fill:url(#linear-gradient-21);}.cls-11{fill:url(#linear-gradient-6);}.cls-12{fill:url(#linear-gradient-2);}.cls-12,.cls-13,.cls-29,.cls-46,.cls-49,.cls-58,.cls-70{opacity:.2;}.cls-13{fill:url(#linear-gradient-60);}.cls-14{fill:#e0dddc;}.cls-101{filter:url(#luminosity-noclip-5);}.cls-15{fill:url(#linear-gradient-76);}.cls-16{fill:#efeded;}.cls-102{mask:url(#mask-2);}.cls-17{fill:url(#linear-gradient-42);}.cls-18{fill:url(#linear-gradient-15);}.cls-19{fill:url(#linear-gradient-11);}.cls-103{mask:url(#mask-3);}.cls-20{fill:url(#linear-gradient-59);}.cls-21{fill:url(#linear-gradient-81);}.cls-22{fill:url(#linear-gradient-73);}.cls-23{fill:url(#linear-gradient-5);}.cls-24{fill:url(#linear-gradient-31);}.cls-25{fill:url(#linear-gradient-71);}.cls-26{fill:url(#linear-gradient-63);}.cls-27{fill:#f87c18;}.cls-28{fill:url(#linear-gradient-34);}.cls-29{fill:url(#linear-gradient-70);}.cls-104{mask:url(#mask-9);}.cls-30{fill:url(#linear-gradient-41);}.cls-31{fill:url(#linear-gradient-40);}.cls-32{fill:url(#linear-gradient-69);}.cls-33{fill:url(#linear-gradient-66);}.cls-105{mask:url(#mask-5);}.cls-34{fill:url(#linear-gradient-13);}.cls-35{fill:url(#linear-gradient-23);}.cls-36{fill:url(#linear-gradient-43);}.cls-37{fill:url(#linear-gradient-16);}.cls-38{fill:url(#linear-gradient-22);}.cls-39{fill:url(#linear-gradient-54);}.cls-40{fill:url(#linear-gradient-55);}.cls-41{fill:#fff;}.cls-42{fill:url(#linear-gradient-35);}.cls-43{fill:url(#linear-gradient-50);}.cls-44{fill:url(#linear-gradient-32);}.cls-45{fill:url(#linear-gradient-20);}.cls-46{fill:url(#linear-gradient-25);}.cls-47{fill:#eaaeac;}.cls-48{fill:url(#linear-gradient-14);}.cls-49{fill:url(#linear-gradient-58);}.cls-106{filter:url(#luminosity-noclip-9);}.cls-50{fill:url(#linear-gradient-52);}.cls-51{fill:url(#linear-gradient-45);}.cls-107{mask:url(#mask-8);}.cls-52{fill:url(#linear-gradient-7);}.cls-53{fill:url(#linear-gradient-39);}.cls-108{mask:url(#mask-4);}.cls-54{fill:url(#linear-gradient-77);}.cls-55{fill:url(#linear-gradient);}.cls-56{fill:url(#linear-gradient-9);}.cls-57{fill:url(#linear-gradient-27);}.cls-58{fill:#2d110f;}.cls-59{fill:url(#linear-gradient-82);}.cls-60{fill:url(#linear-gradient-83);}.cls-109{mask:url(#mask-6);}.cls-61{fill:url(#linear-gradient-53);}.cls-62{fill:url(#linear-gradient-85);}.cls-63{fill:url(#linear-gradient-65);}.cls-64{fill:url(#linear-gradient-57);}.cls-65{fill:url(#linear-gradient-36);}.cls-66{fill:url(#linear-gradient-48);}.cls-67{fill:url(#linear-gradient-49);}.cls-68{fill:url(#linear-gradient-8);}.cls-69{fill:url(#linear-gradient-47);}.cls-70{fill:url(#linear-gradient-4);}.cls-71{fill:url(#linear-gradient-26);}.cls-72{fill:url(#linear-gradient-61);}.cls-73{fill:url(#linear-gradient-18);}.cls-74{fill:url(#linear-gradient-51);}.cls-75{fill:url(#linear-gradient-30);}.cls-110{filter:url(#luminosity-noclip);}.cls-111{mask:url(#mask-1);}.cls-112{mask:url(#mask);}.cls-76{fill:url(#linear-gradient-44);}.cls-77{fill:url(#linear-gradient-84);}.cls-78{fill:url(#linear-gradient-68);}.cls-79{fill:url(#linear-gradient-72);}.cls-80{fill:url(#linear-gradient-29);}.cls-81{fill:url(#linear-gradient-46);}.cls-82{fill:#cbd7d8;}.cls-83{fill:url(#linear-gradient-64);}.cls-113{mask:url(#mask-7);}.cls-84{fill:url(#linear-gradient-28);}.cls-85{fill:url(#linear-gradient-56);}.cls-86{fill:#cccbca;}.cls-87{fill:url(#linear-gradient-3);}.cls-88{fill:url(#linear-gradient-10);}.cls-89{fill:url(#linear-gradient-78);}.cls-90{fill:#ffb7b1;}.cls-91{fill:url(#linear-gradient-86);}.cls-92{fill:url(#linear-gradient-74);}.cls-114{mask:url(#mask-11);}.cls-93{fill:url(#linear-gradient-37);}.cls-94{fill:url(#linear-gradient-80);}.cls-115{filter:url(#luminosity-noclip-3);}.cls-95{fill:url(#linear-gradient-79);}.cls-96{fill:#5b6a7f;}.cls-97{fill:url(#linear-gradient-75);}</style><filter id="luminosity-noclip" x="2111.34" y="1018.64" width="710.66" height="252.73" color-interpolation-filters="sRGB" filterUnits="userSpaceOnUse"><feFlood flood-color="#fff" result="bg"/><feBlend in="SourceGraphic" in2="bg"/></filter><filter id="luminosity-noclip-2" x="2111.34" y="-9068.48" width="710.66" height="32766" color-interpolation-filters="sRGB" filterUnits="userSpaceOnUse"><feFlood flood-color="#fff" result="bg"/><feBlend in="SourceGraphic" in2="bg"/></filter><mask id="mask-1" x="2111.34" y="-9068.48" width="710.66" height="32766" maskUnits="userSpaceOnUse"/><linearGradient id="linear-gradient" x1="2437.46" y1="1092.15" x2="2540.65" y2="1316.33" gradientUnits="userSpaceOnUse"><stop offset="0" stop-color="#fff"/><stop offset="1" stop-color="#000"/></linearGradient><mask id="mask" x="2111.34" y="1018.64" width="710.66" height="252.73" maskUnits="userSpaceOnUse"><g class="cls-110"><g class="cls-111"><path class="cls-55" d="m2532.59,1018.64s-437.26,113.58-420.79,118.95c16.47,5.37,245.72,104.85,348.88,127.96s370.2-25.96,361.09-89.42c-9.1-63.46-289.18-157.49-289.18-157.49Z"/></g></g></mask><linearGradient id="linear-gradient-2" x1="2437.46" y1="1092.15" x2="2540.65" y2="1316.33" gradientUnits="userSpaceOnUse"><stop offset="0" stop-color="#2e3845"/><stop offset="1" stop-color="#2f3a47"/></linearGradient><filter id="luminosity-noclip-3" x="1634.09" y="1205.35" width="769.68" height="165.54" color-interpolation-filters="sRGB" filterUnits="userSpaceOnUse"><feFlood flood-color="#fff" result="bg"/><feBlend in="SourceGraphic" in2="bg"/></filter><filter id="luminosity-noclip-4" x="1634.09" y="-9068.48" width="769.68" height="32766" color-interpolation-filters="sRGB" filterUnits="userSpaceOnUse"><feFlood flood-color="#fff" result="bg"/><feBlend in="SourceGraphic" in2="bg"/></filter><mask id="mask-3" x="1634.09" y="-9068.48" width="769.68" height="32766" maskUnits="userSpaceOnUse"/><linearGradient id="linear-gradient-3" x1="2018.93" y1="1231.79" x2="2018.93" y2="1410.9" xlink:href="#linear-gradient"/><mask id="mask-2" x="1634.09" y="1205.35" width="769.68" height="165.54" maskUnits="userSpaceOnUse"><g class="cls-115"><g class="cls-103"><polygon class="cls-87" points="1650.18 1205.35 1634.09 1211.75 1932 1345 2403.77 1370.89 2173.41 1269.1 1650.18 1205.35"/></g></g></mask><linearGradient id="linear-gradient-4" x1="2018.93" y1="1231.79" x2="2018.93" y2="1410.9" xlink:href="#linear-gradient-2"/><linearGradient id="linear-gradient-5" x1="1699.31" y1="140.01" x2="1762.57" y2="434.69" gradientUnits="userSpaceOnUse"><stop offset="0" stop-color="#e9e9e9"/><stop offset="1" stop-color="#b7b7b7"/></linearGradient><linearGradient id="linear-gradient-6" x1="1367.15" y1="-23.53" x2="2088.44" y2="803.55" gradientUnits="userSpaceOnUse"><stop offset="0" stop-color="#587082"/><stop offset="1" stop-color="#1a1e28"/></linearGradient><linearGradient id="linear-gradient-7" x1="1605.64" y1="142.25" x2="1778.12" y2="142.25" gradientUnits="userSpaceOnUse"><stop offset="0" stop-color="#38aca8"/><stop offset="1" stop-color="#5f637a"/></linearGradient><linearGradient id="linear-gradient-8" x1="1398.43" y1="442.14" x2="1956.65" y2="442.14" xlink:href="#linear-gradient-7"/><linearGradient id="linear-gradient-9" x1="1380.57" y1="243.78" x2="1543.45" y2="243.78" xlink:href="#linear-gradient-7"/><linearGradient id="linear-gradient-10" x1="953.12" y1="897.28" x2="888.96" y2="889.97" gradientUnits="userSpaceOnUse"><stop offset="0" stop-color="#ffd9d9"/><stop offset="1" stop-color="#efb4b4"/></linearGradient><linearGradient id="linear-gradient-11" x1="684.61" y1="849.21" x2="684.61" y2="1018.75" xlink:href="#linear-gradient-10"/><linearGradient id="linear-gradient-12" x1="735.5" y1="741.61" x2="735.5" y2="1011.93" xlink:href="#linear-gradient-6"/><linearGradient id="linear-gradient-13" x1="636.85" y1="764.23" x2="636.85" y2="360.28" gradientUnits="userSpaceOnUse"><stop offset="0" stop-color="#82d7db"/><stop offset="1" stop-color="#5dc9a5"/></linearGradient><linearGradient id="linear-gradient-14" x1="621.64" y1="523.71" x2="560.97" y2="528.51" xlink:href="#linear-gradient-6"/><linearGradient id="linear-gradient-15" x1="1366.47" y1="969.67" x2="1303.76" y2="962.52" xlink:href="#linear-gradient-10"/><linearGradient id="linear-gradient-16" x1="1104.03" y1="922.69" x2="1104.03" y2="1088.39" xlink:href="#linear-gradient-10"/><linearGradient id="linear-gradient-17" x1="1153.77" y1="817.53" x2="1153.77" y2="1081.73" xlink:href="#linear-gradient-6"/><linearGradient id="linear-gradient-18" x1="859.4" y1="1015.34" x2="795.24" y2="1008.03" xlink:href="#linear-gradient-10"/><linearGradient id="linear-gradient-19" x1="590.89" y1="967.28" x2="590.89" y2="1136.81" xlink:href="#linear-gradient-10"/><linearGradient id="linear-gradient-20" x1="641.78" y1="859.68" x2="641.78" y2="1130" xlink:href="#linear-gradient-6"/><linearGradient id="linear-gradient-21" x1="1114.16" y1="419.28" x2="1114.16" y2="594.72" xlink:href="#linear-gradient-6"/><linearGradient id="linear-gradient-22" x1="1080.67" y1="779.94" x2="1080.67" y2="551.05" gradientUnits="userSpaceOnUse"><stop offset="0" stop-color="#ffac06"/><stop offset="1" stop-color="#f87c18"/></linearGradient><linearGradient id="linear-gradient-23" x1="931.94" y1="802.07" x2="931.94" y2="961.56" xlink:href="#linear-gradient-5"/><filter id="luminosity-noclip-5" x="364.89" y="1051.37" width="1134.11" height="254.83" color-interpolation-filters="sRGB" filterUnits="userSpaceOnUse"><feFlood flood-color="#fff" result="bg"/><feBlend in="SourceGraphic" in2="bg"/></filter><filter id="luminosity-noclip-6" x="364.89" y="-9068.48" width="1134.11" height="32766" color-interpolation-filters="sRGB" filterUnits="userSpaceOnUse"><feFlood flood-color="#fff" result="bg"/><feBlend in="SourceGraphic" in2="bg"/></filter><mask id="mask-5" x="364.89" y="-9068.48" width="1134.11" height="32766" maskUnits="userSpaceOnUse"/><linearGradient id="linear-gradient-24" x1="930.44" y1="1023.32" x2="930.44" y2="1263.37" gradientTransform="translate(2.53 128.18) rotate(-3.15) skewX(-3.15)" xlink:href="#linear-gradient"/><mask id="mask-4" x="364.89" y="1051.37" width="1134.11" height="254.83" maskUnits="userSpaceOnUse"><g class="cls-101"><g class="cls-105"><polygon class="cls-1" points="578.64 1306.21 1499 1119.73 1177.36 1051.37 364.89 1209.77 578.64 1306.21"/></g></g></mask><linearGradient id="linear-gradient-25" x1="930.44" y1="1023.32" x2="930.44" y2="1263.37" gradientTransform="translate(2.53 128.18) rotate(-3.15) skewX(-3.15)" xlink:href="#linear-gradient-2"/><linearGradient id="linear-gradient-26" x1="1038.82" y1="909.44" x2="1038.82" y2="1405.44" xlink:href="#linear-gradient-6"/><linearGradient id="linear-gradient-27" x1="471.76" y1="929.92" x2="471.76" y2="1399.55" xlink:href="#linear-gradient-5"/><linearGradient id="linear-gradient-28" x1="1093.7" y1="458.43" x2="1008.6" y2="465.16" xlink:href="#linear-gradient-10"/><linearGradient id="linear-gradient-29" x1="1046.47" y1="378.51" x2="1046.47" y2="512.76" xlink:href="#linear-gradient-6"/><linearGradient id="linear-gradient-30" x1="963.58" y1="412.75" x2="963.58" y2="608.94" xlink:href="#linear-gradient-6"/><linearGradient id="linear-gradient-31" x1="1392.14" y1="591.53" x2="1392.14" y2="700.2" xlink:href="#linear-gradient-10"/><linearGradient id="linear-gradient-32" x1="1036.13" y1="713.98" x2="1036.13" y2="863.41" xlink:href="#linear-gradient-10"/><linearGradient id="linear-gradient-33" x1="643.8" y1="692.74" x2="405.92" y2="711.54" xlink:href="#linear-gradient-22"/><linearGradient id="linear-gradient-34" x1="593.99" y1="522.57" x2="515.1" y2="528.81" xlink:href="#linear-gradient-10"/><linearGradient id="linear-gradient-35" x1="593.85" y1="500.87" x2="424.16" y2="514.28" xlink:href="#linear-gradient-6"/><linearGradient id="linear-gradient-36" x1="702.38" y1="324.22" x2="634.46" y2="329.59" xlink:href="#linear-gradient-6"/><linearGradient id="linear-gradient-37" x1="671.44" y1="322.94" x2="583.11" y2="329.93" xlink:href="#linear-gradient-10"/><linearGradient id="linear-gradient-38" x1="671.28" y1="298.65" x2="481.31" y2="313.66" xlink:href="#linear-gradient-6"/><linearGradient id="linear-gradient-39" x1="654.9" y1="720.2" x2="920.13" y2="825.32" gradientUnits="userSpaceOnUse"><stop offset="0" stop-color="#e5e5e5"/><stop offset="1" stop-color="#fefefe"/></linearGradient><linearGradient id="linear-gradient-40" x1="608.73" y1="834.59" x2="689.89" y2="866.76" xlink:href="#linear-gradient-39"/><linearGradient id="linear-gradient-41" x1="608.27" y1="780.82" x2="410.63" y2="796.44" xlink:href="#linear-gradient-10"/><linearGradient id="linear-gradient-42" x1="894.54" y1="479.42" x2="740.29" y2="491.61" xlink:href="#linear-gradient-39"/><linearGradient id="linear-gradient-43" x1="900.45" y1="496.48" x2="854.3" y2="500.13" xlink:href="#linear-gradient-10"/><linearGradient id="linear-gradient-44" x1="2482.65" y1="1023.74" x2="2582.52" y2="1023.74" xlink:href="#linear-gradient-6"/><linearGradient id="linear-gradient-45" x1="2525.72" y1="1076.81" x2="2625.59" y2="1076.81" xlink:href="#linear-gradient-6"/><linearGradient id="linear-gradient-46" x1="1802.76" y1="607.27" x2="2081.03" y2="607.27" xlink:href="#linear-gradient-10"/><linearGradient id="linear-gradient-47" x1="2074.63" y1="999.97" x2="2553.09" y2="999.97" xlink:href="#linear-gradient-6"/><linearGradient id="linear-gradient-48" x1="2165.55" y1="1027.54" x2="2582.52" y2="1027.54" xlink:href="#linear-gradient-6"/><linearGradient id="linear-gradient-49" x1="2033.09" y1="674.24" x2="2525.72" y2="674.24" xlink:href="#linear-gradient-7"/><linearGradient id="linear-gradient-50" x1="2279.44" y1="842.41" x2="2515.75" y2="842.41" xlink:href="#linear-gradient-10"/><linearGradient id="linear-gradient-51" x1="2336.77" y1="361.22" x2="2478.86" y2="361.22" gradientTransform="translate(-177.74 367.5) rotate(-7.85)" xlink:href="#linear-gradient-10"/><linearGradient id="linear-gradient-52" x1="2330.75" y1="300.21" x2="2515.06" y2="300.21" gradientTransform="translate(-177.74 367.5) rotate(-7.85)" xlink:href="#linear-gradient-6"/><linearGradient id="linear-gradient-53" x1="1911.45" y1="1319.11" x2="1621.64" y2="861.38" xlink:href="#linear-gradient-39"/><linearGradient id="linear-gradient-54" x1="1924.89" y1="1242.92" x2="2173.41" y2="1242.92" xlink:href="#linear-gradient-39"/><linearGradient id="linear-gradient-55" x1="1963.51" y1="1258.01" x2="1728.3" y2="1265.51" xlink:href="#linear-gradient-39"/><linearGradient id="linear-gradient-56" x1="1761.64" y1="1441.69" x2="1738.21" y2="1404.68" gradientTransform="translate(1740.1 -1638.78) rotate(60.85) scale(1.07 .93) skewX(18.76)" xlink:href="#linear-gradient-7"/><filter id="luminosity-noclip-7" x="1259.85" y="1421.18" width="568.15" height="139.23" color-interpolation-filters="sRGB" filterUnits="userSpaceOnUse"><feFlood flood-color="#fff" result="bg"/><feBlend in="SourceGraphic" in2="bg"/></filter><filter id="luminosity-noclip-8" x="1259.85" y="-9068.48" width="568.15" height="32766" color-interpolation-filters="sRGB" filterUnits="userSpaceOnUse"><feFlood flood-color="#fff" result="bg"/><feBlend in="SourceGraphic" in2="bg"/></filter><mask id="mask-7" x="1259.85" y="-9068.48" width="568.15" height="32766" maskUnits="userSpaceOnUse"/><linearGradient id="linear-gradient-57" x1="1543.92" y1="1443.42" x2="1543.92" y2="1594.07" xlink:href="#linear-gradient"/><mask id="mask-6" x="1259.85" y="1421.18" width="568.15" height="139.23" maskUnits="userSpaceOnUse"><g class="cls-100"><g class="cls-113"><path class="cls-64" d="m1271.21,1421.78s-29.02,13.97,5.68,40.25c34.7,26.28,171.96,72.88,176.03,76.61,4.07,3.73,376.99,35.42,375.07,14.91-1.92-20.5-233.35-132.38-233.35-132.38l-323.43.6Z"/></g></g></mask><linearGradient id="linear-gradient-58" x1="1543.92" y1="1443.42" x2="1543.92" y2="1594.07" xlink:href="#linear-gradient-2"/><filter id="luminosity-noclip-9" x="408.34" y="1630.64" width="1293.68" height="317.02" color-interpolation-filters="sRGB" filterUnits="userSpaceOnUse"><feFlood flood-color="#fff" result="bg"/><feBlend in="SourceGraphic" in2="bg"/></filter><filter id="luminosity-noclip-10" x="408.34" y="-9068.48" width="1293.68" height="32766" color-interpolation-filters="sRGB" filterUnits="userSpaceOnUse"><feFlood flood-color="#fff" result="bg"/><feBlend in="SourceGraphic" in2="bg"/></filter><mask id="mask-9" x="408.34" y="-9068.48" width="1293.68" height="32766" maskUnits="userSpaceOnUse"/><linearGradient id="linear-gradient-59" x1="1055.18" y1="1681.27" x2="1055.18" y2="2024.29" xlink:href="#linear-gradient"/><mask id="mask-8" x="408.34" y="1630.64" width="1293.68" height="317.02" maskUnits="userSpaceOnUse"><g class="cls-106"><g class="cls-104"><path class="cls-20" d="m434.22,1632s-66.08,31.81,12.94,91.65,391.56,165.95,400.82,174.44c9.26,8.49,858.4,80.64,854.02,33.95-4.38-46.69-531.33-301.42-531.33-301.42l-736.45,1.37Z"/></g></g></mask><linearGradient id="linear-gradient-60" x1="1055.18" y1="1671.9" x2="1055.18" y2="1951.44" xlink:href="#linear-gradient-2"/><linearGradient id="linear-gradient-61" x1="1267.28" y1="1388.37" x2="1673.66" y2="1388.37" xlink:href="#linear-gradient-22"/><linearGradient id="linear-gradient-62" x1="1262.27" y1="1447.15" x2="1448.33" y2="1447.15" xlink:href="#linear-gradient-22"/><linearGradient id="linear-gradient-63" x1="1448.33" y1="1433.94" x2="1673.66" y2="1433.94" xlink:href="#linear-gradient-22"/><linearGradient id="linear-gradient-64" x1="1448.33" y1="1489.87" x2="1673.66" y2="1489.87" xlink:href="#linear-gradient-22"/><linearGradient id="linear-gradient-65" x1="1293.94" y1="1334.76" x2="1650.79" y2="1334.76" xlink:href="#linear-gradient-7"/><linearGradient id="linear-gradient-66" x1="1289.54" y1="1386.36" x2="1452.92" y2="1386.36" xlink:href="#linear-gradient-7"/><linearGradient id="linear-gradient-67" x1="1452.92" y1="1374.77" x2="1650.79" y2="1374.77" xlink:href="#linear-gradient-7"/><linearGradient id="linear-gradient-68" x1="1452.92" y1="1423.88" x2="1650.79" y2="1423.88" xlink:href="#linear-gradient-7"/><filter id="luminosity-noclip-11" x="106.39" y="1126.85" width="239.41" height="106.88" color-interpolation-filters="sRGB" filterUnits="userSpaceOnUse"><feFlood flood-color="#fff" result="bg"/><feBlend in="SourceGraphic" in2="bg"/></filter><filter id="luminosity-noclip-12" x="106.39" y="-9068.48" width="239.41" height="32766" color-interpolation-filters="sRGB" filterUnits="userSpaceOnUse"><feFlood flood-color="#fff" result="bg"/><feBlend in="SourceGraphic" in2="bg"/></filter><mask id="mask-11" x="106.39" y="-9068.48" width="239.41" height="32766" maskUnits="userSpaceOnUse"/><linearGradient id="linear-gradient-69" x1="176.03" y1="1138.06" x2="323.89" y2="1250.61" xlink:href="#linear-gradient"/><mask id="mask-10" x="106.39" y="1126.85" width="239.41" height="106.88" maskUnits="userSpaceOnUse"><g class="cls-98"><g class="cls-114"><path class="cls-32" d="m106.39,1155.14s140.58,101.02,219.26,73.98-98.45-102.28-98.45-102.28l-120.81,28.3Z"/></g></g></mask><linearGradient id="linear-gradient-70" x1="176.03" y1="1138.06" x2="323.89" y2="1250.61" gradientUnits="userSpaceOnUse"><stop offset="0" stop-color="#0c5c93"/><stop offset="1" stop-color="#0c5c93"/></linearGradient><linearGradient id="linear-gradient-71" x1="86.41" y1="1031.08" x2="264.4" y2="1031.08" xlink:href="#linear-gradient-5"/><linearGradient id="linear-gradient-72" x1="65.45" y1="896.61" x2="295.82" y2="896.61" xlink:href="#linear-gradient-6"/><linearGradient id="linear-gradient-73" x1="388.86" y1="669.81" x2="263.47" y2="862.61" xlink:href="#linear-gradient-7"/><linearGradient id="linear-gradient-74" x1="205.67" y1="792.12" x2="418.26" y2="792.12" xlink:href="#linear-gradient-13"/><linearGradient id="linear-gradient-75" x1="124.3" y1="757.82" x2="72.66" y2="837.23" xlink:href="#linear-gradient-7"/><linearGradient id="linear-gradient-76" x1="183.66" y1="881.82" x2="56.8" y2="729.46" xlink:href="#linear-gradient-13"/><linearGradient id="linear-gradient-77" x1="234.71" y1="856.8" x2="69.85" y2="658.8" xlink:href="#linear-gradient-7"/><linearGradient id="linear-gradient-78" x1="121.73" y1="618.65" x2="218.43" y2="910.83" xlink:href="#linear-gradient-13"/><linearGradient id="linear-gradient-79" x1="300.02" y1="811.51" x2="325.11" y2="887.35" xlink:href="#linear-gradient-13"/><linearGradient id="linear-gradient-80" x1="77.37" y1="834.96" x2="108.2" y2="928.11" xlink:href="#linear-gradient-13"/><linearGradient id="linear-gradient-81" x1="657.15" y1="1131.18" x2="772.8" y2="1131.18" gradientTransform="translate(-146.09 364.65) rotate(-4.66)" xlink:href="#linear-gradient-10"/><linearGradient id="linear-gradient-82" x1="686.38" y1="1395.44" x2="1420.57" y2="1395.44" gradientTransform="translate(-146.09 364.65) rotate(-4.66)" xlink:href="#linear-gradient-6"/><linearGradient id="linear-gradient-83" x1="894.93" y1="760.5" x2="1113.5" y2="760.5" gradientTransform="translate(-146.09 364.65) rotate(-4.66)" xlink:href="#linear-gradient-10"/><linearGradient id="linear-gradient-84" x1="593.08" y1="1407.96" x2="1119.81" y2="1407.96" xlink:href="#linear-gradient-22"/><linearGradient id="linear-gradient-85" x1="1060.58" y1="1165.72" x2="1483.73" y2="1165.72" gradientTransform="translate(-146.09 364.65) rotate(-4.66)" xlink:href="#linear-gradient-10"/><linearGradient id="linear-gradient-86" x1="841.26" y1="683.69" x2="1128.33" y2="683.69" gradientTransform="translate(-146.09 364.65) rotate(-4.66)" xlink:href="#linear-gradient-6"/></defs><g class="cls-112"><path class="cls-12" d="m2532.59,1018.64s-437.26,113.58-420.79,118.95c16.47,5.37,245.72,104.85,348.88,127.96s370.2-25.96,361.09-89.42c-9.1-63.46-289.18-157.49-289.18-157.49Z"/></g><g class="cls-102"><polygon class="cls-70" points="1650.18 1205.35 1634.09 1211.75 1932 1345 2403.77 1370.89 2173.41 1269.1 1650.18 1205.35"/></g><path class="cls-23" d="m1379.98,717.88l732.48,134.47c17.44,3.2,33.51-10.19,33.51-27.92V57.42c0-22.67-18.12-41.19-40.79-41.69L1386.06,0c-18.98-.41-34.58,14.85-34.58,33.84v649.83c0,16.79,11.99,31.18,28.5,34.21Z"/><path class="cls-11" d="m1345.81,723.45l732.48,134.47c17.44,3.2,33.51-10.19,33.51-27.92V62.99c0-22.67-18.12-41.19-40.79-41.69l-719.12-15.73c-18.98-.41-34.58,14.85-34.58,33.84v649.83c0,16.79,11.99,31.18,28.5,34.21Z"/><path class="cls-3" d="m2082.74,833.67l-732.48-134.47c-4.81-.88-8.3-5.07-8.3-9.95V39.41c0-5.07,4.11-9.18,9.17-9.18l719.34,15.73c9.2.2,16.67,7.84,16.67,17.03v767.01c0,1.04-.37,1.92-1.09,2.63-.42.41-1.3,1.1-2.58,1.1-.24,0-.48-.02-.73-.06Z"/><path class="cls-52" d="m1770.68,150.09c-62.95-.02-94.43-.04-157.41-.08-4.15,0-7.58-3.48-7.62-7.69,0-.12,0-.18,0-.29-.04-4.21,3.33-7.62,7.48-7.62h157.36c4.15,0,7.59,3.41,7.65,7.64,0,.12,0,.18,0,.3.06,4.23-3.3,7.75-7.45,7.75Z"/><path class="cls-82" d="m1851.99,198.84c-79.43-.53-158.86-1.12-238.29-1.79-4.16-.04-7.59-3.67-7.63-8.06,0-.12,0-.18,0-.31-.04-4.38,3.33-7.93,7.49-7.91,79.42.39,158.83.72,238.25,1,4.15.01,7.58,3.75,7.63,8.36,0,.13,0,.19,0,.32.05,4.61-3.3,8.41-7.44,8.38Z"/><path class="cls-82" d="m1852.55,250.93c-79.48-1.62-158.95-3.33-238.42-5.18-4.17-.1-7.61-3.89-7.65-8.41,0-.13,0-.19,0-.32-.04-4.52,3.34-8.14,7.5-8.07,79.46,1.4,158.92,2.67,238.38,3.86,4.14.06,7.57,4.08,7.62,8.98,0,.14,0,.21,0,.34.05,4.9-3.29,8.88-7.43,8.79Z"/><path class="cls-82" d="m1853.11,305.49c-79.52-3.13-159.04-6.38-238.55-9.83-4.17-.18-7.62-4.12-7.66-8.73,0-.13,0-.19,0-.32-.04-4.62,3.34-8.26,7.51-8.11,79.5,2.86,159,5.55,238.51,8.13,4.14.13,7.56,4.39,7.61,9.5,0,.14,0,.21,0,.36.05,5.1-3.29,9.17-7.42,9.01Z"/><path class="cls-82" d="m1813.83,359.16c-79.12-4.95-119-7.48-198.84-12.79-4.18-.28-7.63-4.34-7.67-9.01,0-.13,0-.2,0-.33-.04-4.67,3.35-8.29,7.53-8.05,79.8,4.65,119.66,6.86,198.79,11.18,4.14.23,7.58,4.6,7.63,9.74,0,.14,0,.22,0,.36.05,5.14-3.29,9.14-7.43,8.89Z"/><path class="cls-68" d="m1949.31,480.57c-181.2-19.48-362.31-39.41-543.24-61.22-4.2-.52-7.63-4.37-7.63-8.57,0-.12,0-.18,0-.29,0-4.19,3.42-7.23,7.62-6.75,180.91,20.27,361.98,38.76,543.13,56.78,4.08.4,7.43,5.19,7.46,10.62,0,.15,0,.23,0,.38.03,5.43-3.27,9.5-7.34,9.06Z"/><path class="cls-82" d="m2028.08,548.46c-207.47-26.85-414.9-53.69-621.97-83.48-4.2-.62-7.64-4.55-7.64-8.74v-.29c0-4.19,3.43-7.14,7.63-6.55,207.1,28.22,414.51,53.62,621.97,78.99,4.01.49,7.28,5.37,7.28,10.8v.38c0,5.43-3.26,9.41-7.26,8.89Z"/><path class="cls-82" d="m2028.12,605.3c-207.49-30.61-414.96-61.02-621.97-94.77-4.21-.7-7.65-4.7-7.66-8.88v-.29c0-4.18,3.44-7.05,7.64-6.37,207.03,32.51,414.49,61.82,621.97,91.27,3.98.57,7.24,5.3,7.24,10.45v.36c0,5.15-3.25,8.83-7.22,8.24Z"/><path class="cls-82" d="m2028.15,658.32c-207.51-33.12-415.02-65.9-621.97-102.39-4.22-.76-7.67-4.8-7.67-8.97v-.29c0-4.17,3.44-6.97,7.65-6.23,206.97,35.72,414.46,67.85,621.97,100.28,3.96.62,7.2,5.09,7.2,9.85v.33c0,4.75-3.23,8.06-7.19,7.42Z"/><path class="cls-82" d="m1990.09,700.03c-194.85-31.8-389.63-63.51-583.86-98.9-4.22-.79-7.68-4.83-7.68-8.99v-.29c0-4.16,3.45-6.92,7.67-6.13,194.22,35.21,388.98,66.86,583.8,98.58,3.98.65,7.25,4.74,7.27,8.99,0,.12,0,.18,0,.3.02,4.25-3.22,7.1-7.2,6.45Z"/><path class="cls-56" d="m1431.34,280.07c-6.33,21.11-9.5,31.62-15.85,52.42-13.97-1.02-20.95-1.54-34.91-2.58,23.74-71.81,35.55-109.92,58.97-183.91,17.15.01,25.73.02,42.88.03,24.22,74.29,36.43,113.48,61.03,195.5-14.53-1-21.8-1.5-36.33-2.51-6.82-22.82-10.23-34.12-17.02-56.41-23.51-1-35.26-1.51-58.76-2.55Zm52.89-24.35c-5.89-19.16-8.83-28.63-14.7-47.36-3.59-11.57-6.64-24.43-9.41-35.26-.22,0-.33,0-.55,0-2.7,10.81-5.4,23.88-8.65,35.01-5.65,18.47-8.47,27.72-14.14,46.13,18.98.6,28.47.9,47.45,1.49Z"/><path class="cls-88" d="m946.02,866.94s6.75,51.3-16.8,69.16c-23.55,17.87-63.35,25.18-75.53-5.69-12.18-30.86-63.35-107.38-63.35-107.38,0,0,120.51-12.27,155.69,43.9Z"/><path class="cls-19" d="m847.83,842.76s24.49,15.32,16.9,69.84c-7.59,54.52-31.06,75.22-93.86,66.25-62.8-8.97-212.56-113.87-224.29-106.28-11.73,7.59,20.7,17.94,11.04,24.15-9.66,6.21-17.79,11.73-37.19,6.21-19.4-5.52-26.73-59.65,0-74.53,26.73-14.88,327.39,14.35,327.39,14.35Z"/><path class="cls-4" d="m544.72,711.23s-68.28,117.39,24.16,157.37c92.44,39.97,197.85,82.95,197.85,82.95,0,0,47.95-18.81,108.82-49.01,56.8-28.19,74.75-26.44,74.75-26.44,0,0,3.33-21.65-13.32-34.14-16.66-12.49-215.69-140.24-215.69-140.24l-176.56,9.52Z"/><path class="cls-34" d="m811.9,510.39s-87.01-121.89-103.01-126.6c-16-4.71-138.38-15.47-197.14,10.26-9.76,4.27-42.83,6.46-48.23,58.22-4.55,43.61,1.01,134.32,4.78,143.69,3.77,9.36,37.66,2.88,41.42,0,3.77-2.88,15.93,133.81,15.93,133.81,0,0,61.31,27.33,135.43,9.89,74.12-17.45,85.93-14.8,85.93-14.8l-13.53-159.74s52.99-38.56,78.41-54.71Z"/><path class="cls-48" d="m620.24,461.9s14.81,11.02,7.92,29.62c-6.89,18.6-16.88,31-1.03,41.67,15.84,10.68-1.03,48.56-31,54.07-29.96,5.51-36.94-11.37-36.94-11.37l3.19-42.71,39.61-64.4,18.25-6.89Z"/><path class="cls-18" d="m1359.53,940.02s6.6,50.14-16.42,67.6c-23.02,17.46-61.92,24.61-73.82-5.56s-61.92-104.95-61.92-104.95c0,0,117.78-11.99,152.16,42.91Z"/><path class="cls-37" d="m1263.56,916.39s23.94,14.97,16.52,68.26c-7.42,53.28-30.35,73.52-91.73,64.75-61.38-8.77-207.74-111.29-219.21-103.87-11.47,7.42,20.23,17.54,10.79,23.61-9.44,6.07-17.39,11.47-36.35,6.07-18.96-5.4-26.13-58.3,0-72.84,26.13-14.54,319.98,14.03,319.98,14.03Z"/><path class="cls-5" d="m967.31,787.83s-66.73,114.74,23.61,153.8c90.35,39.07,193.37,81.07,193.37,81.07,0,0,46.87-18.38,106.35-47.9,55.51-27.55,73.06-25.84,73.06-25.84,0,0,3.26-21.16-13.02-33.37-16.28-12.21-210.81-137.07-210.81-137.07l-172.56,9.31Z"/><path class="cls-73" d="m852.3,985.01s6.75,51.3-16.8,69.16c-23.55,17.87-63.35,25.18-75.53-5.69s-63.35-107.38-63.35-107.38c0,0,120.51-12.27,155.69,43.9Z"/><path class="cls-6" d="m754.1,960.83s24.49,15.32,16.9,69.84c-7.59,54.52-31.06,75.22-93.86,66.25-62.8-8.97-212.56-113.87-224.29-106.28-11.73,7.59,20.7,17.94,11.04,24.15-9.66,6.21-17.79,11.73-37.19,6.21s-26.73-59.65,0-74.53c26.73-14.88,327.39,14.35,327.39,14.35Z"/><path class="cls-45" d="m450.99,829.29s-68.28,117.39,24.16,157.37c92.44,39.97,197.85,82.95,197.85,82.95,0,0,47.95-18.81,108.82-49.01,56.8-28.19,74.75-26.44,74.75-26.44,0,0,3.33-21.65-13.32-34.14-16.66-12.49-215.69-140.24-215.69-140.24l-176.56,9.52Z"/><path class="cls-10" d="m1093.33,393.5s30.39-3.09,28.52,21.13c-1.87,24.23-11.2,91.97,5.13,110.82,16.33,18.84,32.19,13.01,32.19,13.01,0,0-15.86,16.6-46.65,17.05-30.79.45-43.38-17.5-43.38-17.5l3.27-125.62,20.92-18.89Z"/><path class="cls-38" d="m1136.1,515.03l-170.48,4.74s-35.03,4.2-44.22,38.64c-9.18,34.44-17.2,128.83-17.2,128.83,0,0-1.53,8.42,24.49,12.25,26.02,3.83,34.44,0,34.44,0v86.49s39.75,20.29,106.55,14.07c66.79-6.21,77.55-21.52,77.55-21.52l-5-165.53,71.18,46.69s31.38-10.72,38.27-29.85,5.36-32.91,5.36-32.91l-120.93-81.89Z"/><polygon class="cls-35" points="578.64 925.93 1499 836.22 1246.98 778.52 364.89 860.59 578.64 925.93"/><g class="cls-108"><polygon class="cls-46" points="578.64 1306.21 1499 1119.73 1177.36 1051.37 364.89 1209.77 578.64 1306.21"/></g><polygon class="cls-71" points="578.64 925.93 578.64 1294.63 599.62 1289.85 599.62 949.3 1479.15 852.23 1479.15 1121.19 1499 1119.73 1499 836.22 578.64 925.93"/><polygon class="cls-57" points="364.89 860.59 364.89 1209.77 381.09 1216.48 381.09 888.07 557.86 944.2 557.86 1289.36 578.64 1294.63 578.64 925.93 364.89 860.59"/><path class="cls-84" d="m1105.35,404.25s2.87,19.34,1.8,25.91c-1.08,6.56-1.8,11.05-1.8,11.05,0,0,4.79,20.04,2.04,37.31-2.76,17.27-9.22,30.05-13.17,32.82s-25.86,2.76-25.86,2.76v12.44s-7.9,3.45-25.14,3.11-29.79-6.83-29.79-6.83c0,0,1.45-48.68-3.22-54.21s-18.71-29.47-6.5-45.71c12.21-16.24,57.82-29.71,57.82-29.71l43.82,11.05Z"/><path class="cls-80" d="m1106.54,399.28c.64,21.58-13.3,34.82-46.91,40.15-33.61,5.33-30.66,27.71-30.66,27.71,0,0-5.54-24.87-11.82-25.23-6.28-.36-3.69,15.28,0,25.23s1.26,15.63-3.8,15.63-28.71-34.11-26.86-57.56c1.85-23.45-.1-27.8-.1-27.8,0,0,11.18-36.51,65.48-38.64,54.3-2.13,54.67,40.5,54.67,40.5Z"/><path class="cls-75" d="m997.88,389.43s-25.28-12.69-41.23,0c-15.95,12.69-21.41,28.03-10.48,78.85,10.93,50.83,5.44,69.23-5.71,80.63-11.15,11.39-18.81,10.08-18.81,10.08,0,0,35.91,20.16,60.51-12.71,24.6-32.86,10.61-87.64,10.09-108.23-.52-20.59,13.14-21.47,13.14-21.47,0,0,1.53-23.74-7.52-27.15Z"/><path class="cls-24" d="m1256.21,612.14s16.52,13.58,43.15,13.57c51.98-.02,133.11-14.43,139.4-20.72,9.51-9.51,57.56-29.49,68.97-29.49s51.85,13.32,51.85,13.32c0,0,3.33,7.61-14.27,7.61s-26.16-2.38-37.1,1.9c-10.94,4.28-17.6,10.94-17.6,10.94,0,0-.48,7.69,13.32,3.13,13.79-4.56,16.65,4.48,16.65,4.48,0,0-23.31,14.75-39.96,16.17-16.65,1.43-28.06,0-28.06,0,0,0-125.58,41.38-154.12,42.81-28.54,1.43-73.99-20.96-73.99-20.96,0,0,27.11-13.73,31.76-42.76Z"/><path class="cls-44" d="m963.12,699.48v21.48s86.98,56.75,104.71,57.56c17.72.8,57.31-2.19,72.75,9.9,15.44,12.09,30.57,32.41,24.52,35-6.05,2.59-25.94,10.81-38.04,3.89-12.1-6.92-33.54-21.62-46.38-19.89-12.84,1.73-20.56,4.53-34.89-2.16-14.33-6.69-130.99-44.96-136.61-57.93-5.62-12.97-2.51-55.42-2.51-55.42,0,0,24.81,8.99,56.45,7.57Z"/><path class="cls-27" d="m1142.22,613l3.76-40.65s4.04,29.02,32.77,46.24,52.34,32.47,52.34,32.47l-17.68,8.63-71.18-46.69Z"/><path class="cls-27" d="m963.12,699.48l9.69-97.62s-15.74,70.35-26.56,80.68c-10.82,10.33-17.94,14.68-17.94,14.68l34.81,2.27Z"/><path class="cls-47" d="m1068.35,514.1s-18.9-9.15-27.99-20.16l-9.09-11.01s2.69,14.57,13.13,23.96c10.43,9.39,9.13,22.79,9.13,22.79l14.82-3.13v-12.44Z"/><path class="cls-7" d="m631.07,819.77s-29.24,5.43-103.51,13.04-84.79-7.02-84.79-7.02l4.09-105.26s-14.03,5.85-34.5,3.51c-20.47-2.34-28.07-12.28-28.07-12.28,0,0,30.76-110.66,50.06-126.45,19.3-15.79,195.32-19.3,203.51-11.11l50.06,94.58s.74,10.31-17.67,19.88c-18.41,9.57-39.77,3.26-39.77,3.26l.6,127.85Z"/><path class="cls-28" d="m606.12,482.91s2.07,33.41-2.07,46.49c-4.13,13.09-16.19,28.24-21.01,28.93s-15.84,0-15.84,0v23.07s.29,7.47-22.73,8.9c-23.02,1.42-32.72-13.03-32.72-13.03v-85.76l24.8-28.24,69.57,19.63Z"/><path class="cls-42" d="m623.68,463.28c1.03,21.55-16.88,26.17-37.54,32.03s-26.95,3.79-26.95,3.79c0,0-2.67-11.71-10.59-12.4s-11.71,7.23-11.02,16.53c.69,9.3,4.02,62.99-19.75,70.57-23.76,7.58-6.48,11.49-23.1,23.06-16.62,11.58-59,14.07-74.15-13.48-15.15-27.55-12.42-58.24,24.7-68.43,30.18-8.29,44.08-25.49,45.12-44.43,1.03-18.94,27.55-64.75,75.42-60.61s57.17,38.92,57.86,53.38Z"/><path class="cls-65" d="m700.82,255.03s16.58,12.34,8.87,33.16c-7.71,20.82-18.89,34.7-1.16,46.65,17.74,11.95-1.16,54.36-34.7,60.53-33.54,6.17-41.35-12.72-41.35-12.72l3.57-47.81,44.34-72.1,20.43-7.71Z"/><path class="cls-93" d="m685.01,278.54s2.31,37.4-2.31,52.05c-4.63,14.65-18.12,31.62-23.52,32.39-5.4.77-17.74,0-17.74,0v25.83s.33,8.37-25.45,9.96c-25.77,1.59-36.63-14.59-36.63-14.59v-96l27.76-31.62,77.88,21.98Z"/><path class="cls-2" d="m704.67,256.57c1.15,24.12-24.02,30.99-47.16,37.55-23.13,6.55-33.79,22.95-33.79,22.95,0,0,.37-32.58-8.5-33.35-8.87-.77-12.18,18.17-11.41,28.58.77,10.41,8.96,59.51-17.64,67.99-26.6,8.48-7.25,12.86-25.86,25.82-18.61,12.96-66.05,15.75-83.01-15.09-16.96-30.84-13.9-65.2,27.65-76.61,33.79-9.28,49.35-28.53,50.51-49.74,1.16-21.21,30.84-72.48,84.44-67.86,53.59,4.63,64,43.57,64.77,59.76Z"/><polygon class="cls-53" points="886.41 848.33 679.75 873.34 679.75 682.38 886.41 668.66 886.41 848.33"/><polygon class="cls-31" points="679.75 873.34 604.75 852.23 679.75 843.52 679.75 873.34"/><path class="cls-30" d="m392.27,717.97s-10.42,42.92,5.9,60.56c16.32,17.64,155.65,64.49,174.93,62.69s32.66,3.07,42.28,12.7c9.63,9.63,20.09,3.77,31.39,0,11.3-3.77,1.46-21.29-11.62-29.27-13.07-7.98-44.46-7.56-54.51-10.49-10.04-2.93-131.04-62.68-134.79-67.75-3.74-5.07-1.98-24.86-1.98-24.86,0,0-40.35,3.19-51.61-3.58Z"/><path class="cls-96" d="m738.48,561.49s.27-79.09-2.98-101.17c-3.25-22.09-12.53-39.58-12.53-39.58,0,0,18.55,21.01,20.23,41.17,1.69,20.16,5.78,44.4,5.78,44.4l-10.5,55.18Z"/><polygon class="cls-17" points="918.13 400.51 776.86 400.51 732.39 569.28 873.67 569.28 918.13 400.51"/><path class="cls-36" d="m894.53,478.5s2.02-17.15,6.72-18.16c4.71-1.01,10.09,31.61,6.05,42.37-4.03,10.76-17.09,32.7-23.68,31.82-6.58-.88-35.84-31.82-34.15-44.59,1.68-12.78,5.72-32.32,20.85-26.25,15.13,6.07,24.21,14.82,24.21,14.82Z"/><path class="cls-76" d="m2519.36,962.83s38.74-16.7,48.11-12.44c9.37,4.26,22.15,107.34,10.22,116.71s-47.77,35.78-64.81,29.82c-17.04-5.96-46.96-17.89-18.37-37.48,28.59-19.59,15.03-6.83,15.03-31.53s-2.37-60.23,9.82-65.08Z"/><path class="cls-51" d="m2562.43,1015.9s38.74-16.7,48.11-12.44c9.37,4.26,22.15,107.34,10.22,116.71-11.93,9.37-47.77,35.78-64.81,29.82-17.04-5.96-46.96-17.89-18.37-37.48,28.59-19.59,15.03-6.83,15.03-31.53s-2.37-60.23,9.82-65.08Z"/><path class="cls-81" d="m2033.09,641.1s-9.26,12.07-14.77,12.16c-5.51.09-97.67-84.05-99.67-94.07-2-10.02,5.01-17.73-4.01-32.91-9.02-15.18-19.03-28.7-19.03-28.7,0,0-7.01.5-3.51,12.52,3.51,12.02,4.51,16.18,4.51,16.18,0,0-45.12-47.73-52.63-47.73s32.97,50.37,32.97,50.37c0,0-42.22-45.4-49.23-46.4-7.01-1,35.34,51.2,35.34,51.2,0,0-35.56-42.65-44.58-42.65s34.19,48.37,34.19,48.37c0,0-42.21-35.42-49.22-33.88-7.01,1.54,41.57,43.11,41.57,43.11,0,0-25.11-12.93-31.54-13.66-6.43-.73,52.66,45.21,59.88,48.72,7.22,3.51,21.74,6.01,21.74,6.01,0,0,96.16,146.75,119.7,146.25,23.54-.5,66.22-42.75,66.22-42.75,0,0-42.68-32.33-47.94-52.14Z"/><path class="cls-69" d="m2246.67,853.69s-169.3,167.18-171.89,217.29,29.38,81.21,105.4,74.3c76.03-6.91,368.05-108,368.05-108,0,0,13.82-41.47-5.18-69.12-19.01-27.65-17.34-20.64-17.34-20.64l-106.21,33.6s63.93-57.89,69.12-81.21c5.18-23.33-4.06-34.7-4.06-34.7,0,0-58.38,29.19-139.47,21.14-81.1-8.04-98.42-32.67-98.42-32.67Z"/><path class="cls-66" d="m2317.2,880.61s-128.25,190.37-144.62,227.97c-16.37,37.6-12.68,101.32,106.83,75.17,119.51-26.15,289.39-98.51,289.39-98.51,0,0,21.86-8.38,10.42-45.15-11.44-36.77-20.85-28.78-20.85-28.78,0,0-165.17,47.42-176.61,45.79-11.44-1.63,63.25-50.56,92.91-100.86,29.66-50.3,18.74-85.17,9.9-91.02,0,0-97.09,31.74-167.36,15.39Z"/><path class="cls-67" d="m2033.54,627.68l102.83-125.47s94.66-42.31,149.81-42.15c55.15.16,176.16,31.44,176.16,31.44l63.38,189.21s-5.76,5.05-27.99,15.75c-22.23,10.7-28.81,10.7-28.81,10.7l15.64,158.05s-18.11,25.52-110.3,23.05c-92.19-2.47-127.59-34.57-127.59-34.57l-73.06-232.88-81.01,78.95s-65.5-32.09-59.07-72.08Z"/><path class="cls-43" d="m2435.71,700s37.83-3,55.25-11.41c17.42-8.41,20.42-14.35,20.42-14.35,0,0,5.4,36.57,4.2,41.97-1.2,5.4-138.95,204.79-141.54,218.6-2.59,13.81-3.79,22.22-15.8,32.43-12.01,10.21-51.19,47.71-72.81,42.9-21.62-4.8,21.46-62.45,31.97-71.73,16.03-14.17,41.21-70.32,49.02-84.73s69.29-153.69,69.29-153.69Z"/><path class="cls-96" d="m2401.01,518.97s-17.74,11.54-11.97,36.94c5.77,25.4,46.67,144.09,46.67,144.09l-11.2,22.65s-51.05-155.78-42.39-180.02c8.66-24.24,18.89-23.66,18.89-23.66Z"/><path class="cls-96" d="m2173.61,620.81s-4.5-22.1-8.05-48.46c-3.56-26.36-4.36-38.63-4.36-38.63,0,0-6.45,28.45-6.45,55.84v31.25l-80.1,68.33,17.97,10.62,81.01-78.95Z"/><path class="cls-74" d="m2177.8,337.28s2.44,32.06,4.97,36.06c2.53,4,5.94,8.66,5.94,8.66,0,0-.36,20.99,2,34.89,2.35,13.9,15.52,49.22,21.38,51.57,5.86,2.35,31.06-1.12,31.06-1.12l2.78,20.16s28.4-.36,43.64-4.44c15.24-4.08,33.74-16.01,33.74-16.01,0,0-5.38-49.78-2.34-59.26,3.04-9.48,7.47-61.26-6.74-75.5-14.21-14.24-60.47-27.22-60.47-27.22l-75.94,32.2Z"/><path class="cls-50" d="m2169.08,322.43c3.15,22.88-2.98,22.29,39.82,18.72s52.18-13.24,52.18-13.24c0,0,1.02,31.05,9.2,39.7,8.18,8.65,7.56,21.04,7.56,21.04,0,0,10.73.18,8.89-9.81-1.84-9.99,7.23-28.59,19.26-25.76,12.03,2.83-2.11,38.76,7.16,51.92s33.85-17.83,40.81-58.53c6.96-40.7-15.61-65.99-21.54-68.43-5.92-2.44-12.77-28.5-38.53-29.6-25.76-1.1-129.59,39.28-124.81,74Z"/><path class="cls-90" d="m2243.13,467.34s18.84-12.36,30.08-24.63c11.24-12.27,12.72-15.96,12.72-15.96,0,0-2.81,19.29-12.83,29.63-10.02,10.34-8.13,30.22-8.13,30.22l-19.07.9-2.78-20.16Z"/><path class="cls-41" d="m2322.58,460.06s-39.98,21.95-45.85,25.36l-5.87,3.41,23.86,30.14,55.58-51.75s-11.79-10.99-27.72-7.17Z"/><path class="cls-41" d="m2262.88,487.5s-19.9,3.89-27.71,8.68l-7.81,4.79v-32l15.77-1.63,19.74,20.16Z"/><polygon class="cls-61" points="1591.22 898.16 1902.82 1001.94 1945.88 1320.57 1638.67 1191.83 1591.22 898.16"/><polygon class="cls-39" points="1945.88 1320.57 2173.41 1258.84 1924.89 1165.26 1945.88 1320.57"/><polygon class="cls-86" points="2173.41 1258.84 1945.88 1320.57 1945.88 1331.34 2173.41 1269.1 2173.41 1258.84"/><polygon class="cls-40" points="1945.88 1331.34 1650.18 1205.35 1646.41 1195.36 1945.88 1320.57 1945.88 1331.34"/><ellipse class="cls-85" cx="1750.67" cy="1103.11" rx="18.19" ry="26.84" transform="translate(-302.05 1363.98) rotate(-39.46)"/><polygon class="cls-86" points="1932 1217.86 1942.44 1295.09 2055.39 1266.27 1932 1217.86"/><g class="cls-109"><path class="cls-49" d="m1271.21,1421.78s-29.02,13.97,5.68,40.25c34.7,26.28,171.96,72.88,176.03,76.61,4.07,3.73,376.99,35.42,375.07,14.91-1.92-20.5-233.35-132.38-233.35-132.38l-323.43.6Z"/></g><g class="cls-107"><path class="cls-13" d="m664.03,1690.16s-41.62,20.04,8.15,57.73c49.78,37.7,246.65,104.54,252.48,109.88,5.83,5.35,540.72,50.8,537.96,21.39-2.76-29.41-291.95-248.53-291.95-248.53l-506.64,59.52Z"/></g><polygon class="cls-14" points="1448.33 1464.7 1448.33 1510.99 1267.28 1430.31 1270.44 1377.14 1448.33 1464.7"/><polygon class="cls-72" points="1267.28 1374.18 1448.33 1454.52 1673.66 1403.18 1491.61 1322.23 1267.28 1374.18"/><path class="cls-8" d="m1262.27,1423.96v-40.53c0-8.62,9.74-14.17,17.92-10.22l168.15,81.31v10.18l-162.14-77.8c-6.84-3.28-14.98,1.37-14.98,8.57v26.31c0,5.59,3.42,10.7,8.8,13.13l168.32,76.08v11.38l-175.05-81.75c-6.75-3.15-11.01-9.61-11.01-16.67Z"/><polygon class="cls-26" points="1448.33 1464.7 1673.66 1411.88 1673.66 1403.18 1448.33 1454.52 1448.33 1464.7"/><polygon class="cls-83" points="1448.33 1522.38 1673.66 1466.06 1673.66 1457.36 1448.33 1512.19 1448.33 1522.38"/><polygon class="cls-16" points="1448.33 1464.7 1448.33 1512.19 1673.66 1457.36 1673.66 1411.88 1448.33 1464.7"/><polygon class="cls-14" points="1452.92 1401.78 1452.92 1442.43 1293.94 1371.58 1296.72 1324.89 1452.92 1401.78"/><polygon class="cls-63" points="1293.94 1322.3 1452.92 1392.84 1650.79 1347.76 1490.93 1276.67 1293.94 1322.3"/><path class="cls-33" d="m1289.54,1366.01v-35.59c0-7.57,8.55-12.45,15.73-8.98l147.65,71.4v8.94l-142.38-68.32c-6.01-2.88-13.15,1.2-13.15,7.53v23.1c0,4.91,3,9.39,7.73,11.53l147.8,66.81v10l-153.71-71.78c-5.92-2.77-9.67-8.43-9.67-14.64Z"/><polygon class="cls-9" points="1452.92 1401.78 1650.79 1355.4 1650.79 1347.76 1452.92 1392.84 1452.92 1401.78"/><polygon class="cls-78" points="1452.92 1452.42 1650.79 1402.98 1650.79 1395.33 1452.92 1443.48 1452.92 1452.42"/><polygon class="cls-16" points="1452.92 1401.78 1452.92 1443.48 1650.79 1395.33 1650.79 1355.4 1452.92 1401.78"/><g class="cls-99"><path class="cls-29" d="m106.39,1155.14s140.58,101.02,219.26,73.98-98.45-102.28-98.45-102.28l-120.81,28.3Z"/></g><path class="cls-25" d="m65.45,896.61l40.94,258.54c0,5.74,33.24,10.4,74.25,10.4s74.25-4.66,74.25-10.4l40.94-258.54H65.45Z"/><ellipse class="cls-79" cx="180.63" cy="896.61" rx="115.19" ry="16.13"/><path class="cls-22" d="m455.78,688.55s-100.39-.1-154.43,83.78c-56.09,87.06-55.09,137.72-55.09,137.72l-38.46,2.69s-27.62-25.93,0-83.51c27.62-57.58,136.84-179.6,247.98-140.67Z"/><path class="cls-92" d="m180.63,912.74s1.43-134.79,88.82-204.2c87.39-69.41,186.32-19.99,186.32-19.99,0,0-95.72-13.14-163.18,43.65-67.46,56.79-84.8,180.54-84.8,180.54h-27.16Z"/><path class="cls-97" d="m189.13,912.71l-29.62-.74-27.74-.74s-4.22-53.68-37.09-108.94C61.74,747.04,0,694.37,0,694.37c0,0,58.72-5.83,127.02,61.73,68.22,67.56,62.11,156.6,62.11,156.6Z"/><path class="cls-15" d="m189.13,912.71l-29.62-.74c-4.67-27.3-15.83-68.49-42.14-115.05C70.1,713.16,0,694.37,0,694.37c0,0,58.72-5.83,127.02,61.73,68.22,67.56,62.11,156.6,62.11,156.6Z"/><path class="cls-54" d="m224.34,911.5l-18.69.28-39.73.65s-5.8-130.41-40.25-231.48c-34.45-101.16-71.61-116.06-71.61-116.06h.98c9.35,0,84.73,3.52,134.25,116.16,52.77,120.23,35.05,230.46,35.05,230.46Z"/><path class="cls-89" d="m224.34,911.5l-18.69.28c-.68-49.89-8.14-133.28-43.87-217.5-51.94-122.45-99.35-129.11-106.74-129.39,9.35,0,84.73,3.52,134.25,116.16,52.77,120.23,35.05,230.46,35.05,230.46Z"/><path class="cls-95" d="m212.22,912.43s12.75-101.4,97.36-123.51c84.61-22.1,121.22,51.58,121.22,51.58,0,0-54.01-22.1-102.62-6.63-48.61,15.47-61.24,73.41-61.24,73.41l-54.72,5.15Z"/><path class="cls-94" d="m159.51,911.97s-13.98-57.69-59.05-80.52c-45.07-22.83-81.13,0-81.13,0,0,0,37.18.69,66.48,24.9,29.3,24.21,36.62,55.43,36.62,55.43l37.07.19Z"/><path class="cls-21" d="m605.23,1403.38s-17.78,75.99,21.96,81.98c39.74,6,91.12-29.36,91.12-29.36,0,0-31.77-78.18-32.64-74.67-.87,3.51-80.44,22.05-80.44,22.05Z"/><path class="cls-59" d="m681.82,1595.34s-70.96,98.81-.35,138.85c70.61,40.04,93.55,43.26,150.95,67.16,40.92,17.04,106.93-12.18,204.53-20.14,97.6-7.96,362.32-88.48,345.48-146.38-16.84-57.89-141.97-59.1-256.96-68.23-114.99-9.13-141.3-18.74-141.3-18.74l-302.35,47.47Z"/><path class="cls-60" d="m1015.07,903.52s3.7,46.73.53,58.36c-3.17,11.64-11.3,19.13-11.3,19.13,0,0,14.73,17,13.87,25.42-.86,8.41-4.35,67.86-15.73,77.13-11.38,9.27-42.78,5.56-47.13,17.39s-6.23,66.86-6.23,66.86c0,0-57.51-20.62-87.12-30.33-29.62-9.71-50.14-19.62-49.06-24.91,1.09-5.3,4.64-96.38,27.79-140.48,23.15-44.1,174.37-68.57,174.37-68.57Z"/><path class="cls-77" d="m767.26,1137.32s21.56-36.58,71.28-14.39c49.72,22.19,114.93,35.46,118.98,46.5,4.05,11.04,5.56,29.63,5.56,29.63,0,0,98.76,44.6,103.12,79.28,4.35,34.67,53.12,250.87,53.12,250.87,0,0,7.46,15.95-35.63,27.99-43.08,12.03-76.11-7.31-76.11-7.31l5.98,73.36s16.71,59.72-81.79,74.04-119.3-30.78-169.5-28.78c-50.2,1.99-79.31-33.4-80.46-73.18-1.14-39.78-7.82-188.62-7.82-188.62,0,0-8.95-.23-35.97,2.93s-44.95-14.72-44.95-14.72c0,0,37.09-236.9,62.3-249.43,25.21-12.53,111.88-8.18,111.88-8.18Z"/><path class="cls-62" d="m1015.07,1554.38s15.06,122.2,94.05,86.58c79-35.63,212.25-254.2,241.74-276.55,29.49-22.34,78.44-68.7,64.67-81.7-13.77-13-38.89-39.23-37.84-47.62,1.06-8.39,26.82-35.49,18.93-39.91-7.89-4.42-67.34,60.97-71.13,79.02-3.8,18.05-14.48,51.68-14.48,51.68l-191.68,203.34s-66.89,49.31-104.25,25.16Z"/><path class="cls-91" d="m1025.79,876.85c14.21,30.16-26.72,61.34-43.82,71.08-17.1,9.74,7.8,63.93-5.69,75.22-13.49,11.29-36.98-53.54-52.74-51.5s-12.07,47.29.58,62.93,2.1,53.67-12.15,55.59c-14.26,1.92-85.52,30.3-107.57-7.63-22.06-37.93-64.11-78.5-55.03-116.4,9.08-37.91,33.64-43.7,33.64-43.7,0,0,7.5-84.81,92.95-87.98,85.45-3.18,133.34,7.33,149.85,42.39Z"/><path class="cls-58" d="m1007.59,1549.9s-15.45-134.95-14.54-178.14c.91-43.19,14.55-65.97,14.55-65.97,0,0-24.79,15.55-30.64,82.63-5.85,67.09-8.29,200.12-3.49,231.83,4.8,31.71,4.95,63.67,4.95,63.67,0,0,39.01-13.36,36.16-48.37-2.86-35.02-6.98-85.64-6.98-85.64Z"/><polygon class="cls-58" points="674 1406.72 677.13 1218.15 638.03 1409.66 674 1406.72"/></svg>