<?xml version="1.0" standalone="no"?>
<!DOCTYPE svg PUBLIC "-//W3C//DTD SVG 20010904//EN"
 "http://www.w3.org/TR/2001/REC-SVG-20010904/DTD/svg10.dtd">
<svg version="1.0" xmlns="http://www.w3.org/2000/svg"
 width="512.000000pt" height="512.000000pt" viewBox="0 0 512.000000 512.000000"
 preserveAspectRatio="xMidYMid meet">
<metadata>
Created by potrace 1.14, written by Peter Selinger 2001-2017
</metadata>
<g transform="translate(0.000000,512.000000) scale(0.100000,-0.100000)"
fill="#000000" stroke="none">
<path d="M0 2560 l0 -2560 2560 0 2560 0 0 2560 0 2560 -2560 0 -2560 0 0
-2560z m640 -105 l0 -475 230 0 230 0 0 -100 0 -100 -350 0 -350 0 0 575 0
575 120 0 120 0 0 -475z m1152 196 c59 -19 130 -72 170 -129 45 -66 68 -158
68 -276 l0 -86 -285 0 -286 0 7 -37 c15 -86 71 -153 142 -173 79 -22 225 -4
325 39 l47 20 0 -93 0 -93 -72 -24 c-64 -21 -92 -24 -223 -24 -132 1 -157 3
-206 23 -117 47 -193 127 -230 242 -37 119 -24 333 27 432 42 82 149 164 241
188 48 12 226 6 275 -9z m960 -1 c78 -24 138 -73 170 -138 23 -46 23 -54 26
-389 l3 -343 -83 0 -83 0 -23 60 -24 60 -55 -50 c-72 -65 -132 -84 -257 -78
-107 4 -165 31 -208 95 -68 99 -64 257 8 341 63 74 150 101 354 111 l135 6 -2
48 c-4 60 -15 83 -56 107 -48 30 -130 26 -239 -10 -50 -17 -92 -29 -93 -28 -1
2 -18 37 -37 80 l-36 76 46 20 c42 17 96 33 157 46 11 2 68 4 126 5 81 1 123
-4 171 -19z m1018 -13 c0 -19 -3 -68 -6 -109 l-7 -76 -81 -4 c-126 -7 -198
-56 -226 -157 -5 -20 -10 -143 -10 -273 l0 -238 -115 0 -115 0 0 440 0 440 89
0 89 0 13 -65 c12 -62 24 -95 31 -85 82 113 161 160 270 160 l68 0 0 -33z
m791 16 c36 -12 70 -33 100 -63 75 -72 79 -95 79 -482 l0 -328 -115 0 -115 0
0 276 c0 169 -4 292 -11 319 -22 86 -88 124 -180 104 -66 -14 -94 -39 -120
-107 -21 -53 -23 -77 -27 -324 l-4 -268 -114 0 -114 0 0 440 0 440 89 0 88 0
17 -61 17 -60 49 45 c70 66 119 83 236 85 43 1 93 -6 125 -16z m-2071 -1215
c0 -123 -1 -227 0 -231 0 -4 14 8 31 28 54 61 111 88 199 93 176 10 291 -84
336 -274 23 -97 15 -315 -14 -396 -56 -155 -153 -228 -305 -228 -94 0 -140 16
-198 68 -27 24 -52 41 -57 38 -5 -3 -17 -26 -26 -51 l-18 -45 -89 0 -89 0 0
610 0 610 115 0 116 0 -1 -222z m-1850 -323 l0 -475 230 0 230 0 0 -100 0
-100 -350 0 -350 0 0 575 0 575 120 0 120 0 0 -475z m1162 195 c78 -24 138
-73 170 -138 23 -46 23 -54 26 -389 l3 -343 -83 0 -83 0 -23 60 -24 60 -55
-50 c-72 -65 -132 -84 -257 -78 -107 4 -165 31 -208 95 -68 99 -64 257 8 341
63 74 150 101 354 111 l135 6 -2 48 c-4 60 -15 83 -56 107 -48 30 -130 26
-239 -10 -50 -17 -92 -29 -93 -28 -1 2 -18 37 -37 80 l-36 76 46 20 c42 17 96
33 157 46 11 2 68 4 126 5 81 1 123 -4 171 -19z"/>
<path d="M1587 2496 c-21 -8 -48 -22 -59 -33 -25 -22 -57 -90 -58 -120 0 -23
0 -23 170 -23 186 0 178 -3 159 63 -15 56 -61 103 -113 116 -54 13 -52 13 -99
-3z"/>
<path d="M2559 2180 c-107 -18 -161 -80 -144 -166 18 -101 203 -98 272 4 22
33 40 129 29 157 -6 17 -75 19 -157 5z"/>
<path d="M2623 1140 c-78 -18 -107 -59 -125 -174 -13 -88 1 -220 30 -270 45
-77 159 -103 222 -50 61 52 75 94 75 234 0 115 -2 130 -25 175 -37 71 -104
103 -177 85z"/>
<path d="M1609 840 c-107 -18 -161 -80 -144 -166 18 -101 203 -98 272 4 22 33
40 129 29 157 -6 17 -75 19 -157 5z"/>
</g>
</svg>
