<?xml version="1.0" encoding="UTF-8"?><svg id="Layer_4" xmlns="http://www.w3.org/2000/svg" xmlns:xlink="http://www.w3.org/1999/xlink" viewBox="0 0 3000 2500"><defs><style>.cls-1{opacity:.37;}.cls-1,.cls-2,.cls-3,.cls-4,.cls-5,.cls-6,.cls-7,.cls-8,.cls-9,.cls-10,.cls-11,.cls-12,.cls-13,.cls-14,.cls-15,.cls-16,.cls-17,.cls-18,.cls-19,.cls-20,.cls-21,.cls-22,.cls-23,.cls-24,.cls-25,.cls-26,.cls-27,.cls-28,.cls-29,.cls-30,.cls-31,.cls-32,.cls-33,.cls-34,.cls-35,.cls-36,.cls-37,.cls-38,.cls-39,.cls-40,.cls-41,.cls-42,.cls-43,.cls-44,.cls-45,.cls-46,.cls-47,.cls-48,.cls-49,.cls-50,.cls-51,.cls-52,.cls-53,.cls-54,.cls-55,.cls-56,.cls-57,.cls-58{stroke-width:0px;}.cls-1,.cls-5,.cls-10,.cls-11,.cls-12,.cls-14,.cls-15,.cls-16,.cls-19,.cls-20,.cls-21,.cls-22,.cls-23,.cls-24,.cls-26,.cls-30,.cls-34,.cls-35,.cls-38,.cls-39,.cls-42,.cls-48,.cls-49,.cls-50,.cls-52,.cls-55,.cls-57,.cls-58{fill:#141414;}.cls-2{fill:#a3a3a3;}.cls-59{stroke-width:8.65px;}.cls-59,.cls-60{fill:none;stroke:#a3a3a3;stroke-linecap:round;stroke-linejoin:round;}.cls-3{fill:url(#linear-gradient-12);}.cls-4{fill:url(#linear-gradient-17);}.cls-5{opacity:.81;}.cls-6{fill:url(#linear-gradient-19);}.cls-7{fill:url(#linear-gradient);}.cls-8{fill:url(#linear-gradient-21);}.cls-9{fill:url(#linear-gradient-6);}.cls-10{opacity:.22;}.cls-11{opacity:.7;}.cls-12{opacity:.78;}.cls-13{fill:url(#linear-gradient-15);mix-blend-mode:multiply;}.cls-14{opacity:.52;}.cls-61{isolation:isolate;}.cls-62{opacity:.2;}.cls-15{opacity:.59;}.cls-16{opacity:.07;}.cls-17{fill:url(#linear-gradient-11);}.cls-18{fill:url(#linear-gradient-5);}.cls-20{opacity:0;}.cls-21{opacity:.3;}.cls-22{opacity:.11;}.cls-23{opacity:.19;}.cls-24{opacity:.74;}.cls-25{fill:url(#linear-gradient-13);}.cls-26{opacity:.96;}.cls-27{fill:url(#linear-gradient-23);}.cls-28{fill:url(#linear-gradient-25);}.cls-29{fill:url(#linear-gradient-22);}.cls-30{opacity:.56;}.cls-31{fill:url(#linear-gradient-20);}.cls-32{fill:url(#linear-gradient-14);}.cls-33{fill:url(#linear-gradient-2);}.cls-34{opacity:.48;}.cls-35{opacity:.26;}.cls-36{fill:url(#linear-gradient-7);}.cls-37{fill:url(#linear-gradient-3);}.cls-38{opacity:.67;}.cls-63{opacity:.1;}.cls-39{opacity:.41;}.cls-40{fill:url(#linear-gradient-9);}.cls-41{fill:url(#linear-gradient-27);}.cls-42{opacity:.89;}.cls-43{fill:url(#linear-gradient-8);}.cls-60{stroke-width:5.23px;}.cls-44{fill:url(#linear-gradient-24);}.cls-45{fill:url(#linear-gradient-26);}.cls-46{fill:url(#linear-gradient-16);opacity:.16;}.cls-47{fill:url(#linear-gradient-18);}.cls-48{opacity:.33;}.cls-49{opacity:.44;}.cls-50{opacity:.15;}.cls-64{filter:url(#luminosity-noclip);}.cls-65{mask:url(#mask-1);}.cls-66{mask:url(#mask);}.cls-51{fill:#f6921e;}.cls-52{opacity:.63;}.cls-53{fill:url(#linear-gradient-28);}.cls-54{fill:url(#linear-gradient-10);}.cls-55{opacity:.85;}.cls-56{fill:url(#linear-gradient-4);}.cls-57{opacity:.04;}.cls-58{opacity:.93;}</style><linearGradient id="linear-gradient" x1="2598.3" y1="1263.52" x2="2282.08" y2="1219.57" gradientTransform="translate(3051.23) rotate(-180) scale(1 -1)" gradientUnits="userSpaceOnUse"><stop offset="0" stop-color="#149648"/><stop offset=".99" stop-color="#5ed91a"/></linearGradient><linearGradient id="linear-gradient-2" x1="1609.3" y1="1138.03" x2="1800.37" y2="1469.97" xlink:href="#linear-gradient"/><linearGradient id="linear-gradient-3" x1="2373.2" y1="1307.87" x2="2462.41" y2="1444.77" gradientTransform="translate(3051.23) rotate(-180) scale(1 -1)" gradientUnits="userSpaceOnUse"><stop offset="0" stop-color="#16aaae"/><stop offset=".99" stop-color="#80fa7d"/></linearGradient><linearGradient id="linear-gradient-4" x1="1797.52" y1="1087.07" x2="1289.01" y2="1236.77" xlink:href="#linear-gradient-3"/><linearGradient id="linear-gradient-5" x1="1493.96" y1="1355.99" x2="2653.53" y2="1355.99" gradientTransform="translate(3051.23) rotate(-180) scale(1 -1)" gradientUnits="userSpaceOnUse"><stop offset="0" stop-color="#f9f9f9"/><stop offset="1" stop-color="#e6e6e7"/></linearGradient><linearGradient id="linear-gradient-6" x1="1274.89" y1="1069.7" x2="2110.04" y2="1069.7" xlink:href="#linear-gradient-5"/><linearGradient id="linear-gradient-7" x1="1271.1" y1="1040.55" x2="1497.75" y2="1040.55" gradientTransform="translate(3051.23) rotate(-180) scale(1 -1)" gradientUnits="userSpaceOnUse"><stop offset="0" stop-color="#f9f9f9"/><stop offset="1" stop-color="#d3d4d5"/></linearGradient><linearGradient id="linear-gradient-8" x1="1845.69" y1="940.24" x2="2636.29" y2="940.24" xlink:href="#linear-gradient-7"/><linearGradient id="linear-gradient-9" x1="2371.94" y1="772.21" x2="2653.53" y2="772.21" xlink:href="#linear-gradient-7"/><linearGradient id="linear-gradient-10" x1="2151.01" y1="1022.53" x2="2010.85" y2="1063.79" xlink:href="#linear-gradient-3"/><linearGradient id="linear-gradient-11" x1="2284.07" y1="1038.33" x2="2153.05" y2="1076.9" gradientTransform="translate(3051.23) rotate(-180) scale(1 -1)" gradientUnits="userSpaceOnUse"><stop offset="0" stop-color="#767576"/><stop offset="1" stop-color="#2d2d2d"/></linearGradient><linearGradient id="linear-gradient-12" x1="2353.86" y1="1051.87" x2="2145" y2="1113.35" gradientTransform="translate(3051.23) rotate(-180) scale(1 -1)" gradientUnits="userSpaceOnUse"><stop offset="0" stop-color="#fc9c03"/><stop offset=".99" stop-color="#ffd712"/></linearGradient><linearGradient id="linear-gradient-13" x1="20.68" y1="1802.46" x2="-542.71" y2="1190.77" gradientTransform="translate(1616.03) rotate(-180) scale(1 -1)" xlink:href="#linear-gradient-7"/><linearGradient id="linear-gradient-14" x1="392.21" y1="1823.25" x2="281.83" y2="1641.58" gradientTransform="translate(1616.03) rotate(-180) scale(1 -1)" xlink:href="#linear-gradient-7"/><filter id="luminosity-noclip" x="1657.97" y="1756.95" width="377.09" height="85.24" color-interpolation-filters="sRGB" filterUnits="userSpaceOnUse"><feFlood flood-color="#fff" result="bg"/><feBlend in="SourceGraphic" in2="bg"/></filter><filter id="luminosity-noclip-2" x="1657.97" y="-9442" width="377.09" height="32766" color-interpolation-filters="sRGB" filterUnits="userSpaceOnUse"><feFlood flood-color="#fff" result="bg"/><feBlend in="SourceGraphic" in2="bg"/></filter><mask id="mask-1" x="1657.97" y="-9442" width="377.09" height="32766" maskUnits="userSpaceOnUse"/><linearGradient id="linear-gradient-15" x1="-419.03" y1="1799.57" x2="-41.94" y2="1799.57" gradientTransform="translate(1616.03) rotate(-180) scale(1 -1)" gradientUnits="userSpaceOnUse"><stop offset="0" stop-color="#fff"/><stop offset=".99" stop-color="#000"/></linearGradient><mask id="mask" x="1657.97" y="1756.95" width="377.09" height="85.24" maskUnits="userSpaceOnUse"><g class="cls-64"><g class="cls-65"><ellipse class="cls-13" cx="1846.51" cy="1799.57" rx="188.55" ry="42.62"/></g></g></mask><linearGradient id="linear-gradient-16" x1="-419.03" y1="1799.57" x2="-41.94" y2="1799.57" gradientTransform="translate(1616.03) rotate(-180) scale(1 -1)" gradientUnits="userSpaceOnUse"><stop offset="0" stop-color="#1c1b1c"/><stop offset=".99" stop-color="#3d3d3d"/></linearGradient><linearGradient id="linear-gradient-17" x1="-13428.34" y1="-2751.51" x2="-13510.43" y2="-2751.51" gradientTransform="translate(14459.96 -3953.19) rotate(-36.01)" gradientUnits="userSpaceOnUse"><stop offset="0" stop-color="#767576"/><stop offset="1" stop-color="#2d2d2d"/></linearGradient><linearGradient id="linear-gradient-18" x1="-13533.27" y1="-2934.21" x2="-13409.6" y2="-2934.21" xlink:href="#linear-gradient-17"/><linearGradient id="linear-gradient-19" x1="-13530.48" y1="-3075.74" x2="-13409.6" y2="-3075.74" gradientTransform="translate(15234.08 4515.65) rotate(-.16)" gradientUnits="userSpaceOnUse"><stop offset="0" stop-color="#e13d3d"/><stop offset=".99" stop-color="#f06162"/></linearGradient><linearGradient id="linear-gradient-20" x1="-13424.17" y1="-3079.41" x2="-13527.62" y2="-3079.41" gradientTransform="translate(14459.96 -3953.19) rotate(-36.01)" gradientUnits="userSpaceOnUse"><stop offset="0" stop-color="#989a9a"/><stop offset=".34" stop-color="#b5b5b5"/><stop offset=".69" stop-color="#fff"/><stop offset=".89" stop-color="#c8c8c9"/><stop offset="1" stop-color="#cfd0d2"/></linearGradient><linearGradient id="linear-gradient-21" x1="-13530.48" y1="-3119.08" x2="-13409.61" y2="-3119.08" gradientTransform="translate(15208.73 4523.9) rotate(-.16)" xlink:href="#linear-gradient-19"/><linearGradient id="linear-gradient-22" x1="-13459.99" y1="-2701.31" x2="-13484.01" y2="-2701.31" gradientTransform="translate(14459.96 -3953.19) rotate(-36.01)" gradientUnits="userSpaceOnUse"><stop offset="0" stop-color="#767576"/><stop offset="1" stop-color="#999b9c"/></linearGradient><linearGradient id="linear-gradient-23" x1="-13543.58" y1="-3244.65" x2="-13396.53" y2="-3244.65" xlink:href="#linear-gradient-17"/><linearGradient id="linear-gradient-24" x1="48.06" y1="1160.09" x2="66.97" y2="1251.97" gradientTransform="translate(2310.41 261.56) rotate(-144.15) scale(1 -1)" xlink:href="#linear-gradient-17"/><linearGradient id="linear-gradient-25" x1="-12851.28" y1="-4323.51" x2="-12956.22" y2="-4323.51" gradientTransform="translate(16878.2 -3621.71) rotate(-36.06) scale(1.18) skewX(-.08)" xlink:href="#linear-gradient-20"/><linearGradient id="linear-gradient-26" x1="-12958.83" y1="-4349.11" x2="-12836.5" y2="-4349.11" gradientTransform="translate(16783 6291.02) rotate(-.12) scale(1.18) skewX(-.08)" xlink:href="#linear-gradient-20"/><linearGradient id="linear-gradient-27" x1="-15529.41" y1="-338.38" x2="-15381.65" y2="-338.38" gradientTransform="translate(9865.75 -4575.93) rotate(-35.72) scale(.65) skewX(.47)" xlink:href="#linear-gradient-20"/><linearGradient id="linear-gradient-28" x1="-97.9" y1="4736.45" x2="-78.99" y2="4828.33" gradientTransform="translate(3239.77 -1478.37) rotate(-144.53) scale(.66 -.65) skewX(-.17)" xlink:href="#linear-gradient-20"/></defs><g class="cls-62"><ellipse class="cls-20" cx="1681.34" cy="2023" rx="429.6" ry="115.92"/><ellipse class="cls-57" cx="1681.34" cy="2023" rx="422.2" ry="113.92"/><ellipse class="cls-16" cx="1681.34" cy="2023" rx="414.79" ry="111.92"/><ellipse class="cls-22" cx="1681.34" cy="2023" rx="407.39" ry="109.93"/><ellipse class="cls-50" cx="1681.34" cy="2023" rx="399.99" ry="107.93"/><ellipse class="cls-23" cx="1681.34" cy="2023" rx="392.59" ry="105.93"/><ellipse class="cls-10" cx="1681.34" cy="2023" rx="385.19" ry="103.93"/><ellipse class="cls-35" cx="1681.34" cy="2023" rx="377.78" ry="101.94"/><ellipse class="cls-21" cx="1681.34" cy="2023" rx="370.38" ry="99.94"/><ellipse class="cls-48" cx="1681.34" cy="2023" rx="362.98" ry="97.94"/><ellipse class="cls-1" cx="1681.34" cy="2023" rx="355.58" ry="95.95"/><ellipse class="cls-39" cx="1681.34" cy="2023" rx="348.17" ry="93.95"/><ellipse class="cls-49" cx="1681.34" cy="2023" rx="340.77" ry="91.95"/><ellipse class="cls-34" cx="1681.34" cy="2023" rx="333.37" ry="89.95"/><ellipse class="cls-14" cx="1681.34" cy="2023" rx="325.97" ry="87.96"/><ellipse class="cls-30" cx="1681.34" cy="2023" rx="318.56" ry="85.96"/><ellipse class="cls-15" cx="1681.34" cy="2023" rx="311.16" ry="83.96"/><ellipse class="cls-52" cx="1681.34" cy="2023" rx="303.76" ry="81.96"/><ellipse class="cls-38" cx="1681.34" cy="2023" rx="296.36" ry="79.97"/><ellipse class="cls-11" cx="1681.34" cy="2023" rx="288.95" ry="77.97"/><ellipse class="cls-24" cx="1681.34" cy="2023" rx="281.55" ry="75.97"/><ellipse class="cls-12" cx="1681.34" cy="2023" rx="274.15" ry="73.97"/><ellipse class="cls-5" cx="1681.34" cy="2023" rx="266.75" ry="71.98"/><ellipse class="cls-55" cx="1681.34" cy="2023" rx="259.34" ry="69.98"/><ellipse class="cls-42" cx="1681.34" cy="2023" rx="251.94" ry="67.98"/><ellipse class="cls-58" cx="1681.34" cy="2023" rx="244.54" ry="65.98"/><ellipse class="cls-26" cx="1681.34" cy="2023" rx="237.14" ry="63.99"/><ellipse class="cls-19" cx="1681.34" cy="2023" rx="229.73" ry="61.99"/></g><g class="cls-63"><ellipse class="cls-20" cx="1004.19" cy="1573.18" rx="449.95" ry="121.41"/><ellipse class="cls-57" cx="1004.19" cy="1573.18" rx="442.2" ry="119.32"/><ellipse class="cls-16" cx="1004.19" cy="1573.18" rx="434.45" ry="117.23"/><ellipse class="cls-22" cx="1004.19" cy="1573.18" rx="426.69" ry="115.14"/><ellipse class="cls-50" cx="1004.19" cy="1573.18" rx="418.94" ry="113.04"/><ellipse class="cls-23" cx="1004.19" cy="1573.18" rx="411.19" ry="110.95"/><ellipse class="cls-10" cx="1004.19" cy="1573.18" rx="403.43" ry="108.86"/><ellipse class="cls-35" cx="1004.19" cy="1573.18" rx="395.68" ry="106.77"/><ellipse class="cls-21" cx="1004.19" cy="1573.18" rx="387.93" ry="104.68"/><ellipse class="cls-48" cx="1004.19" cy="1573.18" rx="380.18" ry="102.58"/><ellipse class="cls-1" cx="1004.19" cy="1573.18" rx="372.42" ry="100.49"/><ellipse class="cls-39" cx="1004.19" cy="1573.18" rx="364.67" ry="98.4"/><ellipse class="cls-49" cx="1004.19" cy="1573.18" rx="356.92" ry="96.31"/><ellipse class="cls-34" cx="1004.19" cy="1573.18" rx="349.16" ry="94.22"/><ellipse class="cls-14" cx="1004.19" cy="1573.18" rx="341.41" ry="92.12"/><ellipse class="cls-30" cx="1004.19" cy="1573.18" rx="333.66" ry="90.03"/><ellipse class="cls-15" cx="1004.19" cy="1573.18" rx="325.9" ry="87.94"/><ellipse class="cls-52" cx="1004.19" cy="1573.18" rx="318.15" ry="85.85"/><ellipse class="cls-38" cx="1004.19" cy="1573.18" rx="310.4" ry="83.75"/><ellipse class="cls-11" cx="1004.19" cy="1573.18" rx="302.64" ry="81.66"/><ellipse class="cls-24" cx="1004.19" cy="1573.18" rx="294.89" ry="79.57"/><ellipse class="cls-12" cx="1004.19" cy="1573.18" rx="287.14" ry="77.48"/><ellipse class="cls-5" cx="1004.19" cy="1573.18" rx="279.38" ry="75.39"/><ellipse class="cls-55" cx="1004.19" cy="1573.18" rx="271.63" ry="73.29"/><ellipse class="cls-42" cx="1004.19" cy="1573.18" rx="263.88" ry="71.2"/><ellipse class="cls-58" cx="1004.19" cy="1573.18" rx="256.13" ry="69.11"/><ellipse class="cls-26" cx="1004.19" cy="1573.18" rx="248.37" ry="67.02"/><ellipse class="cls-19" cx="1004.19" cy="1573.18" rx="240.62" ry="64.93"/></g><polygon class="cls-7" points="927.3 1561.3 380.85 1372.66 549.56 886.38 1038.33 1223.84 927.3 1561.3"/><polygon class="cls-33" points="943.19 1560.39 1622.8 1606.91 1872.55 729.78 1861.9 714.01 1182.87 804.99 932.53 1544.62 943.19 1560.39"/><polygon class="cls-37" points="932.53 1544.62 386.08 1355.99 554.79 869.71 1043.56 1207.17 932.53 1544.62"/><polygon class="cls-56" points="932.53 1544.62 1612.14 1591.14 1861.9 714.01 1172.21 789.23 932.53 1544.62"/><polygon class="cls-18" points="932.53 1544.62 1557.27 1461.09 1553.48 1437.88 941.19 1519.39 414.94 1167.35 397.7 1183.34 932.53 1544.62"/><polygon class="cls-51" points="1196.88 738.36 1780.13 643.22 1776.34 620.01 1205.55 713.12 679.29 361.08 662.05 377.08 1196.88 738.36"/><polygon class="cls-9" points="1776.34 620.01 1553.48 1437.88 941.19 1519.39 1205.55 713.12 1776.34 620.01"/><polygon class="cls-36" points="1557.27 1461.09 1780.13 643.22 1776.34 620.01 1553.48 1437.88 1557.27 1461.09"/><polygon class="cls-43" points="414.94 1167.35 679.29 361.08 1205.55 713.12 941.19 1519.39 414.94 1167.35"/><polygon class="cls-40" points="397.7 1183.34 662.05 377.08 679.29 361.08 414.94 1167.35 397.7 1183.34"/><path class="cls-54" d="m878.8,1142.7l106.76,64.46,6.53-317.09-134.69,103.34c26.86,44.78,36.24,101.17,21.4,149.3Z"/><path class="cls-17" d="m757.93,1069.7l120.87,73c14.84-48.13,5.46-104.51-21.4-149.3l-99.47,76.3Z"/><path class="cls-3" d="m711.05,1202.11c65.71,43.56,139.97,19.57,165.84-53.59.68-1.93,1.33-3.87,1.91-5.83l-120.87-73,99.47-76.3c-13.43-22.44-31.25-41.96-52.6-56.12-65.71-43.56-139.94-19.54-165.84,53.59-25.89,73.13,6.4,167.72,72.09,211.25Z"/><line class="cls-60" x1="992.09" y1="781.14" x2="714.82" y2="595.66"/><line class="cls-60" x1="1031.68" y1="662.79" x2="754.41" y2="477.31"/><line class="cls-60" x1="1024.09" y1="696.35" x2="746.81" y2="510.87"/><line class="cls-60" x1="981.36" y1="814.71" x2="704.09" y2="629.23"/><line class="cls-60" x1="970.63" y1="848.27" x2="693.36" y2="662.79"/><line class="cls-60" x1="959.9" y1="881.83" x2="682.63" y2="696.35"/><line class="cls-60" x1="907.3" y1="1419.8" x2="472.75" y2="1129.11"/><line class="cls-60" x1="1580.33" y1="998.14" x2="1302.46" y2="1034.52"/><line class="cls-60" x1="1483.42" y1="897.36" x2="1205.55" y2="933.75"/><line class="cls-60" x1="1566.09" y1="1052.86" x2="1288.21" y2="1089.25"/><line class="cls-60" x1="1539.23" y1="1108.17" x2="1121.31" y2="1162.89"/><line class="cls-60" x1="1524.98" y1="1162.89" x2="1107.06" y2="1217.62"/><line class="cls-60" x1="1510.73" y1="1217.62" x2="1092.81" y2="1272.34"/><line class="cls-60" x1="1668.23" y1="714.01" x2="1250.31" y2="768.73"/><line class="cls-60" x1="1653.98" y1="768.73" x2="1236.07" y2="823.45"/><line class="cls-60" x1="1639.74" y1="823.45" x2="1221.82" y2="878.17"/><line class="cls-60" x1="1496.49" y1="1272.34" x2="1078.57" y2="1327.06"/><line class="cls-60" x1="1482.24" y1="1327.06" x2="1064.32" y2="1381.78"/><line class="cls-60" x1="1467.99" y1="1381.78" x2="1050.07" y2="1436.5"/><path class="cls-2" d="m1207.56,1113.74l1.02-44.98c.07-11.12.72-19.65,1.87-28.37l-.3.04c-4.37,9.33-9.42,18.51-16.4,30.52l-28.41,49.03-13.77,2.03.95-86.22,13.47-1.99-1.59,43.66c-.54,10.81-.99,20.45-2.15,30.07l.3-.05c4.66-9.76,10.92-20.9,17.34-32.06l27.56-47.75,13.77-2.03-1.44,43.64c-.37,11.17-.74,21.44-2.04,30.19l.3-.04c4.69-8.99,11.14-20.68,17.89-32.4l27.21-47.57,13.92-2.06-55.73,94.31-13.77,2.03Z"/><path class="cls-25" d="m1587.94,2038.62c16.78,10.73,38.15,18.64,64.71,22.45,205.37,29.33,493.88-237.17,597.61-454.78,103.77-217.62,368.9-331.17,368.9-331.17l-686.26-337.03s-212.12,75.52-315.89,293.14c-64.8,135.91-201.7,290.93-345.39,380.99l388.82,230.25c-103.98-44.16-176.87,129.68-72.5,196.16Z"/><line class="cls-59" x1="2297.47" y1="1346.02" x2="1812.31" y2="1088.49"/><line class="cls-59" x1="2260.66" y1="1397.62" x2="1775.5" y2="1140.09"/><line class="cls-59" x1="2041.12" y1="1723.24" x2="1555.96" y2="1465.71"/><line class="cls-59" x1="2004.3" y1="1774.83" x2="1519.14" y2="1517.3"/><line class="cls-59" x1="2223.84" y1="1449.22" x2="1738.68" y2="1191.68"/><line class="cls-59" x1="2187.02" y1="1500.81" x2="1701.86" y2="1243.28"/><line class="cls-59" x1="2150.21" y1="1552.41" x2="1752.94" y2="1341.53"/><path class="cls-32" d="m958.88,1666.11l2.16,1.3,626.89,371.21c-104.37-66.48-31.49-240.32,72.5-196.16l-388.82-230.25-218.05-129.16c-118.48-90.49-214.2,113.33-94.69,183.05Z"/><g class="cls-66"><ellipse class="cls-46" cx="1846.51" cy="1799.57" rx="188.55" ry="42.62"/></g><polygon class="cls-4" points="1986.54 1799.47 1951.18 1647.72 1920.22 1708.37 1852.97 1719.1 1986.4 1799.57 1986.64 1799.91 1986.59 1799.69 1986.79 1799.81 1986.54 1799.47"/><g class="cls-61"><path class="cls-47" d="m1804.81,1442.49l143.62,202.37.32.44c.1.14.18.3.28.44.15.26.33.53.48.79.15.23.26.46.39.7.14.27.29.53.41.81.05.1.1.2.15.28.08.16.13.32.2.46.1.28.23.56.33.83.11.26.19.53.28.79.1.28.19.56.28.87.04.13.08.24.11.37.05.14.07.28.1.44.09.31.17.64.23.97.06.27.11.55.17.82.05.34.1.67.15,1.01.03.17.06.33.08.49,0,.11,0,.23.02.36.04.4.07.83.09,1.25.03.25.04.52.05.77.02.48.02.97,0,1.45,0,.18,0,.35,0,.53,0,.03-.01.07,0,.1-.03.79-.1,1.58-.2,2.4-.02.21-.06.43-.08.65-.09.63-.19,1.25-.3,1.9-.03.14-.06.27-.07.42-.05.15-.08.32-.12.46-.08.37-.16.75-.26,1.13-.08.35-.17.71-.27,1.06-.09.38-.21.76-.32,1.15-.11.36-.23.71-.34,1.07-.12.4-.26.8-.39,1.19-.15.36-.27.73-.41,1.1-.14.4-.31.79-.47,1.21-.1.23-.19.47-.3.72-.11.26-.21.52-.33.79-.62,1.39-1.31,2.75-2.04,4.12-.21.36-.4.72-.6,1.08-.67,1.21-1.38,2.41-2.16,3.61-.1.15-.19.31-.29.47-.7,1.08-1.43,2.16-2.21,3.21-.13.19-.28.36-.43.55-.64.87-1.32,1.71-2,2.55-.51.64-1.01,1.28-1.54,1.92-.73.86-1.51,1.7-2.27,2.53-.46.49-.87,1.01-1.33,1.48-.12.13-.24.23-.35.35-.24.26-.5.5-.74.73-.97,1-1.99,1.98-3.03,2.95-.31.28-.61.56-.9.83-.2.18-.39.36-.58.54-1.03.9-2.08,1.8-3.14,2.68-.23.19-.47.38-.72.58-.43.35-.86.7-1.3,1.04-.89.71-1.79,1.38-2.72,2.05h-.01c-.14.11-.28.19-.42.29-.62.45-1.22.88-1.84,1.32-.42.29-.86.54-1.29.84-.86.57-1.71,1.12-2.58,1.66-.39.24-.75.51-1.14.75-.41.24-.83.47-1.26.72-.87.5-1.76,1-2.64,1.49-.41.24-.81.49-1.25.71-.76.41-1.53.8-2.3,1.18-.09.04-.18.1-.27.14-.96.46-1.92.92-2.88,1.37-.56.25-1.14.48-1.72.74-.24.1-.5.2-.74.3-1.18.51-2.37.98-3.56,1.41-.28.1-.56.19-.85.29-.42.15-.83.29-1.26.43-.24.08-.47.16-.72.23-1,.35-2,.65-2.99.92-.36.1-.73.21-1.07.31-.17.04-.33.11-.5.15-.98.24-1.94.43-2.9.64-.56.11-1.12.26-1.66.36-1.67.31-3.31.57-4.95.74-13.7,1.44-23.82-2.37-29.1-9.67l-143.57-202.3c5.28,7.27,15.39,11.04,29.03,9.61,1.64-.17,3.29-.41,4.95-.74.56-.09,1.1-.23,1.66-.36,1.14-.24,2.28-.48,3.4-.79.37-.09.72-.19,1.08-.29.88-.25,1.75-.51,2.63-.8.35-.11.72-.23,1.08-.35.42-.15.84-.28,1.26-.42,1.48-.53,2.94-1.08,4.41-1.7.24-.1.49-.22.73-.32,1.56-.66,3.08-1.36,4.61-2.09.09-.04.18-.11.26-.15,1.19-.59,2.37-1.24,3.55-1.88.88-.48,1.77-.99,2.64-1.51.8-.46,1.6-.95,2.4-1.45.86-.54,1.73-1.1,2.57-1.67,1.05-.71,2.12-1.4,3.14-2.15l.41-.3c1.37-1,2.73-2.04,4.03-3.1.25-.2.49-.38.72-.57,1.27-1.06,2.51-2.12,3.73-3.22.3-.28.59-.56.89-.84,1.05-.96,2.05-1.94,3.04-2.93.25-.24.49-.49.74-.73.58-.6,1.11-1.22,1.68-1.84.77-.83,1.55-1.67,2.28-2.54.53-.62,1.04-1.26,1.54-1.9.68-.85,1.37-1.7,2-2.55.92-1.24,1.81-2.49,2.64-3.76.1-.15.19-.31.29-.46.77-1.21,1.48-2.41,2.17-3.61.19-.35.4-.72.58-1.09.74-1.36,1.42-2.74,2.04-4.12.24-.51.42-1.01.64-1.52.16-.39.32-.8.47-1.18.14-.37.28-.75.4-1.12.13-.39.27-.78.4-1.17.11-.36.23-.71.33-1.08.12-.38.22-.77.33-1.14.09-.36.19-.71.27-1.06.09-.38.18-.76.26-1.13l.18-.89c.12-.64.21-1.27.3-1.9.03-.2.07-.42.09-.63.09-.81.16-1.61.2-2.4,0-.22,0-.43,0-.63.01-.5.02-.97,0-1.45-.01-.26-.02-.51-.04-.78-.03-.43-.06-.84-.11-1.25-.02-.28-.06-.57-.1-.83-.05-.34-.1-.67-.15-1.01-.06-.27-.11-.55-.17-.82-.07-.34-.15-.66-.22-.98-.08-.27-.15-.53-.23-.8-.09-.31-.18-.6-.29-.89-.08-.27-.17-.52-.27-.78-.11-.29-.22-.57-.34-.85-.12-.25-.22-.49-.34-.73-.13-.28-.26-.55-.42-.83-.11-.23-.24-.47-.37-.69-.17-.26-.32-.53-.49-.78-.2-.3-.38-.6-.59-.89Z"/><ellipse class="cls-6" cx="1755.81" cy="1477.89" rx="60.44" ry="35.01" transform="translate(-532.91 1308.22) rotate(-35.85)"/></g><g class="cls-61"><path class="cls-31" d="m1779.91,1408.32c.17.26.33.51.48.78.13.23.26.46.38.7.14.27.29.54.42.82.12.24.23.49.33.74.12.28.24.56.35.84.1.26.19.52.28.78.1.29.19.58.28.88.08.26.15.53.22.8.08.32.16.64.23.97.06.27.11.55.16.82.06.33.11.67.16,1.01.04.27.07.55.1.83.04.41.07.84.09,1.26.01.26.03.51.04.77.01.48,0,.96,0,1.45,0,.21,0,.42,0,.64-.03.79-.1,1.59-.19,2.4-.02.21-.06.42-.09.64-.08.63-.19,1.26-.31,1.91-.06.29-.11.59-.17.88-.08.37-.17.75-.26,1.12-.08.35-.17.7-.27,1.05-.1.38-.21.77-.33,1.15-.11.36-.22.72-.33,1.08-.13.39-.26.78-.4,1.17-.13.37-.26.73-.4,1.1-.15.4-.31.8-.47,1.2-.21.51-.41,1.01-.63,1.52-.61,1.39-1.31,2.76-2.04,4.13-.19.36-.39.72-.59,1.08-.68,1.21-1.39,2.42-2.16,3.61-.1.16-.19.32-.29.47-.83,1.27-1.72,2.52-2.63,3.75-.64.86-1.32,1.7-2,2.55-.51.64-1.01,1.28-1.55,1.91-.73.86-1.51,1.7-2.28,2.54-.56.61-1.1,1.23-1.68,1.83-.24.25-.49.49-.73.74-.99,1-2,1.98-3.04,2.94-.3.28-.6.56-.9.84-1.21,1.1-2.46,2.17-3.73,3.22-.24.19-.47.38-.71.57-1.32,1.06-2.66,2.11-4.03,3.11-.14.1-.28.2-.41.29-1.03.74-2.08,1.45-3.14,2.15-.85.57-1.71,1.13-2.58,1.67-.79.5-1.59.98-2.4,1.45-.87.52-1.75,1.02-2.64,1.5-1.18.65-2.35,1.29-3.55,1.88-.09.04-.18.09-.27.14-1.52.75-3.06,1.44-4.6,2.1-.25.11-.49.22-.74.32-1.46.61-2.93,1.17-4.4,1.69-.42.15-.84.29-1.26.43-1.24.42-2.47.8-3.71,1.15-.36.1-.72.21-1.07.31-1.14.3-2.27.54-3.41.79-.55.12-1.11.26-1.66.37-1.66.31-3.31.56-4.95.73-13.68,1.44-23.81-2.37-29.09-9.67l25.88,36.23c5.28,7.31,15.4,11.11,29.09,9.67,1.64-.17,3.29-.42,4.95-.73.55-.1,1.1-.25,1.66-.37.97-.21,1.93-.39,2.91-.64.17-.04.33-.1.5-.14.36-.09.72-.21,1.08-.31,1.24-.35,2.47-.73,3.71-1.14.42-.14.84-.28,1.26-.43.28-.1.57-.18.85-.29,1.19-.44,2.37-.91,3.55-1.4.25-.1.49-.21.74-.32.57-.24,1.14-.48,1.71-.74.97-.44,1.93-.89,2.89-1.37.09-.04.18-.09.27-.14.77-.38,1.54-.77,2.31-1.18.42-.22.83-.48,1.24-.71.89-.49,1.76-.99,2.64-1.5.42-.25.84-.46,1.26-.72.38-.23.75-.5,1.14-.74.87-.54,1.72-1.1,2.58-1.67.43-.29.87-.54,1.29-.84.62-.43,1.23-.87,1.85-1.31.14-.1.28-.19.41-.29.92-.67,1.83-1.36,2.73-2.06.44-.34.87-.7,1.3-1.05.24-.19.48-.38.71-.57,1.07-.88,2.12-1.77,3.15-2.68.2-.18.38-.36.58-.54.31-.28.6-.56.9-.84,1.04-.96,2.05-1.94,3.04-2.94.24-.25.49-.49.73-.73.12-.12.24-.23.35-.35.46-.48.88-.99,1.33-1.48.77-.84,1.55-1.68,2.28-2.54.54-.63,1.03-1.27,1.55-1.91.68-.85,1.36-1.69,2-2.55.14-.18.29-.36.43-.55.77-1.06,1.5-2.13,2.21-3.21.1-.16.19-.32.29-.47.77-1.19,1.48-2.4,2.16-3.61.2-.36.4-.72.59-1.08.73-1.37,1.43-2.74,2.04-4.13.12-.26.23-.53.34-.79.1-.25.19-.49.29-.73.16-.4.33-.8.48-1.2.14-.37.27-.73.4-1.1.14-.39.28-.79.4-1.18.12-.36.23-.72.33-1.08.11-.39.23-.77.33-1.15.09-.35.18-.7.27-1.05.09-.38.18-.75.26-1.12.03-.15.08-.31.11-.46.03-.14.04-.28.07-.42.12-.64.22-1.28.31-1.91.03-.21.06-.43.09-.64.09-.81.16-1.61.19-2.4,0-.03,0-.07,0-.1,0-.18,0-.35,0-.53.01-.49.02-.97,0-1.45,0-.26-.03-.52-.04-.77-.02-.42-.05-.84-.09-1.26-.01-.11-.01-.23-.03-.34-.02-.17-.05-.33-.07-.49-.05-.34-.1-.68-.15-1.01-.05-.28-.1-.55-.16-.83-.07-.33-.14-.65-.23-.97-.04-.14-.06-.29-.1-.43-.03-.13-.08-.25-.12-.37-.09-.3-.18-.59-.28-.88-.09-.26-.18-.53-.28-.79-.11-.28-.22-.56-.34-.84-.06-.15-.12-.31-.19-.45-.05-.1-.1-.19-.15-.29-.13-.28-.27-.55-.42-.82-.13-.24-.25-.47-.39-.7-.15-.26-.32-.52-.48-.78-.1-.15-.18-.31-.28-.46-.1-.15-.2-.29-.31-.43l-25.88-36.23c.21.29.4.59.59.89Z"/><ellipse class="cls-8" cx="1730.33" cy="1442.83" rx="60.44" ry="35.01" transform="translate(-517.2 1286.66) rotate(-35.85)"/></g><path class="cls-29" d="m1946.68,1775.62l7.39-.37c8.67-.44,16.36-5.7,19.92-13.61l2.45-5.46,9.95,43.4-39.72-23.95Z"/><g class="cls-61"><path class="cls-27" d="m1617.16,1162.07l170.77,240.62.38.52c.12.17.21.36.34.53.18.31.39.63.57.94.17.27.31.55.46.83.16.32.34.63.49.97.06.12.12.24.18.34.09.19.16.38.24.55.12.33.27.66.4.99.13.3.22.63.34.94.12.33.23.67.33,1.04.04.16.09.28.13.44.05.17.08.34.12.52.1.37.2.76.28,1.15.07.32.13.65.2.97.06.4.12.8.17,1.2.03.21.07.39.1.58,0,.14.01.27.03.42.05.48.09.99.1,1.49.03.3.05.62.06.91.02.57.02,1.15,0,1.73,0,.22,0,.42,0,.63,0,.04-.01.08,0,.12-.04.94-.12,1.88-.24,2.85-.03.25-.07.52-.09.77-.11.75-.22,1.49-.36,2.26-.04.17-.07.33-.08.5-.05.18-.1.37-.14.54-.1.44-.19.89-.31,1.34-.09.42-.2.84-.32,1.26-.11.45-.25.9-.38,1.37-.13.42-.27.85-.4,1.27-.14.48-.31.95-.47,1.41-.18.43-.33.87-.49,1.31-.17.47-.36.94-.56,1.43-.12.28-.22.56-.35.86-.13.3-.25.62-.39.94-.73,1.65-1.56,3.27-2.42,4.9-.24.43-.47.86-.72,1.29-.79,1.44-1.64,2.87-2.57,4.29-.12.18-.22.37-.34.55-.84,1.28-1.7,2.56-2.63,3.82-.16.23-.34.43-.51.65-.76,1.04-1.58,2.03-2.38,3.04-.61.77-1.2,1.52-1.83,2.29-.86,1.02-1.79,2.02-2.7,3.01-.55.59-1.04,1.2-1.59,1.76-.15.15-.29.28-.42.42-.29.3-.59.59-.88.87-1.16,1.19-2.37,2.35-3.6,3.5-.36.33-.73.67-1.07.99-.24.22-.46.43-.7.65-1.22,1.07-2.47,2.14-3.74,3.18-.28.23-.56.45-.85.69-.51.42-1.02.84-1.55,1.24-1.06.84-2.13,1.64-3.23,2.44h-.01c-.17.13-.33.23-.5.35-.73.53-1.45,1.05-2.19,1.57-.5.34-1.02.65-1.53,1-1.02.67-2.03,1.34-3.06,1.97-.46.29-.89.6-1.35.89-.49.29-.99.56-1.5.85-1.04.59-2.09,1.19-3.14,1.77-.49.29-.97.59-1.48.84-.9.49-1.82.95-2.73,1.4-.1.05-.22.11-.32.17-1.14.55-2.28,1.1-3.43,1.63-.67.3-1.36.57-2.04.88-.29.12-.59.24-.88.36-1.4.6-2.81,1.16-4.23,1.68-.33.12-.67.23-1.01.34-.5.18-.99.34-1.5.51-.28.09-.56.2-.85.27-1.19.42-2.37.77-3.56,1.1-.42.12-.86.25-1.27.37-.2.05-.4.13-.59.18-1.16.29-2.31.51-3.45.76-.67.14-1.33.31-1.97.43-1.99.37-3.94.67-5.88.88-16.29,1.71-28.32-2.82-34.6-11.5l-170.71-240.55c6.28,8.64,18.3,13.13,34.52,11.42,1.95-.2,3.91-.49,5.88-.88.66-.11,1.31-.28,1.97-.43,1.35-.29,2.71-.57,4.05-.94.43-.11.86-.23,1.28-.35,1.04-.29,2.08-.6,3.13-.95.41-.14.85-.27,1.28-.42.5-.18,1-.33,1.5-.51,1.76-.63,3.49-1.28,5.24-2.02.29-.12.58-.26.87-.38,1.85-.79,3.67-1.62,5.48-2.49.1-.05.21-.13.31-.18,1.42-.71,2.82-1.47,4.22-2.23,1.05-.58,2.1-1.18,3.14-1.8.95-.55,1.9-1.13,2.85-1.72,1.02-.65,2.05-1.31,3.05-1.98,1.25-.84,2.52-1.67,3.73-2.55l.49-.35c1.63-1.18,3.24-2.43,4.79-3.69.29-.24.58-.45.86-.67,1.51-1.26,2.99-2.52,4.44-3.83.36-.33.7-.67,1.06-1,1.25-1.14,2.44-2.31,3.61-3.49.3-.29.58-.58.88-.87.69-.71,1.32-1.45,1.99-2.19.91-.99,1.84-1.99,2.72-3.02.63-.74,1.24-1.5,1.83-2.26.81-1,1.63-2.02,2.38-3.04,1.1-1.47,2.15-2.96,3.13-4.47.12-.18.22-.37.34-.55.91-1.43,1.76-2.86,2.58-4.3.23-.42.47-.86.69-1.29.88-1.61,1.69-3.25,2.42-4.9.28-.6.5-1.2.76-1.81.2-.47.38-.95.56-1.41.17-.45.33-.89.48-1.33.15-.46.32-.93.48-1.39.13-.42.27-.85.39-1.29.14-.45.27-.92.39-1.35.11-.43.23-.84.32-1.26.11-.45.21-.9.31-1.34l.21-1.06c.15-.76.25-1.51.36-2.26.04-.24.08-.5.11-.75.11-.97.19-1.91.23-2.85,0-.26,0-.51.01-.75.01-.59.02-1.16,0-1.73-.02-.31-.02-.61-.04-.92-.04-.51-.07-1-.13-1.49-.03-.33-.07-.67-.11-.99-.06-.4-.12-.8-.17-1.2-.07-.32-.13-.65-.2-.97-.08-.41-.17-.78-.26-1.16-.1-.33-.18-.64-.27-.95-.1-.37-.21-.71-.35-1.05-.1-.32-.2-.62-.33-.93-.13-.34-.26-.67-.41-1.01-.14-.29-.26-.58-.4-.87-.15-.33-.31-.66-.5-.98-.13-.28-.29-.56-.44-.82-.21-.32-.39-.63-.58-.93-.24-.36-.45-.72-.7-1.05Z"/><ellipse class="cls-44" cx="1558.9" cy="1204.16" rx="71.86" ry="41.62" transform="translate(-409.9 1141.05) rotate(-35.85)"/></g><g class="cls-61"><path class="cls-28" d="m1608.33,1146.6c.2.31.39.61.58.93.16.27.31.55.46.83.17.32.34.65.5.98.14.29.27.59.4.89.14.33.28.67.41,1.01.12.31.23.62.33.93.12.35.23.7.34,1.05.09.32.18.64.26.96.1.38.19.77.27,1.16.07.32.13.65.19.98.07.4.13.8.18,1.21.04.33.09.66.12.99.05.5.08,1,.11,1.51.02.31.04.61.05.92.02.57,0,1.15,0,1.73,0,.25,0,.5-.01.76-.04.94-.12,1.9-.23,2.87-.03.25-.07.51-.1.76-.1.75-.22,1.51-.37,2.28-.07.35-.13.7-.21,1.06-.09.44-.2.89-.31,1.35-.1.42-.21.84-.32,1.26-.12.46-.26.92-.39,1.38-.13.43-.26.86-.4,1.29-.15.46-.31.93-.48,1.4-.15.44-.31.88-.48,1.32-.18.47-.37.95-.57,1.43-.25.6-.49,1.21-.75,1.82-.73,1.66-1.56,3.3-2.44,4.94-.23.43-.47.86-.7,1.29-.81,1.45-1.67,2.89-2.58,4.32-.12.19-.23.38-.35.56-.99,1.52-2.05,3.01-3.15,4.49-.76,1.03-1.57,2.04-2.38,3.05-.61.76-1.21,1.54-1.85,2.29-.87,1.03-1.8,2.03-2.73,3.04-.67.73-1.31,1.48-2.01,2.19-.29.3-.59.59-.88.88-1.18,1.19-2.39,2.36-3.63,3.51-.36.33-.72.67-1.08,1-1.45,1.31-2.93,2.6-4.45,3.85-.28.23-.57.46-.85.69-1.58,1.27-3.18,2.52-4.82,3.72-.16.12-.33.23-.49.35-1.23.89-2.49,1.73-3.74,2.57-1.02.68-2.04,1.35-3.08,2-.95.59-1.9,1.17-2.86,1.74-1.04.62-2.09,1.22-3.15,1.8-1.41.77-2.81,1.54-4.24,2.25-.11.05-.21.11-.32.16-1.82.9-3.65,1.73-5.49,2.52-.3.13-.59.26-.88.38-1.75.73-3.5,1.4-5.26,2.02-.5.18-1.01.34-1.51.51-1.48.5-2.95.95-4.43,1.37-.43.12-.85.25-1.28.37-1.36.36-2.71.65-4.07.94-.66.14-1.32.31-1.98.44-1.98.37-3.95.67-5.91.88-16.34,1.73-28.43-2.82-34.73-11.55l10.42,15.69c6.3,8.74,18.39,13.28,34.73,11.55,1.95-.21,3.93-.51,5.91-.88.66-.12,1.32-.3,1.98-.44,1.16-.25,2.31-.47,3.47-.77.2-.05.4-.12.6-.17.43-.11.86-.25,1.28-.37,1.48-.42,2.95-.87,4.43-1.37.5-.17,1-.33,1.51-.51.34-.12.67-.22,1.01-.34,1.42-.52,2.83-1.09,4.25-1.68.3-.12.59-.26.89-.38.68-.29,1.37-.57,2.04-.88,1.15-.52,2.3-1.07,3.45-1.63.11-.05.21-.11.32-.16.92-.46,1.84-.92,2.75-1.41.5-.27.99-.57,1.48-.85,1.06-.58,2.11-1.18,3.15-1.8.5-.29,1.01-.56,1.5-.86.46-.28.9-.59,1.36-.88,1.04-.65,2.06-1.32,3.08-2,.51-.34,1.04-.65,1.54-1,.74-.51,1.47-1.04,2.2-1.57.16-.12.33-.23.49-.35,1.1-.8,2.19-1.62,3.26-2.46.53-.41,1.04-.84,1.55-1.26.28-.23.57-.46.85-.69,1.27-1.05,2.53-2.11,3.76-3.21.24-.21.46-.43.69-.64.37-.33.72-.67,1.08-1,1.24-1.15,2.45-2.32,3.63-3.52.29-.29.59-.58.88-.88.14-.14.28-.28.42-.42.55-.58,1.05-1.18,1.59-1.77.92-1.01,1.85-2.01,2.72-3.04.64-.75,1.23-1.52,1.85-2.29.81-1.01,1.62-2.02,2.38-3.05.16-.22.35-.43.51-.65.92-1.27,1.79-2.55,2.63-3.84.12-.19.23-.38.35-.57.91-1.43,1.77-2.87,2.58-4.32.24-.43.48-.86.71-1.29.87-1.64,1.7-3.28,2.44-4.94.14-.32.27-.63.41-.94.12-.29.23-.58.35-.88.2-.48.39-.96.57-1.44.17-.44.32-.88.48-1.31.17-.47.33-.94.48-1.41.14-.43.27-.86.4-1.29.14-.46.27-.92.39-1.38.11-.42.22-.84.32-1.26.11-.45.21-.9.31-1.35.04-.18.09-.37.13-.56.03-.17.05-.33.08-.5.14-.77.27-1.53.37-2.28.03-.25.08-.51.1-.76.11-.97.19-1.93.23-2.87,0-.04,0-.08,0-.12,0-.22,0-.42,0-.64.01-.58.02-1.16,0-1.73,0-.31-.03-.62-.05-.93-.03-.51-.06-1.01-.11-1.5-.01-.14-.02-.28-.03-.41-.02-.2-.06-.39-.09-.59-.05-.41-.11-.81-.18-1.21-.06-.33-.12-.66-.19-.99-.08-.39-.17-.77-.27-1.16-.04-.17-.07-.35-.12-.52-.04-.15-.1-.3-.14-.45-.1-.35-.22-.7-.33-1.05-.11-.32-.22-.63-.34-.94-.13-.34-.27-.67-.41-1-.08-.18-.14-.37-.22-.54-.05-.12-.12-.23-.18-.35-.16-.33-.33-.65-.5-.97-.15-.28-.3-.56-.46-.84-.18-.32-.38-.62-.58-.93-.12-.18-.22-.37-.34-.54-.12-.17-.24-.35-.36-.52l-10.42-15.69c.25.34.47.7.7,1.06Z"/><ellipse class="cls-45" cx="1549.12" cy="1187.89" rx="72.22" ry="41.83" transform="translate(-402.31 1135.36) rotate(-35.94)"/></g><g class="cls-61"><path class="cls-41" d="m1523.95,1073.36l56.17,81.24.25.34c.08.11.14.23.22.34.12.2.25.41.37.61.11.18.2.36.3.54.11.21.23.41.32.63.04.08.08.15.12.22.06.12.1.24.16.36.08.21.18.43.26.65.08.2.15.41.22.62.08.22.15.44.22.68.03.1.06.19.09.29.04.11.05.22.08.34.07.24.13.5.18.75.05.21.08.43.13.64.04.26.08.52.11.78.02.14.05.25.06.38,0,.09,0,.18.02.28.03.31.06.64.07.97.02.2.03.4.04.6.01.37.01.75,0,1.13,0,.14,0,.27,0,.41,0,.03,0,.05,0,.08-.03.61-.08,1.23-.15,1.86-.02.16-.04.34-.06.5-.07.49-.15.97-.23,1.48-.03.11-.04.21-.05.33-.04.12-.07.24-.09.35-.06.29-.13.58-.2.87-.06.27-.13.55-.21.82-.07.3-.16.59-.25.89-.09.28-.18.55-.26.83-.09.31-.2.62-.31.92-.12.28-.21.56-.32.85-.11.31-.24.61-.37.93-.08.18-.15.36-.23.56-.08.2-.16.4-.26.61-.48,1.08-1.02,2.13-1.59,3.19-.16.28-.31.56-.47.84-.52.94-1.08,1.87-1.68,2.79-.08.12-.14.24-.23.36-.55.84-1.12,1.67-1.72,2.49-.1.15-.22.28-.33.42-.5.68-1.03,1.32-1.56,1.98-.4.5-.79.99-1.2,1.49-.57.67-1.18,1.32-1.77,1.96-.36.38-.68.78-1.04,1.14-.1.1-.19.18-.27.27-.19.2-.39.39-.58.57-.76.78-1.55,1.53-2.37,2.28-.24.22-.48.43-.71.64-.16.14-.3.28-.46.42-.8.7-1.62,1.39-2.46,2.07-.18.15-.37.29-.56.45-.34.27-.67.54-1.01.81-.7.55-1.4,1.07-2.12,1.59h0c-.11.09-.22.15-.33.23-.48.35-.95.68-1.44,1.02-.33.22-.67.42-1.01.65-.67.44-1.33.87-2.01,1.28-.3.19-.58.39-.89.58-.32.19-.65.36-.98.56-.68.38-1.37.77-2.06,1.15-.32.19-.64.38-.97.55-.59.32-1.2.62-1.79.91-.07.03-.14.07-.21.11-.75.36-1.5.71-2.25,1.06-.44.19-.89.37-1.34.57-.19.08-.39.16-.58.23-.92.39-1.85.75-2.78,1.09-.22.08-.44.15-.66.22-.33.11-.65.22-.98.33-.19.06-.37.13-.56.17-.78.27-1.56.5-2.34.71-.28.08-.57.16-.84.24-.13.03-.26.08-.39.11-.77.19-1.52.33-2.27.49-.44.09-.87.2-1.29.28-1.31.24-2.59.43-3.87.56-10.71,1.09-18.61-1.89-22.75-7.56l-56.13-81.19c4.13,5.65,12.03,8.59,22.69,7.51,1.28-.13,2.57-.31,3.87-.56.44-.07.86-.18,1.29-.28.89-.18,1.78-.37,2.66-.61.29-.07.56-.15.84-.23.69-.19,1.37-.39,2.06-.61.27-.09.56-.17.84-.27.33-.12.65-.21.98-.33,1.15-.41,2.29-.83,3.44-1.31.19-.08.38-.17.57-.24,1.22-.51,2.41-1.05,3.6-1.62.07-.03.14-.08.2-.12.93-.46,1.85-.95,2.77-1.45.69-.37,1.38-.77,2.06-1.17.62-.36,1.25-.73,1.87-1.12.67-.42,1.35-.85,2-1.29.82-.55,1.65-1.08,2.45-1.66l.32-.23c1.07-.77,2.13-1.58,3.15-2.4.19-.15.38-.29.57-.44.99-.82,1.96-1.64,2.91-2.49.24-.22.46-.44.7-.65.82-.74,1.6-1.5,2.37-2.27.2-.19.38-.38.58-.57.46-.46.87-.94,1.31-1.43.6-.64,1.21-1.29,1.78-1.97.41-.48.81-.98,1.2-1.47.53-.65,1.07-1.32,1.56-1.98.72-.96,1.41-1.93,2.06-2.91.08-.12.14-.24.23-.36.6-.93,1.16-1.87,1.69-2.8.15-.27.31-.56.45-.84.57-1.05,1.11-2.12,1.59-3.19.19-.39.33-.78.5-1.18.13-.31.25-.62.37-.92.11-.29.22-.58.31-.86.1-.3.21-.61.31-.91.09-.28.18-.55.26-.84.09-.29.17-.6.26-.88.07-.28.15-.55.21-.82.07-.3.14-.59.2-.87l.14-.69c.1-.49.16-.98.23-1.48.02-.15.05-.33.07-.49.07-.63.13-1.25.15-1.86,0-.17,0-.33,0-.49,0-.39.01-.75,0-1.13-.01-.2-.02-.4-.03-.6-.03-.33-.05-.65-.08-.97-.02-.21-.05-.44-.08-.64-.04-.26-.08-.52-.11-.78-.05-.21-.08-.43-.13-.64-.06-.26-.11-.51-.17-.76-.06-.21-.12-.42-.18-.62-.07-.24-.14-.46-.23-.69-.06-.21-.13-.41-.21-.61-.09-.22-.17-.44-.27-.66-.09-.19-.17-.38-.26-.57-.1-.22-.21-.43-.33-.64-.09-.18-.19-.36-.29-.54-.14-.21-.25-.41-.38-.61-.16-.24-.3-.47-.46-.69Z"/><ellipse class="cls-53" cx="1485.68" cy="1100.72" rx="47.04" ry="27.26" transform="translate(-362.92 1061.79) rotate(-35.33)"/></g></svg>