<?xml version="1.0" encoding="UTF-8"?><svg id="Layer_1" xmlns="http://www.w3.org/2000/svg" xmlns:xlink="http://www.w3.org/1999/xlink" viewBox="0 0 2139.54 2223.39"><defs><style>.cls-1{opacity:.52;}.cls-1,.cls-2,.cls-3,.cls-4,.cls-5,.cls-6,.cls-7,.cls-8,.cls-9,.cls-10,.cls-11,.cls-12,.cls-13,.cls-14,.cls-15,.cls-16,.cls-17,.cls-18,.cls-19,.cls-20,.cls-21,.cls-22,.cls-23,.cls-24,.cls-25,.cls-26,.cls-27,.cls-28,.cls-29,.cls-30,.cls-31,.cls-32,.cls-33,.cls-34,.cls-35,.cls-36,.cls-37,.cls-38,.cls-39,.cls-40,.cls-41,.cls-42,.cls-43,.cls-44,.cls-45,.cls-46,.cls-47,.cls-48,.cls-49,.cls-50,.cls-51,.cls-52,.cls-53,.cls-54,.cls-55,.cls-56,.cls-57,.cls-58,.cls-59,.cls-60,.cls-61,.cls-62,.cls-63,.cls-64,.cls-65,.cls-66,.cls-67,.cls-68,.cls-69,.cls-70,.cls-71,.cls-72,.cls-73,.cls-74,.cls-75,.cls-76,.cls-77,.cls-78,.cls-79,.cls-80,.cls-81,.cls-82,.cls-83,.cls-84,.cls-85,.cls-86,.cls-87,.cls-88,.cls-89,.cls-90,.cls-91,.cls-92,.cls-93,.cls-94,.cls-95,.cls-96,.cls-97,.cls-98,.cls-99,.cls-100,.cls-101,.cls-102,.cls-103,.cls-104,.cls-105,.cls-106,.cls-107,.cls-108,.cls-109,.cls-110,.cls-111,.cls-112,.cls-113,.cls-114,.cls-115,.cls-116,.cls-117,.cls-118,.cls-119,.cls-120,.cls-121,.cls-122,.cls-123,.cls-124,.cls-125,.cls-126,.cls-127,.cls-128,.cls-129,.cls-130,.cls-131,.cls-132,.cls-133,.cls-134,.cls-135,.cls-136,.cls-137,.cls-138,.cls-139,.cls-140,.cls-141,.cls-142,.cls-143,.cls-144,.cls-145,.cls-146,.cls-147,.cls-148,.cls-149,.cls-150,.cls-151,.cls-152,.cls-153,.cls-154,.cls-155,.cls-156,.cls-157,.cls-158,.cls-159,.cls-160,.cls-161,.cls-162,.cls-163,.cls-164,.cls-165,.cls-166,.cls-167,.cls-168,.cls-169,.cls-170,.cls-171,.cls-172,.cls-173,.cls-174,.cls-175,.cls-176,.cls-177,.cls-178,.cls-179,.cls-180,.cls-181,.cls-182,.cls-183,.cls-184,.cls-185,.cls-186,.cls-187,.cls-188,.cls-189,.cls-190,.cls-191,.cls-192,.cls-193,.cls-194,.cls-195,.cls-196,.cls-197,.cls-198,.cls-199,.cls-200,.cls-201,.cls-202,.cls-203,.cls-204,.cls-205,.cls-206,.cls-207,.cls-208,.cls-209,.cls-210,.cls-211,.cls-212,.cls-213{stroke-width:0px;}.cls-1,.cls-2,.cls-5,.cls-28,.cls-31,.cls-33,.cls-34,.cls-36,.cls-40,.cls-43,.cls-44,.cls-49,.cls-53,.cls-72,.cls-73,.cls-103,.cls-106,.cls-111,.cls-113,.cls-115,.cls-116,.cls-127,.cls-138,.cls-142,.cls-158,.cls-178,.cls-194,.cls-198{fill:#2b2e3d;}.cls-2{opacity:.3;}.cls-3{fill:url(#linear-gradient-38);}.cls-4{fill:url(#linear-gradient-12);}.cls-5{opacity:.59;}.cls-6{fill:url(#linear-gradient-127);}.cls-7{fill:url(#linear-gradient-159);}.cls-8{fill:url(#linear-gradient-17);}.cls-9{fill:url(#linear-gradient-132);}.cls-10{fill:url(#linear-gradient-88);}.cls-11{fill:url(#linear-gradient-19);}.cls-12{fill:url(#linear-gradient-33);}.cls-13{fill:url(#linear-gradient);}.cls-14{fill:url(#linear-gradient-175);}.cls-15{fill:url(#linear-gradient-62);}.cls-16{fill:url(#linear-gradient-137);}.cls-17{fill:url(#linear-gradient-92);}.cls-18{fill:url(#linear-gradient-98);}.cls-19{fill:url(#linear-gradient-139);}.cls-20{fill:url(#linear-gradient-67);}.cls-21{fill:url(#linear-gradient-167);}.cls-22{fill:url(#linear-gradient-153);}.cls-23{fill:url(#linear-gradient-57);}.cls-24{fill:url(#linear-gradient-138);}.cls-25{fill:url(#linear-gradient-149);}.cls-26{fill:url(#linear-gradient-21);}.cls-27{fill:url(#linear-gradient-6);}.cls-28{opacity:.44;}.cls-29{fill:url(#linear-gradient-157);}.cls-30{fill:url(#linear-gradient-76);}.cls-31{opacity:.15;}.cls-32{fill:url(#linear-gradient-124);}.cls-33{opacity:.63;}.cls-34{opacity:.48;}.cls-35{fill:url(#linear-gradient-160);}.cls-36{opacity:.04;}.cls-37{fill:url(#linear-gradient-136);}.cls-38{fill:url(#linear-gradient-42);}.cls-39{fill:url(#linear-gradient-104);}.cls-40{opacity:.74;}.cls-41{fill:url(#linear-gradient-95);}.cls-42{fill:url(#linear-gradient-15);}.cls-43{opacity:.33;}.cls-44{opacity:.26;}.cls-45{fill:url(#linear-gradient-11);}.cls-46{fill:url(#linear-gradient-106);}.cls-47{fill:url(#linear-gradient-101);}.cls-48{fill:url(#linear-gradient-81);}.cls-49{opacity:.81;}.cls-50{fill:url(#linear-gradient-73);}.cls-51{fill:url(#linear-gradient-91);}.cls-52{fill:url(#linear-gradient-151);}.cls-53{opacity:0;}.cls-54{fill:url(#linear-gradient-5);}.cls-55{fill:url(#linear-gradient-164);}.cls-56{fill:#878aa0;}.cls-57{fill:url(#linear-gradient-133);}.cls-58{fill:url(#linear-gradient-179);}.cls-59{fill:url(#linear-gradient-31);}.cls-60{fill:url(#linear-gradient-103);}.cls-61{fill:url(#linear-gradient-71);}.cls-62{fill:url(#linear-gradient-58);}.cls-63{fill:url(#linear-gradient-63);}.cls-64{fill:url(#linear-gradient-154);}.cls-65{fill:url(#linear-gradient-34);}.cls-66{fill:url(#linear-gradient-122);}.cls-67{fill:url(#linear-gradient-96);}.cls-68{fill:url(#linear-gradient-170);}.cls-69{fill:url(#linear-gradient-165);}.cls-70{fill:url(#linear-gradient-130);}.cls-71{fill:url(#linear-gradient-120);}.cls-72{opacity:.85;}.cls-74{fill:url(#linear-gradient-41);}.cls-75{fill:url(#linear-gradient-89);}.cls-76{fill:url(#linear-gradient-40);}.cls-77{fill:url(#linear-gradient-147);}.cls-78{fill:url(#linear-gradient-66);}.cls-79{fill:url(#linear-gradient-126);}.cls-80{fill:url(#linear-gradient-13);}.cls-81{fill:url(#linear-gradient-23);}.cls-214{opacity:.15;}.cls-82{fill:url(#linear-gradient-25);}.cls-83{fill:url(#linear-gradient-43);}.cls-84{fill:#f6f6f6;}.cls-85{fill:url(#linear-gradient-16);}.cls-86{fill:url(#linear-gradient-22);}.cls-87{fill:url(#linear-gradient-54);}.cls-88{fill:url(#linear-gradient-55);}.cls-89{fill:#fff;}.cls-90{fill:url(#linear-gradient-110);}.cls-91{fill:url(#linear-gradient-141);}.cls-92{fill:url(#linear-gradient-35);}.cls-93{fill:url(#linear-gradient-50);}.cls-94{fill:url(#linear-gradient-32);}.cls-95{fill:url(#linear-gradient-60);}.cls-96{fill:url(#linear-gradient-59);}.cls-97{fill:url(#linear-gradient-20);}.cls-98{fill:url(#linear-gradient-14);}.cls-99{fill:url(#linear-gradient-2);}.cls-100{fill:url(#linear-gradient-156);}.cls-101{fill:url(#linear-gradient-146);}.cls-102{fill:url(#linear-gradient-52);}.cls-103{opacity:.56;}.cls-104{fill:url(#linear-gradient-45);}.cls-105{fill:url(#linear-gradient-93);}.cls-106{opacity:.41;}.cls-107{fill:url(#linear-gradient-172);}.cls-108{fill:url(#linear-gradient-163);}.cls-109{fill:url(#linear-gradient-7);}.cls-110{fill:url(#linear-gradient-39);}.cls-111{opacity:.22;}.cls-112{fill:url(#linear-gradient-3);}.cls-113{opacity:.67;}.cls-114{fill:url(#linear-gradient-148);}.cls-115{opacity:.96;}.cls-116{opacity:.89;}.cls-117{fill:url(#linear-gradient-77);}.cls-118{fill:url(#linear-gradient-119);}.cls-119{fill:url(#linear-gradient-69);}.cls-120{fill:url(#linear-gradient-143);}.cls-215{fill:none;stroke:#c9904b;stroke-linecap:round;stroke-linejoin:round;stroke-width:30px;}.cls-121{fill:url(#linear-gradient-125);}.cls-122{fill:url(#linear-gradient-94);}.cls-123{fill:url(#linear-gradient-9);}.cls-124{fill:url(#linear-gradient-27);}.cls-125{fill:url(#linear-gradient-134);}.cls-126{fill:url(#linear-gradient-152);}.cls-127{opacity:.7;}.cls-128{fill:url(#linear-gradient-100);}.cls-129{fill:url(#linear-gradient-162);}.cls-130{fill:url(#linear-gradient-131);}.cls-131{fill:url(#linear-gradient-82);}.cls-132{fill:url(#linear-gradient-105);}.cls-133{fill:url(#linear-gradient-83);}.cls-134{fill:url(#linear-gradient-142);}.cls-135{fill:#f4f4f4;}.cls-136{fill:url(#linear-gradient-155);}.cls-137{fill:url(#linear-gradient-53);}.cls-138{opacity:.93;}.cls-139{fill:url(#linear-gradient-90);}.cls-140{fill:url(#linear-gradient-178);}.cls-141{fill:url(#linear-gradient-117);}.cls-142{opacity:.78;}.cls-143{fill:url(#linear-gradient-85);}.cls-144{fill:url(#linear-gradient-65);}.cls-145{fill:url(#linear-gradient-36);}.cls-146{fill:url(#linear-gradient-48);}.cls-147{fill:url(#linear-gradient-49);}.cls-148{fill:url(#linear-gradient-161);}.cls-149{fill:url(#linear-gradient-8);}.cls-150{fill:#7c4713;}.cls-151{fill:url(#linear-gradient-47);}.cls-152{fill:url(#linear-gradient-173);}.cls-153{fill:url(#linear-gradient-24);}.cls-154{fill:url(#linear-gradient-26);}.cls-155{fill:url(#linear-gradient-61);}.cls-156{fill:url(#linear-gradient-114);}.cls-157{fill:url(#linear-gradient-18);}.cls-158{opacity:.19;}.cls-159{fill:url(#linear-gradient-51);}.cls-160{fill:url(#linear-gradient-30);}.cls-161{fill:url(#linear-gradient-121);}.cls-162{fill:url(#linear-gradient-44);}.cls-163{fill:url(#linear-gradient-84);}.cls-164{fill:url(#linear-gradient-97);}.cls-165{fill:url(#linear-gradient-68);}.cls-166{fill:url(#linear-gradient-129);}.cls-167{fill:url(#linear-gradient-72);}.cls-168{fill:url(#linear-gradient-29);}.cls-169{fill:url(#linear-gradient-46);}.cls-170{fill:url(#linear-gradient-140);}.cls-171{fill:url(#linear-gradient-168);}.cls-172{fill:url(#linear-gradient-171);}.cls-173{fill:url(#linear-gradient-64);}.cls-174{fill:url(#linear-gradient-107);}.cls-175{fill:url(#linear-gradient-109);}.cls-176{fill:url(#linear-gradient-145);}.cls-177{fill:url(#linear-gradient-113);}.cls-178{opacity:.07;}.cls-179{fill:url(#linear-gradient-28);}.cls-180{fill:url(#linear-gradient-56);}.cls-181{fill:url(#linear-gradient-99);}.cls-182{fill:url(#linear-gradient-10);}.cls-183{fill:url(#linear-gradient-150);}.cls-184{fill:url(#linear-gradient-174);}.cls-185{fill:url(#linear-gradient-87);}.cls-186{fill:url(#linear-gradient-70);}.cls-187{fill:url(#linear-gradient-78);}.cls-188{fill:url(#linear-gradient-86);}.cls-189{fill:#fdfeff;}.cls-190{fill:url(#linear-gradient-74);}.cls-191{fill:url(#linear-gradient-177);}.cls-192{fill:url(#linear-gradient-169);}.cls-193{fill:url(#linear-gradient-102);}.cls-194{opacity:.37;}.cls-195{fill:url(#linear-gradient-4);}.cls-196{fill:url(#linear-gradient-118);}.cls-197{fill:url(#linear-gradient-112);}.cls-198{opacity:.11;}.cls-199{fill:url(#linear-gradient-123);}.cls-200{fill:url(#linear-gradient-176);}.cls-201{fill:url(#linear-gradient-128);}.cls-202{fill:url(#linear-gradient-37);}.cls-203{fill:url(#linear-gradient-166);}.cls-204{fill:url(#linear-gradient-80);}.cls-205{fill:url(#linear-gradient-115);}.cls-206{fill:url(#linear-gradient-135);}.cls-207{fill:url(#linear-gradient-158);}.cls-208{fill:url(#linear-gradient-116);}.cls-209{fill:url(#linear-gradient-79);}.cls-210{fill:url(#linear-gradient-111);}.cls-211{fill:url(#linear-gradient-108);}.cls-212{fill:url(#linear-gradient-144);}.cls-213{fill:url(#linear-gradient-75);}</style><linearGradient id="linear-gradient" x1="907.54" y1="731.86" x2="1972.88" y2="731.86" gradientUnits="userSpaceOnUse"><stop offset="0" stop-color="#4b4c4f"/><stop offset="1" stop-color="#50525b"/></linearGradient><linearGradient id="linear-gradient-2" x1="886.26" y1="752.53" x2="1927.8" y2="752.53" gradientUnits="userSpaceOnUse"><stop offset="0" stop-color="#56575c"/><stop offset=".99" stop-color="#7a7c87"/></linearGradient><linearGradient id="linear-gradient-3" x1="919.87" y1="752.53" x2="1894.19" y2="752.53" xlink:href="#linear-gradient"/><linearGradient id="linear-gradient-4" x1="342.02" y1="1592.62" x2="1683.38" y2="1592.62" xlink:href="#linear-gradient-2"/><linearGradient id="linear-gradient-5" x1="342.01" y1="1557.14" x2="1683.38" y2="1557.14" gradientUnits="userSpaceOnUse"><stop offset="0" stop-color="#c8c9cd"/><stop offset="1" stop-color="#e6e7e9"/></linearGradient><linearGradient id="linear-gradient-6" x1="757.02" y1="1286.9" x2="830.22" y2="1286.9" xlink:href="#linear-gradient-2"/><linearGradient id="linear-gradient-7" x1="1539.9" y1="1432.7" x2="669.41" y2="1254.6" gradientUnits="userSpaceOnUse"><stop offset="0" stop-color="#c8c9cd"/><stop offset="1" stop-color="#fff"/></linearGradient><linearGradient id="linear-gradient-8" x1="818.34" y1="1322.74" x2="891.54" y2="1322.74" xlink:href="#linear-gradient-2"/><linearGradient id="linear-gradient-9" x1="1535.33" y1="1455.06" x2="664.83" y2="1276.96" xlink:href="#linear-gradient-7"/><linearGradient id="linear-gradient-10" x1="879.67" y1="1358.58" x2="952.87" y2="1358.58" xlink:href="#linear-gradient-2"/><linearGradient id="linear-gradient-11" x1="1530.75" y1="1477.42" x2="660.26" y2="1299.32" xlink:href="#linear-gradient-7"/><linearGradient id="linear-gradient-12" x1="940.99" y1="1394.42" x2="1014.19" y2="1394.42" xlink:href="#linear-gradient-2"/><linearGradient id="linear-gradient-13" x1="1526.18" y1="1499.78" x2="655.68" y2="1321.68" xlink:href="#linear-gradient-7"/><linearGradient id="linear-gradient-14" x1="1002.31" y1="1430.26" x2="1075.52" y2="1430.26" xlink:href="#linear-gradient-2"/><linearGradient id="linear-gradient-15" x1="1521.6" y1="1522.14" x2="651.11" y2="1344.04" xlink:href="#linear-gradient-7"/><linearGradient id="linear-gradient-16" x1="1063.64" y1="1466.11" x2="1136.84" y2="1466.11" xlink:href="#linear-gradient-2"/><linearGradient id="linear-gradient-17" x1="1517.03" y1="1544.5" x2="646.53" y2="1366.4" xlink:href="#linear-gradient-7"/><linearGradient id="linear-gradient-18" x1="1124.96" y1="1501.95" x2="1198.16" y2="1501.95" xlink:href="#linear-gradient-2"/><linearGradient id="linear-gradient-19" x1="1512.45" y1="1566.86" x2="641.96" y2="1388.76" xlink:href="#linear-gradient-7"/><linearGradient id="linear-gradient-20" x1="1186.29" y1="1537.79" x2="1259.49" y2="1537.79" xlink:href="#linear-gradient-2"/><linearGradient id="linear-gradient-21" x1="1507.88" y1="1589.22" x2="637.38" y2="1411.11" xlink:href="#linear-gradient-7"/><linearGradient id="linear-gradient-22" x1="1247.61" y1="1573.63" x2="1320.81" y2="1573.63" xlink:href="#linear-gradient-2"/><linearGradient id="linear-gradient-23" x1="1503.31" y1="1611.58" x2="632.81" y2="1433.47" xlink:href="#linear-gradient-7"/><linearGradient id="linear-gradient-24" x1="1308.94" y1="1609.47" x2="1382.14" y2="1609.47" xlink:href="#linear-gradient-2"/><linearGradient id="linear-gradient-25" x1="1498.73" y1="1633.93" x2="628.23" y2="1455.83" xlink:href="#linear-gradient-7"/><linearGradient id="linear-gradient-26" x1="1370.26" y1="1645.31" x2="1443.46" y2="1645.31" xlink:href="#linear-gradient-2"/><linearGradient id="linear-gradient-27" x1="1494.16" y1="1656.29" x2="623.66" y2="1478.19" xlink:href="#linear-gradient-7"/><linearGradient id="linear-gradient-28" x1="1431.58" y1="1681.16" x2="1504.79" y2="1681.16" xlink:href="#linear-gradient-2"/><linearGradient id="linear-gradient-29" x1="1489.58" y1="1678.65" x2="619.08" y2="1500.55" xlink:href="#linear-gradient-7"/><linearGradient id="linear-gradient-30" x1="704.98" y1="1333.9" x2="839.5" y2="1333.9" xlink:href="#linear-gradient-2"/><linearGradient id="linear-gradient-31" x1="1529.81" y1="1482.02" x2="659.32" y2="1303.92" xlink:href="#linear-gradient-7"/><linearGradient id="linear-gradient-32" x1="827.63" y1="1387.41" x2="900.83" y2="1387.41" xlink:href="#linear-gradient-2"/><linearGradient id="linear-gradient-33" x1="1523" y1="1515.31" x2="652.5" y2="1337.21" xlink:href="#linear-gradient-7"/><linearGradient id="linear-gradient-34" x1="888.95" y1="1423.25" x2="962.15" y2="1423.25" xlink:href="#linear-gradient-2"/><linearGradient id="linear-gradient-35" x1="1518.43" y1="1537.67" x2="647.93" y2="1359.56" xlink:href="#linear-gradient-7"/><linearGradient id="linear-gradient-36" x1="950.28" y1="1459.09" x2="1023.48" y2="1459.09" xlink:href="#linear-gradient-2"/><linearGradient id="linear-gradient-37" x1="1513.85" y1="1560.03" x2="643.36" y2="1381.92" xlink:href="#linear-gradient-7"/><linearGradient id="linear-gradient-38" x1="1011.6" y1="1494.93" x2="1084.8" y2="1494.93" xlink:href="#linear-gradient-2"/><linearGradient id="linear-gradient-39" x1="1509.28" y1="1582.38" x2="638.78" y2="1404.28" xlink:href="#linear-gradient-7"/><linearGradient id="linear-gradient-40" x1="1072.92" y1="1530.77" x2="1146.13" y2="1530.77" xlink:href="#linear-gradient-2"/><linearGradient id="linear-gradient-41" x1="1504.7" y1="1604.74" x2="634.21" y2="1426.64" xlink:href="#linear-gradient-7"/><linearGradient id="linear-gradient-42" x1="1134.25" y1="1566.61" x2="1207.45" y2="1566.61" xlink:href="#linear-gradient-2"/><linearGradient id="linear-gradient-43" x1="1500.13" y1="1627.1" x2="629.63" y2="1449" xlink:href="#linear-gradient-7"/><linearGradient id="linear-gradient-44" x1="1195.57" y1="1602.45" x2="1268.77" y2="1602.45" xlink:href="#linear-gradient-2"/><linearGradient id="linear-gradient-45" x1="1495.55" y1="1649.46" x2="625.06" y2="1471.36" xlink:href="#linear-gradient-7"/><linearGradient id="linear-gradient-46" x1="1256.9" y1="1638.3" x2="1330.1" y2="1638.3" xlink:href="#linear-gradient-2"/><linearGradient id="linear-gradient-47" x1="1490.98" y1="1671.82" x2="620.48" y2="1493.72" xlink:href="#linear-gradient-7"/><linearGradient id="linear-gradient-48" x1="1318.22" y1="1674.14" x2="1391.42" y2="1674.14" xlink:href="#linear-gradient-2"/><linearGradient id="linear-gradient-49" x1="1486.4" y1="1694.18" x2="615.91" y2="1516.08" xlink:href="#linear-gradient-7"/><linearGradient id="linear-gradient-50" x1="1379.55" y1="1709.98" x2="1452.75" y2="1709.98" xlink:href="#linear-gradient-2"/><linearGradient id="linear-gradient-51" x1="1481.83" y1="1716.54" x2="611.33" y2="1538.44" xlink:href="#linear-gradient-7"/><linearGradient id="linear-gradient-52" x1="652.94" y1="1344.55" x2="726.14" y2="1344.55" xlink:href="#linear-gradient-2"/><linearGradient id="linear-gradient-53" x1="1524.4" y1="1508.47" x2="653.9" y2="1330.37" xlink:href="#linear-gradient-7"/><linearGradient id="linear-gradient-54" x1="714.26" y1="1380.39" x2="787.47" y2="1380.39" xlink:href="#linear-gradient-2"/><linearGradient id="linear-gradient-55" x1="1519.82" y1="1530.83" x2="649.33" y2="1352.73" xlink:href="#linear-gradient-7"/><linearGradient id="linear-gradient-56" x1="775.59" y1="1416.23" x2="848.79" y2="1416.23" xlink:href="#linear-gradient-2"/><linearGradient id="linear-gradient-57" x1="1515.25" y1="1553.19" x2="644.75" y2="1375.09" xlink:href="#linear-gradient-7"/><linearGradient id="linear-gradient-58" x1="836.91" y1="1452.07" x2="910.11" y2="1452.07" xlink:href="#linear-gradient-2"/><linearGradient id="linear-gradient-59" x1="1510.68" y1="1575.55" x2="640.18" y2="1397.45" xlink:href="#linear-gradient-7"/><linearGradient id="linear-gradient-60" x1="898.24" y1="1487.91" x2="971.44" y2="1487.91" xlink:href="#linear-gradient-2"/><linearGradient id="linear-gradient-61" x1="1506.1" y1="1597.91" x2="635.6" y2="1419.81" xlink:href="#linear-gradient-7"/><linearGradient id="linear-gradient-62" x1="959.56" y1="1523.75" x2="1032.76" y2="1523.75" xlink:href="#linear-gradient-2"/><linearGradient id="linear-gradient-63" x1="1501.53" y1="1620.27" x2="631.03" y2="1442.17" xlink:href="#linear-gradient-7"/><linearGradient id="linear-gradient-64" x1="1020.89" y1="1559.6" x2="1094.09" y2="1559.6" xlink:href="#linear-gradient-2"/><linearGradient id="linear-gradient-65" x1="1496.95" y1="1642.63" x2="626.46" y2="1464.53" xlink:href="#linear-gradient-7"/><linearGradient id="linear-gradient-66" x1="1082.21" y1="1595.44" x2="1155.41" y2="1595.44" xlink:href="#linear-gradient-2"/><linearGradient id="linear-gradient-67" x1="1492.38" y1="1664.99" x2="621.88" y2="1486.89" xlink:href="#linear-gradient-7"/><linearGradient id="linear-gradient-68" x1="1143.53" y1="1631.28" x2="1216.74" y2="1631.28" xlink:href="#linear-gradient-2"/><linearGradient id="linear-gradient-69" x1="1487.8" y1="1687.35" x2="617.31" y2="1509.24" xlink:href="#linear-gradient-7"/><linearGradient id="linear-gradient-70" x1="1204.86" y1="1667.12" x2="1278.06" y2="1667.12" xlink:href="#linear-gradient-2"/><linearGradient id="linear-gradient-71" x1="1483.23" y1="1709.7" x2="612.73" y2="1531.6" xlink:href="#linear-gradient-7"/><linearGradient id="linear-gradient-72" x1="1266.18" y1="1702.96" x2="1339.38" y2="1702.96" xlink:href="#linear-gradient-2"/><linearGradient id="linear-gradient-73" x1="1478.65" y1="1732.06" x2="608.16" y2="1553.96" xlink:href="#linear-gradient-7"/><linearGradient id="linear-gradient-74" x1="1327.51" y1="1738.8" x2="1400.71" y2="1738.8" xlink:href="#linear-gradient-2"/><linearGradient id="linear-gradient-75" x1="1474.08" y1="1754.42" x2="603.58" y2="1576.32" xlink:href="#linear-gradient-7"/><linearGradient id="linear-gradient-76" x1="600.9" y1="1373.37" x2="674.1" y2="1373.37" xlink:href="#linear-gradient-2"/><linearGradient id="linear-gradient-77" x1="1516.65" y1="1546.36" x2="646.15" y2="1368.26" xlink:href="#linear-gradient-7"/><linearGradient id="linear-gradient-78" x1="662.23" y1="1409.21" x2="735.43" y2="1409.21" xlink:href="#linear-gradient-2"/><linearGradient id="linear-gradient-79" x1="1512.07" y1="1568.72" x2="641.57" y2="1390.62" xlink:href="#linear-gradient-7"/><linearGradient id="linear-gradient-80" x1="723.55" y1="1445.05" x2="796.75" y2="1445.05" xlink:href="#linear-gradient-2"/><linearGradient id="linear-gradient-81" x1="1507.5" y1="1591.08" x2="637" y2="1412.98" xlink:href="#linear-gradient-7"/><linearGradient id="linear-gradient-82" x1="784.87" y1="1480.9" x2="858.08" y2="1480.9" xlink:href="#linear-gradient-2"/><linearGradient id="linear-gradient-83" x1="1502.92" y1="1613.44" x2="632.43" y2="1435.34" xlink:href="#linear-gradient-7"/><linearGradient id="linear-gradient-84" x1="846.2" y1="1516.74" x2="919.4" y2="1516.74" xlink:href="#linear-gradient-2"/><linearGradient id="linear-gradient-85" x1="1498.35" y1="1635.8" x2="627.85" y2="1457.69" xlink:href="#linear-gradient-7"/><linearGradient id="linear-gradient-86" x1="907.52" y1="1552.58" x2="980.72" y2="1552.58" xlink:href="#linear-gradient-2"/><linearGradient id="linear-gradient-87" x1="1493.77" y1="1658.15" x2="623.28" y2="1480.05" xlink:href="#linear-gradient-7"/><linearGradient id="linear-gradient-88" x1="968.85" y1="1588.42" x2="1042.05" y2="1588.42" xlink:href="#linear-gradient-2"/><linearGradient id="linear-gradient-89" x1="1489.2" y1="1680.51" x2="618.7" y2="1502.41" xlink:href="#linear-gradient-7"/><linearGradient id="linear-gradient-90" x1="1030.17" y1="1624.26" x2="1103.37" y2="1624.26" xlink:href="#linear-gradient-2"/><linearGradient id="linear-gradient-91" x1="1484.63" y1="1702.87" x2="614.13" y2="1524.77" xlink:href="#linear-gradient-7"/><linearGradient id="linear-gradient-92" x1="1091.5" y1="1660.1" x2="1164.7" y2="1660.1" xlink:href="#linear-gradient-2"/><linearGradient id="linear-gradient-93" x1="1480.05" y1="1725.23" x2="609.55" y2="1547.13" xlink:href="#linear-gradient-7"/><linearGradient id="linear-gradient-94" x1="1152.82" y1="1695.94" x2="1226.02" y2="1695.94" xlink:href="#linear-gradient-2"/><linearGradient id="linear-gradient-95" x1="1475.48" y1="1747.59" x2="604.98" y2="1569.49" xlink:href="#linear-gradient-7"/><linearGradient id="linear-gradient-96" x1="1214.14" y1="1749.71" x2="1348.67" y2="1749.71" xlink:href="#linear-gradient-2"/><linearGradient id="linear-gradient-97" x1="1468.61" y1="1781.13" x2="598.12" y2="1603.03" xlink:href="#linear-gradient-7"/><linearGradient id="linear-gradient-98" x1="548.86" y1="1402.19" x2="622.06" y2="1402.19" xlink:href="#linear-gradient-2"/><linearGradient id="linear-gradient-99" x1="1508.89" y1="1584.25" x2="638.4" y2="1406.14" xlink:href="#linear-gradient-7"/><linearGradient id="linear-gradient-100" x1="610.19" y1="1438.04" x2="683.39" y2="1438.04" xlink:href="#linear-gradient-2"/><linearGradient id="linear-gradient-101" x1="1504.32" y1="1606.6" x2="633.83" y2="1428.5" xlink:href="#linear-gradient-7"/><linearGradient id="linear-gradient-102" x1="671.51" y1="1473.88" x2="744.71" y2="1473.88" xlink:href="#linear-gradient-2"/><linearGradient id="linear-gradient-103" x1="1499.75" y1="1628.96" x2="629.25" y2="1450.86" xlink:href="#linear-gradient-7"/><linearGradient id="linear-gradient-104" x1="732.84" y1="1509.72" x2="806.04" y2="1509.72" xlink:href="#linear-gradient-2"/><linearGradient id="linear-gradient-105" x1="1495.17" y1="1651.32" x2="624.68" y2="1473.22" xlink:href="#linear-gradient-7"/><linearGradient id="linear-gradient-106" x1="794.16" y1="1545.56" x2="867.36" y2="1545.56" xlink:href="#linear-gradient-2"/><linearGradient id="linear-gradient-107" x1="1490.6" y1="1673.68" x2="620.1" y2="1495.58" xlink:href="#linear-gradient-7"/><linearGradient id="linear-gradient-108" x1="855.48" y1="1581.4" x2="928.69" y2="1581.4" xlink:href="#linear-gradient-2"/><linearGradient id="linear-gradient-109" x1="1486.02" y1="1696.04" x2="615.53" y2="1517.94" xlink:href="#linear-gradient-7"/><linearGradient id="linear-gradient-110" x1="916.81" y1="1617.24" x2="990.01" y2="1617.24" xlink:href="#linear-gradient-2"/><linearGradient id="linear-gradient-111" x1="1481.45" y1="1718.4" x2="610.95" y2="1540.3" xlink:href="#linear-gradient-7"/><linearGradient id="linear-gradient-112" x1="978.13" y1="1653.09" x2="1051.33" y2="1653.09" xlink:href="#linear-gradient-2"/><linearGradient id="linear-gradient-113" x1="1476.87" y1="1740.76" x2="606.38" y2="1562.66" xlink:href="#linear-gradient-7"/><linearGradient id="linear-gradient-114" x1="1039.46" y1="1688.93" x2="1112.66" y2="1688.93" xlink:href="#linear-gradient-2"/><linearGradient id="linear-gradient-115" x1="1472.3" y1="1763.12" x2="601.8" y2="1585.02" xlink:href="#linear-gradient-7"/><linearGradient id="linear-gradient-116" x1="1100.78" y1="1724.77" x2="1173.98" y2="1724.77" xlink:href="#linear-gradient-2"/><linearGradient id="linear-gradient-117" x1="1467.73" y1="1785.48" x2="597.23" y2="1607.37" xlink:href="#linear-gradient-7"/><linearGradient id="linear-gradient-118" x1="1162.11" y1="1760.61" x2="1235.31" y2="1760.61" xlink:href="#linear-gradient-2"/><linearGradient id="linear-gradient-119" x1="1463.15" y1="1807.83" x2="592.65" y2="1629.73" xlink:href="#linear-gradient-7"/><linearGradient id="linear-gradient-120" x1="1223.43" y1="1796.45" x2="1296.63" y2="1796.45" xlink:href="#linear-gradient-2"/><linearGradient id="linear-gradient-121" x1="1458.58" y1="1830.19" x2="588.08" y2="1652.09" xlink:href="#linear-gradient-7"/><linearGradient id="linear-gradient-122" x1="496.82" y1="1431.02" x2="570.03" y2="1431.02" xlink:href="#linear-gradient-2"/><linearGradient id="linear-gradient-123" x1="1501.15" y1="1622.13" x2="630.65" y2="1444.03" xlink:href="#linear-gradient-7"/><linearGradient id="linear-gradient-124" x1="558.15" y1="1466.86" x2="631.35" y2="1466.86" xlink:href="#linear-gradient-2"/><linearGradient id="linear-gradient-125" x1="1496.57" y1="1644.49" x2="626.07" y2="1466.39" xlink:href="#linear-gradient-7"/><linearGradient id="linear-gradient-126" x1="619.47" y1="1502.7" x2="692.68" y2="1502.7" xlink:href="#linear-gradient-2"/><linearGradient id="linear-gradient-127" x1="1492" y1="1666.85" x2="621.5" y2="1488.75" xlink:href="#linear-gradient-7"/><linearGradient id="linear-gradient-128" x1="680.8" y1="1592.62" x2="937.16" y2="1592.62" xlink:href="#linear-gradient-2"/><linearGradient id="linear-gradient-129" x1="1480.48" y1="1723.13" x2="609.99" y2="1545.03" xlink:href="#linear-gradient-7"/><linearGradient id="linear-gradient-130" x1="926.1" y1="1681.91" x2="999.3" y2="1681.91" xlink:href="#linear-gradient-2"/><linearGradient id="linear-gradient-131" x1="1469.12" y1="1778.64" x2="598.63" y2="1600.54" xlink:href="#linear-gradient-7"/><linearGradient id="linear-gradient-132" x1="987.42" y1="1717.75" x2="1060.62" y2="1717.75" xlink:href="#linear-gradient-2"/><linearGradient id="linear-gradient-133" x1="1464.55" y1="1801" x2="594.05" y2="1622.9" xlink:href="#linear-gradient-7"/><linearGradient id="linear-gradient-134" x1="1048.74" y1="1753.59" x2="1121.95" y2="1753.59" xlink:href="#linear-gradient-2"/><linearGradient id="linear-gradient-135" x1="1459.97" y1="1823.36" x2="589.48" y2="1645.26" xlink:href="#linear-gradient-7"/><linearGradient id="linear-gradient-136" x1="1110.07" y1="1789.44" x2="1183.27" y2="1789.44" xlink:href="#linear-gradient-2"/><linearGradient id="linear-gradient-137" x1="1455.4" y1="1845.72" x2="584.9" y2="1667.62" xlink:href="#linear-gradient-7"/><linearGradient id="linear-gradient-138" x1="1171.39" y1="1825.28" x2="1244.59" y2="1825.28" xlink:href="#linear-gradient-2"/><linearGradient id="linear-gradient-139" x1="1450.83" y1="1868.08" x2="580.33" y2="1689.98" xlink:href="#linear-gradient-7"/><linearGradient id="linear-gradient-140" x1="711.99" y1="377.79" x2="1711.64" y2="377.79" gradientUnits="userSpaceOnUse"><stop offset="0" stop-color="#4c6fbf"/><stop offset="1" stop-color="#8ca3d8"/></linearGradient><linearGradient id="linear-gradient-141" x1="717.42" y1="218.82" x2="741.18" y2="979.26" gradientUnits="userSpaceOnUse"><stop offset="0" stop-color="#ffac06"/><stop offset="1" stop-color="#fa8a13"/></linearGradient><linearGradient id="linear-gradient-142" x1="1120.04" y1="2781.85" x2="1120.79" y2="2805.62" gradientTransform="translate(0 -2954.46) rotate(30.71) scale(1.16 .86) skewX(23.7)" xlink:href="#linear-gradient-141"/><linearGradient id="linear-gradient-143" x1="1151.12" y1="2847.43" x2="1151.9" y2="2872.68" gradientTransform="translate(0 -2954.46) rotate(30.71) scale(1.16 .86) skewX(23.7)" xlink:href="#linear-gradient-140"/><linearGradient id="linear-gradient-144" x1="1132.39" y1="2914.34" x2="1133.15" y2="2938.7" gradientTransform="translate(0 -2954.46) rotate(30.71) scale(1.16 .86) skewX(23.7)" xlink:href="#linear-gradient-140"/><linearGradient id="linear-gradient-145" x1="1143.97" y1="2980.44" x2="1144.74" y2="3005.35" gradientTransform="translate(0 -2954.46) rotate(30.71) scale(1.16 .86) skewX(23.7)" xlink:href="#linear-gradient-140"/><linearGradient id="linear-gradient-146" x1="1151.12" y1="3046.66" x2="1151.9" y2="3071.91" gradientTransform="translate(0 -2954.46) rotate(30.71) scale(1.16 .86) skewX(23.7)" xlink:href="#linear-gradient-140"/><linearGradient id="linear-gradient-147" x1="1111.85" y1="3114.12" x2="1112.58" y2="3137.5" gradientTransform="translate(0 -2954.46) rotate(30.71) scale(1.16 .86) skewX(23.7)" xlink:href="#linear-gradient-140"/><linearGradient id="linear-gradient-148" x1="1386.49" y1="2780.61" x2="1387.31" y2="2806.58" gradientTransform="translate(0 -2954.46) rotate(30.71) scale(1.16 .86) skewX(23.7)" xlink:href="#linear-gradient-141"/><linearGradient id="linear-gradient-149" x1="1417.56" y1="2846.19" x2="1418.42" y2="2873.64" gradientTransform="translate(0 -2954.46) rotate(30.71) scale(1.16 .86) skewX(23.7)" xlink:href="#linear-gradient-140"/><linearGradient id="linear-gradient-150" x1="1398.84" y1="2913.1" x2="1399.67" y2="2939.66" gradientTransform="translate(0 -2954.46) rotate(30.71) scale(1.16 .86) skewX(23.7)" xlink:href="#linear-gradient-140"/><linearGradient id="linear-gradient-151" x1="1410.41" y1="2979.2" x2="1411.26" y2="3006.31" gradientTransform="translate(0 -2954.46) rotate(30.71) scale(1.16 .86) skewX(23.7)" xlink:href="#linear-gradient-140"/><linearGradient id="linear-gradient-152" x1="1417.56" y1="3045.42" x2="1418.42" y2="3072.87" gradientTransform="translate(0 -2954.46) rotate(30.71) scale(1.16 .86) skewX(23.7)" xlink:href="#linear-gradient-140"/><linearGradient id="linear-gradient-153" x1="1378.3" y1="3112.88" x2="1379.1" y2="3138.46" gradientTransform="translate(0 -2954.46) rotate(30.71) scale(1.16 .86) skewX(23.7)" xlink:href="#linear-gradient-140"/><linearGradient id="linear-gradient-154" x1="1419.98" y1="1498.78" x2="1323.05" y2="1246.06" xlink:href="#linear-gradient-141"/><linearGradient id="linear-gradient-155" x1="1131.66" y1="1376.79" x2="1456.56" y2="1376.79" xlink:href="#linear-gradient-141"/><linearGradient id="linear-gradient-156" x1="1158.06" y1="1364.17" x2="1456.56" y2="1364.17" gradientUnits="userSpaceOnUse"><stop offset="0" stop-color="#ffac06"/><stop offset="1" stop-color="#fff"/></linearGradient><linearGradient id="linear-gradient-157" x1="126.71" y1="987.38" x2="1087.95" y2="987.38" xlink:href="#linear-gradient-140"/><linearGradient id="linear-gradient-158" x1="783.06" y1="1491.46" x2="497.72" y2="772.62" xlink:href="#linear-gradient-140"/><linearGradient id="linear-gradient-159" x1="145.13" y1="1000.22" x2="1026" y2="1000.22" xlink:href="#linear-gradient-140"/><linearGradient id="linear-gradient-160" x1="841.78" y1="1194.58" x2="1025.99" y2="1194.58" xlink:href="#linear-gradient-140"/><linearGradient id="linear-gradient-161" x1="183.17" y1="3636.39" x2="217.9" y2="3636.39" gradientTransform="translate(2305.26 -2347.02) rotate(66.47) scale(1.15 .87) skewX(23.12)" xlink:href="#linear-gradient"/><linearGradient id="linear-gradient-162" x1="255.01" y1="3636.4" x2="289.74" y2="3636.4" gradientTransform="translate(2344.21 -2382.22) rotate(66.47) scale(1.15 .87) skewX(23.12)" xlink:href="#linear-gradient"/><linearGradient id="linear-gradient-163" x1="326.84" y1="3636.4" x2="361.58" y2="3636.4" gradientTransform="translate(2383.15 -2417.43) rotate(66.47) scale(1.15 .87) skewX(23.12)" xlink:href="#linear-gradient"/><linearGradient id="linear-gradient-164" x1="398.68" y1="3636.4" x2="433.42" y2="3636.4" gradientTransform="translate(2422.11 -2452.63) rotate(66.47) scale(1.15 .87) skewX(23.12)" xlink:href="#linear-gradient"/><linearGradient id="linear-gradient-165" x1="470.52" y1="3636.4" x2="505.26" y2="3636.4" gradientTransform="translate(2461.06 -2487.83) rotate(66.47) scale(1.15 .87) skewX(23.12)" xlink:href="#linear-gradient"/><linearGradient id="linear-gradient-166" x1="542.36" y1="3636.4" x2="577.1" y2="3636.4" gradientTransform="translate(2500.01 -2523.03) rotate(66.47) scale(1.15 .87) skewX(23.12)" xlink:href="#linear-gradient"/><linearGradient id="linear-gradient-167" x1="126.71" y1="1327.61" x2="1087.95" y2="1327.61" xlink:href="#linear-gradient-140"/><linearGradient id="linear-gradient-168" x1="666.39" y1="1537.78" x2="381.05" y2="818.94" xlink:href="#linear-gradient-140"/><linearGradient id="linear-gradient-169" x1="145.13" y1="1340.46" x2="1026" y2="1340.46" xlink:href="#linear-gradient-140"/><linearGradient id="linear-gradient-170" x1="841.78" y1="1534.82" x2="1025.99" y2="1534.82" xlink:href="#linear-gradient-140"/><linearGradient id="linear-gradient-171" x1="183.17" y1="3976.63" x2="217.9" y2="3976.63" gradientTransform="translate(2510.78 -2277.93) rotate(66.47) scale(1.15 .87) skewX(23.12)" xlink:href="#linear-gradient"/><linearGradient id="linear-gradient-172" x1="255.01" y1="3976.63" x2="289.74" y2="3976.63" gradientTransform="translate(2549.73 -2313.13) rotate(66.47) scale(1.15 .87) skewX(23.12)" xlink:href="#linear-gradient"/><linearGradient id="linear-gradient-173" x1="326.84" y1="3976.63" x2="361.58" y2="3976.63" gradientTransform="translate(2588.68 -2348.34) rotate(66.47) scale(1.15 .87) skewX(23.12)" xlink:href="#linear-gradient"/><linearGradient id="linear-gradient-174" x1="398.68" y1="3976.64" x2="433.42" y2="3976.64" gradientTransform="translate(2627.63 -2383.54) rotate(66.47) scale(1.15 .87) skewX(23.12)" xlink:href="#linear-gradient"/><linearGradient id="linear-gradient-175" x1="470.52" y1="3976.64" x2="505.26" y2="3976.64" gradientTransform="translate(2666.58 -2418.75) rotate(66.47) scale(1.15 .87) skewX(23.12)" xlink:href="#linear-gradient"/><linearGradient id="linear-gradient-176" x1="542.36" y1="3976.64" x2="577.1" y2="3976.64" gradientTransform="translate(2705.53 -2453.95) rotate(66.47) scale(1.15 .87) skewX(23.12)" xlink:href="#linear-gradient"/><linearGradient id="linear-gradient-177" x1="274.27" y1="1671.97" x2="304.84" y2="2077.74" gradientUnits="userSpaceOnUse"><stop offset="0" stop-color="#dcb274"/><stop offset="1" stop-color="#ffdc96"/></linearGradient><linearGradient id="linear-gradient-178" x1="508.07" y1="1778.68" x2="202.11" y2="1606.47" gradientUnits="userSpaceOnUse"><stop offset="0" stop-color="#d3a361"/><stop offset="1" stop-color="#bc782e"/></linearGradient><linearGradient id="linear-gradient-179" x1="505.99" y1="2022.75" x2="505.99" y2="1797.11" gradientUnits="userSpaceOnUse"><stop offset="0" stop-color="#d6a868"/><stop offset="1" stop-color="#c2833c"/></linearGradient></defs><g class="cls-214"><ellipse class="cls-53" cx="1174.08" cy="1762.61" rx="589.99" ry="274.44"/><ellipse class="cls-36" cx="1174.08" cy="1762.61" rx="580.54" ry="270.05"/><ellipse class="cls-178" cx="1174.08" cy="1762.61" rx="571.1" ry="265.65"/><ellipse class="cls-198" cx="1174.08" cy="1762.61" rx="561.66" ry="261.26"/><ellipse class="cls-31" cx="1174.08" cy="1762.61" rx="552.21" ry="256.87"/><ellipse class="cls-158" cx="1174.08" cy="1762.61" rx="542.77" ry="252.47"/><ellipse class="cls-111" cx="1174.08" cy="1762.61" rx="533.32" ry="248.08"/><ellipse class="cls-44" cx="1174.08" cy="1762.61" rx="523.88" ry="243.69"/><ellipse class="cls-2" cx="1174.08" cy="1762.61" rx="514.44" ry="239.3"/><ellipse class="cls-43" cx="1174.08" cy="1762.61" rx="504.99" ry="234.9"/><ellipse class="cls-194" cx="1174.08" cy="1762.61" rx="495.55" ry="230.51"/><ellipse class="cls-106" cx="1174.08" cy="1762.61" rx="486.1" ry="226.12"/><ellipse class="cls-28" cx="1174.08" cy="1762.61" rx="476.66" ry="221.72"/><ellipse class="cls-34" cx="1174.08" cy="1762.61" rx="467.21" ry="217.33"/><ellipse class="cls-1" cx="1174.08" cy="1762.61" rx="457.77" ry="212.94"/><ellipse class="cls-103" cx="1174.08" cy="1762.61" rx="448.33" ry="208.54"/><ellipse class="cls-5" cx="1174.08" cy="1762.61" rx="438.88" ry="204.15"/><ellipse class="cls-33" cx="1174.08" cy="1762.61" rx="429.44" ry="199.76"/><ellipse class="cls-113" cx="1174.08" cy="1762.61" rx="419.99" ry="195.36"/><ellipse class="cls-127" cx="1174.08" cy="1762.61" rx="410.55" ry="190.97"/><ellipse class="cls-40" cx="1174.08" cy="1762.61" rx="401.11" ry="186.58"/><ellipse class="cls-142" cx="1174.08" cy="1762.61" rx="391.66" ry="182.19"/><ellipse class="cls-49" cx="1174.08" cy="1762.61" rx="382.22" ry="177.79"/><ellipse class="cls-72" cx="1174.08" cy="1762.61" rx="372.77" ry="173.4"/><ellipse class="cls-116" cx="1174.08" cy="1762.61" rx="363.33" ry="169.01"/><ellipse class="cls-138" cx="1174.08" cy="1762.61" rx="353.88" ry="164.61"/><ellipse class="cls-115" cx="1174.08" cy="1762.61" rx="344.44" ry="160.22"/><ellipse class="cls-73" cx="1174.08" cy="1762.61" rx="335" ry="155.83"/></g><g class="cls-214"><ellipse class="cls-53" cx="1549.55" cy="1203.18" rx="589.99" ry="274.44"/><ellipse class="cls-36" cx="1549.55" cy="1203.18" rx="580.54" ry="270.05"/><ellipse class="cls-178" cx="1549.55" cy="1203.18" rx="571.1" ry="265.65"/><ellipse class="cls-198" cx="1549.55" cy="1203.18" rx="561.66" ry="261.26"/><ellipse class="cls-31" cx="1549.55" cy="1203.18" rx="552.21" ry="256.87"/><ellipse class="cls-158" cx="1549.55" cy="1203.18" rx="542.77" ry="252.47"/><ellipse class="cls-111" cx="1549.55" cy="1203.18" rx="533.32" ry="248.08"/><ellipse class="cls-44" cx="1549.55" cy="1203.18" rx="523.88" ry="243.69"/><ellipse class="cls-2" cx="1549.55" cy="1203.18" rx="514.44" ry="239.3"/><ellipse class="cls-43" cx="1549.55" cy="1203.18" rx="504.99" ry="234.9"/><ellipse class="cls-194" cx="1549.55" cy="1203.18" rx="495.55" ry="230.51"/><ellipse class="cls-106" cx="1549.55" cy="1203.18" rx="486.1" ry="226.12"/><ellipse class="cls-28" cx="1549.55" cy="1203.18" rx="476.66" ry="221.72"/><ellipse class="cls-34" cx="1549.55" cy="1203.18" rx="467.21" ry="217.33"/><ellipse class="cls-1" cx="1549.55" cy="1203.18" rx="457.77" ry="212.94"/><ellipse class="cls-103" cx="1549.55" cy="1203.18" rx="448.33" ry="208.54"/><ellipse class="cls-5" cx="1549.55" cy="1203.18" rx="438.88" ry="204.15"/><ellipse class="cls-33" cx="1549.55" cy="1203.18" rx="429.44" ry="199.76"/><ellipse class="cls-113" cx="1549.55" cy="1203.18" rx="419.99" ry="195.36"/><ellipse class="cls-127" cx="1549.55" cy="1203.18" rx="410.55" ry="190.97"/><ellipse class="cls-40" cx="1549.55" cy="1203.18" rx="401.11" ry="186.58"/><ellipse class="cls-142" cx="1549.55" cy="1203.18" rx="391.66" ry="182.19"/><ellipse class="cls-49" cx="1549.55" cy="1203.18" rx="382.22" ry="177.79"/><ellipse class="cls-72" cx="1549.55" cy="1203.18" rx="372.77" ry="173.4"/><ellipse class="cls-116" cx="1549.55" cy="1203.18" rx="363.33" ry="169.01"/><ellipse class="cls-138" cx="1549.55" cy="1203.18" rx="353.88" ry="164.61"/><ellipse class="cls-115" cx="1549.55" cy="1203.18" rx="344.44" ry="160.22"/><ellipse class="cls-73" cx="1549.55" cy="1203.18" rx="335" ry="155.83"/></g><g class="cls-214"><ellipse class="cls-53" cx="326.84" cy="2071.36" rx="326.84" ry="152.04"/><ellipse class="cls-36" cx="326.84" cy="2071.36" rx="321.61" ry="149.6"/><ellipse class="cls-178" cx="326.84" cy="2071.36" rx="316.38" ry="147.17"/><ellipse class="cls-198" cx="326.84" cy="2071.36" rx="311.15" ry="144.73"/><ellipse class="cls-31" cx="326.84" cy="2071.36" rx="305.92" ry="142.3"/><ellipse class="cls-158" cx="326.84" cy="2071.36" rx="300.68" ry="139.87"/><ellipse class="cls-111" cx="326.84" cy="2071.36" rx="295.45" ry="137.43"/><ellipse class="cls-44" cx="326.84" cy="2071.36" rx="290.22" ry="135"/><ellipse class="cls-2" cx="326.84" cy="2071.36" rx="284.99" ry="132.57"/><ellipse class="cls-43" cx="326.84" cy="2071.36" rx="279.76" ry="130.13"/><ellipse class="cls-194" cx="326.84" cy="2071.36" rx="274.52" ry="127.7"/><ellipse class="cls-106" cx="326.84" cy="2071.36" rx="269.29" ry="125.26"/><ellipse class="cls-28" cx="326.84" cy="2071.36" rx="264.06" ry="122.83"/><ellipse class="cls-34" cx="326.84" cy="2071.36" rx="258.83" ry="120.4"/><ellipse class="cls-1" cx="326.84" cy="2071.36" rx="253.6" ry="117.96"/><ellipse class="cls-103" cx="326.84" cy="2071.36" rx="248.37" ry="115.53"/><ellipse class="cls-5" cx="326.84" cy="2071.36" rx="243.13" ry="113.1"/><ellipse class="cls-33" cx="326.84" cy="2071.36" rx="237.9" ry="110.66"/><ellipse class="cls-113" cx="326.84" cy="2071.36" rx="232.67" ry="108.23"/><ellipse class="cls-127" cx="326.84" cy="2071.36" rx="227.44" ry="105.8"/><ellipse class="cls-40" cx="326.84" cy="2071.36" rx="222.21" ry="103.36"/><ellipse class="cls-142" cx="326.84" cy="2071.36" rx="216.97" ry="100.93"/><ellipse class="cls-49" cx="326.84" cy="2071.36" rx="211.74" ry="98.49"/><ellipse class="cls-72" cx="326.84" cy="2071.36" rx="206.51" ry="96.06"/><ellipse class="cls-116" cx="326.84" cy="2071.36" rx="201.28" ry="93.63"/><ellipse class="cls-138" cx="326.84" cy="2071.36" rx="196.05" ry="91.19"/><ellipse class="cls-115" cx="326.84" cy="2071.36" rx="190.81" ry="88.76"/><ellipse class="cls-73" cx="326.84" cy="2071.36" rx="185.58" ry="86.33"/></g><path class="cls-13" d="m1928.22,544.14L1002.84,6.51c-31.73-18.43-95.3,4.49-95.3,41.18l23.8,753.96c0,38.95,20.73,74.97,54.41,94.54l909.21,562.74c22.96,13.34,77.91-.63,77.91-49.07v-788.1c0-31.98-17.01-61.54-44.67-77.61Z"/><path class="cls-99" d="m1883.13,574.5L957.76,36.87c-31.73-18.43-71.5,4.46-71.5,41.15v753.99c0,38.95,20.73,74.97,54.41,94.54l935.38,543.45c22.96,13.34,51.75-3.23,51.75-29.78v-788.1c0-31.98-17.01-61.54-44.67-77.61Z"/><path class="cls-89" d="m1893.3,1441.1s-.16-.04-.37-.17l-935.37-543.45c-23.24-13.51-37.69-38.59-37.69-65.48V78.02c0-9.59,8.39-14.05,14.06-14.05,2.36,0,4.7.66,6.95,1.96l925.38,537.64c17.23,10.01,27.94,28.61,27.94,48.54v788.1c-.12.56-.6.89-.89.89Z"/><path class="cls-112" d="m974.12,890.78c-23.25-13.51-37.69-38.6-37.69-65.48V71.31c0-2.57.63-4.75,1.62-6.59-1.36-.46-2.73-.75-4.13-.75-5.67,0-14.06,4.46-14.06,14.05v753.99c0,26.88,14.44,51.97,37.69,65.47l935.37,543.45c.22.12.35.17.37.17.29,0,.77-.33.89-.89v-14.88l-920.07-534.56Z"/><path class="cls-195" d="m1683.38,1719.41l-170.37-79.49-740.52-426.92c-28.71-16.64-64.03-17.07-93.15-1.15l-284.25,157.34-53.09,19.19v36.43l.06.03c.22,14.48,7.41,28.87,21.76,37.18l880.76,508.16c33.31,19.3,74.28,19.8,108.05,1.33l308.42-170.55c14.86-8.12,22.29-22.89,22.28-37.66l.03-.02v-43.88Z"/><path class="cls-54" d="m772.5,1177.52l889.49,513.22c28.93,16.76,28.41,58.71-.92,74.75l-308.42,170.55c-33.77,18.47-74.74,17.96-108.05-1.33l-880.76-508.16c-29.52-17.1-28.99-59.89.94-76.26l314.57-173.91c29.12-15.92,64.43-15.49,93.15,1.15Z"/><path class="cls-27" d="m830.22,1280.64l-19.1-5.65-14.34-8.57c-3.22-1.86-7.18-1.91-10.44-.13l-23.37,12.78-5.95-1.11v7.34h0c.02,1.63.83,3.24,2.44,4.17l30.06,17.68c3.73,2.16,8.33,2.22,12.11.15l26.08-14.26c1.67-.91,2.5-2.57,2.5-4.22h0v-8.18Z"/><path class="cls-109" d="m796.78,1259.51l31.04,18.25c3.24,1.88,3.19,6.58-.1,8.38l-26.08,14.26c-3.79,2.07-8.38,2.01-12.11-.15l-30.06-17.68c-3.31-1.92-3.25-6.71.11-8.55l26.77-14.64c3.26-1.78,7.22-1.74,10.44.13Z"/><path class="cls-149" d="m891.54,1316.48l-19.1-5.65-14.34-8.57c-3.22-1.86-7.18-1.91-10.44-.13l-23.37,12.78-5.95-1.11v7.34h0c.02,1.63.83,3.24,2.44,4.17l30.06,17.68c3.73,2.16,8.33,2.22,12.11.15l26.08-14.26c1.67-.91,2.5-2.57,2.5-4.22h0v-8.18Z"/><path class="cls-123" d="m858.11,1295.35l31.04,18.25c3.24,1.88,3.19,6.58-.1,8.38l-26.08,14.26c-3.79,2.07-8.38,2.01-12.11-.15l-30.06-17.68c-3.31-1.92-3.25-6.71.11-8.55l26.77-14.64c3.26-1.78,7.22-1.74,10.44.13Z"/><path class="cls-182" d="m952.87,1352.32l-19.1-5.65-14.34-8.57c-3.22-1.86-7.18-1.91-10.44-.13l-23.37,12.78-5.95-1.11v7.34h0c.02,1.63.83,3.24,2.44,4.17l30.06,17.68c3.73,2.16,8.33,2.22,12.11.15l26.08-14.26c1.67-.91,2.5-2.57,2.5-4.22h0v-8.18Z"/><path class="cls-45" d="m919.43,1331.19l31.04,18.25c3.24,1.88,3.19,6.58-.1,8.38l-26.08,14.26c-3.79,2.07-8.38,2.01-12.11-.15l-30.06-17.68c-3.31-1.92-3.25-6.71.11-8.55l26.77-14.64c3.26-1.78,7.22-1.74,10.44.13Z"/><path class="cls-4" d="m1014.19,1388.16l-19.1-5.65-14.34-8.57c-3.22-1.86-7.18-1.91-10.44-.13l-23.37,12.78-5.95-1.11v7.34h0c.02,1.63.83,3.24,2.44,4.17l30.06,17.68c3.73,2.16,8.33,2.22,12.11.15l26.08-14.26c1.67-.91,2.5-2.57,2.5-4.22h0v-8.18Z"/><path class="cls-80" d="m980.76,1367.03l31.04,18.25c3.24,1.88,3.19,6.58-.1,8.38l-26.08,14.26c-3.79,2.07-8.38,2.01-12.11-.15l-30.06-17.68c-3.31-1.92-3.25-6.71.11-8.55l26.77-14.64c3.26-1.78,7.22-1.74,10.44.13Z"/><path class="cls-98" d="m1075.52,1424l-19.1-5.65-14.34-8.57c-3.22-1.86-7.18-1.91-10.44-.13l-23.37,12.78-5.95-1.11v7.34h0c.02,1.63.83,3.24,2.44,4.17l30.06,17.68c3.73,2.16,8.33,2.22,12.11.15l26.08-14.26c1.67-.91,2.5-2.57,2.5-4.22h0v-8.18Z"/><path class="cls-42" d="m1042.08,1402.87l31.04,18.25c3.24,1.88,3.19,6.58-.1,8.38l-26.08,14.26c-3.79,2.07-8.38,2.01-12.11-.15l-30.06-17.68c-3.31-1.92-3.25-6.71.11-8.55l26.77-14.64c3.26-1.78,7.22-1.74,10.44.13Z"/><path class="cls-85" d="m1136.84,1459.85l-19.1-5.65-14.34-8.57c-3.22-1.86-7.18-1.91-10.44-.13l-23.37,12.78-5.95-1.11v7.34h0c.02,1.63.83,3.24,2.44,4.17l30.06,17.68c3.73,2.16,8.33,2.22,12.11.15l26.08-14.26c1.67-.91,2.5-2.57,2.5-4.22h0v-8.18Z"/><path class="cls-8" d="m1103.41,1438.72l31.04,18.25c3.24,1.88,3.19,6.58-.1,8.38l-26.08,14.26c-3.79,2.07-8.38,2.01-12.11-.15l-30.06-17.68c-3.31-1.92-3.25-6.71.11-8.55l26.77-14.64c3.26-1.78,7.22-1.74,10.44.13Z"/><path class="cls-157" d="m1198.16,1495.69l-19.1-5.65-14.34-8.57c-3.22-1.86-7.18-1.91-10.44-.13l-23.37,12.78-5.95-1.11v7.34h0c.02,1.63.83,3.24,2.44,4.17l30.06,17.68c3.73,2.16,8.33,2.22,12.11.15l26.08-14.26c1.67-.91,2.5-2.57,2.5-4.22h0v-8.18Z"/><path class="cls-11" d="m1164.73,1474.56l31.04,18.25c3.24,1.88,3.19,6.58-.1,8.38l-26.08,14.26c-3.79,2.07-8.38,2.01-12.11-.15l-30.06-17.68c-3.31-1.92-3.25-6.71.11-8.55l26.77-14.64c3.26-1.78,7.22-1.74,10.44.13Z"/><path class="cls-97" d="m1259.49,1531.53l-19.1-5.65-14.34-8.57c-3.22-1.86-7.18-1.91-10.44-.13l-23.37,12.78-5.95-1.11v7.34h0c.02,1.63.83,3.24,2.44,4.17l30.06,17.68c3.73,2.16,8.33,2.22,12.11.15l26.08-14.26c1.67-.91,2.5-2.57,2.5-4.22h0v-8.18Z"/><path class="cls-26" d="m1226.05,1510.4l31.04,18.25c3.24,1.88,3.19,6.58-.1,8.38l-26.08,14.26c-3.79,2.07-8.38,2.01-12.11-.15l-30.06-17.68c-3.31-1.92-3.25-6.71.11-8.55l26.77-14.64c3.26-1.78,7.22-1.74,10.44.13Z"/><path class="cls-86" d="m1320.81,1567.37l-19.1-5.65-14.34-8.57c-3.22-1.86-7.18-1.91-10.44-.13l-23.37,12.78-5.95-1.11v7.34h0c.02,1.63.83,3.24,2.44,4.17l30.06,17.68c3.73,2.16,8.33,2.22,12.11.15l26.08-14.26c1.67-.91,2.5-2.57,2.5-4.22h0v-8.18Z"/><path class="cls-81" d="m1287.38,1546.24l31.04,18.25c3.24,1.88,3.19,6.58-.1,8.38l-26.08,14.26c-3.79,2.07-8.38,2.01-12.11-.15l-30.06-17.68c-3.31-1.92-3.25-6.71.11-8.55l26.77-14.64c3.26-1.78,7.22-1.74,10.44.13Z"/><path class="cls-153" d="m1382.14,1603.21l-19.1-5.65-14.34-8.57c-3.22-1.86-7.18-1.91-10.44-.13l-23.37,12.78-5.95-1.11v7.34h0c.02,1.63.83,3.24,2.44,4.17l30.06,17.68c3.73,2.16,8.33,2.22,12.11.15l26.08-14.26c1.67-.91,2.5-2.57,2.5-4.22h0v-8.18Z"/><path class="cls-82" d="m1348.7,1582.08l31.04,18.25c3.24,1.88,3.19,6.58-.1,8.38l-26.08,14.26c-3.79,2.07-8.38,2.01-12.11-.15l-30.06-17.68c-3.31-1.92-3.25-6.71.11-8.55l26.77-14.64c3.26-1.78,7.22-1.74,10.44.13Z"/><path class="cls-154" d="m1443.46,1639.05l-19.1-5.65-14.34-8.57c-3.22-1.86-7.18-1.91-10.44-.13l-23.37,12.78-5.95-1.11v7.34h0c.02,1.63.83,3.24,2.44,4.17l30.06,17.68c3.73,2.16,8.33,2.22,12.11.15l26.08-14.26c1.67-.91,2.5-2.57,2.5-4.22h0v-8.18Z"/><path class="cls-124" d="m1410.03,1617.92l31.04,18.25c3.24,1.88,3.19,6.58-.1,8.38l-26.08,14.26c-3.79,2.07-8.38,2.01-12.11-.15l-30.06-17.68c-3.31-1.92-3.25-6.71.11-8.55l26.77-14.64c3.26-1.78,7.22-1.74,10.44.13Z"/><path class="cls-179" d="m1504.79,1674.89l-19.1-5.65-14.34-8.57c-3.22-1.86-7.18-1.91-10.44-.13l-23.37,12.78-5.95-1.11v7.34h0c.02,1.63.83,3.24,2.44,4.17l30.06,17.68c3.73,2.16,8.33,2.22,12.11.15l26.08-14.26c1.67-.91,2.5-2.57,2.5-4.22h0v-8.18Z"/><path class="cls-168" d="m1471.35,1653.76l31.04,18.25c3.24,1.88,3.19,6.58-.1,8.38l-26.08,14.26c-3.79,2.07-8.38,2.01-12.11-.15l-30.06-17.68c-3.31-1.92-3.25-6.71.11-8.55l26.77-14.64c3.26-1.78,7.22-1.74,10.44.13Z"/><path class="cls-160" d="m839.5,1345.82l-80.42-42.01-14.34-8.57c-3.22-1.86-7.18-1.91-10.44-.13l-23.37,12.78-5.95-1.11v7.34h0c.02,1.63.83,3.24,2.44,4.17l91.38,54.04c3.73,2.16,8.33,2.22,12.11.15l26.08-14.26c1.67-.91,2.5-2.57,2.5-4.22h0v-8.18Z"/><path class="cls-59" d="m744.75,1288.33l92.36,54.61c3.24,1.88,3.19,6.58-.1,8.38l-26.08,14.26c-3.79,2.07-8.38,2.01-12.11-.15l-91.38-54.04c-3.31-1.92-3.25-6.71.11-8.55l26.77-14.64c3.26-1.78,7.22-1.74,10.44.13Z"/><path class="cls-94" d="m900.83,1381.14l-19.1-5.65-14.34-8.57c-3.22-1.86-7.18-1.91-10.44-.13l-23.37,12.78-5.95-1.11v7.34h0c.02,1.63.83,3.24,2.44,4.17l30.06,17.68c3.73,2.16,8.33,2.22,12.11.15l26.08-14.26c1.67-.91,2.5-2.57,2.5-4.22h0v-8.18Z"/><path class="cls-12" d="m867.39,1360.01l31.04,18.25c3.24,1.88,3.19,6.58-.1,8.38l-26.08,14.26c-3.79,2.07-8.38,2.01-12.11-.15l-30.06-17.68c-3.31-1.92-3.25-6.71.11-8.55l26.77-14.64c3.26-1.78,7.22-1.74,10.44.13Z"/><path class="cls-65" d="m962.15,1416.99l-19.1-5.65-14.34-8.57c-3.22-1.86-7.18-1.91-10.44-.13l-23.37,12.78-5.95-1.11v7.34h0c.02,1.63.83,3.24,2.44,4.17l30.06,17.68c3.73,2.16,8.33,2.22,12.11.15l26.08-14.26c1.67-.91,2.5-2.57,2.5-4.22h0v-8.18Z"/><path class="cls-92" d="m928.72,1395.86l31.04,18.25c3.24,1.88,3.19,6.58-.1,8.38l-26.08,14.26c-3.79,2.07-8.38,2.01-12.11-.15l-30.06-17.68c-3.31-1.92-3.25-6.71.11-8.55l26.77-14.64c3.26-1.78,7.22-1.74,10.44.13Z"/><path class="cls-145" d="m1023.48,1452.83l-19.1-5.65-14.34-8.57c-3.22-1.86-7.18-1.91-10.44-.13l-23.37,12.78-5.95-1.11v7.34h0c.02,1.63.83,3.24,2.44,4.17l30.06,17.68c3.73,2.16,8.33,2.22,12.11.15l26.08-14.26c1.67-.91,2.5-2.57,2.5-4.22h0v-8.18Z"/><path class="cls-202" d="m990.04,1431.7l31.04,18.25c3.24,1.88,3.19,6.58-.1,8.38l-26.08,14.26c-3.79,2.07-8.38,2.01-12.11-.15l-30.06-17.68c-3.31-1.92-3.25-6.71.11-8.55l26.77-14.64c3.26-1.78,7.22-1.74,10.44.13Z"/><path class="cls-3" d="m1084.8,1488.67l-19.1-5.65-14.34-8.57c-3.22-1.86-7.18-1.91-10.44-.13l-23.37,12.78-5.95-1.11v7.34h0c.02,1.63.83,3.24,2.44,4.17l30.06,17.68c3.73,2.16,8.33,2.22,12.11.15l26.08-14.26c1.67-.91,2.5-2.57,2.5-4.22h0v-8.18Z"/><path class="cls-110" d="m1051.37,1467.54l31.04,18.25c3.24,1.88,3.19,6.58-.1,8.38l-26.08,14.26c-3.79,2.07-8.38,2.01-12.11-.15l-30.06-17.68c-3.31-1.92-3.25-6.71.11-8.55l26.77-14.64c3.26-1.78,7.22-1.74,10.44.13Z"/><path class="cls-76" d="m1146.13,1524.51l-19.1-5.65-14.34-8.57c-3.22-1.86-7.18-1.91-10.44-.13l-23.37,12.78-5.95-1.11v7.34h0c.02,1.63.83,3.24,2.44,4.17l30.06,17.68c3.73,2.16,8.33,2.22,12.11.15l26.08-14.26c1.67-.91,2.5-2.57,2.5-4.22h0v-8.18Z"/><path class="cls-74" d="m1112.69,1503.38l31.04,18.25c3.24,1.88,3.19,6.58-.1,8.38l-26.08,14.26c-3.79,2.07-8.38,2.01-12.11-.15l-30.06-17.68c-3.31-1.92-3.25-6.71.11-8.55l26.77-14.64c3.26-1.78,7.22-1.74,10.44.13Z"/><path class="cls-38" d="m1207.45,1560.35l-19.1-5.65-14.34-8.57c-3.22-1.86-7.18-1.91-10.44-.13l-23.37,12.78-5.95-1.11v7.34h0c.02,1.63.83,3.24,2.44,4.17l30.06,17.68c3.73,2.16,8.33,2.22,12.11.15l26.08-14.26c1.67-.91,2.5-2.57,2.5-4.22h0v-8.18Z"/><path class="cls-83" d="m1174.02,1539.22l31.04,18.25c3.24,1.88,3.19,6.58-.1,8.38l-26.08,14.26c-3.79,2.07-8.38,2.01-12.11-.15l-30.06-17.68c-3.31-1.92-3.25-6.71.11-8.55l26.77-14.64c3.26-1.78,7.22-1.74,10.44.13Z"/><path class="cls-162" d="m1268.77,1596.19l-19.1-5.65-14.34-8.57c-3.22-1.86-7.18-1.91-10.44-.13l-23.37,12.78-5.95-1.11v7.34h0c.02,1.63.83,3.24,2.44,4.17l30.06,17.68c3.73,2.16,8.33,2.22,12.11.15l26.08-14.26c1.67-.91,2.5-2.57,2.5-4.22h0v-8.18Z"/><path class="cls-104" d="m1235.34,1575.06l31.04,18.25c3.24,1.88,3.19,6.58-.1,8.38l-26.08,14.26c-3.79,2.07-8.38,2.01-12.11-.15l-30.06-17.68c-3.31-1.92-3.25-6.71.11-8.55l26.77-14.64c3.26-1.78,7.22-1.74,10.44.13Z"/><path class="cls-169" d="m1330.1,1632.04l-19.1-5.65-14.34-8.57c-3.22-1.86-7.18-1.91-10.44-.13l-23.37,12.78-5.95-1.11v7.34h0c.02,1.63.83,3.24,2.44,4.17l30.06,17.68c3.73,2.16,8.33,2.22,12.11.15l26.08-14.26c1.67-.91,2.5-2.57,2.5-4.22h0v-8.18Z"/><path class="cls-151" d="m1296.66,1610.91l31.04,18.25c3.24,1.88,3.19,6.58-.1,8.38l-26.08,14.26c-3.79,2.07-8.38,2.01-12.11-.15l-30.06-17.68c-3.31-1.92-3.25-6.71.11-8.55l26.77-14.64c3.26-1.78,7.22-1.74,10.44.13Z"/><path class="cls-146" d="m1391.42,1667.88l-19.1-5.65-14.34-8.57c-3.22-1.86-7.18-1.91-10.44-.13l-23.37,12.78-5.95-1.11v7.34h0c.02,1.63.83,3.24,2.44,4.17l30.06,17.68c3.73,2.16,8.33,2.22,12.11.15l26.08-14.26c1.67-.91,2.5-2.57,2.5-4.22h0v-8.18Z"/><path class="cls-147" d="m1357.99,1646.75l31.04,18.25c3.24,1.88,3.19,6.58-.1,8.38l-26.08,14.26c-3.79,2.07-8.38,2.01-12.11-.15l-30.06-17.68c-3.31-1.92-3.25-6.71.11-8.55l26.77-14.64c3.26-1.78,7.22-1.74,10.44.13Z"/><path class="cls-93" d="m1452.75,1703.72l-19.1-5.65-14.34-8.57c-3.22-1.86-7.18-1.91-10.44-.13l-23.37,12.78-5.95-1.11v7.34h0c.02,1.63.83,3.24,2.44,4.17l30.06,17.68c3.73,2.16,8.33,2.22,12.11.15l26.08-14.26c1.67-.91,2.5-2.57,2.5-4.22h0v-8.18Z"/><path class="cls-159" d="m1419.31,1682.59l31.04,18.25c3.24,1.88,3.19,6.58-.1,8.38l-26.08,14.26c-3.79,2.07-8.38,2.01-12.11-.15l-30.06-17.68c-3.31-1.92-3.25-6.71.11-8.55l26.77-14.64c3.26-1.78,7.22-1.74,10.44.13Z"/><path class="cls-102" d="m726.14,1338.29l-19.1-5.65-14.34-8.57c-3.22-1.86-7.18-1.91-10.44-.13l-23.37,12.78-5.95-1.11v7.34h0c.02,1.63.83,3.24,2.44,4.17l30.06,17.68c3.73,2.16,8.33,2.22,12.11.15l26.08-14.26c1.67-.91,2.5-2.57,2.5-4.22h0v-8.18Z"/><path class="cls-137" d="m692.71,1317.16l31.04,18.25c3.24,1.88,3.19,6.58-.1,8.38l-26.08,14.26c-3.79,2.07-8.38,2.01-12.11-.15l-30.06-17.68c-3.31-1.92-3.25-6.71.11-8.55l26.77-14.64c3.26-1.78,7.22-1.74,10.44.13Z"/><path class="cls-87" d="m787.47,1374.13l-19.1-5.65-14.34-8.57c-3.22-1.86-7.18-1.91-10.44-.13l-23.37,12.78-5.95-1.11v7.34h0c.02,1.63.83,3.24,2.44,4.17l30.06,17.68c3.73,2.16,8.33,2.22,12.11.15l26.08-14.26c1.67-.91,2.5-2.57,2.5-4.22h0v-8.18Z"/><path class="cls-88" d="m754.03,1353l31.04,18.25c3.24,1.88,3.19,6.58-.1,8.38l-26.08,14.26c-3.79,2.07-8.38,2.01-12.11-.15l-30.06-17.68c-3.31-1.92-3.25-6.71.11-8.55l26.77-14.64c3.26-1.78,7.22-1.74,10.44.13Z"/><path class="cls-180" d="m848.79,1409.97l-19.1-5.65-14.34-8.57c-3.22-1.86-7.18-1.91-10.44-.13l-23.37,12.78-5.95-1.11v7.34h0c.02,1.63.83,3.24,2.44,4.17l30.06,17.68c3.73,2.16,8.33,2.22,12.11.15l26.08-14.26c1.67-.91,2.5-2.57,2.5-4.22h0v-8.18Z"/><path class="cls-23" d="m815.36,1388.84l31.04,18.25c3.24,1.88,3.19,6.58-.1,8.38l-26.08,14.26c-3.79,2.07-8.38,2.01-12.11-.15l-30.06-17.68c-3.31-1.92-3.25-6.71.11-8.55l26.77-14.64c3.26-1.78,7.22-1.74,10.44.13Z"/><path class="cls-62" d="m910.11,1445.81l-19.1-5.65-14.34-8.57c-3.22-1.86-7.18-1.91-10.44-.13l-23.37,12.78-5.95-1.11v7.34h0c.02,1.63.83,3.24,2.44,4.17l30.06,17.68c3.73,2.16,8.33,2.22,12.11.15l26.08-14.26c1.67-.91,2.5-2.57,2.5-4.22h0v-8.18Z"/><path class="cls-96" d="m876.68,1424.68l31.04,18.25c3.24,1.88,3.19,6.58-.1,8.38l-26.08,14.26c-3.79,2.07-8.38,2.01-12.11-.15l-30.06-17.68c-3.31-1.92-3.25-6.71.11-8.55l26.77-14.64c3.26-1.78,7.22-1.74,10.44.13Z"/><path class="cls-95" d="m971.44,1481.65l-19.1-5.65-14.34-8.57c-3.22-1.86-7.18-1.91-10.44-.13l-23.37,12.78-5.95-1.11v7.34h0c.02,1.63.83,3.24,2.44,4.17l30.06,17.68c3.73,2.16,8.33,2.22,12.11.15l26.08-14.26c1.67-.91,2.5-2.57,2.5-4.22h0v-8.18Z"/><path class="cls-155" d="m938,1460.52l31.04,18.25c3.24,1.88,3.19,6.58-.1,8.38l-26.08,14.26c-3.79,2.07-8.38,2.01-12.11-.15l-30.06-17.68c-3.31-1.92-3.25-6.71.11-8.55l26.77-14.64c3.26-1.78,7.22-1.74,10.44.13Z"/><path class="cls-15" d="m1032.76,1517.49l-19.1-5.65-14.34-8.57c-3.22-1.86-7.18-1.91-10.44-.13l-23.37,12.78-5.95-1.11v7.34h0c.02,1.63.83,3.24,2.44,4.17l30.06,17.68c3.73,2.16,8.33,2.22,12.11.15l26.08-14.26c1.67-.91,2.5-2.57,2.5-4.22h0v-8.18Z"/><path class="cls-63" d="m999.33,1496.36l31.04,18.25c3.24,1.88,3.19,6.58-.1,8.38l-26.08,14.26c-3.79,2.07-8.38,2.01-12.11-.15l-30.06-17.68c-3.31-1.92-3.25-6.71.11-8.55l26.77-14.64c3.26-1.78,7.22-1.74,10.44.13Z"/><path class="cls-173" d="m1094.09,1553.34l-19.1-5.65-14.34-8.57c-3.22-1.86-7.18-1.91-10.44-.13l-23.37,12.78-5.95-1.11v7.34h0c.02,1.63.83,3.24,2.44,4.17l30.06,17.68c3.73,2.16,8.33,2.22,12.11.15l26.08-14.26c1.67-.91,2.5-2.57,2.5-4.22h0v-8.18Z"/><path class="cls-144" d="m1060.65,1532.21l31.04,18.25c3.24,1.88,3.19,6.58-.1,8.38l-26.08,14.26c-3.79,2.07-8.38,2.01-12.11-.15l-30.06-17.68c-3.31-1.92-3.25-6.71.11-8.55l26.77-14.64c3.26-1.78,7.22-1.74,10.44.13Z"/><path class="cls-78" d="m1155.41,1589.18l-19.1-5.65-14.34-8.57c-3.22-1.86-7.18-1.91-10.44-.13l-23.37,12.78-5.95-1.11v7.34h0c.02,1.63.83,3.24,2.44,4.17l30.06,17.68c3.73,2.16,8.33,2.22,12.11.15l26.08-14.26c1.67-.91,2.5-2.57,2.5-4.22h0v-8.18Z"/><path class="cls-20" d="m1121.98,1568.05l31.04,18.25c3.24,1.88,3.19,6.58-.1,8.38l-26.08,14.26c-3.79,2.07-8.38,2.01-12.11-.15l-30.06-17.68c-3.31-1.92-3.25-6.71.11-8.55l26.77-14.64c3.26-1.78,7.22-1.74,10.44.13Z"/><path class="cls-165" d="m1216.74,1625.02l-19.1-5.65-14.34-8.57c-3.22-1.86-7.18-1.91-10.44-.13l-23.37,12.78-5.95-1.11v7.34h0c.02,1.63.83,3.24,2.44,4.17l30.06,17.68c3.73,2.16,8.33,2.22,12.11.15l26.08-14.26c1.67-.91,2.5-2.57,2.5-4.22h0v-8.18Z"/><path class="cls-119" d="m1183.3,1603.89l31.04,18.25c3.24,1.88,3.19,6.58-.1,8.38l-26.08,14.26c-3.79,2.07-8.38,2.01-12.11-.15l-30.06-17.68c-3.31-1.92-3.25-6.71.11-8.55l26.77-14.64c3.26-1.78,7.22-1.74,10.44.13Z"/><path class="cls-186" d="m1278.06,1660.86l-19.1-5.65-14.34-8.57c-3.22-1.86-7.18-1.91-10.44-.13l-23.37,12.78-5.95-1.11v7.34h0c.02,1.63.83,3.24,2.44,4.17l30.06,17.68c3.73,2.16,8.33,2.22,12.11.15l26.08-14.26c1.67-.91,2.5-2.57,2.5-4.22h0v-8.18Z"/><path class="cls-61" d="m1244.63,1639.73l31.04,18.25c3.24,1.88,3.19,6.58-.1,8.38l-26.08,14.26c-3.79,2.07-8.38,2.01-12.11-.15l-30.06-17.68c-3.31-1.92-3.25-6.71.11-8.55l26.77-14.64c3.26-1.78,7.22-1.74,10.44.13Z"/><path class="cls-167" d="m1339.38,1696.7l-19.1-5.65-14.34-8.57c-3.22-1.86-7.18-1.91-10.44-.13l-23.37,12.78-5.95-1.11v7.34h0c.02,1.63.83,3.24,2.44,4.17l30.06,17.68c3.73,2.16,8.33,2.22,12.11.15l26.08-14.26c1.67-.91,2.5-2.57,2.5-4.22h0v-8.18Z"/><path class="cls-50" d="m1305.95,1675.57l31.04,18.25c3.24,1.88,3.19,6.58-.1,8.38l-26.08,14.26c-3.79,2.07-8.38,2.01-12.11-.15l-30.06-17.68c-3.31-1.92-3.25-6.71.11-8.55l26.77-14.64c3.26-1.78,7.22-1.74,10.44.13Z"/><path class="cls-190" d="m1400.71,1732.54l-19.1-5.65-14.34-8.57c-3.22-1.86-7.18-1.91-10.44-.13l-23.37,12.78-5.95-1.11v7.34h0c.02,1.63.83,3.24,2.44,4.17l30.06,17.68c3.73,2.16,8.33,2.22,12.11.15l26.08-14.26c1.67-.91,2.5-2.57,2.5-4.22h0v-8.18Z"/><path class="cls-213" d="m1367.27,1711.41l31.04,18.25c3.24,1.88,3.19,6.58-.1,8.38l-26.08,14.26c-3.79,2.07-8.38,2.01-12.11-.15l-30.06-17.68c-3.31-1.92-3.25-6.71.11-8.55l26.77-14.64c3.26-1.78,7.22-1.74,10.44.13Z"/><path class="cls-30" d="m674.1,1367.11l-19.1-5.65-14.34-8.57c-3.22-1.86-7.18-1.91-10.44-.13l-23.37,12.78-5.95-1.11v7.34h0c.02,1.63.83,3.24,2.44,4.17l30.06,17.68c3.73,2.16,8.33,2.22,12.11.15l26.08-14.26c1.67-.91,2.5-2.57,2.5-4.22h0v-8.18Z"/><path class="cls-117" d="m640.67,1345.98l31.04,18.25c3.24,1.88,3.19,6.58-.1,8.38l-26.08,14.26c-3.79,2.07-8.38,2.01-12.11-.15l-30.06-17.68c-3.31-1.92-3.25-6.71.11-8.55l26.77-14.64c3.26-1.78,7.22-1.74,10.44.13Z"/><path class="cls-187" d="m735.43,1402.95l-19.1-5.65-14.34-8.57c-3.22-1.86-7.18-1.91-10.44-.13l-23.37,12.78-5.95-1.11v7.34h0c.02,1.63.83,3.24,2.44,4.17l30.06,17.68c3.73,2.16,8.33,2.22,12.11.15l26.08-14.26c1.67-.91,2.5-2.57,2.5-4.22h0v-8.18Z"/><path class="cls-209" d="m701.99,1381.82l31.04,18.25c3.24,1.88,3.19,6.58-.1,8.38l-26.08,14.26c-3.79,2.07-8.38,2.01-12.11-.15l-30.06-17.68c-3.31-1.92-3.25-6.71.11-8.55l26.77-14.64c3.26-1.78,7.22-1.74,10.44.13Z"/><path class="cls-204" d="m796.75,1438.79l-19.1-5.65-14.34-8.57c-3.22-1.86-7.18-1.91-10.44-.13l-23.37,12.78-5.95-1.11v7.34h0c.02,1.63.83,3.24,2.44,4.17l30.06,17.68c3.73,2.16,8.33,2.22,12.11.15l26.08-14.26c1.67-.91,2.5-2.57,2.5-4.22h0v-8.18Z"/><path class="cls-48" d="m763.32,1417.66l31.04,18.25c3.24,1.88,3.19,6.58-.1,8.38l-26.08,14.26c-3.79,2.07-8.38,2.01-12.11-.15l-30.06-17.68c-3.31-1.92-3.25-6.71.11-8.55l26.77-14.64c3.26-1.78,7.22-1.74,10.44.13Z"/><path class="cls-131" d="m858.08,1474.63l-19.1-5.65-14.34-8.57c-3.22-1.86-7.18-1.91-10.44-.13l-23.37,12.78-5.95-1.11v7.34h0c.02,1.63.83,3.24,2.44,4.17l30.06,17.68c3.73,2.16,8.33,2.22,12.11.15l26.08-14.26c1.67-.91,2.5-2.57,2.5-4.22h0v-8.18Z"/><path class="cls-133" d="m824.64,1453.5l31.04,18.25c3.24,1.88,3.19,6.58-.1,8.38l-26.08,14.26c-3.79,2.07-8.38,2.01-12.11-.15l-30.06-17.68c-3.31-1.92-3.25-6.71.11-8.55l26.77-14.64c3.26-1.78,7.22-1.74,10.44.13Z"/><path class="cls-163" d="m919.4,1510.48l-19.1-5.65-14.34-8.57c-3.22-1.86-7.18-1.91-10.44-.13l-23.37,12.78-5.95-1.11v7.34h0c.02,1.63.83,3.24,2.44,4.17l30.06,17.68c3.73,2.16,8.33,2.22,12.11.15l26.08-14.26c1.67-.91,2.5-2.57,2.5-4.22h0v-8.18Z"/><path class="cls-143" d="m885.97,1489.35l31.04,18.25c3.24,1.88,3.19,6.58-.1,8.38l-26.08,14.26c-3.79,2.07-8.38,2.01-12.11-.15l-30.06-17.68c-3.31-1.92-3.25-6.71.11-8.55l26.77-14.64c3.26-1.78,7.22-1.74,10.44.13Z"/><path class="cls-188" d="m980.72,1546.32l-19.1-5.65-14.34-8.57c-3.22-1.86-7.18-1.91-10.44-.13l-23.37,12.78-5.95-1.11v7.34h0c.02,1.63.83,3.24,2.44,4.17l30.06,17.68c3.73,2.16,8.33,2.22,12.11.15l26.08-14.26c1.67-.91,2.5-2.57,2.5-4.22h0v-8.18Z"/><path class="cls-185" d="m947.29,1525.19l31.04,18.25c3.24,1.88,3.19,6.58-.1,8.38l-26.08,14.26c-3.79,2.07-8.38,2.01-12.11-.15l-30.06-17.68c-3.31-1.92-3.25-6.71.11-8.55l26.77-14.64c3.26-1.78,7.22-1.74,10.44.13Z"/><path class="cls-10" d="m1042.05,1582.16l-19.1-5.65-14.34-8.57c-3.22-1.86-7.18-1.91-10.44-.13l-23.37,12.78-5.95-1.11v7.34h0c.02,1.63.83,3.24,2.44,4.17l30.06,17.68c3.73,2.16,8.33,2.22,12.11.15l26.08-14.26c1.67-.91,2.5-2.57,2.5-4.22h0v-8.18Z"/><path class="cls-75" d="m1008.61,1561.03l31.04,18.25c3.24,1.88,3.19,6.58-.1,8.38l-26.08,14.26c-3.79,2.07-8.38,2.01-12.11-.15l-30.06-17.68c-3.31-1.92-3.25-6.71.11-8.55l26.77-14.64c3.26-1.78,7.22-1.74,10.44.13Z"/><path class="cls-139" d="m1103.37,1618l-19.1-5.65-14.34-8.57c-3.22-1.86-7.18-1.91-10.44-.13l-23.37,12.78-5.95-1.11v7.34h0c.02,1.63.83,3.24,2.44,4.17l30.06,17.68c3.73,2.16,8.33,2.22,12.11.15l26.08-14.26c1.67-.91,2.5-2.57,2.5-4.22h0v-8.18Z"/><path class="cls-51" d="m1069.94,1596.87l31.04,18.25c3.24,1.88,3.19,6.58-.1,8.38l-26.08,14.26c-3.79,2.07-8.38,2.01-12.11-.15l-30.06-17.68c-3.31-1.92-3.25-6.71.11-8.55l26.77-14.64c3.26-1.78,7.22-1.74,10.44.13Z"/><path class="cls-17" d="m1164.7,1653.84l-19.1-5.65-14.34-8.57c-3.22-1.86-7.18-1.91-10.44-.13l-23.37,12.78-5.95-1.11v7.34h0c.02,1.63.83,3.24,2.44,4.17l30.06,17.68c3.73,2.16,8.33,2.22,12.11.15l26.08-14.26c1.67-.91,2.5-2.57,2.5-4.22h0v-8.18Z"/><path class="cls-105" d="m1131.26,1632.71l31.04,18.25c3.24,1.88,3.19,6.58-.1,8.38l-26.08,14.26c-3.79,2.07-8.38,2.01-12.11-.15l-30.06-17.68c-3.31-1.92-3.25-6.71.11-8.55l26.77-14.64c3.26-1.78,7.22-1.74,10.44.13Z"/><path class="cls-122" d="m1226.02,1689.68l-19.1-5.65-14.34-8.57c-3.22-1.86-7.18-1.91-10.44-.13l-23.37,12.78-5.95-1.11v7.34h0c.02,1.63.83,3.24,2.44,4.17l30.06,17.68c3.73,2.16,8.33,2.22,12.11.15l26.08-14.26c1.67-.91,2.5-2.57,2.5-4.22h0v-8.18Z"/><path class="cls-41" d="m1192.59,1668.55l31.04,18.25c3.24,1.88,3.19,6.58-.1,8.38l-26.08,14.26c-3.79,2.07-8.38,2.01-12.11-.15l-30.06-17.68c-3.31-1.92-3.25-6.71.11-8.55l26.77-14.64c3.26-1.78,7.22-1.74,10.44.13Z"/><path class="cls-67" d="m1329.57,1755.72l-42.23-24.85v-5.34l-18.26-5.4-4.61-2.71c-.37-.22-.78-.32-1.17-.49l-9.4-5.62c-3.22-1.86-7.18-1.91-10.44-.13l-23.38,12.78-5.95-1.1v7.34h0c.02,1.63.83,3.24,2.44,4.17l30.06,17.68c.26.15.54.21.81.34l60.52,35.5c3.73,2.16,8.32,2.22,12.11.15l26.08-14.26c1.66-.91,2.5-2.57,2.5-4.22h0v-8.18l-19.1-5.65Z"/><path class="cls-164" d="m1346.27,1758.48l-81.8-47.98c-.2-.11-.41-.16-.61-.26l-9.95-5.85c-3.22-1.86-7.18-1.91-10.44-.13l-26.77,14.64c-3.35,1.84-3.41,6.63-.11,8.55l30.06,17.68c.26.15.54.21.81.34l60.52,35.5c3.73,2.16,8.32,2.22,12.11.15l26.08-14.26c3.29-1.8,3.34-6.5.1-8.38Z"/><path class="cls-18" d="m622.06,1395.93l-19.1-5.65-14.34-8.57c-3.22-1.86-7.18-1.91-10.44-.13l-23.37,12.78-5.95-1.11v7.34h0c.02,1.63.83,3.24,2.44,4.17l30.06,17.68c3.73,2.16,8.33,2.22,12.11.15l26.08-14.26c1.67-.91,2.5-2.57,2.5-4.22h0v-8.18Z"/><path class="cls-181" d="m588.63,1374.8l31.04,18.25c3.24,1.88,3.19,6.58-.1,8.38l-26.08,14.26c-3.79,2.07-8.38,2.01-12.11-.15l-30.06-17.68c-3.31-1.92-3.25-6.71.11-8.55l26.77-14.64c3.26-1.78,7.22-1.74,10.44.13Z"/><path class="cls-128" d="m683.39,1431.78l-19.1-5.65-14.34-8.57c-3.22-1.86-7.18-1.91-10.44-.13l-23.37,12.78-5.95-1.11v7.34h0c.02,1.63.83,3.24,2.44,4.17l30.06,17.68c3.73,2.16,8.33,2.22,12.11.15l26.08-14.26c1.67-.91,2.5-2.57,2.5-4.22h0v-8.18Z"/><path class="cls-47" d="m649.95,1410.65l31.04,18.25c3.24,1.88,3.19,6.58-.1,8.38l-26.08,14.26c-3.79,2.07-8.38,2.01-12.11-.15l-30.06-17.68c-3.31-1.92-3.25-6.71.11-8.55l26.77-14.64c3.26-1.78,7.22-1.74,10.44.13Z"/><path class="cls-193" d="m744.71,1467.62l-19.1-5.65-14.34-8.57c-3.22-1.86-7.18-1.91-10.44-.13l-23.37,12.78-5.95-1.11v7.34h0c.02,1.63.83,3.24,2.44,4.17l30.06,17.68c3.73,2.16,8.33,2.22,12.11.15l26.08-14.26c1.67-.91,2.5-2.57,2.5-4.22h0v-8.18Z"/><path class="cls-60" d="m711.28,1446.49l31.04,18.25c3.24,1.88,3.19,6.58-.1,8.38l-26.08,14.26c-3.79,2.07-8.38,2.01-12.11-.15l-30.06-17.68c-3.31-1.92-3.25-6.71.11-8.55l26.77-14.64c3.26-1.78,7.22-1.74,10.44.13Z"/><path class="cls-39" d="m806.04,1503.46l-19.1-5.65-14.34-8.57c-3.22-1.86-7.18-1.91-10.44-.13l-23.37,12.78-5.95-1.11v7.34h0c.02,1.63.83,3.24,2.44,4.17l30.06,17.68c3.73,2.16,8.33,2.22,12.11.15l26.08-14.26c1.67-.91,2.5-2.57,2.5-4.22h0v-8.18Z"/><path class="cls-132" d="m772.6,1482.33l31.04,18.25c3.24,1.88,3.19,6.58-.1,8.38l-26.08,14.26c-3.79,2.07-8.38,2.01-12.11-.15l-30.06-17.68c-3.31-1.92-3.25-6.71.11-8.55l26.77-14.64c3.26-1.78,7.22-1.74,10.44.13Z"/><path class="cls-46" d="m867.36,1539.3l-19.1-5.65-14.34-8.57c-3.22-1.86-7.18-1.91-10.44-.13l-23.37,12.78-5.95-1.11v7.34h0c.02,1.63.83,3.24,2.44,4.17l30.06,17.68c3.73,2.16,8.33,2.22,12.11.15l26.08-14.26c1.67-.91,2.5-2.57,2.5-4.22h0v-8.18Z"/><path class="cls-174" d="m833.93,1518.17l31.04,18.25c3.24,1.88,3.19,6.58-.1,8.38l-26.08,14.26c-3.79,2.07-8.38,2.01-12.11-.15l-30.06-17.68c-3.31-1.92-3.25-6.71.11-8.55l26.77-14.64c3.26-1.78,7.22-1.74,10.44.13Z"/><path class="cls-211" d="m928.69,1575.14l-19.1-5.65-14.34-8.57c-3.22-1.86-7.18-1.91-10.44-.13l-23.37,12.78-5.95-1.11v7.34h0c.02,1.63.83,3.24,2.44,4.17l30.06,17.68c3.73,2.16,8.33,2.22,12.11.15l26.08-14.26c1.67-.91,2.5-2.57,2.5-4.22h0v-8.18Z"/><path class="cls-175" d="m895.25,1554.01l31.04,18.25c3.24,1.88,3.19,6.58-.1,8.38l-26.08,14.26c-3.79,2.07-8.38,2.01-12.11-.15l-30.06-17.68c-3.31-1.92-3.25-6.71.11-8.55l26.77-14.64c3.26-1.78,7.22-1.74,10.44.13Z"/><path class="cls-90" d="m990.01,1610.98l-19.1-5.65-14.34-8.57c-3.22-1.86-7.18-1.91-10.44-.13l-23.37,12.78-5.95-1.11v7.34h0c.02,1.63.83,3.24,2.44,4.17l30.06,17.68c3.73,2.16,8.33,2.22,12.11.15l26.08-14.26c1.67-.91,2.5-2.57,2.5-4.22h0v-8.18Z"/><path class="cls-210" d="m956.58,1589.85l31.04,18.25c3.24,1.88,3.19,6.58-.1,8.38l-26.08,14.26c-3.79,2.07-8.38,2.01-12.11-.15l-30.06-17.68c-3.31-1.92-3.25-6.71.11-8.55l26.77-14.64c3.26-1.78,7.22-1.74,10.44.13Z"/><path class="cls-197" d="m1051.33,1646.83l-19.1-5.65-14.34-8.57c-3.22-1.86-7.18-1.91-10.44-.13l-23.37,12.78-5.95-1.11v7.34h0c.02,1.63.83,3.24,2.44,4.17l30.06,17.68c3.73,2.16,8.33,2.22,12.11.15l26.08-14.26c1.67-.91,2.5-2.57,2.5-4.22h0v-8.18Z"/><path class="cls-177" d="m1017.9,1625.7l31.04,18.25c3.24,1.88,3.19,6.58-.1,8.38l-26.08,14.26c-3.79,2.07-8.38,2.01-12.11-.15l-30.06-17.68c-3.31-1.92-3.25-6.71.11-8.55l26.77-14.64c3.26-1.78,7.22-1.74,10.44.13Z"/><path class="cls-156" d="m1112.66,1682.67l-19.1-5.65-14.34-8.57c-3.22-1.86-7.18-1.91-10.44-.13l-23.37,12.78-5.95-1.11v7.34h0c.02,1.63.83,3.24,2.44,4.17l30.06,17.68c3.73,2.16,8.33,2.22,12.11.15l26.08-14.26c1.67-.91,2.5-2.57,2.5-4.22h0v-8.18Z"/><path class="cls-205" d="m1079.22,1661.54l31.04,18.25c3.24,1.88,3.19,6.58-.1,8.38l-26.08,14.26c-3.79,2.07-8.38,2.01-12.11-.15l-30.06-17.68c-3.31-1.92-3.25-6.71.11-8.55l26.77-14.64c3.26-1.78,7.22-1.74,10.44.13Z"/><path class="cls-208" d="m1173.98,1718.51l-19.1-5.65-14.34-8.57c-3.22-1.86-7.18-1.91-10.44-.13l-23.37,12.78-5.95-1.11v7.34h0c.02,1.63.83,3.24,2.44,4.17l30.06,17.68c3.73,2.16,8.33,2.22,12.11.15l26.08-14.26c1.67-.91,2.5-2.57,2.5-4.22h0v-8.18Z"/><path class="cls-141" d="m1140.55,1697.38l31.04,18.25c3.24,1.88,3.19,6.58-.1,8.38l-26.08,14.26c-3.79,2.07-8.38,2.01-12.11-.15l-30.06-17.68c-3.31-1.92-3.25-6.71.11-8.55l26.77-14.64c3.26-1.78,7.22-1.74,10.44.13Z"/><path class="cls-196" d="m1235.31,1754.35l-19.1-5.65-14.34-8.57c-3.22-1.86-7.18-1.91-10.44-.13l-23.37,12.78-5.95-1.11v7.34h0c.02,1.63.83,3.24,2.44,4.17l30.06,17.68c3.73,2.16,8.33,2.22,12.11.15l26.08-14.26c1.67-.91,2.5-2.57,2.5-4.22h0v-8.18Z"/><path class="cls-118" d="m1201.87,1733.22l31.04,18.25c3.24,1.88,3.19,6.58-.1,8.38l-26.08,14.26c-3.79,2.07-8.38,2.01-12.11-.15l-30.06-17.68c-3.31-1.92-3.25-6.71.11-8.55l26.77-14.64c3.26-1.78,7.22-1.74,10.44.13Z"/><path class="cls-71" d="m1296.63,1790.19l-19.1-5.65-14.34-8.57c-3.22-1.86-7.18-1.91-10.44-.13l-23.37,12.78-5.95-1.11v7.34h0c.02,1.63.83,3.24,2.44,4.17l30.06,17.68c3.73,2.16,8.33,2.22,12.11.15l26.08-14.26c1.67-.91,2.5-2.57,2.5-4.22h0v-8.18Z"/><path class="cls-161" d="m1263.2,1769.06l31.04,18.25c3.24,1.88,3.19,6.58-.1,8.38l-26.08,14.26c-3.79,2.07-8.38,2.01-12.11-.15l-30.06-17.68c-3.31-1.92-3.25-6.71.11-8.55l26.77-14.64c3.26-1.78,7.22-1.74,10.44.13Z"/><path class="cls-66" d="m570.03,1424.76l-19.1-5.65-14.34-8.57c-3.22-1.86-7.18-1.91-10.44-.13l-23.37,12.78-5.95-1.11v7.34h0c.02,1.63.83,3.24,2.44,4.17l30.06,17.68c3.73,2.16,8.33,2.22,12.11.15l26.08-14.26c1.67-.91,2.5-2.57,2.5-4.22h0v-8.18Z"/><path class="cls-199" d="m536.59,1403.63l31.04,18.25c3.24,1.88,3.19,6.58-.1,8.38l-26.08,14.26c-3.79,2.07-8.38,2.01-12.11-.15l-30.06-17.68c-3.31-1.92-3.25-6.71.11-8.55l26.77-14.64c3.26-1.78,7.22-1.74,10.44.13Z"/><path class="cls-32" d="m631.35,1460.6l-19.1-5.65-14.34-8.57c-3.22-1.86-7.18-1.91-10.44-.13l-23.37,12.78-5.95-1.11v7.34h0c.02,1.63.83,3.24,2.44,4.17l30.06,17.68c3.73,2.16,8.33,2.22,12.11.15l26.08-14.26c1.67-.91,2.5-2.57,2.5-4.22h0v-8.18Z"/><path class="cls-121" d="m597.92,1439.47l31.04,18.25c3.24,1.88,3.19,6.58-.1,8.38l-26.08,14.26c-3.79,2.07-8.38,2.01-12.11-.15l-30.06-17.68c-3.31-1.92-3.25-6.71.11-8.55l26.77-14.64c3.26-1.78,7.22-1.74,10.44.13Z"/><path class="cls-79" d="m692.68,1496.44l-19.1-5.65-14.34-8.57c-3.22-1.86-7.18-1.91-10.44-.13l-23.37,12.78-5.95-1.11v7.34h0c.02,1.63.83,3.24,2.44,4.17l30.06,17.68c3.73,2.16,8.33,2.22,12.11.15l26.08-14.26c1.67-.91,2.5-2.57,2.5-4.22h0v-8.18Z"/><path class="cls-6" d="m659.24,1475.31l31.04,18.25c3.24,1.88,3.19,6.58-.1,8.38l-26.08,14.26c-3.79,2.07-8.38,2.01-12.11-.15l-30.06-17.68c-3.31-1.92-3.25-6.71.11-8.55l26.77-14.64c3.26-1.78,7.22-1.74,10.44.13Z"/><path class="cls-201" d="m937.16,1640.44l-202.26-113.81-14.34-8.57c-3.22-1.86-7.18-1.91-10.44-.13l-23.37,12.78-5.95-1.11v7.34h0c.02,1.63.83,3.24,2.44,4.17l213.22,125.83c3.73,2.16,8.33,2.22,12.11.15l26.08-14.26c1.67-.91,2.5-2.57,2.5-4.22h0v-8.18Z"/><path class="cls-166" d="m720.56,1511.15l214.19,126.4c3.24,1.88,3.19,6.58-.1,8.38l-26.08,14.26c-3.79,2.07-8.38,2.01-12.11-.15l-213.22-125.83c-3.31-1.92-3.25-6.71.11-8.55l26.77-14.64c3.26-1.78,7.22-1.74,10.44.13Z"/><path class="cls-70" d="m999.3,1675.65l-19.1-5.65-14.34-8.57c-3.22-1.86-7.18-1.91-10.44-.13l-23.37,12.78-5.95-1.11v7.34h0c.02,1.63.83,3.24,2.44,4.17l30.06,17.68c3.73,2.16,8.33,2.22,12.11.15l26.08-14.26c1.67-.91,2.5-2.57,2.5-4.22h0v-8.18Z"/><path class="cls-130" d="m965.86,1654.52l31.04,18.25c3.24,1.88,3.19,6.58-.1,8.38l-26.08,14.26c-3.79,2.07-8.38,2.01-12.11-.15l-30.06-17.68c-3.31-1.92-3.25-6.71.11-8.55l26.77-14.64c3.26-1.78,7.22-1.74,10.44.13Z"/><path class="cls-9" d="m1060.62,1711.49l-19.1-5.65-14.34-8.57c-3.22-1.86-7.18-1.91-10.44-.13l-23.37,12.78-5.95-1.11v7.34h0c.02,1.63.83,3.24,2.44,4.17l30.06,17.68c3.73,2.16,8.33,2.22,12.11.15l26.08-14.26c1.67-.91,2.5-2.57,2.5-4.22h0v-8.18Z"/><path class="cls-57" d="m1027.19,1690.36l31.04,18.25c3.24,1.88,3.19,6.58-.1,8.38l-26.08,14.26c-3.79,2.07-8.38,2.01-12.11-.15l-30.06-17.68c-3.31-1.92-3.25-6.71.11-8.55l26.77-14.64c3.26-1.78,7.22-1.74,10.44.13Z"/><path class="cls-125" d="m1121.95,1747.33l-19.1-5.65-14.34-8.57c-3.22-1.86-7.18-1.91-10.44-.13l-23.37,12.78-5.95-1.11v7.34h0c.02,1.63.83,3.24,2.44,4.17l30.06,17.68c3.73,2.16,8.33,2.22,12.11.15l26.08-14.26c1.67-.91,2.5-2.57,2.5-4.22h0v-8.18Z"/><path class="cls-206" d="m1088.51,1726.2l31.04,18.25c3.24,1.88,3.19,6.58-.1,8.38l-26.08,14.26c-3.79,2.07-8.38,2.01-12.11-.15l-30.06-17.68c-3.31-1.92-3.25-6.71.11-8.55l26.77-14.64c3.26-1.78,7.22-1.74,10.44.13Z"/><path class="cls-37" d="m1183.27,1783.17l-19.1-5.65-14.34-8.57c-3.22-1.86-7.18-1.91-10.44-.13l-23.37,12.78-5.95-1.11v7.34h0c.02,1.63.83,3.24,2.44,4.17l30.06,17.68c3.73,2.16,8.33,2.22,12.11.15l26.08-14.26c1.67-.91,2.5-2.57,2.5-4.22h0v-8.18Z"/><path class="cls-16" d="m1149.83,1762.04l31.04,18.25c3.24,1.88,3.19,6.58-.1,8.38l-26.08,14.26c-3.79,2.07-8.38,2.01-12.11-.15l-30.06-17.68c-3.31-1.92-3.25-6.71.11-8.55l26.77-14.64c3.26-1.78,7.22-1.74,10.44.13Z"/><path class="cls-24" d="m1244.59,1819.02l-19.1-5.65-14.34-8.57c-3.22-1.86-7.18-1.91-10.44-.13l-23.37,12.78-5.95-1.11v7.34h0c.02,1.63.83,3.24,2.44,4.17l30.06,17.68c3.73,2.16,8.33,2.22,12.11.15l26.08-14.26c1.67-.91,2.5-2.57,2.5-4.22h0v-8.18Z"/><path class="cls-19" d="m1211.16,1797.89l31.04,18.25c3.24,1.88,3.19,6.58-.1,8.38l-26.08,14.26c-3.79,2.07-8.38,2.01-12.11-.15l-30.06-17.68c-3.31-1.92-3.25-6.71.11-8.55l26.77-14.64c3.26-1.78,7.22-1.74,10.44.13Z"/><path class="cls-56" d="m777.88,49.44l922.9,541.66c20.74,12.05,33.5,34.2,33.5,58.15v713.73c0,28.7-31.19,46.59-56.05,32.15l-914.45-536.75c-18.05-10.49-29.15-29.76-29.15-50.6V74.25c0-22.15,24.07-35.95,43.25-24.81Z"/><path class="cls-135" d="m1711.64,660.65v713.73c0,28.71-31.22,46.58-56.06,32.12l-914.48-536.72c-18.02-10.49-29.11-29.76-29.11-50.59V85.64c0-22.13,24.04-35.99,43.21-24.8l922.92,541.63c20.73,12.05,33.52,34.23,33.52,58.17Z"/><path class="cls-170" d="m1711.64,660.65v38.04L711.99,111.99v-26.35c0-22.13,24.04-35.99,43.21-24.8l922.92,541.63c20.73,12.05,33.52,34.23,33.52,58.17Z"/><path class="cls-91" d="m559.1,938.22l338.84,198.87c11.1,6.52,25.08-1.49,25.08-14.36V386.21c0-15.8-8.37-30.41-21.99-38.41l-332.78-195.31c-13.22-7.76-29.86,1.77-29.86,17.1v732.48c0,14.87,7.88,28.63,20.7,36.15Z"/><path class="cls-89" d="m730.71,366.64c-64.82-37.34-117.37-15.05-117.37,49.77s52.55,147.63,117.37,184.97c64.82,37.34,117.37,15.05,117.37-49.77s-52.55-147.63-117.37-184.97Zm74.94,224.79c.06-1.2.11-2.42.11-3.68,0-30.46-18.18-67.1-44.25-93.88,6.51-3.55,10.51-10.85,10.51-21.41,0-22.81-18.49-51.96-41.31-65.1-22.81-13.14-41.31-5.3-41.31,17.52,0,10.56,3.99,22.45,10.51,33.51-26.07-3.25-44.25,12.44-44.25,42.9,0,1.25.04,2.52.11,3.8-14.82-25.81-23.8-53.42-23.8-77.97,0-54.53,44.21-73.28,98.75-41.87,54.53,31.41,98.75,101.09,98.75,155.62,0,24.55-8.98,41.81-23.8,50.55Z"/><path class="cls-89" d="m770,684.83l-78.58-45.26c-5.93-3.41-10.78-11.06-10.78-16.99h0c0-5.93,4.85-7.99,10.78-4.57l78.58,45.26c5.93,3.41,10.78,11.06,10.78,16.99h0c0,5.93-4.85,7.99-10.78,4.57Z"/><path class="cls-89" d="m831.34,767.63l-201.26-115.92c-5.93-3.41-10.78-11.06-10.78-16.99h0c0-5.93,4.85-7.99,10.78-4.57l201.26,115.92c5.93,3.41,10.78,11.06,10.78,16.99h0c0,5.93-4.85,7.99-10.78,4.57Z"/><path class="cls-89" d="m831.34,815.09l-201.26-115.92c-5.93-3.41-10.78-11.06-10.78-16.99h0c0-5.93,4.85-7.99,10.78-4.57l201.26,115.92c5.93,3.41,10.78,11.06,10.78,16.99h0c0,5.93-4.85,7.99-10.78,4.57Z"/><path class="cls-89" d="m800.52,844.8l-139.61-80.41c-5.93-3.41-10.78-11.06-10.78-16.99h0c0-5.93,4.85-7.99,10.78-4.57l139.61,80.41c5.93,3.41,10.78,11.06,10.78,16.99h0c0,5.93-4.85,7.99-10.78,4.57Z"/><path class="cls-134" d="m1167.95,548.5l-94.99-56.41c-7.78-4.62-14.15-14.77-14.15-22.55h0c0-7.78,6.37-10.37,14.15-5.75l94.99,56.41c7.78,4.62,14.15,14.77,14.15,22.55h0c0,7.78-6.37,10.37-14.15,5.75Z"/><path class="cls-120" d="m1230.15,651.84l-157.18-93.35c-7.78-4.62-14.15-14.77-14.15-22.55h0c0-7.78,6.37-10.37,14.15-5.75l157.18,93.35c7.78,4.62,14.15,14.77,14.15,22.55h0c0,7.78-6.37,10.37-14.15,5.75Z"/><path class="cls-212" d="m1192.67,695.99l-119.7-71.09c-7.78-4.62-14.15-14.77-14.15-22.55h0c0-7.78,6.37-10.37,14.15-5.75l119.7,71.09c7.78,4.62,14.15,14.77,14.15,22.55h0c0,7.78-6.37,10.37-14.15,5.75Z"/><path class="cls-176" d="m1215.84,776.16l-142.87-84.85c-7.78-4.62-14.15-14.77-14.15-22.55h0c0-7.78,6.37-10.37,14.15-5.75l142.87,84.85c7.78,4.62,14.15,14.77,14.15,22.55h0c0,7.78-6.37,10.37-14.15,5.75Z"/><path class="cls-101" d="m1230.15,851.07l-157.18-93.35c-7.78-4.62-14.15-14.77-14.15-22.55h0c0-7.78,6.37-10.37,14.15-5.75l157.18,93.35c7.78,4.62,14.15,14.77,14.15,22.55h0c0,7.78-6.37,10.37-14.15,5.75Z"/><path class="cls-77" d="m1151.56,870.81l-78.59-46.67c-7.78-4.62-14.15-14.77-14.15-22.55h0c0-7.78,6.37-10.37,14.15-5.75l78.59,46.67c7.78,4.62,14.15,14.77,14.15,22.55h0c0,7.78-6.37,10.37-14.15,5.75Z"/><path class="cls-114" d="m1480.81,734.3l-187.73-111.49c-7.78-4.62-14.15-14.77-14.15-22.55h0c0-7.78,6.37-10.37,14.15-5.75l187.73,111.49c7.78,4.62,14.15,14.77,14.15,22.55h0c0,7.78-6.37,10.37-14.15,5.75Z"/><path class="cls-25" d="m1543,837.64l-249.92-148.42c-7.78-4.62-14.15-14.77-14.15-22.55h0c0-7.78,6.37-10.37,14.15-5.75l249.92,148.42c7.78,4.62,14.15,14.77,14.15,22.55h0c0,7.78-6.37,10.37-14.15,5.75Z"/><path class="cls-183" d="m1505.52,881.79l-212.44-126.16c-7.78-4.62-14.15-14.77-14.15-22.55h0c0-7.78,6.37-10.37,14.15-5.75l212.44,126.16c7.78,4.62,14.15,14.77,14.15,22.55h0c0,7.78-6.37,10.37-14.15,5.75Z"/><path class="cls-52" d="m1528.69,961.97l-235.61-139.92c-7.78-4.62-14.15-14.77-14.15-22.55h0c0-7.78,6.37-10.37,14.15-5.75l235.61,139.92c7.78,4.62,14.15,14.77,14.15,22.55h0c0,7.78-6.37,10.37-14.15,5.75Z"/><path class="cls-126" d="m1543,1036.87l-249.92-148.42c-7.78-4.62-14.15-14.77-14.15-22.55h0c0-7.78,6.37-10.37,14.15-5.75l249.92,148.42c7.78,4.62,14.15,14.77,14.15,22.55h0c0,7.78-6.37,10.37-14.15,5.75Z"/><path class="cls-22" d="m1464.41,1056.61l-171.33-101.75c-7.78-4.62-14.15-14.77-14.15-22.55h0c0-7.78,6.37-10.37,14.15-5.75l171.33,101.75c7.78,4.62,14.15,14.77,14.15,22.55h0c0,7.78-6.37,10.37-14.15,5.75Z"/><path class="cls-89" d="m770.62,108.6c0,5.25-4.26,7.11-9.51,4.15-5.25-2.97-9.51-9.63-9.51-14.88s4.26-7.11,9.51-4.15c5.25,2.97,9.51,9.63,9.51,14.88Z"/><ellipse class="cls-89" cx="791.81" cy="120.57" rx="7.2" ry="12.57" transform="translate(87.69 502.3) rotate(-37.12)"/><ellipse class="cls-89" cx="822.53" cy="137.9" rx="7.2" ry="12.57" transform="translate(83.46 524.35) rotate(-37.12)"/><path class="cls-64" d="m1454.62,1485.12c-.4,5.26-1.05,10.35-1.87,15.31-.18,1.08-.26,2.23-.45,3.29-1.11,5.94-2.56,11.61-4.29,17.05-.49,1.55-1.13,2.97-1.67,4.47-1.37,3.81-2.85,7.53-4.54,11.04-.85,1.76-1.79,3.42-2.72,5.1-1.69,3.06-3.5,5.99-5.46,8.78-1.09,1.56-2.2,3.11-3.37,4.58-2.21,2.76-4.61,5.3-7.11,7.72-1.16,1.13-2.25,2.34-3.47,3.4-3.84,3.3-7.91,6.33-12.37,8.85l44.67-25.97c4.05-2.4,7.81-5.15,11.34-8.19,1.22-1.05,2.31-2.27,3.47-3.4,2.5-2.43,4.9-4.97,7.11-7.72,1.18-1.47,2.28-3.01,3.38-4.58,1.96-2.79,3.77-5.72,5.46-8.78.93-1.68,1.87-3.35,2.72-5.1,1.69-3.52,3.17-7.23,4.54-11.04.54-1.5,1.18-2.92,1.67-4.47,1.72-5.44,3.18-11.12,4.28-17.05.2-1.07.28-2.21.46-3.29.82-4.96,1.47-10.05,1.87-15.31.17-2.17.21-4.42.3-6.63.19-4.37.27-8.81.18-13.35-.05-2.48-.15-4.99-.29-7.51-.24-4.58-.65-9.24-1.17-13.95-.27-2.48-.5-4.94-.85-7.45-.68-4.9-1.58-9.9-2.56-14.91-.43-2.25-.76-4.45-1.26-6.72-.55-2.52-1.25-5.08-1.87-7.62-.97-3.98-1.93-7.96-3.07-11.98-.57-1.98-1.22-3.99-1.83-5.98-1.35-4.42-2.77-8.85-4.33-13.3-.65-1.86-1.32-3.73-2.01-5.6-1.97-5.35-4.07-10.71-6.35-16.08-.33-.78-.61-1.55-.95-2.32-2.63-6.09-5.5-12.19-8.51-18.28-.73-1.48-1.5-2.97-2.26-4.45-3.09-6.06-6.29-12.11-9.77-18.12-3.59-6.22-7.34-12.23-11.18-18.12-1.04-1.61-2.12-3.17-3.18-4.75-2.81-4.18-5.68-8.26-8.6-12.26-1.38-1.89-2.75-3.78-4.15-5.63-2.61-3.44-5.29-6.74-7.97-10.03-1.88-2.3-3.73-4.65-5.65-6.88-1.8-2.1-3.66-4.06-5.48-6.09-3.66-4.07-7.35-8.05-11.1-11.85-1.63-1.65-3.28-3.23-4.93-4.83-7.76-7.52-15.65-14.53-23.66-20.8-1.08-.84-2.16-1.59-3.24-2.41-8.46-6.42-16.99-12.32-25.54-17.26-6.83-3.94-13.65-7.2-20.44-10.14-1.92-.83-3.84-1.62-5.75-2.37-4.04-1.57-8.04-2.93-12.03-4.13-2.01-.61-4.04-1.28-6.03-1.79-2.24-.57-4.45-.97-6.67-1.42-2.75-.55-5.51-1.09-8.22-1.45-1.62-.21-3.23-.34-4.84-.48-3.11-.27-6.18-.42-9.22-.41-1.26,0-2.53-.02-3.78.04-4.15.17-8.25.52-12.24,1.23-.36.06-.7.18-1.05.24-3.68.71-7.26,1.69-10.78,2.87-.95.32-1.89.64-2.82,1-3.8,1.44-7.53,3.06-11.09,5.1l25.69-14.94c-.21.11-.44.2-.64.31-.11.06-.22.12-.33.19l-68.36,39.75c3.57-2.03,7.29-3.66,11.09-5.1.93-.36,1.88-.68,2.82-1,3.52-1.18,7.1-2.17,10.78-2.87.35-.07.69-.18,1.05-.24,3.99-.71,8.08-1.07,12.24-1.24,1.25-.05,2.52-.03,3.79-.03,3.04,0,6.11.14,9.22.41,1.61.14,3.21.27,4.84.48,2.71.35,5.46.9,8.22,1.45,2.22.44,4.43.85,6.67,1.42,2,.51,4.02,1.19,6.03,1.79,3.99,1.2,7.99,2.55,12.03,4.13,1.91.75,3.83,1.54,5.75,2.37,6.79,2.94,13.61,6.19,20.44,10.14,8.55,4.94,17.08,10.83,25.54,17.26,1.08.82,2.16,1.57,3.24,2.41,8.01,6.28,15.9,13.29,23.66,20.8,1.65,1.6,3.3,3.18,4.93,4.83,3.75,3.79,7.44,7.77,11.1,11.84,1.83,2.03,3.68,4,5.49,6.1,1.91,2.23,3.77,4.57,5.64,6.88,2.68,3.29,5.36,6.59,7.97,10.03,1.4,1.84,2.77,3.74,4.15,5.63,2.92,4,5.79,8.07,8.6,12.25,1.06,1.58,2.13,3.14,3.18,4.75,3.83,5.89,7.59,11.9,11.18,18.12,3.47,6.02,6.68,12.07,9.77,18.12.76,1.48,1.52,2.97,2.26,4.45,3.01,6.09,5.88,12.19,8.51,18.28.33.78.62,1.55.95,2.32,2.27,5.37,4.37,10.73,6.34,16.08.69,1.87,1.36,3.73,2.01,5.6,1.56,4.46,2.98,8.89,4.33,13.31.61,1.99,1.26,4,1.83,5.98,1.15,4.02,2.1,8,3.07,11.98.62,2.54,1.32,5.1,1.87,7.62.49,2.27.82,4.47,1.26,6.72.97,5.01,1.88,10,2.56,14.91.35,2.51.58,4.97.85,7.45.52,4.71.92,9.37,1.17,13.95.13,2.53.23,5.03.28,7.51.09,4.54.01,8.97-.17,13.35-.1,2.21-.14,4.46-.3,6.63Z"/><path class="cls-136" d="m1408.56,1574.98c-31.77,18.2-73.4,12.43-114.98-11.57-41.58-24-83.1-66.25-114.67-121.02-63.29-109.44-62.96-227.58.75-263.88,31.77-18.11,73.4-12.3,114.98,11.71,41.58,24,83.1,66.2,114.67,120.88,63.29,109.63,62.96,227.76-.75,263.88Z"/><path class="cls-100" d="m1176.5,1182.07c31.77-18.11,73.4-12.3,114.98,11.71,41.58,24,83.1,66.2,114.67,120.88,55.05,95.36,61.96,197.14,20.9,245.79,44.55-47.11,38.7-151.61-17.73-249.36-31.57-54.68-73.09-96.87-114.67-120.88-41.58-24-83.21-29.81-114.98-11.71-8.27,4.71-15.46,10.82-21.6,18.09,5.4-5.72,11.55-10.6,18.43-14.53Z"/><path class="cls-189" d="m1373.65,1331.73s-19.16-6.47-50.01,10.53c-30.85,16.99-54.95,44.75-54.95,44.75,0,0-14.89-25.71-28.72-56.98-4.53-10.23-10.11-20.75-15.57-30.28l-37.35,19.83c42.24,66.11,75.58,156.18,75.58,156.18,0,0,24.85-37.98,58.9-63.13,34.05-25.15,87.08-26.13,87.08-26.13l-34.95-54.76Z"/><path class="cls-29" d="m1048.07,1105.68L227.59,628.99c-30.4-17.67-100.88,22.9-100.88,58.06l32.36,76.4c0,29.93,15.92,57.6,41.8,72.63l817.66,511.23c20.48,11.9,71.2-17.06,69.36-49.25v-123.17c0-28.52-15.17-54.88-39.83-69.21Z"/><path class="cls-207" d="m1010.15,1130.05L189.67,653.36c-30.4-17.66-68.52,4.27-68.52,39.43v95.02c0,29.93,15.92,57.6,41.8,72.63l840.88,488.54c20.48,11.9,46.15-2.88,46.15-26.56v-123.17c0-28.52-15.17-54.88-39.83-69.21Z"/><path class="cls-84" d="m1025.99,1199.29v123.13c0,1.98-.66,3.54-1.98,4.79-1.32,1.26-3.12,1.98-4.8,1.98-1.14,0-2.22-.3-3.35-.96l-174.08-101.13L174.99,839.73c-18.4-10.73-29.85-30.63-29.85-51.91v-95.01c0-13.43,11.27-21.7,21.7-21.7,3.72,0,7.37,1.02,10.79,3l664.15,385.88,156.34,90.82c17.21,10.01,27.87,28.59,27.87,48.5Z"/><path class="cls-7" d="m187.36,834.88c-18.43-10.7-29.87-30.59-29.87-51.9v-95.02c0-7.28,3.37-12.98,8.08-16.74-10.07.63-20.45,8.71-20.45,21.58v95.02c0,21.31,11.44,41.19,29.87,51.9l840.88,488.54c1.11.64,2.2.96,3.34.96,1.71,0,3.51-.74,4.81-1.99,1.33-1.28,1.98-2.85,1.98-4.79v-.31L187.36,834.88Z"/><path class="cls-35" d="m1025.99,1199.29v123.13c0,1.98-.66,3.54-1.98,4.79-1.32,1.26-3.12,1.98-4.8,1.98-1.14,0-2.22-.3-3.35-.96l-174.08-101.13v-167.13l156.34,90.82c17.21,10.01,27.87,28.59,27.87,48.5Z"/><ellipse class="cls-148" cx="200.54" cy="761.87" rx="13.16" ry="22.92" transform="translate(-419.48 275.83) rotate(-37.16)"/><ellipse class="cls-129" cx="272.37" cy="802.2" rx="13.16" ry="22.92" transform="translate(-429.26 327.41) rotate(-37.16)"/><ellipse class="cls-108" cx="344.21" cy="842.53" rx="13.16" ry="22.92" transform="translate(-439.03 378.99) rotate(-37.16)"/><ellipse class="cls-55" cx="416.05" cy="882.86" rx="13.16" ry="22.92" transform="translate(-448.81 430.58) rotate(-37.16)"/><ellipse class="cls-69" cx="487.89" cy="923.19" rx="13.16" ry="22.92" transform="translate(-458.58 482.16) rotate(-37.16)"/><ellipse class="cls-203" cx="559.73" cy="963.52" rx="13.16" ry="22.92" transform="translate(-468.36 533.74) rotate(-37.16)"/><path class="cls-21" d="m1048.07,1445.92L227.59,969.23c-30.4-17.67-100.88,22.9-100.88,58.06l32.36,76.4c0,29.93,15.92,57.6,41.8,72.63l817.66,511.23c20.48,11.9,71.2-17.06,69.36-49.25v-123.17c0-28.52-15.17-54.88-39.83-69.21Z"/><path class="cls-171" d="m1010.15,1470.29L189.67,993.6c-30.4-17.66-68.52,4.27-68.52,39.43v95.02c0,29.93,15.92,57.6,41.8,72.63l840.88,488.54c20.48,11.9,46.15-2.88,46.15-26.56v-123.17c0-28.52-15.17-54.88-39.83-69.21Z"/><path class="cls-84" d="m1025.99,1539.53v123.13c0,1.98-.66,3.54-1.98,4.79-1.32,1.26-3.12,1.98-4.8,1.98-1.14,0-2.22-.3-3.35-.96l-174.08-101.13-666.79-387.37c-18.4-10.73-29.85-30.63-29.85-51.91v-95.01c0-13.43,11.27-21.7,21.7-21.7,3.72,0,7.37,1.02,10.79,3l664.15,385.88,156.34,90.82c17.21,10.01,27.87,28.59,27.87,48.5Z"/><path class="cls-192" d="m187.36,1175.12c-18.43-10.7-29.87-30.59-29.87-51.9v-95.02c0-7.28,3.37-12.98,8.08-16.74-10.07.63-20.45,8.71-20.45,21.58v95.02c0,21.31,11.44,41.19,29.87,51.9l840.88,488.54c1.11.64,2.2.96,3.34.96,1.71,0,3.51-.74,4.81-1.99,1.33-1.28,1.98-2.85,1.98-4.79v-.31l-838.64-487.24Z"/><path class="cls-68" d="m1025.99,1539.53v123.13c0,1.98-.66,3.54-1.98,4.79-1.32,1.26-3.12,1.98-4.8,1.98-1.14,0-2.22-.3-3.35-.96l-174.08-101.13v-167.13l156.34,90.82c17.21,10.01,27.87,28.59,27.87,48.5Z"/><ellipse class="cls-172" cx="200.54" cy="1102.11" rx="13.16" ry="22.92" transform="translate(-625 344.91) rotate(-37.16)"/><ellipse class="cls-107" cx="272.37" cy="1142.44" rx="13.16" ry="22.92" transform="translate(-634.78 396.5) rotate(-37.16)"/><ellipse class="cls-152" cx="344.21" cy="1182.77" rx="13.16" ry="22.92" transform="translate(-644.55 448.08) rotate(-37.16)"/><ellipse class="cls-184" cx="416.05" cy="1223.1" rx="13.16" ry="22.92" transform="translate(-654.33 499.66) rotate(-37.16)"/><ellipse class="cls-14" cx="487.89" cy="1263.43" rx="13.16" ry="22.92" transform="translate(-664.1 551.24) rotate(-37.16)"/><ellipse class="cls-200" cx="559.73" cy="1303.76" rx="13.16" ry="22.92" transform="translate(-673.88 602.83) rotate(-37.16)"/><path class="cls-191" d="m465.09,1840.99v223.53c0,9.99-5.13,18.17-12.42,22.92l-3.37,1.82-.28.16c-7.56,3.48-16.73,3.53-25.01-1.27l-282.83-164.33c-18.5-10.77-29.93-30.54-29.93-51.91v-217.45c0-10.16,4.69-18.66,11.71-24.19,2.65-2.1,5.58-3.75,8.72-4.8,8.12-2.98,17.45-2.65,25.95,2.32l20.65,11.98,256.93,149.26c18.5,10.77,29.87,30.54,29.87,51.96Z"/><path class="cls-140" d="m546.72,1752.25l-93.05,53.52c-4.8-6.68-11.1-12.42-18.44-16.73l-256.93-149.26-20.65-11.98c-8.5-4.97-17.84-5.3-25.95-2.32l87.81-48.88,1.44-.83c9-5.19,20.59-5.96,30.92.05l277.53,161.24c6.85,3.92,12.7,9.17,17.34,15.19Z"/><path class="cls-58" d="m559.31,1789.02v223.52c0,13.42-9.28,23.69-20.76,26.56l.17.83-86.04,47.49c7.29-4.75,12.42-12.92,12.42-22.92v-223.53c0-12.87-4.08-25.13-11.43-35.23l93.05-53.52c8.06,10.38,12.59,23.25,12.59,36.78Z"/><ellipse class="cls-150" cx="440.29" cy="1738.44" rx="32.09" ry="19.76"/><ellipse class="cls-150" cx="233.05" cy="1629.57" rx="34.86" ry="21.46"/><path class="cls-150" d="m307.92,1835.59c0-15.23-12.35-35.14-27.58-44.47-15.23-9.33-27.58-4.54-27.58,10.69,0,11.65,7.24,26,17.46,36.29v57c0,5.57,4.56,12.92,10.13,16.33,5.57,3.41,10.13,1.64,10.13-3.93v-57c10.21,2.21,17.46-3.27,17.46-14.92Z"/><path class="cls-215" d="m18.59,1502.09v-254.89c0-59.22,48.01-79.83,107.23-46.03h0c59.22,33.8,107.23,109.21,107.23,168.43v254.89"/></svg>